<svg width="335" height="177" viewBox="0 0 335 177" fill="none" xmlns="http://www.w3.org/2000/svg">
<path d="M92.5076 2.13399C93.874 3.50036 94.6416 5.35355 94.6416 7.28589V84.5363C94.6416 85.4931 94.4531 86.4406 94.087 87.3245C93.7208 88.2085 93.1842 89.0117 92.5076 89.6882C91.8311 90.3648 91.0279 90.9015 90.1439 91.2676C89.2599 91.6338 88.3125 91.8222 87.3557 91.8222C86.3989 91.8222 85.4515 91.6338 84.5675 91.2676C83.6835 90.9015 82.8804 90.3648 82.2038 89.6882C81.5273 89.0117 80.9906 88.2085 80.6245 87.3245C80.2583 86.4406 80.0698 85.4931 80.0698 84.5363V7.28589C80.0698 5.35355 80.8375 3.50036 82.2038 2.13399C83.5702 0.767616 85.4234 0 87.3557 0C89.288 0 91.1412 0.767616 92.5076 2.13399Z" fill="#00A3DF"/>
<path d="M54.6217 34.7053C54.5719 32.8054 53.7822 31 52.4208 29.6738C51.0593 28.3476 49.2339 27.6055 47.3333 27.6055C45.4327 27.6055 43.6073 28.3476 42.2458 29.6738C40.8845 31 40.0947 32.8054 40.0449 34.7053V70.0181C40.0947 71.918 40.8845 73.7234 42.2458 75.0496C43.6073 76.3758 45.4327 77.1179 47.3333 77.1179C49.2339 77.1179 51.0593 76.3758 52.4208 75.0496C53.7822 73.7234 54.5719 71.918 54.6217 70.0181V34.7053Z" fill="#00A3DF"/>
<path d="M12.3759 49.7246C13.7372 51.0508 14.527 52.8562 14.5768 54.7561V70.0239C14.527 71.9238 13.7372 73.7292 12.3759 75.0554C11.0144 76.3816 9.18896 77.1237 7.28839 77.1237C5.38782 77.1237 3.56238 76.3816 2.20093 75.0554C0.839539 73.7292 0.0498047 71.9238 0 70.0239V54.7561C0.0498047 52.8562 0.839539 51.0508 2.20093 49.7246C3.56238 48.3984 5.38782 47.6562 7.28839 47.6562C9.18896 47.6562 11.0144 48.3984 12.3759 49.7246Z" fill="#00A3DF"/>
<path d="M165.057 130.503C164.846 130.428 158.642 128.716 153.585 128.716C147.686 128.716 144.501 130.719 144.501 133.503C144.501 136.929 148.629 138.207 151.06 138.96L151.226 139.011L155.277 140.303C164.791 143.308 169.143 149.857 169.143 156.933C169.143 171.56 156.284 176.462 145.052 176.462C139.734 176.41 134.431 175.879 129.208 174.875V161.505C129.337 161.537 129.514 161.584 129.735 161.643C131.732 162.177 137.297 163.663 143.074 163.663C150.385 163.663 153.74 161.54 153.74 158.22C153.74 155.285 150.831 153.593 147.23 152.451C146.781 152.302 146.224 152.122 145.665 151.942C145.101 151.76 144.535 151.578 144.075 151.425C135.928 148.851 129.083 144.044 129.083 134.399C129.083 123.523 137.235 116.207 150.78 116.207C155.603 116.271 160.403 116.895 165.082 118.065L165.057 130.503Z" fill="#00A3DF"/>
<path d="M74.5214 133.955C70.7411 131.895 66.5031 130.82 62.1981 130.83C52.6838 130.83 46.099 137.465 46.099 146.353C46.099 154.991 52.4034 161.876 62.1981 161.876C66.4982 161.877 70.7318 160.814 74.5214 158.782V174.395C70.1783 175.737 65.662 176.436 61.1164 176.468C44.6368 176.468 30.1602 165.086 30.1602 146.333C30.1602 128.957 43.2647 116.238 61.1164 116.238C65.6631 116.252 70.182 116.949 74.5214 118.306V133.955Z" fill="#00A3DF"/>
<path d="M215.407 130.83C219.715 130.819 223.957 131.894 227.74 133.955V118.306C223.411 116.95 218.902 116.253 214.365 116.238C196.479 116.238 183.364 128.957 183.364 146.333C183.364 165.086 197.841 176.468 214.365 176.468C218.901 176.432 223.407 175.733 227.74 174.395V158.782C223.948 160.817 219.711 161.88 215.407 161.876C205.622 161.876 199.313 154.991 199.313 146.353C199.313 137.465 205.893 130.83 215.407 130.83Z" fill="#00A3DF"/>
<path d="M94.7017 117.27H109.379V175.446H94.7017V117.27Z" fill="#00A3DF"/>
<path fill-rule="evenodd" clip-rule="evenodd" d="M273.929 176.488C291.816 176.488 304.655 162.993 304.655 146.353C304.655 129.733 291.821 116.258 273.929 116.258C256.037 116.258 243.208 129.713 243.208 146.353C243.208 162.993 256.042 176.488 273.929 176.488ZM258.741 146.353C258.741 137.92 265.211 131.055 273.929 131.055C282.612 131.055 289.122 137.875 289.122 146.353C289.122 154.83 282.647 161.676 273.929 161.676C265.211 161.676 258.741 154.785 258.741 146.353Z" fill="#00A3DF"/>
<path d="M134.681 34.7067C134.681 32.7757 133.914 30.9237 132.549 29.5583C131.183 28.1929 129.332 27.4258 127.401 27.4258C125.469 27.4258 123.618 28.1929 122.252 29.5583C120.887 30.9237 120.12 32.7757 120.12 34.7067V70.0194C120.12 71.9505 120.887 73.8024 122.252 75.1678C123.618 76.5332 125.469 77.3003 127.401 77.3003C129.332 77.3003 131.183 76.5332 132.549 75.1678C133.914 73.8024 134.681 71.9505 134.681 70.0194V34.7067Z" fill="#00A3DF"/>
<path d="M174.198 51.896C174.547 52.8085 174.708 53.782 174.671 54.7582V70.026C174.708 71.0022 174.547 71.9757 174.198 72.8883C173.849 73.8009 173.32 74.6338 172.643 75.3372C171.965 76.0407 171.152 76.6002 170.253 76.9824C169.354 77.3646 168.387 77.5616 167.41 77.5616C166.434 77.5616 165.467 77.3646 164.568 76.9824C163.669 76.6002 162.856 76.0407 162.178 75.3372C161.5 74.6338 160.971 73.8009 160.623 72.8883C160.274 71.9757 160.113 71.0022 160.15 70.026V54.7582C160.113 53.782 160.274 52.8085 160.623 51.896C160.971 50.9834 161.5 50.1505 162.178 49.447C162.856 48.7436 163.669 48.184 164.568 47.8018C165.467 47.4196 166.434 47.2227 167.41 47.2227C168.387 47.2227 169.354 47.4196 170.253 47.8018C171.152 48.184 171.965 48.7436 172.643 49.447C173.32 50.1505 173.849 50.9834 174.198 51.896Z" fill="#00A3DF"/>
<path d="M214.741 34.707C214.792 33.7215 214.643 32.7356 214.302 31.8097C213.96 30.8837 213.434 30.0369 212.754 29.321C212.075 28.605 211.257 28.0349 210.35 27.6452C209.443 27.2556 208.467 27.0547 207.48 27.0547C206.493 27.0547 205.516 27.2556 204.609 27.6452C203.703 28.0349 202.885 28.605 202.205 29.321C201.526 30.0369 201 30.8837 200.658 31.8097C200.317 32.7356 200.167 33.7215 200.219 34.707V70.0198C200.167 71.0054 200.317 71.9912 200.658 72.9172C201 73.8432 201.526 74.6899 202.205 75.4059C202.885 76.1219 203.703 76.692 204.609 77.0816C205.516 77.4712 206.493 77.6722 207.48 77.6722C208.467 77.6722 209.443 77.4712 210.35 77.0816C211.257 76.692 212.075 76.1219 212.754 75.4059C213.434 74.6899 213.96 73.8432 214.302 72.9172C214.643 71.9912 214.792 71.0054 214.741 70.0198V34.707Z" fill="#00A3DF"/>
<path d="M252.562 2.32269C253.916 3.62738 254.711 5.40618 254.781 7.28521V84.5357C254.817 85.5119 254.656 86.4854 254.308 87.3979C253.959 88.3105 253.43 89.1434 252.752 89.8468C252.074 90.5503 251.262 91.1098 250.363 91.492C249.464 91.8742 248.497 92.0712 247.52 92.0712C246.543 92.0712 245.576 91.8742 244.677 91.492C243.778 91.1098 242.966 90.5503 242.288 89.8468C241.61 89.1434 241.081 88.3105 240.732 87.3979C240.384 86.4854 240.223 85.5119 240.259 84.5357V7.28521C240.329 5.40618 241.125 3.62738 242.479 2.32269C243.833 1.01801 245.64 0.289062 247.52 0.289062C249.4 0.289062 251.208 1.01801 252.562 2.32269Z" fill="#00A3DF"/>
<path d="M294.815 34.7055C294.815 32.7665 294.045 30.9069 292.674 29.5359C291.303 28.1648 289.443 27.3945 287.505 27.3945C285.566 27.3945 283.706 28.1648 282.335 29.5359C280.964 30.9069 280.194 32.7665 280.194 34.7055V70.0182C280.194 71.9572 280.964 73.8168 282.335 75.1878C283.706 76.5589 285.566 77.3292 287.505 77.3292C289.443 77.3292 291.303 76.5589 292.674 75.1878C294.045 73.8168 294.815 71.9572 294.815 70.0182V34.7055Z" fill="#00A3DF"/>
<path d="M334.332 51.896C334.681 52.8085 334.842 53.782 334.806 54.7582V70.026C334.842 71.0022 334.681 71.9757 334.332 72.8883C333.984 73.8009 333.455 74.6338 332.777 75.3372C332.099 76.0407 331.286 76.6002 330.387 76.9824C329.488 77.3646 328.521 77.5616 327.545 77.5616C326.568 77.5616 325.601 77.3646 324.702 76.9824C323.803 76.6002 322.99 76.0407 322.312 75.3372C321.635 74.6338 321.106 73.8009 320.757 72.8883C320.409 71.9757 320.248 71.0022 320.284 70.026V54.7582C320.248 53.782 320.409 52.8085 320.757 51.896C321.106 50.9834 321.635 50.1505 322.312 49.447C322.99 48.7436 323.803 48.184 324.702 47.8018C325.601 47.4196 326.568 47.2227 327.545 47.2227C328.521 47.2227 329.488 47.4196 330.387 47.8018C331.286 48.184 332.099 48.7436 332.777 49.447C333.455 50.1505 333.984 50.9834 334.332 51.896Z" fill="#00A3DF"/>
<path d="M326.403 167.785V168.692H323.829V175.447H322.742V168.692H320.133V167.785H326.403Z" fill="#00A3DF"/>
<path d="M328.616 167.785H326.948V175.447H328.03V169.177H328.055L330.323 175.447H331.345L333.679 169.177H333.709V175.447H334.81V167.785H333.178L330.959 174.055H330.904L328.616 167.785Z" fill="#00A3DF"/>
</svg>
