<svg width="310" height="67" viewBox="0 0 310 67" fill="none" xmlns="http://www.w3.org/2000/svg">
<path d="M309.059 29.9298V24.4162C308.483 24.4162 307.907 24.4151 307.331 24.4139C305.667 24.4107 304.003 24.4075 302.34 24.4313C302.311 22.8075 302.316 21.1801 302.32 19.5525V19.5491C302.323 18.3425 302.326 17.1359 302.316 15.9307C301.513 16.1727 300.712 16.4202 299.911 16.6677L299.91 16.668C298.476 17.111 297.042 17.5541 295.597 17.9653C295.566 19.1869 295.57 20.409 295.575 21.6311V21.6334C295.578 22.5612 295.581 23.4888 295.569 24.4162H285.635C285.649 23.8523 285.641 23.2884 285.633 22.7245V22.724C285.616 21.591 285.599 20.4579 285.762 19.3249C285.963 18.0049 286.733 16.6699 288.025 16.157C289.656 15.4876 291.479 15.9326 293.029 16.6152C293.029 16.1143 293.03 15.6133 293.031 15.1124V15.1081C293.034 13.6702 293.037 12.2326 293.016 10.7961C289.754 9.89851 286.014 10.0739 283.12 11.9576C281.258 13.1842 279.9 15.0415 279.298 17.1885C278.799 18.8148 278.822 20.5044 278.845 22.1904C278.855 22.9381 278.865 23.6852 278.83 24.4256L278.504 24.4232C277.042 24.4124 275.582 24.4017 274.116 24.435C274.127 25.6445 274.123 26.854 274.12 28.0629V28.0658C274.118 28.6691 274.116 29.2722 274.116 29.8752C274.952 29.8922 275.789 29.8911 276.626 29.8901C277.365 29.8891 278.103 29.8882 278.841 29.8997C278.829 37.5328 278.829 45.1653 278.841 52.7972H285.63V29.8921H295.567V44.489C295.597 46.7518 295.984 49.1786 297.485 50.9681C298.784 52.5521 300.847 53.2761 302.838 53.4195C304.937 53.5684 307.105 53.312 309.046 52.4766V46.9007C307.558 47.8964 305.503 48.2924 303.883 47.3854C302.916 46.8517 302.54 45.709 302.416 44.6776C302.278 43.5067 302.291 42.3292 302.304 41.1494C302.31 40.5658 302.316 39.9818 302.305 39.3977V29.8865C303.099 29.8931 303.891 29.889 304.683 29.8849C306.144 29.8774 307.601 29.8699 309.059 29.9298Z" fill="white"/>
<path d="M137.741 12.3575C135.856 12.5819 134.247 14.279 134.291 16.2099C134.212 18.0371 135.68 19.6758 137.444 19.9925C139.141 20.3697 141.092 19.6456 141.969 18.1069C142.352 17.412 142.512 16.6163 142.428 15.8274C142.343 15.0385 142.019 14.2946 141.498 13.6963C140.593 12.6177 139.11 12.1501 137.741 12.3575Z" fill="white"/>
<path d="M111.87 30.9301L111.871 30.9272C114.278 25.0298 116.685 19.1324 119.06 13.2212C121.396 13.1835 123.737 13.1953 126.075 13.2071H126.075C126.903 13.2112 127.73 13.2154 128.556 13.2174V52.8162C127.611 52.8107 126.665 52.813 125.72 52.8153H125.719C124.38 52.8185 123.042 52.8218 121.704 52.803C121.718 47.3203 121.715 41.84 121.713 36.3604V36.3585C121.711 32.0973 121.709 27.8365 121.715 23.5753C121.719 23.1303 121.704 22.6928 121.674 22.2553C121.54 22.458 121.421 22.6697 121.317 22.8889C119.615 27.2151 117.898 31.5359 116.181 35.8569L116.179 35.8609C113.94 41.496 111.7 47.1312 109.492 52.7785C108.546 52.8125 107.599 52.8082 106.651 52.8038H106.65C105.971 52.8007 105.292 52.7976 104.612 52.8086C102.187 46.8272 99.7775 40.8377 97.3682 34.8481L97.3634 34.8363C95.7586 30.8467 94.1538 26.8572 92.5442 22.8701C92.4386 22.6626 92.3254 22.4552 92.2029 22.2666C92.1512 24.9255 92.1588 27.5859 92.1664 30.2459V30.2467C92.171 31.8554 92.1756 33.4641 92.167 35.0721V52.7973H85.703V13.1985H95.5857C98.6681 20.9989 101.748 28.8011 104.825 36.6052C105.113 37.3196 105.394 38.037 105.675 38.7545L105.676 38.7562C106.162 39.9982 106.649 41.2406 107.171 42.4677C108.73 38.6241 110.297 34.7843 111.864 30.9445L111.866 30.9406L111.867 30.938L111.87 30.9301Z" fill="white"/>
<path d="M166.515 24.4201C163.22 23.4807 159.729 23.4702 156.428 24.39C153.421 25.2574 150.66 27.1034 148.895 29.7113C146.789 32.7679 146.044 36.5864 146.21 40.2464C146.374 43.767 147.762 47.2818 150.319 49.7464C152.672 52.0318 155.914 53.2631 159.164 53.4347C162.342 53.5912 165.67 53.1651 168.446 51.5132C168.432 50.3794 168.434 49.2455 168.435 48.1117C168.436 47.1958 168.437 46.28 168.431 45.3641C166.641 46.6728 164.552 47.6099 162.338 47.8645C160.098 48.0342 157.697 47.4874 155.985 45.9788C154.337 44.574 153.46 42.4564 153.242 40.3369C152.959 37.6235 153.336 34.6837 155.033 32.47C155.705 31.5818 156.555 30.8443 157.53 30.3049C158.504 29.7654 159.581 29.436 160.69 29.3379C163.473 28.9872 166.251 30.0469 168.44 31.7195C168.449 30.7743 168.447 29.8276 168.445 28.8816V28.8799C168.442 27.6599 168.44 26.4408 168.461 25.2272C167.85 24.875 167.196 24.6037 166.515 24.4201Z" fill="white"/>
<path d="M234.013 36.0174C234.971 36.413 235.93 36.8085 236.827 37.3276C238.398 38.2101 239.921 39.3584 240.71 41.0272C242.205 44.1423 241.571 48.2587 238.943 50.5819C236.433 52.9276 232.818 53.5763 229.494 53.4518C227.133 53.2991 224.761 52.8333 222.59 51.8679C222.595 50.9437 222.593 50.0198 222.592 49.0961C222.59 47.8318 222.587 46.5679 222.602 45.3039C224.425 46.6486 226.533 47.558 228.762 47.9627C230.322 48.221 232.009 48.221 233.448 47.5309C234.824 46.8426 235.081 44.8759 234.259 43.6728C233.516 42.7767 232.437 42.2694 231.404 41.7839L231.295 41.7325C230.887 41.5491 230.474 41.3718 230.062 41.1943L230.061 41.1938C228.45 40.5011 226.833 39.8055 225.434 38.7324C224.179 37.7702 223.286 36.4129 222.898 34.88C222.358 32.6229 222.521 30.0791 223.841 28.1067C225.34 25.81 227.944 24.4316 230.597 23.9583C233.736 23.4058 237.023 23.8055 239.995 24.9369V31.1785C237.902 29.7368 235.404 28.9991 232.863 29.0722C231.594 29.1212 230.199 29.6586 229.62 30.8654C229.16 32.0591 229.473 33.6242 230.604 34.3388C231.667 35.0495 232.84 35.5335 234.013 36.0174Z" fill="white"/>
<path d="M183.635 24.8519C181.937 25.8154 180.851 27.5314 180.125 29.2982V24.4257C177.891 24.4144 175.656 24.4031 173.422 24.4257C173.436 33.8804 173.436 43.3357 173.422 52.7916H180.116V39.2149C180.061 37.25 180.223 35.2173 181.083 33.4203C181.875 31.7232 183.403 30.243 185.33 30.0261C186.937 29.8616 188.553 30.2414 189.919 31.1047V24.3163C187.89 23.6318 185.509 23.7261 183.635 24.8519Z" fill="white"/>
<path d="M134.915 52.7972V24.4256C135.29 24.424 135.665 24.422 136.041 24.4201C137.917 24.4104 139.794 24.4007 141.667 24.4369C141.652 30.1088 141.654 35.7815 141.657 41.454C141.658 45.2352 141.66 49.0163 141.656 52.7972H134.915Z" fill="white"/>
<path fill-rule="evenodd" clip-rule="evenodd" d="M212.153 25.0479C209.136 23.6713 205.691 23.4866 202.433 23.9014C199.01 24.3332 195.678 25.9436 193.506 28.6721C191.522 31.1084 190.557 34.2386 190.372 37.3461C190.099 41.0062 190.71 44.8887 192.859 47.9454C194.69 50.5853 197.573 52.3937 200.704 53.0612C203.325 53.6071 206.032 53.6071 208.653 53.0612C211.706 52.4333 214.557 50.7437 216.449 48.2509C218.297 45.9032 219.224 42.9428 219.434 39.9879C219.647 36.9709 219.341 33.8275 218.084 31.0367C216.895 28.3895 214.789 26.262 212.153 25.0479ZM211.525 44.0723C210.883 45.558 209.686 46.734 208.19 47.3495C206.414 48.0002 204.481 48.0852 202.655 47.5928C201.739 47.3372 200.887 46.8916 200.154 46.2851C199.422 45.6786 198.825 44.9246 198.403 44.0723C197.309 41.8887 197.145 39.3581 197.372 36.969C197.577 34.7911 198.335 32.5509 199.994 31.048C201.198 29.9166 202.838 29.3755 204.462 29.2849C206.502 29.1511 208.674 29.7281 210.141 31.2121C211.71 32.7545 212.317 34.9834 212.485 37.1274C212.602 39.4694 212.506 41.9038 211.525 44.0723Z" fill="white"/>
<path fill-rule="evenodd" clip-rule="evenodd" d="M256.553 23.8919C259.941 23.4714 263.539 23.6996 266.632 25.2609C269.334 26.6499 271.416 29.0035 272.464 31.8551C273.281 34.0104 273.567 36.3373 273.52 38.6321C273.526 42.0602 272.6 45.5789 270.448 48.298C268.434 50.9304 265.353 52.6407 262.101 53.1781C258.919 53.6891 255.554 53.559 252.536 52.3691C249.444 51.1407 246.964 48.7371 245.639 45.6845C244.294 42.5976 244.132 39.1243 244.571 35.8263C245.011 32.5282 246.504 29.3038 249.05 27.1107C251.135 25.2798 253.821 24.2427 256.553 23.8919ZM264.584 45.643C265.563 44.4607 266.079 42.971 266.34 41.4776V41.4832C266.68 39.4731 266.66 37.4186 266.283 35.4152C265.943 33.7068 265.191 32.021 263.832 30.8896C262.351 29.5942 260.309 29.151 258.391 29.2849C256.513 29.3999 254.65 30.1995 253.436 31.6627C252.105 33.2354 251.533 35.3039 251.379 37.3197C251.218 39.4015 251.379 41.5568 252.184 43.5028C252.855 45.1357 254.126 46.5556 255.767 47.2496C257.286 47.9039 258.999 48.0208 260.624 47.7776C262.133 47.555 263.605 46.8253 264.584 45.643Z" fill="white"/>
<path d="M0 0H31.3962C31.3962 10.4654 31.3962 20.9308 31.3962 31.3962H0V0Z" fill="#F25022"/>
<path d="M34.6019 0H65.9981C65.9981 10.4654 65.9981 20.9308 65.9981 31.3962H34.6038C34.6038 20.9308 34.6038 10.4654 34.6038 0H34.6019Z" fill="#80BA01"/>
<path d="M0 34.5977C10.4654 34.5977 20.9308 34.5977 31.3962 34.5977C31.3962 45.0631 31.3962 55.5278 31.3962 65.992H0V34.5977Z" fill="#02A4EF"/>
<path d="M34.6037 34.6055C45.0666 34.6055 55.5313 34.6055 65.998 34.6055V66.0016H34.6018C34.6018 55.5363 34.6018 45.0715 34.6018 34.6073L34.6037 34.6055Z" fill="#FFB902"/>
</svg>
