<svg width="273" height="35" fill="none" xmlns="http://www.w3.org/2000/svg"><path d="M118.114 22.752h18.005l-9.51-15.149-17.485 27.362h-7.952l21.266-32.827a5.05 5.05 0 0 1 1.797-1.563 5.12 5.12 0 0 1 4.654-.033 5.043 5.043 0 0 1 1.819 1.537l21.325 32.886h-7.951l-3.745-6.118h-18.218l-3.969-6.095h-.036Zm82.653 6.095V.331h-6.758v31.325a3.193 3.193 0 0 0 1.005 2.33 3.41 3.41 0 0 0 1.124.753c.422.174.875.263 1.333.261h30.717l4.005-6.118h-31.461l.035-.035ZM89.039 23.755c3.15 0 6.17-1.234 8.396-3.43a11.631 11.631 0 0 0 3.478-8.282c0-3.106-1.251-6.085-3.478-8.281a11.957 11.957 0 0 0-8.396-3.43H59.503v34.633h6.746V6.461h22.377c1.507 0 2.952.59 4.018 1.642a5.567 5.567 0 0 1 1.664 3.963 5.567 5.567 0 0 1-1.664 3.964 5.723 5.723 0 0 1-4.018 1.642H69.593l20.155 17.293h9.794l-13.54-11.21h3.037Zm-71.028 11.21h20.404a17.67 17.67 0 0 0 12.118-5.226 17.194 17.194 0 0 0 4.983-12.085c0-4.515-1.788-8.851-4.983-12.085A17.67 17.67 0 0 0 38.415.343H18.012a17.772 17.772 0 0 0-6.857 1.187 17.585 17.585 0 0 0-5.85 3.721 17.31 17.31 0 0 0-3.925 5.673 17.113 17.113 0 0 0 0 13.46 17.31 17.31 0 0 0 3.924 5.673 17.585 17.585 0 0 0 5.85 3.722 17.772 17.772 0 0 0 6.858 1.186Zm19.943-6.095H18.46a11.438 11.438 0 0 1-7.798-3.406 11.13 11.13 0 0 1-3.2-7.798 11.13 11.13 0 0 1 3.2-7.798A11.438 11.438 0 0 1 18.46 6.46h19.494c1.523-.048 3.04.206 4.46.747a11.385 11.385 0 0 1 3.812 2.404 11.207 11.207 0 0 1 2.56 3.68 11.079 11.079 0 0 1 0 8.747 11.207 11.207 0 0 1-2.56 3.68 11.386 11.386 0 0 1-3.811 2.404 11.505 11.505 0 0 1-4.461.747Zm128.174 6.095h20.828l3.946-6.095h-24.314a11.504 11.504 0 0 1-4.46-.747 11.384 11.384 0 0 1-3.812-2.404 11.209 11.209 0 0 1-2.559-3.68 11.083 11.083 0 0 1 0-8.747 11.209 11.209 0 0 1 2.559-3.68 11.383 11.383 0 0 1 3.812-2.404 11.505 11.505 0 0 1 4.46-.747h19.789l3.994-6.118h-24.243a17.771 17.771 0 0 0-6.857 1.187 17.585 17.585 0 0 0-5.851 3.721 17.32 17.32 0 0 0-3.924 5.673 17.112 17.112 0 0 0 0 13.46 17.321 17.321 0 0 0 3.924 5.673 17.585 17.585 0 0 0 5.851 3.722 17.77 17.77 0 0 0 6.857 1.186Zm82.546-6.095a11.47 11.47 0 0 1-6.858-2.267 11.21 11.21 0 0 1-4.082-5.89h28.851l3.969-6.106h-32.82a11.2 11.2 0 0 1 4.081-5.892 11.454 11.454 0 0 1 6.859-2.266h19.801l3.958-6.118h-24.219a17.67 17.67 0 0 0-12.119 5.226 17.196 17.196 0 0 0-4.982 12.085c0 4.515 1.788 8.852 4.982 12.085a17.671 17.671 0 0 0 12.119 5.226h20.828L273 28.86h-24.338" fill="#fff"/></svg>