<svg width="336" height="55" viewBox="0 0 336 55" fill="none" xmlns="http://www.w3.org/2000/svg">
<path d="M40.9476 0V27.3019H27.2985V13.6491H13.6532V0H40.9476Z" fill="#2C9382"/>
<path d="M27.2982 27.3023V40.9476H0V13.6494H13.6528V27.3023H27.2982Z" fill="white"/>
<path d="M27.2983 40.9473H40.9512V54.6001H27.2983V40.9473Z" fill="#F25E30"/>
<path d="M77.2806 54.4571V40.7667C75.9721 42.6091 73.2348 43.8011 69.5424 43.8011C61.0897 43.8011 54.9006 37.3112 54.9006 28.2644C54.9006 19.4546 60.7325 12.8481 69.1889 12.8481C74.4267 12.8481 76.867 15.2283 77.525 16.4804V13.5625H86.1732V54.4571H77.2806ZM70.7343 35.7207C74.2462 35.7207 77.4009 33.2804 77.4009 28.3396C77.4009 23.3989 74.2462 21.0188 70.7343 21.0188C67.2224 21.0188 64.0677 23.3989 64.0677 28.3396C64.0677 33.2052 67.2224 35.7207 70.7343 35.7207ZM112.58 40.1688C111.035 42.7295 107.639 43.8011 104.665 43.8011C97.4609 43.8011 93.4151 38.5633 93.4151 32.2539V13.5625H102.462V30.3475C102.462 33.2052 104.011 35.4687 107.226 35.4687C110.26 35.4687 112.167 33.3857 112.167 30.4077V13.5625H121.213V37.8489C121.211 39.6191 121.31 41.388 121.51 43.1468H112.821C112.671 42.161 112.591 41.1659 112.58 40.1688V40.1688ZM128.835 43.1468V13.5625H137.882V43.1468H128.835ZM152.283 28.3848C152.283 33.0886 155.441 35.7207 159.194 35.7207C162.706 35.7207 164.669 33.5173 165.323 31.3176L173.298 33.7579C171.989 38.9355 167.109 44.053 159.194 44.053C150.384 44.053 143.3 37.5669 143.3 28.3998C143.3 19.1726 150.204 12.6827 158.893 12.6827C167.049 12.6827 171.813 17.6836 173.121 22.9815L165.026 25.4218C164.371 23.1658 162.585 21.0188 159.074 21.0188C155.325 21.0037 152.283 23.6207 152.283 28.3848V28.3848ZM196.693 26.0046L208.481 43.1468H197.404L190.44 32.7314L187.522 35.8861V43.1468H178.479V0.0488281H187.526V23.5042L196.516 13.5625H208.244L196.693 26.0046ZM212.41 43.1468V0.0488281H221.28V16.36C222.532 14.5138 225.792 12.8481 229.853 12.8481C238.422 12.8481 243.604 19.3944 243.604 28.2644C243.604 37.3112 237.768 43.8011 229.496 43.8011C225.567 43.8011 222.532 42.0752 221.16 39.8116V43.1468H212.41ZM227.887 21.0037C224.375 21.0037 221.16 23.3237 221.16 28.3246C221.16 33.2127 224.375 35.7056 227.887 35.7056C231.399 35.7056 234.553 33.2653 234.553 28.3246C234.553 23.3124 231.399 21.0037 227.887 21.0037ZM256.061 26.061L263.025 24.9894C264.63 24.7525 265.168 23.978 265.168 22.9665C265.168 21.2406 263.664 19.7516 260.821 19.7516C257.666 19.7516 255.933 21.8949 255.764 24.0983L247.905 22.4927C248.281 18.2664 252.192 12.6676 260.881 12.6676C270.466 12.6676 273.978 18.0257 273.978 24.0983V38.5633C273.981 40.0987 274.106 41.6314 274.354 43.1468H266.164C265.936 42.0504 265.836 40.9311 265.867 39.8116C264.333 42.3121 261.46 43.9928 257.531 43.9928C251.045 43.9928 247.296 39.7063 247.296 35.0025C247.296 29.7534 251.173 26.7754 256.061 26.061V26.061ZM265.168 31.5395V30.231L259.558 31.1221C257.651 31.4191 256.223 32.314 256.223 34.3971C256.223 35.9425 257.234 37.4315 259.735 37.4315C262.415 37.4315 265.153 36.123 265.153 31.5395H265.168ZM286.465 33.3857C286.581 35.4086 288.01 37.3713 291.105 37.3713C293.429 37.3713 294.56 36.123 294.56 34.8145C294.56 33.7429 293.846 32.848 291.643 32.3704L288.258 31.6184C281.949 30.2498 279.449 26.6965 279.449 22.5115C279.449 17.0933 284.209 12.6864 290.815 12.6864C299.388 12.6864 302.366 18.0446 302.663 21.4963L295.166 22.8462C294.929 20.8834 293.662 19.2177 290.939 19.2177C289.214 19.2177 287.725 20.2292 287.725 21.7783C287.725 23.0267 288.736 23.7411 290.048 23.978L293.974 24.7525C300.095 26.0046 303.062 29.7045 303.062 34.0399C303.062 39.0972 299.189 44.038 291.274 44.038C281.987 44.038 279.012 38.0218 278.772 34.7543L286.465 33.3857ZM335.455 34.634C334.026 39.7515 329.322 44.0342 321.825 44.0342C313.669 44.0342 306.408 38.2023 306.408 28.2607C306.408 18.7364 313.492 12.6639 321.174 12.6639C330.337 12.6639 335.993 18.304 335.993 27.8433C336.003 28.7789 335.944 29.714 335.816 30.6408H315.214C315.395 33.976 318.429 36.3561 321.941 36.3561C325.216 36.3561 327.062 34.8107 327.893 32.487L335.455 34.634ZM327.239 24.8164C327.123 22.5604 325.573 19.8155 321.287 19.8155C317.478 19.8155 315.572 22.613 315.395 24.8164H327.239ZM128.865 0.0488281H137.874V9.05797H128.865V0.0488281Z" fill="white"/>
</svg>
