<svg width="300" height="71" viewBox="0 0 300 71" fill="none" xmlns="http://www.w3.org/2000/svg">
<path d="M78.137 35.0947C78.9868 39.094 78.9868 39.544 78.9868 40.0439C78.9868 46.8927 71.2881 50.6921 61.1398 50.6921C38.1936 50.6921 18.147 37.2943 18.147 28.3958C18.147 27.146 18.3969 25.9462 18.8968 24.7964L20.6965 20.3472C20.5966 20.6471 20.5966 20.9471 20.5966 21.297C20.5966 25.7963 38.3936 40.6438 62.2396 40.6438C68.3886 40.6438 77.2371 39.394 77.2371 32.0952C77.2371 31.5453 77.1871 30.9454 77.0871 30.3955L78.137 35.0947Z" fill="black"/>
<path d="M283.953 45.2431C283.953 51.0921 287.452 53.8916 293.851 53.8916C295.801 53.8416 297.75 53.5417 299.7 53.0918V46.3429C298.5 46.7428 297.2 46.9428 295.951 46.8928C293.301 46.8928 292.351 46.0929 292.351 43.5934V33.2451H300V26.2962H292.351V17.4477L284.003 19.2474V26.2462H278.454V33.1951H283.953V45.2431V45.2431ZM257.957 45.3931C257.957 43.5934 259.757 42.6935 262.506 42.6935C264.156 42.6935 265.856 42.8935 267.455 43.2934V46.7928C265.856 47.6427 264.056 48.0926 262.256 48.0926C259.557 48.1426 257.957 47.0928 257.957 45.3931ZM260.507 53.9916C263.456 53.9916 265.806 53.3917 268.055 51.892V53.5417H276.304V36.0446C276.304 29.3957 271.805 25.7463 264.356 25.7463C260.157 25.7463 256.057 26.7462 251.608 28.7458L254.608 34.8948C257.807 33.545 260.507 32.7452 262.856 32.7452C266.306 32.7452 268.055 34.0949 268.055 36.7945V38.1443C266.056 37.6443 263.956 37.3444 261.856 37.3944C254.857 37.3944 250.608 40.3439 250.608 45.593C250.608 50.3922 254.408 54.0416 260.507 53.9916ZM215.164 53.5417H224.013V39.3941H238.86V53.5417H247.759V17.4477H238.91V31.2954H224.063V17.4477H215.214L215.164 53.5417ZM181.42 39.894C181.42 35.9946 184.519 32.9951 188.569 32.9951C190.668 32.9451 192.768 33.695 194.318 35.0948V44.6432C192.768 46.0929 190.668 46.8928 188.569 46.8428C184.569 46.7928 181.42 43.8433 181.42 39.894ZM194.468 53.5917H202.716V15.698L194.368 17.4977V27.746C192.268 26.5462 189.868 25.8963 187.419 25.9463C179.47 25.9463 173.221 32.0953 173.221 39.894C173.121 47.5427 179.27 53.8416 186.919 53.8916C187.019 53.8916 187.069 53.8916 187.169 53.8916C189.818 53.8916 192.368 53.0918 194.468 51.542V53.5917ZM156.574 32.5952C159.223 32.5952 161.423 34.2949 162.273 36.9445H150.875C151.775 34.1949 153.824 32.5952 156.574 32.5952ZM142.526 39.944C142.526 47.8926 149.025 54.0916 157.374 54.0916C161.973 54.0916 165.322 52.8418 168.772 49.9423L163.273 45.0431C161.973 46.3929 160.073 47.0928 157.824 47.0928C154.924 47.1928 152.225 45.443 151.125 42.7435H170.572V40.6938C170.572 32.0453 164.723 25.7963 156.824 25.7963C149.075 25.6963 142.726 31.8453 142.626 39.594C142.526 39.694 142.526 39.844 142.526 39.944ZM128.179 25.0464C131.128 25.0464 132.778 26.8961 132.778 29.0958C132.778 31.2954 131.128 33.1451 128.179 33.1451H119.43V25.0464H128.179ZM110.532 53.5417H119.38V40.3939H126.129L132.928 53.5417H142.876L134.927 39.0941C139.077 37.3944 141.726 33.395 141.726 28.9458C141.726 22.4469 136.627 17.4477 128.978 17.4477H110.482V53.5417H110.532Z" fill="white"/>
<path d="M62.1896 40.6932C68.3386 40.6932 77.1871 39.4434 77.1871 32.1446C77.1871 31.5947 77.1371 30.9948 77.0371 30.4449L73.3878 14.5976C72.5379 11.0982 71.788 9.5484 65.689 6.44892C60.9398 3.99933 50.5916 0 47.4921 0C44.6425 0 43.7927 3.69938 40.3933 3.69938C37.0938 3.69938 34.6942 0.949846 31.6447 0.949846C28.6952 0.949846 26.7955 2.94951 25.2958 7.09882C25.2958 7.09882 21.1965 18.7469 20.6466 20.3966C20.5466 20.6966 20.5466 21.0465 20.5466 21.3464C20.5466 25.8457 38.3436 40.6432 62.1896 40.6932ZM78.137 35.0942C78.9868 39.0935 78.9868 39.5434 78.9868 40.0433C78.9868 46.8922 71.2881 50.6915 61.1398 50.6915C38.1936 50.6915 18.147 37.2938 18.147 28.3953C18.147 27.1455 18.3969 25.9457 18.8968 24.7959C10.6482 25.1958 0 26.6956 0 36.094C0 51.5414 36.5439 70.5382 65.5391 70.5382C87.7354 70.5382 93.3344 60.4899 93.3344 52.5912C93.2844 46.3923 87.8853 39.2934 78.137 35.0942Z" fill="#EE0000"/>
</svg>
