<svg width="292" height="90" viewBox="0 0 292 90" fill="none" xmlns="http://www.w3.org/2000/svg">
<path d="M19.3142 31.1779C19.6347 32.1749 19.6655 33.2423 19.4029 34.2561C19.0529 35.6552 18.1103 37.0544 15.3431 37.0544C12.7393 37.0544 11.1434 35.5573 11.1434 33.2906V29.2611H0V32.4651C0 41.7416 7.30292 44.5352 15.1145 44.5352C22.646 44.5352 28.829 41.9747 29.8183 35.0396C30.1872 32.7755 30.1698 30.4653 29.767 28.207C28.7555 23.1924 23.105 20.2038 18.2646 17.6436C14.6866 15.7512 11.5512 14.0929 11.0594 12.0234C10.8893 11.3092 10.8702 10.5674 11.0034 9.84541C11.302 8.51155 12.212 7.04709 14.8065 7.04709C17.2377 7.04709 18.6703 8.54419 18.6703 10.8155V13.3853H29.0577V10.4704C29.0577 1.41781 20.9148 0 15.0258 0C7.6389 0 1.59591 2.44386 0.485306 9.22978C0.150778 11.0839 0.185664 12.9858 0.587966 14.8264C1.61251 19.685 6.88559 22.5707 11.6152 25.1589C15.1575 27.0974 18.395 28.8691 19.3142 31.1779Z" fill="white"/>
<path d="M53.7376 5.18199L48.0586 42.8893H36.8079L44.5214 1.32031H63.0237L70.6953 42.8893H59.5146L53.9709 5.18199H53.7376Z" fill="white"/>
<path d="M240.87 33.9526L240.3 1.32422H250.604V42.4595H235.783L225.522 8.71177H225.293L225.867 42.4595H215.638V1.32422H231.08L240.632 33.9526H240.87Z" fill="white"/>
<path d="M107.364 1.32422L102.226 33.1038H101.998L96.8738 1.32422H79.9068L78.9922 42.8886H89.4029L89.6596 5.52169H89.8929L96.8365 42.8886H107.397L114.345 5.53569L114.569 5.52169L114.83 42.8886H125.241L124.322 1.32422H107.364Z" fill="white"/>
<path d="M154.607 34.1355C154.877 33.1329 154.851 32.0736 154.532 31.0854L154.527 31.0807C153.616 28.7973 150.41 27.0445 146.902 25.1269C142.222 22.5676 137.004 19.7149 135.988 14.9158C135.587 13.0891 135.552 11.2013 135.885 9.36111C136.977 2.64515 142.964 0.224609 150.276 0.224609C156.114 0.224609 164.168 1.6331 164.168 10.5924V13.484H153.902V10.9375C153.902 8.68952 152.493 7.20641 150.071 7.20641C147.504 7.20641 146.604 8.64288 146.31 9.96742C146.177 10.6828 146.193 11.4178 146.356 12.1268C146.852 14.1712 149.956 15.8125 153.495 17.6845C158.289 20.2197 163.883 23.1779 164.882 28.1332C165.278 30.3641 165.292 32.6461 164.924 34.8818C163.949 41.7563 157.836 44.2981 150.369 44.2981C142.637 44.2981 135.404 41.5231 135.404 32.3446V29.1685H146.459V33.1561C146.459 35.4088 148.022 36.8872 150.593 36.8872C153.333 36.8872 154.275 35.4974 154.607 34.1355Z" fill="white"/>
<path d="M189.436 36.6662C192.334 36.6662 193.226 34.6794 193.431 33.6487C193.513 33.1243 193.546 32.5934 193.529 32.063V1.32812H204.047V31.1255C204.047 31.8857 203.986 33.4575 203.954 33.8586C203.221 41.6146 197.08 44.119 189.436 44.119C181.793 44.119 175.661 41.6052 174.929 33.8586C174.887 33.4435 174.812 31.8857 174.835 31.1255V1.32812H185.358V32.063C185.333 32.5934 185.364 33.1249 185.451 33.6487C185.657 34.6794 186.553 36.6662 189.436 36.6662Z" fill="white"/>
<path d="M280.441 33.2166C280.254 34.3266 279.195 36.2388 276.185 36.2388V36.2435C273.175 36.2435 272.125 34.3313 271.929 33.2213C271.857 32.6991 271.826 32.172 271.836 31.6449V12.6537C271.826 11.9952 271.882 11.3374 272.004 10.6902C272.237 9.66414 273.124 7.67734 276.148 7.67734C279.33 7.67734 280.119 9.75742 280.301 10.6902C280.389 11.2127 280.436 11.7414 280.441 12.2712V14.6032H290.912V13.204C290.936 12.289 290.906 11.3733 290.823 10.4617C290.058 2.67302 283.609 0.201172 276.227 0.201172C268.845 0.201172 262.559 2.69167 261.626 10.4617C261.546 11.1612 261.448 12.4578 261.448 13.204V30.7121C261.453 31.6267 261.504 32.5405 261.602 33.4498C262.293 41.01 268.863 43.7103 276.232 43.7103C283.6 43.7103 290.166 41.0193 290.851 33.4498C290.977 32.0647 291.005 31.491 291.005 30.7121V19.5469H276.274V25.6099H280.534V31.6403C280.544 32.1673 280.513 32.6944 280.441 33.2166Z" fill="white"/>
<path d="M233.688 82.3704C234.516 83.5777 235.665 84.5292 237.006 85.1174C238.323 85.7239 239.755 86.042 241.206 86.0502C241.936 86.0555 242.663 85.9581 243.366 85.7611C244.015 85.5888 244.624 85.2944 245.163 84.8936C245.684 84.4797 246.101 83.9494 246.381 83.3452C246.703 82.6338 246.863 81.8594 246.847 81.0785C246.864 80.3203 246.668 79.5724 246.283 78.9192C245.881 78.2683 245.362 77.6975 244.752 77.2355C244.074 76.7178 243.343 76.2724 242.573 75.9063C241.761 75.5208 240.916 75.1352 240.039 74.7497C239.045 74.3206 238.07 73.8729 237.094 73.4251C236.158 72.9966 235.284 72.4444 234.495 71.7835C233.749 71.1569 233.118 70.4057 232.629 69.5635C232.123 68.6098 231.875 67.5407 231.91 66.462C231.879 65.3641 232.118 64.2754 232.606 63.2914C233.094 62.3074 233.817 61.4583 234.71 60.8187C235.594 60.1818 236.585 59.7079 237.636 59.4196C238.751 59.1088 239.903 58.9519 241.061 58.9532C242.876 58.9482 244.673 59.3182 246.339 60.0399C248.017 60.7593 249.445 61.9604 250.44 63.4911L247.78 65.5805C247.011 64.5266 246.018 63.6555 244.873 63.0294C243.693 62.375 242.364 62.0376 241.014 62.05C239.269 62.05 237.931 62.4262 237.001 63.1786C236.542 63.5509 236.177 64.0251 235.934 64.5636C235.69 65.1021 235.577 65.6899 235.601 66.2801C235.58 66.9375 235.754 67.5864 236.1 68.1457C236.475 68.6878 236.95 69.1533 237.5 69.5168C238.186 69.9738 238.906 70.3746 239.656 70.7154C240.501 71.1072 241.448 71.5409 242.493 72.0027C243.539 72.4644 244.458 72.9354 245.419 73.4438C246.344 73.9126 247.208 74.4904 247.995 75.1648C248.748 75.8199 249.37 76.611 249.829 77.4967C250.316 78.5031 250.554 79.6114 250.524 80.7288C250.559 82.0478 250.298 83.3578 249.759 84.5624C249.282 85.5961 248.575 86.507 247.692 87.2255C246.794 87.9355 245.76 88.4545 244.654 88.7506C243.452 89.0737 242.212 89.2306 240.968 89.217C239.975 89.2173 238.986 89.1078 238.018 88.8905C237.055 88.6785 236.117 88.3659 235.219 87.9577C234.342 87.5602 233.519 87.0541 232.769 86.4513C232.041 85.8802 231.411 85.195 230.902 84.4225L233.688 82.3704Z" fill="white"/>
<path d="M83.6492 82.3705C84.4781 83.5768 85.627 84.5281 86.967 85.1176C88.2842 85.7247 89.7163 86.0428 91.1668 86.0503C91.897 86.0553 92.6242 85.9579 93.3274 85.7612C93.9742 85.5918 94.5814 85.297 95.1146 84.8937C95.6388 84.4813 96.0577 83.9507 96.3372 83.3453C96.6597 82.6339 96.8192 81.8595 96.8038 81.0787C96.8211 80.3197 96.6238 79.5712 96.2345 78.9193C95.8379 78.2674 95.3218 77.6962 94.7133 77.2356C94.0325 76.7169 93.299 76.2714 92.5247 75.9064C91.7128 75.5193 90.8682 75.1322 90.0002 74.7498C89.0109 74.3207 88.0263 73.873 87.0464 73.4252C86.1129 72.9947 85.2405 72.4427 84.4519 71.7836C83.7047 71.1583 83.0729 70.4069 82.5853 69.5636C82.0797 68.6099 81.8319 67.5408 81.8667 66.4621C81.8444 65.3276 82.1059 64.2054 82.6273 63.1974C83.1237 62.2666 83.8259 61.4611 84.6805 60.8421C85.5645 60.2052 86.5554 59.7313 87.6063 59.443C88.7215 59.1325 89.8738 58.9756 91.0315 58.9766C92.8468 58.9722 94.6435 59.3421 96.3092 60.0633C97.9871 60.7842 99.4142 61.9849 100.411 63.5145L97.7511 65.604C96.9844 64.5511 95.995 63.6801 94.8533 63.0528C93.6709 62.4001 92.3402 62.0628 90.9895 62.0734C89.2396 62.0734 87.905 62.4512 86.9717 63.2021C86.5122 63.5738 86.1462 64.048 85.9031 64.5866C85.66 65.1252 85.5465 65.7132 85.5718 66.3035C85.5488 66.9612 85.7226 67.6107 86.0711 68.1691C86.4446 68.7123 86.9201 69.1779 87.471 69.5403C88.1567 69.9962 88.8776 70.397 89.6269 70.7389C90.4715 71.1306 91.4188 71.5644 92.4641 72.0261C93.5093 72.4878 94.4286 72.9589 95.3899 73.4672C96.314 73.9338 97.1775 74.5118 97.9611 75.1882C98.7154 75.8429 99.3392 76.634 99.7997 77.5201C100.285 78.527 100.523 79.6349 100.495 80.7522C100.53 82.0712 100.268 83.3812 99.7297 84.5859C99.2561 85.6228 98.5466 86.5348 97.6578 87.2489C96.7626 87.9607 95.73 88.4799 94.6246 88.774C93.423 89.0975 92.1825 89.2544 90.9381 89.2404C89.9476 89.2412 88.96 89.1317 87.9937 88.9139C87.0304 88.7013 86.092 88.3887 85.1938 87.9812C84.3202 87.5836 83.5002 87.0775 82.7533 86.4747C82.0247 85.9046 81.3942 85.2193 80.8867 84.446L83.6492 82.3705Z" fill="white"/>
<path fill-rule="evenodd" clip-rule="evenodd" d="M1.50635 59.5137V88.6115H12.0338C13.227 88.6181 14.413 88.4258 15.5429 88.0425C16.5726 87.6924 17.5237 87.1442 18.3427 86.4288C19.1415 85.7228 19.7783 84.8525 20.2093 83.8777C20.6761 82.8121 20.9115 81.6596 20.8999 80.4964C20.9342 79.3536 20.6976 78.2189 20.2093 77.185C19.7882 76.3359 19.1936 75.5844 18.4641 74.979C17.7592 74.4048 16.9516 73.9695 16.0842 73.6965C15.2332 73.423 14.3557 73.2401 13.4663 73.1508C15.0493 72.9415 16.5357 72.2717 17.7408 71.2246C18.8467 70.2219 19.402 68.7901 19.402 66.9245C19.4445 65.9042 19.254 64.8876 18.8449 63.9519C18.4358 63.0161 17.8188 62.1858 17.0408 61.5238C15.4729 60.1837 13.1895 59.5137 10.1905 59.5137H1.50635ZM9.89187 71.8589H5.00148V62.5219H10.3258C12.0835 62.5219 13.429 62.9012 14.3623 63.6598C14.826 64.0626 15.1908 64.5664 15.4287 65.1325C15.6666 65.6986 15.7711 66.3117 15.7342 66.9245C15.7722 67.6111 15.6524 68.2972 15.3838 68.9302C15.1153 69.5633 14.7051 70.1264 14.185 70.5764C13.1584 71.4298 11.7164 71.8589 9.89187 71.8589ZM11.7164 85.5986H5.00148V74.8858H10.0225C12.3744 74.8858 14.157 75.3521 15.3656 76.2849C16.5742 77.2177 17.1761 78.6169 17.1761 80.4824C17.1761 82.2267 16.6768 83.5139 15.6969 84.3441C14.5618 85.2226 13.1504 85.6674 11.7164 85.5986Z" fill="white"/>
<path d="M43.6491 78.2251V59.5137H40.1633V78.8827C40.1303 80.419 40.4064 81.9463 40.9752 83.374C41.4767 84.5962 42.2451 85.6909 43.2245 86.578C44.204 87.4517 45.3545 88.1123 46.6029 88.5182C47.9575 88.9651 49.3762 89.1872 50.8027 89.1758C52.1981 89.1802 53.5849 88.9581 54.9091 88.5182C56.1802 88.1033 57.358 87.4443 58.3763 86.578C59.3971 85.6949 60.2152 84.602 60.7748 83.374C61.3973 81.96 61.7031 80.4271 61.6707 78.8827V59.5137H58.1756V78.2251C58.1756 80.8089 57.541 82.735 56.2577 84.0736C54.9745 85.4121 53.1639 86.079 50.8913 86.079C48.6188 86.079 46.8503 85.3934 45.567 84.0083C44.2837 82.6231 43.6491 80.7016 43.6491 78.2251Z" fill="white"/>
<path d="M123.304 59.5137V88.6068H126.8V59.5137H123.304Z" fill="white"/>
<path d="M150.855 88.6068V59.5137H154.387L169.054 81.1913V59.5137H172.498V88.6068H169.922L154.299 65.5301V88.6068H150.855Z" fill="white"/>
<path d="M195.349 59.5137V88.6068H213.375V85.594H198.798V74.8718H208.485V71.8543H198.844V62.5219H212.326V59.5137H195.349Z" fill="white"/>
<path d="M275.952 85.1176C274.613 84.528 273.466 83.5766 272.639 82.3705L269.862 84.446C270.368 85.2204 270.999 85.9059 271.729 86.4747C272.475 87.0785 273.295 87.5847 274.169 87.9812C275.067 88.389 276.006 88.7016 276.969 88.9139C277.935 89.1312 278.923 89.2407 279.914 89.2404C281.159 89.2543 282.401 89.0974 283.605 88.774C284.71 88.4799 285.743 87.9607 286.638 87.2489C287.524 86.5321 288.233 85.6209 288.71 84.5859C289.248 83.3812 289.51 82.0712 289.475 80.7522C289.503 79.6344 289.263 78.5261 288.775 77.5201C288.319 76.6321 287.697 75.8403 286.941 75.1882C286.155 74.5128 285.29 73.9349 284.365 73.4672C283.409 72.9589 282.429 72.4925 281.449 72.0261C280.394 71.5644 279.452 71.1306 278.607 70.7389C277.857 70.3981 277.136 69.9972 276.451 69.5403C275.899 69.1793 275.423 68.7134 275.051 68.1691C274.703 67.6107 274.529 66.9612 274.552 66.3035C274.527 65.7133 274.641 65.1255 274.884 64.5871C275.127 64.0486 275.493 63.5743 275.952 63.2021C276.885 62.4496 278.224 62.0734 279.969 62.0734C281.319 62.0615 282.648 62.3989 283.829 63.0528C284.973 63.6784 285.964 64.5497 286.731 65.604L289.396 63.5145C288.4 61.9838 286.973 60.7827 285.294 60.0633C283.628 59.3416 281.832 58.9716 280.016 58.9766C278.857 58.9756 277.703 59.1325 276.586 59.443C275.536 59.7323 274.545 60.2061 273.66 60.8422C272.809 61.4615 272.11 62.2671 271.617 63.1974C271.092 64.2047 270.828 65.3268 270.847 66.4621C270.814 67.5412 271.063 68.6103 271.57 69.5636C272.058 70.4069 272.689 71.1583 273.437 71.7836C274.225 72.4435 275.097 72.9955 276.031 73.4252C277.006 73.873 277.991 74.3207 278.98 74.7498C279.854 75.1353 280.699 75.5209 281.514 75.9064C282.285 76.2725 283.015 76.718 283.693 77.2356C284.303 77.6976 284.822 78.2684 285.224 78.9193C285.607 79.5734 285.803 80.3206 285.789 81.0786C285.806 81.8597 285.647 82.6347 285.322 83.3453C285.041 83.9497 284.622 84.4799 284.099 84.8937C283.563 85.2953 282.955 85.5899 282.307 85.7612C281.606 85.9579 280.88 86.0553 280.151 86.0503C278.701 86.0406 277.27 85.7227 275.952 85.1176Z" fill="white"/>
</svg>
