<svg width="226" height="160" viewBox="0 0 226 160" fill="none" xmlns="http://www.w3.org/2000/svg">
<path fill-rule="evenodd" clip-rule="evenodd" d="M94.3599 17.8725C98.6646 13.3191 103.988 9.85134 109.892 7.75372C115.797 5.65611 122.115 4.98845 128.327 5.80552C134.54 6.62259 140.47 8.90111 145.632 12.4541C150.793 16.0071 155.039 20.7333 158.02 26.2449C164.257 23.4698 171.01 22.0432 177.836 22.0587C190.708 22.3474 202.956 27.6636 211.958 36.8695C220.96 46.0753 226 58.4392 226 71.3147C226 84.1902 220.96 96.5541 211.958 105.76C202.956 114.966 190.708 120.282 177.836 120.571C174.608 120.577 171.388 120.253 168.225 119.605C163.779 127.555 156.462 133.504 147.773 136.235C139.083 138.966 129.678 138.271 121.483 134.294C118.295 141.807 112.922 148.189 106.062 152.611C99.2018 157.033 91.1711 159.292 83.0115 159.095C74.852 158.897 66.94 156.252 60.3021 151.503C53.6641 146.754 48.6064 140.119 45.785 132.461C43.2284 133.006 40.6213 133.28 38.0071 133.278C29.6178 133.22 21.4799 130.407 14.8455 125.272C8.2112 120.137 3.44805 112.964 1.28902 104.857C-0.870018 96.7504 -0.305311 88.1587 2.89625 80.404C6.0978 72.6494 11.7588 66.1617 19.0082 61.9391C14.8015 52.0868 14.3344 41.0381 17.6945 30.8659C21.0546 20.6938 28.011 12.0972 37.2585 6.68913C46.506 1.28107 57.4091 -0.566816 67.9221 1.49218C78.4352 3.55117 87.8357 9.37553 94.3599 17.8725" fill="#00A1E0"/>
<path fill-rule="evenodd" clip-rule="evenodd" d="M32.9055 82.7474L33.822 80.2704C33.8349 80.2053 33.865 80.1448 33.9092 80.0953C33.9534 80.0458 34.01 80.009 34.0732 79.9888C34.1365 79.9686 34.2039 79.9656 34.2686 79.9803C34.3334 79.995 34.393 80.0267 34.4413 80.0722L35.2092 80.5429C36.9986 81.6862 39.0802 82.2883 41.2036 82.2768C43.21 82.2768 44.4733 81.2117 44.4733 79.7998C44.4733 78.2392 42.5412 77.6447 40.3119 76.9512L39.8165 76.8025C36.7449 75.9356 33.4752 74.6723 33.4752 70.7833C33.5002 69.8869 33.7113 69.0055 34.0953 68.195C34.4793 67.3846 35.0276 66.6629 35.7056 66.0759C36.3835 65.4888 37.1761 65.0492 38.0331 64.785C38.8901 64.5208 39.7926 64.4377 40.6834 64.5412H41.1541C43.4962 64.5422 45.7959 65.1663 47.8173 66.3494C47.9089 66.3969 47.9812 66.4747 48.0219 66.5696C48.0626 66.6645 48.069 66.7705 48.0403 66.8696L47.099 69.3466C46.9256 69.7925 46.4797 69.4953 46.4797 69.4953C44.654 68.5527 42.6384 68.0361 40.5844 67.9843C38.7761 67.9843 37.6119 68.9503 37.6119 70.2384C37.6119 71.7494 39.5935 72.3934 41.8972 73.1365L42.2935 73.2604C45.3403 74.2264 48.61 75.564 48.61 79.2548C48.61 83.2181 45.7118 85.6951 41.1788 85.6951C38.818 85.7574 36.4808 85.2114 34.3917 84.1098C33.9706 83.8621 33.5248 83.6392 33.1037 83.3419C33.1037 83.3419 32.8807 83.1933 33.1037 82.8218L32.9055 82.7474ZM100.925 82.7474L101.842 80.2704C101.86 80.2094 101.894 80.1538 101.939 80.1084C101.984 80.0631 102.039 80.0292 102.1 80.0098C102.16 79.9903 102.225 79.9858 102.288 79.9967C102.351 80.0076 102.41 80.0335 102.461 80.0722L103.229 80.5429C104.982 81.6648 107.018 82.266 109.099 82.2768C111.131 82.2768 112.369 81.2117 112.369 79.7998C112.369 78.2392 110.462 77.6447 108.208 76.9512L107.712 76.8025C104.665 75.9356 101.371 74.6723 101.371 70.7833C101.371 67.0925 104.343 64.5412 108.604 64.5412H109.099C111.441 64.5458 113.74 65.1696 115.763 66.3494C115.854 66.3969 115.927 66.4747 115.967 66.5696C116.008 66.6645 116.014 66.7705 115.986 66.8696C115.986 67.0925 115.119 69.1732 115.044 69.3466C114.97 69.52 114.425 69.4953 114.425 69.4953C112.591 68.5523 110.567 68.0358 108.505 67.9843C106.697 67.9843 105.557 68.9503 105.557 70.2384C105.557 71.7494 107.539 72.3934 109.842 73.1365L110.239 73.2604C113.286 74.2264 116.555 75.564 116.555 79.2548C116.555 83.2181 113.657 85.6951 109.124 85.6951C106.763 85.763 104.424 85.2167 102.337 84.1098C101.916 83.8621 101.47 83.6392 101.049 83.3419C100.628 83.0447 100.777 83.119 100.925 82.7474ZM151.209 70.7833C151.969 73.5056 151.969 76.3839 151.209 79.1062C150.865 80.3399 150.266 81.4877 149.45 82.475C148.638 83.4361 147.623 84.2058 146.478 84.7291C143.811 85.8193 140.822 85.8193 138.155 84.7291C137.01 84.2058 135.995 83.4361 135.183 82.475C134.367 81.4877 133.768 80.3399 133.424 79.1062C133.022 77.723 132.838 76.2855 132.879 74.8457C132.86 73.4379 133.052 72.0351 133.449 70.6842C133.804 69.4852 134.403 68.3723 135.207 67.4145C136.015 66.4479 137.031 65.6772 138.18 65.1604C139.497 64.6045 140.912 64.3181 142.341 64.3181C143.771 64.3181 145.186 64.6045 146.503 65.1604C147.649 65.6809 148.665 66.451 149.475 67.4145C150.283 68.4036 150.873 69.5514 151.209 70.7833V70.7833ZM147.37 74.8457C147.47 73.0126 147.04 71.1896 146.131 69.5943C145.713 68.9877 145.143 68.5014 144.478 68.1841C143.813 67.8668 143.076 67.7296 142.341 67.7861C141.61 67.7289 140.877 67.8661 140.215 68.1836C139.554 68.5012 138.989 68.9879 138.576 69.5943C137.678 71.1927 137.256 73.0152 137.362 74.8457C137.253 76.6843 137.674 78.5157 138.576 80.1218C139.022 80.6794 139.587 81.1296 140.23 81.4389C140.873 81.7483 141.578 81.909 142.292 81.909C143.006 81.909 143.71 81.7483 144.353 81.4389C144.996 81.1296 145.562 80.6794 146.007 80.1218C146.973 78.5365 147.447 76.7004 147.37 74.8457V74.8457ZM183.089 81.3603L184.03 83.986C184.067 84.069 184.072 84.1628 184.045 84.2495C184.018 84.3363 183.959 84.41 183.881 84.4566C182.121 85.1068 180.259 85.4422 178.382 85.4474C176.974 85.5374 175.562 85.3254 174.242 84.8256C172.922 84.3258 171.724 83.5497 170.728 82.5493C168.967 80.3824 168.083 77.6332 168.251 74.8457C168.244 73.4251 168.461 72.0122 168.895 70.6595C169.267 69.4696 169.874 68.3663 170.679 67.4145C171.546 66.449 172.61 65.6804 173.8 65.1604C175.163 64.5847 176.63 64.298 178.11 64.3182C179.088 64.3131 180.065 64.3793 181.033 64.5164C181.875 64.672 182.704 64.8957 183.51 65.1852C183.558 65.1926 183.605 65.211 183.645 65.2391C183.686 65.2672 183.719 65.3042 183.743 65.3472C183.767 65.3903 183.781 65.4383 183.783 65.4875C183.786 65.5367 183.777 65.5858 183.757 65.6311L182.791 68.2815C182.643 68.6778 182.346 68.554 182.346 68.554C181.091 68.1415 179.778 67.9324 178.457 67.9347C177.64 67.8777 176.821 68.0191 176.07 68.3469C175.32 68.6747 174.66 69.1792 174.147 69.8173C173.1 71.3161 172.577 73.1186 172.66 74.9448C172.508 76.8598 173.102 78.7596 174.32 80.2456C174.907 80.81 175.603 81.2484 176.365 81.5338C177.128 81.8192 177.941 81.9456 178.754 81.9052C179.467 81.9095 180.179 81.8598 180.884 81.7566C181.502 81.6393 182.107 81.4652 182.692 81.2365C182.774 81.2245 182.857 81.2399 182.929 81.2802C183 81.3206 183.057 81.3836 183.089 81.4594V81.3603ZM202.905 69.9659C203.398 71.8403 203.508 73.7949 203.227 75.7126C203.206 75.805 203.157 75.8885 203.086 75.9508C203.014 76.0131 202.925 76.0512 202.831 76.0594H189.702C189.62 76.8713 189.723 77.6911 190.003 78.4575C190.284 79.2239 190.734 79.9168 191.32 80.4841C191.907 81.0515 192.614 81.4786 193.389 81.7333C194.164 81.988 194.987 82.0637 195.796 81.9548C197.644 82.025 199.486 81.6955 201.196 80.9887C201.243 80.969 201.293 80.9592 201.344 80.9599C201.395 80.9605 201.446 80.9717 201.492 80.9926C201.538 81.0135 201.58 81.0437 201.614 81.0814C201.649 81.1191 201.675 81.1634 201.691 81.2117L202.558 83.6887C202.732 84.085 202.558 84.2337 202.558 84.308C200.498 85.2908 198.224 85.7422 195.945 85.6208C194.286 85.6435 192.638 85.3493 191.09 84.7539C189.839 84.2889 188.712 83.5431 187.795 82.5741C186.916 81.6266 186.264 80.4916 185.888 79.2548C185.469 77.8998 185.268 76.4867 185.293 75.0686C185.282 73.6514 185.482 72.2405 185.888 70.8824C186.226 69.6164 186.825 68.4351 187.646 67.4145C188.47 66.4314 189.502 65.6444 190.668 65.1109C192.034 64.5164 193.514 64.2289 195.003 64.2687C196.29 64.2636 197.563 64.5251 198.744 65.0366C199.693 65.4823 200.537 66.1239 201.221 66.9191C202.004 67.8141 202.579 68.8716 202.905 70.0154V69.9659ZM189.851 72.6906H199.214C199.147 71.6303 198.824 70.602 198.273 69.6934C197.883 69.0765 197.335 68.5746 196.686 68.2394C196.038 67.9042 195.311 67.7477 194.582 67.7861C193.846 67.7465 193.112 67.902 192.456 68.2369C191.799 68.5719 191.242 69.0743 190.842 69.6934C190.261 70.6335 189.897 71.6913 189.777 72.7897L189.851 72.6906ZM97.7545 69.9659C98.2742 71.8011 98.4091 73.7238 98.1509 75.6136C98.1394 75.7057 98.0959 75.791 98.028 75.8544C97.9601 75.9177 97.872 75.9553 97.7793 75.9603H84.651C84.5732 77.5585 85.1245 79.1235 86.1867 80.3199C86.7947 80.8622 87.5036 81.2791 88.273 81.5469C89.0423 81.8147 89.8569 81.928 90.6702 81.8805C92.5187 81.9507 94.3606 81.6212 96.0701 80.9144C96.1171 80.8947 96.1677 80.8849 96.2186 80.8856C96.2695 80.8862 96.3198 80.8974 96.3663 80.9183C96.4127 80.9392 96.4544 80.9694 96.4887 81.0071C96.523 81.0448 96.5491 81.0891 96.5655 81.1374L97.4077 83.6144C97.5811 84.0107 97.4077 84.1594 97.4077 84.2337C95.3463 85.2135 93.0734 85.6647 90.794 85.5465C89.1402 85.59 87.4931 85.321 85.939 84.7539C84.7003 84.3043 83.5843 83.5703 82.6808 82.6109C81.7774 81.6515 81.1117 80.4935 80.7372 79.23C79.9605 76.4933 79.9605 73.5944 80.7372 70.8576C81.0947 69.6068 81.692 68.4374 82.4959 67.4145C83.3194 66.4314 84.3518 65.6444 85.5179 65.1109C86.8846 64.5187 88.3638 64.2313 89.8528 64.2687C91.1473 64.2623 92.4292 64.5238 93.6179 65.0366C94.5615 65.4915 95.404 66.1317 96.0949 66.9191C96.8753 67.835 97.4497 68.9078 97.7793 70.065L97.7545 69.9659ZM84.7005 72.6906H94.2371C94.2007 71.6007 93.8943 70.5367 93.3454 69.5943C92.9589 68.9793 92.4155 68.4785 91.7712 68.1432C91.1268 67.808 90.4048 67.6505 89.6794 67.687C88.9398 67.6481 88.203 67.8037 87.5423 68.1383C86.8817 68.473 86.3203 68.975 85.9143 69.5943C85.3534 70.5438 84.991 71.5971 84.8491 72.6906H84.7005ZM61.5649 72.0714L63.7199 72.3191V71.8732C63.7199 70.1145 63.3484 69.3962 62.6548 68.7522C61.7381 68.148 60.6557 67.845 59.5585 67.8852C57.5764 67.9079 55.6233 68.3645 53.8365 69.2228H53.6136C53.573 69.2384 53.5297 69.2457 53.4862 69.2441C53.4428 69.2425 53.4001 69.2322 53.3607 69.2137C53.3214 69.1951 53.2862 69.1689 53.2573 69.1364C53.2284 69.1039 53.2063 69.0659 53.1925 69.0246L52.2512 66.5476C52.2032 66.4611 52.1893 66.3597 52.2122 66.2635C52.2351 66.1672 52.2932 66.083 52.3751 66.0274C53.6271 65.307 54.9924 64.8044 56.4127 64.5412C57.5755 64.3469 58.7512 64.2392 59.9301 64.2192C62.0889 64.076 64.2267 64.7182 65.9493 66.0274C66.6947 66.7865 67.2684 67.6968 67.6317 68.6968C67.9949 69.6968 68.1392 70.7631 68.0548 71.8237V83.8373C68.0636 83.9315 68.0385 84.0256 67.984 84.1028C67.9294 84.18 67.8491 84.2352 67.7575 84.2584L66.841 84.5062C66.3951 84.5062 64.8098 84.9272 63.5218 85.1502C62.2038 85.369 60.8698 85.4767 59.5337 85.4722C58.3688 85.4799 57.2063 85.3637 56.0659 85.1254C55.1024 84.9293 54.1909 84.5326 53.3907 83.9612C52.6546 83.4332 52.0662 82.7253 51.6815 81.9052C51.2521 80.9655 51.0404 79.941 51.0622 78.908C51.0443 77.8564 51.2913 76.8171 51.7806 75.886C52.236 75.0263 52.8898 74.2875 53.6879 73.731C54.5132 73.1445 55.4356 72.7085 56.4127 72.4429C57.4439 72.2061 58.5006 72.0979 59.5585 72.1209C60.3759 72.1209 61.0695 72.1209 61.6145 72.1209L61.5649 72.0714ZM56.3384 81.286C57.4896 81.9815 58.8476 82.2531 60.1778 82.0539C61.3685 81.985 62.5525 81.8277 63.7199 81.5832V75.7126C62.5387 75.5361 61.3472 75.4368 60.153 75.4154C58.8192 75.2855 57.4812 75.6178 56.3631 76.3567C55.9755 76.639 55.6639 77.013 55.4564 77.4453C55.2489 77.8776 55.1519 78.3547 55.1741 78.8337C55.1455 79.4291 55.2827 80.0208 55.5705 80.5429C55.7645 80.8822 56.0361 81.1708 56.3631 81.3851L56.3384 81.286ZM167.434 65.3091C167.434 65.6558 166.691 67.4641 166.443 68.0586C166.443 68.2815 166.22 68.4549 165.972 68.4054C165.5 68.301 165.019 68.2429 164.536 68.232C163.941 68.2374 163.35 68.3207 162.777 68.4797C162.164 68.6818 161.605 69.0206 161.142 69.4705C160.612 70.0133 160.221 70.6761 160.003 71.4026C159.684 72.5214 159.542 73.6831 159.582 74.8457V84.7539C159.582 84.859 159.54 84.9598 159.465 85.0341C159.391 85.1084 159.29 85.1502 159.185 85.1502H155.742C155.637 85.1502 155.536 85.1084 155.462 85.0341C155.388 84.9598 155.346 84.859 155.346 84.7539V65.1357C155.342 65.0848 155.349 65.0338 155.367 64.9859C155.384 64.9379 155.411 64.8939 155.445 64.8568C155.48 64.8196 155.522 64.79 155.569 64.7698C155.616 64.7496 155.666 64.7392 155.717 64.7393H159.086C159.137 64.7392 159.187 64.7496 159.234 64.7698C159.281 64.79 159.323 64.8196 159.358 64.8568C159.393 64.8939 159.42 64.9379 159.437 64.9859C159.454 65.0338 159.461 65.0848 159.458 65.1357V66.7457C160.069 66.0404 160.831 65.4816 161.687 65.1109C162.749 64.6287 163.921 64.4405 165.081 64.5659C165.818 64.6109 166.549 64.7354 167.26 64.9375C167.306 64.9537 167.347 64.9791 167.382 65.0122C167.417 65.0452 167.444 65.0851 167.463 65.1293C167.481 65.1735 167.491 65.2212 167.49 65.2692C167.489 65.3172 167.478 65.3645 167.459 65.4081L167.434 65.3091ZM135.084 56.3422C135.132 56.3495 135.179 56.3679 135.219 56.396C135.26 56.4241 135.293 56.4611 135.317 56.5042C135.341 56.5473 135.355 56.5952 135.357 56.6445C135.36 56.6937 135.351 56.7428 135.331 56.788L134.316 59.5375C134.316 59.7605 134.316 59.8843 133.771 59.7357C133.198 59.5708 132.607 59.4792 132.012 59.4632C131.532 59.4565 131.055 59.5319 130.6 59.6862C130.187 59.8149 129.812 60.0448 129.51 60.355C129.09 60.7449 128.767 61.2287 128.569 61.7669C128.262 62.73 128.03 63.7155 127.875 64.7146H132.086C132.433 64.7146 132.557 64.888 132.507 65.1357L132.012 67.8852C132 67.9881 131.95 68.0829 131.872 68.1514C131.795 68.22 131.695 68.2575 131.591 68.2567H127.256L124.308 85.0016C124.055 86.5035 123.665 87.9792 123.144 89.4107C122.791 90.4855 122.226 91.4792 121.485 92.3336C120.822 93.1042 119.968 93.6854 119.008 94.018C117.975 94.3852 116.883 94.5614 115.787 94.5382C115.146 94.5508 114.505 94.4842 113.88 94.34C113.466 94.2622 113.059 94.1461 112.666 93.9932C112.572 93.95 112.498 93.8711 112.461 93.7738C112.423 93.6764 112.426 93.5684 112.468 93.473L113.434 90.7978C113.477 90.7091 113.552 90.6395 113.644 90.6029C113.735 90.5662 113.837 90.5651 113.93 90.5997C114.153 90.6959 114.385 90.7706 114.623 90.8226C114.978 90.8469 115.334 90.8469 115.688 90.8226C116.209 90.8294 116.727 90.7542 117.224 90.5997C117.717 90.4326 118.137 90.1001 118.413 89.6584C118.821 89.0915 119.138 88.4648 119.354 87.8006C119.683 86.8048 119.94 85.7866 120.122 84.7539L123.07 68.3311H120.172C119.825 68.3311 119.701 68.1577 119.751 67.91L120.221 65.1852C120.238 65.0778 120.292 64.9796 120.373 64.9074C120.455 64.8351 120.559 64.7933 120.667 64.7889H123.64L123.813 63.8971C124.053 61.6698 124.97 59.5693 126.439 57.8779C127.189 57.1932 128.068 56.6653 129.025 56.325C129.983 55.9847 130.998 55.839 132.012 55.8963C132.605 55.8419 133.202 55.8419 133.796 55.8963C134.236 56.0117 134.666 56.1608 135.084 56.3422ZM76.4519 84.7539C76.4519 84.859 76.4102 84.9598 76.3359 85.0341C76.2615 85.1084 76.1607 85.1502 76.0556 85.1502H72.5878C72.5368 85.1503 72.4864 85.1399 72.4396 85.1197C72.3928 85.0995 72.3507 85.0699 72.3159 85.0327C72.281 84.9956 72.2542 84.9516 72.237 84.9037C72.2199 84.8557 72.2128 84.8047 72.2162 84.7539V56.6889C72.216 56.588 72.2543 56.4908 72.3234 56.4171C72.3924 56.3435 72.487 56.2989 72.5878 56.2926H76.0804C76.1811 56.2989 76.2757 56.3435 76.3448 56.4171C76.4138 56.4908 76.4521 56.588 76.4519 56.6889V84.7539Z" fill="white"/>
</svg>
