<svg width="189" height="94" viewBox="0 0 189 94" fill="none" xmlns="http://www.w3.org/2000/svg">
<path fill-rule="evenodd" clip-rule="evenodd" d="M0 93.1196H95.1351L188.238 0H0V93.1196Z" fill="url(#paint0_linear_7_1127)"/>
<path fill-rule="evenodd" clip-rule="evenodd" d="M111.71 18.6245H93.1196L93.1816 62.3493L76.9933 18.61H60.9416L47.1226 55.1398C45.6534 45.8444 36.0435 42.6369 28.4822 40.2344C23.4889 38.6307 18.1894 36.2717 18.2432 33.6643C18.2846 31.5246 21.0781 29.5402 26.6301 29.8361C30.3549 30.0368 33.6451 30.3368 40.1904 33.4988L46.626 22.283C40.6581 19.2453 32.4056 17.327 25.6389 17.3208H25.5975C17.7072 17.3208 11.1371 19.8764 7.06468 24.0875C4.22557 27.0259 2.69427 30.7631 2.63219 34.8956C2.52872 40.5821 4.61253 44.6131 8.99122 47.835C12.6912 50.5459 17.4237 52.3048 21.5934 53.596C26.7357 55.1894 30.9364 56.5759 30.8847 59.5267C30.8433 60.6028 30.4377 61.6085 29.6638 62.4196C28.3808 63.744 26.4149 64.2406 23.6938 64.2944C18.4439 64.4062 14.5536 63.5805 8.35387 59.9158L2.62805 71.2763C8.82154 74.7983 15.3958 76.5655 22.866 76.5655L24.5463 76.5531C31.0481 76.4352 36.3249 74.877 40.5174 71.504C40.7574 71.3115 40.9726 71.117 41.1961 70.9204L40.4925 74.5459L56.178 74.4962L58.9923 67.2908C61.9514 68.3007 65.3161 68.8594 68.8878 68.8594C72.3684 68.8594 75.6421 68.3296 78.5453 67.3777L80.507 74.4962L108.65 74.5231L108.718 58.0968H114.707C129.182 58.0968 137.738 50.73 137.738 38.3762C137.734 24.6172 129.416 18.6245 111.71 18.6245ZM68.8878 56.0006C66.7253 56.0006 64.6974 55.624 62.953 54.9618L68.8216 36.431H68.9354L74.7088 55.0135C72.9706 55.6343 70.9902 56.0006 68.8857 56.0006H68.8878ZM112.799 45.3539H108.714V30.4196H112.801C118.243 30.4196 122.589 32.2323 122.589 37.7905C122.585 43.5433 118.243 45.3539 112.801 45.3539" fill="white"/>
<defs>
<linearGradient id="paint0_linear_7_1127" x1="94.119" y1="0" x2="94.119" y2="93.1216" gradientUnits="userSpaceOnUse">
<stop stop-color="#00AEEF"/>
<stop offset="0.212" stop-color="#0097DC"/>
<stop offset="0.519" stop-color="#007CC5"/>
<stop offset="0.792" stop-color="#006CB8"/>
<stop offset="1" stop-color="#0066B3"/>
</linearGradient>
</defs>
</svg>
