<svg width="256" height="39" viewBox="0 0 256 39" fill="none" xmlns="http://www.w3.org/2000/svg">
<path d="M109.877 36.0376L98.6659 4.82665C98.5226 4.39515 98.3093 3.82551 98.3093 3.3258C98.3093 1.97332 99.4524 0.689074 101.09 0.689074C102.52 0.689074 103.451 1.61687 103.878 2.96934L113.168 29.8653L122.524 2.90112C122.95 1.62199 123.808 0.694188 125.229 0.694188H125.52C127.023 0.694188 127.951 1.62199 128.377 2.90112L137.657 29.8653L147.093 2.83291C147.449 1.68509 148.229 0.692483 149.734 0.692483C151.303 0.692483 152.448 1.89999 152.448 3.25928C152.448 3.75729 152.231 4.32523 152.092 4.76013L140.809 36.0393C140.233 37.6732 139.095 38.531 137.807 38.531H137.593C136.164 38.531 135.091 37.6732 134.587 36.0393L125.38 9.51852L116.092 36.0393C115.592 37.6732 114.517 38.531 113.092 38.531H112.942C111.589 38.531 110.451 37.6732 109.877 36.0393" fill="white"/>
<path d="M191.598 3.46219C191.598 1.95622 192.812 0.670264 194.312 0.670264C195.893 0.670264 197.105 1.88629 197.105 3.46219V9.79477C199.821 3.64468 205.845 0.741895 209.837 0.741895C211.49 0.741895 212.563 1.95622 212.563 3.52871C212.563 5.03297 211.567 6.10062 210.124 6.31552C202.967 7.17339 197.106 12.5406 197.106 23.2001V35.7408C197.106 37.2433 195.963 38.5276 194.39 38.5276C192.816 38.5276 191.599 37.3064 191.599 35.7408L191.598 3.45537V3.46219Z" fill="white"/>
<path d="M230.325 38.9369C220.367 38.9369 212.241 31.2161 212.241 19.8863V19.7396C212.241 9.19445 219.604 0.706105 229.626 0.706105C240.345 0.706105 246.449 9.5475 246.449 19.2451C246.449 20.7357 245.247 21.8016 243.923 21.8016H217.717C218.482 29.7237 224.016 34.1819 230.474 34.1819C234.962 34.1819 238.247 32.4116 240.915 29.9335C241.336 29.5839 241.826 29.3008 242.461 29.3008C243.788 29.3008 244.844 30.3633 244.844 31.6424C244.844 32.2769 244.564 32.9164 243.996 33.4059C240.565 36.73 236.494 38.9318 230.33 38.9318L230.325 38.9369ZM241.055 17.7664C240.492 11.1063 236.704 5.30759 229.482 5.30759C223.173 5.30759 218.407 10.6134 217.714 17.7664H241.055Z" fill="white"/>
<path d="M152.699 27.3667C152.699 19.5964 159.121 15.4554 168.461 15.4554C173.172 15.4554 176.523 16.0967 179.81 17.0296V15.7402C179.81 9.11431 175.733 5.68622 168.821 5.68622C165.111 5.68622 162.951 6.15865 160.235 7.36786C159.883 7.51112 159.523 7.58446 159.245 7.58446C157.961 7.58446 156.814 6.51169 156.814 5.23085C156.814 4.09327 157.31 3.38889 158.315 2.94375C161.948 1.36786 164.686 0.844268 169.391 0.844268C174.595 0.844268 178.59 2.19504 181.296 4.9068C183.797 7.40197 185.082 10.9665 185.082 15.6754V36.0222C185.082 37.5862 183.941 38.7306 182.434 38.7306C180.871 38.7306 179.812 37.5879 179.812 36.1638V32.647C177.239 36.0052 172.955 38.9949 166.477 38.9949C159.626 38.9898 152.699 35.0722 152.699 27.5134V27.3667ZM179.877 24.6601V21.0938C177.161 20.311 173.518 19.5248 169.028 19.5248C162.118 19.5248 158.261 22.5231 158.261 27.1535V27.2951C158.261 31.929 162.536 34.639 167.535 34.639C174.308 34.639 179.877 30.5015 179.877 24.6601Z" fill="white"/>
<path d="M10.0713 3.12109C8.86337 0.474133 5.87774 -0.724843 3.09001 0.513361C0.298877 1.75327 -0.72818 4.84707 0.532608 7.49574L12.238 32.925C14.0788 36.9107 16.0186 39 19.6594 39C23.5492 39 25.2451 36.7248 27.0842 32.925C27.0842 32.925 37.2934 10.7021 37.3957 10.4633C37.4998 10.228 37.8274 9.50995 38.8664 9.51677C39.745 9.52189 40.4837 10.2229 40.4837 11.1643V32.8925C40.4837 36.2422 42.3416 38.9898 45.9176 38.9898C49.4901 38.9898 51.4214 36.2422 51.4214 32.8925V15.104C51.4214 11.6742 53.8798 9.44855 57.2305 9.44855C60.5813 9.44855 62.8111 11.7544 62.8111 15.104V32.8925C62.8111 36.2422 64.6759 38.9898 68.245 38.9898C71.8175 38.9898 73.759 36.2422 73.759 32.8925V15.104C73.759 11.6742 76.2072 9.44855 79.5596 9.44855C82.9052 9.44855 85.1436 11.7544 85.1436 15.104V32.8925C85.1436 36.2422 87.0066 38.9898 90.5792 38.9898C94.15 38.9898 96.0881 36.2422 96.0881 32.8925V12.6481C96.0881 5.21035 90.1049 0 82.9052 0C75.7141 0 71.2101 4.97328 71.2101 4.97328C68.8165 1.87095 65.5169 0.00682482 59.933 0.00682482C54.0402 0.00682482 48.8827 4.97328 48.8827 4.97328C46.4874 1.87095 42.4099 0.00682482 39.0336 0.00682482C33.8113 0.00682482 29.6638 2.30245 27.1337 8.08585L19.6594 25.7038L10.0713 3.12109Z" fill="white"/>
<path d="M246.874 5.33828V5.30758C246.874 2.81924 248.894 0.72316 251.433 0.72316C254.007 0.72316 256 2.79707 256 5.28882V5.30758C256 7.80445 253.985 9.90053 251.433 9.90053C248.858 9.90053 246.874 7.83345 246.874 5.33828ZM255.123 5.30758V5.29564C255.123 3.24903 253.542 1.5708 251.433 1.5708C249.343 1.5708 247.737 3.27802 247.737 5.30758V5.33146C247.737 7.37296 249.324 9.05119 251.433 9.05119C253.516 9.05119 255.123 7.34738 255.123 5.30758Z" fill="white"/>
<path d="M249.775 3.46222C249.775 3.19104 249.991 2.97444 250.266 2.97444H251.788C252.361 2.97444 252.803 3.13646 253.077 3.4264C253.328 3.67029 253.465 4.02333 253.465 4.43266V4.4463C253.465 5.14215 253.113 5.56683 252.583 5.79025L253.255 6.60889C253.349 6.73169 253.412 6.83232 253.412 6.9824C253.412 7.25187 253.183 7.42924 252.951 7.42924C252.735 7.42924 252.588 7.31839 252.474 7.17854L251.527 5.98126H250.75V6.94317C250.75 7.21435 250.541 7.42754 250.268 7.42754C249.993 7.42754 249.776 7.21264 249.776 6.94317V3.46222H249.775ZM251.733 5.11998C252.207 5.11998 252.468 4.87268 252.468 4.49576V4.48041C252.468 4.06938 252.189 3.84766 251.716 3.84766H250.745V5.11827H251.733V5.11998Z" fill="white"/>
</svg>
