<svg width="235" height="95" viewBox="0 0 235 95" fill="none" xmlns="http://www.w3.org/2000/svg">
<path d="M120.098 0.045537C130.65 -0.343922 141.146 1.76927 150.725 6.21234C160.305 10.6554 168.697 17.3022 175.217 25.6096C178.645 29.9693 181.516 34.7404 183.761 39.8119C184.225 40.6392 184.399 41.5977 184.254 42.535C184.106 43.336 183.701 44.0671 183.101 44.618C182.501 45.1689 181.738 45.5098 180.928 45.5893C180.117 45.6688 179.302 45.4825 178.607 45.0586C177.911 44.6347 177.372 43.9962 177.071 43.2392C173.413 34.6888 167.795 27.1187 160.671 21.1404C153.547 15.1622 145.116 10.9435 136.061 8.82511C127.125 6.75906 117.836 6.75906 108.9 8.82511C99.8375 10.9404 91.3993 15.1573 84.2671 21.1355C77.1349 27.1137 71.5086 34.6854 67.8427 43.2392C67.4878 44.1731 66.7765 44.9278 65.8652 45.3372C64.9539 45.7466 63.9173 45.7773 62.9834 45.4224C62.0495 45.0675 61.2948 44.3562 60.8854 43.4449C60.476 42.5336 60.4454 41.497 60.8002 40.5631C65.7954 28.875 74.0213 18.8544 84.5121 11.6775C95.003 4.50066 107.323 0.465449 120.027 0.045537H120.098Z" fill="#F6A11F"/>
<path fill-rule="evenodd" clip-rule="evenodd" d="M157.798 43.0285C157.798 42.3947 158.408 41.9721 158.972 41.9252C159.347 41.8939 160.036 41.9043 160.724 41.9147L160.725 41.9147C161.069 41.92 161.413 41.9252 161.718 41.9252C162.634 41.9252 163.197 42.4416 163.103 43.2163V81.1047C163.092 81.4185 162.962 81.7163 162.74 81.9384C162.518 82.1604 162.22 82.2903 161.906 82.3019C161.179 82.3488 160.45 82.3488 159.723 82.3019C159.466 82.282 159.219 82.1928 159.008 82.0441C158.797 81.8953 158.63 81.6924 158.526 81.4568C158.367 80.9534 158.253 80.4324 158.14 79.9153C158.068 79.5886 157.997 79.263 157.915 78.945C156.946 80.3618 155.583 81.4637 153.995 82.1141C151.658 82.9227 149.134 83.0208 146.741 82.3958C145.559 82.1005 144.451 81.5617 143.489 80.8139C142.527 80.0661 141.732 79.1258 141.154 78.053C139.566 74.6799 138.91 70.9434 139.253 67.231C139.133 64.0397 140.083 60.8999 141.952 58.3106C142.751 57.2917 143.746 56.4443 144.88 55.8191C146.013 55.1939 147.261 54.8037 148.549 54.672C150.957 54.2555 153.433 54.7945 155.45 56.1744C156.362 56.8158 157.156 57.6099 157.798 58.5219V43.0285ZM150.544 58.3811C149.695 58.4072 148.868 58.6633 148.153 59.1222C147.438 59.5811 146.861 60.2255 146.483 60.9867C145.236 63.9086 144.743 67.0973 145.051 70.2593C145.065 72.3299 145.504 74.3754 146.342 76.2689C146.662 76.8931 147.112 77.4408 147.663 77.8744C148.214 78.308 148.853 78.6172 149.535 78.7807C150.606 79.08 151.737 79.0898 152.814 78.8094C153.89 78.529 154.873 77.9683 155.662 77.1844C156.976 75.4491 157.722 73.3502 157.798 71.1748C158.037 68.7486 157.887 66.2997 157.352 63.9211C157.01 62.2958 156.193 60.8087 155.004 59.6486C154.389 59.1406 153.675 58.7657 152.907 58.5475C152.139 58.3294 151.335 58.2727 150.544 58.3811Z" fill="white"/>
<path d="M109.017 43.4268C109.014 43.2543 109.046 43.083 109.111 42.9233C109.176 42.7636 109.273 42.6189 109.396 42.498C109.52 42.3771 109.666 42.2827 109.827 42.2204C109.988 42.1581 110.16 42.1292 110.332 42.1356H113.008C113.642 42.1356 114.37 42.5582 114.346 43.2625V67.8171C116.59 65.3188 118.844 62.8312 121.102 60.3398L121.153 60.2844C122.209 59.1189 123.266 57.9526 124.323 56.7839C124.492 56.6212 124.651 56.4352 124.812 56.2471C125.279 55.7026 125.762 55.1401 126.53 55.0703C127.219 55.0076 128.211 55.0286 129.2 55.0495C129.693 55.0599 130.185 55.0703 130.638 55.0703C131.178 55.0703 131.764 55.5163 131.577 56.0797C131.328 56.4912 131.011 56.8566 130.638 57.1595L119.839 67.958C122.003 70.4144 124.14 72.889 126.277 75.3648L126.281 75.3689L126.284 75.3728L126.285 75.3736C127.577 76.8698 128.869 78.3664 130.168 79.8597C130.66 80.3833 131.115 80.9402 131.53 81.5264C131.579 81.6451 131.599 81.774 131.588 81.902C131.576 82.03 131.534 82.1534 131.465 82.2617C131.396 82.3701 131.302 82.4601 131.19 82.5242C131.079 82.5882 130.954 82.6244 130.825 82.6298H127.398C126.793 82.6954 126.181 82.6148 125.614 82.395C125.095 82.0085 124.649 81.5314 124.299 80.9866L114.323 68.4275V80.7752C114.323 81.2682 114.323 81.8316 113.994 82.1837C113.696 82.503 112.587 82.5714 111.858 82.6164L111.741 82.6237L111.646 82.6298L111.53 82.6378C110.848 82.6851 110.04 82.7411 109.463 82.2307C109.321 82.0918 109.211 81.9227 109.142 81.7359C109.073 81.5491 109.046 81.3492 109.064 81.1508V43.4268H109.017Z" fill="white"/>
<path d="M93.8765 55.0003C95.5417 54.3775 97.3758 54.3775 99.041 55.0003C99.6279 55.282 100.285 55.8454 100.027 56.5497C99.906 56.8794 99.7954 57.2916 99.6782 57.7283C99.5451 58.224 99.4035 58.7514 99.2288 59.2257C99.0962 59.509 98.8688 59.7369 98.5857 59.8698C98.3027 60.0027 97.982 60.0323 97.6794 59.9535C96.2915 59.6448 94.8756 59.4796 93.454 59.4605C92.9654 59.4776 92.4853 59.5924 92.0418 59.798C91.5983 60.0036 91.2005 60.296 90.8717 60.6578C89.8301 61.7589 89.1715 63.1666 88.9938 64.6719C88.8338 65.736 88.7788 66.8132 88.8294 67.888V81.4564C88.8294 82.1842 88.1252 82.7006 87.4444 82.7241H84.6978C84.0405 82.7241 83.2894 82.1842 83.3598 81.4564V56.3618C83.3598 55.5402 84.2049 55.0707 84.9326 55.1646C85.1252 55.1895 85.3671 55.1815 85.6297 55.1727C86.3591 55.1485 87.2476 55.119 87.6792 55.7749C88.0325 56.312 88.1986 57.0022 88.3671 57.7021C88.4785 58.1647 88.5909 58.6317 88.759 59.0614C89.9758 57.2595 91.7234 55.8812 93.7592 55.1176L93.8765 55.0003Z" fill="white"/>
<path d="M0.422745 55.2217C0.251433 55.3237 0.106615 55.4646 0 55.6331H0.0469239C0.0120574 55.9922 0.0120574 56.3538 0.0469239 56.7129L6.85461 81.5963C6.89383 81.868 7.02901 82.1169 7.23567 82.2977C7.44232 82.4785 7.70685 82.5794 7.98143 82.5822H12.8407C13.6624 82.6292 14.7422 82.4414 14.93 81.4789C15.9825 77.366 17.0685 73.3201 18.1572 69.2642L18.1596 69.2553C18.6484 67.4342 19.1378 65.611 19.6249 63.7789C20.0364 61.975 20.3422 60.1487 20.5405 58.3092C20.7163 60.3687 21.0617 62.41 21.5734 64.4126C22.8507 68.9479 24.0696 73.4687 25.2876 77.9863L25.2889 77.9911C25.6151 79.2008 25.9412 80.4103 26.2684 81.6198C26.3462 81.9223 26.533 82.1855 26.7929 82.3588C27.0528 82.5321 27.3676 82.6033 27.6769 82.5587H32.8883C33.2239 82.5569 33.5479 82.4354 33.8018 82.2159C34.0558 81.9964 34.2229 81.6933 34.2733 81.3615C35.208 77.9504 36.1189 74.5354 37.0305 71.118C38.3396 66.2102 39.6502 61.2969 41.0341 56.3843C41.094 56.2446 41.1199 56.0927 41.1099 55.9411C41.0998 55.7894 41.054 55.6423 40.9761 55.5117C40.8982 55.3812 40.7906 55.271 40.6619 55.1901C40.5332 55.1091 40.3872 55.0598 40.2358 55.0462H36.8555C36.5164 55.0075 36.1747 55.0933 35.894 55.2876C35.6133 55.4819 35.4128 55.7715 35.3296 56.1026C34.5549 59.6708 33.7803 63.1685 32.9821 66.7132C31.8621 71.1274 30.9999 75.603 30.4 80.1173C30.3668 79.9656 30.3307 79.8119 30.2943 79.6567C30.1504 79.0436 30.0009 78.4067 30.0009 77.7698C29.4761 74.9076 28.7863 72.0781 27.9351 69.2955C27.2147 66.7325 26.5188 64.1614 25.8233 61.5918C25.3404 59.8074 24.8575 58.0232 24.3669 56.2434C24.2596 55.8824 24.0298 55.57 23.717 55.3601C23.4042 55.1501 23.028 55.0558 22.6532 55.0932H18.4747C18.1369 55.0923 17.8093 55.2088 17.548 55.423C17.2868 55.6371 17.1081 55.9355 17.0428 56.2669C15.3995 62.2296 13.7954 68.1843 12.2304 74.1313C11.7374 76.1186 11.3612 78.133 11.1036 80.1643C10.979 79.4044 10.9074 78.7039 10.8324 77.9718C10.7662 77.3243 10.6973 76.652 10.5872 75.8919C10.4225 74.7554 10.1538 73.6652 9.88644 72.5806C9.77277 72.1194 9.65934 71.6592 9.55428 71.1969L5.89221 56.1964C5.86585 55.9002 5.73619 55.6228 5.52592 55.4125C5.31564 55.2022 5.03809 55.0726 4.74189 55.0462H0.985903C0.786991 55.0596 0.594057 55.1198 0.422745 55.2217Z" fill="white"/>
<path d="M204.348 55.0704H207.892C208.25 55.0752 208.598 55.1906 208.888 55.4007C209.178 55.6108 209.396 55.9054 209.512 56.2441C210.37 58.4933 211.224 60.7424 212.078 62.9898L212.082 63.0017C213.258 66.0984 214.433 69.1918 215.616 72.2774C216.046 73.3584 216.353 74.4845 216.531 75.6343C217.085 73.5563 217.761 71.5186 218.438 69.475L218.438 69.4741L218.439 69.472C218.794 68.4 219.15 67.3264 219.489 66.2444L222.799 56.1033C222.893 55.819 223.067 55.568 223.3 55.3806C223.533 55.1931 223.816 55.0772 224.114 55.0469H227.024C227.315 54.9933 227.613 55.001 227.9 55.0698C228.187 55.1385 228.457 55.2667 228.691 55.446C228.787 55.5837 228.838 55.7475 228.838 55.9154C228.838 56.0833 228.787 56.2472 228.691 56.3849C225.436 65.681 222.181 74.9927 218.926 84.32C218.469 85.9548 217.823 87.5305 217.001 89.015C215.642 91.1132 213.616 92.6926 211.249 93.4987C211.051 93.5611 210.851 93.6399 210.649 93.7193C210.018 93.9684 209.373 94.223 208.714 93.9916C208.072 93.7661 207.905 93.438 207.728 93.0926C207.666 92.9707 207.603 92.8466 207.517 92.724C207.471 92.6585 207.425 92.5948 207.379 92.5322C207.099 92.1465 206.849 91.8035 206.93 91.3389C206.966 91.0814 207.076 90.8399 207.247 90.644C207.418 90.448 207.642 90.3061 207.892 90.2356C208.909 89.9586 209.859 89.4796 210.686 88.8272C212.581 87.1161 213.846 84.8177 214.278 82.3012C214.094 81.6533 213.81 81.0307 213.525 80.4081C213.336 79.9931 213.146 79.5781 212.986 79.1556L203.597 57.4413C203.366 56.9873 203.192 56.5063 203.08 56.0093C203.08 55.4459 203.737 55.1877 204.23 55.1877L204.348 55.0704Z" fill="white"/>
<path fill-rule="evenodd" clip-rule="evenodd" d="M68.7343 56.9478C66.1445 55.1847 63.0312 54.3567 59.9077 54.6003L59.9781 54.7412C58.8403 54.8068 57.7138 55.0037 56.6212 55.3281C53.9961 56.0842 51.7249 57.748 50.2126 60.023C48.3191 63.1416 47.4949 66.7929 47.8651 70.4224C48.0223 73.6921 49.2987 76.8084 51.4802 79.2489C53.452 81.2532 56.0562 82.5139 58.8514 82.8172C62.1074 83.3 65.4297 82.6273 68.2413 80.9157C70.7871 79.1608 72.5802 76.513 73.2649 73.4976C74.0747 70.2928 74.0747 66.9369 73.2649 63.7321C72.5704 61.0212 70.9722 58.628 68.7343 56.9478ZM56.8147 59.5532C57.5235 59.0591 58.3301 58.723 59.18 58.5676L59.2035 58.5441C61.0003 58.1704 62.8714 58.4449 64.4853 59.3188C65.2858 59.8586 65.9716 60.5512 66.5034 61.357C67.0352 62.1627 67.4024 63.0656 67.584 64.0138C68.073 66.2081 68.2234 68.4643 68.03 70.7041C67.9643 73.0386 67.1403 75.2882 65.6826 77.1127C65.007 77.7604 64.2091 78.267 63.3356 78.6028C62.462 78.9386 61.5303 79.0969 60.5949 79.0685C59.6594 79.0401 58.739 78.8255 57.8875 78.4373C57.0359 78.0491 56.2703 77.4951 55.6353 76.8076C54.2013 74.6823 53.463 72.164 53.5225 69.6008C53.285 66.7874 53.8207 63.9626 55.0719 61.4315C55.5116 60.6879 56.106 60.0473 56.8147 59.5532Z" fill="white"/>
<path fill-rule="evenodd" clip-rule="evenodd" d="M188.433 54.953C185.961 54.3974 183.39 54.4538 180.944 55.1173C178.42 55.806 176.233 57.3919 174.794 59.5775C173.232 62.4023 172.424 65.5821 172.449 68.81C172.473 72.0378 173.33 75.2048 174.935 78.0053C176.524 80.3392 178.971 81.9508 181.743 82.489C184.001 83.066 186.388 82.876 188.527 81.9491C189.831 81.1933 190.959 80.1691 191.837 78.9443C191.992 79.8762 192.219 80.7946 192.518 81.6909C192.917 82.3717 193.832 82.3717 194.536 82.3717C195.18 82.449 195.833 82.3684 196.438 82.1369C196.609 82.0354 196.751 81.8911 196.85 81.7183C196.948 81.5455 197.001 81.35 197.001 81.1509V71.0333C197.079 69.1689 197.017 67.3012 196.813 65.4463C196.579 63.0087 195.704 60.6764 194.278 58.6856C192.828 56.7946 190.759 55.4734 188.433 54.953ZM180.944 59.6245C181.637 59.0996 182.44 58.7384 183.292 58.5681H183.339C185.111 58.2067 186.953 58.4985 188.527 59.3898C189.856 60.3327 190.799 61.7255 191.18 63.3101C191.785 65.7731 191.983 68.3185 191.766 70.8455C191.715 73.0426 191.012 75.1749 189.748 76.9724C188.514 78.1453 186.898 78.8319 185.198 78.9053C183.497 78.9786 181.828 78.4338 180.498 77.3715C179.221 75.8393 178.464 73.9399 178.339 71.9488C178.025 69.3061 178.112 66.6311 178.597 64.0143C178.847 62.3231 179.677 60.7713 180.944 59.6245Z" fill="white"/>
<path fill-rule="evenodd" clip-rule="evenodd" d="M232.612 76.903C231.656 76.534 230.621 76.4208 229.608 76.5744V80.6825H230.641V79.0157H231.134C231.392 79.5791 231.65 80.1191 231.932 80.6825H233.035C232.941 80.4873 232.842 80.2921 232.743 80.0952C232.542 79.7001 232.339 79.2979 232.166 78.8749C232.366 78.8187 232.546 78.7098 232.689 78.5596C232.831 78.4094 232.93 78.2236 232.976 78.0217C233.022 77.8197 233.012 77.6092 232.948 77.4124C232.884 77.2155 232.768 77.0395 232.612 76.903ZM230.641 78.4054V77.3021C230.739 77.313 230.854 77.3189 230.973 77.3249C231.367 77.345 231.813 77.3676 231.885 77.5838C231.979 77.8655 232.026 78.2646 231.697 78.4054C231.346 78.4403 230.992 78.4403 230.641 78.4054Z" fill="white"/>
<path fill-rule="evenodd" clip-rule="evenodd" d="M230.147 75.0936C230.983 74.9205 231.853 75.0107 232.636 75.3518C233.291 75.6423 233.843 76.1262 234.216 76.7387C234.59 77.3512 234.767 78.0631 234.725 78.7792C234.736 79.6356 234.438 80.4672 233.886 81.1223C233.335 81.7774 232.566 82.2122 231.72 82.3474C230.758 82.5559 229.753 82.3738 228.925 81.8412C228.097 81.3085 227.515 80.4688 227.307 79.5069C227.098 78.545 227.28 77.5396 227.813 76.712C228.346 75.8843 229.185 75.3022 230.147 75.0936ZM229.959 75.8214C229.19 76.0953 228.562 76.6635 228.212 77.4009C227.862 78.1383 227.819 78.9845 228.093 79.7534C228.367 80.5223 228.935 81.1509 229.673 81.5009C230.41 81.8509 231.256 81.8936 232.025 81.6197C232.406 81.484 232.756 81.2747 233.056 81.0037C233.356 80.7327 233.599 80.4053 233.773 80.0401C233.946 79.675 234.046 79.2794 234.066 78.8757C234.086 78.4721 234.027 78.0684 233.891 77.6876C233.756 77.3069 233.547 76.9566 233.275 76.6567C233.004 76.3569 232.677 76.1134 232.312 75.9401C231.947 75.7668 231.551 75.6672 231.147 75.6468C230.744 75.6264 230.34 75.6857 229.959 75.8214Z" fill="white"/>
</svg>
