<svg width="1064" height="41" viewBox="0 0 1064 41" fill="none" xmlns="http://www.w3.org/2000/svg">
<path d="M1026.72 22.5242L1023.85 14.9844C1023.82 14.8801 1023.76 14.7425 1023.76 14.6218C1023.76 14.2951 1024.06 13.9848 1024.47 13.9848C1024.84 13.9848 1025.08 14.209 1025.18 14.5357L1027.55 21.0331L1029.94 14.5192C1030.05 14.2102 1030.27 13.9861 1030.63 13.9861H1030.71C1031.09 13.9861 1031.33 14.2102 1031.44 14.5192L1033.8 21.0331L1036.21 14.5027C1036.3 14.2254 1036.5 13.9856 1036.89 13.9856C1037.29 13.9856 1037.58 14.2774 1037.58 14.6057C1037.58 14.726 1037.52 14.8632 1037.49 14.9683L1034.61 22.5246C1034.46 22.9193 1034.17 23.1266 1033.84 23.1266H1033.79C1033.42 23.1266 1033.15 22.9193 1033.02 22.5246L1030.67 16.1178L1028.3 22.5246C1028.17 22.9193 1027.9 23.1266 1027.54 23.1266H1027.5C1027.15 23.1266 1026.86 22.9193 1026.72 22.5246" fill="white"/>
<path d="M1047.57 14.6547C1047.57 14.2909 1047.88 13.9803 1048.26 13.9803C1048.66 13.9803 1048.97 14.274 1048.97 14.6547V16.1845C1049.67 14.6988 1051.2 13.9976 1052.22 13.9976C1052.64 13.9976 1052.92 14.2909 1052.92 14.6708C1052.92 15.0342 1052.66 15.2921 1052.29 15.344C1050.47 15.5513 1048.97 16.8479 1048.97 19.423V22.4525C1048.97 22.8155 1048.68 23.1257 1048.28 23.1257C1047.88 23.1257 1047.57 22.8307 1047.57 22.4525L1047.57 14.6531V14.6547Z" fill="white"/>
<path d="M1057.45 23.2246C1054.91 23.2246 1052.83 21.3594 1052.83 18.6224V18.587C1052.83 16.0395 1054.71 13.9889 1057.27 13.9889C1060.01 13.9889 1061.56 16.1248 1061.56 18.4675C1061.56 18.8276 1061.26 19.0851 1060.92 19.0851H1054.23C1054.43 20.9989 1055.84 22.0759 1057.49 22.0759C1058.63 22.0759 1059.47 21.6483 1060.15 21.0496C1060.26 20.9651 1060.38 20.8967 1060.55 20.8967C1060.88 20.8967 1061.15 21.1534 1061.15 21.4624C1061.15 21.6157 1061.08 21.7702 1060.94 21.8885C1060.06 22.6915 1059.02 23.2234 1057.45 23.2234L1057.45 23.2246ZM1060.19 18.1103C1060.04 16.5014 1059.08 15.1005 1057.23 15.1005C1055.62 15.1005 1054.41 16.3823 1054.23 18.1103H1060.19Z" fill="white"/>
<path d="M1037.64 20.4295C1037.64 18.5524 1039.28 17.552 1041.66 17.552C1042.87 17.552 1043.72 17.7069 1044.56 17.9323V17.6208C1044.56 16.0202 1043.52 15.192 1041.76 15.192C1040.81 15.192 1040.26 15.3061 1039.56 15.5983C1039.48 15.6329 1039.38 15.6506 1039.31 15.6506C1038.98 15.6506 1038.69 15.3914 1038.69 15.082C1038.69 14.8072 1038.82 14.637 1039.07 14.5295C1040 14.1488 1040.7 14.0223 1041.9 14.0223C1043.23 14.0223 1044.25 14.3486 1044.94 15.0037C1045.58 15.6065 1045.9 16.4676 1045.9 17.6052V22.5205C1045.9 22.8983 1045.61 23.1748 1045.23 23.1748C1044.83 23.1748 1044.56 22.8987 1044.56 22.5547V21.7051C1043.9 22.5164 1042.81 23.2386 1041.16 23.2386C1039.41 23.2374 1037.64 22.291 1037.64 20.465V20.4295ZM1044.58 19.7757V18.9141C1043.88 18.725 1042.95 18.5351 1041.81 18.5351C1040.05 18.5351 1039.06 19.2594 1039.06 20.378V20.4122C1039.06 21.5317 1040.15 22.1863 1041.43 22.1863C1043.16 22.1863 1044.58 21.1868 1044.58 19.7757Z" fill="white"/>
<path d="M1001.25 14.5723C1000.94 13.9329 1000.18 13.6433 999.467 13.9424C998.755 14.2419 998.493 14.9893 998.814 15.6292L1001.8 21.7723C1002.27 22.7351 1002.77 23.2399 1003.69 23.2399C1004.69 23.2399 1005.12 22.6902 1005.59 21.7723C1005.59 21.7723 1008.19 16.4037 1008.22 16.3461C1008.25 16.2892 1008.33 16.1157 1008.6 16.1174C1008.82 16.1186 1009.01 16.288 1009.01 16.5154V21.7644C1009.01 22.5736 1009.48 23.2374 1010.39 23.2374C1011.31 23.2374 1011.8 22.5736 1011.8 21.7644V17.4671C1011.8 16.6386 1012.43 16.1009 1013.28 16.1009C1014.14 16.1009 1014.71 16.658 1014.71 17.4671V21.7644C1014.71 22.5736 1015.18 23.2374 1016.09 23.2374C1017 23.2374 1017.5 22.5736 1017.5 21.7644V17.4671C1017.5 16.6386 1018.12 16.1009 1018.98 16.1009C1019.83 16.1009 1020.4 16.658 1020.4 17.4671V21.7644C1020.4 22.5736 1020.88 23.2374 1021.79 23.2374C1022.7 23.2374 1023.2 22.5736 1023.2 21.7644V16.8738C1023.2 15.0771 1021.67 13.8184 1019.83 13.8184C1018 13.8184 1016.85 15.0198 1016.85 15.0198C1016.24 14.2703 1015.4 13.82 1013.97 13.82C1012.47 13.82 1011.15 15.0198 1011.15 15.0198C1010.54 14.2703 1009.5 13.82 1008.64 13.82C1007.31 13.82 1006.25 14.3746 1005.6 15.7717L1003.69 20.0278L1001.25 14.5723Z" fill="white"/>
<path d="M1061.67 15.108V15.1005C1061.67 14.4994 1062.19 13.9931 1062.84 13.9931C1063.49 13.9931 1064 14.4941 1064 15.096V15.1005C1064 15.7037 1063.49 16.2101 1062.84 16.2101C1062.18 16.2101 1061.67 15.7107 1061.67 15.108ZM1063.78 15.1005V15.0977C1063.78 14.6032 1063.37 14.1978 1062.84 14.1978C1062.3 14.1978 1061.89 14.6103 1061.89 15.1005V15.1063C1061.89 15.5995 1062.3 16.0049 1062.84 16.0049C1063.37 16.0049 1063.78 15.5933 1063.78 15.1005Z" fill="white"/>
<path d="M1062.41 14.6548C1062.41 14.5892 1062.47 14.5369 1062.54 14.5369H1062.93C1063.07 14.5369 1063.18 14.5761 1063.25 14.6461C1063.32 14.705 1063.35 14.7903 1063.35 14.8892V14.8925C1063.35 15.0606 1063.26 15.1632 1063.13 15.2171L1063.3 15.4149C1063.32 15.4446 1063.34 15.4689 1063.34 15.5051C1063.34 15.5702 1063.28 15.6131 1063.22 15.6131C1063.17 15.6131 1063.13 15.5863 1063.1 15.5525L1062.86 15.2633H1062.66V15.4957C1062.66 15.5612 1062.61 15.6127 1062.54 15.6127C1062.47 15.6127 1062.41 15.5608 1062.41 15.4957V14.6548H1062.41ZM1062.91 15.0552C1063.03 15.0552 1063.1 14.9955 1063.1 14.9044V14.9007C1063.1 14.8014 1063.03 14.7479 1062.91 14.7479H1062.66V15.0548H1062.91V15.0552Z" fill="white"/>
<path d="M915.157 20.1616H919.755L917.327 16.3555L912.861 23.2299H910.831L916.262 14.9824C916.38 14.8178 916.537 14.6832 916.72 14.5897C916.903 14.4963 917.107 14.4468 917.314 14.4453C917.521 14.4439 917.725 14.4906 917.909 14.5815C918.094 14.6724 918.253 14.8048 918.374 14.9678L923.82 23.2299H921.789L920.833 21.6928H916.18L915.166 20.1616H915.157ZM936.265 21.6928V14.5286H934.54V22.3984C934.539 22.5078 934.562 22.6161 934.606 22.7167C934.65 22.8174 934.715 22.9083 934.796 22.984C934.878 23.0651 934.975 23.1294 935.083 23.1732C935.191 23.2169 935.307 23.2392 935.424 23.2387H943.268L944.291 21.7016H936.256L936.265 21.6928ZM907.732 20.4134C908.536 20.4134 909.308 20.1034 909.876 19.5516C910.445 18.9998 910.764 18.2514 910.764 17.471C910.764 16.6906 910.445 15.9422 909.876 15.3904C909.308 14.8386 908.536 14.5286 907.732 14.5286H900.189V23.2299H901.912V16.0686H907.626C908.011 16.0686 908.381 16.217 908.653 16.4811C908.925 16.7452 909.078 17.1034 909.078 17.4769C909.078 17.8503 908.925 18.2085 908.653 18.4726C908.381 18.7367 908.011 18.8851 907.626 18.8851H902.766L907.913 23.2299H910.414L906.957 20.4134H907.732ZM889.593 23.2299H894.804C895.972 23.2005 897.083 22.7294 897.898 21.9169C898.714 21.1045 899.171 20.015 899.171 18.8807C899.171 17.7464 898.714 16.6569 897.898 15.8445C897.083 15.0321 895.972 14.5609 894.804 14.5315H889.593C888.995 14.5165 888.399 14.6178 887.842 14.8296C887.284 15.0414 886.776 15.3593 886.348 15.7647C885.919 16.17 885.578 16.6546 885.346 17.1898C885.113 17.7249 884.993 18.2999 884.993 18.8807C884.993 19.4616 885.113 20.0365 885.346 20.5717C885.578 21.1068 885.919 21.5914 886.348 21.9967C886.776 22.4021 887.284 22.72 887.842 22.9318C888.399 23.1436 888.995 23.245 889.593 23.2299ZM894.686 21.6987H889.708C888.954 21.6751 888.24 21.3682 887.716 20.8429C887.192 20.3175 886.899 19.6149 886.899 18.8836C886.899 18.1524 887.192 17.4498 887.716 16.9244C888.24 16.3991 888.954 16.0922 889.708 16.0686H894.686C895.075 16.0564 895.462 16.1202 895.825 16.2562C896.188 16.3922 896.519 16.5976 896.799 16.8602C897.078 17.1228 897.3 17.4373 897.452 17.7849C897.604 18.1325 897.682 18.5061 897.682 18.8836C897.682 19.2612 897.604 19.6348 897.452 19.9824C897.3 20.33 897.078 20.6445 896.799 20.9071C896.519 21.1697 896.188 21.3751 895.825 21.5111C895.462 21.6471 895.075 21.7109 894.686 21.6987ZM927.419 23.2299H932.738L933.746 21.6987H927.537C927.148 21.7109 926.76 21.6471 926.398 21.5111C926.035 21.3751 925.704 21.1697 925.424 20.9071C925.145 20.6445 924.922 20.33 924.771 19.9824C924.619 19.6348 924.541 19.2612 924.541 18.8836C924.541 18.5061 924.619 18.1325 924.771 17.7849C924.922 17.4373 925.145 17.1228 925.424 16.8602C925.704 16.5976 926.035 16.3922 926.398 16.2562C926.76 16.1202 927.148 16.0564 927.537 16.0686H932.59L933.61 14.5315H927.419C926.821 14.5165 926.225 14.6178 925.668 14.8296C925.111 15.0414 924.603 15.3593 924.174 15.7647C923.745 16.17 923.404 16.6546 923.172 17.1898C922.939 17.7249 922.819 18.2999 922.819 18.8807C922.819 19.4616 922.939 20.0365 923.172 20.5717C923.404 21.1068 923.745 21.5914 924.174 21.9967C924.603 22.4021 925.111 22.72 925.668 22.9318C926.225 23.1436 926.821 23.245 927.419 23.2299ZM948.5 21.6987C947.868 21.6989 947.253 21.4989 946.749 21.129C946.244 20.7591 945.878 20.2395 945.706 19.6493H953.074L954.088 18.1151H945.706C945.878 17.5246 946.244 17.0048 946.748 16.6348C947.252 16.2648 947.868 16.065 948.5 16.0657H953.557L954.567 14.5286H948.382C947.214 14.558 946.103 15.0291 945.287 15.8416C944.472 16.654 944.015 17.7435 944.015 18.8778C944.015 20.0121 944.472 21.1016 945.287 21.914C946.103 22.7264 947.214 23.1976 948.382 23.227H953.701L954.712 21.6958H948.497" fill="#C74634"/>
<path d="M780.174 17.7889C780.407 18.8858 780.407 19.0092 780.407 19.1464C780.407 21.0248 778.296 22.0668 775.513 22.0668C769.219 22.0668 763.721 18.3922 763.721 15.9516C763.721 15.6089 763.79 15.2798 763.927 14.9644L764.42 13.7441C764.393 13.8264 764.393 13.9087 764.393 14.0047C764.393 15.2387 769.274 19.3109 775.814 19.3109C777.501 19.3109 779.928 18.9681 779.928 16.9663C779.928 16.8155 779.914 16.6509 779.886 16.5001L780.174 17.7889Z" fill="black"/>
<path d="M836.623 20.576C836.623 22.1802 837.583 22.948 839.338 22.948C839.873 22.9343 840.407 22.852 840.942 22.7286V20.8776C840.613 20.9873 840.257 21.0422 839.914 21.0285C839.187 21.0285 838.927 20.8091 838.927 20.1235V17.2853H841.024V15.3794H838.927V12.9525L836.637 13.4462V15.3657H835.115V17.2716H836.623V20.576ZM829.493 20.6171C829.493 20.1235 829.987 19.8767 830.741 19.8767C831.193 19.8767 831.66 19.9316 832.098 20.0412V21.001C831.66 21.2341 831.166 21.3575 830.672 21.3575C829.932 21.3712 829.493 21.0833 829.493 20.6171ZM830.193 22.9754C831.001 22.9754 831.646 22.8109 832.263 22.3996V22.852H834.525V18.0531C834.525 16.2295 833.291 15.2286 831.248 15.2286C830.097 15.2286 828.972 15.5028 827.752 16.0513L828.575 17.7378C829.452 17.3676 830.193 17.1482 830.837 17.1482C831.783 17.1482 832.263 17.5184 832.263 18.2588V18.629C831.714 18.4919 831.139 18.4096 830.563 18.4233C828.643 18.4233 827.478 19.2323 827.478 20.672C827.478 21.9882 828.52 22.9892 830.193 22.9754ZM817.756 22.852H820.183V18.9718H824.256V22.852H826.696V12.9525H824.269V16.7506H820.197V12.9525H817.77L817.756 22.852ZM808.501 19.1089C808.501 18.0394 809.351 17.2167 810.462 17.2167C811.038 17.203 811.614 17.4087 812.039 17.7926V20.4115C811.614 20.8091 811.038 21.0285 810.462 21.0147C809.365 21.001 808.501 20.1921 808.501 19.1089ZM812.08 22.8658H814.342V12.4727L812.053 12.9663V15.7771C811.477 15.448 810.819 15.2697 810.147 15.2835C807.967 15.2835 806.253 16.9699 806.253 19.1089C806.225 21.2067 807.912 22.9343 810.01 22.948C810.037 22.948 810.051 22.948 810.078 22.948C810.805 22.948 811.504 22.7286 812.08 22.3036V22.8658ZM801.687 17.107C802.414 17.107 803.017 17.5732 803.25 18.2999H800.124C800.371 17.5458 800.933 17.107 801.687 17.107ZM797.834 19.1226C797.834 21.3027 799.617 23.0029 801.906 23.0029C803.168 23.0029 804.086 22.6601 805.032 21.8648L803.524 20.5211C803.168 20.8913 802.647 21.0833 802.03 21.0833C801.234 21.1107 800.494 20.6308 800.192 19.8904H805.526V19.3283C805.526 16.9562 803.922 15.2423 801.755 15.2423C799.63 15.2149 797.889 16.9014 797.861 19.0266C797.834 19.054 797.834 19.0952 797.834 19.1226ZM793.899 15.0367C794.708 15.0367 795.16 15.544 795.16 16.1473C795.16 16.7506 794.708 17.2579 793.899 17.2579H791.499V15.0367H793.899ZM789.059 22.852H791.486V19.246H793.337L795.201 22.852H797.93L795.75 18.8895C796.888 18.4233 797.615 17.3264 797.615 16.1061C797.615 14.3237 796.216 12.9525 794.118 12.9525H789.045V22.852H789.059Z" fill="white"/>
<path d="M775.801 19.3269C777.487 19.3269 779.914 18.9842 779.914 16.9823C779.914 16.8315 779.901 16.667 779.873 16.5161L778.872 12.1697C778.639 11.2099 778.433 10.7849 776.761 9.93476C775.458 9.26291 772.62 8.16602 771.77 8.16602C770.988 8.16602 770.755 9.18064 769.823 9.18064C768.918 9.18064 768.26 8.42653 767.423 8.42653C766.614 8.42653 766.093 8.97498 765.682 10.113C765.682 10.113 764.558 13.3077 764.407 13.7602C764.379 13.8425 764.379 13.9384 764.379 14.0207C764.379 15.2547 769.261 19.3132 775.801 19.3269ZM780.175 17.7913C780.408 18.8882 780.408 19.0116 780.408 19.1487C780.408 21.0271 778.296 22.0692 775.513 22.0692C769.22 22.0692 763.721 18.3946 763.721 15.954C763.721 15.6112 763.79 15.2821 763.927 14.9668C761.665 15.0765 758.744 15.4878 758.744 18.0655C758.744 22.3023 768.767 27.5125 776.72 27.5125C782.807 27.5125 784.343 24.7566 784.343 22.5902C784.329 20.89 782.848 18.943 780.175 17.7913Z" fill="#EE0000"/>
<path fill-rule="evenodd" clip-rule="evenodd" d="M670.81 27.6366H692.627L713.979 6.28125H670.81V27.6366Z" fill="url(#paint0_linear_7_1455)"/>
<path fill-rule="evenodd" clip-rule="evenodd" d="M696.429 10.5587H692.166L692.18 20.5863L688.467 10.5554H684.786L681.617 18.9329C681.28 16.8012 679.076 16.0656 677.342 15.5146C676.197 15.1468 674.982 14.6058 674.994 14.0079C675.003 13.5172 675.644 13.0621 676.917 13.1299C677.772 13.176 678.526 13.2448 680.027 13.9699L681.503 11.3978C680.134 10.7011 678.242 10.2612 676.69 10.2598H676.681C674.871 10.2598 673.364 10.8459 672.43 11.8116C671.779 12.4855 671.428 13.3425 671.414 14.2902C671.39 15.5943 671.868 16.5188 672.872 17.2577C673.721 17.8794 674.806 18.2827 675.762 18.5789C676.942 18.9443 677.905 19.2622 677.893 19.939C677.884 20.1857 677.791 20.4164 677.613 20.6024C677.319 20.9061 676.868 21.02 676.244 21.0324C675.04 21.058 674.148 20.8686 672.726 20.0282L671.413 22.6335C672.833 23.4413 674.341 23.8465 676.054 23.8465L676.439 23.8437C677.931 23.8166 679.141 23.4593 680.102 22.6858C680.157 22.6416 680.207 22.597 680.258 22.5519L680.096 23.3834L683.694 23.372L684.339 21.7195C685.018 21.9511 685.789 22.0793 686.608 22.0793C687.407 22.0793 688.157 21.9578 688.823 21.7395L689.273 23.372L695.727 23.3781L695.743 19.6111H697.116C700.436 19.6111 702.398 17.9216 702.398 15.0885C702.397 11.9331 700.489 10.5587 696.429 10.5587ZM686.608 19.1303C686.112 19.1303 685.647 19.0439 685.247 18.8921L686.593 14.6424H686.619L687.943 18.904C687.545 19.0463 687.091 19.1303 686.608 19.1303H686.608ZM696.679 16.6887H695.742V13.2638H696.679C697.927 13.2638 698.924 13.6795 698.924 14.9542C698.923 16.2734 697.927 16.6887 696.679 16.6887" fill="white"/>
<path d="M594.197 0.0128668C597.178 -0.0971772 600.144 0.499917 602.851 1.75533C605.558 3.01075 607.929 4.88884 609.771 7.23614C610.74 8.46799 611.551 9.81609 612.185 11.2491C612.316 11.4828 612.365 11.7537 612.325 12.0185C612.283 12.2448 612.168 12.4514 611.999 12.6071C611.829 12.7627 611.614 12.8591 611.385 12.8815C611.155 12.904 610.925 12.8513 610.729 12.7316C610.532 12.6118 610.38 12.4314 610.295 12.2175C609.261 9.80152 607.674 7.66254 605.661 5.97336C603.648 4.28417 601.266 3.09215 598.707 2.49359C596.182 1.90981 593.558 1.90981 591.033 2.49359C588.472 3.09126 586.088 4.28279 584.073 5.97196C582.057 7.66112 580.468 9.80057 579.432 12.2175C579.331 12.4814 579.13 12.6946 578.873 12.8103C578.616 12.926 578.323 12.9346 578.059 12.8344C577.795 12.7341 577.582 12.5331 577.466 12.2756C577.35 12.0181 577.342 11.7252 577.442 11.4614C578.853 8.1588 581.178 5.32741 584.142 3.29955C587.106 1.27169 590.587 0.131515 594.177 0.0128668H594.197Z" fill="#F6A11F"/>
<path fill-rule="evenodd" clip-rule="evenodd" d="M604.851 12.1594C604.851 11.9804 605.023 11.861 605.183 11.8477C605.289 11.8388 605.483 11.8418 605.678 11.8447L605.678 11.8447C605.775 11.8462 605.873 11.8477 605.959 11.8477C606.217 11.8477 606.377 11.9936 606.35 12.2125V22.9181C606.347 23.0068 606.31 23.0909 606.247 23.1537C606.185 23.2164 606.1 23.2531 606.012 23.2564C605.806 23.2696 605.6 23.2696 605.395 23.2564C605.322 23.2507 605.252 23.2256 605.193 23.1835C605.133 23.1415 605.086 23.0842 605.057 23.0176C605.012 22.8754 604.98 22.7281 604.948 22.582C604.927 22.4897 604.907 22.3977 604.884 22.3079C604.61 22.7082 604.225 23.0195 603.776 23.2033C603.116 23.4318 602.403 23.4595 601.727 23.2829C601.393 23.1995 601.08 23.0472 600.808 22.8359C600.536 22.6246 600.311 22.3589 600.148 22.0558C599.7 21.1027 599.514 20.047 599.611 18.998C599.577 18.0963 599.846 17.2091 600.374 16.4775C600.599 16.1896 600.881 15.9502 601.201 15.7735C601.521 15.5968 601.874 15.4866 602.238 15.4494C602.918 15.3317 603.618 15.484 604.188 15.8739C604.445 16.0551 604.67 16.2795 604.851 16.5372V12.1594ZM602.801 16.4974C602.561 16.5048 602.328 16.5772 602.126 16.7068C601.924 16.8365 601.761 17.0186 601.654 17.2336C601.301 18.0592 601.162 18.9602 601.249 19.8537C601.253 20.4387 601.377 21.0167 601.614 21.5517C601.704 21.7281 601.832 21.8828 601.987 22.0054C602.143 22.1279 602.324 22.2152 602.516 22.2614C602.819 22.346 603.139 22.3488 603.443 22.2696C603.747 22.1903 604.024 22.0319 604.247 21.8104C604.619 21.3201 604.83 20.727 604.851 20.1124C604.919 19.4268 604.876 18.7349 604.725 18.0628C604.628 17.6035 604.397 17.1833 604.062 16.8556C603.888 16.712 603.686 16.6061 603.469 16.5444C603.252 16.4828 603.025 16.4668 602.801 16.4974Z" fill="white"/>
<path d="M591.068 12.272C591.067 12.2233 591.076 12.1749 591.094 12.1297C591.113 12.0846 591.14 12.0437 591.175 12.0096C591.21 11.9754 591.251 11.9487 591.296 11.9311C591.342 11.9135 591.391 11.9054 591.439 11.9072H592.195C592.374 11.9072 592.58 12.0266 592.573 12.2256V19.1636C593.207 18.4577 593.844 17.7548 594.482 17.0508L594.497 17.0352C594.795 16.7059 595.094 16.3763 595.392 16.0461C595.44 16.0001 595.485 15.9476 595.531 15.8944C595.663 15.7406 595.799 15.5816 596.016 15.5619C596.211 15.5442 596.491 15.5501 596.77 15.5561C596.91 15.559 597.049 15.5619 597.177 15.5619C597.329 15.5619 597.495 15.688 597.442 15.8471C597.372 15.9634 597.282 16.0667 597.177 16.1523L594.126 19.2034C594.737 19.8975 595.341 20.5967 595.945 21.2962L595.946 21.2974L595.947 21.2985L595.947 21.2987C596.312 21.7215 596.677 22.1444 597.044 22.5663C597.183 22.7143 597.312 22.8716 597.429 23.0373C597.443 23.0708 597.448 23.1072 597.445 23.1434C597.442 23.1795 597.43 23.2144 597.411 23.245C597.391 23.2756 597.364 23.3011 597.333 23.3192C597.301 23.3373 597.266 23.3475 597.23 23.349H596.261C596.09 23.3675 595.918 23.3448 595.757 23.2827C595.61 23.1735 595.485 23.0387 595.386 22.8847L592.567 19.3361V22.825C592.567 22.9643 592.567 23.1235 592.474 23.223C592.39 23.3132 592.076 23.3325 591.87 23.3452L591.837 23.3473L591.811 23.349L591.778 23.3513C591.585 23.3646 591.357 23.3805 591.194 23.2363C591.153 23.197 591.122 23.1492 591.103 23.0964C591.083 23.0437 591.076 22.9872 591.081 22.9311V12.272H591.068Z" fill="white"/>
<path d="M586.79 15.5422C587.26 15.3662 587.778 15.3662 588.249 15.5422C588.415 15.6217 588.6 15.7809 588.527 15.9799C588.493 16.0731 588.462 16.1896 588.429 16.3129C588.391 16.453 588.351 16.6021 588.302 16.7361C588.265 16.8161 588.2 16.8805 588.12 16.9181C588.04 16.9556 587.95 16.964 587.864 16.9417C587.472 16.8545 587.072 16.8078 586.67 16.8024C586.532 16.8072 586.397 16.8397 586.271 16.8978C586.146 16.9559 586.034 17.0385 585.941 17.1407C585.646 17.4518 585.46 17.8496 585.41 18.2749C585.365 18.5756 585.349 18.8799 585.364 19.1836V23.0175C585.364 23.2231 585.165 23.369 584.972 23.3757H584.196C584.01 23.3757 583.798 23.2231 583.818 23.0175V15.9269C583.818 15.6947 584.057 15.5621 584.262 15.5886C584.317 15.5956 584.385 15.5933 584.459 15.5909C584.666 15.584 584.917 15.5757 585.039 15.761C585.138 15.9128 585.185 16.1078 585.233 16.3055C585.264 16.4363 585.296 16.5682 585.344 16.6896C585.687 16.1805 586.181 15.791 586.756 15.5753L586.79 15.5422Z" fill="white"/>
<path d="M560.384 15.6047C560.335 15.6335 560.294 15.6733 560.264 15.7209H560.278C560.268 15.8224 560.268 15.9246 560.278 16.0261L562.201 23.057C562.212 23.1338 562.25 23.2041 562.309 23.2552C562.367 23.3063 562.442 23.3348 562.519 23.3356H563.893C564.125 23.3488 564.43 23.2958 564.483 23.0238C564.78 21.8617 565.087 20.7185 565.395 19.5725L565.395 19.57C565.534 19.0554 565.672 18.5403 565.809 18.0226C565.926 17.5129 566.012 16.9969 566.068 16.4771C566.118 17.059 566.215 17.6358 566.36 18.2017C566.721 19.4831 567.065 20.7605 567.409 22.037L567.41 22.0383C567.502 22.3801 567.594 22.7219 567.687 23.0636C567.709 23.1491 567.761 23.2235 567.835 23.2724C567.908 23.3214 567.997 23.3415 568.085 23.3289H569.557C569.652 23.3284 569.743 23.2941 569.815 23.2321C569.887 23.17 569.934 23.0844 569.948 22.9907C570.212 22.0268 570.47 21.0619 570.727 20.0963C571.097 18.7096 571.468 17.3213 571.859 15.9332C571.876 15.8937 571.883 15.8508 571.88 15.808C571.877 15.7651 571.864 15.7235 571.842 15.6867C571.82 15.6498 571.79 15.6186 571.754 15.5958C571.717 15.5729 571.676 15.559 571.633 15.5551H570.678C570.582 15.5442 570.486 15.5684 570.406 15.6233C570.327 15.6782 570.27 15.7601 570.247 15.8536C570.028 16.8618 569.809 17.8501 569.584 18.8517C569.267 20.0989 569.023 21.3636 568.854 22.6391C568.845 22.5962 568.834 22.5528 568.824 22.509C568.783 22.3357 568.741 22.1558 568.741 21.9758C568.593 21.1671 568.398 20.3676 568.157 19.5813C567.954 18.8572 567.757 18.1307 567.561 17.4046C567.424 16.9004 567.288 16.3963 567.149 15.8934C567.119 15.7914 567.054 15.7031 566.966 15.6438C566.877 15.5845 566.771 15.5578 566.665 15.5684H565.484C565.389 15.5681 565.296 15.6011 565.223 15.6616C565.149 15.7221 565.098 15.8064 565.08 15.9C564.616 17.5848 564.162 19.2674 563.72 20.9477C563.581 21.5092 563.474 22.0784 563.402 22.6524C563.366 22.4377 563.346 22.2398 563.325 22.0329C563.306 21.8499 563.287 21.66 563.256 21.4452C563.209 21.1241 563.133 20.816 563.058 20.5096C563.026 20.3792 562.994 20.2492 562.964 20.1186L561.929 15.8801C561.922 15.7964 561.885 15.718 561.826 15.6586C561.766 15.5992 561.688 15.5626 561.604 15.5551H560.543C560.487 15.5589 560.432 15.5759 560.384 15.6047Z" fill="white"/>
<path d="M618.004 15.5619H619.005C619.107 15.5633 619.205 15.5959 619.287 15.6553C619.369 15.7146 619.43 15.7979 619.463 15.8936C619.706 16.5291 619.947 17.1646 620.188 17.7996L620.189 17.803C620.522 18.678 620.854 19.552 621.188 20.4239C621.309 20.7293 621.396 21.0475 621.446 21.3724C621.603 20.7853 621.794 20.2095 621.985 19.6321L621.985 19.6318L621.985 19.6312C622.086 19.3283 622.186 19.025 622.282 18.7192L623.217 15.8538C623.244 15.7735 623.293 15.7026 623.359 15.6496C623.425 15.5966 623.505 15.5639 623.589 15.5553H624.411C624.493 15.5402 624.578 15.5424 624.659 15.5618C624.74 15.5812 624.816 15.6174 624.882 15.6681C624.909 15.707 624.924 15.7533 624.924 15.8007C624.924 15.8482 624.909 15.8945 624.882 15.9334C623.963 18.56 623.043 21.1911 622.123 23.8266C621.994 24.2885 621.812 24.7337 621.579 25.1532C621.195 25.746 620.623 26.1923 619.954 26.4201C619.898 26.4377 619.841 26.46 619.785 26.4824C619.606 26.5528 619.424 26.6248 619.238 26.5594C619.056 26.4957 619.009 26.403 618.959 26.3054C618.942 26.2709 618.924 26.2358 618.899 26.2012C618.886 26.1827 618.873 26.1647 618.86 26.147C618.781 26.038 618.711 25.9411 618.734 25.8098C618.744 25.7371 618.775 25.6688 618.823 25.6135C618.871 25.5581 618.935 25.518 619.005 25.4981C619.293 25.4198 619.561 25.2845 619.795 25.1001C620.33 24.6167 620.688 23.9672 620.81 23.2562C620.758 23.0731 620.678 22.8972 620.597 22.7213C620.544 22.604 620.49 22.4867 620.445 22.3674L617.792 16.2319C617.726 16.1036 617.677 15.9677 617.646 15.8273C617.646 15.6681 617.831 15.5951 617.971 15.5951L618.004 15.5619Z" fill="white"/>
<path fill-rule="evenodd" clip-rule="evenodd" d="M579.686 16.0924C578.954 15.5942 578.074 15.3603 577.192 15.4291L577.211 15.4689C576.89 15.4875 576.572 15.5431 576.263 15.6348C575.521 15.8484 574.879 16.3185 574.452 16.9614C573.917 17.8425 573.684 18.8742 573.789 19.8998C573.833 20.8236 574.194 21.7042 574.81 22.3937C575.367 22.9601 576.103 23.3163 576.893 23.402C577.813 23.5384 578.752 23.3483 579.546 22.8647C580.266 22.3688 580.772 21.6207 580.966 20.7687C581.195 19.8631 581.195 18.9149 580.966 18.0094C580.769 17.2434 580.318 16.5672 579.686 16.0924ZM576.318 16.8286C576.518 16.689 576.746 16.594 576.986 16.5501L576.993 16.5435C577.5 16.4379 578.029 16.5154 578.485 16.7624C578.711 16.9149 578.905 17.1106 579.055 17.3383C579.205 17.5659 579.309 17.821 579.361 18.089C579.499 18.709 579.541 19.3465 579.487 19.9794C579.468 20.639 579.235 21.2746 578.823 21.7901C578.632 21.9732 578.407 22.1163 578.16 22.2112C577.913 22.306 577.65 22.3508 577.386 22.3428C577.121 22.3347 576.861 22.2741 576.621 22.1644C576.38 22.0547 576.164 21.8982 575.984 21.7039C575.579 21.1034 575.371 20.3918 575.387 19.6676C575.32 18.8727 575.472 18.0745 575.825 17.3593C575.949 17.1492 576.117 16.9682 576.318 16.8286Z" fill="white"/>
<path fill-rule="evenodd" clip-rule="evenodd" d="M613.507 15.5288C612.809 15.3718 612.082 15.3877 611.391 15.5752C610.678 15.7698 610.06 16.2179 609.653 16.8355C609.212 17.6336 608.984 18.5321 608.991 19.4441C608.998 20.3562 609.24 21.251 609.693 22.0424C610.142 22.7018 610.834 23.1572 611.617 23.3092C612.255 23.4723 612.929 23.4186 613.534 23.1567C613.902 22.9431 614.221 22.6537 614.469 22.3077C614.513 22.571 614.577 22.8305 614.661 23.0837C614.774 23.2761 615.033 23.2761 615.232 23.2761C615.413 23.2979 615.598 23.2752 615.769 23.2098C615.817 23.1811 615.857 23.1403 615.885 23.0915C615.913 23.0427 615.928 22.9874 615.928 22.9312V20.0724C615.95 19.5456 615.932 19.0178 615.875 18.4937C615.809 17.805 615.562 17.146 615.159 16.5834C614.749 16.0491 614.164 15.6758 613.507 15.5288ZM611.391 16.8488C611.587 16.7004 611.814 16.5984 612.054 16.5503H612.068C612.568 16.4481 613.089 16.5306 613.534 16.7824C613.909 17.0488 614.176 17.4424 614.283 17.8901C614.454 18.5861 614.51 19.3053 614.449 20.0193C614.434 20.6401 614.236 21.2426 613.879 21.7505C613.53 22.0819 613.073 22.2759 612.593 22.2966C612.113 22.3174 611.641 22.1634 611.265 21.8633C610.904 21.4303 610.69 20.8937 610.655 20.3311C610.566 19.5843 610.591 18.8285 610.728 18.0891C610.798 17.6113 611.033 17.1728 611.391 16.8488Z" fill="white"/>
<path fill-rule="evenodd" clip-rule="evenodd" d="M625.99 21.7309C625.72 21.6266 625.428 21.5946 625.141 21.638V22.7988H625.433V22.3278H625.572C625.645 22.487 625.718 22.6396 625.798 22.7988H626.11C626.083 22.7437 626.055 22.6885 626.027 22.6329C625.971 22.5212 625.913 22.4076 625.864 22.2881C625.921 22.2722 625.972 22.2414 626.012 22.199C626.052 22.1565 626.08 22.104 626.093 22.047C626.106 21.9899 626.103 21.9304 626.085 21.8748C626.067 21.8192 626.034 21.7695 625.99 21.7309ZM625.433 22.1554V21.8437C625.461 21.8467 625.493 21.8484 625.527 21.8501C625.639 21.8558 625.764 21.8622 625.785 21.9232C625.811 22.0028 625.824 22.1156 625.732 22.1554C625.632 22.1652 625.532 22.1652 625.433 22.1554Z" fill="white"/>
<path fill-rule="evenodd" clip-rule="evenodd" d="M625.294 21.2196C625.53 21.1707 625.776 21.1962 625.997 21.2926C626.182 21.3747 626.338 21.5114 626.443 21.6845C626.549 21.8575 626.599 22.0587 626.587 22.261C626.59 22.503 626.506 22.738 626.35 22.9231C626.194 23.1082 625.977 23.231 625.738 23.2692C625.466 23.3282 625.182 23.2767 624.948 23.1262C624.715 22.9757 624.55 22.7384 624.491 22.4666C624.432 22.1948 624.484 21.9108 624.634 21.6769C624.785 21.4431 625.022 21.2786 625.294 21.2196ZM625.241 21.4253C625.023 21.5027 624.846 21.6632 624.747 21.8716C624.648 22.0799 624.636 22.319 624.713 22.5363C624.791 22.7535 624.951 22.9311 625.16 23.03C625.368 23.1289 625.607 23.141 625.824 23.0636C625.932 23.0253 626.031 22.9661 626.116 22.8896C626.2 22.813 626.269 22.7205 626.318 22.6173C626.367 22.5141 626.395 22.4023 626.401 22.2883C626.407 22.1742 626.39 22.0602 626.352 21.9526C626.313 21.845 626.254 21.746 626.178 21.6613C626.101 21.5766 626.009 21.5078 625.905 21.4588C625.802 21.4099 625.69 21.3817 625.576 21.3759C625.462 21.3702 625.348 21.3869 625.241 21.4253Z" fill="white"/>
<path d="M516.299 16.7052V15.2485C516.147 15.2485 515.995 15.2482 515.843 15.2479C515.403 15.247 514.963 15.2462 514.524 15.2524C514.516 14.8235 514.518 14.3935 514.519 13.9635V13.9626C514.52 13.6438 514.52 13.325 514.518 13.0066C514.306 13.0705 514.094 13.1359 513.882 13.2013L513.882 13.2014C513.503 13.3185 513.124 13.4355 512.743 13.5442C512.734 13.8669 512.736 14.1898 512.737 14.5126V14.5133C512.738 14.7584 512.738 15.0035 512.735 15.2485H510.111C510.114 15.0995 510.112 14.9505 510.11 14.8015V14.8014C510.106 14.5021 510.101 14.2027 510.144 13.9034C510.197 13.5546 510.401 13.2019 510.742 13.0664C511.173 12.8895 511.655 13.0071 512.064 13.1875C512.064 13.0551 512.064 12.9228 512.065 12.7904V12.7893C512.065 12.4094 512.066 12.0296 512.061 11.6501C511.199 11.4129 510.211 11.4593 509.446 11.9569C508.954 12.281 508.596 12.7717 508.436 13.3389C508.305 13.7686 508.311 14.215 508.317 14.6604C508.319 14.858 508.322 15.0553 508.313 15.251L508.227 15.2503C507.84 15.2475 507.455 15.2446 507.067 15.2534C507.07 15.573 507.069 15.8925 507.068 16.2119V16.2127C507.068 16.3721 507.067 16.5314 507.067 16.6907C507.288 16.6952 507.509 16.6949 507.731 16.6947C507.926 16.6944 508.121 16.6942 508.316 16.6972C508.312 18.7139 508.312 20.7304 508.316 22.7467H510.109V16.6952H512.735V20.5517C512.743 21.1495 512.845 21.7907 513.241 22.2634C513.585 22.6819 514.13 22.8732 514.656 22.9111C515.21 22.9504 515.783 22.8827 516.296 22.662V21.1888C515.903 21.4519 515.36 21.5565 514.932 21.3169C514.676 21.1759 514.577 20.874 514.544 20.6015C514.508 20.2922 514.511 19.981 514.515 19.6693C514.516 19.5152 514.518 19.3609 514.515 19.2066V16.6937C514.725 16.6955 514.934 16.6944 515.143 16.6933C515.529 16.6913 515.914 16.6893 516.299 16.7052Z" fill="white"/>
<path d="M471.037 12.0626C470.539 12.1219 470.114 12.5702 470.126 13.0804C470.105 13.5631 470.493 13.9961 470.959 14.0797C471.407 14.1794 471.923 13.9881 472.154 13.5816C472.255 13.398 472.298 13.1877 472.276 12.9793C472.253 12.7709 472.167 12.5744 472.03 12.4163C471.791 12.1313 471.399 12.0078 471.037 12.0626Z" fill="white"/>
<path d="M464.202 16.9694L464.202 16.9687C464.838 15.4106 465.474 13.8525 466.102 12.2908C466.719 12.2808 467.337 12.2839 467.955 12.287H467.955C468.174 12.2881 468.392 12.2892 468.611 12.2898V22.7517C468.361 22.7503 468.111 22.7509 467.861 22.7515H467.861C467.507 22.7523 467.154 22.7532 466.8 22.7482C466.804 21.2997 466.803 19.8518 466.803 18.4041V18.4036C466.802 17.2778 466.802 16.1521 466.803 15.0263C466.804 14.9087 466.8 14.7932 466.792 14.6776C466.757 14.7311 466.726 14.7871 466.698 14.845C466.248 15.9879 465.795 17.1295 465.341 18.2711L465.341 18.2721C464.749 19.7609 464.157 21.2497 463.574 22.7417C463.324 22.7507 463.074 22.7496 462.823 22.7484H462.823C462.644 22.7476 462.464 22.7468 462.285 22.7497C461.644 21.1694 461.007 19.587 460.371 18.0046L460.37 18.0014C459.946 16.9474 459.522 15.8934 459.096 14.84C459.068 14.7852 459.039 14.7304 459.006 14.6806C458.993 15.383 458.995 16.0859 458.997 16.7887V16.7889C458.998 17.2139 458.999 17.6389 458.997 18.0638V22.7467H457.289V12.2848H459.9C460.714 14.3456 461.528 16.4069 462.341 18.4688C462.417 18.6575 462.491 18.8471 462.566 19.0366L462.566 19.0371C462.694 19.3652 462.823 19.6934 462.961 20.0176C463.373 19.0022 463.787 17.9877 464.201 16.9732L464.201 16.9722L464.201 16.9715L464.202 16.9694Z" fill="white"/>
<path d="M478.639 15.2495C477.769 15.0013 476.846 14.9985 475.974 15.2415C475.18 15.4707 474.451 15.9584 473.984 16.6474C473.428 17.455 473.231 18.4638 473.275 19.4308C473.318 20.3609 473.685 21.2895 474.36 21.9407C474.982 22.5445 475.838 22.8698 476.697 22.9151C477.537 22.9565 478.416 22.8439 479.149 22.4075C479.146 22.1079 479.146 21.8083 479.147 21.5088C479.147 21.2668 479.147 21.0248 479.145 20.7829C478.673 21.1286 478.121 21.3762 477.536 21.4435C476.944 21.4883 476.31 21.3438 475.857 20.9453C475.422 20.5741 475.19 20.0147 475.133 19.4547C475.058 18.7378 475.157 17.9611 475.606 17.3763C475.783 17.1416 476.008 16.9468 476.265 16.8042C476.523 16.6617 476.807 16.5747 477.1 16.5488C477.836 16.4561 478.57 16.7361 479.148 17.178C479.15 16.9283 479.15 16.6782 479.149 16.4282V16.4278C479.148 16.1054 479.148 15.7834 479.153 15.4627C478.992 15.3697 478.819 15.298 478.639 15.2495Z" fill="white"/>
<path d="M496.472 18.3135C496.725 18.418 496.979 18.5225 497.216 18.6596C497.631 18.8928 498.033 19.1962 498.241 19.6371C498.636 20.4601 498.469 21.5476 497.775 22.1614C497.112 22.7811 496.157 22.9525 495.278 22.9196C494.654 22.8793 494.028 22.7562 493.454 22.5012C493.456 22.257 493.455 22.0129 493.455 21.7689C493.454 21.4348 493.454 21.1009 493.457 20.767C493.939 21.1222 494.496 21.3625 495.085 21.4694C495.497 21.5377 495.943 21.5377 496.323 21.3553C496.687 21.1735 496.754 20.6539 496.537 20.336C496.341 20.0993 496.056 19.9653 495.783 19.837L495.754 19.8234C495.646 19.7749 495.537 19.7281 495.428 19.6812L495.428 19.6811C495.002 19.4981 494.575 19.3143 494.206 19.0308C493.874 18.7766 493.638 18.418 493.536 18.013C493.393 17.4167 493.436 16.7446 493.785 16.2235C494.181 15.6167 494.869 15.2525 495.57 15.1275C496.399 14.9815 497.267 15.0871 498.053 15.386V17.035C497.5 16.6542 496.84 16.4593 496.168 16.4786C495.833 16.4915 495.465 16.6335 495.312 16.9523C495.19 17.2677 495.273 17.6812 495.572 17.87C495.852 18.0578 496.162 18.1857 496.472 18.3135Z" fill="white"/>
<path d="M483.162 15.3636C482.714 15.6181 482.427 16.0715 482.235 16.5383V15.251C481.645 15.248 481.054 15.245 480.464 15.251C480.468 17.7489 480.468 20.247 480.464 22.7452H482.233V19.1583C482.218 18.6392 482.261 18.1021 482.488 17.6273C482.697 17.179 483.101 16.7879 483.61 16.7306C484.035 16.6871 484.462 16.7875 484.823 17.0156V15.2221C484.287 15.0412 483.657 15.0662 483.162 15.3636Z" fill="white"/>
<path d="M470.291 22.7467V15.2509C470.39 15.2505 470.489 15.25 470.588 15.2495C471.084 15.2469 471.58 15.2444 472.075 15.2539C472.07 16.7525 472.071 18.2512 472.072 19.7498C472.072 20.7488 472.073 21.7478 472.072 22.7467H470.291Z" fill="white"/>
<path fill-rule="evenodd" clip-rule="evenodd" d="M490.697 15.4154C489.9 15.0517 488.99 15.0029 488.129 15.1125C487.225 15.2265 486.344 15.652 485.77 16.3729C485.246 17.0165 484.991 17.8435 484.942 18.6645C484.87 19.6315 485.031 20.6573 485.599 21.4648C486.083 22.1623 486.845 22.6401 487.672 22.8164C488.365 22.9606 489.08 22.9606 489.772 22.8164C490.579 22.6505 491.332 22.2042 491.832 21.5455C492.32 20.9253 492.565 20.1432 492.62 19.3625C492.677 18.5654 492.596 17.7349 492.264 16.9976C491.95 16.2982 491.393 15.7361 490.697 15.4154ZM490.531 20.4416C490.361 20.8341 490.045 21.1448 489.65 21.3074C489.181 21.4793 488.67 21.5018 488.188 21.3717C487.945 21.3042 487.72 21.1864 487.527 21.0262C487.333 20.8659 487.176 20.6668 487.064 20.4416C486.775 19.8647 486.732 19.1961 486.792 18.5649C486.846 17.9895 487.046 17.3976 487.485 17.0006C487.802 16.7017 488.236 16.5587 488.665 16.5348C489.204 16.4994 489.778 16.6519 490.165 17.0439C490.58 17.4514 490.74 18.0403 490.785 18.6067C490.815 19.2255 490.79 19.8687 490.531 20.4416Z" fill="white"/>
<path fill-rule="evenodd" clip-rule="evenodd" d="M502.427 15.11C503.322 14.9989 504.273 15.0591 505.09 15.4716C505.804 15.8386 506.354 16.4604 506.631 17.2138C506.847 17.7832 506.922 18.398 506.91 19.0043C506.911 19.91 506.667 20.8396 506.098 21.558C505.566 22.2535 504.752 22.7053 503.893 22.8473C503.052 22.9823 502.163 22.9479 501.366 22.6336C500.549 22.309 499.894 21.674 499.544 20.8675C499.188 20.052 499.146 19.1343 499.262 18.263C499.378 17.3917 499.772 16.5398 500.445 15.9604C500.996 15.4766 501.705 15.2026 502.427 15.11ZM504.549 20.8566C504.808 20.5442 504.944 20.1506 505.013 19.7561V19.7575C505.103 19.2265 505.098 18.6837 504.998 18.1544C504.908 17.703 504.709 17.2576 504.35 16.9587C503.959 16.6165 503.42 16.4994 502.913 16.5348C502.417 16.5652 501.925 16.7764 501.604 17.163C501.252 17.5785 501.101 18.125 501.06 18.6576C501.018 19.2075 501.06 19.777 501.273 20.2911C501.45 20.7225 501.786 21.0977 502.219 21.281C502.621 21.4539 503.073 21.4848 503.503 21.4205C503.901 21.3617 504.29 21.1689 504.549 20.8566Z" fill="white"/>
<path d="M434.643 8.79492H442.938C442.938 11.5599 442.938 14.3248 442.938 17.0897H434.643V8.79492Z" fill="#F25022"/>
<path d="M443.784 8.79492H452.079C452.079 11.5599 452.079 14.3248 452.079 17.0897H443.785C443.785 14.3248 443.785 11.5599 443.785 8.79492H443.784Z" fill="#80BA01"/>
<path d="M434.643 17.9355C437.408 17.9355 440.173 17.9355 442.938 17.9355C442.938 20.7005 442.938 23.4653 442.938 26.2299H434.643V17.9355Z" fill="#02A4EF"/>
<path d="M443.785 17.9395C446.549 17.9395 449.314 17.9395 452.079 17.9395V26.2343H443.784C443.784 23.4693 443.784 20.7046 443.784 17.9399L443.785 17.9395Z" fill="#FFB902"/>
<path d="M310.705 11.3047V18.7051H307.005V15.0044H303.307V11.3047H310.705Z" fill="#2C9382"/>
<path d="M307.003 18.7066V22.4053H299.604V15.0059H303.305V18.7066H307.003Z" fill="white"/>
<path d="M307.006 22.4043H310.706V26.105H307.006V22.4043Z" fill="#F25E30"/>
<path d="M320.552 26.0678V22.357C320.197 22.8564 319.455 23.1795 318.454 23.1795C316.163 23.1795 314.486 21.4204 314.486 18.9682C314.486 16.5803 316.066 14.7896 318.358 14.7896C319.778 14.7896 320.44 15.4347 320.618 15.7741V14.9832H322.962V26.0678H320.552ZM318.777 20.9892C319.729 20.9892 320.584 20.3278 320.584 18.9886C320.584 17.6494 319.729 17.0043 318.777 17.0043C317.825 17.0043 316.97 17.6494 316.97 18.9886C316.97 20.3074 317.825 20.9892 318.777 20.9892ZM330.12 22.1949C329.701 22.889 328.781 23.1795 327.974 23.1795C326.022 23.1795 324.925 21.7597 324.925 20.0496V14.9832H327.377V19.5328C327.377 20.3074 327.797 20.921 328.668 20.921C329.491 20.921 330.008 20.3563 330.008 19.5492V14.9832H332.46V21.5661C332.459 22.0459 332.486 22.5254 332.54 23.0021H330.185C330.144 22.7349 330.123 22.4652 330.12 22.1949ZM334.526 23.0021V14.9832H336.978V23.0021H334.526ZM340.881 19.0008C340.881 20.2758 341.737 20.9892 342.755 20.9892C343.706 20.9892 344.238 20.392 344.416 19.7958L346.577 20.4572C346.223 21.8606 344.9 23.2477 342.755 23.2477C340.367 23.2477 338.446 21.4897 338.446 19.0049C338.446 16.5038 340.318 14.7447 342.673 14.7447C344.884 14.7447 346.175 16.1003 346.53 17.5363L344.335 18.1977C344.158 17.5862 343.674 17.0043 342.722 17.0043C341.706 17.0002 340.881 17.7095 340.881 19.0008ZM352.919 18.3557L356.114 23.0021H353.111L351.224 20.179L350.433 21.0341V23.0021H347.982V11.3203H350.434V17.6779L352.871 14.9832H356.05L352.919 18.3557ZM357.179 23.0021V11.3203H359.583V15.7415C359.923 15.2411 360.806 14.7896 361.907 14.7896C364.23 14.7896 365.634 16.564 365.634 18.9682C365.634 21.4204 364.052 23.1795 361.81 23.1795C360.745 23.1795 359.923 22.7117 359.551 22.0981V23.0021H357.179ZM361.374 17.0002C360.422 17.0002 359.551 17.629 359.551 18.9845C359.551 20.3095 360.422 20.9852 361.374 20.9852C362.326 20.9852 363.181 20.3237 363.181 18.9845C363.181 17.626 362.326 17.0002 361.374 17.0002ZM369.011 18.371L370.898 18.0805C371.333 18.0163 371.479 17.8064 371.479 17.5322C371.479 17.0644 371.071 16.6608 370.301 16.6608C369.446 16.6608 368.976 17.2417 368.93 17.839L366.8 17.4038C366.902 16.2582 367.962 14.7407 370.317 14.7407C372.915 14.7407 373.867 16.193 373.867 17.839V21.7597C373.868 22.1759 373.902 22.5914 373.969 23.0021H371.749C371.687 22.7049 371.66 22.4016 371.669 22.0981C371.253 22.7759 370.474 23.2314 369.409 23.2314C367.651 23.2314 366.635 22.0696 366.635 20.7946C366.635 19.3718 367.686 18.5646 369.011 18.371ZM371.479 19.8559V19.5012L369.958 19.7428C369.442 19.8233 369.054 20.0659 369.054 20.6305C369.054 21.0494 369.329 21.453 370.006 21.453C370.733 21.453 371.475 21.0983 371.475 19.8559H371.479ZM377.252 20.3563C377.283 20.9047 377.671 21.4367 378.509 21.4367C379.139 21.4367 379.446 21.0983 379.446 20.7436C379.446 20.4532 379.252 20.2106 378.655 20.0812L377.738 19.8773C376.028 19.5063 375.35 18.5432 375.35 17.4089C375.35 15.9402 376.64 14.7458 378.431 14.7458C380.755 14.7458 381.562 16.1981 381.642 17.1337L379.61 17.4996C379.546 16.9676 379.202 16.5161 378.464 16.5161C377.997 16.5161 377.593 16.7902 377.593 17.2101C377.593 17.5485 377.867 17.7421 378.223 17.8064L379.287 18.0163C380.946 18.3557 381.75 19.3586 381.75 20.5337C381.75 21.9045 380.701 23.2437 378.555 23.2437C376.038 23.2437 375.232 21.613 375.166 20.7273L377.252 20.3563ZM390.53 20.6947C390.143 22.0818 388.868 23.2426 386.836 23.2426C384.625 23.2426 382.657 21.6619 382.657 18.9672C382.657 16.3856 384.577 14.7397 386.66 14.7397C389.143 14.7397 390.676 16.2684 390.676 18.8541C390.679 19.1077 390.663 19.3611 390.628 19.6123H385.044C385.093 20.5163 385.916 21.1615 386.868 21.1615C387.755 21.1615 388.256 20.7426 388.481 20.1128L390.53 20.6947ZM388.304 18.0336C388.272 17.4221 387.852 16.6781 386.69 16.6781C385.658 16.6781 385.141 17.4364 385.093 18.0336H388.304ZM334.534 11.3203H336.976V13.7623H334.534V11.3203Z" fill="white"/>
<path d="M92.9022 20.2413C92.9742 20.4653 92.9811 20.7052 92.9221 20.9331C92.8435 21.2475 92.6316 21.562 92.0097 21.562C91.4245 21.562 91.0659 21.2255 91.0659 20.7161V19.8105H88.5615V20.5306C88.5615 22.6153 90.2028 23.2432 91.9583 23.2432C93.651 23.2432 95.0405 22.6678 95.2629 21.1092C95.3458 20.6003 95.3419 20.0811 95.2513 19.5736C95.024 18.4466 93.7541 17.775 92.6663 17.1996C91.8622 16.7743 91.1575 16.4016 91.047 15.9365C91.0088 15.776 91.0045 15.6093 91.0344 15.447C91.1015 15.1473 91.306 14.8181 91.8891 14.8181C92.4355 14.8181 92.7575 15.1546 92.7575 15.665V16.2426H95.0919V15.5875C95.0919 13.553 93.2619 13.2344 91.9384 13.2344C90.2783 13.2344 88.9202 13.7836 88.6706 15.3087C88.5954 15.7254 88.6032 16.1528 88.6937 16.5665C88.9239 17.6584 90.109 18.3069 91.1719 18.8886C91.968 19.3242 92.6956 19.7224 92.9022 20.2413Z" fill="white"/>
<path d="M100.638 14.399L99.3622 22.8733H96.8337L98.5672 13.5311H102.725L104.45 22.8733H101.937L100.691 14.399H100.638Z" fill="white"/>
<path d="M142.694 20.8649L142.566 13.532H144.882V22.7767H141.551L139.245 15.1923H139.194L139.323 22.7767H137.024V13.532H140.494L142.641 20.8649H142.694Z" fill="white"/>
<path d="M112.69 13.532L111.536 20.6741H111.484L110.333 13.532H106.52L106.314 22.8731H108.654L108.712 14.4753H108.764L110.325 22.8731H112.698L114.259 14.4785L114.31 14.4753L114.368 22.8731H116.708L116.502 13.532H112.69Z" fill="white"/>
<path d="M123.308 20.906C123.368 20.6806 123.363 20.4426 123.291 20.2205L123.29 20.2194C123.085 19.7063 122.365 19.3123 121.576 18.8814C120.524 18.3062 119.352 17.6651 119.123 16.5865C119.033 16.176 119.025 15.7517 119.1 15.3382C119.346 13.8288 120.691 13.2849 122.334 13.2849C123.646 13.2849 125.457 13.6014 125.457 15.6149V16.2648H123.149V15.6925C123.149 15.1873 122.833 14.8539 122.288 14.8539C121.712 14.8539 121.509 15.1768 121.443 15.4744C121.413 15.6352 121.417 15.8004 121.454 15.9597C121.565 16.4192 122.262 16.7881 123.058 17.2088C124.135 17.7785 125.393 18.4434 125.617 19.557C125.706 20.0584 125.709 20.5712 125.626 21.0737C125.407 22.6187 124.033 23.1899 122.355 23.1899C120.618 23.1899 118.992 22.5663 118.992 20.5035V19.7897H121.477V20.6859C121.477 21.1921 121.828 21.5244 122.406 21.5244C123.021 21.5244 123.233 21.212 123.308 20.906Z" fill="white"/>
<path d="M131.135 21.4747C131.787 21.4747 131.987 21.0282 132.033 20.7966C132.052 20.6787 132.059 20.5594 132.055 20.4402V13.5329H134.419V20.2295C134.419 20.4004 134.405 20.7536 134.398 20.8437C134.233 22.5868 132.853 23.1497 131.135 23.1497C129.418 23.1497 128.04 22.5847 127.875 20.8437C127.865 20.7504 127.849 20.4004 127.854 20.2295V13.5329H130.219V20.4402C130.213 20.5594 130.22 20.6789 130.24 20.7966C130.286 21.0282 130.487 21.4747 131.135 21.4747Z" fill="white"/>
<path d="M151.588 20.6995C151.546 20.9489 151.308 21.3787 150.631 21.3787V21.3797C149.955 21.3797 149.719 20.95 149.675 20.7005C149.659 20.5831 149.652 20.4647 149.654 20.3462V16.0782C149.652 15.9302 149.664 15.7823 149.692 15.6369C149.744 15.4063 149.943 14.9598 150.623 14.9598C151.338 14.9598 151.515 15.4273 151.556 15.6369C151.576 15.7543 151.586 15.8731 151.588 15.9922V16.5163H153.941V16.2018C153.946 15.9962 153.94 15.7904 153.921 15.5855C153.749 13.8351 152.3 13.2796 150.641 13.2796C148.982 13.2796 147.569 13.8393 147.359 15.5855C147.341 15.7427 147.319 16.0341 147.319 16.2018V20.1366C147.32 20.3422 147.332 20.5475 147.354 20.7519C147.509 22.4509 148.986 23.0578 150.642 23.0578C152.298 23.0578 153.773 22.453 153.927 20.7519C153.956 20.4406 153.962 20.3116 153.962 20.1366V17.6273H150.651V18.9899H151.609V20.3452C151.611 20.4636 151.604 20.5821 151.588 20.6995Z" fill="white"/>
<path d="M141.082 31.7433C141.268 32.0146 141.526 32.2284 141.828 32.3606C142.124 32.4969 142.446 32.5684 142.771 32.5703C142.936 32.5714 143.099 32.5496 143.257 32.5053C143.403 32.4666 143.54 32.4004 143.661 32.3103C143.778 32.2173 143.872 32.0981 143.935 31.9623C144.007 31.8025 144.043 31.6284 144.039 31.4529C144.043 31.2825 143.999 31.1144 143.912 30.9676C143.822 30.8214 143.706 30.6931 143.569 30.5892C143.416 30.4729 143.252 30.3728 143.079 30.2905C142.896 30.2039 142.706 30.1172 142.509 30.0306C142.286 29.9341 142.067 29.8335 141.848 29.7329C141.637 29.6366 141.441 29.5125 141.263 29.364C141.096 29.2231 140.954 29.0543 140.844 28.865C140.73 28.6507 140.675 28.4104 140.682 28.168C140.675 27.9213 140.729 27.6766 140.839 27.4554C140.949 27.2343 141.111 27.0435 141.312 26.8997C141.51 26.7566 141.733 26.6501 141.969 26.5853C142.22 26.5154 142.479 26.4802 142.739 26.4805C143.147 26.4794 143.551 26.5625 143.925 26.7247C144.302 26.8864 144.623 27.1563 144.847 27.5003L144.249 27.9699C144.076 27.7331 143.853 27.5373 143.596 27.3966C143.331 27.2495 143.032 27.1737 142.728 27.1765C142.336 27.1765 142.036 27.261 141.827 27.4301C141.723 27.5138 141.641 27.6204 141.587 27.7414C141.532 27.8624 141.506 27.9945 141.512 28.1271C141.507 28.2749 141.546 28.4207 141.624 28.5464C141.708 28.6682 141.815 28.7728 141.939 28.8546C142.093 28.9572 142.255 29.0473 142.423 29.1239C142.613 29.212 142.826 29.3094 143.061 29.4132C143.296 29.517 143.502 29.6228 143.718 29.7371C143.926 29.8425 144.121 29.9723 144.297 30.1239C144.467 30.2711 144.606 30.4489 144.71 30.6479C144.819 30.8741 144.873 31.1232 144.866 31.3743C144.874 31.6707 144.815 31.9652 144.694 32.2359C144.587 32.4682 144.428 32.6729 144.229 32.8344C144.027 32.994 143.795 33.1106 143.546 33.1771C143.276 33.2497 142.998 33.285 142.718 33.282C142.495 33.282 142.273 33.2574 142.055 33.2086C141.839 33.1609 141.628 33.0907 141.426 32.999C141.229 32.9096 141.044 32.7959 140.875 32.6604C140.712 32.532 140.57 32.3781 140.456 32.2045L141.082 31.7433Z" fill="white"/>
<path d="M107.362 31.7433C107.549 32.0144 107.807 32.2282 108.108 32.3606C108.404 32.4971 108.726 32.5686 109.052 32.5703C109.216 32.5714 109.379 32.5495 109.537 32.5053C109.683 32.4672 109.819 32.401 109.939 32.3103C110.057 32.2177 110.151 32.0984 110.214 31.9624C110.286 31.8025 110.322 31.6284 110.319 31.4529C110.323 31.2824 110.278 31.1142 110.191 30.9677C110.102 30.8211 109.986 30.6928 109.849 30.5893C109.696 30.4727 109.531 30.3726 109.357 30.2905C109.175 30.2035 108.985 30.1165 108.79 30.0306C108.567 29.9342 108.346 29.8335 108.126 29.7329C107.916 29.6362 107.72 29.5121 107.543 29.364C107.375 29.2234 107.233 29.0546 107.123 28.8651C107.01 28.6507 106.954 28.4105 106.962 28.168C106.957 27.9131 107.016 27.6609 107.133 27.4343C107.244 27.2251 107.402 27.0441 107.594 26.905C107.793 26.7619 108.015 26.6554 108.252 26.5906C108.502 26.5208 108.761 26.4855 109.021 26.4857C109.429 26.4848 109.833 26.5679 110.208 26.73C110.585 26.892 110.905 27.1618 111.129 27.5056L110.532 27.9752C110.359 27.7386 110.137 27.5428 109.88 27.4018C109.615 27.2551 109.316 27.1793 109.012 27.1817C108.619 27.1817 108.319 27.2666 108.109 27.4354C108.006 27.5189 107.924 27.6255 107.869 27.7465C107.814 27.8676 107.789 27.9997 107.794 28.1324C107.789 28.2802 107.828 28.4262 107.907 28.5517C107.991 28.6737 108.097 28.7784 108.221 28.8598C108.375 28.9623 108.537 29.0524 108.706 29.1292C108.896 29.2172 109.108 29.3147 109.343 29.4185C109.578 29.5222 109.785 29.6281 110.001 29.7424C110.209 29.8472 110.403 29.9771 110.579 30.1291C110.748 30.2763 110.889 30.4541 110.992 30.6532C111.101 30.8795 111.155 31.1285 111.148 31.3796C111.156 31.676 111.097 31.9704 110.976 32.2412C110.87 32.4742 110.71 32.6792 110.511 32.8397C110.309 32.9996 110.077 33.1163 109.829 33.1824C109.559 33.2551 109.28 33.2904 109 33.2872C108.778 33.2874 108.556 33.2628 108.339 33.2138C108.122 33.1661 107.911 33.0958 107.709 33.0042C107.513 32.9149 107.329 32.8011 107.161 32.6657C106.997 32.5375 106.856 32.3835 106.742 32.2097L107.362 31.7433Z" fill="white"/>
<path fill-rule="evenodd" clip-rule="evenodd" d="M88.9016 26.6064V33.1459H91.2675C91.5357 33.1474 91.8022 33.1041 92.0562 33.018C92.2876 32.9393 92.5014 32.8161 92.6854 32.6553C92.8649 32.4967 93.008 32.3011 93.1049 32.082C93.2098 31.8425 93.2627 31.5835 93.2601 31.3221C93.2678 31.0653 93.2146 30.8103 93.1049 30.5779C93.0103 30.3871 92.8766 30.2182 92.7127 30.0821C92.5543 29.9531 92.3728 29.8553 92.1778 29.7939C91.9866 29.7324 91.7894 29.6913 91.5895 29.6712C91.9452 29.6242 92.2793 29.4737 92.5501 29.2384C92.7987 29.013 92.9235 28.6912 92.9235 28.272C92.933 28.0427 92.8902 27.8142 92.7983 27.6039C92.7063 27.3936 92.5677 27.207 92.3928 27.0582C92.0404 26.757 91.5273 26.6064 90.8533 26.6064H88.9016ZM90.7862 29.3809H89.6871V27.2825H90.8837C91.2787 27.2825 91.5811 27.3678 91.7908 27.5383C91.8951 27.6288 91.9771 27.742 92.0305 27.8692C92.084 27.9964 92.1075 28.1342 92.0992 28.272C92.1077 28.4263 92.0808 28.5805 92.0204 28.7227C91.9601 28.865 91.8679 28.9915 91.751 29.0927C91.5203 29.2845 91.1962 29.3809 90.7862 29.3809ZM91.1962 32.4688H89.6871V30.0612H90.8155C91.3441 30.0612 91.7447 30.166 92.0163 30.3756C92.2879 30.5852 92.4232 30.8997 92.4232 31.3189C92.4232 31.711 92.311 32.0002 92.0908 32.1868C91.8357 32.3843 91.5185 32.4842 91.1962 32.4688Z" fill="white"/>
<path d="M98.3728 30.8116V26.6064H97.5894V30.9594C97.5819 31.3047 97.644 31.648 97.7718 31.9688C97.8845 32.2435 98.0572 32.4895 98.2773 32.6889C98.4975 32.8852 98.756 33.0337 99.0366 33.1249C99.341 33.2253 99.6599 33.2753 99.9804 33.2727C100.294 33.2737 100.606 33.2238 100.903 33.1249C101.189 33.0317 101.454 32.8836 101.683 32.6889C101.912 32.4904 102.096 32.2448 102.222 31.9688C102.361 31.651 102.43 31.3065 102.423 30.9594V26.6064H101.637V30.8116C101.637 31.3923 101.495 31.8252 101.206 32.126C100.918 32.4268 100.511 32.5767 100 32.5767C99.4896 32.5767 99.0922 32.4226 98.8038 32.1113C98.5154 31.8 98.3728 31.3682 98.3728 30.8116Z" fill="white"/>
<path d="M116.274 26.6064V33.1448H117.06V26.6064H116.274Z" fill="white"/>
<path d="M122.466 33.1448V26.6064H123.26L126.556 31.4783V26.6064H127.33V33.1448H126.751L123.24 27.9586V33.1448H122.466Z" fill="white"/>
<path d="M132.466 26.6064V33.1448H136.517V32.4677H133.241V30.058H135.418V29.3799H133.251V27.2825H136.281V26.6064H132.466Z" fill="white"/>
<path d="M150.58 32.3606C150.279 32.2281 150.022 32.0143 149.836 31.7433L149.212 32.2097C149.325 32.3838 149.467 32.5378 149.631 32.6657C149.799 32.8013 149.983 32.9151 150.18 33.0042C150.382 33.0959 150.592 33.1661 150.809 33.2138C151.026 33.2627 151.248 33.2873 151.471 33.2872C151.751 33.2903 152.03 33.2551 152.3 33.1824C152.549 33.1163 152.781 32.9996 152.982 32.8397C153.181 32.6786 153.34 32.4738 153.448 32.2412C153.569 31.9704 153.627 31.676 153.62 31.3796C153.626 31.1284 153.572 30.8793 153.462 30.6532C153.36 30.4536 153.22 30.2757 153.05 30.1291C152.873 29.9773 152.679 29.8475 152.471 29.7424C152.256 29.6281 152.036 29.5233 151.816 29.4185C151.579 29.3147 151.367 29.2172 151.177 29.1292C151.009 29.0526 150.847 28.9625 150.693 28.8598C150.568 28.7787 150.462 28.674 150.378 28.5517C150.3 28.4262 150.261 28.2802 150.266 28.1324C150.26 27.9998 150.286 27.8677 150.34 27.7466C150.395 27.6256 150.477 27.519 150.58 27.4354C150.79 27.2663 151.091 27.1817 151.483 27.1817C151.787 27.179 152.085 27.2549 152.351 27.4018C152.608 27.5424 152.831 27.7382 153.003 27.9752L153.602 27.5056C153.378 27.1616 153.057 26.8917 152.68 26.73C152.306 26.5678 151.902 26.4846 151.494 26.4857C151.233 26.4855 150.974 26.5208 150.723 26.5906C150.487 26.6556 150.264 26.7621 150.065 26.905C149.874 27.0442 149.717 27.2252 149.606 27.4343C149.488 27.6607 149.429 27.9129 149.433 28.168C149.426 28.4106 149.482 28.6508 149.596 28.8651C149.705 29.0546 149.847 29.2234 150.015 29.364C150.192 29.5123 150.388 29.6364 150.598 29.7329C150.817 29.8335 151.039 29.9342 151.261 30.0306C151.457 30.1172 151.647 30.2039 151.83 30.2905C152.004 30.3728 152.168 30.4729 152.32 30.5893C152.457 30.6931 152.574 30.8214 152.664 30.9677C152.75 31.1147 152.794 31.2826 152.791 31.4529C152.795 31.6285 152.759 31.8026 152.686 31.9623C152.623 32.0982 152.529 32.2173 152.411 32.3103C152.291 32.4006 152.154 32.4668 152.009 32.5053C151.851 32.5495 151.688 32.5714 151.524 32.5703C151.198 32.5681 150.876 32.4966 150.58 32.3606Z" fill="white"/>
<path fill-rule="evenodd" clip-rule="evenodd" d="M223.813 6.67719C224.854 5.57605 226.142 4.73744 227.57 4.23017C228.997 3.72291 230.525 3.56145 232.028 3.75904C233.53 3.95663 234.964 4.50764 236.212 5.36686C237.461 6.22608 238.487 7.36901 239.208 8.70188C240.716 8.03077 242.349 7.68579 244 7.68953C247.113 7.75934 250.075 9.04496 252.252 11.2712C254.429 13.4974 255.648 16.4874 255.648 19.6011C255.648 22.7147 254.429 25.7047 252.252 27.9309C250.075 30.1572 247.113 31.4428 244 31.5126C243.22 31.5141 242.441 31.4358 241.676 31.279C240.601 33.2015 238.832 34.6403 236.73 35.3007C234.629 35.9611 232.354 35.7931 230.373 34.8312C229.601 36.6481 228.302 38.1914 226.643 39.2608C224.984 40.3303 223.042 40.8765 221.069 40.8288C219.096 40.781 217.182 40.1414 215.577 38.9929C213.972 37.8444 212.749 36.24 212.067 34.3879C211.448 34.5198 210.818 34.586 210.186 34.5856C208.157 34.5716 206.189 33.8914 204.584 32.6496C202.98 31.4078 201.828 29.6731 201.306 27.7126C200.784 25.7522 200.921 23.6744 201.695 21.7991C202.469 19.9238 203.838 18.3549 205.591 17.3338C204.574 14.9512 204.461 12.2793 205.273 9.81937C206.086 7.35945 207.768 5.28055 210.005 3.97272C212.241 2.6649 214.878 2.21803 217.42 2.71595C219.962 3.21387 222.236 4.62237 223.813 6.67719Z" fill="#00A1E0"/>
<path fill-rule="evenodd" clip-rule="evenodd" d="M208.95 22.3607L209.171 21.7617C209.174 21.7459 209.182 21.7313 209.192 21.7193C209.203 21.7073 209.217 21.6984 209.232 21.6936C209.247 21.6887 209.264 21.688 209.279 21.6915C209.295 21.6951 209.309 21.7027 209.321 21.7137L209.507 21.8276C209.94 22.104 210.443 22.2496 210.956 22.2469C211.442 22.2469 211.747 21.9893 211.747 21.6478C211.747 21.2705 211.28 21.1267 210.741 20.959L210.621 20.923C209.878 20.7134 209.087 20.4079 209.087 19.4674C209.094 19.2506 209.145 19.0375 209.237 18.8415C209.33 18.6455 209.463 18.471 209.627 18.329C209.791 18.187 209.982 18.0807 210.19 18.0168C210.397 17.9529 210.615 17.9329 210.831 17.9579H210.944C211.511 17.9581 212.067 18.1091 212.556 18.3952C212.578 18.4067 212.595 18.4255 212.605 18.4484C212.615 18.4713 212.617 18.497 212.61 18.521L212.382 19.12C212.34 19.2278 212.232 19.1559 212.232 19.1559C211.791 18.928 211.303 18.803 210.807 18.7905C210.369 18.7905 210.088 19.0241 210.088 19.3356C210.088 19.701 210.567 19.8568 211.124 20.0365L211.22 20.0664C211.957 20.3 212.747 20.6235 212.747 21.5161C212.747 22.4745 212.047 23.0735 210.95 23.0735C210.38 23.0886 209.814 22.9565 209.309 22.6901C209.207 22.6302 209.099 22.5763 208.998 22.5044C208.998 22.5044 208.944 22.4685 208.998 22.3787L208.95 22.3607ZM225.399 22.3607L225.62 21.7617C225.625 21.7469 225.633 21.7335 225.644 21.7225C225.655 21.7115 225.668 21.7033 225.683 21.6986C225.698 21.6939 225.713 21.6928 225.728 21.6955C225.744 21.6981 225.758 21.7044 225.77 21.7137L225.956 21.8276C226.38 22.0989 226.872 22.2443 227.376 22.2469C227.867 22.2469 228.166 21.9893 228.166 21.6478C228.166 21.2705 227.705 21.1267 227.16 20.959L227.04 20.923C226.303 20.7134 225.507 20.4079 225.507 19.4674C225.507 18.5749 226.225 17.9579 227.256 17.9579H227.376C227.942 17.959 228.498 18.1099 228.987 18.3952C229.009 18.4067 229.027 18.4255 229.036 18.4484C229.046 18.4713 229.048 18.497 229.041 18.521C229.041 18.5749 228.831 19.078 228.813 19.12C228.795 19.1619 228.663 19.1559 228.663 19.1559C228.22 18.9279 227.73 18.803 227.232 18.7905C226.795 18.7905 226.519 19.0241 226.519 19.3356C226.519 19.701 226.998 19.8568 227.555 20.0365L227.651 20.0664C228.388 20.3 229.179 20.6235 229.179 21.5161C229.179 22.4745 228.478 23.0735 227.382 23.0735C226.811 23.0899 226.245 22.9578 225.74 22.6901C225.638 22.6302 225.531 22.5763 225.429 22.5044C225.327 22.4326 225.363 22.4505 225.399 22.3607ZM237.559 19.4674C237.743 20.1257 237.743 20.8218 237.559 21.4801C237.476 21.7785 237.331 22.056 237.134 22.2948C236.937 22.5272 236.692 22.7133 236.415 22.8399C235.77 23.1036 235.047 23.1036 234.402 22.8399C234.125 22.7133 233.88 22.5272 233.683 22.2948C233.486 22.056 233.341 21.7785 233.258 21.4801C233.161 21.1456 233.116 20.798 233.126 20.4498C233.122 20.1094 233.168 19.7701 233.264 19.4434C233.35 19.1535 233.495 18.8843 233.689 18.6527C233.885 18.419 234.13 18.2326 234.408 18.1076C234.727 17.9732 235.069 17.9039 235.414 17.9039C235.76 17.9039 236.102 17.9732 236.421 18.1076C236.698 18.2335 236.944 18.4197 237.14 18.6527C237.335 18.8919 237.478 19.1695 237.559 19.4674ZM236.63 20.4498C236.655 20.0065 236.551 19.5657 236.331 19.1799C236.23 19.0332 236.092 18.9156 235.931 18.8388C235.77 18.7621 235.592 18.7289 235.414 18.7426C235.238 18.7288 235.06 18.7619 234.9 18.8387C234.74 18.9155 234.604 19.0332 234.504 19.1799C234.287 19.5664 234.185 20.0071 234.21 20.4498C234.184 20.8944 234.286 21.3373 234.504 21.7257C234.612 21.8606 234.748 21.9694 234.904 22.0442C235.059 22.1191 235.23 22.1579 235.402 22.1579C235.575 22.1579 235.745 22.1191 235.901 22.0442C236.057 21.9694 236.193 21.8606 236.301 21.7257C236.535 21.3423 236.649 20.8983 236.63 20.4498ZM245.268 22.0252L245.496 22.6602C245.505 22.6803 245.506 22.703 245.5 22.7239C245.493 22.7449 245.479 22.7627 245.46 22.774C245.034 22.9312 244.584 23.0124 244.13 23.0136C243.79 23.0354 243.448 22.9841 243.129 22.8632C242.81 22.7424 242.52 22.5547 242.279 22.3128C241.853 21.7887 241.639 21.1239 241.68 20.4498C241.678 20.1063 241.731 19.7646 241.836 19.4375C241.926 19.1497 242.073 18.8829 242.267 18.6527C242.477 18.4192 242.734 18.2334 243.022 18.1076C243.352 17.9684 243.707 17.8991 244.064 17.904C244.301 17.9027 244.537 17.9187 244.771 17.9519C244.975 17.9895 245.175 18.0436 245.37 18.1136C245.382 18.1154 245.393 18.1199 245.403 18.1266C245.413 18.1334 245.421 18.1424 245.427 18.1528C245.432 18.1632 245.436 18.1748 245.436 18.1867C245.437 18.1986 245.435 18.2105 245.43 18.2214L245.196 18.8624C245.161 18.9582 245.089 18.9283 245.089 18.9283C244.785 18.8285 244.468 18.778 244.148 18.7785C243.951 18.7647 243.753 18.7989 243.571 18.8782C243.39 18.9575 243.23 19.0795 243.106 19.2338C242.853 19.5962 242.726 20.0321 242.746 20.4738C242.71 20.9369 242.853 21.3963 243.148 21.7557C243.29 21.8921 243.458 21.9982 243.642 22.0672C243.827 22.1362 244.023 22.1668 244.22 22.157C244.392 22.158 244.565 22.146 244.735 22.1211C244.885 22.0927 245.031 22.0506 245.173 21.9953C245.192 21.9924 245.212 21.9961 245.23 22.0059C245.247 22.0156 245.261 22.0309 245.268 22.0492V22.0252ZM250.061 19.2697C250.18 19.723 250.206 20.1957 250.138 20.6595C250.133 20.6818 250.121 20.702 250.104 20.7171C250.087 20.7321 250.065 20.7413 250.043 20.7433H246.868C246.848 20.9396 246.873 21.1379 246.941 21.3232C247.008 21.5086 247.117 21.6761 247.259 21.8133C247.401 21.9505 247.572 22.0538 247.759 22.1154C247.947 22.177 248.146 22.1953 248.341 22.169C248.788 22.186 249.234 22.1063 249.647 21.9354C249.659 21.9306 249.671 21.9282 249.683 21.9284C249.695 21.9286 249.708 21.9312 249.719 21.9363C249.73 21.9414 249.74 21.9487 249.748 21.9578C249.757 21.9669 249.763 21.9776 249.767 21.9893L249.977 22.5883C250.019 22.6842 249.977 22.7201 249.977 22.7381C249.478 22.9757 248.929 23.0849 248.377 23.0555C247.976 23.061 247.578 22.9899 247.203 22.8459C246.901 22.7334 246.628 22.5531 246.406 22.3187C246.194 22.0896 246.036 21.8151 245.945 21.5161C245.844 21.1884 245.795 20.8467 245.801 20.5037C245.799 20.161 245.847 19.8198 245.945 19.4914C246.027 19.1852 246.172 18.8995 246.371 18.6527C246.57 18.415 246.819 18.2247 247.101 18.0957C247.432 17.9519 247.79 17.8824 248.15 17.892C248.461 17.8908 248.769 17.954 249.054 18.0777C249.284 18.1855 249.488 18.3406 249.653 18.5329C249.843 18.7494 249.982 19.0051 250.061 19.2817V19.2697ZM246.904 19.9287H249.168C249.152 19.6722 249.074 19.4236 248.94 19.2038C248.846 19.0546 248.713 18.9333 248.557 18.8522C248.4 18.7711 248.224 18.7333 248.048 18.7426C247.87 18.733 247.692 18.7706 247.534 18.8516C247.375 18.9326 247.24 19.0541 247.143 19.2038C247.003 19.4312 246.915 19.687 246.886 19.9526L246.904 19.9287ZM224.632 19.2697C224.758 19.7135 224.79 20.1785 224.728 20.6355C224.725 20.6578 224.715 20.6784 224.698 20.6937C224.682 20.7091 224.66 20.7181 224.638 20.7194H221.463C221.444 21.1058 221.578 21.4843 221.835 21.7736C221.982 21.9048 222.153 22.0056 222.339 22.0704C222.525 22.1351 222.722 22.1625 222.919 22.151C223.366 22.168 223.811 22.0883 224.225 21.9174C224.236 21.9126 224.248 21.9103 224.261 21.9104C224.273 21.9106 224.285 21.9133 224.296 21.9183C224.308 21.9234 224.318 21.9307 224.326 21.9398C224.334 21.9489 224.341 21.9597 224.345 21.9713L224.548 22.5703C224.59 22.6662 224.548 22.7021 224.548 22.7201C224.05 22.957 223.5 23.0662 222.949 23.0376C222.549 23.0481 222.151 22.983 221.775 22.8459C221.475 22.7372 221.205 22.5597 220.987 22.3277C220.768 22.0957 220.607 21.8156 220.517 21.5101C220.329 20.8482 220.329 20.1472 220.517 19.4854C220.603 19.1829 220.748 18.9001 220.942 18.6527C221.141 18.415 221.391 18.2247 221.673 18.0957C222.003 17.9524 222.361 17.8829 222.721 17.892C223.034 17.8904 223.344 17.9537 223.632 18.0777C223.86 18.1877 224.064 18.3425 224.231 18.5329C224.419 18.7544 224.558 19.0139 224.638 19.2937L224.632 19.2697ZM221.475 19.9287H223.781C223.773 19.6651 223.699 19.4078 223.566 19.1799C223.472 19.0312 223.341 18.91 223.185 18.829C223.029 18.7479 222.855 18.7098 222.679 18.7186C222.5 18.7092 222.322 18.7468 222.162 18.8278C222.003 18.9087 221.867 19.0301 221.769 19.1799C221.633 19.4095 221.545 19.6642 221.511 19.9287H221.475ZM215.88 19.7789L216.402 19.8388V19.731C216.402 19.3057 216.312 19.132 216.144 18.9762C215.922 18.8301 215.66 18.7568 215.395 18.7666C214.916 18.7721 214.444 18.8825 214.011 19.09H213.958C213.948 19.0938 213.937 19.0956 213.927 19.0952C213.916 19.0948 213.906 19.0923 213.896 19.0878C213.887 19.0833 213.878 19.077 213.871 19.0691C213.864 19.0613 213.859 19.0521 213.856 19.0421L213.628 18.4431C213.616 18.4222 213.613 18.3977 213.619 18.3744C213.624 18.3511 213.638 18.3307 213.658 18.3173C213.961 18.1431 214.291 18.0215 214.634 17.9579C214.916 17.9109 215.2 17.8849 215.485 17.88C216.007 17.8454 216.524 18.0007 216.941 18.3173C217.121 18.5009 217.26 18.721 217.347 18.9628C217.435 19.2047 217.47 19.4625 217.45 19.719V22.6242C217.452 22.647 217.446 22.6698 217.433 22.6884C217.42 22.7071 217.4 22.7205 217.378 22.7261L217.156 22.786C217.048 22.786 216.665 22.8878 216.354 22.9417C216.035 22.9946 215.712 23.0207 215.389 23.0196C215.107 23.0215 214.826 22.9934 214.551 22.9357C214.318 22.8883 214.097 22.7924 213.904 22.6542C213.726 22.5265 213.583 22.3553 213.49 22.157C213.386 21.9298 213.335 21.682 213.341 21.4322C213.336 21.1779 213.396 20.9266 213.514 20.7014C213.624 20.4935 213.782 20.3148 213.975 20.1802C214.175 20.0384 214.398 19.933 214.634 19.8688C214.884 19.8115 215.139 19.7853 215.395 19.7909C215.593 19.7909 215.761 19.7909 215.892 19.7909L215.88 19.7789ZM214.616 22.0073C214.895 22.1755 215.223 22.2411 215.545 22.193C215.833 22.1763 216.119 22.1383 216.402 22.0791V20.6595C216.116 20.6168 215.828 20.5927 215.539 20.5876C215.216 20.5562 214.893 20.6365 214.622 20.8152C214.529 20.8835 214.453 20.9739 214.403 21.0785C214.353 21.183 214.33 21.2984 214.335 21.4142C214.328 21.5582 214.361 21.7013 214.431 21.8276C214.478 21.9096 214.543 21.9794 214.622 22.0312L214.616 22.0073ZM241.483 18.1436C241.483 18.2274 241.303 18.6647 241.243 18.8085C241.243 18.8624 241.189 18.9043 241.129 18.8923C241.015 18.8671 240.899 18.8531 240.782 18.8504C240.638 18.8517 240.495 18.8719 240.356 18.9103C240.208 18.9592 240.073 19.0411 239.961 19.1499C239.833 19.2812 239.738 19.4415 239.685 19.6172C239.608 19.8877 239.574 20.1686 239.584 20.4498V22.8459C239.584 22.8713 239.574 22.8957 239.556 22.9137C239.538 22.9316 239.513 22.9417 239.488 22.9417H238.655C238.63 22.9417 238.605 22.9316 238.587 22.9137C238.569 22.8957 238.559 22.8713 238.559 22.8459V18.1016C238.558 18.0893 238.56 18.077 238.564 18.0654C238.568 18.0538 238.575 18.0432 238.583 18.0342C238.592 18.0252 238.602 18.018 238.613 18.0132C238.625 18.0083 238.637 18.0058 238.649 18.0058H239.464C239.476 18.0058 239.488 18.0083 239.5 18.0132C239.511 18.018 239.521 18.0252 239.53 18.0342C239.538 18.0432 239.545 18.0538 239.549 18.0654C239.553 18.077 239.555 18.0893 239.554 18.1016V18.491C239.701 18.3204 239.886 18.1853 240.093 18.0957C240.35 17.9791 240.633 17.9335 240.913 17.9639C241.092 17.9747 241.269 18.0049 241.441 18.0537C241.452 18.0576 241.462 18.0638 241.47 18.0718C241.478 18.0798 241.485 18.0894 241.49 18.1001C241.494 18.1108 241.496 18.1223 241.496 18.1339C241.496 18.1455 241.493 18.157 241.489 18.1675L241.483 18.1436ZM233.659 15.9751C233.671 15.9769 233.682 15.9814 233.692 15.9881C233.702 15.9949 233.71 16.0039 233.716 16.0143C233.722 16.0247 233.725 16.0363 233.725 16.0482C233.726 16.0601 233.724 16.072 233.719 16.0829L233.474 16.7479C233.474 16.8018 233.474 16.8317 233.342 16.7958C233.203 16.7559 233.061 16.7338 232.917 16.7299C232.8 16.7283 232.685 16.7465 232.575 16.7838C232.475 16.8149 232.385 16.8705 232.312 16.9455C232.21 17.0398 232.132 17.1568 232.084 17.287C232.01 17.5199 231.954 17.7582 231.916 17.9998H232.935C233.018 17.9998 233.048 18.0417 233.036 18.1016L232.917 18.7666C232.914 18.7914 232.902 18.8144 232.883 18.8309C232.864 18.8475 232.84 18.8566 232.815 18.8564H231.766L231.054 22.9058C230.992 23.269 230.898 23.6259 230.772 23.972C230.687 24.232 230.55 24.4723 230.371 24.6789C230.211 24.8652 230.004 25.0058 229.772 25.0862C229.522 25.175 229.258 25.2176 228.993 25.212C228.838 25.2151 228.683 25.199 228.532 25.1641C228.431 25.1453 228.333 25.1172 228.238 25.0802C228.215 25.0698 228.197 25.0507 228.188 25.0272C228.179 25.0036 228.18 24.9775 228.19 24.9544L228.424 24.3075C228.434 24.286 228.452 24.2692 228.475 24.2604C228.497 24.2515 228.521 24.2512 228.544 24.2596C228.598 24.2829 228.654 24.3009 228.711 24.3135C228.797 24.3194 228.883 24.3194 228.969 24.3135C229.095 24.3151 229.22 24.2969 229.34 24.2596C229.46 24.2192 229.561 24.1388 229.628 24.0319C229.727 23.8948 229.803 23.7433 229.856 23.5827C229.935 23.3419 229.997 23.0956 230.041 22.8459L230.754 18.8744H230.053C229.969 18.8744 229.939 18.8324 229.951 18.7725L230.065 18.1136C230.069 18.0876 230.082 18.0639 230.102 18.0464C230.122 18.029 230.147 18.0188 230.173 18.0178H230.892L230.934 17.8021C230.992 17.2635 231.213 16.7555 231.569 16.3465C231.75 16.1809 231.963 16.0533 232.194 15.971C232.426 15.8887 232.671 15.8534 232.917 15.8673C233.06 15.8541 233.204 15.8541 233.348 15.8673C233.454 15.8952 233.558 15.9313 233.659 15.9751ZM219.48 22.8459C219.48 22.8713 219.47 22.8957 219.452 22.9137C219.434 22.9316 219.41 22.9417 219.385 22.9417H218.546C218.534 22.9418 218.522 22.9393 218.51 22.9344C218.499 22.9295 218.489 22.9223 218.48 22.9133C218.472 22.9043 218.465 22.8937 218.461 22.8821C218.457 22.8705 218.455 22.8582 218.456 22.8459V16.059C218.456 16.0346 218.465 16.0111 218.482 15.9932C218.499 15.9754 218.522 15.9647 218.546 15.9631H219.391C219.415 15.9647 219.438 15.9754 219.455 15.9932C219.471 16.0111 219.481 16.0346 219.48 16.059V22.8459Z" fill="white"/>
<path d="M13.0914 10.1926C13.2848 10.386 13.3934 10.6482 13.3934 10.9217V21.8539C13.3934 21.9893 13.3667 22.1234 13.3149 22.2485C13.2631 22.3736 13.1871 22.4872 13.0914 22.583C12.9956 22.6787 12.882 22.7547 12.7569 22.8065C12.6318 22.8583 12.4977 22.885 12.3623 22.885C12.2269 22.885 12.0928 22.8583 11.9677 22.8065C11.8426 22.7547 11.729 22.6787 11.6332 22.583C11.5375 22.4872 11.4615 22.3736 11.4097 22.2485C11.3579 22.1234 11.3312 21.9893 11.3312 21.8539V10.9217C11.3312 10.6482 11.4399 10.386 11.6332 10.1926C11.8266 9.99926 12.0889 9.89062 12.3623 9.89062C12.6358 9.89062 12.898 9.99926 13.0914 10.1926Z" fill="#00A3DF"/>
<path d="M7.72956 14.8075C7.72252 14.5386 7.61076 14.2831 7.41809 14.0954C7.22543 13.9078 6.9671 13.8027 6.69814 13.8027C6.42917 13.8027 6.17084 13.9078 5.97818 14.0954C5.78552 14.2831 5.67376 14.5386 5.66671 14.8075V19.8048C5.67376 20.0737 5.78552 20.3292 5.97818 20.5169C6.17084 20.7045 6.42917 20.8096 6.69814 20.8096C6.9671 20.8096 7.22543 20.7045 7.41809 20.5169C7.61076 20.3292 7.72252 20.0737 7.72956 19.8048V14.8075Z" fill="#00A3DF"/>
<path d="M1.75139 16.9292C1.94405 17.1169 2.05581 17.3724 2.06286 17.6413V19.8019C2.05581 20.0708 1.94405 20.3263 1.75139 20.514C1.55872 20.7017 1.30039 20.8067 1.03143 20.8067C0.762464 20.8067 0.504132 20.7017 0.31147 20.514C0.118809 20.3263 0.00704816 20.0708 0 19.8019V17.6413C0.00704816 17.3724 0.118809 17.1169 0.31147 16.9292C0.504132 16.7416 0.762464 16.6365 1.03143 16.6365C1.30039 16.6365 1.55872 16.7416 1.75139 16.9292Z" fill="#00A3DF"/>
<path d="M23.358 28.3586C23.3283 28.348 22.4503 28.1056 21.7346 28.1056C20.8998 28.1056 20.4491 28.3891 20.4491 28.7831C20.4491 29.2679 21.0332 29.4488 21.3773 29.5553L21.4008 29.5626L21.9741 29.7454C23.3205 30.1706 23.9363 31.0975 23.9363 32.0988C23.9363 34.1688 22.1165 34.8625 20.527 34.8625C19.7744 34.8552 19.024 34.78 18.2849 34.6379V32.7458C18.3031 32.7504 18.328 32.757 18.3591 32.7653C18.6417 32.8408 19.4296 33.0512 20.2471 33.0512C21.2817 33.0512 21.7565 32.7508 21.7565 32.2809C21.7565 31.8657 21.3448 31.6262 20.8353 31.4646C20.772 31.4435 20.6935 31.4182 20.6146 31.3928L20.6139 31.3925C20.5341 31.3668 20.454 31.341 20.3888 31.3193C19.2359 30.9551 18.2672 30.2748 18.2672 28.9099C18.2672 27.3708 19.4208 26.3354 21.3377 26.3354C22.0202 26.3445 22.6994 26.4327 23.3616 26.5983L23.358 28.3586Z" fill="#00A3DF"/>
<path d="M10.546 28.8455C10.011 28.554 9.41127 28.402 8.80204 28.4033C7.45562 28.4033 6.52376 29.3423 6.52376 30.6001C6.52376 31.8225 7.41594 32.7969 8.80204 32.7969C9.41059 32.797 10.0097 32.6465 10.546 32.359V34.5685C9.93139 34.7584 9.29225 34.8573 8.64897 34.8619C6.31683 34.8619 4.26815 33.2511 4.26815 30.5973C4.26815 28.1383 6.12267 26.3383 8.64897 26.3383C9.29241 26.3403 9.9319 26.4389 10.546 26.631V28.8455Z" fill="#00A3DF"/>
<path d="M30.4834 28.4033C31.0931 28.4018 31.6933 28.5539 32.2288 28.8455V26.631C31.6161 26.4391 30.978 26.3404 30.336 26.3383C27.8047 26.3383 25.9488 28.1383 25.9488 30.5973C25.9488 33.2511 27.9975 34.8619 30.336 34.8619C30.9778 34.8567 31.6155 34.7579 32.2288 34.5685V32.359C31.6921 32.6469 31.0924 32.7974 30.4834 32.7969C29.0987 32.7969 28.2058 31.8225 28.2058 30.6001C28.2058 29.3423 29.137 28.4033 30.4834 28.4033Z" fill="#00A3DF"/>
<path d="M13.4019 26.4866H15.4789V34.7196H13.4019V26.4866Z" fill="#00A3DF"/>
<path fill-rule="evenodd" clip-rule="evenodd" d="M38.7656 34.8648C41.2968 34.8648 43.1138 32.955 43.1138 30.6002C43.1138 28.2482 41.2976 26.3412 38.7656 26.3412C36.2336 26.3412 34.4181 28.2454 34.4181 30.6002C34.4181 32.955 36.2343 34.8648 38.7656 34.8648ZM36.6163 30.6002C36.6163 29.4068 37.5318 28.4353 38.7656 28.4353C39.9944 28.4353 40.9156 29.4005 40.9156 30.6002C40.9156 31.7999 39.9993 32.7686 38.7656 32.7686C37.5318 32.7686 36.6163 31.7935 36.6163 30.6002Z" fill="#00A3DF"/>
<path d="M19.0596 14.7982C19.0596 14.525 18.951 14.2629 18.7578 14.0696C18.5646 13.8764 18.3025 13.7679 18.0292 13.7679C17.756 13.7679 17.4939 13.8764 17.3006 14.0696C17.1074 14.2629 16.9989 14.525 16.9989 14.7982V19.7956C16.9989 20.0688 17.1074 20.3309 17.3006 20.5241C17.4939 20.7174 17.756 20.8259 18.0292 20.8259C18.3025 20.8259 18.5646 20.7174 18.7578 20.5241C18.951 20.3309 19.0596 20.0688 19.0596 19.7956V14.7982Z" fill="#00A3DF"/>
<path d="M24.6518 17.234C24.7011 17.3631 24.7239 17.5009 24.7188 17.639V19.7997C24.7239 19.9378 24.7011 20.0756 24.6518 20.2047C24.6025 20.3339 24.5276 20.4517 24.4317 20.5513C24.3358 20.6508 24.2208 20.73 24.0935 20.7841C23.9663 20.8382 23.8295 20.8661 23.6913 20.8661C23.553 20.8661 23.4162 20.8382 23.289 20.7841C23.1617 20.73 23.0467 20.6508 22.9508 20.5513C22.8549 20.4517 22.78 20.3339 22.7307 20.2047C22.6814 20.0756 22.6586 19.9378 22.6637 19.7997V17.639C22.6586 17.5009 22.6814 17.3631 22.7307 17.234C22.78 17.1048 22.8549 16.9869 22.9508 16.8874C23.0467 16.7878 23.1617 16.7086 23.289 16.6546C23.4162 16.6005 23.553 16.5726 23.6913 16.5726C23.8295 16.5726 23.9663 16.6005 24.0935 16.6546C24.2208 16.7086 24.3358 16.7878 24.4317 16.8874C24.5276 16.9869 24.6025 17.1048 24.6518 17.234Z" fill="#00A3DF"/>
<path d="M30.3895 14.8043C30.3968 14.6648 30.3757 14.5253 30.3273 14.3943C30.279 14.2632 30.2045 14.1434 30.1084 14.0421C30.0122 13.9408 29.8965 13.8601 29.7681 13.8049C29.6398 13.7498 29.5016 13.7214 29.3619 13.7214C29.2223 13.7214 29.0841 13.7498 28.9557 13.8049C28.8274 13.8601 28.7117 13.9408 28.6155 14.0421C28.5194 14.1434 28.4449 14.2632 28.3966 14.3943C28.3482 14.5253 28.3271 14.6648 28.3344 14.8043V19.8016C28.3271 19.9411 28.3482 20.0806 28.3966 20.2117C28.4449 20.3427 28.5194 20.4625 28.6155 20.5638C28.7117 20.6652 28.8274 20.7459 28.9557 20.801C29.0841 20.8561 29.2223 20.8846 29.3619 20.8846C29.5016 20.8846 29.6398 20.8561 29.7681 20.801C29.8965 20.7459 30.0122 20.6652 30.1084 20.5638C30.2045 20.4625 30.279 20.3427 30.3273 20.2117C30.3757 20.0806 30.3968 19.9411 30.3895 19.8016V14.8043Z" fill="#00A3DF"/>
<path d="M35.7418 10.2191C35.9334 10.4037 36.046 10.6555 36.0558 10.9214V21.8536C36.061 21.9917 36.0382 22.1295 35.9889 22.2587C35.9395 22.3878 35.8647 22.5057 35.7688 22.6052C35.6728 22.7048 35.5578 22.784 35.4306 22.838C35.3034 22.8921 35.1666 22.92 35.0283 22.92C34.8901 22.92 34.7532 22.8921 34.626 22.838C34.4988 22.784 34.3838 22.7048 34.2879 22.6052C34.1919 22.5057 34.1171 22.3878 34.0678 22.2587C34.0184 22.1295 33.9957 21.9917 34.0008 21.8536V10.9214C34.0107 10.6555 34.1232 10.4037 34.3149 10.2191C34.5065 10.0345 34.7622 9.93132 35.0283 9.93132C35.2944 9.93132 35.5501 10.0345 35.7418 10.2191Z" fill="#00A3DF"/>
<path d="M41.7215 14.8025C41.7215 14.5281 41.6125 14.2649 41.4184 14.0709C41.2244 13.8769 40.9613 13.7679 40.6869 13.7679C40.4125 13.7679 40.1493 13.8769 39.9553 14.0709C39.7613 14.2649 39.6522 14.5281 39.6522 14.8025V19.7998C39.6522 20.0742 39.7613 20.3374 39.9553 20.5314C40.1493 20.7254 40.4125 20.8344 40.6869 20.8344C40.9613 20.8344 41.2244 20.7254 41.4184 20.5314C41.6125 20.3374 41.7215 20.0742 41.7215 19.7998V14.8025Z" fill="#00A3DF"/>
<path d="M47.3134 17.234C47.3627 17.3631 47.3855 17.5009 47.3804 17.639V19.7997C47.3855 19.9378 47.3627 20.0756 47.3134 20.2047C47.2641 20.3339 47.1892 20.4517 47.0933 20.5513C46.9974 20.6508 46.8823 20.73 46.7551 20.7841C46.6279 20.8382 46.4911 20.8661 46.3528 20.8661C46.2146 20.8661 46.0778 20.8382 45.9505 20.7841C45.8233 20.73 45.7083 20.6508 45.6124 20.5513C45.5165 20.4517 45.4416 20.3339 45.3923 20.2047C45.3429 20.0756 45.3202 19.9378 45.3253 19.7997V17.639C45.3202 17.5009 45.3429 17.3631 45.3923 17.234C45.4416 17.1048 45.5165 16.9869 45.6124 16.8874C45.7083 16.7878 45.8233 16.7086 45.9505 16.6546C46.0778 16.6005 46.2146 16.5726 46.3528 16.5726C46.4911 16.5726 46.6279 16.6005 46.7551 16.6546C46.8823 16.7086 46.9974 16.7878 47.0933 16.8874C47.1892 16.9869 47.2641 17.1048 47.3134 17.234Z" fill="#00A3DF"/>
<path d="M46.1916 33.6365V33.7648H45.8274V34.7207H45.6736V33.7648H45.3044V33.6365H46.1916Z" fill="#00A3DF"/>
<path d="M46.5046 33.6365H46.2686V34.7207H46.4217V33.8335H46.4253L46.7463 34.7207H46.8908L47.2211 33.8335H47.2253V34.7207H47.3812V33.6365H47.1502L46.8363 34.5237H46.8285L46.5046 33.6365Z" fill="#00A3DF"/>
<defs>
<linearGradient id="paint0_linear_7_1455" x1="692.394" y1="6.28125" x2="692.394" y2="27.6371" gradientUnits="userSpaceOnUse">
<stop stop-color="#00AEEF"/>
<stop offset="0.212" stop-color="#0097DC"/>
<stop offset="0.519" stop-color="#007CC5"/>
<stop offset="0.792" stop-color="#006CB8"/>
<stop offset="1" stop-color="#0066B3"/>
</linearGradient>
</defs>
</svg>
