<svg width="317" height="53" viewBox="0 0 317 53" fill="none" xmlns="http://www.w3.org/2000/svg">
<path d="M287.488 48.7408L285.602 43.7689C285.578 43.7002 285.542 43.6094 285.542 43.5298C285.542 43.3144 285.734 43.1098 286.01 43.1098C286.25 43.1098 286.407 43.2576 286.479 43.473L288.042 47.7576L289.616 43.4622C289.688 43.2584 289.832 43.1106 290.071 43.1106H290.12C290.373 43.1106 290.529 43.2584 290.601 43.4622L292.162 47.7576L293.75 43.4513C293.81 43.2684 293.941 43.1103 294.195 43.1103C294.459 43.1103 294.651 43.3027 294.651 43.5192C294.651 43.5985 294.615 43.689 294.591 43.7583L292.693 48.7411C292.596 49.0014 292.404 49.1381 292.188 49.1381H292.152C291.911 49.1381 291.731 49.0014 291.646 48.7411L290.097 44.5163L288.534 48.7411C288.45 49.0014 288.269 49.1381 288.029 49.1381H288.004C287.776 49.1381 287.585 49.0014 287.488 48.7411" fill="white"/>
<path d="M301.239 43.5515C301.239 43.3116 301.443 43.1068 301.695 43.1068C301.962 43.1068 302.165 43.3005 302.165 43.5515V44.5603C302.622 43.5806 303.636 43.1182 304.308 43.1182C304.586 43.1182 304.766 43.3116 304.766 43.5621C304.766 43.8018 304.599 43.9718 304.356 44.0061C303.152 44.1427 302.166 44.9977 302.166 46.6958V48.6936C302.166 48.9329 301.973 49.1375 301.709 49.1375C301.444 49.1375 301.239 48.943 301.239 48.6936L301.239 43.5504V43.5515Z" fill="white"/>
<path d="M307.755 49.2027C306.08 49.2027 304.712 47.9728 304.712 46.1679V46.1446C304.712 44.4647 305.951 43.1125 307.637 43.1125C309.441 43.1125 310.468 44.5209 310.468 46.0658C310.468 46.3032 310.266 46.473 310.043 46.473H305.634C305.762 47.735 306.694 48.4452 307.78 48.4452C308.535 48.4452 309.088 48.1632 309.537 47.7685C309.608 47.7128 309.69 47.6677 309.797 47.6677C310.02 47.6677 310.198 47.8369 310.198 48.0407C310.198 48.1418 310.151 48.2437 310.055 48.3216C309.478 48.8512 308.793 49.2019 307.756 49.2019L307.755 49.2027ZM309.56 45.8302C309.466 44.7693 308.828 43.8455 307.613 43.8455C306.552 43.8455 305.75 44.6907 305.633 45.8302H309.56Z" fill="white"/>
<path d="M294.694 47.3596C294.694 46.1217 295.774 45.4621 297.346 45.4621C298.138 45.4621 298.702 45.5642 299.255 45.7128V45.5074C299.255 44.4519 298.569 43.9058 297.406 43.9058C296.782 43.9058 296.419 43.9811 295.961 44.1737C295.902 44.1965 295.842 44.2082 295.795 44.2082C295.579 44.2082 295.386 44.0373 295.386 43.8333C295.386 43.6521 295.469 43.5399 295.639 43.4689C296.25 43.2179 296.71 43.1345 297.502 43.1345C298.378 43.1345 299.05 43.3497 299.505 43.7817C299.926 44.1791 300.142 44.747 300.142 45.4971V48.7384C300.142 48.9875 299.95 49.1698 299.697 49.1698C299.434 49.1698 299.256 48.9878 299.256 48.761V48.2007C298.823 48.7357 298.102 49.212 297.012 49.212C295.859 49.2111 294.694 48.5871 294.694 47.3829V47.3596ZM299.267 46.9284V46.3603C298.81 46.2356 298.197 46.1103 297.441 46.1103C296.278 46.1103 295.629 46.588 295.629 47.3256V47.3482C295.629 48.0863 296.349 48.5181 297.19 48.5181C298.33 48.5181 299.267 47.8589 299.267 46.9284Z" fill="white"/>
<path d="M270.695 43.4972C270.491 43.0755 269.989 42.8845 269.52 43.0818C269.05 43.2793 268.877 43.7721 269.09 44.1941L271.059 48.245C271.369 48.8799 271.695 49.2128 272.308 49.2128C272.962 49.2128 273.248 48.8503 273.557 48.245C273.557 48.245 275.275 44.7049 275.292 44.6668C275.31 44.6293 275.365 44.515 275.54 44.516C275.688 44.5169 275.812 44.6285 275.812 44.7785V48.2398C275.812 48.7734 276.125 49.2111 276.726 49.2111C277.327 49.2111 277.652 48.7734 277.652 48.2398V45.4061C277.652 44.8597 278.066 44.5052 278.63 44.5052C279.194 44.5052 279.569 44.8725 279.569 45.4061V48.2398C279.569 48.7734 279.883 49.2111 280.483 49.2111C281.084 49.2111 281.411 48.7734 281.411 48.2398V45.4061C281.411 44.8597 281.823 44.5052 282.387 44.5052C282.95 44.5052 283.326 44.8725 283.326 45.4061V48.2398C283.326 48.7734 283.64 49.2111 284.241 49.2111C284.842 49.2111 285.168 48.7734 285.168 48.2398V45.0149C285.168 43.83 284.161 43 282.95 43C281.74 43 280.982 43.7923 280.982 43.7923C280.579 43.298 280.024 43.0011 279.084 43.0011C278.093 43.0011 277.225 43.7923 277.225 43.7923C276.822 43.298 276.136 43.0011 275.568 43.0011C274.689 43.0011 273.991 43.3668 273.566 44.2881L272.308 47.0947L270.695 43.4972Z" fill="white"/>
<path d="M310.54 43.8504V43.8455C310.54 43.4491 310.88 43.1152 311.307 43.1152C311.74 43.1152 312.075 43.4456 312.075 43.8425V43.8455C312.075 44.2433 311.736 44.5772 311.307 44.5772C310.874 44.5772 310.54 44.2479 310.54 43.8504ZM311.928 43.8455V43.8436C311.928 43.5176 311.662 43.2502 311.307 43.2502C310.955 43.2502 310.685 43.5222 310.685 43.8455V43.8493C310.685 44.1745 310.952 44.4419 311.307 44.4419C311.657 44.4419 311.928 44.1705 311.928 43.8455Z" fill="white"/>
<path d="M311.028 43.5515C311.028 43.5083 311.064 43.4738 311.11 43.4738H311.366C311.463 43.4738 311.537 43.4996 311.583 43.5458C311.626 43.5847 311.649 43.6409 311.649 43.7061V43.7083C311.649 43.8192 311.589 43.8868 311.5 43.9224L311.613 44.0528C311.629 44.0724 311.64 44.0884 311.64 44.1123C311.64 44.1552 311.601 44.1835 311.562 44.1835C311.526 44.1835 311.501 44.1658 311.482 44.1436L311.323 43.9528H311.192V44.1061C311.192 44.1493 311.157 44.1832 311.111 44.1832C311.064 44.1832 311.028 44.149 311.028 44.1061V43.5515H311.028ZM311.357 43.8156C311.437 43.8156 311.481 43.7762 311.481 43.7162V43.7137C311.481 43.6483 311.434 43.6129 311.354 43.6129H311.191V43.8154H311.357V43.8156Z" fill="white"/>
<path d="M213.891 47.1835H216.923L215.322 44.6737L212.377 49.2069H211.038L214.619 43.7682C214.697 43.6597 214.801 43.5709 214.922 43.5093C215.042 43.4477 215.177 43.415 215.313 43.4141C215.449 43.4131 215.584 43.4439 215.706 43.5039C215.827 43.5638 215.932 43.6511 216.012 43.7586L219.603 49.2069H218.264L217.633 48.1933H214.565L213.897 47.1835H213.891ZM227.81 48.1933V43.469H226.672V48.6585C226.672 48.7307 226.687 48.8021 226.716 48.8684C226.745 48.9348 226.788 48.9948 226.841 49.0447C226.895 49.0982 226.959 49.1406 227.031 49.1694C227.102 49.1983 227.178 49.213 227.255 49.2126H232.428L233.102 48.1991H227.804L227.81 48.1933ZM208.995 47.3496C209.525 47.3496 210.034 47.1451 210.409 46.7813C210.783 46.4174 210.994 45.9239 210.994 45.4093C210.994 44.8947 210.783 44.4012 210.409 44.0373C210.034 43.6734 209.525 43.469 208.995 43.469H204.021V49.2069H205.157V44.4845H208.925C209.179 44.4845 209.422 44.5823 209.602 44.7565C209.781 44.9306 209.882 45.1668 209.882 45.4131C209.882 45.6594 209.781 45.8956 209.602 46.0698C209.422 46.2439 209.179 46.3418 208.925 46.3418H205.72L209.114 49.2069H210.763L208.483 47.3496H208.995ZM197.033 49.2069H200.469C201.24 49.1874 201.972 48.8768 202.51 48.341C203.048 47.8053 203.349 47.0869 203.349 46.3389C203.349 45.5909 203.048 44.8725 202.51 44.3367C201.972 43.801 201.24 43.4903 200.469 43.4709H197.033C196.639 43.461 196.246 43.5278 195.878 43.6675C195.511 43.8071 195.176 44.0168 194.893 44.2841C194.611 44.5514 194.386 44.8709 194.232 45.2238C194.079 45.5767 194 45.9559 194 46.3389C194 46.7219 194.079 47.101 194.232 47.4539C194.386 47.8068 194.611 48.1264 194.893 48.3937C195.176 48.661 195.511 48.8706 195.878 49.0103C196.246 49.15 196.639 49.2168 197.033 49.2069ZM200.392 48.1971H197.109C196.612 48.1816 196.141 47.9792 195.795 47.6328C195.45 47.2863 195.257 46.823 195.257 46.3408C195.257 45.8586 195.45 45.3953 195.795 45.0489C196.141 44.7024 196.612 44.5 197.109 44.4845H200.392C200.648 44.4765 200.904 44.5185 201.143 44.6082C201.382 44.6979 201.6 44.8333 201.785 45.0065C201.969 45.1797 202.116 45.387 202.216 45.6163C202.316 45.8455 202.367 46.0919 202.367 46.3408C202.367 46.5898 202.316 46.8362 202.216 47.0654C202.116 47.2946 201.969 47.5019 201.785 47.6751C201.6 47.8483 201.382 47.9837 201.143 48.0734C200.904 48.1631 200.648 48.2051 200.392 48.1971ZM221.977 49.2069H225.484L226.149 48.1971H222.054C221.798 48.2051 221.542 48.1631 221.303 48.0734C221.064 47.9837 220.845 47.8483 220.661 47.6751C220.477 47.5019 220.33 47.2946 220.23 47.0654C220.13 46.8362 220.079 46.5898 220.079 46.3408C220.079 46.0919 220.13 45.8455 220.23 45.6163C220.33 45.387 220.477 45.1797 220.661 45.0065C220.845 44.8333 221.064 44.6979 221.303 44.6082C221.542 44.5185 221.798 44.4765 222.054 44.4845H225.387L226.059 43.4709H221.977C221.582 43.461 221.189 43.5278 220.822 43.6675C220.454 43.8071 220.119 44.0168 219.837 44.2841C219.554 44.5514 219.329 44.8709 219.176 45.2238C219.023 45.5767 218.943 45.9559 218.943 46.3389C218.943 46.7219 219.023 47.101 219.176 47.4539C219.329 47.8068 219.554 48.1264 219.837 48.3937C220.119 48.661 220.454 48.8706 220.822 49.0103C221.189 49.15 221.582 49.2168 221.977 49.2069ZM235.878 48.1971C235.461 48.1973 235.056 48.0654 234.723 47.8214C234.39 47.5775 234.149 47.2349 234.036 46.8457H238.894L239.563 45.834H234.036C234.149 45.4446 234.39 45.1018 234.723 44.8579C235.055 44.6139 235.461 44.4821 235.878 44.4826H239.212L239.879 43.469H235.8C235.03 43.4884 234.297 43.7991 233.76 44.3348C233.222 44.8705 232.921 45.5889 232.921 46.3369C232.921 47.085 233.222 47.8034 233.76 48.3391C234.297 48.8748 235.03 49.1855 235.8 49.2049H239.308L239.975 48.1952H235.876" fill="#C74634"/>
<path d="M137.132 45.9212C137.286 46.6445 137.286 46.7258 137.286 46.8163C137.286 48.055 135.893 48.7421 134.058 48.7421C129.908 48.7421 126.282 46.319 126.282 44.7096C126.282 44.4836 126.327 44.2666 126.418 44.0586L126.743 43.2539C126.725 43.3082 126.725 43.3624 126.725 43.4257C126.725 44.2394 129.944 46.9248 134.257 46.9248C135.369 46.9248 136.969 46.6987 136.969 45.3787C136.969 45.2792 136.96 45.1707 136.942 45.0713L137.132 45.9212Z" fill="black"/>
<path d="M174.356 47.7576C174.356 48.8155 174.988 49.3218 176.146 49.3218C176.498 49.3127 176.851 49.2585 177.204 49.1771V47.9565C176.987 48.0288 176.752 48.065 176.525 48.056C176.046 48.056 175.874 47.9113 175.874 47.4592V45.5876H177.258V44.3309H175.874V42.7305L174.365 43.056V44.3218H173.361V45.5786H174.356V47.7576ZM169.654 47.7847C169.654 47.4592 169.979 47.2965 170.477 47.2965C170.775 47.2965 171.082 47.3327 171.372 47.405V48.0379C171.082 48.1916 170.757 48.273 170.431 48.273C169.943 48.282 169.654 48.0921 169.654 47.7847ZM170.115 49.3399C170.648 49.3399 171.073 49.2314 171.48 48.9601V49.2585H172.972V46.094C172.972 44.8914 172.158 44.2314 170.811 44.2314C170.052 44.2314 169.31 44.4122 168.506 44.7739L169.048 45.886C169.627 45.6419 170.115 45.4972 170.54 45.4972C171.164 45.4972 171.48 45.7413 171.48 46.2296V46.4737C171.119 46.3833 170.739 46.329 170.359 46.3381C169.093 46.3381 168.325 46.8715 168.325 47.8209C168.325 48.6889 169.012 49.3489 170.115 49.3399ZM161.914 49.2585H163.515V46.6997H166.2V49.2585H167.809V42.7305H166.209V45.235H163.524V42.7305H161.923L161.914 49.2585ZM155.811 46.7902C155.811 46.0849 156.372 45.5424 157.104 45.5424C157.484 45.5334 157.864 45.669 158.144 45.9222V47.6491C157.864 47.9113 157.484 48.056 157.104 48.0469C156.381 48.0379 155.811 47.5044 155.811 46.7902ZM158.171 49.2675H159.663V42.4141L158.153 42.7396V44.5931C157.773 44.3761 157.339 44.2585 156.896 44.2676C155.459 44.2676 154.329 45.3797 154.329 46.7902C154.31 48.1735 155.423 49.3127 156.806 49.3218C156.824 49.3218 156.833 49.3218 156.851 49.3218C157.33 49.3218 157.791 49.1771 158.171 48.8968V49.2675ZM151.318 45.4701C151.797 45.4701 152.195 45.7775 152.348 46.2567H150.287C150.45 45.7594 150.82 45.4701 151.318 45.4701ZM148.777 46.7992C148.777 48.2368 149.952 49.358 151.462 49.358C152.294 49.358 152.9 49.1319 153.524 48.6075L152.529 47.7214C152.294 47.9656 151.951 48.0921 151.544 48.0921C151.019 48.1102 150.531 47.7938 150.332 47.3055H153.849V46.9348C153.849 45.3706 152.791 44.2405 151.363 44.2405C149.961 44.2224 148.813 45.3345 148.795 46.7359C148.777 46.754 148.777 46.7811 148.777 46.7992ZM146.182 44.1048C146.716 44.1048 147.014 44.4394 147.014 44.8372C147.014 45.235 146.716 45.5696 146.182 45.5696H144.6V44.1048H146.182ZM142.99 49.2585H144.591V46.8806H145.811L147.041 49.2585H148.84L147.403 46.6455C148.153 46.3381 148.632 45.6148 148.632 44.8101C148.632 43.6347 147.71 42.7305 146.327 42.7305H142.981V49.2585H142.99Z" fill="white"/>
<path d="M134.248 46.934C135.36 46.934 136.96 46.708 136.96 45.3879C136.96 45.2885 136.951 45.18 136.933 45.0805L136.273 42.2143C136.119 41.5814 135.984 41.3011 134.881 40.7406C134.022 40.2975 132.15 39.5742 131.589 39.5742C131.074 39.5742 130.92 40.2433 130.306 40.2433C129.709 40.2433 129.275 39.746 128.723 39.746C128.19 39.746 127.846 40.1077 127.575 40.8581C127.575 40.8581 126.834 42.9648 126.734 43.2632C126.716 43.3174 126.716 43.3807 126.716 43.4349C126.716 44.2487 129.935 46.925 134.248 46.934ZM137.132 45.9214C137.286 46.6447 137.286 46.7261 137.286 46.8165C137.286 48.0552 135.893 48.7423 134.058 48.7423C129.908 48.7423 126.282 46.3192 126.282 44.7098C126.282 44.4838 126.327 44.2668 126.418 44.0588C124.926 44.1311 123 44.4024 123 46.1022C123 48.896 129.609 52.3318 134.853 52.3318C138.868 52.3318 139.881 50.5145 139.881 49.0859C139.871 47.9647 138.895 46.6809 137.132 45.9214Z" fill="#EE0000"/>
<path fill-rule="evenodd" clip-rule="evenodd" d="M72 52.8401H86.3871L100.467 38.7578H72V52.8401Z" fill="url(#paint0_linear_7_1632)"/>
<path fill-rule="evenodd" clip-rule="evenodd" d="M88.8931 41.5761H86.0817L86.0911 48.1885L83.643 41.5739H81.2155L79.1257 47.0982C78.9035 45.6925 77.4502 45.2074 76.3067 44.8441C75.5516 44.6016 74.7502 44.2448 74.7583 43.8505C74.7646 43.5269 75.187 43.2268 76.0266 43.2716C76.5899 43.3019 77.0875 43.3473 78.0773 43.8255L79.0506 42.1293C78.1481 41.6699 76.9001 41.3798 75.8767 41.3789H75.8705C74.6772 41.3789 73.6837 41.7654 73.0678 42.4022C72.6384 42.8466 72.4069 43.4118 72.3975 44.0367C72.3818 44.8967 72.697 45.5063 73.3591 45.9935C73.9187 46.4035 74.6344 46.6695 75.2649 46.8647C76.0426 47.1057 76.6779 47.3154 76.67 47.7616C76.6638 47.9243 76.6024 48.0764 76.4854 48.1991C76.2914 48.3994 75.9941 48.4745 75.5826 48.4826C74.7886 48.4995 74.2003 48.3747 73.2628 47.8205L72.3969 49.5385C73.3335 50.0711 74.3277 50.3384 75.4574 50.3384L75.7115 50.3365C76.6948 50.3187 77.4928 50.083 78.1268 49.5729C78.1631 49.5438 78.1956 49.5144 78.2294 49.4847L78.123 50.0329L80.4951 50.0254L80.9207 48.9358C81.3682 49.0885 81.877 49.173 82.4172 49.173C82.9435 49.173 83.4386 49.0929 83.8777 48.9489L84.1743 50.0254L88.4303 50.0295L88.4406 47.5454H89.3463C91.5353 47.5454 92.8293 46.4313 92.8293 44.5631C92.8287 42.4823 91.5707 41.5761 88.8931 41.5761ZM82.4172 47.2284C82.0902 47.2284 81.7835 47.1714 81.5197 47.0713L82.4072 44.2689H82.4244L83.2975 47.0791C83.0346 47.173 82.7351 47.2284 82.4169 47.2284H82.4172ZM89.0578 45.6183H88.44V43.3598H89.0581C89.8811 43.3598 90.5383 43.6339 90.5383 44.4745C90.5376 45.3445 89.8811 45.6183 89.0581 45.6183" fill="white"/>
<path d="M22.3769 35.0475C24.3432 34.975 26.2987 35.3687 28.0836 36.1966C29.8686 37.0244 31.4323 38.2629 32.6469 39.8108C33.2858 40.6231 33.8207 41.512 34.2391 42.457C34.3254 42.6111 34.3578 42.7897 34.3309 42.9644C34.3033 43.1136 34.2279 43.2498 34.1161 43.3525C34.0043 43.4551 33.8621 43.5187 33.7111 43.5335C33.56 43.5483 33.4082 43.5136 33.2786 43.4346C33.149 43.3556 33.0486 43.2366 32.9925 43.0956C32.3109 41.5024 31.2641 40.0919 29.9367 38.978C28.6093 37.8642 27.0385 37.0781 25.3512 36.6834C23.6863 36.2984 21.9555 36.2984 20.2906 36.6834C18.602 37.0775 17.0297 37.8632 15.7008 38.9771C14.3719 40.091 13.3236 41.5018 12.6405 43.0956C12.5744 43.2696 12.4419 43.4102 12.2721 43.4865C12.1023 43.5628 11.9091 43.5685 11.7351 43.5024C11.5611 43.4362 11.4205 43.3037 11.3442 43.1339C11.268 42.9641 11.2622 42.771 11.3284 42.597C12.2591 40.4192 13.7918 38.5521 15.7465 37.2149C17.7012 35.8776 19.9968 35.1258 22.3638 35.0475H22.3769Z" fill="#F6A11F"/>
<path fill-rule="evenodd" clip-rule="evenodd" d="M29.4016 43.0532C29.4016 42.9351 29.5153 42.8564 29.6203 42.8476C29.6903 42.8418 29.8186 42.8438 29.9469 42.8457L29.9471 42.8457C30.0111 42.8467 30.0752 42.8476 30.132 42.8476C30.3026 42.8476 30.4076 42.9439 30.3901 43.0882V50.1477C30.3879 50.2062 30.3637 50.2617 30.3224 50.3031C30.281 50.3444 30.2255 50.3686 30.167 50.3708C30.0316 50.3796 29.8957 50.3796 29.7603 50.3708C29.7123 50.3671 29.6663 50.3505 29.627 50.3228C29.5878 50.2951 29.5567 50.2573 29.5372 50.2133C29.5077 50.1196 29.4864 50.0225 29.4653 49.9261C29.452 49.8653 29.4387 49.8046 29.4235 49.7453C29.2429 50.0093 28.989 50.2146 28.693 50.3358C28.2576 50.4865 27.7873 50.5048 27.3415 50.3883C27.1212 50.3333 26.9148 50.2329 26.7356 50.0936C26.5563 49.9542 26.4081 49.779 26.3005 49.5791C26.0046 48.9507 25.8823 48.2544 25.9462 47.5627C25.9238 46.9681 26.1009 46.3831 26.4492 45.9007C26.5979 45.7108 26.7834 45.5529 26.9946 45.4364C27.2058 45.3199 27.4383 45.2472 27.6783 45.2227C28.127 45.1451 28.5883 45.2455 28.9642 45.5026C29.1341 45.6221 29.2821 45.7701 29.4016 45.94V43.0532ZM28.05 45.9138C27.8918 45.9186 27.7378 45.9664 27.6046 46.0519C27.4713 46.1374 27.3637 46.2574 27.2934 46.3993C27.061 46.9437 26.9692 47.5378 27.0265 48.127C27.0291 48.5128 27.111 48.8939 27.2671 49.2467C27.3266 49.363 27.4106 49.4651 27.5133 49.5459C27.616 49.6266 27.7349 49.6843 27.862 49.7147C28.0616 49.7705 28.2724 49.7723 28.4729 49.7201C28.6734 49.6678 28.8566 49.5634 29.0036 49.4173C29.2484 49.094 29.3875 48.7029 29.4016 48.2976C29.4462 47.8455 29.4181 47.3892 29.3185 46.946C29.2548 46.6432 29.1026 46.3661 28.8811 46.15C28.7664 46.0553 28.6333 45.9854 28.4903 45.9448C28.3473 45.9041 28.1974 45.8936 28.05 45.9138Z" fill="white"/>
<path d="M20.3126 43.1274C20.312 43.0953 20.3179 43.0634 20.3301 43.0336C20.3422 43.0039 20.3603 42.9769 20.3832 42.9544C20.4062 42.9319 20.4335 42.9143 20.4634 42.9026C20.4934 42.891 20.5254 42.8857 20.5575 42.8869H21.0562C21.1742 42.8869 21.3098 42.9656 21.3055 43.0968V47.6719C21.7235 47.2064 22.1436 46.7429 22.5643 46.2787L22.5737 46.2684C22.7705 46.0513 22.9674 45.8339 23.1644 45.6162C23.1958 45.5859 23.2256 45.5512 23.2556 45.5162C23.3426 45.4147 23.4325 45.3099 23.5755 45.2969C23.704 45.2852 23.8889 45.2891 24.0731 45.293C24.1649 45.295 24.2566 45.2969 24.341 45.2969C24.4416 45.2969 24.5509 45.38 24.5159 45.485C24.4697 45.5617 24.4105 45.6297 24.341 45.6862L22.329 47.6982C22.7322 48.1559 23.1303 48.617 23.5286 49.0783L23.5293 49.079L23.5299 49.0797L23.53 49.0799C23.7707 49.3587 24.0115 49.6375 24.2535 49.9158C24.3451 50.0133 24.4299 50.1171 24.5072 50.2263C24.5164 50.2484 24.5201 50.2724 24.518 50.2963C24.5159 50.3201 24.5081 50.3431 24.4952 50.3633C24.4823 50.3835 24.4647 50.4003 24.444 50.4122C24.4232 50.4242 24.3999 50.4309 24.376 50.4319H23.7374C23.6247 50.4441 23.5107 50.4291 23.405 50.3882C23.3082 50.3161 23.2252 50.2272 23.16 50.1257L21.3011 47.7857V50.0864C21.3011 50.1782 21.3011 50.2832 21.2399 50.3488C21.1843 50.4083 20.9778 50.421 20.8419 50.4294L20.82 50.4308L20.8025 50.4319L20.7807 50.4334C20.6537 50.4422 20.5032 50.4527 20.3957 50.3575C20.3691 50.3317 20.3486 50.3002 20.3358 50.2654C20.3229 50.2305 20.318 50.1933 20.3213 50.1563V43.1274H20.3126Z" fill="white"/>
<path d="M17.4915 45.2839C17.8017 45.1678 18.1435 45.1678 18.4538 45.2839C18.5631 45.3363 18.6856 45.4413 18.6375 45.5725C18.6149 45.634 18.5943 45.7108 18.5725 45.7921C18.5477 45.8845 18.5213 45.9828 18.4887 46.0712C18.4641 46.1239 18.4217 46.1664 18.3689 46.1912C18.3162 46.2159 18.2564 46.2214 18.2001 46.2068C17.9415 46.1492 17.6777 46.1185 17.4128 46.1149C17.3217 46.1181 17.2323 46.1395 17.1496 46.1778C17.067 46.2161 16.9929 46.2706 16.9316 46.338C16.7375 46.5431 16.6148 46.8054 16.5817 47.0859C16.5519 47.2842 16.5417 47.4849 16.5511 47.6851V50.2133C16.5511 50.3489 16.4199 50.4451 16.293 50.4495H15.7813C15.6588 50.4495 15.5189 50.3489 15.532 50.2133V45.5375C15.532 45.3845 15.6894 45.297 15.825 45.3145C15.8609 45.3191 15.906 45.3176 15.9549 45.316C16.0908 45.3115 16.2564 45.306 16.3368 45.4282C16.4026 45.5283 16.4336 45.6568 16.4649 45.7873C16.4857 45.8735 16.5066 45.9605 16.538 46.0405C16.7647 45.7048 17.0903 45.448 17.4696 45.3057L17.4915 45.2839Z" fill="white"/>
<path d="M0.0787677 45.3251C0.0468482 45.3441 0.0198649 45.3704 0 45.4018H0.00874307C0.0022466 45.4687 0.0022466 45.536 0.00874307 45.603L1.27718 50.2393C1.28449 50.29 1.30968 50.3363 1.34818 50.37C1.38669 50.4037 1.43597 50.4225 1.48714 50.423H2.39254C2.54563 50.4318 2.74683 50.3968 2.78182 50.2175C2.97793 49.4511 3.18028 48.6973 3.38313 47.9416L3.38358 47.9399C3.47466 47.6006 3.56584 47.2609 3.65661 46.9195C3.73328 46.5834 3.79024 46.2431 3.82719 45.9004C3.85995 46.2841 3.92432 46.6645 4.01965 47.0376C4.25764 47.8826 4.48475 48.725 4.7117 49.5667L4.71194 49.5676C4.77272 49.793 4.83348 50.0184 4.89444 50.2437C4.90893 50.3001 4.94374 50.3491 4.99217 50.3814C5.04061 50.4137 5.09926 50.427 5.15688 50.4187H6.12789C6.19043 50.4183 6.25079 50.3957 6.29811 50.3548C6.34542 50.3139 6.37657 50.2574 6.38595 50.1956C6.5601 49.56 6.72984 48.9237 6.89968 48.287C7.1436 47.3725 7.38781 46.4571 7.64565 45.5417C7.65681 45.5157 7.66165 45.4874 7.65977 45.4591C7.65789 45.4309 7.64936 45.4035 7.63485 45.3791C7.62034 45.3548 7.60028 45.3343 7.5763 45.3192C7.55233 45.3041 7.52513 45.2949 7.49692 45.2924H6.86709C6.80389 45.2852 6.74022 45.3012 6.68793 45.3374C6.63563 45.3736 6.59826 45.4276 6.58277 45.4892C6.43843 46.1541 6.29409 46.8058 6.14538 47.4663C5.93668 48.2887 5.77604 49.1226 5.66425 49.9638C5.65807 49.9355 5.65135 49.9069 5.64456 49.8779C5.61775 49.7637 5.58989 49.645 5.58989 49.5264C5.49211 48.9931 5.36359 48.4659 5.20498 47.9474C5.07076 47.4699 4.9411 46.9908 4.81152 46.512C4.72154 46.1795 4.63157 45.8471 4.54015 45.5155C4.52015 45.4482 4.47733 45.39 4.41905 45.3509C4.36078 45.3118 4.29069 45.2942 4.22085 45.3012H3.44229C3.37934 45.301 3.31831 45.3227 3.26963 45.3626C3.22095 45.4025 3.18766 45.4581 3.17548 45.5199C2.86931 46.6308 2.57041 47.7404 2.27882 48.8484C2.18697 49.2187 2.11688 49.5941 2.06888 49.9725C2.04567 49.8309 2.03231 49.7004 2.01835 49.564C2.006 49.4434 1.99318 49.3181 1.97265 49.1765C1.94196 48.9647 1.89189 48.7616 1.84209 48.5595C1.82091 48.4736 1.79977 48.3878 1.7802 48.3017L1.09786 45.5067C1.09295 45.4515 1.06879 45.3998 1.02961 45.3607C0.990434 45.3215 0.93872 45.2973 0.883531 45.2924H0.183698C0.146636 45.2949 0.110687 45.3061 0.0787677 45.3251Z" fill="white"/>
<path d="M38.075 45.2969H38.7354C38.8021 45.2978 38.8669 45.3193 38.921 45.3585C38.975 45.3976 39.0156 45.4525 39.0372 45.5156C39.1971 45.9347 39.3563 46.3538 39.5153 46.7725L39.5161 46.7747C39.7352 47.3517 39.9541 47.9281 40.1745 48.503C40.2546 48.7044 40.3118 48.9142 40.345 49.1285C40.4483 48.7413 40.5741 48.3616 40.7003 47.9809L40.7004 47.9807L40.7005 47.9803C40.7667 47.7805 40.833 47.5805 40.8962 47.3789L41.5129 45.4894C41.5303 45.4364 41.5628 45.3896 41.6062 45.3547C41.6497 45.3198 41.7023 45.2982 41.7578 45.2925H42.3002C42.3543 45.2825 42.4099 45.284 42.4633 45.2968C42.5168 45.3096 42.567 45.3335 42.6107 45.3669C42.6286 45.3926 42.6382 45.4231 42.6382 45.4544C42.6382 45.4856 42.6286 45.5162 42.6107 45.5418C42.0042 47.2739 41.3977 49.0089 40.7912 50.7468C40.7062 51.0514 40.5858 51.345 40.4325 51.6216C40.1793 52.0126 39.8018 52.3069 39.3609 52.457C39.3239 52.4687 39.2867 52.4834 39.2491 52.4982C39.1315 52.5446 39.0112 52.592 38.8885 52.5489C38.7689 52.5069 38.7377 52.4457 38.7048 52.3814C38.6932 52.3587 38.6814 52.3355 38.6654 52.3127C38.6569 52.3005 38.6483 52.2886 38.6398 52.277C38.5875 52.2051 38.541 52.1412 38.5561 52.0546C38.5628 52.0066 38.5833 51.9617 38.6152 51.9251C38.647 51.8886 38.6888 51.8622 38.7354 51.8491C38.9248 51.7974 39.1018 51.7082 39.2559 51.5866C39.609 51.2678 39.8447 50.8396 39.9251 50.3707C39.891 50.25 39.838 50.134 39.785 50.018C39.7497 49.9406 39.7143 49.8633 39.6846 49.7846L37.935 45.7387C37.892 45.6541 37.8596 45.5645 37.8388 45.4719C37.8388 45.3669 37.9612 45.3188 38.0531 45.3188L38.075 45.2969Z" fill="white"/>
<path fill-rule="evenodd" clip-rule="evenodd" d="M12.8069 45.6467C12.3243 45.3182 11.7442 45.1639 11.1623 45.2093L11.1754 45.2356C10.9634 45.2478 10.7535 45.2845 10.5499 45.3449C10.0608 45.4858 9.63761 45.7958 9.35583 46.2197C9.00303 46.8008 8.84946 47.4811 8.91843 48.1574C8.94772 48.7666 9.18554 49.3472 9.59202 49.802C9.9594 50.1754 10.4446 50.4103 10.9654 50.4668C11.5721 50.5568 12.1911 50.4314 12.715 50.1125C13.1894 49.7855 13.5235 49.2922 13.651 48.7304C13.8019 48.1332 13.8019 47.5079 13.651 46.9108C13.5216 46.4057 13.2239 45.9598 12.8069 45.6467ZM10.586 46.1322C10.718 46.0401 10.8683 45.9775 11.0267 45.9485L11.0311 45.9442C11.3659 45.8745 11.7145 45.9257 12.0152 46.0885C12.1643 46.1891 12.2921 46.3181 12.3912 46.4683C12.4903 46.6184 12.5587 46.7866 12.5926 46.9633C12.6837 47.3721 12.7117 47.7925 12.6757 48.2099C12.6634 48.6448 12.5099 49.064 12.2383 49.4039C12.1124 49.5246 11.9637 49.619 11.801 49.6816C11.6382 49.7441 11.4646 49.7736 11.2903 49.7683C11.116 49.7631 10.9445 49.7231 10.7858 49.6507C10.6272 49.5784 10.4845 49.4752 10.3662 49.3471C10.099 48.9511 9.96146 48.4819 9.97256 48.0043C9.92829 47.4801 10.0281 46.9537 10.2612 46.4822C10.3432 46.3436 10.4539 46.2242 10.586 46.1322Z" fill="white"/>
<path fill-rule="evenodd" clip-rule="evenodd" d="M35.1097 45.275C34.649 45.1715 34.17 45.182 33.7144 45.3057C33.244 45.434 32.8365 45.7295 32.5684 46.1367C32.2773 46.663 32.1268 47.2555 32.1314 47.8569C32.136 48.4584 32.2956 49.0484 32.5946 49.5703C32.8907 50.0051 33.3466 50.3054 33.8631 50.4057C34.2839 50.5132 34.7286 50.4778 35.1272 50.3051C35.3701 50.1643 35.5803 49.9734 35.7439 49.7452C35.7727 49.9188 35.8151 50.09 35.8707 50.257C35.9451 50.3838 36.1157 50.3838 36.2469 50.3838C36.3668 50.3982 36.4884 50.3832 36.6012 50.3401C36.6331 50.3211 36.6595 50.2943 36.6779 50.2621C36.6963 50.2299 36.706 50.1934 36.7061 50.1564V48.2712C36.7207 47.9238 36.709 47.5758 36.6712 47.2302C36.6274 46.776 36.4645 46.3415 36.1988 45.9705C35.9285 45.6182 35.543 45.372 35.1097 45.275ZM33.7144 46.1455C33.8434 46.0477 33.993 45.9804 34.1518 45.9486H34.1605C34.4907 45.8813 34.834 45.9357 35.1272 46.1017C35.3748 46.2774 35.5504 46.5369 35.6214 46.8322C35.7342 47.2911 35.7712 47.7654 35.7308 48.2362C35.7211 48.6456 35.5902 49.0429 35.3546 49.3778C35.1248 49.5963 34.8237 49.7243 34.5069 49.7379C34.1901 49.7516 33.879 49.6501 33.6313 49.4522C33.3932 49.1667 33.2523 48.8128 33.2289 48.4418C33.1704 47.9494 33.1866 47.451 33.277 46.9634C33.3235 46.6483 33.4781 46.3591 33.7144 46.1455Z" fill="white"/>
<path fill-rule="evenodd" clip-rule="evenodd" d="M43.3414 49.3649C43.1633 49.2961 42.9703 49.275 42.7815 49.3036V50.0691H42.974V49.7585H43.0658C43.1139 49.8635 43.162 49.9641 43.2145 50.0691H43.4201C43.4027 50.0327 43.3842 49.9963 43.3656 49.9597C43.3283 49.886 43.2904 49.8111 43.2583 49.7323C43.2954 49.7218 43.329 49.7015 43.3556 49.6735C43.3821 49.6455 43.4006 49.6109 43.4091 49.5733C43.4176 49.5357 43.4158 49.4965 43.4039 49.4598C43.392 49.4231 43.3704 49.3903 43.3414 49.3649ZM42.974 49.6448V49.4392C42.9923 49.4413 43.0137 49.4423 43.036 49.4435C43.1094 49.4472 43.1924 49.4514 43.2058 49.4917C43.2233 49.5442 43.232 49.6186 43.1708 49.6448C43.1054 49.6513 43.0394 49.6513 42.974 49.6448Z" fill="white"/>
<path fill-rule="evenodd" clip-rule="evenodd" d="M42.882 49.0277C43.0379 48.9955 43.1998 49.0123 43.3457 49.0758C43.4679 49.13 43.5707 49.2201 43.6402 49.3343C43.7098 49.4484 43.7428 49.581 43.735 49.7144C43.737 49.874 43.6815 50.029 43.5787 50.151C43.4759 50.2731 43.3327 50.3541 43.1751 50.3793C42.9959 50.4181 42.8086 50.3842 42.6543 50.285C42.5001 50.1857 42.3917 50.0293 42.3528 49.85C42.3139 49.6708 42.3479 49.4835 42.4471 49.3293C42.5464 49.1751 42.7028 49.0666 42.882 49.0277ZM42.847 49.1633C42.7038 49.2144 42.5867 49.3202 42.5215 49.4576C42.4562 49.595 42.4483 49.7527 42.4993 49.896C42.5504 50.0392 42.6562 50.1563 42.7936 50.2216C42.931 50.2868 43.0887 50.2947 43.232 50.2437C43.3029 50.2184 43.3682 50.1794 43.424 50.1289C43.4799 50.0784 43.5253 50.0174 43.5576 49.9494C43.5899 49.8814 43.6084 49.8076 43.6122 49.7324C43.616 49.6572 43.605 49.582 43.5797 49.5111C43.5544 49.4401 43.5154 49.3748 43.4649 49.319C43.4144 49.2631 43.3534 49.2177 43.2854 49.1855C43.2174 49.1532 43.1436 49.1346 43.0684 49.1308C42.9932 49.127 42.918 49.1381 42.847 49.1633Z" fill="white"/>
<path d="M316.845 13.2098V12.2493C316.744 12.2493 316.644 12.2491 316.543 12.2489C316.254 12.2483 315.964 12.2477 315.674 12.2519C315.669 11.969 315.67 11.6855 315.67 11.4019V11.4013C315.671 11.1911 315.672 10.9809 315.67 10.7709C315.53 10.8131 315.39 10.8562 315.251 10.8993L315.251 10.8994C315.001 10.9766 314.751 11.0538 314.499 11.1254C314.494 11.3382 314.495 11.5511 314.495 11.764V11.7645C314.496 11.9261 314.496 12.0877 314.494 12.2493H312.764C312.766 12.151 312.765 12.0528 312.763 11.9545V11.9545C312.76 11.7571 312.757 11.5597 312.786 11.3623C312.821 11.1323 312.955 10.8997 313.18 10.8104C313.464 10.6937 313.782 10.7713 314.052 10.8902C314.052 10.8029 314.052 10.7156 314.052 10.6284V10.6276C314.053 10.3771 314.053 10.1267 314.049 9.87638C313.481 9.72001 312.83 9.75056 312.325 10.0787C312.001 10.2924 311.765 10.616 311.66 10.9901C311.573 11.2734 311.577 11.5678 311.581 11.8615C311.582 11.9918 311.584 12.1219 311.578 12.2509L311.521 12.2505C311.267 12.2486 311.012 12.2467 310.757 12.2525C310.759 12.4633 310.758 12.674 310.757 12.8846V12.8851C310.757 12.9902 310.757 13.0953 310.757 13.2003C310.902 13.2033 311.048 13.2031 311.194 13.2029C311.323 13.2028 311.451 13.2026 311.58 13.2046C311.578 14.5344 311.578 15.8642 311.58 17.1938H312.763V13.2033H314.494V15.7463C314.499 16.1405 314.567 16.5633 314.828 16.8751C315.054 17.1511 315.414 17.2772 315.761 17.3022C316.126 17.3281 316.504 17.2835 316.842 17.1379V16.1665C316.583 16.34 316.225 16.4089 315.943 16.2509C315.774 16.158 315.709 15.9589 315.687 15.7792C315.663 15.5752 315.665 15.37 315.668 15.1645C315.669 15.0628 315.67 14.9611 315.668 14.8593V13.2023C315.806 13.2034 315.944 13.2027 316.082 13.202C316.337 13.2007 316.59 13.1994 316.845 13.2098Z" fill="white"/>
<path d="M286.998 10.1484C286.669 10.1875 286.389 10.4832 286.397 10.8196C286.383 11.1379 286.639 11.4234 286.946 11.4786C287.241 11.5443 287.582 11.4181 287.734 11.1501C287.801 11.029 287.829 10.8904 287.814 10.7529C287.799 10.6155 287.743 10.4859 287.652 10.3817C287.494 10.1937 287.236 10.1123 286.998 10.1484Z" fill="white"/>
<path d="M282.49 13.3841L282.491 13.3836C282.91 12.3562 283.329 11.3287 283.743 10.2989C284.15 10.2923 284.558 10.2944 284.965 10.2964H284.965C285.109 10.2971 285.254 10.2979 285.398 10.2982V17.1971C285.233 17.1961 285.068 17.1965 284.903 17.1969H284.903C284.67 17.1975 284.437 17.1981 284.204 17.1948C284.206 16.2396 284.206 15.2848 284.205 14.3302V14.3298C284.205 13.5875 284.205 12.8451 284.206 12.1028C284.206 12.0252 284.204 11.949 284.198 11.8728C284.175 11.9081 284.154 11.945 284.136 11.9832C283.84 12.7369 283.541 13.4897 283.241 14.2424L283.241 14.2431C282.851 15.2249 282.461 16.2066 282.076 17.1905C281.911 17.1964 281.746 17.1957 281.581 17.1949H281.581C281.463 17.1944 281.344 17.1938 281.226 17.1958C280.803 16.1537 280.384 15.1102 279.964 14.0667L279.963 14.0646C279.684 13.3696 279.404 12.6745 279.124 11.9799C279.105 11.9438 279.085 11.9076 279.064 11.8748C279.055 12.338 279.056 12.8015 279.058 13.2649V13.265C279.058 13.5453 279.059 13.8256 279.058 14.1057V17.1938H277.932V10.2949H279.653C280.19 11.6539 280.727 13.0132 281.263 14.3728C281.313 14.4973 281.362 14.6223 281.411 14.7473L281.411 14.7476C281.496 14.9639 281.581 15.1804 281.672 15.3942C281.943 14.7245 282.216 14.0556 282.489 13.3866L282.49 13.3859L282.49 13.3855L282.49 13.3841Z" fill="white"/>
<path d="M292.011 12.2499C291.437 12.0863 290.828 12.0845 290.253 12.2447C289.729 12.3958 289.248 12.7174 288.941 13.1718C288.574 13.7043 288.444 14.3695 288.473 15.0072C288.502 15.6205 288.743 16.2329 289.189 16.6623C289.599 17.0604 290.164 17.2749 290.73 17.3048C291.284 17.3321 291.863 17.2579 292.347 16.9701C292.345 16.7725 292.345 16.575 292.345 16.3775C292.345 16.2179 292.346 16.0583 292.344 15.8988C292.033 16.1268 291.669 16.2901 291.283 16.3344C290.893 16.364 290.474 16.2687 290.176 16.0059C289.889 15.7611 289.736 15.3922 289.698 15.023C289.649 14.5502 289.715 14.0381 290.01 13.6524C290.127 13.4977 290.275 13.3692 290.445 13.2752C290.615 13.1812 290.803 13.1238 290.996 13.1067C291.481 13.0456 291.965 13.2302 292.346 13.5216C292.348 13.357 292.347 13.192 292.347 13.0272V13.0269C292.346 12.8144 292.346 12.602 292.35 12.3906C292.243 12.3292 292.129 12.2819 292.011 12.2499Z" fill="white"/>
<path d="M303.77 14.2704C303.937 14.3393 304.104 14.4082 304.26 14.4987C304.534 14.6524 304.799 14.8525 304.937 15.1432C305.197 15.6859 305.087 16.4031 304.629 16.8078C304.192 17.2165 303.562 17.3295 302.983 17.3078C302.571 17.2812 302.158 17.2001 301.78 17.0319C301.781 16.8709 301.781 16.7099 301.78 16.549C301.78 16.3287 301.78 16.1085 301.782 15.8883C302.1 16.1226 302.467 16.281 302.855 16.3515C303.127 16.3965 303.421 16.3965 303.672 16.2763C303.911 16.1564 303.956 15.8137 303.813 15.6041C303.683 15.448 303.495 15.3596 303.315 15.275L303.296 15.2661C303.225 15.2341 303.154 15.2032 303.082 15.1723L303.081 15.1722C302.801 15.0516 302.519 14.9304 302.275 14.7434C302.057 14.5758 301.901 14.3393 301.834 14.0723C301.74 13.679 301.768 13.2359 301.998 12.8922C302.259 12.4921 302.713 12.2519 303.175 12.1695C303.722 12.0732 304.294 12.1429 304.812 12.34V13.4274C304.448 13.1762 304.012 13.0477 303.57 13.0604C303.349 13.069 303.106 13.1626 303.005 13.3728C302.925 13.5808 302.979 13.8535 303.176 13.978C303.361 14.1018 303.566 14.1861 303.77 14.2704Z" fill="white"/>
<path d="M294.993 12.3252C294.698 12.493 294.508 12.792 294.382 13.0998V12.2509C293.993 12.2489 293.603 12.247 293.214 12.2509C293.216 13.8981 293.216 15.5454 293.214 17.1928H294.38V14.8275C294.371 14.4852 294.399 14.131 294.549 13.8179C294.687 13.5223 294.953 13.2644 295.289 13.2266C295.569 13.198 295.85 13.2641 296.088 13.4145V12.2319C295.735 12.1126 295.32 12.129 294.993 12.3252Z" fill="white"/>
<path d="M286.505 17.1938V12.2509C286.571 12.2506 286.636 12.2503 286.701 12.2499C287.028 12.2483 287.355 12.2466 287.682 12.2529C287.679 13.241 287.679 14.2293 287.68 15.2176C287.68 15.8763 287.68 16.5351 287.68 17.1938H286.505Z" fill="white"/>
<path fill-rule="evenodd" clip-rule="evenodd" d="M299.962 12.3593C299.436 12.1195 298.836 12.0873 298.268 12.1596C297.672 12.2348 297.091 12.5154 296.713 12.9907C296.367 13.4152 296.199 13.9605 296.167 14.5019C296.119 15.1396 296.226 15.816 296.6 16.3485C296.919 16.8084 297.422 17.1235 297.967 17.2398C298.424 17.3349 298.895 17.3349 299.352 17.2398C299.884 17.1304 300.381 16.836 300.71 16.4017C301.032 15.9927 301.194 15.4769 301.23 14.9622C301.267 14.4365 301.214 13.8889 300.995 13.4027C300.788 12.9415 300.421 12.5708 299.962 12.3593ZM299.852 15.6737C299.74 15.9326 299.532 16.1375 299.271 16.2447C298.962 16.3581 298.625 16.3729 298.307 16.2871C298.147 16.2425 297.999 16.1649 297.871 16.0592C297.744 15.9536 297.64 15.8222 297.566 15.6737C297.376 15.2933 297.347 14.8524 297.386 14.4362C297.422 14.0568 297.554 13.6665 297.843 13.4047C298.053 13.2075 298.339 13.1133 298.622 13.0975C298.977 13.0742 299.356 13.1747 299.611 13.4332C299.884 13.702 299.99 14.0903 300.019 14.4638C300.04 14.8718 300.023 15.2959 299.852 15.6737Z" fill="white"/>
<path fill-rule="evenodd" clip-rule="evenodd" d="M307.697 12.1579C308.287 12.0847 308.914 12.1244 309.453 12.3964C309.924 12.6384 310.286 13.0485 310.469 13.5453C310.611 13.9208 310.661 14.3261 310.653 14.7259C310.654 15.3232 310.493 15.9362 310.118 16.4099C309.767 16.8685 309.23 17.1665 308.663 17.2601C308.109 17.3492 307.523 17.3265 306.997 17.1192C306.458 16.9052 306.026 16.4864 305.795 15.9546C305.561 15.4168 305.533 14.8117 305.61 14.2371C305.686 13.6625 305.946 13.1008 306.39 12.7187C306.753 12.3997 307.221 12.219 307.697 12.1579ZM309.096 15.9474C309.267 15.7414 309.357 15.4819 309.402 15.2217V15.2227C309.461 14.8725 309.458 14.5145 309.392 14.1655C309.333 13.8679 309.202 13.5742 308.965 13.3771C308.707 13.1514 308.351 13.0742 308.017 13.0975C307.69 13.1175 307.365 13.2568 307.154 13.5117C306.922 13.7857 306.822 14.1461 306.795 14.4973C306.768 14.86 306.795 15.2355 306.936 15.5745C307.053 15.859 307.274 16.1064 307.56 16.2273C307.825 16.3413 308.123 16.3616 308.406 16.3193C308.669 16.2805 308.926 16.1534 309.096 15.9474Z" fill="white"/>
<path d="M263 8H268.47C268.47 9.82327 268.47 11.6465 268.47 13.4698H263V8Z" fill="#F25022"/>
<path d="M269.028 8H274.498C274.498 9.82327 274.498 11.6465 274.498 13.4698H269.029C269.029 11.6465 269.029 9.82327 269.029 8H269.028Z" fill="#80BA01"/>
<path d="M263 14.0273C264.823 14.0273 266.647 14.0273 268.47 14.0273C268.47 15.8506 268.47 17.6738 268.47 19.4968H263V14.0273Z" fill="#02A4EF"/>
<path d="M269.029 14.0273C270.851 14.0273 272.675 14.0273 274.498 14.0273V19.4972H269.028C269.028 17.6739 269.028 15.8507 269.028 14.0277L269.029 14.0273Z" fill="#FFB902"/>
<path d="M193.318 9.03516V13.9152H190.879V11.4748H188.44V9.03516H193.318Z" fill="#2C9382"/>
<path d="M190.879 13.9169V16.3559H186V11.4766H188.44V13.9169H190.879Z" fill="white"/>
<path d="M190.879 16.3555H193.319V18.7958H190.879V16.3555Z" fill="#F25E30"/>
<path d="M199.814 18.7678V16.3208C199.58 16.6501 199.09 16.8632 198.431 16.8632C196.92 16.8632 195.813 15.7032 195.813 14.0862C195.813 12.5115 196.856 11.3307 198.367 11.3307C199.304 11.3307 199.74 11.7561 199.857 11.9799V11.4584H201.403V18.7678H199.814ZM198.644 15.4189C199.271 15.4189 199.835 14.9827 199.835 14.0996C199.835 13.2165 199.271 12.7911 198.644 12.7911C198.016 12.7911 197.452 13.2165 197.452 14.0996C197.452 14.9693 198.016 15.4189 198.644 15.4189ZM206.123 16.214C205.847 16.6716 205.24 16.8632 204.708 16.8632C203.421 16.8632 202.698 15.927 202.698 14.7993V11.4584H204.315V14.4585C204.315 14.9693 204.591 15.3739 205.166 15.3739C205.708 15.3739 206.049 15.0016 206.049 14.4693V11.4584H207.666V15.7993C207.666 16.1157 207.683 16.4319 207.719 16.7462H206.166C206.139 16.57 206.125 16.3922 206.123 16.214ZM209.028 16.7462V11.4584H210.645V16.7462H209.028ZM213.219 14.1077C213.219 14.9485 213.784 15.4189 214.455 15.4189C215.082 15.4189 215.433 15.0251 215.55 14.6319L216.976 15.0681C216.742 15.9935 215.869 16.9082 214.455 16.9082C212.88 16.9082 211.614 15.7489 211.614 14.1104C211.614 12.4611 212.848 11.3011 214.401 11.3011C215.859 11.3011 216.71 12.195 216.944 13.1419L215.497 13.5781C215.38 13.1749 215.061 12.7911 214.433 12.7911C213.763 12.7884 213.219 13.2562 213.219 14.1077ZM221.157 13.6823L223.264 16.7462H221.284L220.04 14.8846L219.518 15.4485V16.7462H217.902V9.04297H219.519V13.2353L221.126 11.4584H223.222L221.157 13.6823ZM223.967 16.7462V9.04297H225.552V11.9584C225.776 11.6284 226.358 11.3307 227.084 11.3307C228.616 11.3307 229.542 12.5008 229.542 14.0862C229.542 15.7032 228.499 16.8632 227.02 16.8632C226.318 16.8632 225.776 16.5547 225.53 16.1501V16.7462H223.967ZM226.733 12.7884C226.105 12.7884 225.53 13.2031 225.53 14.0969C225.53 14.9706 226.105 15.4162 226.733 15.4162C227.36 15.4162 227.924 14.98 227.924 14.0969C227.924 13.2011 227.36 12.7884 226.733 12.7884ZM231.769 13.6924L233.013 13.5008C233.3 13.4585 233.396 13.32 233.396 13.1392C233.396 12.8308 233.128 12.5646 232.619 12.5646C232.056 12.5646 231.746 12.9477 231.716 13.3415L230.311 13.0546C230.378 12.2992 231.077 11.2984 232.63 11.2984C234.343 11.2984 234.971 12.2561 234.971 13.3415V15.927C234.972 16.2014 234.994 16.4754 235.038 16.7462H233.574C233.534 16.5503 233.516 16.3502 233.521 16.1501C233.247 16.597 232.734 16.8975 232.031 16.8975C230.872 16.8975 230.202 16.1313 230.202 15.2905C230.202 14.3523 230.895 13.8201 231.769 13.6924ZM233.396 14.6716V14.4377L232.394 14.597C232.053 14.6501 231.798 14.81 231.798 15.1823C231.798 15.4586 231.978 15.7247 232.425 15.7247C232.904 15.7247 233.394 15.4908 233.394 14.6716H233.396ZM237.203 15.0016C237.224 15.3631 237.479 15.7139 238.032 15.7139C238.448 15.7139 238.65 15.4908 238.65 15.2569C238.65 15.0654 238.522 14.9054 238.128 14.8201L237.524 14.6857C236.396 14.441 235.949 13.8059 235.949 13.0579C235.949 12.0895 236.8 11.3018 237.981 11.3018C239.513 11.3018 240.045 12.2595 240.098 12.8765L238.758 13.1177C238.716 12.7669 238.489 12.4692 238.003 12.4692C237.694 12.4692 237.428 12.65 237.428 12.9269C237.428 13.15 237.609 13.2777 237.843 13.32L238.545 13.4585C239.639 13.6823 240.17 14.3436 240.17 15.1185C240.17 16.0224 239.477 16.9055 238.063 16.9055C236.403 16.9055 235.871 15.8302 235.828 15.2462L237.203 15.0016ZM245.959 15.2247C245.704 16.1394 244.863 16.9049 243.523 16.9049C242.065 16.9049 240.768 15.8625 240.768 14.0855C240.768 12.3832 242.034 11.2978 243.407 11.2978C245.045 11.2978 246.056 12.3059 246.056 14.0109C246.057 14.1781 246.047 14.3453 246.024 14.5109H242.342C242.374 15.1071 242.916 15.5325 243.544 15.5325C244.129 15.5325 244.459 15.2563 244.608 14.8409L245.959 15.2247ZM244.491 13.4699C244.47 13.0667 244.193 12.576 243.427 12.576C242.746 12.576 242.405 13.0761 242.374 13.4699H244.491ZM209.034 9.04297H210.644V10.6533H209.034V9.04297Z" fill="white"/>
<path d="M67.8623 12.0385C67.9098 12.1863 67.9144 12.3444 67.8755 12.4947C67.8236 12.702 67.6839 12.9094 67.2738 12.9094C66.8879 12.9094 66.6514 12.6875 66.6514 12.3516V11.7544H65V12.2293C65 13.604 66.0823 14.018 67.2399 14.018C68.3561 14.018 69.2724 13.6386 69.419 12.6108C69.4737 12.2753 69.4711 11.9329 69.4114 11.5982C69.2615 10.8551 68.4241 10.4121 67.7068 10.0327C67.1765 9.75228 66.7119 9.50652 66.639 9.19983C66.6138 9.09398 66.6109 8.98405 66.6307 8.87705C66.6749 8.67937 66.8098 8.46234 67.1943 8.46234C67.5546 8.46234 67.7669 8.68421 67.7669 9.02081V9.40165H69.3063V8.96967C69.3063 7.62809 68.0996 7.41797 67.2268 7.41797C66.1321 7.41797 65.2365 7.78015 65.0719 8.78581C65.0223 9.06059 65.0275 9.34245 65.0871 9.61523C65.239 10.3353 66.0204 10.7629 66.7214 11.1465C67.2463 11.4338 67.7261 11.6963 67.8623 12.0385Z" fill="white"/>
<path d="M72.9638 8.18593L72.1222 13.7741H70.4549L71.598 7.61364H74.34L75.477 13.7741H73.82L72.9984 8.18593H72.9638Z" fill="white"/>
<path d="M100.697 12.4497L100.612 7.61422H102.139V13.7104H99.9428L98.4221 8.70904H98.3882L98.4733 13.7104H96.9574V7.61422H99.2457L100.661 12.4497H100.697Z" fill="white"/>
<path d="M80.9112 7.61422L80.1498 12.3239H80.1159L79.3566 7.61422H76.8421L76.7066 13.774H78.2494L78.2875 8.23628H78.322L79.3511 13.774H80.9161L81.9458 8.23835L81.979 8.23628L82.0177 13.774H83.5606L83.4243 7.61422H80.9112Z" fill="white"/>
<path d="M87.9125 12.4768C87.9525 12.3282 87.9487 12.1712 87.9014 12.0248L87.9008 12.0241C87.7657 11.6857 87.2906 11.4259 86.7708 11.1417C86.0771 10.7625 85.3038 10.3397 85.1532 9.62847C85.0938 9.35776 85.0887 9.07799 85.138 8.80528C85.2998 7.80998 86.1871 7.45126 87.2708 7.45126C88.1359 7.45126 89.3295 7.65999 89.3295 8.98775V9.41628H87.8081V9.03889C87.8081 8.70575 87.5992 8.48595 87.2403 8.48595C86.86 8.48595 86.7265 8.69883 86.6829 8.89513C86.6633 9.00115 86.6657 9.11007 86.6898 9.21514C86.7633 9.51812 87.2233 9.76137 87.7479 10.0388C88.4583 10.4145 89.2873 10.8529 89.4353 11.5873C89.494 11.9179 89.4961 12.2561 89.4415 12.5874C89.297 13.6062 88.3911 13.9829 87.2846 13.9829C86.1387 13.9829 85.0668 13.5716 85.0668 12.2114V11.7407H86.7051V12.3317C86.7051 12.6655 86.9367 12.8846 87.3178 12.8846C87.7237 12.8846 87.8634 12.6786 87.9125 12.4768Z" fill="white"/>
<path d="M93.0743 12.8519C93.5037 12.8519 93.6358 12.5574 93.6662 12.4047C93.6784 12.327 93.6833 12.2483 93.6808 12.1697V7.6148H95.2395V12.0307C95.2395 12.1434 95.2305 12.3763 95.2257 12.4358C95.1171 13.5852 94.207 13.9564 93.0743 13.9564C91.9415 13.9564 91.0328 13.5838 90.9242 12.4358C90.918 12.3743 90.9069 12.1434 90.9104 12.0307V7.6148H92.4698V12.1697C92.4661 12.2483 92.4707 12.327 92.4837 12.4047C92.5141 12.5574 92.6469 12.8519 93.0743 12.8519Z" fill="white"/>
<path d="M106.561 12.3406C106.533 12.5051 106.376 12.7885 105.93 12.7885V12.7892C105.484 12.7892 105.329 12.5058 105.3 12.3413C105.289 12.2639 105.284 12.1858 105.286 12.1077V9.29323C105.284 9.19565 105.293 9.09816 105.311 9.00224C105.345 8.85018 105.477 8.55574 105.925 8.55574C106.396 8.55574 106.513 8.86401 106.54 9.00224C106.553 9.07968 106.56 9.15803 106.561 9.23655V9.58214H108.113V9.37479C108.116 9.23918 108.112 9.10348 108.1 8.96838C107.986 7.81411 107.031 7.44778 105.937 7.44778C104.842 7.44778 103.911 7.81687 103.773 8.96838C103.761 9.07205 103.746 9.2642 103.746 9.37479V11.9695C103.747 12.105 103.755 12.2404 103.769 12.3752C103.872 13.4956 104.845 13.8958 105.937 13.8958C107.029 13.8958 108.002 13.497 108.104 12.3752C108.123 12.1699 108.127 12.0849 108.127 11.9695V10.3148H105.943V11.2133H106.575V12.107C106.576 12.1851 106.572 12.2632 106.561 12.3406Z" fill="white"/>
<path d="M99.6317 19.6228C99.7544 19.8017 99.9247 19.9427 100.123 20.0299C100.319 20.1197 100.531 20.1669 100.746 20.1681C100.854 20.1689 100.962 20.1545 101.066 20.1252C101.162 20.0997 101.252 20.0561 101.332 19.9967C101.41 19.9353 101.471 19.8568 101.513 19.7672C101.561 19.6618 101.584 19.547 101.582 19.4313C101.584 19.3189 101.555 19.2081 101.498 19.1113C101.439 19.0148 101.362 18.9302 101.271 18.8618C101.171 18.7851 101.063 18.719 100.948 18.6648C100.828 18.6077 100.703 18.5505 100.573 18.4934C100.426 18.4298 100.281 18.3634 100.137 18.2971C99.9978 18.2336 99.8683 18.1517 99.7513 18.0538C99.6408 17.9609 99.5472 17.8496 99.4747 17.7248C99.3998 17.5835 99.3631 17.425 99.3682 17.2652C99.3636 17.1024 99.399 16.9411 99.4713 16.7953C99.5437 16.6494 99.6508 16.5236 99.7832 16.4288C99.9142 16.3344 100.061 16.2642 100.217 16.2215C100.382 16.1754 100.553 16.1522 100.724 16.1524C100.993 16.1516 101.26 16.2064 101.507 16.3134C101.755 16.42 101.967 16.598 102.114 16.8249L101.72 17.1345C101.606 16.9783 101.459 16.8492 101.289 16.7564C101.114 16.6595 100.917 16.6095 100.717 16.6113C100.459 16.6113 100.261 16.667 100.123 16.7786C100.055 16.8337 100.001 16.904 99.9645 16.9838C99.9285 17.0636 99.9116 17.1507 99.9152 17.2382C99.9122 17.3356 99.9379 17.4318 99.9892 17.5147C100.045 17.595 100.115 17.664 100.197 17.7179C100.298 17.7856 100.405 17.845 100.516 17.8955C100.641 17.9536 100.782 18.0178 100.937 18.0863C101.092 18.1547 101.228 18.2245 101.37 18.2998C101.507 18.3693 101.635 18.4549 101.752 18.5549C101.864 18.652 101.956 18.7692 102.024 18.9005C102.096 19.0496 102.131 19.2139 102.127 19.3795C102.132 19.5749 102.093 19.7691 102.013 19.9476C101.943 20.1008 101.838 20.2358 101.707 20.3423C101.574 20.4475 101.421 20.5244 101.257 20.5683C101.079 20.6162 100.895 20.6394 100.711 20.6374C100.564 20.6375 100.417 20.6212 100.273 20.589C100.131 20.5576 99.9916 20.5113 99.8585 20.4508C99.7286 20.3919 99.6067 20.3169 99.4955 20.2275C99.3876 20.1429 99.2942 20.0414 99.2188 19.9269L99.6317 19.6228Z" fill="white"/>
<path d="M77.3961 19.6228C77.519 19.8015 77.6892 19.9425 77.8878 20.0299C78.083 20.1199 78.2953 20.167 78.5102 20.1681C78.6184 20.1689 78.7262 20.1544 78.8304 20.1253C78.9263 20.1002 79.0163 20.0565 79.0953 19.9967C79.173 19.9356 79.2351 19.857 79.2765 19.7672C79.3243 19.6618 79.3479 19.547 79.3456 19.4313C79.3482 19.3188 79.319 19.2079 79.2613 19.1113C79.2025 19.0147 79.126 18.93 79.0358 18.8618C78.9349 18.7849 78.8262 18.7189 78.7115 18.6648C78.5911 18.6074 78.466 18.5501 78.3373 18.4934C78.1907 18.4298 78.0448 18.3634 77.8996 18.2971C77.7613 18.2333 77.632 18.1515 77.5151 18.0538C77.4044 17.9611 77.3107 17.8498 77.2385 17.7248C77.1635 17.5835 77.1268 17.425 77.132 17.2652C77.1287 17.097 77.1674 16.9307 77.2447 16.7813C77.3183 16.6434 77.4223 16.524 77.549 16.4323C77.68 16.3379 77.8268 16.2677 77.9826 16.2249C78.1478 16.1789 78.3186 16.1557 78.4902 16.1558C78.7592 16.1552 79.0255 16.21 79.2723 16.3169C79.521 16.4237 79.7325 16.6017 79.8802 16.8283L79.486 17.138C79.3724 16.982 79.2258 16.8529 79.0566 16.7599C78.8813 16.6632 78.6841 16.6132 78.484 16.6148C78.2246 16.6148 78.0268 16.6708 77.8885 16.782C77.8204 16.8371 77.7662 16.9074 77.7302 16.9872C77.6941 17.067 77.6773 17.1542 77.6811 17.2417C77.6777 17.3391 77.7034 17.4354 77.7551 17.5181C77.8104 17.5986 77.8809 17.6677 77.9625 17.7213C78.0641 17.7889 78.171 17.8483 78.282 17.899C78.4072 17.957 78.5476 18.0213 78.7025 18.0897C78.8574 18.1582 78.9936 18.228 79.1361 18.3033C79.273 18.3725 79.401 18.4581 79.5171 18.5584C79.6289 18.6554 79.7214 18.7726 79.7896 18.904C79.8616 19.0532 79.8969 19.2174 79.8927 19.3829C79.8978 19.5784 79.859 19.7726 79.7792 19.9511C79.7091 20.1048 79.6039 20.2399 79.4722 20.3458C79.3395 20.4512 79.1865 20.5282 79.0227 20.5718C78.8446 20.6197 78.6608 20.643 78.4763 20.6409C78.3295 20.641 78.1832 20.6248 78.04 20.5925C77.8972 20.561 77.7582 20.5147 77.625 20.4543C77.4956 20.3953 77.374 20.3203 77.2634 20.231C77.1554 20.1465 77.0619 20.045 76.9867 19.9304L77.3961 19.6228Z" fill="white"/>
<path fill-rule="evenodd" clip-rule="evenodd" d="M65.2227 16.2354V20.5477H66.7828C66.9596 20.5487 67.1354 20.5202 67.3029 20.4634C67.4555 20.4115 67.5964 20.3302 67.7178 20.2242C67.8362 20.1196 67.9305 19.9906 67.9944 19.8461C68.0636 19.6882 68.0985 19.5174 68.0968 19.345C68.1018 19.1757 68.0668 19.0075 67.9944 18.8543C67.932 18.7285 67.8439 18.6171 67.7358 18.5274C67.6313 18.4423 67.5116 18.3778 67.3831 18.3373C67.257 18.2968 67.1269 18.2697 66.9951 18.2564C67.2297 18.2254 67.45 18.1261 67.6286 17.971C67.7925 17.8224 67.8748 17.6102 67.8748 17.3337C67.8811 17.1825 67.8528 17.0318 67.7922 16.8932C67.7316 16.7545 67.6401 16.6314 67.5248 16.5333C67.2925 16.3347 66.9541 16.2354 66.5096 16.2354H65.2227ZM66.4654 18.065H65.7406V16.6812H66.5297C66.7902 16.6812 66.9896 16.7374 67.1279 16.8499C67.1966 16.9096 67.2507 16.9842 67.2859 17.0681C67.3212 17.152 67.3367 17.2429 67.3312 17.3337C67.3368 17.4354 67.3191 17.5371 67.2793 17.6309C67.2395 17.7248 67.1787 17.8082 67.1016 17.8749C66.9495 18.0014 66.7358 18.065 66.4654 18.065ZM66.7358 20.1012H65.7406V18.5135H66.4847C66.8333 18.5135 67.0975 18.5827 67.2766 18.7209C67.4557 18.8591 67.5449 19.0665 67.5449 19.343C67.5449 19.6015 67.4709 19.7922 67.3257 19.9153C67.1575 20.0454 66.9483 20.1114 66.7358 20.1012Z" fill="white"/>
<path d="M71.4682 19.0084V16.2354H70.9516V19.1059C70.9467 19.3336 70.9876 19.5599 71.0719 19.7715C71.1462 19.9526 71.2601 20.1149 71.4052 20.2463C71.5504 20.3758 71.7209 20.4737 71.9059 20.5339C72.1067 20.6001 72.3169 20.633 72.5283 20.6313C72.7351 20.632 72.9406 20.599 73.1369 20.5339C73.3253 20.4724 73.4998 20.3747 73.6507 20.2463C73.802 20.1154 73.9232 19.9535 74.0062 19.7715C74.0984 19.5619 74.1437 19.3348 74.139 19.1059V16.2354H73.621V19.0084C73.621 19.3913 73.5269 19.6768 73.3367 19.8752C73.1466 20.0735 72.8782 20.1724 72.5415 20.1724C72.2047 20.1724 71.9426 20.0708 71.7524 19.8655C71.5622 19.6602 71.4682 19.3754 71.4682 19.0084Z" fill="white"/>
<path d="M83.273 16.2354V20.547H83.791V16.2354H83.273Z" fill="white"/>
<path d="M87.356 20.547V16.2354H87.8795L90.053 19.448V16.2354H90.5634V20.547H90.1817L87.8663 17.127V20.547H87.356Z" fill="white"/>
<path d="M93.9499 16.2354V20.547H96.6214V20.1005H94.461V18.5115H95.8967V18.0643H94.4679V16.6812H96.4658V16.2354H93.9499Z" fill="white"/>
<path d="M105.895 20.0299C105.697 19.9425 105.527 19.8015 105.404 19.6228L104.993 19.9304C105.068 20.0451 105.161 20.1467 105.269 20.231C105.38 20.3205 105.501 20.3955 105.631 20.4543C105.764 20.5147 105.903 20.561 106.046 20.5925C106.189 20.6247 106.335 20.6409 106.482 20.6409C106.667 20.643 106.851 20.6197 107.029 20.5718C107.193 20.5282 107.346 20.4512 107.479 20.3458C107.61 20.2395 107.715 20.1045 107.786 19.9511C107.866 19.7726 107.904 19.5784 107.899 19.3829C107.903 19.2173 107.868 19.053 107.796 18.904C107.728 18.7724 107.636 18.655 107.524 18.5584C107.407 18.4583 107.279 18.3726 107.142 18.3033C107 18.228 106.855 18.1589 106.71 18.0897C106.554 18.0213 106.414 17.957 106.289 17.899C106.178 17.8485 106.071 17.7891 105.969 17.7213C105.887 17.6678 105.817 17.5988 105.762 17.5181C105.71 17.4354 105.684 17.3391 105.688 17.2417C105.684 17.1542 105.701 17.0671 105.737 16.9873C105.773 16.9075 105.827 16.8372 105.895 16.782C106.033 16.6705 106.232 16.6148 106.491 16.6148C106.691 16.613 106.888 16.663 107.062 16.7599C107.232 16.8526 107.379 16.9817 107.493 17.138L107.888 16.8283C107.74 16.6015 107.528 16.4235 107.28 16.3169C107.033 16.2099 106.767 16.1551 106.497 16.1558C106.326 16.1557 106.155 16.1789 105.989 16.2249C105.834 16.2678 105.687 16.338 105.556 16.4323C105.429 16.5241 105.326 16.6435 105.253 16.7813C105.175 16.9306 105.136 17.0969 105.139 17.2652C105.134 17.4251 105.171 17.5835 105.246 17.7248C105.318 17.8498 105.412 17.9611 105.522 18.0538C105.639 18.1516 105.769 18.2334 105.907 18.2971C106.051 18.3634 106.197 18.4298 106.344 18.4934C106.474 18.5505 106.599 18.6077 106.719 18.6648C106.834 18.7191 106.942 18.7851 107.042 18.8618C107.133 18.9303 107.21 19.0148 107.269 19.1113C107.326 19.2082 107.355 19.319 107.353 19.4313C107.356 19.5471 107.332 19.6619 107.284 19.7672C107.242 19.8568 107.18 19.9354 107.103 19.9967C107.023 20.0562 106.933 20.0999 106.837 20.1253C106.733 20.1544 106.626 20.1689 106.518 20.1681C106.303 20.1667 106.09 20.1196 105.895 20.0299Z" fill="white"/>
<path fill-rule="evenodd" clip-rule="evenodd" d="M147.047 3.10232C147.734 2.37621 148.583 1.82321 149.524 1.4887C150.466 1.1542 151.473 1.04773 152.464 1.17803C153.455 1.30832 154.401 1.67167 155.224 2.23826C156.047 2.80485 156.724 3.55853 157.199 4.43746C158.194 3.99491 159.271 3.76742 160.359 3.76989C162.412 3.81593 164.365 4.6637 165.801 6.13173C167.236 7.59977 168.04 9.57142 168.04 11.6247C168.04 13.6779 167.236 15.6495 165.801 17.1176C164.365 18.5856 162.412 19.4334 160.359 19.4794C159.844 19.4804 159.331 19.4288 158.827 19.3254C158.118 20.5932 156.951 21.5419 155.565 21.9774C154.179 22.4129 152.679 22.3021 151.373 21.6678C150.864 22.8659 150.007 23.8836 148.913 24.5888C147.82 25.294 146.539 25.6542 145.238 25.6227C143.936 25.5912 142.675 25.1694 141.616 24.4121C140.558 23.6548 139.751 22.5968 139.301 21.3755C138.894 21.4624 138.478 21.5061 138.061 21.5058C136.723 21.4966 135.425 21.0481 134.367 20.2292C133.309 19.4103 132.55 18.2664 132.206 16.9736C131.861 15.6808 131.951 14.3107 132.462 13.0741C132.972 11.8375 133.875 10.8029 135.031 10.1295C134.36 8.55842 134.286 6.7965 134.822 5.17436C135.358 3.55223 136.467 2.18135 137.942 1.31893C139.416 0.456522 141.155 0.161843 142.831 0.490187C144.508 0.81853 146.007 1.74733 147.047 3.10232Z" fill="#00A1E0"/>
<path fill-rule="evenodd" clip-rule="evenodd" d="M137.248 13.4447L137.394 13.0497C137.396 13.0393 137.401 13.0296 137.408 13.0217C137.415 13.0138 137.424 13.008 137.434 13.0047C137.444 13.0015 137.455 13.0011 137.465 13.0034C137.475 13.0057 137.485 13.0108 137.493 13.0181L137.615 13.0931C137.9 13.2754 138.232 13.3714 138.571 13.3696C138.891 13.3696 139.092 13.1998 139.092 12.9746C139.092 12.7257 138.784 12.6309 138.429 12.5203L138.35 12.4966C137.86 12.3584 137.339 12.1569 137.339 11.5368C137.343 11.3938 137.376 11.2533 137.437 11.124C137.499 10.9948 137.586 10.8797 137.694 10.7861C137.802 10.6925 137.929 10.6224 138.065 10.5802C138.202 10.5381 138.346 10.5248 138.488 10.5413H138.563C138.937 10.5415 139.303 10.641 139.626 10.8297C139.64 10.8373 139.652 10.8497 139.658 10.8648C139.665 10.8799 139.666 10.8968 139.661 10.9127L139.511 11.3077C139.483 11.3788 139.412 11.3314 139.412 11.3314C139.121 11.1811 138.8 11.0987 138.472 11.0904C138.184 11.0904 137.998 11.2445 137.998 11.4499C137.998 11.6908 138.314 11.7935 138.682 11.912L138.745 11.9318C139.231 12.0858 139.752 12.2991 139.752 12.8877C139.752 13.5197 139.29 13.9147 138.567 13.9147C138.191 13.9246 137.818 13.8376 137.485 13.6619C137.418 13.6224 137.346 13.5869 137.279 13.5395C137.279 13.5395 137.244 13.5158 137.279 13.4565L137.248 13.4447ZM148.095 13.4447L148.241 13.0497C148.244 13.0399 148.249 13.0311 148.256 13.0238C148.263 13.0166 148.272 13.0112 148.282 13.0081C148.292 13.005 148.302 13.0043 148.312 13.006C148.322 13.0077 148.331 13.0119 148.34 13.0181L148.462 13.0931C148.742 13.272 149.066 13.3679 149.398 13.3696C149.722 13.3696 149.92 13.1998 149.92 12.9746C149.92 12.7257 149.615 12.6309 149.256 12.5203L149.177 12.4966C148.691 12.3584 148.166 12.1569 148.166 11.5368C148.166 10.9482 148.64 10.5413 149.319 10.5413H149.398C149.772 10.5421 150.138 10.6416 150.461 10.8297C150.475 10.8373 150.487 10.8497 150.493 10.8648C150.5 10.8799 150.501 10.8968 150.496 10.9127C150.496 10.9482 150.358 11.28 150.346 11.3077C150.334 11.3353 150.247 11.3314 150.247 11.3314C149.955 11.181 149.632 11.0986 149.303 11.0904C149.015 11.0904 148.833 11.2445 148.833 11.4499C148.833 11.6908 149.149 11.7935 149.517 11.912L149.58 11.9318C150.066 12.0858 150.587 12.2991 150.587 12.8877C150.587 13.5197 150.125 13.9147 149.402 13.9147C149.026 13.9255 148.653 13.8384 148.32 13.6619C148.253 13.6224 148.182 13.5869 148.114 13.5395C148.047 13.4921 148.071 13.5039 148.095 13.4447ZM156.113 11.5368C156.234 11.9709 156.234 12.4299 156.113 12.864C156.059 13.0607 155.963 13.2438 155.833 13.4012C155.703 13.5545 155.541 13.6772 155.359 13.7607C154.934 13.9345 154.457 13.9345 154.032 13.7607C153.849 13.6772 153.687 13.5545 153.558 13.4012C153.428 13.2438 153.332 13.0607 153.277 12.864C153.213 12.6434 153.184 12.4142 153.19 12.1846C153.187 11.9601 153.218 11.7364 153.281 11.521C153.338 11.3298 153.433 11.1523 153.562 10.9996C153.69 10.8454 153.852 10.7225 154.036 10.6401C154.246 10.5514 154.471 10.5058 154.699 10.5058C154.927 10.5058 155.153 10.5514 155.363 10.6401C155.546 10.7231 155.708 10.8459 155.837 10.9996C155.966 11.1573 156.06 11.3403 156.113 11.5368ZM155.501 12.1846C155.517 11.8923 155.448 11.6016 155.304 11.3472C155.237 11.2504 155.146 11.1729 155.04 11.1223C154.934 11.0717 154.816 11.0498 154.699 11.0588C154.583 11.0497 154.466 11.0716 154.36 11.1222C154.255 11.1728 154.165 11.2504 154.099 11.3472C153.956 11.602 153.888 11.8927 153.905 12.1846C153.888 12.4778 153.955 12.7698 154.099 13.026C154.17 13.1149 154.26 13.1867 154.363 13.236C154.465 13.2853 154.577 13.311 154.691 13.311C154.805 13.311 154.917 13.2853 155.02 13.236C155.123 13.1867 155.213 13.1149 155.284 13.026C155.438 12.7731 155.513 12.4804 155.501 12.1846ZM161.197 13.2235L161.347 13.6422C161.353 13.6554 161.354 13.6704 161.35 13.6842C161.345 13.698 161.336 13.7098 161.324 13.7172C161.043 13.8209 160.746 13.8744 160.447 13.8752C160.222 13.8896 159.997 13.8558 159.786 13.7761C159.576 13.6964 159.385 13.5726 159.226 13.4131C158.945 13.0675 158.804 12.6291 158.831 12.1846C158.83 11.958 158.864 11.7327 158.934 11.517C158.993 11.3273 159.09 11.1513 159.218 10.9996C159.356 10.8456 159.526 10.723 159.716 10.6401C159.933 10.5483 160.167 10.5026 160.403 10.5058C160.559 10.505 160.715 10.5155 160.869 10.5374C161.004 10.5622 161.136 10.5979 161.264 10.644C161.272 10.6452 161.279 10.6482 161.286 10.6526C161.292 10.6571 161.298 10.663 161.301 10.6699C161.305 10.6768 161.307 10.6844 161.308 10.6923C161.308 10.7001 161.307 10.7079 161.304 10.7151L161.15 11.1378C161.126 11.201 161.079 11.1813 161.079 11.1813C160.878 11.1155 160.669 11.0821 160.458 11.0825C160.328 11.0734 160.198 11.096 160.078 11.1482C159.958 11.2005 159.853 11.281 159.771 11.3827C159.604 11.6217 159.521 11.9092 159.534 12.2004C159.51 12.5058 159.605 12.8087 159.799 13.0457C159.892 13.1357 160.003 13.2056 160.125 13.2511C160.247 13.2966 160.376 13.3168 160.506 13.3104C160.62 13.311 160.733 13.3031 160.846 13.2867C160.944 13.2679 161.041 13.2402 161.134 13.2037C161.147 13.2018 161.16 13.2042 161.172 13.2107C161.183 13.2171 161.192 13.2272 161.197 13.2393V13.2235ZM164.357 11.4064C164.436 11.7053 164.453 12.017 164.409 12.3228C164.405 12.3376 164.397 12.3509 164.386 12.3608C164.375 12.3708 164.36 12.3768 164.345 12.3781H162.252C162.239 12.5076 162.255 12.6383 162.3 12.7606C162.344 12.8828 162.416 12.9933 162.51 13.0837C162.603 13.1742 162.716 13.2423 162.84 13.2829C162.963 13.3236 163.095 13.3356 163.224 13.3183C163.518 13.3295 163.812 13.2769 164.085 13.1642C164.092 13.1611 164.1 13.1595 164.108 13.1596C164.116 13.1597 164.124 13.1615 164.132 13.1648C164.139 13.1681 164.146 13.173 164.151 13.179C164.157 13.185 164.161 13.1921 164.164 13.1998L164.302 13.5948C164.33 13.658 164.302 13.6817 164.302 13.6935C163.973 13.8503 163.611 13.9222 163.247 13.9029C162.983 13.9065 162.72 13.8596 162.473 13.7646C162.274 13.6905 162.094 13.5715 161.948 13.417C161.807 13.2659 161.703 13.0849 161.643 12.8877C161.577 12.6716 161.545 12.4463 161.549 12.2201C161.547 11.9941 161.579 11.7691 161.643 11.5526C161.697 11.3507 161.793 11.1623 161.924 10.9996C162.055 10.8428 162.22 10.7173 162.406 10.6322C162.624 10.5374 162.86 10.4915 163.097 10.4979C163.302 10.4971 163.505 10.5388 163.694 10.6203C163.845 10.6914 163.98 10.7937 164.089 10.9206C164.213 11.0633 164.305 11.2319 164.357 11.4143V11.4064ZM162.275 11.8409H163.769C163.758 11.6718 163.706 11.5079 163.619 11.363C163.556 11.2646 163.469 11.1845 163.365 11.1311C163.262 11.0776 163.146 11.0527 163.03 11.0588C162.913 11.0525 162.796 11.0773 162.691 11.1307C162.586 11.1841 162.497 11.2642 162.433 11.363C162.341 11.5129 162.283 11.6816 162.264 11.8567L162.275 11.8409ZM147.589 11.4064C147.672 11.6991 147.693 12.0057 147.652 12.307C147.65 12.3217 147.643 12.3353 147.633 12.3454C147.622 12.3555 147.608 12.3615 147.593 12.3623H145.499C145.487 12.6172 145.575 12.8668 145.744 13.0576C145.841 13.144 145.954 13.2105 146.077 13.2532C146.2 13.2959 146.33 13.314 146.459 13.3064C146.754 13.3176 147.048 13.2651 147.32 13.1524C147.328 13.1492 147.336 13.1476 147.344 13.1478C147.352 13.1479 147.36 13.1496 147.368 13.153C147.375 13.1563 147.382 13.1611 147.387 13.1671C147.393 13.1731 147.397 13.1802 147.399 13.1879L147.534 13.5829C147.561 13.6461 147.534 13.6698 147.534 13.6817C147.205 13.8379 146.843 13.9099 146.479 13.891C146.215 13.898 145.953 13.8551 145.705 13.7646C145.507 13.6929 145.329 13.5759 145.185 13.4229C145.041 13.2699 144.935 13.0852 144.875 12.8837C144.751 12.4473 144.751 11.985 144.875 11.5486C144.932 11.3491 145.028 11.1627 145.156 10.9996C145.287 10.8428 145.452 10.7173 145.638 10.6322C145.856 10.5378 146.092 10.4919 146.329 10.4979C146.535 10.4969 146.74 10.5386 146.929 10.6203C147.08 10.6929 147.214 10.795 147.324 10.9206C147.449 11.0666 147.54 11.2377 147.593 11.4222L147.589 11.4064ZM145.507 11.8409H147.028C147.022 11.6671 146.973 11.4974 146.886 11.3472C146.824 11.2491 146.738 11.1692 146.635 11.1158C146.532 11.0623 146.417 11.0372 146.301 11.043C146.183 11.0368 146.066 11.0616 145.961 11.115C145.855 11.1683 145.766 11.2484 145.701 11.3472C145.611 11.4986 145.554 11.6665 145.531 11.8409H145.507ZM141.818 11.7422L142.162 11.7817V11.7106C142.162 11.4301 142.102 11.3156 141.992 11.2129C141.846 11.1165 141.673 11.0682 141.498 11.0746C141.182 11.0782 140.87 11.151 140.586 11.2879H140.55C140.543 11.2904 140.537 11.2916 140.53 11.2913C140.523 11.2911 140.516 11.2894 140.51 11.2865C140.503 11.2835 140.498 11.2793 140.493 11.2741C140.489 11.2689 140.485 11.2629 140.483 11.2563L140.333 10.8613C140.325 10.8475 140.323 10.8313 140.326 10.816C140.33 10.8006 140.339 10.7872 140.352 10.7783C140.552 10.6635 140.77 10.5833 140.996 10.5413C141.182 10.5104 141.369 10.4932 141.557 10.49C141.902 10.4672 142.242 10.5696 142.517 10.7783C142.636 10.8994 142.727 11.0446 142.785 11.204C142.843 11.3635 142.866 11.5335 142.853 11.7027V13.6185C142.854 13.6335 142.85 13.6485 142.842 13.6608C142.833 13.6731 142.82 13.6819 142.805 13.6856L142.659 13.7251C142.588 13.7251 142.335 13.7923 142.13 13.8278C141.92 13.8627 141.707 13.8799 141.494 13.8792C141.308 13.8804 141.123 13.8619 140.941 13.8239C140.787 13.7926 140.642 13.7293 140.514 13.6382C140.397 13.554 140.303 13.4411 140.242 13.3104C140.173 13.1605 140.14 12.9971 140.143 12.8324C140.14 12.6647 140.18 12.499 140.258 12.3505C140.33 12.2134 140.435 12.0956 140.562 12.0068C140.693 11.9133 140.841 11.8438 140.996 11.8014C141.161 11.7636 141.329 11.7464 141.498 11.7501C141.628 11.7501 141.739 11.7501 141.826 11.7501L141.818 11.7422ZM140.984 13.2116C141.168 13.3225 141.385 13.3658 141.597 13.3341C141.787 13.3231 141.975 13.298 142.162 13.259V12.3228C141.973 12.2947 141.783 12.2788 141.593 12.2754C141.38 12.2547 141.167 12.3077 140.988 12.4255C140.927 12.4706 140.877 12.5302 140.844 12.5991C140.811 12.6681 140.795 12.7442 140.799 12.8205C140.794 12.9155 140.816 13.0099 140.862 13.0931C140.893 13.1472 140.936 13.1932 140.988 13.2274L140.984 13.2116ZM158.701 10.6638C158.701 10.7191 158.582 11.0075 158.543 11.1023C158.543 11.1378 158.507 11.1655 158.468 11.1576C158.392 11.1409 158.316 11.1316 158.238 11.1299C158.144 11.1308 158.049 11.1441 157.958 11.1694C157.86 11.2016 157.771 11.2557 157.697 11.3274C157.613 11.414 157.55 11.5197 157.516 11.6355C157.465 11.8139 157.442 11.9992 157.448 12.1846V13.7646C157.448 13.7814 157.442 13.7975 157.43 13.8093C157.418 13.8212 157.402 13.8278 157.385 13.8278H156.836C156.819 13.8278 156.803 13.8212 156.792 13.8093C156.78 13.7975 156.773 13.7814 156.773 13.7646V10.6361C156.772 10.628 156.774 10.6199 156.776 10.6123C156.779 10.6046 156.783 10.5976 156.789 10.5917C156.794 10.5857 156.801 10.581 156.809 10.5778C156.816 10.5746 156.824 10.5729 156.832 10.5729H157.369C157.378 10.5729 157.386 10.5746 157.393 10.5778C157.401 10.581 157.407 10.5857 157.413 10.5917C157.418 10.5976 157.423 10.6046 157.425 10.6123C157.428 10.6199 157.429 10.628 157.429 10.6361V10.8929C157.526 10.7804 157.648 10.6913 157.784 10.6322C157.954 10.5553 158.14 10.5253 158.325 10.5453C158.443 10.5525 158.56 10.5723 158.673 10.6045C158.68 10.6071 158.687 10.6112 158.692 10.6165C158.698 10.6217 158.702 10.6281 158.705 10.6351C158.708 10.6422 158.71 10.6498 158.71 10.6574C158.709 10.6651 158.708 10.6726 158.705 10.6796L158.701 10.6638ZM153.542 9.23386C153.55 9.23503 153.557 9.23797 153.563 9.24245C153.57 9.24693 153.575 9.25283 153.579 9.2597C153.583 9.26657 153.585 9.27422 153.585 9.28207C153.586 9.28992 153.584 9.29775 153.581 9.30496L153.419 9.74342C153.419 9.77897 153.419 9.79873 153.332 9.77502C153.241 9.74873 153.147 9.73413 153.052 9.73157C152.975 9.73051 152.899 9.74253 152.827 9.76712C152.761 9.78766 152.701 9.82432 152.653 9.87378C152.586 9.93596 152.535 10.0131 152.503 10.0989C152.454 10.2525 152.417 10.4097 152.392 10.569H153.064C153.119 10.569 153.139 10.5966 153.131 10.6361L153.052 11.0746C153.05 11.091 153.042 11.1061 153.03 11.1171C153.017 11.128 153.001 11.134 152.985 11.1339H152.294L151.824 13.8041C151.783 14.0436 151.721 14.279 151.638 14.5072C151.581 14.6786 151.492 14.8371 151.373 14.9733C151.268 15.0962 151.131 15.1889 150.978 15.242C150.813 15.3005 150.639 15.3286 150.465 15.3249C150.362 15.3269 150.26 15.3163 150.161 15.2933C150.094 15.2809 150.03 15.2624 149.967 15.238C149.952 15.2311 149.94 15.2185 149.934 15.203C149.928 15.1875 149.929 15.1703 149.935 15.1551L150.089 14.7284C150.096 14.7143 150.108 14.7032 150.123 14.6974C150.137 14.6915 150.154 14.6913 150.168 14.6968C150.204 14.7122 150.241 14.7241 150.279 14.7324C150.336 14.7363 150.392 14.7363 150.449 14.7324C150.532 14.7335 150.615 14.7215 150.694 14.6968C150.772 14.6702 150.839 14.6172 150.883 14.5467C150.948 14.4563 150.999 14.3564 151.034 14.2505C151.086 14.0917 151.127 13.9293 151.156 13.7646L151.626 11.1457H151.164C151.109 11.1457 151.089 11.1181 151.097 11.0786L151.172 10.644C151.174 10.6269 151.183 10.6113 151.196 10.5997C151.209 10.5882 151.226 10.5815 151.243 10.5808H151.717L151.745 10.4386C151.783 10.0834 151.929 9.74848 152.163 9.47877C152.283 9.36958 152.423 9.28539 152.576 9.23112C152.728 9.17686 152.89 9.15362 153.052 9.16276C153.147 9.15408 153.242 9.15408 153.336 9.16276C153.407 9.18117 153.475 9.20494 153.542 9.23386ZM144.192 13.7646C144.192 13.7814 144.185 13.7975 144.173 13.8093C144.162 13.8212 144.146 13.8278 144.129 13.8278H143.576C143.568 13.8278 143.56 13.8262 143.552 13.823C143.545 13.8197 143.538 13.815 143.532 13.8091C143.527 13.8032 143.523 13.7962 143.52 13.7885C143.517 13.7809 143.516 13.7727 143.516 13.7646V9.28916C143.516 9.27306 143.523 9.25756 143.534 9.24581C143.545 9.23407 143.56 9.22697 143.576 9.22596H144.133C144.149 9.22697 144.164 9.23407 144.175 9.24581C144.186 9.25756 144.192 9.27306 144.192 9.28916V13.7646Z" fill="white"/>
<path d="M15.6328 5.41789C15.7603 5.5454 15.8319 5.71834 15.8319 5.89867V13.1076C15.8319 13.1969 15.8143 13.2853 15.7802 13.3678C15.746 13.4503 15.6959 13.5253 15.6328 13.5884C15.5697 13.6516 15.4947 13.7016 15.4122 13.7358C15.3297 13.77 15.2413 13.7876 15.152 13.7876C15.0627 13.7876 14.9743 13.77 14.8918 13.7358C14.8093 13.7016 14.7344 13.6516 14.6712 13.5884C14.6081 13.5253 14.558 13.4503 14.5239 13.3678C14.4897 13.2853 14.4721 13.1969 14.4721 13.1076V5.89867C14.4721 5.71834 14.5437 5.5454 14.6712 5.41789C14.7988 5.29038 14.9717 5.21875 15.152 5.21875C15.3323 5.21875 15.5053 5.29038 15.6328 5.41789Z" fill="#00A3DF"/>
<path d="M12.0971 8.46105C12.0924 8.28375 12.0187 8.11527 11.8917 7.99151C11.7646 7.86775 11.5943 7.79849 11.4169 7.79849C11.2396 7.79849 11.0692 7.86775 10.9422 7.99151C10.8151 8.11527 10.7414 8.28375 10.7368 8.46105V11.7564C10.7414 11.9337 10.8151 12.1022 10.9422 12.226C11.0692 12.3497 11.2396 12.419 11.4169 12.419C11.5943 12.419 11.7646 12.3497 11.8917 12.226C12.0187 12.1022 12.0924 11.9337 12.0971 11.7564V8.46105Z" fill="#00A3DF"/>
<path d="M8.15491 9.8602C8.28195 9.98395 8.35565 10.1524 8.3603 10.3297V11.7545C8.35565 11.9318 8.28195 12.1003 8.15491 12.2241C8.02786 12.3478 7.85751 12.4171 7.68015 12.4171C7.50279 12.4171 7.33244 12.3478 7.20539 12.2241C7.07835 12.1003 7.00465 11.9318 7 11.7545V10.3297C7.00465 10.1524 7.07835 9.98395 7.20539 9.8602C7.33244 9.73644 7.50279 9.66718 7.68015 9.66718C7.85751 9.66718 8.02786 9.73644 8.15491 9.8602Z" fill="#00A3DF"/>
<path d="M22.4029 17.397C22.3833 17.39 21.8043 17.2302 21.3323 17.2302C20.7818 17.2302 20.4846 17.4171 20.4846 17.6769C20.4846 17.9966 20.8699 18.1159 21.0967 18.1861L21.1122 18.1909L21.4903 18.3115C22.3781 18.5919 22.7842 19.2031 22.7842 19.8634C22.7842 21.2284 21.5842 21.6858 20.536 21.6858C20.0397 21.681 19.5449 21.6314 19.0575 21.5377V20.29C19.0695 20.293 19.086 20.2974 19.1064 20.3029C19.2928 20.3527 19.8124 20.4914 20.3515 20.4914C21.0337 20.4914 21.3468 20.2933 21.3468 19.9835C21.3468 19.7097 21.0753 19.5517 20.7393 19.4452C20.6976 19.4312 20.6458 19.4146 20.5938 19.3978C20.5412 19.3809 20.4879 19.3637 20.4449 19.3494C19.6846 19.1092 19.0458 18.6606 19.0458 17.7606C19.0458 16.7456 19.8066 16.0629 21.0706 16.0629C21.5207 16.0689 21.9686 16.127 22.4052 16.2362L22.4029 17.397Z" fill="#00A3DF"/>
<path d="M13.9543 17.7181C13.6015 17.5259 13.206 17.4256 12.8043 17.4265C11.9164 17.4265 11.3019 18.0457 11.3019 18.8751C11.3019 19.6812 11.8903 20.3237 12.8043 20.3237C13.2056 20.3238 13.6006 20.2246 13.9543 20.0349V21.492C13.549 21.6172 13.1275 21.6824 12.7034 21.6854C11.1655 21.6854 9.81453 20.6233 9.81453 18.8732C9.81453 17.2517 11.0374 16.0648 12.7034 16.0648C13.1277 16.0661 13.5493 16.1311 13.9543 16.2578V17.7181Z" fill="#00A3DF"/>
<path d="M27.1015 17.4265C27.5036 17.4255 27.8994 17.5258 28.2525 17.7181V16.2578C27.8484 16.1312 27.4277 16.0661 27.0043 16.0648C25.3351 16.0648 24.1113 17.2517 24.1113 18.8732C24.1113 20.6233 25.4622 21.6854 27.0043 21.6854C27.4276 21.682 27.848 21.6168 28.2525 21.492V20.0349C27.8986 20.2248 27.5031 20.3241 27.1015 20.3237C26.1884 20.3237 25.5996 19.6812 25.5996 18.8751C25.5996 18.0457 26.2136 17.4265 27.1015 17.4265Z" fill="#00A3DF"/>
<path d="M15.8376 16.1625H17.2072V21.5916H15.8376V16.1625Z" fill="#00A3DF"/>
<path fill-rule="evenodd" clip-rule="evenodd" d="M32.563 21.6873C34.2322 21.6873 35.4303 20.428 35.4303 18.8752C35.4303 17.3242 34.2326 16.0667 32.563 16.0667C30.8933 16.0667 29.6961 17.3223 29.6961 18.8752C29.6961 20.428 30.8938 21.6873 32.563 21.6873ZM31.1457 18.8752C31.1457 18.0882 31.7494 17.4476 32.563 17.4476C33.3733 17.4476 33.9808 18.084 33.9808 18.8752C33.9808 19.6663 33.3766 20.3051 32.563 20.3051C31.7494 20.3051 31.1457 19.6621 31.1457 18.8752Z" fill="#00A3DF"/>
<path d="M19.5684 8.45494C19.5684 8.27474 19.4968 8.10192 19.3694 7.9745C19.2419 7.84708 19.0691 7.77549 18.8889 7.77549C18.7087 7.77549 18.5359 7.84708 18.4085 7.9745C18.2811 8.10192 18.2095 8.27474 18.2095 8.45494V11.7503C18.2095 11.9305 18.2811 12.1033 18.4085 12.2308C18.5359 12.3582 18.7087 12.4298 18.8889 12.4298C19.0691 12.4298 19.2419 12.3582 19.3694 12.2308C19.4968 12.1033 19.5684 11.9305 19.5684 11.7503V8.45494Z" fill="#00A3DF"/>
<path d="M23.256 10.0611C23.2886 10.1463 23.3036 10.2371 23.3002 10.3282V11.753C23.3036 11.8441 23.2886 11.935 23.256 12.0201C23.2235 12.1053 23.1741 12.183 23.1109 12.2487C23.0476 12.3143 22.9718 12.3665 22.8879 12.4022C22.804 12.4378 22.7138 12.4562 22.6226 12.4562C22.5315 12.4562 22.4412 12.4378 22.3573 12.4022C22.2734 12.3665 22.1976 12.3143 22.1343 12.2487C22.0711 12.183 22.0217 12.1053 21.9892 12.0201C21.9567 11.935 21.9416 11.8441 21.945 11.753V10.3282C21.9416 10.2371 21.9567 10.1463 21.9892 10.0611C22.0217 9.97596 22.0711 9.89824 22.1343 9.83259C22.1976 9.76695 22.2734 9.71473 22.3573 9.67906C22.4412 9.64339 22.5315 9.62501 22.6226 9.62501C22.7138 9.62501 22.804 9.64339 22.8879 9.67906C22.9718 9.71473 23.0476 9.76695 23.1109 9.83259C23.1741 9.89824 23.2235 9.97596 23.256 10.0611Z" fill="#00A3DF"/>
<path d="M27.0396 8.45894C27.0444 8.36697 27.0305 8.27497 26.9986 8.18856C26.9667 8.10215 26.9176 8.02313 26.8542 7.95632C26.7908 7.8895 26.7145 7.8363 26.6299 7.79994C26.5452 7.76358 26.4541 7.74483 26.362 7.74483C26.2699 7.74483 26.1788 7.76358 26.0941 7.79994C26.0095 7.8363 25.9332 7.8895 25.8698 7.95632C25.8064 8.02313 25.7573 8.10215 25.7254 8.18856C25.6935 8.27497 25.6796 8.36697 25.6844 8.45894V11.7543C25.6796 11.8463 25.6935 11.9383 25.7254 12.0247C25.7573 12.1111 25.8064 12.1901 25.8698 12.2569C25.9332 12.3238 26.0095 12.377 26.0941 12.4133C26.1788 12.4497 26.2699 12.4684 26.362 12.4684C26.4541 12.4684 26.5452 12.4497 26.6299 12.4133C26.7145 12.377 26.7908 12.3238 26.8542 12.2569C26.9176 12.1901 26.9667 12.1111 26.9986 12.0247C27.0305 11.9383 27.0444 11.8463 27.0396 11.7543V8.45894Z" fill="#00A3DF"/>
<path d="M30.569 5.43536C30.6954 5.55711 30.7696 5.72311 30.7761 5.89846V13.1074C30.7795 13.1985 30.7645 13.2894 30.732 13.3745C30.6994 13.4597 30.6501 13.5374 30.5868 13.6031C30.5236 13.6687 30.4477 13.7209 30.3638 13.7566C30.2799 13.7923 30.1897 13.8107 30.0985 13.8107C30.0074 13.8107 29.9172 13.7923 29.8333 13.7566C29.7494 13.7209 29.6735 13.6687 29.6103 13.6031C29.547 13.5374 29.4977 13.4597 29.4651 13.3745C29.4326 13.2894 29.4176 13.1985 29.421 13.1074V5.89846C29.4275 5.72311 29.5017 5.55711 29.6281 5.43536C29.7544 5.31361 29.9231 5.24558 30.0985 5.24558C30.274 5.24558 30.4427 5.31361 30.569 5.43536Z" fill="#00A3DF"/>
<path d="M34.5122 8.45775C34.5122 8.2768 34.4403 8.10327 34.3124 7.97532C34.1844 7.84737 34.0109 7.77549 33.8299 7.77549C33.649 7.77549 33.4755 7.84737 33.3475 7.97532C33.2196 8.10327 33.1477 8.2768 33.1477 8.45775V11.7531C33.1477 11.9341 33.2196 12.1076 33.3475 12.2355C33.4755 12.3635 33.649 12.4354 33.8299 12.4354C34.0109 12.4354 34.1844 12.3635 34.3124 12.2355C34.4403 12.1076 34.5122 11.9341 34.5122 11.7531V8.45775Z" fill="#00A3DF"/>
<path d="M38.1996 10.0611C38.2322 10.1463 38.2472 10.2371 38.2438 10.3282V11.753C38.2472 11.8441 38.2322 11.935 38.1996 12.0201C38.1671 12.1053 38.1177 12.183 38.0545 12.2487C37.9912 12.3143 37.9154 12.3665 37.8315 12.4022C37.7476 12.4378 37.6574 12.4562 37.5662 12.4562C37.4751 12.4562 37.3848 12.4378 37.3009 12.4022C37.217 12.3665 37.1412 12.3143 37.078 12.2487C37.0147 12.183 36.9653 12.1053 36.9328 12.0201C36.9003 11.935 36.8853 11.8441 36.8886 11.753V10.3282C36.8853 10.2371 36.9003 10.1463 36.9328 10.0611C36.9653 9.97596 37.0147 9.89824 37.078 9.83259C37.1412 9.76695 37.217 9.71473 37.3009 9.67906C37.3848 9.64339 37.4751 9.62501 37.5662 9.62501C37.6574 9.62501 37.7476 9.64339 37.8315 9.67906C37.9154 9.71473 37.9912 9.76695 38.0545 9.83259C38.1177 9.89824 38.1671 9.97596 38.1996 10.0611Z" fill="#00A3DF"/>
<path d="M37.4599 20.8774V20.962H37.2197V21.5923H37.1183V20.962H36.8749V20.8774H37.4599Z" fill="#00A3DF"/>
<path d="M37.6663 20.8774H37.5107V21.5923H37.6116V21.0073H37.614L37.8257 21.5923H37.921L38.1388 21.0073H38.1416V21.5923H38.2444V20.8774H38.092L37.885 21.4624H37.8799L37.6663 20.8774Z" fill="#00A3DF"/>
<defs>
<linearGradient id="paint0_linear_7_1632" x1="86.2334" y1="38.7578" x2="86.2334" y2="52.8404" gradientUnits="userSpaceOnUse">
<stop stop-color="#00AEEF"/>
<stop offset="0.212" stop-color="#0097DC"/>
<stop offset="0.519" stop-color="#007CC5"/>
<stop offset="0.792" stop-color="#006CB8"/>
<stop offset="1" stop-color="#0066B3"/>
</linearGradient>
</defs>
</svg>
