<svg width="50" height="44" viewBox="0 0 50 44" fill="none" xmlns="http://www.w3.org/2000/svg">
<path d="M48.8489 1.03606C48.4766 0.388521 47.7805 0 47.0358 0H2.11309C1.35224 0 0.639947 0.420898 0.267614 1.08462C-0.104719 1.74834 -0.0885302 2.57395 0.316179 3.22149L7.5362 14.8771C8.07041 15.7351 9.13884 16.0912 10.094 15.7351C18.4795 12.465 27.5936 12.287 37.2095 15.2171L34.2794 20.3974C34.1661 20.3326 34.0528 20.2678 33.9394 20.2355C26.8813 17.5482 18.7871 17.7263 12.8298 20.7049C12.3118 20.9639 11.9232 21.4334 11.7452 21.9838C11.5833 22.5504 11.648 23.1494 11.9394 23.6512L18.9652 35.6306C19.3537 36.2943 20.066 36.6667 20.7783 36.6667C21.1344 36.6667 21.5068 36.5695 21.8467 36.3753C22.8504 35.7925 23.1904 34.4974 22.5914 33.4937L16.7798 23.6027C21.3611 22.0648 27.1403 22.2266 32.1911 24.0883L22.7209 40.8595C22.1543 41.8793 22.5104 43.1582 23.5141 43.7248C23.8379 43.9029 24.194 44 24.5502 44C25.2787 44 25.9909 43.6115 26.3795 42.9316L48.8651 3.14054C49.2375 2.49301 49.2213 1.68359 48.8489 1.03606ZM39.3302 11.4452C34.0689 9.7454 28.9372 8.90361 23.9674 8.90361C19.2404 8.90361 14.6591 9.66446 10.2235 11.1862L5.88498 4.20898H43.4096L39.3302 11.4452Z" fill="#1C3C70"/>
</svg>
