<svg width="49" height="44" viewBox="0 0 49 44" fill="none" xmlns="http://www.w3.org/2000/svg">
<path fill-rule="evenodd" clip-rule="evenodd" d="M48.4878 0.703641C48.5799 0.806724 48.6619 0.919179 48.7321 1.03944C48.8344 1.22374 48.9085 1.42054 48.953 1.62436L48.9741 1.73838C48.9928 1.85396 49.0014 1.9711 48.9998 2.08902C48.9975 2.45684 48.8991 2.81685 48.7165 3.13469L26.3375 42.814C26.1525 43.1357 25.8872 43.4013 25.5672 43.5856C25.2471 43.7714 24.8842 43.8698 24.515 43.8698C24.1521 43.8651 23.7954 43.7714 23.4762 43.5981C23.2194 43.4544 22.9961 43.2591 22.8205 43.0233C22.7198 42.9218 22.6277 42.8093 22.5473 42.6922L22.4888 42.6031L22.4529 42.5422L12.8619 26.1973C12.5825 25.7162 12.5052 25.143 12.6473 24.6049L12.6886 24.4675C12.7152 24.3886 12.7464 24.3129 12.7823 24.2395C12.8377 24.1231 12.9033 24.0122 12.9782 23.9083C13.1484 23.6741 13.3661 23.4749 13.6213 23.3265C14.1021 23.047 14.675 22.9697 15.2128 23.1118C15.3962 23.1602 15.5711 23.2328 15.7326 23.3265C16.0441 23.5085 16.3063 23.7686 16.4905 24.0864L24.483 37.6333L36.5358 16.2653C28.1429 13.5 19.0397 13.8226 10.8638 17.1775C10.4025 17.3563 9.89204 17.3664 9.42451 17.2056C8.9562 17.0447 8.5597 16.723 8.30603 16.2973L0.313537 3.19873C0.116847 2.88089 0.00835504 2.51541 0.000549873 2.14134C-0.00803581 1.76727 0.0840652 1.39789 0.266706 1.07146C0.449347 0.74503 0.716284 0.473265 1.03942 0.28506C1.36255 0.0968542 1.73017 -0.00154356 2.10404 1.8308e-05H46.926C47.2913 0.000799243 47.6503 0.0968542 47.9672 0.278812C48.0819 0.345192 48.1896 0.421723 48.2896 0.507626C48.3598 0.568539 48.4261 0.634137 48.4878 0.703641ZM10.9754 12.6988C19.9154 9.504 29.6774 9.45948 38.6455 12.5707L43.3294 4.27017H5.86067L10.9754 12.6988Z" fill="#0097DD"/>
</svg>
