<svg width="49" height="44" viewBox="0 0 49 44" fill="none" xmlns="http://www.w3.org/2000/svg">
<path d="M48.7535 1.04394C48.5729 0.723356 48.3099 0.457351 47.9918 0.273732C47.6737 0.0901126 47.3123 -0.0043674 46.9453 0.000155058H2.14107C1.76494 -0.000258503 1.3956 0.100914 1.07183 0.29304C0.748062 0.485167 0.481749 0.76118 0.300859 1.09214C0.104138 1.41334 0 1.78298 0 2.16C0 2.53703 0.104138 2.90667 0.300859 3.22787L7.50155 14.9023C7.76398 15.3155 8.16004 15.6257 8.62329 15.7806C9.08653 15.9356 9.58877 15.926 10.0458 15.7534C10.7179 15.4965 12.238 14.1475 10.1738 11.2089L5.85339 4.20743H43.297L39.2326 11.4658L37.1044 15.2395L34.1921 20.4264C34.0867 20.3599 33.9739 20.306 33.8561 20.2658C30.4908 18.9254 26.8918 18.2759 23.2721 18.3559C19.6523 18.4359 16.0853 19.2437 12.7821 20.7315C12.2649 20.9991 11.8739 21.4608 11.694 22.0162C11.5492 22.5562 11.618 23.1316 11.886 23.622L18.9107 35.6176C19.0962 35.9337 19.3604 36.1961 19.6774 36.3791C19.9943 36.562 20.3532 36.6593 20.7188 36.6614C21.0899 36.6583 21.4538 36.5587 21.7749 36.3723C22.0143 36.2329 22.2238 36.0473 22.3913 35.8262C22.5588 35.6052 22.6811 35.353 22.751 35.0843C22.8209 34.8156 22.8372 34.5356 22.7987 34.2606C22.7603 33.9855 22.6679 33.7209 22.527 33.4818L16.7185 23.5738C21.7581 22.0368 27.1616 22.206 32.096 24.0555L22.655 40.8526C22.3825 41.3388 22.312 41.9133 22.4587 42.4514C22.6055 42.9895 22.9578 43.4479 23.4391 43.727C23.7586 43.9014 24.1156 43.9951 24.4792 44C24.851 43.9991 25.2159 43.8991 25.5365 43.71C25.857 43.5209 26.1217 43.2497 26.3034 42.9241L48.7056 3.08335C48.8897 2.77701 48.991 2.42773 48.9994 2.07005C49.0078 1.71237 48.9231 1.35867 48.7535 1.04394V1.04394Z" fill="#005EAB"/>
</svg>
