<svg width="170" height="173" fill="none" xmlns="http://www.w3.org/2000/svg"><path d="M84.753 172.4c46.808 0 84.753-38.593 84.753-86.2S131.561 0 84.753 0 0 38.593 0 86.2s37.945 86.2 84.753 86.2Z" fill="#fff"/><path d="M84.873 157.712c38.942 0 70.51-31.872 70.51-71.188 0-39.317-31.568-71.189-70.51-71.189-38.941 0-70.51 31.872-70.51 71.189 0 39.316 31.569 71.188 70.51 71.188Z" fill="#EC1E27"/><path d="M121.9 73.374H47.84v-5.44h74.06v5.44Zm-12.343 26.297L97.212 78.815 84.87 99.671 72.524 78.815 60.182 99.671 47.84 78.815v26.294h74.06V78.815l-12.343 20.856Z" fill="#fff"/></svg>