<svg width="179" height="145" fill="none" xmlns="http://www.w3.org/2000/svg"><path d="M15.82 7.066v22.517H9.507V7.066H.792V.973h23.783v6.093H15.82Z" fill="#fff"/><path d="M33.565 29.582h-6.073V.366h6.073v10.45C34.814 9.556 36.884 9 38.642 9c5.195 0 7.512 3.594 7.512 7.991v12.59H40.08v-11.54c0-1.98-1.04-3.467-3.238-3.467-1.917 0-3.156 1.37-3.278 3.228v11.78Z" fill="#fff"/><path d="M68.614 23.81c-.958 3.468-4.118 6.377-9.151 6.377-5.483 0-10.354-3.956-10.354-10.696 0-6.455 4.756-10.57 9.914-10.57 6.154 0 9.944 3.834 9.944 10.29.007.633-.033 1.265-.119 1.891H55.026c.119 2.257 2.157 3.871 4.515 3.871 2.185 0 3.434-1.046 3.996-2.622l5.077 1.46Zm-5.517-6.657c-.078-1.532-1.118-3.39-3.996-3.39-2.557 0-3.834 1.892-3.956 3.39h7.952Z" fill="#fff"/><path d="M80.88 29.583V.973h10.272c8.511 0 14.228 5.488 14.228 14.324 0 8.836-5.717 14.286-14.269 14.286H80.88Zm9.99-6.015c4.372 0 7.916-2.54 7.916-8.271 0-5.731-3.56-8.31-7.915-8.31h-3.678v16.581h3.678Z" fill="#fff"/><path d="M121.423 15.578a8.185 8.185 0 0 0-1.917-.201c-2.455 0-4.64 1.453-4.64 5.447v8.757h-6.089V9.526h5.876v2.701c1.04-2.257 3.557-2.903 5.155-2.903a5.877 5.877 0 0 1 1.599.202l.016 6.052Z" fill="#fff"/><path d="M137.674 27.566c-1.04 1.733-3.319 2.458-5.308 2.458-4.833 0-7.553-3.55-7.553-7.827V9.528h6.076v11.377c0 1.938 1.04 3.467 3.198 3.467 2.038 0 3.315-1.412 3.315-3.43V9.529h6.076V25.99c-.001 1.2.066 2.4.2 3.593h-5.845a14.648 14.648 0 0 1-.159-2.017Z" fill="#fff"/><path d="M148.098 29.582V9.527h5.791v2.298c1-1.775 3.557-2.903 5.714-2.903 2.838 0 4.877 1.17 5.876 3.152 1.561-2.26 3.475-3.152 6.154-3.152 3.747 0 7.353 2.206 7.353 7.666v12.994h-5.873V17.96c0-1.89-.999-3.388-3.159-3.388-2.161 0-3.316 1.655-3.316 3.43v11.581h-5.995V17.96c0-1.89-.999-3.388-3.197-3.388-2.12 0-3.279 1.655-3.279 3.467v11.544h-6.069Z" fill="#fff"/><path d="M20.057 63.803H9.107l-2.039 5.813H.434l10.671-28.61h7.313l10.553 28.61h-6.869l-2.045-5.813Zm-8.87-5.81h6.869l-3.397-9.885-3.472 9.886Z" fill="#fff"/><path d="m47.07 49.562 3.878 11.903 3.316-11.904h5.957l-6.154 20.056h-6.023L43.73 56.663l-4.237 12.953h-6.17L27.079 49.56h6.323l3.319 11.863 3.915-11.862h6.435Z" fill="#fff"/><path d="m67.257 58.034 4.683-.728c1.077-.161 1.436-.684 1.436-1.372 0-1.17-.999-2.178-2.916-2.178-2.12 0-3.278 1.453-3.397 2.944l-5.276-1.087c.24-2.866 2.878-6.658 8.714-6.658 6.435 0 8.792 3.632 8.792 7.745v9.807c-.002 1.041.079 2.08.24 3.108h-5.482a9.895 9.895 0 0 1-.2-2.26c-1.04 1.693-2.957 2.837-5.595 2.837-4.371 0-6.87-2.906-6.87-6.093-.005-3.566 2.586-5.58 5.87-6.065Zm6.113 3.713v-.889l-3.747.606c-1.28.201-2.238.806-2.238 2.206 0 1.05.68 2.059 2.357 2.059 1.79.012 3.628-.877 3.628-3.982Z" fill="#fff"/><path d="M96.313 55.614a8.182 8.182 0 0 0-1.917-.202c-2.439 0-4.636 1.453-4.636 5.447v8.757h-6.076V49.561h5.876v2.702c1.04-2.257 3.556-2.903 5.154-2.903a5.878 5.878 0 0 1 1.6.201v6.053Z" fill="#fff"/><path d="M119.369 66.022c0 1.815.122 3.152.159 3.593h-5.835c-.097-.642-.15-1.29-.159-1.938-.918 1.37-2.916 2.38-5.308 2.38-5.595 0-9.832-4.357-9.832-10.532 0-5.97 3.996-10.45 9.632-10.45 3.397 0 4.874 1.292 5.355 2.058V40.4h5.994l-.006 25.622Zm-10.391-1.45c2.358 0 4.478-1.696 4.478-5.006 0-3.31-2.12-4.962-4.478-4.962-2.357 0-4.477 1.614-4.477 4.962 0 3.347 2.12 5.005 4.477 5.005Z" fill="#fff"/><path d="M127.64 62.995c.081 1.375 1.04 2.705 3.123 2.705 1.561 0 2.316-.848 2.316-1.734 0-.728-.477-1.333-1.957-1.654l-2.28-.527c-4.237-.927-5.913-3.348-5.913-6.172 0-3.673 3.197-6.658 7.634-6.658 5.754 0 7.752 3.632 7.952 5.97l-5.039.921c-.159-1.333-.999-2.462-2.838-2.462-1.159 0-2.158.684-2.158 1.734 0 .848.681 1.333 1.561 1.494l2.639.523c4.118.848 6.116 3.351 6.116 6.305 0 3.43-2.598 6.78-7.915 6.78-6.244 0-8.233-4.075-8.392-6.304l5.151-.92Z" fill="#fff"/><path d="M13.704 81.042c5.595 0 8.833 3.269 8.833 7.666 0 2.948-1.84 5.36-4.156 6.135 2.557.605 5.036 2.985 5.036 6.699 0 4.681-3.518 8.11-8.873 8.11H3.114v-28.61h10.59Zm-1 11.459c2.186 0 3.638-1.17 3.638-3.105 0-1.857-1.249-3.067-3.718-3.067H9.267V92.5h3.438Zm.52 11.944c2.438 0 3.918-1.289 3.918-3.348 0-1.976-1.44-3.35-3.919-3.35H9.267v6.698h3.956Z" fill="#fff"/><path d="M25.61 92.891a10.35 10.35 0 0 1-.24-2.32c0-4.983 3.479-9.457 9.714-9.457 5.954 0 9.632 4.168 9.632 9.142 0 3.613-1.799 6.576-5.117 8.681l-4.915 3.137c-.759.517-1.399 1.075-1.758 1.891h12v5.675H25.21c0-5.117 1.358-9.328 6.117-12.294l4.23-2.648c2.04-1.29 2.839-2.45 2.839-4.3 0-1.76-1.159-3.307-3.476-3.307-2.438 0-3.637 1.803-3.637 4.123 0 .583.081 1.162.24 1.722l-5.913-.045Z" fill="#fff"/><path d="M58.937 81.042c5.596 0 8.833 3.269 8.833 7.666 0 2.948-1.839 5.36-4.155 6.135 2.557.605 5.036 2.985 5.036 6.714 0 4.682-3.519 8.111-8.874 8.111h-11.42V81.042h10.58Zm-.999 11.459c2.186 0 3.638-1.17 3.638-3.105 0-1.857-1.25-3.067-3.716-3.067h-3.356V92.5h3.434Zm.522 11.944c2.438 0 3.915-1.289 3.915-3.348 0-1.976-1.44-3.35-3.915-3.35h-3.956v6.698h3.956Z" fill="#fff"/><path d="M18.12 129.408h3.234l-3.856 14.306h-3.257l-3.016-9.483-3.038 9.483H4.872l-3.856-14.306h3.356l2.339 9.161 2.935-9.161h3.237l2.938 9.18 2.298-9.18Z" fill="#fff"/><path d="M24.087 128.825a1.788 1.788 0 0 1 1.66 1.095 1.813 1.813 0 0 1-.373 1.966 1.76 1.76 0 0 1-1.943.397 1.774 1.774 0 0 1-.802-.663 1.808 1.808 0 0 1 .216-2.26 1.782 1.782 0 0 1 1.242-.535Zm-1.5 14.889v-10.028h3.039v10.028h-3.038Z" fill="#fff"/><path d="M30.831 143.713h-3.038v-10.027h2.938v1.15c.54-.945 1.758-1.412 2.776-1.412 2.498 0 3.619 1.797 3.619 3.994v6.305h-3.038v-5.782c0-.986-.519-1.733-1.618-1.733-.999 0-1.639.747-1.639 1.756v5.749Z" fill="#fff"/><path d="M42.273 143.713h-3.035v-10.027h2.935v1.15c.54-.945 1.761-1.412 2.779-1.412 2.498 0 3.616 1.797 3.616 3.994v6.305h-3.02v-5.782c0-.986-.521-1.733-1.62-1.733-1 0-1.64.747-1.64 1.756l-.015 5.749Z" fill="#fff"/><path d="M59.813 140.829c-.48 1.734-2.057 3.187-4.577 3.187-2.735 0-5.173-1.98-5.173-5.359 0-3.228 2.376-5.286 4.955-5.286 3.075 0 4.973 1.916 4.973 5.144a6.24 6.24 0 0 1-.059.946H53.02c.06 1.129 1.08 1.936 2.258 1.936 1.099 0 1.72-.524 1.998-1.312l2.538.744Zm-2.757-3.335c-.04-.769-.558-1.696-1.998-1.696a1.88 1.88 0 0 0-1.323.451 1.916 1.916 0 0 0-.656 1.245h3.977Z" fill="#fff"/><path d="M67.926 136.711a4.015 4.015 0 0 0-.959-.101c-1.22 0-2.32.725-2.32 2.724v4.378h-3.034v-10.027h2.935v1.352c.521-1.131 1.78-1.453 2.579-1.453.27-.002.538.031.799.101v3.026Z" fill="#fff"/><path d="M74.054 135.844a4.578 4.578 0 0 1-.121-1.091c0-2.339 1.739-4.438 4.855-4.438 2.978 0 4.818 1.957 4.818 4.299 0 1.693-.9 3.087-2.558 4.073l-2.457 1.472a2.198 2.198 0 0 0-.88.889h5.994v2.664h-9.85c0-2.402.677-4.379 3.056-5.772l2.117-1.261c1.021-.605 1.42-1.15 1.42-2.017s-.58-1.554-1.738-1.554c-1.218 0-1.817.848-1.817 1.935 0 .274.04.546.118.807l-2.957-.006Z" fill="#fff"/><path d="M86.14 132.556c.859-1.311 2.298-2.241 4.397-2.241 2.098 0 3.556.93 4.414 2.241.9 1.371 1.14 3.004 1.14 4.618 0 1.614-.24 3.25-1.14 4.621-.858 1.29-2.294 2.239-4.414 2.239-2.12 0-3.538-.946-4.397-2.239-.899-1.371-1.136-3.007-1.136-4.621 0-1.614.228-3.247 1.136-4.618Zm2.498 7.458c.158.372.424.687.763.903.34.216.735.323 1.136.308a1.955 1.955 0 0 0 1.898-1.211c.38-.769.5-1.796.5-2.837 0-1.04-.12-2.077-.5-2.837a1.968 1.968 0 0 0-.76-.907 1.934 1.934 0 0 0-1.138-.303c-.401-.016-.797.091-1.136.307a1.993 1.993 0 0 0-.763.903 8.709 8.709 0 0 0 0 5.674Z" fill="#fff"/><path d="M97.547 135.844a4.578 4.578 0 0 1-.121-1.091c0-2.339 1.739-4.438 4.858-4.438 2.975 0 4.814 1.957 4.814 4.299 0 1.693-.899 3.087-2.557 4.073l-2.457 1.472a2.196 2.196 0 0 0-.88.889h5.994v2.664h-9.85c0-2.402.677-4.379 3.056-5.772l2.117-1.261c1.021-.605 1.421-1.15 1.421-2.017s-.581-1.554-1.739-1.554c-1.218 0-1.817.848-1.817 1.935-.001.274.039.546.118.807l-2.957-.006Z" fill="#fff"/><path d="M111.265 143.714v-8.512h-3.097v-2.121c1.938-.019 3.318-1.129 3.537-2.462h2.698v13.095h-3.138Z" fill="#fff"/></svg>