<svg width="222" height="343" fill="none" xmlns="http://www.w3.org/2000/svg"><path d="m114.349 11.546-3.087-1.127-3.087 1.127-92.59 33.808-5.913 2.16V310.488l2.637 2.636 18.246 18.24L33.191 334h154.622l2.635-2.635 19.768-19.761 2.637-2.636V47.513l-5.914-2.159-92.59-33.808Z" fill="url(#a)" stroke="#fff" stroke-width="18"/><path d="M24.688 58.276v237.56h173.157V58.276l-85.667-32.808-87.49 32.808Z" fill="#fff"/><path d="M110.59 20 18 53.808V306.76L36.246 325h147.168l19.767-19.761V53.808L110.59 20Zm82.558 263.384h-.042l-14.792-6.68-67.724-30.611-67.729 30.593-14.787 6.674h-.047V60.614l6.925-2.511L107 31.906l3.578-1.3 3.579 1.3 72.054 26.197 6.919 2.51.018 222.771Z" fill="url(#b)"/><path d="M94.243 299.602c0 6.227-3.806 10.856-11.112 10.856-7.307 0-11.154-4.629-11.154-10.856v-16.224h5.815v16.003c0 3.245 2.243 5.703 5.339 5.703 3.095 0 5.296-2.458 5.296-5.703V283.39h5.816v16.212Z" fill="#fff"/><path d="M115.625 289.845c-.931-1.193-2.798-1.754-4.211-1.754-1.641 0-3.919.746-3.919 2.72 0 4.813 12.162 1.718 12.162 10.969 0 5.893-4.772 8.691-10.188 8.691a12.529 12.529 0 0 1-8.875-3.323l4.139-4.551a6.47 6.47 0 0 0 5.076 2.499c1.903 0 4.026-.894 4.026-2.755 0-4.85-12.382-2.243-12.382-11.041 0-5.637 4.885-8.583 10.068-8.583 2.982 0 5.857.787 8.094 2.761l-3.99 4.367Z" fill="#fff"/><path d="M135.653 283.39h4.813l11.488 26.405h-6.561l-2.272-5.594h-10.26l-2.231 5.594h-6.388l11.411-26.405Zm2.236 7.682-3.209 8.208h6.454l-3.245-8.208Z" fill="#fff"/><path d="M177.551 72.716H50.914v154.2h126.637v-154.2Z" fill="#181C4D"/><path fill-rule="evenodd" clip-rule="evenodd" d="M127.921 126.548h-3.812v7.11h3.579c2.923 0 5.225-.913 5.225-3.579 0-2.666-2.278-3.531-4.992-3.531Z" fill="#F7BC34"/><path fill-rule="evenodd" clip-rule="evenodd" d="M110.754 110.486c5.631 0 9.598-4.134 9.598-9.884 0-5.577-3.925-9.71-9.598-9.71-5.672 0-9.543 4.133-9.543 9.71-.006 5.744 3.919 9.884 9.543 9.884Z" fill="#F7BC34"/><path fill-rule="evenodd" clip-rule="evenodd" d="M73.15 158.06c0-2.344-1.926-3.114-4.485-3.114H65.72v6.275h2.88c2.679 0 4.552-.853 4.552-3.161Z" fill="#F7BC34"/><path fill-rule="evenodd" clip-rule="evenodd" d="M105.859 126.506c-5.129 0-8.398 3.865-8.398 8.517 0 4.653 3.304 8.518 8.398 8.518 5.094 0 8.47-3.782 8.47-8.518 0-4.736-3.274-8.517-8.47-8.517Z" fill="#F7BC34"/><path fill-rule="evenodd" clip-rule="evenodd" d="M97.383 164.937h7.295l-3.633-9.138-3.662 9.138Z" fill="#F7BC34"/><path fill-rule="evenodd" clip-rule="evenodd" d="M145.137 90.497h-3.543v7.897h3.4c3.03 0 5.815-.894 5.815-4.068 0-3.173-2.785-3.829-5.672-3.829Z" fill="#F7BC34"/><path fill-rule="evenodd" clip-rule="evenodd" d="M110.622 41.772 38.336 66.275v201.351l72.221-32.621 72.227 32.621V66.275L110.622 41.77Zm.132 42.2c10.498 0 18.252 6.43 18.252 16.63 0 10.062-7.754 16.892-18.252 16.892s-18.205-6.83-18.205-16.892c0-10.2 7.754-16.63 18.205-16.63Zm26.125 62.212h-3.776l-5.666-9.913h-3.334v9.913h-3.114V123.9h7.158c4.306 0 7.927 1.64 7.927 6.173 0 3.269-2.231 5.368-5.41 5.881l6.215 10.23Zm5.846 14.679v2.338h-9.186v6.49h10.176v2.422h-12.902v-19.475h12.49v2.386h-9.764v5.833l9.186.006Zm-36.874-14.655c-6.764 0-11.769-4.647-11.769-11.184 0-6.633 5.005-11.13 11.769-11.13s11.834 4.521 11.834 11.13c0 6.513-5.035 11.184-11.834 11.184Zm4.867 25.905h-3.078l-1.98-4.772h-9.246l-1.95 4.772h-3.03l8.446-19.475h2.475l8.363 19.475Zm10.367-19.565c2.666 0 5.559 1.002 6.984 2.899l-2.135 1.599a6.183 6.183 0 0 0-4.844-2.189c-4.509 0-7.402 3.405-7.402 7.497 0 4.176 2.833 7.522 7.319 7.522a6.238 6.238 0 0 0 5.225-2.482l2.177 1.426c-1.515 1.98-4.02 3.376-7.426 3.376-5.965 0-10.265-4.092-10.265-9.842 0-5.851 4.455-9.806 10.367-9.806ZM62.988 83.954h26.996v6.907h-9.46v26.573h-8.076V90.879h-9.454l-.006-6.925Zm3.364 39.928 4.91 17.751h.065l5.225-17.751h3.43l5.195 17.751h.06l4.909-17.751h3.304l-6.561 22.284h-3.245l-5.41-17.894h-.066l-5.41 17.894h-3.245l-6.56-22.284h3.4Zm23.758 45.791v2.422H78.7v-19.457h2.72v17.053l8.69-.018ZM62.988 152.62h5.965c4.21 0 6.96 1.622 6.96 5.422 0 3.901-3.053 5.499-7.097 5.499h-3.084v8.554h-2.72l-.024-19.475Zm95.877 26.931H63.042v-1.331h95.829l-.006 1.331Zm-7.533-16.409c-2.476-.734-5.058-1.79-5.058-5.237 0-3.71 3.465-5.315 6.68-5.315a7.831 7.831 0 0 1 5.589 2.129l-1.927 1.79a4.769 4.769 0 0 0-3.799-1.736c-1.76 0-3.794.925-3.794 3.03 0 2.106 1.79 2.577 3.991 3.263 2.612.787 5.72 1.736 5.72 5.446 0 3.865-3.275 5.654-6.74 5.654-2.452 0-4.927-.918-6.412-2.708l2.117-1.712a5.366 5.366 0 0 0 4.348 2.183c1.82 0 3.907-.972 3.907-3.179s-2.141-2.851-4.616-3.59l-.006-.018Zm3.089-16.952-10.45-11.518h-.065v11.518h-3.114v-22.26h3.114v9.817h.065l9.943-9.817h4.313l-10.826 10.193 11.488 12.085-4.468-.018Zm-8.822-41.383h-4.014v12.627h-8.082V83.972h12.293c7.331 0 13.123 2.648 13.123 10.307-.024 7.76-6.311 10.546-13.314 10.546l-.006-.018Z" fill="#F7BC34"/><path d="M93.192 203.544v3.765H78.504v-3.172l6.743-7.096c1.666-1.912 2.5-3.455 2.5-4.63 0-.833-.209-1.484-.626-1.954-.416-.47-1.003-.705-1.761-.705-.759 0-1.351.305-1.779.913-.427.609-.64 1.405-.64 2.387h-4.758l-.016-.096c-.053-1.976.585-3.628 1.914-4.958 1.33-1.329 3.108-1.994 5.334-1.994 2.227 0 3.986.563 5.279 1.69 1.292 1.126 1.938 2.683 1.938 4.669 0 1.26-.305 2.374-.913 3.34-.609.967-1.912 2.539-3.909 4.718l-2.851 3.043.048.08h8.185Z" fill="#001450"/><path d="M104.233 190.858c-.406-.716-1.025-1.074-1.858-1.074-.833 0-1.447.356-1.842 1.066-.395.71-.593 1.855-.593 3.436v5.046c0 1.612.2 2.773.601 3.484.4.71 1.014 1.065 1.842 1.065.827 0 1.444-.358 1.85-1.073.406-.716.609-1.875.609-3.476l.016-5.046c0-1.57-.209-2.713-.625-3.428Zm5.462 3.764v4.421c0 2.798-.646 4.929-1.938 6.392-1.292 1.463-3.084 2.194-5.374 2.194-2.291 0-4.082-.731-5.374-2.194-1.293-1.463-1.939-3.594-1.939-6.392v-4.421c0-2.798.641-4.928 1.923-6.391 1.281-1.463 3.072-2.195 5.374-2.195 2.301 0 4.098.734 5.39 2.203 1.292 1.468 1.938 3.596 1.938 6.383Z" fill="#001450"/><path d="M126.419 203.544v3.765H111.73v-3.172l6.744-7.096c1.666-1.912 2.499-3.455 2.499-4.63 0-.833-.208-1.484-.625-1.954-.416-.47-1.004-.705-1.762-.705s-1.351.305-1.778.913c-.427.609-.641 1.405-.641 2.387h-4.757l-.016-.096c-.054-1.976.584-3.628 1.914-4.958 1.329-1.329 3.108-1.994 5.334-1.994 2.227 0 3.986.563 5.278 1.69 1.292 1.126 1.938 2.683 1.938 4.669 0 1.26-.304 2.374-.913 3.34-.608.967-1.911 2.539-3.908 4.718l-2.851 3.043.048.08h8.185Z" fill="#001450"/><path d="M143.036 203.544v3.765h-14.689v-3.172l6.744-7.096c1.666-1.912 2.499-3.455 2.499-4.63 0-.833-.208-1.484-.625-1.954-.416-.47-1.004-.705-1.762-.705s-1.351.305-1.778.913c-.427.609-.641 1.405-.641 2.387h-4.757l-.016-.096c-.053-1.976.585-3.628 1.914-4.958 1.33-1.329 3.108-1.994 5.334-1.994 2.227 0 3.986.563 5.278 1.69 1.293 1.126 1.939 2.683 1.939 4.669 0 1.26-.305 2.374-.913 3.34-.609.967-1.912 2.539-3.909 4.718l-2.851 3.043.048.08h8.185Z" fill="#001450"/><defs><linearGradient id="a" x1="111.262" y1="66.555" x2="111.262" y2="283.33" gradientUnits="userSpaceOnUse"><stop stop-color="#F7BC34"/><stop offset=".1" stop-color="#F2B935"/><stop offset=".22" stop-color="#E5AF36"/><stop offset=".34" stop-color="#CFA039"/><stop offset=".47" stop-color="#AF8A3D"/><stop offset=".6" stop-color="#876D42"/><stop offset=".73" stop-color="#574B48"/><stop offset=".86" stop-color="#1E234F"/></linearGradient><linearGradient id="b" x1="110.59" y1="66.555" x2="110.59" y2="283.33" gradientUnits="userSpaceOnUse"><stop stop-color="#F7BC34"/><stop offset=".1" stop-color="#F2B935"/><stop offset=".22" stop-color="#E5AF36"/><stop offset=".34" stop-color="#CFA039"/><stop offset=".47" stop-color="#AF8A3D"/><stop offset=".6" stop-color="#876D42"/><stop offset=".73" stop-color="#574B48"/><stop offset=".86" stop-color="#1E234F"/></linearGradient></defs></svg>