<svg width="311" height="311" fill="none" xmlns="http://www.w3.org/2000/svg"><path d="M311 155.5a155.497 155.497 0 0 1-95.993 143.663 155.496 155.496 0 0 1-169.462-33.708A155.498 155.498 0 0 1 69.109 26.207 155.5 155.5 0 0 1 311 155.5Z" fill="#fff"/><path d="M294 155.5a138.501 138.501 0 0 1-165.52 135.839A138.498 138.498 0 0 1 19.661 182.52 138.502 138.502 0 0 1 155.5 17 138.5 138.5 0 0 1 294 155.5Z" fill="#000"/><path d="M155.503 270.916A115.417 115.417 0 1 1 270.919 155.5a115.54 115.54 0 0 1-115.416 115.416Z" fill="#fff"/><path d="M40.9 92.406v.067l3.444 3.847 1.74-3.135-5.145-.799-.038.02Zm-.817-1.818 11.273 1.683-.962 1.683-2.886-.423-2.144 3.847 1.866 2.174-.905 1.625-7.434-8.589 1.192-2Z" fill="#fff"/><path d="m55.656 85.844-8.521-2.712-.03.038 6.936 4.944-1.02 1.423-8.685-6.194 1.674-2.337 8.685 2.953.019-.029-5.608-7.261 1.597-2.251 8.685 6.194-1.02 1.433-6.924-4.944-.02.039 5.367 7.117-1.135 1.587Z" fill="#fff"/><path d="m62.637 69.677-2.703 3.04 2.386 2.115 3.231-3.655 1.154 1.02-4.472 5.05-7.983-7.08 4.26-4.809 1.145 1.01-3.03 3.415 2.194 1.943 2.693-3.05 1.125 1Z" fill="#fff"/><path d="M67.859 62.82c1.173-1.107 1.49-2.001.596-2.953-.895-.953-1.578-.654-2.616.317l-1.28 1.202 2.26 2.405 1.04-.962v-.01Zm1.279.769-.116.106-1.221 1.144 3.058 3.232-1.346 1.27-7.31-7.781 2.972-2.78c1.924-1.856 3.482-1.52 4.626-.298a2.885 2.885 0 0 1 .472 3.722l4.953 1.77-1.481 1.337-4.646-1.722h.039Z" fill="#fff"/><path d="m79.536 58.829.904-.731.789.99-3.27 2.617-.79-.99.915-.732-5.079-6.357-.904.721-.788-.99 3.27-2.617.788.99-.913.732 5.078 6.367Z" fill="#fff"/><path d="m87.855 49.932 1.568-.894c1.24 2.183.558 4.087-1.385 5.395-2.424 1.626-4.703 1.04-6.733-1.923-2.145-3.193-1.53-5.771.885-7.387 2.078-1.395 4.04-1.029 5.415 1.106l-1.452 1.135c-1.174-1.712-2.251-1.568-3.165-.962-1.317.885-1.779 2.414-.067 4.963 1.52 2.27 2.885 2.732 4.309 1.78a2.136 2.136 0 0 0 .615-3.184l.01-.029Z" fill="#fff"/><path d="M93.812 40.237h-.067l.798 5.117 3.165-1.693-3.847-3.453-.049.029Zm.27-1.99 8.521 7.51-1.692.905-2.165-1.924-3.837 2.136.365 2.827-1.635.875-1.616-11.233 2.05-1.097h.009Z" fill="#fff"/><path d="m100.195 35.227 1.578-.711.644 1.413.221 2.636-.731.125-.346-1.972-.567.26-.799-1.75Z" fill="#fff"/><path d="M111.735 34.052a1.914 1.914 0 0 0-1.067-1.162 1.925 1.925 0 0 0-1.578.027c-1.058.404-1.491 1.02-1.125 1.972.365.952 1.452.962 2.645.789 1.625-.25 3.568-.625 4.405 1.587.74 1.923-.241 3.703-2.51 4.559-2.27.856-4.021.47-5.108-1.558l1.712-.962a1.999 1.999 0 0 0 1.191 1.215 1.99 1.99 0 0 0 1.695-.148c1.317-.5 1.712-1.327 1.366-2.25-.443-1.164-1.607-.885-2.953-.674-1.587.25-3.405.472-4.203-1.635-.722-1.846.24-3.52 2.481-4.385 2.241-.866 3.655-.24 4.694 1.654l-1.645.962v.01Z" fill="#fff"/><path d="m129.858 31.85-3.866.905 1.019 4.405-1.808.413-2.414-10.387 6.242-1.453.346 1.491-4.433 1.02.711 3.078 3.867-.895.336 1.424Z" fill="#fff"/><path d="M136.863 26.07h-.068l-.961 5.078 3.549-.51-2.482-4.578-.038.01Zm.962-1.78 5.453 10.022-1.924.27-1.385-2.52-4.385.634-.597 2.8-1.846.268 2.337-11.109 2.299-.336.048-.029Z" fill="#fff"/><path d="M151.649 26.436a1.92 1.92 0 0 0-1.347-1.85 1.926 1.926 0 0 0-.808-.074c-1.125.058-1.731.51-1.683 1.52 0 1.163 1.078 1.375 2.27 1.567 1.626.28 3.588.52 3.694 2.886.096 2.077-1.385 3.433-3.848 3.549-2.462.115-3.962-.808-4.357-3.068l1.924-.366a2 2 0 0 0 2.376 1.924c1.404-.068 2.048-.731 2-1.722-.058-1.231-1.26-1.337-2.606-1.549-1.578-.26-3.376-.615-3.472-2.885-.097-1.923 1.385-3.25 3.741-3.357 2.356-.105 3.549.905 3.953 3.03l-1.866.375.029.02Z" fill="#fff"/><path d="m160.253 24.675-3.136-.125.058-1.52 8.156.327-.067 1.52-3.145-.125-.376 9.137-1.856-.077.366-9.137Z" fill="#fff"/><path d="m174.951 30.437-4.039-.52-.404 3.155 4.847.625-.202 1.53-6.684-.866 1.356-10.58 6.367.818-.192 1.52-4.521-.587-.375 2.904 4.04.51-.193 1.49Z" fill="#fff"/><path d="M185.92 29.888a1.915 1.915 0 0 0-.254-1.54 1.921 1.921 0 0 0-1.314-.845c-1.106-.25-1.808 0-2.029 1.02-.222 1.019.683 1.615 1.779 2.105 1.5.693 3.328 1.434 2.818 3.752-.452 2.029-2.231 2.962-4.597 2.433-2.52-.558-3.626-1.808-3.415-4.107l1.924.154a1.983 1.983 0 0 0 .348 1.618 1.986 1.986 0 0 0 1.45.796c1.376.298 2.164-.173 2.386-1.145.259-1.202-.866-1.615-2.116-2.173-1.453-.673-3.097-1.481-2.607-3.674.423-1.924 2.193-2.78 4.492-2.27 2.299.51 3.183 1.808 3.02 3.962l-1.924-.125.039.039Z" fill="#fff"/><path d="m194.632 30.445-2.991-.952.461-1.452 7.772 2.462-.462 1.453-3.01-.953-2.761 8.714-1.77-.557 2.761-8.714Z" fill="#fff"/><path d="m199.5 38.283.51-1.299 3.741 1.462-.51 1.299-3.741-1.462Z" fill="#fff"/><path d="m212.103 41.458 3.549 1.741-2.443 4.973-1.221-.597.558-1.337a3.641 3.641 0 0 1-3.319 0c-2.443-1.202-3.097-3.53-1.577-6.617 1.77-3.616 4.328-4.309 6.963-3.01 2.136 1.048 2.819 2.722 1.751 5.088l-1.693-.798c.722-1.645.212-2.472-.894-3.02-1.328-.655-2.886-.299-4.271 2.442-1.231 2.51-.885 3.944.635 4.694a2.282 2.282 0 0 0 3.27-1.145l.068-.134-2.011-.962.626-1.28.009-.038Z" fill="#fff"/><path d="M222.984 46.894c1.376.856 2.318.962 3.011-.183.692-1.145.221-1.693-.962-2.443l-1.491-.962-1.741 2.799 1.202.75-.019.039Zm-.413 1.442-.135-.086-1.414-.885-2.337 3.77-1.568-.962 5.627-9.06 3.453 2.145c2.298 1.424 2.356 2.972 1.481 4.386a2.888 2.888 0 0 1-3.453 1.433l-.433 5.232-1.673-1.048.452-4.925Z" fill="#fff"/><path d="M235.614 56.309c1.548-2.02 1.721-3.588.308-4.675-1.414-1.087-3.117-.663-4.704 1.395-1.587 2.058-1.76 3.712-.288 4.809 1.471 1.096 3.049.577 4.684-1.558v.029Zm-6.002-4.453c2.126-2.77 4.867-3.27 7.3-1.395 2.434 1.875 2.347 4.347.308 7.011-2.203 2.886-4.713 3.511-7.233 1.578-2.52-1.933-2.481-4.453-.375-7.194Z" fill="#fff"/><path d="m242.629 69.928 3.963-7.118-.039-.038-6.905 4.251-1.703-1.664 5.54-9.493 1.414 1.376-4.857 7.684.019.02 7.82-4.79 1.346 1.308-4.482 8.05.02.02 7.588-5.021 1.347 1.308-9.368 5.761-1.703-1.654Z" fill="#fff"/><path d="m251.061 77.391.75.885-.971.818-2.684-3.213.962-.808.75.885 6.242-5.222-.74-.876.971-.817 2.684 3.212-.972.808-.75-.904-6.242 5.232Z" fill="#fff"/><path d="m257.122 87.55 3.943-8.31-.038-.049-6.55 4.607-1-1.433 8.723-6.127 1.27 1.808-4.078 8.34.019.028 6.656-4.674 1 1.433-8.724 6.127-1.221-1.75Z" fill="#fff"/><path d="m267.489 94.233 1.924 3.452-4.809 2.693-.654-1.183 1.212-.779a3.627 3.627 0 0 1-2.713-1.923c-1.327-2.366-.538-4.655 2.472-6.329 3.52-1.924 6.011-1.077 7.435 1.49a3.42 3.42 0 0 1-.176 4.195 3.414 3.414 0 0 1-1.19.903l-.962-1.567c1.491-.962 1.539-1.924.962-2.963-.721-1.288-2.231-1.923-4.895-.423-2.453 1.356-2.982 2.741-2.155 4.222a2.296 2.296 0 0 0 1.452 1.253 2.287 2.287 0 0 0 1.895-.29l.125-.068-1.096-1.924 1.25-.692-.077-.067Z" fill="#fff"/><path d="M66.616 246.661c1.192 1.173 2.222 1.26 3.203.26.98-1.001.788-1.674-.308-2.751l-1.231-1.202-2.664 2.712.961.962.039.019Zm-4.751 2.885-1.318-1.298 7.425-7.646 2.885 2.818c1.924 1.923 1.616 3.481.385 4.732-.962.962-2.885 2.25-5.501-.298l-1.154-1.145-2.751 2.808.029.029Z" fill="#fff"/><path d="M76.496 254.776c1.26.962 2.193 1.193 3.01.174.818-1.02.424-1.655-.682-2.54l-1.376-1.106-2.058 2.578 1.106.894Zm-.577 1.376-.125-.096-1.308-1.049-2.77 3.463-1.443-1.154 6.666-8.33 3.183 2.539c2.107 1.693 1.991 3.242.962 4.54a2.884 2.884 0 0 1-3.597 1.01l-1.077 5.184-1.54-1.24 1.05-4.81v-.057Z" fill="#fff"/><path d="m83.86 265.819.972.645-.702 1.058-3.482-2.328.703-1.048.961.644 4.511-6.771-.952-.635.702-1.058 3.482 2.328-.702 1.048-.981-.654-4.511 6.771Z" fill="#fff"/><path d="m100.283 264.56 1.702.923-8.454 7.55-2.039-1.115 1.712-11.215 1.79.972-1.665 9.31.039.019 6.915-6.444Z" fill="#fff"/><path d="M107.829 269.829h-.068l-3.481 3.848 3.318 1.394.231-5.203v-.039Zm1.721-1.038-.461 11.387-1.77-.75.106-2.885-4.088-1.722-1.924 2.097-1.702-.712 7.694-8.329 2.145.962v-.048Z" fill="#fff"/><path d="m117.587 273.36-3.001-.943.462-1.452 7.771 2.462-.452 1.452-3.011-.952-2.76 8.714-1.779-.567 2.77-8.714Z" fill="#fff"/><path d="m131.579 281.554-3.981-.856-.674 3.106 4.78 1.03-.327 1.5-6.588-1.414 2.241-10.426 6.281 1.347-.327 1.49-4.463-.952-.606 2.847 3.972.856-.308 1.472Z" fill="#fff"/><path d="m150.115 284.767 1.789.25c-.346 2.482-2.048 3.578-4.385 3.434-2.886-.183-4.367-2.039-4.136-5.646.24-3.847 2.289-5.501 5.194-5.319 2.491.154 3.847 1.635 3.626 4.175h-1.857c.116-2.078-.817-2.617-1.923-2.684-1.578-.096-2.886.837-3.068 3.895-.174 2.732.625 3.934 2.337 4.04a2.122 2.122 0 0 0 1.707-.52 2.126 2.126 0 0 0 .716-1.634v.009Z" fill="#fff"/><path d="M164.261 282.861c-.115-2.539-.962-3.847-2.77-3.77-1.808.077-2.818 1.491-2.702 4.088.115 2.597 1.038 3.972 2.885 3.847 1.847-.125 2.693-1.52 2.578-4.203l.009.038Zm-7.454.453c-.163-3.492 1.626-5.637 4.684-5.771 3.059-.135 4.588 1.817 4.742 5.174.154 3.597-1.347 5.713-4.511 5.858-3.164.144-4.761-1.809-4.915-5.261Z" fill="#fff"/><path d="m177.082 286.835-4.126-7.935h-.049l1.424 8.397-1.731.288-1.78-10.512 2.838-.481 4.068 8.233.029-.01 1.154-9.108 2.722-.462 1.779 10.513-1.731.298-1.414-8.378h-.048l-1.212 8.83-1.923.327Z" fill="#fff"/><path d="M191.396 278.11c1.606-.472 2.183-1.318 1.789-2.674-.356-1.193-1.077-1.501-2.558-1.068l-1.645.481 1.077 3.655 1.337-.394Zm.173 5.54-1.769.519-3.011-10.234 3.847-1.135c2.645-.779 3.848.289 4.319 1.972.385 1.328.548 3.626-2.953 4.655l-1.558.462 1.106 3.761h.019Z" fill="#fff"/><path d="M201.58 270.725h-.067l.221 5.175 3.328-1.337-3.482-3.847v.009Zm.481-1.923 7.695 8.416-1.78.711-1.923-2.116-4.117 1.645.087 2.885-1.731.693-.347-11.34 2.155-.865-.039-.029Z" fill="#fff"/><path d="m220.167 271.888-7.781-4.915-.048.029 3.78 7.06-1.529.827-5.05-9.407 1.953-1.048 7.79 5.059.039-.019-3.848-7.175 1.539-.827 5.04 9.406-1.885 1.01Z" fill="#fff"/><path d="m228.884 265.04.971-.635.702 1.048-3.491 2.318-.702-1.058.971-.644-4.491-6.781-.962.625-.702-1.048 3.501-2.318.692 1.058-.981.654 4.492 6.781Z" fill="#fff"/><path d="m237.026 254.701-3.193 2.52 1.972 2.501 3.837-3.02.953 1.211-5.3 4.175-6.607-8.387 5.049-3.972.943 1.202-3.578 2.818 1.808 2.299 3.193-2.52.923 1.173Z" fill="#fff"/><path d="M243.727 245.092a1.865 1.865 0 0 0-2.886 0c-.827.788-.962 1.519-.279 2.26.683.741 1.712.327 2.741-.308 1.405-.865 3.049-1.923 4.684-.259 1.433 1.51 1.212 3.501-.548 5.184-1.76 1.683-3.51 1.991-5.299.548l1.202-1.539a2.003 2.003 0 0 0 2.377.42c.258-.132.484-.318.662-.545 1.02-.962 1.058-1.924.375-2.616-.856-.895-1.827-.183-2.981.539-1.366.846-2.953 1.75-4.502.125-1.365-1.424-1.086-3.367.616-4.992 1.702-1.626 3.27-1.645 4.972-.308l-1.154 1.51.02-.019Z" fill="#fff"/><path d="m168.964 45.007-7.819 66.874.567.067 8.656-66.768h-.355l-.828-.096h-.163l-.058-.078Zm13.244 2.366-15.841 65.402.549.135 16.696-65.23-1.404-.346v.039Zm12.86 3.962-23.699 63.018.529.202 24.497-62.71-.375-.144-.577-.221h-.048l-.289-.106-.038-.039Zm12.291 5.483-31.152 59.689.5.269L208.629 57.5l-.616-.327H207.908l-.231-.125-.318-.23Zm11.542 6.944-38.135 55.486.461.327 38.857-54.986-1.183-.827Zm10.58 8.271-44.532 50.505.433.384 45.205-49.927-.289-.26h-.048l-.721-.644-.048-.058Zm9.541 9.493-50.264 44.792.375.432 50.841-44.137-.096-.115-.058-.058-.057-.067-.048-.058-.51-.577-.183-.212Zm8.329 10.58-55.303 38.386.317.471 55.785-37.712a.989.989 0 0 0 0-.077l-.327-.481v-.048l-.356-.51-.116-.029Zm7.002 11.542-59.507 31.48.26.509 59.911-30.71a31.414 31.414 0 0 0-.491-.962v-.067l-.144-.269-.029.019Zm5.559 12.253-62.882 24.045c.067.183.134.356.192.529l63.2-23.218c-.067-.163-.125-.327-.183-.49v-.058l-.307-.798-.02-.01Zm4.03 12.84-65.345 16.178c.048.183.097.365.135.548l65.557-15.389c0-.144-.077-.288-.106-.423-.077-.317-.164-.635-.241-.962v.048Zm2.443 13.235-66.826 8.175c0 .183.048.375.068.558l66.922-7.3v-.318c0-.365-.087-.75-.135-1.115h-.029Zm.828 13.465-67.327.115v.587l67.327.741v-1.443Zm-67.635 5.53c0 .193-.048.375-.077.568l66.759 8.771v-.211l.145-1.222-66.855-7.906h.028Zm-.961 5.213c0 .183-.087.366-.135.549l65.22 16.658.346-1.404-65.403-15.937-.028.134Zm-1.549 5.021-.202.529 62.671 24.593a7.44 7.44 0 0 1 .154-.394v-.058c.087-.24.183-.481.279-.721a.47.47 0 0 1 0-.106l-62.988-23.776.086-.067Zm-2.164 4.809-.26.5 59.248 31.884.673-1.27-59.632-31.249-.029.135Zm-2.722 4.492-.327.471 54.929 38.924.5-.712a.182.182 0 0 1 0-.057l.221-.327-55.323-38.299Zm-3.299 4.212-.385.433 49.86 45.205c.318-.356.645-.712.962-1.077l-50.437-44.599v.038Zm-3.789 3.799-.433.385 44.07 50.899.125-.115H228.962l.404-.356h.048l.202-.174-44.724-50.331.202-.308Zm-6.223.327-.472.318 39.617 58.776.414-.279h.058l.586-.394.087-.058-40.396-58.324.106-.039Zm-4.242 2.241-.5.26 32.326 63.479h.058l.712-.375.423-.221-33.019-63.143Zm-3.106 5.675-.529.202 23.083 63.229.423-.163h.154l.76-.289-23.949-62.921.058-.058Zm-5.021 1.568-.548.135 15.264 65.566.75-.173h.365l.289-.077-16.12-65.403v-.048Zm-5.194.962-.567.057 7.213 66.942 1.433-.163-8.117-66.875.038.039Zm-5.376.317h-.587l-.837 67.326h1.443v-67.326h-.019Zm-5.973-.394-8.887 66.701 1.423.183 8.012-66.846-.567-.077.019.039Zm-5.194-.962-16.889 65.181.26.058h.134l.962.25 16.033-65.403-.548-.144.048.058Zm-5.001-1.626-24.661 62.556.818.318h.057l.472.182 23.862-62.959-.529-.202-.019.105Zm-4.809-2.231-32.067 59.103 1.27.673 31.326-59.632-.5-.269-.029.125Zm-3.338-4.434-40.155 56.41.212.144.23.164.654.452 39.434-56.997-.471-.327.096.154Zm-4.01-3.308-46.62 51.283.309.279.48.423.28.26 45.993-51.851-.423-.394h-.019Zm-5.069-2.357-50.976 43.993.192.231v.048l.51.577 50.399-44.647-.385-.433.26.231Zm-3.251-4.261-55.852 37.559.192.298v.048l.577.837 55.429-38.27-.327-.481-.019.009Zm-2.693-4.578-59.978 30.537c.163.318.317.635.48.962l.145.27 59.632-31.317-.26-.5-.019.048Zm-2.106-4.809-63.24 23.007.463 1.25a.16.16 0 0 1 0 .048l62.959-23.853-.202-.529.02.077Zm-1.491-5.04-65.595 15.168v.048c.105.423.202.856.307 1.279v.068l65.403-16.024c0-.183-.086-.366-.134-.548l.019.009Zm-.876-5.213-66.95 7.108c0 .298.067.596.105.894v.529l66.855-7.982c0-.193 0-.385-.067-.568l.057.019Zm-.24-5.395-67.326-.962v1.442l67.326.077v-.586.029Zm-66.364-14.36v.279l-.145 1.154 66.846 8.069c0-.192 0-.375.077-.567l-66.73-8.964-.048.029Zm2.596-13.206c-.067.25-.125.5-.192.75s-.106.433-.163.654l65.421 16.082.145-.548-65.162-16.967-.049.029Zm4.184-12.792a2.712 2.712 0 0 0-.096.25v.058l-.375.962 62.921 23.958.202-.529-62.604-24.728-.048.029Zm5.694-12.186-.596 1.241 59.545 31.412.269-.5-59.17-32.182-.048.029Zm7.185-11.397-.625.894-.202.28 55.323 38.375.327-.461-54.823-39.088Zm8.464-10.465-.472.51h-.048l-.163.173 50.312 44.743c.125-.144.25-.288.385-.423L73.64 80.555v.038Zm9.618-9.377-.202.173-.847.73 44.58 50.457.433-.375-43.916-50.976-.048-.01Zm10.705-8.156-.289.192-.798.539 38.193 55.438.385-.279-37.51-55.939.019.049Zm11.609-6.8-.606.317h-.5l31.229 59.632.5-.26-30.585-59.728-.038.039Zm12.417-5.386-1.347.5 23.766 62.998.529-.202-22.948-63.297Zm12.907-3.848h-.154l-.327.077H130.271l-.779.183 15.937 65.403.548-.125-15.11-65.5.029-.038Zm13.244-2.135h-.837l-.596.067 7.887 66.865.567-.067-7.021-66.865Zm13.465-.606h-1.442l-.174 67.327h.587l1.029-67.327Z" fill="#000"/><path d="m255.919 235.329-1.357-1.135a126.528 126.528 0 0 0 17.746-127.363l1.625-.673a128.26 128.26 0 0 1-18.014 129.171Z" fill="#fff"/><path d="M55.097 235.329a128.327 128.327 0 0 1-18.014-129.171l1.635.673a126.546 126.546 0 0 0 17.764 127.363l-1.385 1.135Z" fill="#fff"/><path d="m255.89 235.331-1.328-1.116a126.55 126.55 0 0 0 17.775-127.391l1.567-.654a128.205 128.205 0 0 1-18.014 129.161Z" fill="#fff"/><path d="M55.127 235.331A128.27 128.27 0 0 1 37.112 106.17l1.578.654a126.516 126.516 0 0 0 17.745 127.391l-1.308 1.116Z" fill="#fff"/><path d="M114.903 134.762h10.166v-12.821h-4.809v-10.772h-5.328v23.593h-.029Zm35.654-12.773a5.02 5.02 0 0 0-5.223 5.156v7.627h9.061v-9.561c0-2.135-1.289-3.222-3.848-3.222h.01Zm-70.346 62.518 1.644 1.269-.471 1.174c-.78 1.539-1.183 4.943 0 6.886a3.068 3.068 0 0 0 2.885 1.433 4.452 4.452 0 0 0 4.867-3.847c.186-.885.276-1.788.27-2.693 0-2.664-.684-4.732-1.924-5.973a4.985 4.985 0 0 0-3.55-1.346 11.82 11.82 0 0 0-7.136 2.827l-.625.299-13.004-5.165 3.963-28.518h37.058v16.418H80.624l-.462 3.472 1.116-.481a18.051 18.051 0 0 1 7.233-1.423c6.02 0 10.791 1.606 14.177 4.809.997.928 1.861 1.99 2.568 3.155l1.135 1.779.144-2.154c1.154-16.794 9.743-26.046 24.18-26.046 11.801 0 19.727 6.165 22.92 17.851l.683 2.491.654-2.501c3.049-11.676 10.964-17.841 22.891-17.841 11.926 0 19.736 6.165 22.919 17.851l.683 2.491.654-2.501c3.011-11.493 10.753-17.658 22.391-17.831h1.414c14.946.413 23.516 11.387 23.516 30.104 0 19.236-8.897 30.22-24.43 30.22-11.801 0-19.707-6.233-22.862-18.024l-.663-2.491-.674 2.491c-3.164 11.791-11.099 18.024-22.948 18.024-11.85 0-19.708-6.165-22.863-17.995l-.673-2.492-.663 2.492c-3.174 11.791-11.109 18.024-22.949 18.024-10.811 0-18.688-5.617-22.189-15.812l-.683-1.982-.635 2.001a22.818 22.818 0 0 1-1.923 4.434 20.206 20.206 0 0 1-4.482 5.453 25.307 25.307 0 0 1-16.851 5.906c-9.56 0-20.429-5.069-21.708-16.187l-.135-1.155 18.111-8.867-.01-.029Zm50.542-19.304c-3.145 0-4.636 2.299-4.636 15.341s1.491 15.351 4.636 15.351 4.646-2.29 4.646-15.332c0-13.042-1.501-15.34-4.646-15.34v-.02Zm47.129 0c-3.145 0-4.646 2.299-4.646 15.341s1.501 15.351 4.675 15.351 4.636-2.29 4.636-15.332c0-13.042-1.491-15.34-4.636-15.34l-.029-.02Zm47.128 0c-3.145 0-4.636 2.299-4.636 15.341s1.539 15.351 4.684 15.351c3.145 0 4.646-2.29 4.646-15.332 0-13.042-1.501-15.34-4.646-15.34l-.048-.02Zm-.509-16.196a7.778 7.778 0 0 1-6.56-4.656l-.404-.961-.721.702c-3.848 3.77-9.715 5.684-17.39 5.684-7.675 0-14.725-2.395-19.303-6.56l-1.164-1.058v6.666H83.654v-14.052h6.444v-23.603h-6.444V96.223h37.683v11.541h22.237l1.203 4.886 1.115-.836c3.328-2.511 7.223-3.684 12.273-3.684 9.704 0 15.523 4.27 16.351 12.022l.269 2.463 1.048-2.251c4.223-9.099 14.947-12.35 23.574-12.359h.856c9.464 0 20.054 4.52 21.381 17.206l.173 1.664-17.947 1.982-.077-1.808c-.241-5.54-1.789-6.656-4.213-6.656-3.847 0-5.011 2.068-5.011 8.483 0 6.415 1.212 8.579 5.011 8.579 2.789 0 4.463-1.548 4.463-4.145v-1.703h17.966l-.24 2.501.962-.317a7.696 7.696 0 0 1 2.308-.366 7.801 7.801 0 0 1 .77 15.562l-1.308.02Z" fill="#fff"/><path d="M130.916 197.541c-5.213 0-6.329-5.021-6.329-17.024s1.116-17.024 6.329-17.024c5.213 0 6.31 5.03 6.31 17.015 0 11.984-1.116 17.023-6.339 17.023l.029.01Zm0-45.503c-14.321 0-22.65 9.56-22.65 28.441 0 18.707 8.329 28.527 22.65 28.527 14.139 0 22.737-9.82 22.737-28.527 0-18.881-8.598-28.441-22.737-28.441Z" fill="#F5B335"/><path d="M178.074 197.541c-5.223 0-6.339-5.021-6.339-17.024s1.116-17.024 6.339-17.024c5.222 0 6.328 5.03 6.328 17.024s-1.115 17.024-6.328 17.024Zm-.048-45.503c-14.312 0-22.651 9.56-22.651 28.441 0 18.707 8.339 28.527 22.651 28.527 14.138 0 22.737-9.82 22.737-28.527 0-18.881-8.599-28.441-22.737-28.441Z" fill="#4663AE"/><path d="M225.221 197.541c-5.213 0-6.329-5.021-6.329-17.024s1.116-17.024 6.329-17.024c5.213 0 6.329 5.03 6.329 17.024s-1.107 17.024-6.329 17.024Zm0-45.503c-14.321 0-22.651 9.56-22.651 28.441 0 18.707 8.33 28.527 22.651 28.527 14.138 0 22.727-9.82 22.727-28.527 0-18.881-8.589-28.441-22.727-28.441Z" fill="#0033A1"/><path d="M101.693 174.795c-2.885-2.684-7.088-4.319-13.023-4.319a15.21 15.21 0 0 0-10.58 3.847l1.174-8.8h23.391V152.5H68.77l-3.587 25.863 9.897 5.136c1.702-1.395 4.915-3.847 8.993-3.847a6.638 6.638 0 0 1 4.722 1.827c1.52 1.462 2.491 3.847 2.491 7.185a13.965 13.965 0 0 1-.317 3.078c-.846 3.703-3.328 5.184-6.511 5.184-6.396 0-5.858-7.964-4.415-10.772l-.087-.087-15.831 8.252c1.154 10.09 11.359 14.687 20.025 14.687a23.812 23.812 0 0 0 15.764-5.511 18.586 18.586 0 0 0 4.107-5.001 20.766 20.766 0 0 0 2.731-10.099c0-5.396-1.462-10.292-5.011-13.6h-.048Z" fill="#FF4713"/><path d="M85.508 147.152v-10.734h6.434V109.42h-6.434V97.86h34.298v11.56h-6.425v26.989h6.425v10.743H85.508Z" fill="#000"/>
<path d="M151.267 147.152v-10.744h4.982v-11.253c0-3.385-2.424-4.905-5.53-4.905a6.74 6.74 0 0 0-4.921 1.946 6.732 6.732 0 0 0-1.995 4.902v9.31h5.117v10.744h-26.834v-10.744h4.809v-16.206h-4.809v-10.763h21.16v7.426c.354-.314.676-.662.961-1.039 3.848-4.424 8.301-6.021 14.11-6.021 8.156 0 14.802 3.318 14.802 12.378v14.225h4.357v10.744h-26.209Z" fill="#000"/><path d="m220.163 125.347-14.485 1.597c-.173-4.02-.961-8.271-5.905-8.271-6.223 0-6.733 5.184-6.733 10.166v.096c0 4.982.481 10.166 6.733 10.166 3.27 0 6.155-1.866 6.155-5.828h14.427l-.115 1.24c-2.385 11.734-12.965 13.571-20.592 13.571-11.965 0-23.718-5.886-23.718-19.236 0-13.34 11.753-19.236 23.718-19.236 0 0 18.755-1.221 20.525 15.658l-.01.077Z" fill="#000"/><path d="M231.379 141.227a6.109 6.109 0 0 1-7.299 5.99 6.11 6.11 0 0 1-2.202-11.069 6.112 6.112 0 0 1 7.712.76 6.105 6.105 0 0 1 1.789 4.319Z" fill="#000"/></svg>