<svg width="732" height="8" fill="none" xmlns="http://www.w3.org/2000/svg"><path fill="#009C44" d="M356.242 0h46.36v8h-46.36z"/><path fill="#009C34" d="M0 0h36.6v8H0z"/><path fill="#002478" d="M36.602 0h36.6v8h-36.6z"/><path fill="#FFD300" d="M73.199 0h36.6v8h-36.6z"/><path fill="#D0091E" d="M146.398 0h36.6v8h-36.6z"/><path fill="#D0091E" d="M622.199 0h36.6v8h-36.6z"/><path fill="#FF7900" d="M512.398 0h36.6v8h-36.6z"/><path fill="#22438B" d="M219.602 0h36.6v8h-36.6z"/><path fill="#00AFCC" d="M256.199 0h36.6v8h-36.6z"/><path fill="#00AFCC" d="M658.801 0h36.6v8h-36.6z"/><path fill="#D0091E" d="M292.801 0h36.6v8h-36.6z"/><path fill="#0266C3" d="M439.199 0h36.6v8h-36.6z"/><path fill="#02269F" d="M329.398 0h36.6v8h-36.6z"/><path fill="#009C44" d="M549 0h36.6v8H549z"/><path fill="#FDD200" d="M402.602 0h36.6v8h-36.6z"/><path fill="#FDD200" d="M695.398 0h36.6v8h-36.6z"/><path fill="#FF7900" d="M183 0h36.6v8H183z"/><path fill="red" d="M475.801 0h36.6v8h-36.6z"/><path fill="#002781" d="M109.801 0h36.6v8h-36.6z"/><path fill="#002781" d="M585.602 0h36.6v8h-36.6z"/></svg>