<svg xmlns="http://www.w3.org/2000/svg" style="display: none;">
  <symbol xmlns="http://www.w3.org/2000/svg" viewBox="0 0 13.7 6.9" id="icon-arrow-stupid">
    <path d="M1.6 0l5.2 4.3L12.1 0l1.6 1.3-6.8 5.6L0 1.3 1.6 0z"></path>
  </symbol>
  <symbol xmlns="http://www.w3.org/2000/svg" viewBox="0 0 15 9.1" id="icon-arrow-acute">
    <path d="M1.8 0l5.7 5.6L13.2 0 15 1.7 7.5 9.1 0 1.7 1.8 0z"></path>
  </symbol>
  <symbol xmlns="http://www.w3.org/2000/svg" viewBox="0 0 30.5 7.4" id="icon-pointer">
    <path d="M30.4 4c.2-.2.2-.5 0-.7L27.2.1c-.2-.1-.5-.1-.7 0-.2.2-.2.5 0 .7l2.8 2.8-2.8 2.8c-.2.2-.2.5 0 .7.2.2.5.2.7 0L30.4 4zM0 4.2h30v-1H0v1z"></path>
  </symbol>
  <symbol xmlns="http://www.w3.org/2000/svg" viewBox="0 0 8.6 10.7" id="icon-play">
    <path d="M.8.2h0L8.3 5c.1.1.2.2.2.3 0 .1-.1.3-.2.3L.7 10.4h0c-.1 0-.1.1-.2.1H.3h0c-.1-.1-.2-.2-.2-.3V.5C.1.4.2.2.3.2h0C.5.1.6.1.8.2zm.1 9v.3l.2-.1 6-3.8.2-.1-.1-.3-6-3.8-.3-.2v8z" stroke-width=".3"></path>
  </symbol>
  <symbol xmlns="http://www.w3.org/2000/svg" viewBox="0 0 118.1 117.3" id="icon-play-not-active">
    <path d="M59.1 0C26.5 0 0 26.3 0 58.7c0 32.3 26.5 58.7 59.1 58.7s59.1-26.3 59.1-58.7C118.1 26.3 91.6 0 59.1 0zm0 112.4C29.2 112.4 5 88.3 5 58.6 4.9 29 29.2 4.9 59.1 4.9c29.9 0 54.1 24.1 54.1 53.8 0 29.6-24.3 53.7-54.1 53.7z"></path>
    <path d="M82.5 56.6L48 34.6c-.8-.5-1.7-.5-2.5-.1s-1.3 1.3-1.3 2.1v44c0 .9.5 1.7 1.3 2.1.4.2.8.3 1.2.3.5 0 .9-.1 1.3-.4l34.5-22c.7-.4 1.1-1.2 1.1-2.1.1-.7-.4-1.4-1.1-1.9zM49.2 76.2v-35l27.4 17.5-27.4 17.5z"></path>
  </symbol>
  <symbol xmlns="http://www.w3.org/2000/svg" viewBox="0 0 118.1 117.3" id="icon-play-active">
    <path d="M59.1 0C26.5 0 0 26.3 0 58.7c0 32.3 26.5 58.7 59.1 58.7s59.1-26.3 59.1-58.7C118.1 26.3 91.6 0 59.1 0z" fill="#FFF"></path>
    <path d="M82.5 56.6L48 34.6c-.8-.5-1.7-.5-2.5-.1s-1.3 1.3-1.3 2.1v44c0 .9.5 1.7 1.3 2.1.4.2.8.3 1.2.3.5 0 .9-.1 1.3-.4l34.5-22c.7-.4 1.1-1.2 1.1-2.1.1-.7-.4-1.4-1.1-1.9z" fill="#FE8836"></path>
  </symbol>
  <symbol xmlns="http://www.w3.org/2000/svg" viewBox="0 0 65.3 49.3" id="icon-quotes">
    <path d="M63.6 1H47.8L35.2 20v28.3h28.3V20H51L63.5 1.1l.1-.1zM29.4 1H13.6L1 20v28.3h28.3V20H16.8L29.3 1.1l.1-.1z"></path>
  </symbol>
  <symbol xmlns="http://www.w3.org/2000/svg" viewBox="0 0 22.9 10.7" id="icon-pointer-arrow">
    <path d="M.4 5.4h22.5m-5-5l5 5m-5 5l5-5" fill="none"></path>
  </symbol>
  <symbol xmlns="http://www.w3.org/2000/svg" viewBox="0 0 14.2 14" id="icon-social-linkedin">
    <path d="M.1 14h3V4.2h-3V14zM0 1.5C0 2.4.6 3 1.6 3s1.6-.7 1.6-1.5S2.6 0 1.6 0 0 .7 0 1.5zM11.2 14h3V8.2c0-2.9-1.5-4.2-3.5-4.2-1.6 0-2.6 1-3 1.6h-.1l-.1-1.4H4.9c0 .9.1 1.9.1 3.1V14h3V8.4c0-.3 0-.6.1-.8.2-.6.7-1.1 1.6-1.1 1.1 0 1.5.9 1.5 2.1V14z"></path>
  </symbol>
  <symbol xmlns="http://www.w3.org/2000/svg" viewBox="0 0 18.2 14.7" id="icon-social-twitter">
    <path d="M16.3 4.2v-.5c.7-.5 1.4-1.2 1.9-1.9-.7.2-1.4.4-2.2.5.8-.5 1.4-1.2 1.6-2-.7.4-1.5.7-2.4.9C14.6.4 13.6 0 12.6 0 10.3 0 8.4 2 9 4.6c-1.5-.1-3-.5-4.3-1.2C3.4 2.8 2.2 1.8 1.3.7.9 1.2.8 1.9.8 2.6c0 .6.2 1.2.4 1.8s.7 1 1.2 1.3c-.6 0-1.2-.2-1.7-.5 0 .9.3 1.7.8 2.4s1.3 1.1 2.1 1.3c-.5.1-1 .1-1.6 0 .5 1.5 1.8 2.5 3.5 2.6-1.3 1-2.9 1.6-4.6 1.6H0c1.6 1.1 3.6 1.7 5.7 1.7 6.9-.1 10.6-5.7 10.6-10.6z"></path>
  </symbol>
  <symbol xmlns="http://www.w3.org/2000/svg" viewBox="0 0 16.3 16.3" id="icon-social-instagram">
    <path fill-rule="evenodd" d="M4,8.1C4,5.8,5.8,4,8.1,4c2.3,0,4.2,1.9,4.2,4.2c0,2.3-1.9,4.2-4.2,4.2C5.8,12.3,4,10.5,4,8.1z M5.4,8.1 c0,1.5,1.2,2.7,2.7,2.7c1.5,0,2.7-1.2,2.7-2.7c0-1.5-1.2-2.7-2.7-2.7C6.6,5.4,5.4,6.6,5.4,8.1z" clip-rule="evenodd"></path>
    <path d="M13.4,4.2c0.1-0.1,0.1-0.3,0.1-0.4c0-0.3-0.1-0.6-0.3-0.7c-0.2-0.1-0.4-0.2-0.6-0.2c-0.5,0-1,0.4-1,1c0,0.5,0.4,1,1,1 c0.3,0,0.5-0.1,0.7-0.3C13.2,4.4,13.3,4.3,13.4,4.2z"></path>
    <path fill-rule="evenodd" d="M15.9,2.9c-0.2-0.5-0.5-1.1-1-1.5c-0.4-0.4-0.8-0.7-1.3-0.9c-0.6-0.3-1.4-0.4-2.1-0.4C10.2,0,6.1,0,4.8,0.1 C3.5,0.1,2.3,0.4,1.4,1.4c-1,1-1.2,2.1-1.3,3.4C0,6.1,0,10.2,0.1,11.5c0.1,1.3,0.4,2.5,1.3,3.4c1,1,2.1,1.3,3.4,1.3 c0.5,0,1.3,0,2.2,0.1c0.6,0,1.1,0,1.7,0c0.7,0,1.4,0,2,0c0.4,0,0.7,0,0.9,0c1.3-0.1,2.5-0.4,3.4-1.3c1-1,1.2-2.1,1.3-3.4 c0.1-1.3,0.1-5.4,0-6.7C16.2,4.1,16.1,3.5,15.9,2.9z M12.9,14.5c0.7-0.3,1.3-0.8,1.5-1.5c0.4-0.9,0.3-2.9,0.3-4.2c0-0.2,0-0.4,0-0.6 l0-0.2l0-0.4c0-1.3,0-3.3-0.3-4.2c-0.3-0.7-0.8-1.3-1.5-1.5C12,1.4,10,1.5,8.7,1.5c-0.2,0-0.4,0-0.6,0c-0.2,0-0.4,0-0.6,0 c-1.3,0-3.3,0-4.2,0.3C2.6,2.1,2.1,2.6,1.8,3.3C1.4,4.3,1.5,6.3,1.5,7.6v0.1c0,0.2,0,0.3,0,0.5c0,0.2,0,0.4,0,0.6 c0,1.3,0,3.3,0.3,4.2c0.3,0.7,0.8,1.3,1.5,1.5c0.4,0.2,1,0.2,1.6,0.3c0.9,0.1,1.9,0.1,2.6,0c0.2,0,0.4,0,0.6,0c0.2,0,0.4,0,0.6,0 C10,14.8,12,14.9,12.9,14.5z" clip-rule="evenodd"></path>
  </symbol>
  <symbol xmlns="http://www.w3.org/2000/svg" viewBox="0 0 13.3 18.6" id="icon-social-glassdoor">
    <path d="M10.6 0c1.5 0 2.7 1.2 2.7 2.7H2.7v10.9c0 .1 0 .1-.1.1H.1c-.1 0-.1 0-.1-.1V2.7C0 1.2 1.2 0 2.7 0h7.9zm0 15.9H0c0 1.5 1.2 2.7 2.7 2.7h7.9c1.5 0 2.7-1.2 2.7-2.7V5c0-.1 0-.1-.1-.1h-2.5c-.1 0-.1 0-.1.1v10.9z" fill-rule="evenodd" clip-rule="evenodd"></path>
  </symbol>
  <symbol xmlns="http://www.w3.org/2000/svg" viewBox="0 0 12 12" id="icon-cross">
    <path d="M0 10.6L4.3 6 0 1.4 1.3 0 7 6l-5.7 6L0 10.6z"></path>
    <path d="M12 1.4L7.7 6l4.3 4.6-1.3 1.4L5 6l5.7-6L12 1.4z"></path>
  </symbol>
  <symbol xmlns="http://www.w3.org/2000/svg" viewBox="0 0 40 14.7" id="icon-wide-pointer">
    <path d="M39.7 8.1c.4-.4.4-1 0-1.4L33.3.3c-.4-.4-1-.4-1.4 0-.4.4-.4 1 0 1.4l5.7 5.7-5.7 5.6c-.4.4-.4 1 0 1.4.4.4 1 .4 1.4 0l6.4-6.3zM0 8.4h39v-2H0v2z"></path>
  </symbol>
  <symbol version="1.1" id="icon-review-user" xmlns="http://www.w3.org/2000/svg" xmlns:xlink="http://www.w3.org/1999/xlink" x="0px" y="0px" xml:space="preserve" viewBox="0 0 13 17">
    <path d="M6.4,8.3c2,0,3.5-1.7,3.5-4.1C9.9,2,9.5,0,6.4,0C3.5,0,3.1,1.7,3.1,4.1C3.1,6.3,4.6,8.3,6.4,8.3z"></path>
    <path d="M13,14.4c0-3.9-0.7-5-4.6-5.9c0,0-0.7,0.7-2,0.7s-2-0.7-2-0.7C0.7,9.4,0,10.5,0,14.4c0,0.2,0,0.4,0,0.2c0,0,0,0.2,0,0.4
	c0,0,0.9,2,6.4,2s6.4-2,6.4-2c0-0.2,0-0.2,0-0.2C13,14.6,13,14.6,13,14.4z"></path>
  </symbol>
  <symbol version="1.1" id="icon-star" xmlns="http://www.w3.org/2000/svg" xmlns:xlink="http://www.w3.org/1999/xlink" x="0px" y="0px" xml:space="preserve" viewBox="0 0 25.4 24.3">
    <path d="M12.8,0l3.9,7.9l8.6,1.3l-6.3,6.3l1.6,8.9l-7.9-4.2L5,24.3l1.3-8.9L0,9.2l8.9-1.3L12.8,0z"></path>
  </symbol>
  <symbol version="1.1" id="icon-link" xmlns="http://www.w3.org/2000/svg" xmlns:xlink="http://www.w3.org/1999/xlink" x="0px" y="0px" xml:space="preserve" viewBox="0 0 22 22">
    <path d="M12.7,9.3L21,1 M21,1h-5.6 M21,1l0,5.6 M21,13.2v5.6c0,0.6-0.2,1.2-0.7,1.6c-0.4,0.4-1,0.7-1.6,0.7H3.2
	c-0.6,0-1.2-0.2-1.6-0.7c-0.4-0.4-0.7-1-0.7-1.6V3.2c0-0.6,0.2-1.2,0.7-1.6C2.1,1.2,2.6,1,3.2,1h5.6"></path>
  </symbol>
  <symbol version="1.1" id="icon-short-pointer" xmlns="http://www.w3.org/2000/svg" xmlns:xlink="http://www.w3.org/1999/xlink" x="0px" y="0px" xml:space="preserve" viewBox="0 0 23.2 11.4">
    <path d="M22.5,5.7H0 M22.5,5.7l-5,5 M22.5,5.7l-5-5"></path>
  </symbol>
</svg>
