<svg width="20" height="18" viewBox="0 0 20 18" fill="none" xmlns="http://www.w3.org/2000/svg">
<path d="M14.6901 0L13.562 1.12724L16.8871 4.43718H9.17431C8.01101 4.43844 6.89571 4.90113 6.07313 5.72371C5.25055 6.54629 4.78786 7.66158 4.7866 8.82489C4.7866 11.2445 6.75548 13.2126 9.17431 13.2126H9.5732V11.6171H9.17431C7.63462 11.6171 6.38213 10.3646 6.38213 8.82489C6.38213 7.2852 7.63462 6.03271 9.17431 6.03271H16.8903L13.5684 9.35461L14.6965 10.4826L19.9442 5.23494L14.6901 0ZM0 0.448344V17.9992H17.5509V10.0215L15.9553 11.6171V16.4037H1.59553V2.04388H10.2545L11.85 0.448344H0Z" fill="#1C3C70"/>
</svg>
