<svg width="177" height="177" viewBox="0 0 177 177" fill="none" xmlns="http://www.w3.org/2000/svg">
<circle cx="88.5" cy="88.5" r="88.5" fill="white"/>
<path d="M88.5 166C131.302 166 166 131.302 166 88.5C166 45.6979 131.302 11 88.5 11C45.6979 11 11 45.6979 11 88.5C11 131.302 45.6979 166 88.5 166Z" fill="#EC1E27"/>
<path d="M139.146 58.0568H37.8535V50.6853H139.146V58.0568ZM122.265 93.6753L105.374 65.4248L88.4929 93.6753L71.6086 65.4248L54.7276 93.6753L37.8535 65.4248V101.047H139.146V65.4248L122.265 93.6753Z" fill="white"/>
<path d="M46.4401 113.308V125.965H42.8539V113.302H37.9053V109.87H51.4093V113.302L46.4401 113.308Z" fill="white"/>
<path d="M56.5124 125.965H53.0635V109.544H56.5124V115.419C57.1988 114.733 58.3965 114.389 59.3951 114.389C62.3465 114.389 63.6608 116.407 63.6608 118.882V125.965H60.229V119.482C60.229 118.37 59.6388 117.529 58.393 117.529C58.1507 117.524 57.9097 117.566 57.6841 117.655C57.4585 117.743 57.2528 117.876 57.0792 118.045C56.9056 118.214 56.7676 118.416 56.6732 118.639C56.5788 118.863 56.53 119.103 56.5296 119.345L56.5124 125.965Z" fill="white"/>
<path d="M76.4171 122.729C75.8612 124.681 74.0801 126.308 71.218 126.308C68.1088 126.308 65.3428 124.084 65.3428 120.292C65.3428 116.661 68.0402 114.348 70.9709 114.348C74.4645 114.348 76.6196 116.503 76.6196 120.134C76.624 120.491 76.6011 120.848 76.551 121.201H68.6991C68.7677 122.471 69.9242 123.381 71.266 123.381C72.5118 123.381 73.2153 122.79 73.5344 121.905L76.4171 122.729ZM73.2839 118.984C73.2393 118.12 72.649 117.076 71.0155 117.076C70.4683 117.049 69.9311 117.23 69.5134 117.585C69.0957 117.94 68.829 118.44 68.7677 118.984H73.2839Z" fill="white"/>
<path d="M83.3799 125.965V109.884H89.2139C94.0493 109.884 97.2923 112.972 97.2923 117.938C97.2923 122.904 94.0493 125.965 89.1899 125.965H83.3799ZM89.0561 122.585C91.5269 122.585 93.5483 121.157 93.5483 117.931C93.5483 114.705 91.5269 113.267 89.0561 113.267H86.9661V122.595L89.0561 122.585Z" fill="white"/>
<path d="M106.403 118.099C106.045 118.018 105.679 117.98 105.312 117.986C103.939 117.986 102.68 118.803 102.68 121.047V125.965H99.2207V114.695H102.556V116.215C103.147 114.945 104.578 114.582 105.484 114.582C105.791 114.578 106.096 114.616 106.393 114.695L106.403 118.099Z" fill="white"/>
<path d="M115.629 124.839C115.038 125.814 113.744 126.212 112.612 126.212C109.867 126.212 108.322 124.215 108.322 121.809V114.695H111.771V121.095C111.771 122.183 112.361 123.044 113.587 123.044C113.841 123.057 114.096 123.016 114.333 122.923C114.571 122.83 114.785 122.687 114.964 122.505C115.142 122.323 115.279 122.104 115.367 121.865C115.454 121.625 115.489 121.37 115.471 121.116V114.695H118.92V123.961C118.918 124.635 118.956 125.309 119.033 125.979H115.718C115.662 125.601 115.632 125.221 115.629 124.839Z" fill="white"/>
<path d="M121.552 125.965V114.695H124.843V115.989C125.409 114.99 126.861 114.355 128.086 114.355C129.699 114.355 130.855 115.01 131.422 116.122C132.307 114.853 133.398 114.355 134.919 114.355C137.05 114.355 139.095 115.601 139.095 118.665V125.965H135.756V119.444C135.756 118.377 135.19 117.536 133.965 117.536C133.711 117.529 133.459 117.575 133.224 117.67C132.989 117.765 132.776 117.908 132.599 118.09C132.422 118.271 132.285 118.487 132.196 118.725C132.106 118.962 132.067 119.215 132.08 119.468V125.989H128.676V119.444C128.676 118.377 128.11 117.536 126.861 117.536C125.612 117.536 125.001 118.47 125.001 119.489V125.965H121.552Z" fill="white"/>
<path d="M141.505 124.575H140.992V125.965H140.58V124.575H140.077V124.257H141.505V124.575Z" fill="white"/>
<path d="M142.22 124.257L142.601 125.445L142.981 124.257H143.523V125.965H143.11V125.566L143.15 124.75L142.737 125.965H142.465L142.051 124.748L142.091 125.566V125.965H141.679V124.257H142.22Z" fill="white"/>
</svg>
