<svg width="410" height="410" fill="none" xmlns="http://www.w3.org/2000/svg"><path d="M245.003 217.062c-6.36-9.973-16.898-17.424-33.87-17.65a41.174 41.174 0 0 0-31.951 12.532l-1.129 10.725h-6.172a59.455 59.455 0 0 0-5.005 15.054 31.758 31.758 0 0 1 16.483 28.3 38.015 38.015 0 0 1-7.526 22.58 39.486 39.486 0 0 0 14.447 11.733 39.492 39.492 0 0 0 18.218 3.809 40.343 40.343 0 0 0 35.187-17.65 59.573 59.573 0 0 1-8.58-33.004 64.312 64.312 0 0 1 9.898-36.429zm-35.526 66.724c-6.586 0-10.989-4.855-12.871-12.608a75.284 75.284 0 0 1-1.317-16.219c0-9.936.565-22.957 4.366-29.392a12.464 12.464 0 0 1 10.386-6.285c7.038 0 10.688 5.72 12.156 12.005a119.896 119.896 0 0 1 1.731 21.79c0 14.338-2.183 30.709-14.451 30.709z" fill="#FD0"/><path d="M280.792 199.788a40.421 40.421 0 0 0-35.827 17.274 63.338 63.338 0 0 1 8.618 33.381 65.329 65.329 0 0 1-9.973 36.278 39.514 39.514 0 0 0 34.397 18.026c33.494 0 45.16-28.94 45.16-53.966.038-20.585-8.279-50.579-42.375-50.993zm-1.769 84.336c-6.586 0-10.951-4.817-12.87-12.569a75.294 75.294 0 0 1-1.318-16.22c0-9.935.603-22.956 4.404-29.392a12.413 12.413 0 0 1 10.386-6.284c7 0 10.651 5.682 12.118 12.005a120.023 120.023 0 0 1 1.769 21.752c.038 14.338-2.145 30.708-14.451 30.708h-.038z" fill="#007DC4"/><path d="M245.002 217.062a64.31 64.31 0 0 0-9.935 36.655 59.573 59.573 0 0 0 8.58 33.004 65.329 65.329 0 0 0 9.973-36.278 63.338 63.338 0 0 0-8.618-33.381z" fill="#62A63B"/><path d="M166.875 237.911a43.34 43.34 0 0 0-21.827-5.457 48.305 48.305 0 0 0-16.371 2.785 34.481 34.481 0 0 0-3.086 1.58l1.468-14.15h44.821a44.708 44.708 0 0 1 7.301-10.725l1.091-10.199h-74.551l-5.57 54.38 25.026 3.086a12.423 12.423 0 0 1 12.269-6.435c10.387 0 15.354 6.586 15.354 15.655 0 7.865-4.252 15.618-15.053 15.618a12.084 12.084 0 0 1-12.57-8.468 23.638 23.638 0 0 1-.752-7.3l-29.806 3.048c1.618 7.526 3.048 14.639 9.484 21.338 11.29 11.553 28.074 11.553 33.493 11.553 8.468 0 24.123-.715 35.074-11.967a32.826 32.826 0 0 0 2.973-3.425 57.624 57.624 0 0 1-10.349-35.45 82.813 82.813 0 0 1 1.581-15.467z" fill="#E33126"/><path d="m178.091 222.669 1.129-10.725a44.723 44.723 0 0 0-7.338 10.725h6.209zM166.876 237.911a82.824 82.824 0 0 0-1.43 15.467 57.61 57.61 0 0 0 10.349 35.45 38.005 38.005 0 0 0 7.527-22.58 31.76 31.76 0 0 0-16.446-28.337z" fill="#F48132"/><path d="M94.77 194.294v-16.935h10.124v-42.563H94.77v-18.253h54.079v18.253h-10.123v42.563h10.123v16.935H94.771zM197.697 194.218v-16.935h7.828v-17.65c0-5.343-3.763-7.752-8.731-7.752a10.625 10.625 0 0 0-7.768 3.065 10.623 10.623 0 0 0-3.146 7.736v14.677h8.092v16.859h-42.3v-16.935h7.527v-25.477h-7.527v-16.973h33.381v11.704a13.002 13.002 0 0 0 1.543-1.656 27.024 27.024 0 0 1 22.241-9.483c12.87 0 23.332 5.231 23.332 19.531v22.58h6.887v16.709h-41.359z" fill="#231F20"/><path d="m306.343 159.935-22.843 2.483c-.263-6.322-1.581-13.021-9.295-13.021-9.823 0-10.575 8.167-10.575 16.032s.752 16.032 10.575 16.032a8.878 8.878 0 0 0 9.057-5.487 8.871 8.871 0 0 0 .652-3.696h22.58l-.188 1.995c-3.764 18.478-20.435 21.375-32.478 21.375-18.816 0-37.407-9.257-37.407-30.332 0-21.074 18.553-30.332 37.407-30.332 0 0 29.58-1.92 32.365 24.725M324.07 184.961a9.64 9.64 0 0 1-11.467 9.533 9.636 9.636 0 0 1-7.611-7.551 9.64 9.64 0 0 1 4.083-9.912 9.635 9.635 0 0 1 14.995 8.005" fill="#231F20"/><path d="M205.073 351.601a146.545 146.545 0 0 0 143.728-175.134A146.54 146.54 0 0 0 148.993 69.668a146.546 146.546 0 0 0-90.464 135.389A146.5 146.5 0 0 0 101.44 308.69a146.516 146.516 0 0 0 103.633 42.911z" stroke="#231F20" stroke-width="1.33"/><path d="m12.39 215.105-.338-5.833 35.413-11.591v4.629l-9.597 3.198.602 11.29 9.935 2.145.226 4.592-36.24-8.43zm22.58.941-.677-9.597-16.935 5.457 17.612 4.14zM12.166 192.563l.903-7.527 29.015-3.763-27.246-10.387.903-7.338 35.488 4.327-.527 4.403-31.01-3.763L49.8 180.181l-.527 4.366-31.913 4.102 31.048 3.763-.527 4.366-35.714-4.215zM19.165 152.822l5.72-17.688 3.764 1.242-4.404 13.36 10.65 3.537 4.14-12.644 3.764 1.242-4.14 12.607 12.193 3.989 4.554-13.924 3.763 1.204-5.946 18.139-34.058-11.064zM27.557 129.151l4.854-10.5a8.389 8.389 0 0 1 8.573-5.543 8.38 8.38 0 0 1 3.47 1.065 8.317 8.317 0 0 1 5.833 8.806 5.874 5.874 0 0 1 7.527-2.032l5.645 2.295c3.763 1.506 4.854 1.355 5.908.678l-2.258 4.817a10.924 10.924 0 0 1-5.193-1.129l-5.156-2.07c-4.629-1.769-6.021.564-7 2.597l-2.295 5.419 14.45 6.774-1.88 3.989-32.478-15.166zm16.558 2.897 1.882-3.763a6.137 6.137 0 0 0-.62-8.119 6.13 6.13 0 0 0-2.541-1.477 5.608 5.608 0 0 0-7.903 3.424l-2.22 4.742 11.402 5.193zM40.39 104.501l2.333-3.763 30.332 18.816-2.333 3.764-30.332-18.817zM78.099 92.157c5.156 4.403 8.467 10.312 3.763 16.521-6.21 8.054-14.601 3.312-21.79-2.145-7.187-5.457-13.736-12.607-7.752-20.472 4.44-5.796 9.559-5.72 15.054-1.619l-2.785 3.764c-3.274-2.371-6.812-3.463-9.597.188-3.763 4.855 1.13 9.559 7.715 14.564 6.586 5.005 12.381 8.467 16.07 3.763 3.273-4.252-.264-7.903-3.764-10.65l3.086-3.914zM68.577 68.674l4.102-4.252 32.327 18.101-3.199 3.312-8.806-5.043-7.903 8.053 5.156 8.77-3.199 3.311-18.478-32.252zm14.489 17.123 6.699-6.887-15.543-8.881 8.844 15.768zM80.92 57.309l3.538-2.973 2.823 3.35c2.446 2.897 4.403 5.682 1.882 9.332L87.62 65.25a3.537 3.537 0 0 0-.79-4.365l-.791-.941-1.656 1.43-3.462-4.064zM108.055 48.804c-2.145-3.086-4.742-4.479-8.204-2.07a5.306 5.306 0 0 0-1.58 8.242c5.72 8.279 16.219-6.248 23.633 4.516a10.047 10.047 0 0 1-3.086 15.053c-6.887 4.78-11.29 2.597-15.693-3.763l3.763-2.522c2.296 3.312 4.93 6.699 10.274 3.048a6.013 6.013 0 0 0 2.668-4.035 6.03 6.03 0 0 0-1.163-4.695c-5.757-8.317-16.295 6.096-23.784-4.705A9.371 9.371 0 0 1 97.894 43.8a8.841 8.841 0 0 1 11.318-.597 8.845 8.845 0 0 1 2.606 3.118l-3.763 2.484zM132.593 26.149l17.311-6.473 1.392 3.763-13.209 4.817 3.764 10.537 12.456-4.629 1.355 3.764-12.457 4.629 5.871 15.58-4.102 1.543-12.381-33.531zM159.876 17.342l5.758-1.354 17.537 32.628-4.516 1.053-4.704-8.994-11.29 2.634-.339 10.161-4.478 1.054 2.032-37.182zm3.011 22.242 9.37-2.22-8.392-15.619-.978 17.839zM196.681 21.482c-.302-3.763-1.844-6.247-6.022-5.909a5.267 5.267 0 0 0-5.457 6.248c.791 10.048 17.161 2.71 18.177 15.768a10.05 10.05 0 0 1-6.047 10.497 10.046 10.046 0 0 1-4.227.793c-8.354.677-11.29-3.462-11.704-11.027l4.404-.338c.301 3.989.865 8.241 7.526 7.752a5.976 5.976 0 0 0 4.336-2.133 5.984 5.984 0 0 0 1.347-4.64c-1.016-9.86-17.349-2.786-18.365-15.882a9.33 9.33 0 0 1 9.822-10.65 8.846 8.846 0 0 1 10.613 9.145l-4.403.376zM217.078 48.24l-4.403-.189 1.505-31.838-8.956-.414v-3.763l22.354 1.054v3.763l-8.995-.452-1.505 31.838zM234.164 14.068l18.139 3.764-.79 3.763-13.812-2.747-2.069 10.951 12.908 2.597-.753 3.763-13.021-2.597-2.484 12.608 14.376 2.86-.753 3.763-18.816-3.763 7.075-34.962zM270.178 33.073c1.167-3.537.678-6.435-3.311-7.752a5.272 5.272 0 0 0-6.557 1.551 5.274 5.274 0 0 0-.97 2.212c-3.161 9.559 14.752 9.145 10.688 21.564a10.045 10.045 0 0 1-9.635 7.525 10.052 10.052 0 0 1-4.252-.902c-7.94-2.634-8.956-7.526-6.548-14.714l4.177 1.354c-1.241 3.764-2.37 7.979 3.764 10.011a6.056 6.056 0 0 0 7.069-1.845 6.07 6.07 0 0 0 1.135-2.332c3.123-9.597-14.715-9.296-10.613-21.79a9.342 9.342 0 0 1 5.009-6.01 9.336 9.336 0 0 1 7.824-.087 8.884 8.884 0 0 1 7.285 8.654 8.884 8.884 0 0 1-.887 3.954l-4.178-1.393zM278.683 66.266l-3.763-1.957 14.188-28.526-8.317-4.14 1.731-3.5 20.058 9.973-1.731 3.5-8.091-4.027-14.075 28.677zM293.021 55.615l10.349 6.473-2.07 3.312-10.349-6.473 2.07-3.312zM326.855 68.11c2.183-3.049 3.124-6.473-.263-9.22-4.78-3.764-9.597.903-14.79 7.526-5.193 6.624-8.768 12.156-3.989 15.994 4.779 3.839 9.709-1.58 12.682-5.306l-5.494-4.44 2.258-2.786 8.693 6.774-11.629 14.49-2.596-2.07 3.048-3.764a7.902 7.902 0 0 1-9.483-.527c-7.264-5.833-2.936-13.849 3.085-21.338 6.022-7.489 12.909-13.473 20.623-7.263a9.816 9.816 0 0 1 3.839 11.411 9.81 9.81 0 0 1-2.258 3.642l-3.726-3.123zM343.188 70.029l7.527 8.656a8.358 8.358 0 0 1-.64 12.795 8.28 8.28 0 0 1-10.387 1.882 5.83 5.83 0 0 1-1.129 7.714l-4.252 4.328c-2.823 2.785-3.124 3.952-2.936 5.156l-3.5-3.989c0-1.054 1.807-3.086 3.049-4.29l3.951-3.952c3.463-3.5 1.882-5.72.377-7.526l-3.764-4.441-11.929 10.575-2.936-3.312 26.569-23.596zm-9.22 14.075 2.898 3.274a6.164 6.164 0 0 0 4.807 3.083 6.175 6.175 0 0 0 5.279-2.18 5.618 5.618 0 0 0 2.019-4.309 5.607 5.607 0 0 0-2.019-4.309l-3.5-3.951-9.484 8.392zM359.257 120.871c-7.527 4.968-16.446 8.807-21.865.565-5.419-8.242 1.693-15.053 9.22-19.833 7.527-4.78 16.483-8.806 21.865-.527 5.382 8.28-1.694 14.865-9.22 19.795zm-10.123-15.429c-6.887 4.553-12.081 8.881-8.731 13.999 3.349 5.118 9.408 2.108 16.332-2.408 6.925-4.516 12.081-8.882 8.731-14-3.349-5.118-9.408-2.107-16.332 2.409zM378.224 118.388l1.656 4.102-25.139 15.956 29.053-6.209 1.957 4.93-25.214 15.655 29.391-5.683 1.656 4.102-36.128 6.473-1.994-4.892 25.176-15.43-28.977 5.909-1.995-5.005 30.558-19.908zM391.884 156.773l1.129 4.253-34.622 9.032-1.129-4.253 34.622-9.032zM394.518 167.612l.866 5.645-27.698 16.295 29.504-4.591.678 4.365-35.376 5.495-.903-5.984 26.833-15.768-28.602 4.403-.639-4.366 35.337-5.494zM387.934 216.46c3.763 0 7.037-1.43 7.113-5.796 0-6.134-6.549-7.075-14.79-7.263-8.242-.188-15.054.489-15.054 6.586 0 6.096 7.076 6.811 11.817 6.811l.188-7.037h3.576l-.226 11.064-18.591-.263v-3.312h4.855a7.901 7.901 0 0 1-5.307-7.978c0-9.296 9.221-10.763 18.817-10.538 9.032.189 18.553 2.07 18.327 11.93a9.825 9.825 0 0 1-3.037 7.66 9.825 9.825 0 0 1-7.801 2.652l.113-4.516z" fill="#231F20"/><path d="M205.073 409.104A204.045 204.045 0 0 0 349.407 60.787 204.044 204.044 0 0 0 35.454 91.69a204.047 204.047 0 0 0-34.39 113.367 204.085 204.085 0 0 0 204.009 204.047z" stroke="#231F20" stroke-width="1.33"/><path d="M44.944 250.668a8.922 8.922 0 0 1-3.2 9.38 8.911 8.911 0 0 1-4.848 1.817 8.917 8.917 0 0 1-2.866-17.519 8.916 8.916 0 0 1 10.914 6.322zM63.834 275.28l4.478 7.941c1.543 2.71 5.457 9.634-3.5 14.677a9.629 9.629 0 0 1-7.919 1.356 9.647 9.647 0 0 1-6.193-5.119l-2.672-4.78-13.171 7.527-2.183-3.763 31.16-17.839zm-12.607 12.194 2.521 4.591a6.017 6.017 0 0 0 6.65 2.856 6.004 6.004 0 0 0 2.307-1.125 5.643 5.643 0 0 0 2.597-8.58l-2.446-4.441-11.629 6.699zM74.9 294.248l7.113 9.107a8.356 8.356 0 0 1-1.43 12.758 8.279 8.279 0 0 1-10.5 1.166 5.872 5.872 0 0 1-1.617 7.527l-4.63 3.989c-3.01 2.597-3.386 3.763-3.273 4.968l-3.312-4.065c0-1.054 1.994-2.973 3.312-4.139l4.214-3.764c3.764-3.274 2.22-5.607.866-7.526l-3.763-4.705-12.57 9.785-2.71-3.5 28.3-21.601zM64.816 307.72l2.672 3.425a6.137 6.137 0 0 0 9.973 1.581 5.656 5.656 0 0 0 2.287-4.178 5.645 5.645 0 0 0-1.723-4.44l-3.236-4.14-9.973 7.752zM89.69 312.274l3.048 3.199-25.967 24.612-3.048-3.199 25.967-24.612zM94.394 317.505l3.5 3.048-14.865 27.962 25.515-18.817 3.463 3.011L81.9 353.783l-4.253-3.763 16.747-32.515zM116.899 335.531l4.892 3.312-12.118 34.999-3.763-2.559 3.387-9.559-9.484-6.435-7.715 6.623-3.763-2.559 28.564-23.822zm-14.301 17.274 7.941 5.419 5.946-16.86-13.887 11.441zM121.001 379.148l-3.764-2.032 14.64-28.3-8.129-4.065 1.806-3.462 19.758 10.199-1.807 3.5-8.016-4.178-14.488 28.338zM146.704 351.488l17.424 6.059-1.279 3.763-13.285-4.591-3.763 10.612 12.532 4.328-1.28 3.763-12.419-4.327-4.215 12.118 13.887 4.817-1.28 3.763L135 385.546l11.704-34.058zM202.966 386.599c-1.016 6.699-4.215 12.645-12.005 11.968-10.124-.941-10.613-10.575-9.823-19.569.791-8.995 3.35-18.365 13.172-17.462 7.263.639 9.935 5.005 9.521 12.005l-4.591-.414c.263-4.027-.715-7.527-5.269-8.016-6.096-.527-7.526 6.059-8.241 14.3-.715 8.242-.527 15.054 5.569 15.543 5.307.489 6.511-4.441 7.075-8.769l4.592.414zM230.174 379.261c.527 8.994-.564 18.817-10.424 19.231-9.86.413-12.08-8.844-12.607-17.876-.527-9.032.564-18.817 10.424-19.231 9.86-.414 12.043 8.882 12.607 17.876zm-18.402 1.091c.489 8.242 1.656 15.054 7.79 14.527 6.134-.527 6.473-7.113 5.984-15.355-.49-8.241-1.656-15.053-7.79-14.526-6.135.527-6.511 7.113-5.984 15.354zM230.662 360.858l7.226-1.731 13.585 25.892.339-29.241 7.188-1.731 8.392 34.773-4.29 1.054-7.527-30.408-.376 32.252-4.29 1.016-15.054-28.564 7.339 30.408-4.29 1.016-8.242-34.736zM262.727 351.751l8.354-3.763c2.86-1.242 10.161-4.441 14.263 4.967a9.636 9.636 0 0 1-5.269 13.661l-5.005 2.183 6.059 13.849-4.027 1.769-14.375-32.666zm10.876 13.812 4.817-1.995a6.026 6.026 0 0 0 3.517-6.321 6.033 6.033 0 0 0-.883-2.41 5.636 5.636 0 0 0-5.826-4.171 5.647 5.647 0 0 0-2.453.746l-4.554 1.957 5.382 12.194zM287 339.596l5.08-3.124 27.209 25.101-3.763 2.484-7.527-6.962-9.747 6.097 2.973 9.709-3.763 2.484L287 339.596zm10.086 20.209 8.128-5.119-13.134-12.343 5.006 17.462zM300.284 330.902l4.328-3.763 28.451 15.053-19.457-22.58 3.312-2.86 23.333 27.134-4.516 3.725-27.585-14.488 18.816 21.94-3.349 2.898-23.333-27.059zM318.877 313.93l3.048-3.161 25.817 24.725-3.049 3.198-25.816-24.762zM324.069 308.473l11.29-14.489 3.049 2.409-8.694 11.064 8.806 6.962 8.205-10.424 3.085 2.408-8.241 10.425 10.085 7.94 9.108-11.516 3.048 2.409-11.817 15.053-27.924-22.241zM352.294 283.296c-3.236-1.881-6.171-2.032-8.279 1.618a5.315 5.315 0 0 0 .176 6.632 5.302 5.302 0 0 0 1.894 1.422c8.693 5.043 11.967-12.607 23.257-6.059a10.092 10.092 0 0 1 5.415 6.644 10.09 10.09 0 0 1-1.651 8.409c-4.215 7.226-9.183 7.188-15.769 3.387l2.221-3.763c3.462 2.032 7.526 3.951 10.575-1.618a6.017 6.017 0 0 0 .69-4.792 6.026 6.026 0 0 0-3.061-3.751c-8.769-5.08-12.156 12.457-23.483 5.908a9.374 9.374 0 0 1-5.038-10.448 9.365 9.365 0 0 1 1.764-3.739 8.87 8.87 0 0 1 5.894-5.281 8.878 8.878 0 0 1 7.766 1.517l-2.371 3.914zM365.164 250.668a8.917 8.917 0 0 1 7.639-6.338 8.916 8.916 0 0 1 8.769 4.65 8.918 8.918 0 0 1-10.462 12.753 8.994 8.994 0 0 1-5.946-11.065z" fill="#231F20"/></svg>