<svg width="768" height="185" fill="none" xmlns="http://www.w3.org/2000/svg"><path d="M0 183.833h640.698L767.282 0H104.105L0 183.833z" fill="#fff"/><path d="M294.737 22.902c-.111-1.451-.666-2.345-2.332-2.233-1.443.112-2.22 1.005-2.109 2.345.111 1.787 1.554 2.122 2.997 2.457 1.666.447 3.553.893 3.775 3.462.222 3.127-1.998 4.132-3.886 4.355-3.108.223-4.219-1.34-4.441-4.132l1.666-.112c.111 1.564.333 3.127 2.775 2.904 1.333-.112 2.221-1.117 2.11-2.569-.111-1.786-1.554-2.121-2.998-2.568-1.665-.447-3.553-.893-3.775-3.574-.111-1.228.222-3.796 3.664-4.02 2.554-.223 3.775 1.005 3.997 3.462l-1.443.223z" fill="#FE8836"/><path fill-rule="evenodd" clip-rule="evenodd" d="m283.191 20.892-2.22.559-.778 13.959 1.666-.447.222-3.908 4.219-1.006 1.776 3.35 1.666-.446-6.551-12.06zm2.443 8.04-3.553.894.333-6.812h.111l3.109 5.919z" fill="#FE8836"/><path d="m270.757 24.69 6.439-2.458.556 1.452-4.886 1.787 1.444 4.02 4.663-1.787.555 1.452-4.663 1.787 2.22 5.918-1.554.559-4.774-12.73zM258.544 32.395c1.332-.894 2.331-.447 3.108.781l1.222-1.005c-1.444-2.01-3.109-2.456-5.219-1.005-2.775 1.899-1.887 4.244-1.11 5.249 1.443 2.122 3.331 1.675 4.996 1.117 1.444-.447 2.887-.782 3.886.67.889 1.228.555 2.568-.555 3.35-1.998 1.452-2.998.111-3.886-1.117l-1.332 1.005c1.665 2.345 3.331 3.239 5.884 1.452 1.555-1.117 2.998-3.127 1.222-5.696-1.444-2.121-3.331-1.563-4.997-1.116-1.443.447-2.886.893-3.886-.559-.777-1.228-.444-2.345.667-3.126zM251.437 36.415l1.332-1.117 1.11 1.228c.999 1.117 1.666 2.122.777 3.574l-.666-.67c.333-.67.222-1.117-.333-1.675l-.333-.335-.444.558-1.443-1.563z" fill="#FE8836"/><path fill-rule="evenodd" clip-rule="evenodd" d="M258.432 92.363h25.092l-.666 7.035h-17.209l-.556 4.802c.333-.223.667-.447 1.111-.558 1.443-.559 3.664-.894 5.44-.894 6.44 0 11.547 3.574 12.657 9.046v-1.564c0-9.827 4.663-18.426 15.433-18.202 10.881 0 13.989 9.38 14.211 16.192.556-9.045 5.33-16.527 15.433-16.416 11.436.112 14.212 10.274 14.212 17.198 0 8.487-3.886 18.203-15.211 18.203-8.216 0-14.101-6.031-14.434-16.416-.555 7.929-4.663 16.416-15.21 16.416-7.439 0-12.879-4.802-14.101-13.289v.111c0 3.239-1.332 6.589-3.553 8.822-3.664 3.797-8.993 4.132-11.769 4.132-1.887 0-7.438 0-11.213-3.908-2.11-2.234-2.665-4.579-3.22-7.147v-.112l9.992-1.117c0 .894 0 1.675.222 2.457.556 1.899 2.221 2.904 4.219 2.904 3.553 0 4.997-2.681 4.997-5.249 0-3.127-1.666-5.249-5.219-5.249-2.664 0-3.552 1.229-4.108 2.122v.112l-8.438-1.117 1.888-18.314zm35.862 18.314c0-3.35.222-7.817 1.443-9.939.888-1.563 2.332-2.122 3.442-2.122 2.331 0 3.553 1.899 4.108 4.132.444 2.122.555 5.919.555 7.371 0 4.913-.666 10.385-4.885 10.385-2.221 0-3.664-1.563-4.33-4.243a45.728 45.728 0 0 1-.333-5.584zm31.087-9.939c-1.332 2.122-1.443 6.589-1.443 9.939 0 1.899.111 3.685.444 5.472.666 2.68 2.109 4.244 4.33 4.244 4.108 0 4.885-5.472 4.885-10.386 0-1.452-.111-5.249-.555-7.37-.444-2.122-1.665-4.132-4.108-4.132-1.221.111-2.665.67-3.553 2.233z" fill="#FE8836"/><path d="M257.433 90.241v-6.7h3.997V66.79h-3.997v-7.147h21.206v7.147h-3.997v16.75h3.997v6.701h-21.206zM297.735 83.652v6.589h16.21v-6.477c2.221 4.914 7.883 7.147 13.657 7.147 4.663 0 11.214-1.117 12.657-8.375v-.782h-8.882c0 2.457-1.777 3.685-3.775 3.685-3.886 0-4.108-3.238-4.108-6.365v-.112c0-3.127.333-6.365 4.108-6.365 2.997 0 3.553 2.68 3.664 5.137l8.993-1.005c-1.11-10.498-12.657-9.716-12.657-9.716-7.439 0-14.656 3.685-14.656 11.95 0 1.674.333 3.238.888 4.578h-2.553v-8.822c0-5.584-4.108-7.706-9.104-7.706-3.553 0-6.329 1.005-8.661 3.797-.222.223-.444.558-.666.67v-4.579h-13.101v6.7h2.998v10.051h-2.998v6.7h16.543v-6.7h-3.22v-5.807c0-2.457 1.888-4.243 4.33-4.243 1.888 0 3.442.893 3.442 3.015v7.035h-3.109z" fill="#FE8836"/><path d="M343.368 90.464c2.109 0 3.775-1.786 3.775-3.796 0-2.122-1.777-3.797-3.775-3.797-2.11 0-3.775 1.786-3.775 3.797 0 2.121 1.776 3.796 3.775 3.796z" fill="#FE8836"/><path fill-rule="evenodd" clip-rule="evenodd" d="M242.11 91.916c0 30.933 24.981 56.06 55.736 56.06 30.755 0 55.736-25.127 55.736-56.06 0-30.933-24.981-56.06-55.736-56.06-30.755 0-55.736 25.127-55.736 56.06zm1.888 0c0-29.816 24.204-54.161 53.848-54.161s53.848 24.344 53.848 54.161-24.204 54.161-53.848 54.161-53.848-24.344-53.848-54.16zM225.79 93.48l.111 2.233 13.545 3.239-.111-1.787-3.775-.782-.222-4.355 3.664-1.229-.111-1.675-13.101 4.356zm8.216-1.006.222 3.574-6.55-1.452v-.111l6.328-2.01z" fill="#FE8836"/><path d="m225.79 87.226.333-2.792 10.881-1.452v-.111l-10.215-3.797.333-2.792 13.324 1.675-.222 1.675-11.658-1.563v.111l11.213 4.356-.222 1.675-11.88 1.451v.112l11.547 1.452-.222 1.675-13.212-1.675zM230.564 65.673l-2.22 6.589 12.768 4.243 2.22-6.812-1.443-.446-1.776 5.248-4.552-1.563 1.554-4.802-1.443-.447-1.555 4.802-3.997-1.34 1.666-5.025-1.222-.447z" fill="#FE8836"/><path fill-rule="evenodd" clip-rule="evenodd" d="m231.563 63.44 1.888-3.909c.888-1.898 2.554-2.569 4.552-1.675 1.332.67 2.554 1.787 2.221 3.35h.111c.666-1.005 1.776-1.228 2.886-.782l1.888.782c1.443.558 1.887.558 2.22.223l-.888 1.787c-.444.112-1.332-.223-1.998-.447l-1.999-.781c-1.776-.67-2.22.223-2.665 1.005l-.999 2.01 5.441 2.568-.556 1.452-12.102-5.583zm6.107 1.005.666-1.564v-.111c.444-.894 1.11-2.457-1.221-3.462-1.221-.559-2.332-.112-2.998 1.34l-.888 1.786 4.441 2.01z" fill="#FE8836"/><path d="m237.225 52.719-.888 1.452 11.325 7.035.888-1.452-11.325-7.035zM250.437 49.48c1.888 1.676 3.22 3.91 1.444 6.254-2.332 3.015-5.441 1.229-8.105-.782-2.665-2.121-5.108-4.801-2.887-7.705 1.665-2.233 3.553-2.233 5.662-.67l-1.11 1.452c-1.221-.894-2.554-1.34-3.553.111-1.443 1.899.444 3.574 2.887 5.472 2.442 1.899 4.663 3.239 5.995 1.34 1.222-1.675-.111-3.015-1.332-4.02l.999-1.452z" fill="#FE8836"/><path fill-rule="evenodd" clip-rule="evenodd" d="m248.439 39.095-1.554 1.563 6.883 12.173 1.222-1.229-1.999-3.35 2.998-3.127 3.331 1.899 1.221-1.229-12.102-6.7zm6.329 5.472-2.554 2.568-3.331-5.918 5.885 3.35z" fill="#FE8836"/><path d="m300.734 32.953 1.665.112.555-12.061 3.331.223.111-1.451-8.327-.447-.111 1.452 3.331.223-.555 11.949zM308.726 20.11l6.773 1.34-.333 1.452-5.218-1.005-.888 4.132 4.885 1.005-.333 1.452-4.886-1.005-.666 4.69 5.441 1.117-.333 1.452-6.995-1.452 2.553-13.177zM320.941 24.354c1.554.559 1.665 1.564 1.221 2.904l1.554.558c.777-2.345 0-4.02-2.442-4.802-3.22-1.117-4.441 1.117-4.886 2.345-.777 2.457.667 3.574 2.11 4.69 1.221.894 2.443 1.787 1.887 3.574-.444 1.34-1.776 1.898-2.997 1.563-2.332-.781-1.888-2.345-1.444-3.796l-1.554-.559c-.888 2.792-.555 4.579 2.443 5.584 1.776.67 4.219.558 5.218-2.457.777-2.457-.777-3.685-2.11-4.69-1.221-.894-2.442-1.787-1.887-3.462.555-1.452 1.554-1.899 2.887-1.452zM325.382 39.765l-1.444-.782 5.33-10.72-3.109-1.452.666-1.34 7.55 3.797-.666 1.34-2.998-1.564-5.329 10.721zM334.596 38.202l-3.886-2.457-.777 1.228 3.886 2.457.777-1.228zM343.367 40.435c.889-1.228 1.222-2.457-.111-3.462-1.776-1.451-3.552.335-5.551 2.792-1.998 2.457-3.331 4.579-1.554 6.03 1.776 1.452 3.664-.67 4.774-2.01l-2.11-1.675.889-1.117 3.219 2.68-4.33 5.472-.999-.781 1.11-1.452c-.999.67-2.442.782-3.553-.223-2.775-2.234-1.11-5.249 1.222-8.04 2.109-2.68 4.885-5.026 7.661-2.793 2.886 2.346 1.11 4.914.666 5.584v.112l-1.333-1.117z" fill="#FE8836"/><path fill-rule="evenodd" clip-rule="evenodd" d="m352.361 44.455-2.887-3.238-9.993 8.934 1.111 1.228 4.441-4.02 1.554 1.675c.666.67 1.221 1.452-.111 2.792l-1.554 1.451c-.555.447-1.222 1.229-1.222 1.675l1.333 1.564c0-.558.111-.893 1.11-2.01l1.665-1.675c.778-.894 1.111-2.01.445-2.904h.111c1.332.894 2.775.224 3.886-.782 1.443-1.34 1.554-3.126.111-4.69zm-5.219 3.239-1.11-1.229 3.553-3.127 1.332 1.452c1 1.229 1 2.345 0 3.239-1.887 1.675-3.109.446-3.775-.335zM355.469 60.313c-2.887 1.898-6.107 3.35-8.216.223-1.999-3.127.666-5.584 3.442-7.482 2.886-1.898 6.106-3.35 8.216-.223 2.109 3.127-.555 5.583-3.442 7.482zm-3.775-5.807c-2.554 1.675-4.552 3.35-3.331 5.248 1.221 1.899 3.553.782 6.107-.893 2.553-1.675 4.552-3.35 3.33-5.249-1.221-2.01-3.552-.893-6.106.894z" fill="#FE8836"/><path d="m363.242 60.871-.667-1.563-11.435 7.482.777 1.898 10.769-2.233v.111l-9.326 5.807.777 1.899 13.435-2.457-.666-1.563-10.881 2.233v-.112l9.437-5.918-.777-1.899-10.881 2.345v-.111l9.438-5.919zM367.683 73.713l.444 1.675-12.879 3.462-.444-1.675 12.879-3.462zM369.014 79.967l-.333-2.122-13.212 2.122.333 1.675 10.658-1.675v.112l-9.992 5.918.333 2.234 13.212-2.122-.222-1.675-10.991 1.787v-.112l10.214-6.142zM366.239 96.16c1.443-.112 2.664-.559 2.664-2.234.111-2.345-2.442-2.68-5.551-2.792-3.109-.111-5.663.224-5.663 2.457-.111 2.345 2.665 2.569 4.442 2.569l.111-2.68 1.332.111-.111 4.132-6.995-.223V96.27l1.888.112v-.112c-1.111-.446-2.11-1.451-1.999-3.015.111-3.573 3.442-4.02 6.995-4.02 3.442.112 6.884.782 6.884 4.467-.112 3.908-3.331 3.908-4.109 3.908l.112-1.451zM238.003 109.002c.555 1.787-.666 3.685-2.332 4.132-1.776.558-3.663-.67-4.108-2.345-.555-1.787.667-3.685 2.332-4.132 1.776-.447 3.664.558 4.108 2.345z" fill="#FE8836"/><path fill-rule="evenodd" clip-rule="evenodd" d="m246.774 121.286-1.665-3.015-11.769 6.589.888 1.451 4.885-2.792 1 1.787c1.11 2.01 3.108 2.68 5.329 1.452 3.331-1.898 1.887-4.467 1.332-5.472zm-5.44 3.35-.999-1.787 4.33-2.456.888 1.675c.888 1.451.333 2.568-.999 3.238-1.444.894-2.665.447-3.22-.67zM249.216 125.418l2.665 3.462c1.332 1.675 1.11 3.462-.555 4.802-1.222.893-2.665 1.451-3.997.446.666 1.005.333 2.122-.666 2.904l-1.777 1.563c-1.11 1.005-1.332 1.452-1.221 1.899l-1.221-1.564c.111-.446.777-1.116 1.221-1.563l1.554-1.452c1.444-1.228.888-2.122.333-2.792l-1.443-1.786-4.552 3.573-.999-1.34 10.658-8.152zm-3.775 5.025 1 1.34c.666.782 1.665 2.122 3.663.559 1.111-.782 1.222-2.011.223-3.239l-1.222-1.563-3.664 2.903z" fill="#FE8836"/><path d="m255.878 133.347-1.11-1.229-9.66 9.269 1.111 1.228 9.659-9.268zM256.433 134.128l1.333 1.117-5.552 10.386h.111l9.549-7.036 1.332 1.117-11.436 8.04-1.554-1.451 6.217-12.173z" fill="#FE8836"/><path fill-rule="evenodd" clip-rule="evenodd" d="m266.759 142.169-1.887-1.229-10.659 9.046 1.443 1.005 2.887-2.569 3.553 2.457-1.332 3.574 1.443 1.005 4.552-13.289zm-4.219 7.258-2.998-2.01 5.107-4.355h.111l-2.22 6.365z" fill="#FE8836"/><path d="m266.426 157.356-1.444-.782 5.441-10.608-2.998-1.564.666-1.34 7.439 3.909-.666 1.34-2.998-1.564-5.44 10.609zM282.524 149.204l-6.551-2.345-4.441 12.731 6.773 2.345.555-1.452-5.218-1.787 1.554-4.578 4.663 1.675.555-1.452-4.663-1.675 1.444-4.02 4.996 1.787.333-1.229zM297.069 160.148c-.444 2.569-1.554 4.802-4.552 4.467-3.775-.335-3.997-4.02-3.664-7.37.334-3.351 1.222-6.924 4.886-6.589 2.775.223 3.775 1.898 3.553 4.578l-1.777-.223c.111-1.563-.333-2.903-1.998-3.015-2.332-.223-2.776 2.345-3.109 5.36-.333 3.127-.222 5.696 2.109 5.807 1.999.224 2.443-1.675 2.665-3.35l1.887.335z" fill="#FE8836"/><path fill-rule="evenodd" clip-rule="evenodd" d="M303.398 164.615c3.663-.223 4.108-3.909 3.886-7.259-.223-3.462-1.111-6.923-4.775-6.7-3.664.223-4.108 3.908-3.886 7.259.222 3.35 1.111 6.923 4.775 6.7zm-.111-1.34c-2.332.112-2.776-2.457-2.887-5.472-.222-3.127 0-5.695 2.22-5.807 2.332-.112 2.776 2.457 2.887 5.472.222 3.127 0 5.695-2.22 5.807z" fill="#FE8836"/><path d="m307.395 150.433 2.664-.67 5.107 9.715h.111l.111-10.944 2.665-.67 3.109 13.066-1.666.446-2.775-11.39h-.111l-.222 12.06-1.666.447-5.662-10.72h-.111l2.776 11.39-1.666.447-2.664-13.177z" fill="#FE8836"/><path fill-rule="evenodd" clip-rule="evenodd" d="m322.494 145.631-3.109 1.451 5.329 12.284 1.554-.67-2.331-5.248 1.887-.894c2.11-1.005 2.998-2.903 1.999-5.137-1.555-3.461-4.108-2.233-5.329-1.786zm2.775 5.807-1.776.781-2.11-4.69 1.777-.782c1.554-.67 2.553 0 3.108 1.34.667 1.787.111 2.904-.999 3.351zM328.49 142.392l1.888-1.228 10.214 9.492-1.443 1.005-2.776-2.68-3.664 2.345 1.111 3.685-1.444 1.005-3.886-13.624zm3.775 7.594 3.109-1.899-4.885-4.578h-.111l1.887 6.477z" fill="#FE8836"/><path d="m335.04 137.814-1.665 1.451 8.771 10.163 1.221-1.117-7.105-8.264 10.325 5.472 1.777-1.563-8.771-10.163-1.222 1.117 7.328 8.487h-.111l-10.548-5.583zM340.369 132.788l1.11-1.228 9.66 9.269-1.11 1.228-9.66-9.269zM346.588 125.418l-4.33 5.472 10.547 8.375 4.442-5.695-1.222-.893-3.442 4.355-3.775-3.015 3.109-3.909-1.221-.893-3.109 3.908-3.331-2.68 3.331-4.132-.999-.893zM352.915 121.286c-1.221-.782-2.331-.782-3.108.67-.666 1.228-.444 2.345.777 3.015 1.554.894 2.665-.111 3.775-1.117 1.332-1.228 2.664-2.456 4.885-1.116 2.665 1.563 2.332 4.02 1.332 5.583-1.554 2.792-3.442 2.681-5.884 1.34l.888-1.451c1.332.781 2.776 1.563 3.997-.67.666-1.117.333-2.569-.888-3.239-1.555-.893-2.665.112-3.775 1.117-1.332 1.228-2.776 2.457-4.996 1.117-1.111-.67-2.998-2.346-1.222-5.249 1.333-2.233 2.998-2.568 5.108-1.452l-.889 1.452zM361.798 106.769c-1.777-.559-3.664.558-4.108 2.345-.555 1.786.555 3.685 2.331 4.132 1.777.558 3.664-.559 4.108-2.346.444-1.786-.555-3.685-2.331-4.131z" fill="#FE8836"/><path fill-rule="evenodd" clip-rule="evenodd" d="M220.683 91.916c0 42.771 34.64 77.613 77.164 77.613 42.634 0 77.274-34.842 77.163-77.613 0-42.77-34.64-77.612-77.163-77.612-42.524 0-77.164 34.841-77.164 77.612zm1.887 0c0-41.765 33.752-75.714 75.277-75.714 41.524 0 75.276 33.948 75.387 75.714 0 41.766-33.752 75.714-75.276 75.714-41.636 0-75.388-33.948-75.388-75.714z" fill="#FE8836"/><circle cx="427.044" cy="96.028" r="88.961" fill="#fff"/><path d="M424.624 28.151c-.111-1.451-.667-2.345-2.332-2.233-1.443.111-2.221 1.005-2.11 2.345.111 1.787 1.555 2.122 2.998 2.457 1.666.446 3.553.893 3.775 3.462.222 3.126-1.998 4.131-3.886 4.355-3.109.223-4.219-1.34-4.441-4.132l1.665-.112c.112 1.564.334 3.127 2.776 2.904 1.333-.112 2.221-1.117 2.11-2.569-.111-1.786-1.555-2.121-2.998-2.568-1.665-.447-3.553-.894-3.775-3.574-.111-1.228.222-3.797 3.664-4.02 2.554-.223 3.775 1.005 3.997 3.462l-1.443.223z" fill="#FE8836"/><path fill-rule="evenodd" clip-rule="evenodd" d="m413.077 26.141-2.221.559-.777 13.959 1.666-.447.222-3.909 4.219-1.005 1.776 3.35 1.665-.446-6.55-12.06zm2.442 8.04-3.552.894.333-6.812h.111l3.108 5.919z" fill="#FE8836"/><path d="m400.643 29.938 6.439-2.457.555 1.452-4.885 1.787 1.443 4.02 4.664-1.787.555 1.452-4.663 1.787 2.22 5.918-1.554.559-4.774-12.731zM388.429 37.643c1.333-.893 2.332-.446 3.109.782l1.221-1.005c-1.443-2.01-3.108-2.457-5.218-1.005-2.776 1.898-1.887 4.244-1.11 5.249 1.443 2.121 3.331 1.675 4.996 1.116 1.443-.446 2.887-.781 3.886.67.888 1.229.555 2.569-.555 3.35-1.999 1.452-2.998.112-3.886-1.116l-1.332 1.005c1.665 2.345 3.33 3.238 5.884 1.452 1.554-1.117 2.998-3.127 1.221-5.696-1.443-2.121-3.33-1.563-4.996-1.116-1.443.446-2.887.893-3.886-.559-.777-1.228-.444-2.345.666-3.127zM381.323 41.664l1.333-1.117 1.11 1.228c.999 1.117 1.665 2.122.777 3.574l-.666-.67c.333-.67.222-1.117-.333-1.675l-.333-.335-.444.558-1.444-1.563z" fill="#FE8836"/><path fill-rule="evenodd" clip-rule="evenodd" d="M388.318 97.612h25.093l-.667 7.035h-17.209l-.555 4.802c.333-.223.666-.447 1.11-.558 1.444-.559 3.664-.894 5.441-.894 6.439 0 11.547 3.574 12.657 9.046v-1.564c0-9.827 4.663-18.426 15.433-18.202 10.88 0 13.989 9.38 14.211 16.192.555-9.045 5.329-16.527 15.433-16.416 11.436.112 14.211 10.274 14.211 17.198 0 8.487-3.886 18.202-15.21 18.202-8.216 0-14.101-6.03-14.434-16.415-.555 7.928-4.663 16.415-15.211 16.415-7.438 0-12.879-4.801-14.1-13.289v.112c0 3.239-1.332 6.589-3.553 8.822-3.664 3.797-8.993 4.132-11.769 4.132-1.887 0-7.439 0-11.214-3.908-2.109-2.234-2.664-4.579-3.219-7.147v-.112l9.992-1.117c0 .894 0 1.675.222 2.457.555 1.898 2.221 2.903 4.219 2.903 3.553 0 4.996-2.68 4.996-5.248 0-3.127-1.665-5.249-5.218-5.249-2.665 0-3.553 1.229-4.108 2.122v.112l-8.438-1.117 1.887-18.314zm35.862 18.314c0-3.35.222-7.817 1.444-9.939.888-1.563 2.331-2.122 3.441-2.122 2.332 0 3.553 1.899 4.109 4.132.444 2.122.555 5.919.555 7.371 0 4.913-.667 10.385-4.886 10.385-2.22 0-3.663-1.563-4.33-4.243a45.74 45.74 0 0 1-.333-5.584zm31.088-9.939c-1.332 2.122-1.443 6.589-1.443 9.939 0 1.898.111 3.685.444 5.472.666 2.68 2.109 4.243 4.33 4.243 4.108 0 4.885-5.472 4.885-10.385 0-1.452-.111-5.249-.555-7.371-.444-2.121-1.666-4.131-4.108-4.131-1.222.111-2.665.67-3.553 2.233z" fill="#FE8836"/><path d="M387.318 95.49v-6.7h3.997V72.038h-3.997V64.89h21.207v7.148h-3.997v16.75h3.997v6.7h-21.207zM427.622 88.901v6.589h16.21v-6.477c2.221 4.913 7.883 7.147 13.656 7.147 4.664 0 11.214-1.117 12.658-8.376v-.781h-8.883c0 2.457-1.776 3.685-3.775 3.685-3.885 0-4.108-3.239-4.108-6.365v-.112c0-3.127.334-6.365 4.108-6.365 2.998 0 3.553 2.68 3.664 5.136l8.994-1.004c-1.111-10.498-12.658-9.716-12.658-9.716-7.438 0-14.655 3.685-14.655 11.949 0 1.675.333 3.238.888 4.579h-2.554v-8.823c0-5.583-4.108-7.705-9.104-7.705-3.553 0-6.328 1.005-8.66 3.797-.222.223-.444.558-.666.67V72.15h-13.101v6.7h2.997v10.051h-2.997v6.7h16.543v-6.7h-3.22v-5.807c0-2.457 1.887-4.243 4.33-4.243 1.888 0 3.442.893 3.442 3.015V88.9h-3.109z" fill="#FE8836"/><path d="M473.253 95.713c2.11 0 3.775-1.787 3.775-3.797 0-2.121-1.776-3.797-3.775-3.797-2.109 0-3.774 1.787-3.774 3.797 0 2.122 1.776 3.797 3.774 3.797z" fill="#FE8836"/><path fill-rule="evenodd" clip-rule="evenodd" d="M371.996 97.165c0 30.933 24.981 56.06 55.736 56.06 30.754 0 55.735-25.127 55.735-56.06 0-30.933-24.981-56.06-55.735-56.06-30.755 0-55.736 25.127-55.736 56.06zm1.888 0c0-29.817 24.203-54.161 53.848-54.161 29.644 0 53.848 24.344 53.848 54.161s-24.204 54.161-53.848 54.161c-29.645 0-53.848-24.344-53.848-54.161zM355.676 98.728l.111 2.234 13.545 3.238-.111-1.786-3.775-.782-.222-4.355 3.664-1.229-.111-1.675-13.101 4.355zm8.216-1.005.222 3.574-6.551-1.452v-.112l6.329-2.01z" fill="#FE8836"/><path d="m355.676 92.475.333-2.792 10.881-1.452v-.111l-10.215-3.797.333-2.792 13.323 1.675-.222 1.675-11.658-1.564v.112l11.214 4.355-.222 1.675-11.88 1.452v.112l11.547 1.452-.222 1.675-13.212-1.675zM360.45 70.922l-2.221 6.589 12.769 4.243 2.22-6.812-1.443-.447-1.777 5.249-4.552-1.563 1.555-4.802-1.444-.447-1.554 4.802-3.997-1.34 1.665-5.025-1.221-.447z" fill="#FE8836"/><path fill-rule="evenodd" clip-rule="evenodd" d="m361.449 68.689 1.888-3.91c.888-1.897 2.553-2.568 4.552-1.674 1.332.67 2.553 1.787 2.22 3.35h.111c.667-1.005 1.777-1.228 2.887-.782l1.888.782c1.443.558 1.887.558 2.22.223l-.888 1.787c-.444.112-1.332-.223-1.999-.447l-1.998-.781c-1.777-.67-2.221.223-2.665 1.005l-.999 2.01 5.44 2.568-.555 1.452-12.102-5.584zm6.107 1.005.666-1.564v-.112c.444-.893 1.11-2.456-1.221-3.461-1.222-.559-2.332-.112-2.998 1.34l-.888 1.786 4.441 2.01z" fill="#FE8836"/><path d="m367.112 57.968-.888 1.452 11.324 7.035.889-1.452-11.325-7.035zM380.324 54.73c1.887 1.674 3.22 3.908 1.443 6.253-2.331 3.015-5.44 1.228-8.105-.782-2.664-2.121-5.107-4.802-2.886-7.705 1.665-2.234 3.552-2.234 5.662-.67l-1.11 1.452c-1.222-.894-2.554-1.34-3.553.111-1.444 1.899.444 3.574 2.887 5.472 2.442 1.899 4.663 3.239 5.995 1.34 1.221-1.675-.111-3.015-1.332-4.02l.999-1.452z" fill="#FE8836"/><path fill-rule="evenodd" clip-rule="evenodd" d="m378.326 44.344-1.555 1.563 6.884 12.173 1.221-1.229-1.998-3.35 2.998-3.127 3.331 1.899 1.221-1.229-12.102-6.7zm6.328 5.472-2.553 2.568-3.331-5.918 5.884 3.35z" fill="#FE8836"/><path d="m430.619 38.202 1.666.111.555-12.06 3.331.223.111-1.452-8.327-.446-.111 1.451 3.331.224-.556 11.949zM438.613 25.36l6.773 1.34-.333 1.451-5.218-1.005-.889 4.132 4.885 1.005-.333 1.452-4.885-1.005-.666 4.69 5.44 1.117-.333 1.452-6.994-1.452 2.553-13.178zM450.826 29.603c1.555.558 1.666 1.563 1.222 2.904l1.554.558c.777-2.345 0-4.02-2.443-4.802-3.219-1.117-4.441 1.117-4.885 2.345-.777 2.457.666 3.574 2.11 4.69 1.221.894 2.442 1.787 1.887 3.574-.444 1.34-1.776 1.898-2.998 1.563-2.331-.782-1.887-2.345-1.443-3.797l-1.554-.558c-.889 2.792-.555 4.579 2.442 5.584 1.777.67 4.219.558 5.219-2.457.777-2.457-.778-3.685-2.11-4.69-1.221-.894-2.443-1.787-1.887-3.462.555-1.452 1.554-1.899 2.886-1.452zM455.268 45.014l-1.444-.782 5.33-10.72-3.109-1.452.666-1.34 7.55 3.797-.666 1.34-2.998-1.564-5.329 10.72zM464.483 43.45l-3.886-2.456-.778 1.228 3.886 2.457.778-1.229zM473.253 45.684c.888-1.229 1.221-2.457-.111-3.462-1.776-1.452-3.553.335-5.551 2.792-1.999 2.457-3.331 4.578-1.555 6.03 1.777 1.452 3.664-.67 4.775-2.01l-2.11-1.675.888-1.117 3.22 2.68-4.33 5.472-.999-.781 1.11-1.452c-.999.67-2.443.782-3.553-.224-2.776-2.233-1.11-5.248 1.221-8.04 2.11-2.68 4.886-5.025 7.661-2.792 2.887 2.345 1.111 4.914.666 5.584v.112l-1.332-1.117z" fill="#FE8836"/><path fill-rule="evenodd" clip-rule="evenodd" d="m482.247 49.704-2.886-3.238-9.993 8.933 1.11 1.229 4.442-4.02 1.554 1.675c.666.67 1.221 1.451-.111 2.791l-1.554 1.452c-.556.447-1.222 1.229-1.222 1.675l1.333 1.564c0-.559.111-.894 1.11-2.01l1.665-1.675c.777-.894 1.11-2.01.444-2.904h.111c1.333.893 2.776.223 3.886-.782 1.444-1.34 1.555-3.127.111-4.69zm-5.218 3.239-1.11-1.229 3.553-3.127 1.332 1.452c.999 1.228.999 2.345 0 3.239-1.887 1.675-3.109.446-3.775-.335zM485.356 65.562c-2.887 1.898-6.107 3.35-8.216.223-1.999-3.127.666-5.584 3.441-7.482 2.887-1.899 6.107-3.35 8.216-.223 2.11 3.126-.555 5.583-3.441 7.482zm-3.775-5.807c-2.554 1.675-4.553 3.35-3.331 5.248 1.221 1.899 3.553.782 6.106-.893 2.554-1.675 4.552-3.35 3.331-5.249-1.221-2.01-3.553-.893-6.106.894z" fill="#FE8836"/><path d="m493.127 66.12-.666-1.564-11.436 7.483.778 1.898 10.769-2.233v.111l-9.326 5.807.777 1.899 13.434-2.457-.666-1.564-10.88 2.234v-.112l9.437-5.918-.777-1.899-10.881 2.345v-.111l9.437-5.92zM497.569 78.962l.444 1.675-12.879 3.462-.445-1.675 12.88-3.462zM498.902 85.216l-.333-2.122-13.213 2.122.334 1.675 10.658-1.675v.112l-9.992 5.918.333 2.234 13.212-2.122-.222-1.675-10.992 1.787v-.112l10.215-6.142zM496.125 101.409c1.444-.112 2.665-.559 2.665-2.234.111-2.345-2.443-2.68-5.551-2.792-3.109-.111-5.663.224-5.663 2.457-.111 2.345 2.665 2.569 4.441 2.569l.111-2.68 1.333.111-.111 4.132-6.995-.223v-1.229l1.887.112v-.112c-1.11-.447-2.109-1.452-1.998-3.015.111-3.573 3.442-4.02 6.995-4.02 3.441.112 6.883.781 6.883 4.467-.111 3.908-3.331 3.908-4.108 3.908l.111-1.451zM367.889 114.251c.555 1.787-.666 3.685-2.332 4.132-1.776.558-3.664-.67-4.108-2.345-.555-1.787.666-3.686 2.332-4.132 1.776-.447 3.664.558 4.108 2.345z" fill="#FE8836"/><path fill-rule="evenodd" clip-rule="evenodd" d="m376.66 126.535-1.666-3.015-11.768 6.588.888 1.452 4.885-2.792.999 1.787c1.111 2.01 3.109 2.68 5.33 1.452 3.33-1.899 1.887-4.467 1.332-5.472zm-5.44 3.35-1-1.787 4.33-2.457.889 1.676c.888 1.451.333 2.568-1 3.238-1.443.893-2.664.447-3.219-.67zM379.102 130.667l2.665 3.462c1.332 1.675 1.11 3.461-.556 4.801-1.221.894-2.664 1.452-3.996.447.666 1.005.333 2.122-.667 2.904l-1.776 1.563c-1.11 1.005-1.332 1.452-1.221 1.899l-1.222-1.564c.111-.447.778-1.117 1.222-1.563l1.554-1.452c1.443-1.228.888-2.122.333-2.792l-1.443-1.787-4.552 3.574-1-1.34 10.659-8.152zm-3.775 5.025.999 1.34c.666.782 1.666 2.122 3.664.558 1.11-.781 1.221-2.01.222-3.238l-1.221-1.564-3.664 2.904z" fill="#FE8836"/><path d="m385.765 138.595-1.111-1.228-9.659 9.269 1.11 1.228 9.66-9.269zM386.32 139.377l1.332 1.117-5.551 10.385h.111l9.548-7.035 1.333 1.117-11.436 8.04-1.554-1.451 6.217-12.173z" fill="#FE8836"/><path fill-rule="evenodd" clip-rule="evenodd" d="m396.646 147.418-1.888-1.229-10.658 9.046 1.443 1.005 2.887-2.569 3.553 2.457-1.333 3.574 1.444 1.005 4.552-13.289zm-4.219 7.258-2.998-2.01 5.107-4.355h.111l-2.22 6.365z" fill="#FE8836"/><path d="m396.312 162.605-1.444-.782 5.44-10.609-2.997-1.563.666-1.34 7.439 3.909-.666 1.34-2.998-1.564-5.44 10.609zM412.411 154.453l-6.551-2.345-4.441 12.73 6.773 2.346.555-1.452-5.219-1.787 1.555-4.579 4.663 1.676.555-1.452-4.663-1.675 1.443-4.02 4.997 1.786.333-1.228zM426.955 165.397c-.444 2.568-1.554 4.802-4.552 4.467-3.775-.335-3.997-4.02-3.664-7.371.333-3.35 1.221-6.923 4.885-6.588 2.776.223 3.775 1.898 3.553 4.578l-1.776-.223c.111-1.564-.333-2.904-1.999-3.015-2.331-.224-2.775 2.345-3.108 5.36-.334 3.127-.222 5.695 2.109 5.807 1.999.223 2.443-1.675 2.665-3.35l1.887.335z" fill="#FE8836"/><path fill-rule="evenodd" clip-rule="evenodd" d="M433.284 169.864c3.664-.224 4.108-3.909 3.886-7.259-.222-3.462-1.11-6.924-4.774-6.7-3.664.223-4.108 3.908-3.886 7.258.222 3.351 1.11 6.924 4.774 6.701zm-.111-1.34c-2.331.111-2.775-2.457-2.886-5.472-.222-3.127 0-5.696 2.22-5.807 2.332-.112 2.776 2.457 2.887 5.472.222 3.127 0 5.695-2.221 5.807z" fill="#FE8836"/><path d="m437.28 155.681 2.665-.67 5.107 9.716h.111l.111-10.944 2.665-.67 3.109 13.066-1.666.446-2.775-11.39h-.111l-.223 12.06-1.665.447-5.662-10.721h-.111l2.775 11.391-1.665.447-2.665-13.178z" fill="#FE8836"/><path fill-rule="evenodd" clip-rule="evenodd" d="m452.381 150.88-3.109 1.451 5.33 12.284 1.554-.67-2.331-5.248 1.887-.894c2.11-1.005 2.998-2.903 1.999-5.137-1.555-3.462-4.108-2.233-5.33-1.786zm2.776 5.806-1.777.782-2.109-4.69 1.776-.782c1.555-.67 2.554 0 3.109 1.34.666 1.787.111 2.904-.999 3.35zM458.376 147.641l1.887-1.228 10.215 9.492-1.443 1.005-2.776-2.68-3.664 2.345 1.11 3.685-1.443 1.005-3.886-13.624zm3.775 7.594 3.109-1.899-4.886-4.578h-.111l1.888 6.477z" fill="#FE8836"/><path d="m464.926 143.062-1.665 1.452 8.771 10.162 1.221-1.116-7.106-8.264 10.326 5.472 1.776-1.564-8.771-10.162-1.221 1.117 7.328 8.487h-.111l-10.548-5.584zM470.257 138.037l1.11-1.228 9.659 9.269-1.11 1.228-9.659-9.269zM476.474 130.667l-4.33 5.472 10.547 8.375 4.441-5.695-1.221-.894-3.442 4.356-3.775-3.016 3.109-3.908-1.221-.893-3.109 3.908-3.331-2.68 3.331-4.132-.999-.893zM482.802 126.535c-1.221-.782-2.331-.782-3.109.67-.666 1.228-.444 2.345.778 3.015 1.554.893 2.664-.112 3.774-1.117 1.333-1.228 2.665-2.456 4.886-1.116 2.664 1.563 2.331 4.02 1.332 5.583-1.554 2.792-3.442 2.68-5.884 1.34l.888-1.451c1.332.781 2.775 1.563 3.997-.671.666-1.116.333-2.568-.888-3.238-1.555-.893-2.665.112-3.775 1.117-1.333 1.228-2.776 2.457-4.997 1.116-1.11-.67-2.997-2.345-1.221-5.248 1.332-2.234 2.998-2.569 5.107-1.452l-.888 1.452zM491.684 112.017c-1.776-.558-3.663.559-4.108 2.346-.555 1.786.556 3.685 2.332 4.131 1.776.559 3.664-.558 4.108-2.345.444-1.787-.555-3.685-2.332-4.132z" fill="#FE8836"/><path fill-rule="evenodd" clip-rule="evenodd" d="M350.568 97.165c0 42.771 34.641 77.612 77.164 77.612 42.635 0 77.275-34.841 77.164-77.612 0-42.77-34.64-77.613-77.164-77.613-42.523 0-77.164 34.842-77.164 77.613zm1.888 0c0-41.766 33.752-75.714 75.276-75.714 41.524 0 75.277 33.948 75.388 75.714 0 41.766-33.753 75.714-75.277 75.714-41.635 0-75.387-33.948-75.387-75.714z" fill="#FE8836"/><path d="M565.206 108.264h-4.392l-7.488-10.296-7.488 10.296h-4.392l9.756-13.104-9.324-12.528h4.356l7.128 9.792 7.092-9.792h4.392l-9.396 12.564 9.756 13.068zm19.661-3.06v3.06h-16.812v-2.772l8.82-9.684c1.128-1.248 1.944-2.376 2.448-3.384.528-1.032.792-2.052.792-3.06 0-1.296-.372-2.28-1.116-2.952-.744-.696-1.824-1.044-3.24-1.044-2.376 0-4.752.936-7.128 2.808l-1.332-2.736c1.008-.936 2.292-1.68 3.852-2.232a13.527 13.527 0 0 1 4.716-.864c2.448 0 4.38.612 5.796 1.836 1.44 1.224 2.16 2.88 2.16 4.968a9.66 9.66 0 0 1-.972 4.248c-.648 1.32-1.728 2.796-3.24 4.428l-6.84 7.38h12.096z" fill="#FE8836"/></svg>