<?xml version="1.0" encoding="utf-8"?>
<!-- Generator: Adobe Illustrator 23.0.5, SVG Export Plug-In . SVG Version: 6.00 Build 0)  -->
<svg version="1.1" id="Слой_1" xmlns="http://www.w3.org/2000/svg" xmlns:xlink="http://www.w3.org/1999/xlink" x="0px" y="0px"
	 width="83px" height="95.5px" viewBox="0 0 83 95.5" style="enable-background:new 0 0 83 95.5;" xml:space="preserve">
<style type="text/css">
	.st0{fill:#FFFFFF;}
</style>
<path class="st0" d="M83,25.2c0-0.4,0-0.8,0-1.1c0-0.1,0-0.1,0-0.2c0-0.1-0.1-0.1-0.2-0.1c-0.7-0.4-1.5-0.8-2.2-1.2
	c-1.2-0.7-2.5-1.4-3.7-2.1c-0.8-0.5-1.6-0.9-2.4-1.4c-0.8-0.5-1.6-0.9-2.4-1.4c-0.5-0.3-1.1-0.6-1.6-0.9c-0.5-0.3-1.1-0.7-1.7-1
	c-0.5-0.3-0.9-0.6-1.4-0.8c-0.9-0.5-1.8-1-2.6-1.5c-0.9-0.5-1.7-1-2.6-1.5c-0.9-0.5-1.8-1.1-2.7-1.6c-0.9-0.5-1.8-1.1-2.7-1.6
	c-1-0.6-2-1.2-3-1.8c-1.1-0.6-2.2-1.2-3.3-1.9c-0.8-0.5-1.6-0.9-2.5-1.4c-0.9-0.5-1.7-1-2.6-1.5c-1.2-0.7-2.4-1.4-3.6-2.1
	C41.6,0,41.6,0,41.5,0c-0.1,0-0.1,0-0.2,0.1c-0.5,0.3-0.9,0.5-1.4,0.8c-0.8,0.5-1.6,0.9-2.5,1.4c-0.9,0.5-1.8,1-2.6,1.5
	c-1.1,0.6-2.1,1.2-3.2,1.8c-0.9,0.5-1.8,1.1-2.8,1.6c-0.8,0.5-1.7,0.9-2.5,1.4c-1,0.6-2,1.2-3,1.8c-0.9,0.5-1.9,1.1-2.8,1.6
	c-0.8,0.4-1.5,0.9-2.3,1.3c-0.9,0.5-1.8,1.1-2.8,1.6c-0.8,0.4-1.6,0.9-2.3,1.3c-0.7,0.4-1.4,0.8-2,1.2s-1.4,0.8-2,1.2
	c-1,0.6-1.9,1.1-2.9,1.7c-0.8,0.4-1.5,0.9-2.3,1.3c-1.1,0.7-2.2,1.3-3.4,1.9c-0.2,0.1-0.3,0.2-0.4,0.3C0,24,0,24.2,0,24.3
	c0,15.7,0,31.3,0,47c0,0.1,0,0.1,0,0.2c0,0.1,0,0.1,0,0.2c0,0,0.1,0.1,0.1,0.1c0.5,0.3,0.9,0.6,1.4,0.8c0.7,0.4,1.3,0.7,2,1.1
	c0.6,0.3,1.1,0.7,1.7,1c0.9,0.5,1.8,1.1,2.7,1.6c1,0.6,2,1.1,3,1.7c0.9,0.5,1.8,1,2.7,1.5c1.3,0.7,2.6,1.5,3.9,2.2
	c1.5,0.8,2.9,1.7,4.4,2.6c0.8,0.5,1.6,1,2.5,1.4c1.2,0.6,2.3,1.4,3.5,2c0.8,0.5,1.6,0.9,2.5,1.4c1.1,0.6,2.1,1.2,3.2,1.8
	c0.8,0.5,1.6,0.9,2.5,1.4c1.2,0.7,2.4,1.4,3.6,2.1c0.6,0.3,1.2,0.6,1.7,1c0.1,0.1,0.2,0.1,0.3,0.1c0.1,0,0.2,0,0.3-0.1
	c1.1-0.6,2.1-1.3,3.2-1.9c0.9-0.5,1.9-1.1,2.8-1.6c0.9-0.5,1.7-1,2.6-1.5c0.6-0.3,1.1-0.7,1.7-1c0.9-0.5,1.8-1,2.6-1.5
	c0.7-0.4,1.4-0.8,2.1-1.2c0.7-0.4,1.3-0.7,2-1.1c0.8-0.4,1.5-0.9,2.3-1.4c0.9-0.5,1.8-1,2.7-1.6c1.4-0.8,2.7-1.6,4.1-2.3
	c1.6-0.9,3.1-1.8,4.7-2.7c1.3-0.8,2.6-1.5,3.9-2.3c1.1-0.6,2.2-1.3,3.3-1.9c1-0.6,2-1.1,3-1.7c0.1,0,0.2-0.1,0.2-0.2
	c0.1-0.1,0.1-0.2,0.1-0.3c0-7.9,0-15.7,0-23.6L83,25.2z M80.3,70.5c-1.3,0.7-2.5,1.5-3.8,2.2c-1.6,0.9-3.2,1.8-4.7,2.7
	c-1.4,0.8-2.7,1.6-4.1,2.3c-1.4,0.8-2.7,1.6-4.1,2.4c-1.1,0.6-2.2,1.2-3.3,1.9c-1.1,0.6-2.2,1.3-3.3,1.9c-0.8,0.5-1.6,0.9-2.5,1.4
	c-1.2,0.7-2.4,1.3-3.5,2c-0.7,0.4-1.4,0.8-2.1,1.2c-0.9,0.5-1.8,1-2.7,1.5c-1,0.6-2,1.2-3,1.7c-0.6,0.3-1.2,0.6-1.8,1
	c-0.2,0.1-0.3,0-0.4-0.1c-0.8-0.5-1.6-0.9-2.3-1.4c-1-0.6-2-1.2-3.1-1.8c-1-0.6-2-1.2-3-1.8c-1.1-0.6-2.2-1.3-3.3-1.9
	c-0.7-0.4-1.4-0.8-2.1-1.2c-0.9-0.5-1.9-1.1-2.8-1.6c-0.9-0.5-1.8-1.1-2.8-1.6l-2.9-1.6c-1.4-0.8-2.8-1.6-4.3-2.4
	c-0.8-0.4-1.5-0.9-2.3-1.3c-1.2-0.7-2.3-1.3-3.5-2c-0.8-0.4-1.5-0.9-2.3-1.3c-1-0.6-1.9-1.1-2.9-1.7c-0.4-0.2-0.8-0.5-1.2-0.7
	c0,0-0.1,0-0.1-0.1c0,0,0-0.1,0-0.1c0-0.1,0-0.2,0-0.3c0-14.8,0-29.6,0-44.4c0-0.1,0-0.2,0.1-0.3c0.1-0.1,0.1-0.2,0.2-0.2
	c1-0.6,2-1.1,3-1.7c1.5-0.9,3-1.7,4.5-2.5c1-0.6,2-1.2,3-1.8c1.3-0.8,2.6-1.5,3.9-2.2c1.4-0.8,2.8-1.6,4.2-2.4
	c1.2-0.7,2.4-1.4,3.6-2.1c1.2-0.7,2.4-1.4,3.6-2.1c1.4-0.8,2.7-1.6,4.1-2.3c1-0.6,2.1-1.2,3.1-1.8c1.1-0.7,2.3-1.3,3.4-2
	c0.7-0.4,1.5-0.8,2.2-1.3c0.3-0.2,0.4,0,0.6,0.1c1,0.6,2,1.1,3,1.7c0.8,0.4,1.5,0.9,2.3,1.3c0.9,0.5,1.7,1,2.6,1.5
	c0.7,0.4,1.4,0.8,2.1,1.2c0.6,0.4,1.3,0.7,1.9,1.1c1,0.6,2.1,1.2,3.1,1.8c1,0.6,2,1.2,3,1.8c1.1,0.6,2.2,1.3,3.3,1.9
	c1.1,0.6,2.2,1.3,3.4,1.9c0.8,0.5,1.7,0.9,2.5,1.4c0.9,0.5,1.9,1.1,2.8,1.6c1,0.6,2,1.1,3,1.7c0.7,0.4,1.4,0.8,2.1,1.2
	c1,0.5,1.9,1.1,2.9,1.6c0.2,0.1,0.4,0.3,0.7,0.4c0,0,0.1,0.1,0.1,0.1c0,0,0,0.1,0,0.1c0,0.1,0,0.2,0,0.2v22.2c0,7.4,0,14.8,0,22.1
	c0,0.1,0,0.2-0.1,0.4C80.5,70.4,80.4,70.5,80.3,70.5L80.3,70.5z"/>
<path class="st0" d="M78.3,26.8c0-0.2,0-0.2-0.2-0.3c-1.4-0.8-2.7-1.6-4.1-2.3c-1.4-0.8-2.7-1.6-4.1-2.3c-1.4-0.8-2.7-1.6-4.1-2.3
	c-1.4-0.8-2.7-1.6-4.1-2.3c-1.4-0.8-2.7-1.5-4-2.3c-1.3-0.8-2.6-1.5-3.9-2.2c-1.3-0.8-2.6-1.5-4-2.3c-0.9-0.5-1.8-1-2.6-1.5
	c-0.7-0.4-1.5-0.9-2.2-1.3c-1.1-0.6-2.2-1.3-3.3-1.9c-0.1,0-0.1-0.1-0.2-0.1c-0.1,0-0.1,0-0.2,0.1C41,5.7,40.7,5.8,40.4,6
	c-1.3,0.8-2.7,1.6-4.1,2.3c-1.4,0.8-2.7,1.6-4,2.3c-1.2,0.7-2.3,1.4-3.5,2c-1,0.6-1.9,1.1-2.9,1.7c-1.1,0.6-2.1,1.2-3.2,1.9
	c-1.1,0.6-2.2,1.2-3.3,1.9c-0.8,0.5-1.6,0.9-2.5,1.4c-1.1,0.7-2.3,1.3-3.4,1.9c-0.9,0.6-1.9,1.1-2.9,1.7c-0.9,0.5-1.7,1-2.6,1.5
	c-1,0.6-2.1,1.2-3.1,1.8c-0.1,0-0.2,0.1-0.3,0.2c-0.1,0.1-0.1,0.2-0.1,0.3c0,13.9,0,27.7,0,41.6v0.3c0,0,0,0.1,0,0.1
	c0,0,0.1,0.1,0.1,0.1c0.9,0.5,1.7,1,2.6,1.5c0.6,0.3,1.1,0.7,1.7,1c1,0.6,2,1.2,3,1.8c0.8,0.4,1.5,0.9,2.3,1.4
	c1.2,0.7,2.4,1.4,3.6,2c0.7,0.4,1.3,0.7,2,1.1c0.4,0.2,0.7,0.4,1,0.6c0.2,0.3,0.4,0.3,0.7,0.4c0,0,0,0,0.1,0c0.9,0.5,1.7,1,2.6,1.5
	c0.7,0.4,1.4,0.8,2.1,1.2c0.9,0.5,1.9,1,2.9,1.6c0.9,0.5,1.8,1,2.7,1.5c1.3,0.7,2.6,1.5,3.9,2.2c1,0.6,1.9,1.1,2.9,1.7l2.6,1.5
	c0.1,0,0.2,0.1,0.3,0.1c0.1,0,0.2,0,0.3-0.1c0.5-0.3,0.9-0.6,1.4-0.8c1.2-0.6,2.4-1.4,3.6-2c0.7-0.4,1.4-0.8,2.1-1.2
	c0.9-0.5,1.8-1,2.6-1.5c0.8-0.4,1.5-0.9,2.3-1.4c1.2-0.7,2.4-1.3,3.6-2c1.2-0.7,2.4-1.4,3.5-2.1c1.2-0.7,2.3-1.3,3.5-2
	c0.8-0.5,1.6-0.9,2.4-1.4c0.6-0.4,1.3-0.7,1.9-1.1c0.7-0.4,1.4-0.8,2.1-1.2c0.9-0.5,1.7-1,2.6-1.5c0.8-0.5,1.6-0.9,2.4-1.4
	c0.8-0.4,1.5-0.9,2.3-1.3c0.1,0,0.1-0.1,0.2-0.2c0-0.1,0.1-0.2,0-0.2C78.3,54.7,78.3,40.8,78.3,26.8L78.3,26.8z M14.5,59.6
	c-0.6,0-1.2,0-1.8,0c-0.4,0-0.4,0-0.4,0.4c0,1.9,0,3.9,0,5.8c0,0.2,0,0.3-0.3,0.3c-0.5,0-1,0-1.5,0c-0.2,0-0.3-0.1-0.3-0.3
	c0-2,0-3.9,0-5.9c0-0.2,0-0.3-0.3-0.3c-0.6,0-1.2,0-1.8,0c-0.2,0-0.3-0.1-0.3-0.3c0-0.4,0-0.8,0-1.3c0-0.2,0.1-0.3,0.3-0.3
	c1,0,2.1,0,3.1,0c1,0,1.9,0,2.9,0c0.2,0,0.4,0,0.5,0.3c0,0.4,0.1,0.8,0.2,1.2C14.8,59.5,14.7,59.6,14.5,59.6z M21,64.7
	c0,0.4,0,0.8,0,1.2c0,0.2,0,0.2-0.2,0.2c-0.8,0-1.7,0-2.5,0c-0.8,0-1.6,0-2.4,0c-0.2,0-0.2-0.1-0.2-0.2c0-2.6,0-5.2,0-7.8
	c0-0.2,0.1-0.3,0.3-0.2c1.6,0,3.1,0,4.7,0c0.2,0,0.3,0.1,0.3,0.3c0,0.4,0,0.8,0,1.2c0,0.2-0.1,0.3-0.3,0.3c-0.9,0-1.7,0-2.6,0
	c-0.2,0-0.3,0-0.3,0.3c0,0.4,0,0.7,0,1.1c0,0.2,0,0.2,0.2,0.2c0.6,0,1.3,0,1.9,0c0.2,0,0.3,0.1,0.3,0.3c0,0.4,0.1,0.8,0.2,1.2
	c0.1,0.3-0.1,0.2-0.2,0.2c-0.7,0-1.4,0-2.1,0c-0.2,0-0.3,0-0.3,0.3c0,0.4,0,0.7,0,1.1c0,0.2,0,0.3,0.3,0.3c0.9,0,1.8,0,2.7,0
	C21,64.4,21,64.5,21,64.7L21,64.7z M41.2,40.2c0.6-0.9,1.5-1.5,2.5-2c0.2-0.1,0.5-0.2,0.7-0.3c0.1,0,0.1-0.1,0-0.2
	c-0.6-0.5-1-1.1-1.2-1.7c-0.2-0.7-0.3-1.5-0.1-2.2c0.1-0.5,0.4-1,0.7-1.4c0.3-0.4,0.7-0.7,1.2-0.9c0.4-0.2,0.9-0.3,1.4-0.3
	c0.5,0,1,0.1,1.4,0.3c0.4,0.2,0.8,0.5,1.1,0.8c0.3,0.3,0.5,0.7,0.7,1.2c0.3,0.7,0.3,1.5,0.1,2.3c-0.2,0.6-0.5,1.2-0.9,1.7
	c-0.1,0.1-0.3,0.2-0.4,0.3c0.4,0.2,0.7,0.3,1,0.4c1.1,0.5,2.1,1.4,2.7,2.4c0.3,0.5,0.5,1,0.6,1.5c0,0.1,0.1,0.1,0.2,0.1
	c1.1,0,2.2,0,3.3,0c0.1,0,0.2,0,0.2-0.2c0-0.1,0-0.1,0-0.2c0-4.1,0-8.2,0-12.3c0-0.3,0-0.4-0.4-0.4c-4.7,0-9.4,0-14,0
	c-0.2,0-0.4,0-0.5-0.3c-0.1-0.2,0-0.4,0.2-0.6c0.1-0.1,0.3-0.1,0.4,0h9.1c1.6,0,3.3,0,4.9,0c0.2,0,0.3-0.1,0.3-0.3
	c0-0.3,0-0.6-0.2-0.9c-0.3-0.6-0.9-1-1.5-1.1C54.4,26,54.2,26,54,26c-1.6,0-3.1,0-4.7,0h-7.3c-0.1,0-0.2,0-0.3-0.1
	c-0.1-0.1-0.2-0.1-0.2-0.2c0-0.1,0-0.2,0-0.3c0-0.1,0.1-0.2,0.1-0.3c0,0,0.1-0.1,0.1-0.1c0,0,0.1,0,0.1,0c0.5,0,1,0,1.5,0
	c3.6,0,7.3,0,10.9,0c1,0,1.8,0.4,2.5,1.3c0.4,0.5,0.6,1.1,0.6,1.7c0,4.7,0,9.3,0,14c0,0.2,0,0.4,0.1,0.6c0.1,0.2,0.2,0.4,0.4,0.5
	c0.4,0.5,0.9,1,1.3,1.4c0.4,0.4,0.8,0.9,1.2,1.4c0.2,0.2,0.3,0.4,0.3,0.7c0,0.4,0,0.7,0,1.1c-0.1,0.2-0.2,0.4-0.3,0.6
	C60,48.7,59.5,49,59,49c-10.9,0-21.8,0-32.7,0c-1.2,0-1.7-1.4-1.6-2.5c0-0.3,0.3-0.5,0.5-0.7c0.2-0.2,0.4-0.4,0.6-0.7
	c0.4-0.5,0.8-0.9,1.2-1.4c0.3-0.3,0.5-0.6,0.7-0.8c0.1-0.1,0.2-0.2,0.2-0.3c0-0.1,0.1-0.2,0.1-0.3c0-1.9,0-3.8,0-5.7
	c0-0.1,0-0.2,0-0.3c0-0.1,0.1-0.2,0.1-0.2c0.3-0.3,0.8,0,0.8,0.4c0,0.5,0,1.1,0,1.6c0,1.3,0,2.7,0,4c0,0.3,0.1,0.3,0.3,0.3
	c3.4,0,6.8,0,10.3,0c0.3,0,0.5,0,0.6-0.4C40.4,41.3,40.8,40.8,41.2,40.2z M41.3,26.7c0-0.3,0.2-0.5,0.6-0.5c0.2,0,0.4,0,0.7,0
	c0.2,0,0.4,0,0.7,0c0.1,0,0.1,0,0.2,0c0.1,0,0.1,0.1,0.2,0.1c0.1,0,0.1,0.1,0.1,0.2c0,0.1,0,0.1,0.1,0.2c0,0.3-0.2,0.5-0.6,0.5h-1.3
	C41.5,27.2,41.3,27,41.3,26.7z M24.4,22.7c0-0.9,0.5-1.6,1.2-2.1c0.4-0.2,0.9-0.4,1.4-0.4c1.8,0,3.5,0,5.3,0c1.8,0,3.5,0,5.3,0
	c0.9,0,1.7,0.3,2.1,1.1c0.6,0.9,0.5,2.1,0.5,3.1v2.4c0,1.8,0,3.6,0,5.4c0,1-0.5,1.7-1.3,2.2c-0.5,0.3-1.1,0.3-1.7,0.3
	c-0.6,0-0.6,0-0.6,0.6s0,1.2,0,1.9c0,0.1,0,0.3-0.1,0.4s-0.2,0.2-0.3,0.3c-0.3,0.2-0.5,0.1-0.8-0.1c-0.5-0.4-1-0.9-1.4-1.4
	c-0.5-0.5-1-0.9-1.4-1.4c-0.1-0.1-0.1-0.1-0.2-0.1c-0.1,0-0.2,0-0.2,0c-1.7,0-3.4,0-5.1,0c-1.2,0-2.1-0.6-2.5-1.8
	c-0.1-0.2-0.1-0.4-0.1-0.6C24.4,29.2,24.4,26,24.4,22.7z M28.1,65.6c-0.1,0.1-0.3,0.2-0.4,0.2c-0.3,0.1-0.6,0.2-0.9,0.3
	c-0.6,0.1-1.3,0.1-1.9,0c-0.6-0.1-1.1-0.3-1.6-0.6c-0.5-0.3-0.9-0.8-1.1-1.3c-0.3-0.5-0.4-1.1-0.4-1.7c-0.1-1,0-2,0.5-2.9
	c0.1-0.1,0.1-0.2,0.2-0.3c0.8-1.2,2.2-1.7,3.6-1.7c0.7,0,1.3,0.2,1.9,0.5c0.1,0,0.1,0.1,0.1,0.2c0,0.1,0,0.1,0,0.2
	c-0.1,0.5-0.1,0.9-0.2,1.4c0,0.1,0,0.1,0,0.2c0,0,0,0-0.1,0.1c-0.1,0-0.2,0-0.2-0.1c-0.3-0.2-0.6-0.4-0.9-0.5
	c-0.4-0.1-0.9-0.1-1.3,0c-0.4,0.1-0.8,0.4-1.1,0.8c-0.7,1-0.6,2.6,0.1,3.5c0.4,0.5,1,0.7,1.7,0.7c0.6,0,1.2-0.2,1.7-0.5
	c0.3-0.2,0.4,0.8,0.4,0.9C28.1,65.1,28.2,65.4,28.1,65.6L28.1,65.6z M35.9,75.9c-0.6,0-1.1,0-1.7,0c-0.6,0-1.1,0-1.7,0
	c-0.2,0-0.3-0.1-0.3-0.2c0-0.2,0-0.3,0-0.5c0-0.1,0-0.2,0.1-0.3c0-0.1,0.1-0.2,0.2-0.2l0.6-0.6c0.4-0.4,0.8-0.7,1.1-1.1
	c0.3-0.3,0.6-0.7,0.5-1.2c0-0.1-0.1-0.2-0.1-0.2c-0.1-0.1-0.2-0.1-0.2-0.1c-0.4-0.1-0.7,0-1.1,0.1c-0.1,0.1-0.2,0.1-0.3,0.2
	c-0.1,0.1-0.2,0.2-0.3,0.1c-0.1-0.1-0.1-0.2-0.2-0.3c-0.1-0.2-0.1-0.5-0.1-0.7c0-0.2,0.4-0.3,0.5-0.3c0.2-0.1,0.4-0.2,0.6-0.2
	c0.4-0.1,0.9-0.1,1.3,0c0.3,0,0.5,0.1,0.7,0.3c0.5,0.3,0.6,0.9,0.6,1.5c-0.2,1.1-1.2,1.8-1.9,2.5c0,0,0,0,0,0.1c0,0,0,0.1,0,0.1
	c0,0.1,0.1,0.1,0.2,0.1h0.9c0.2,0,0.4,0,0.7,0c0.3,0.1,0.3,0.5,0.3,0.7C36.2,75.7,36.2,75.9,35.9,75.9L35.9,75.9z M36,66.1
	c-0.5,0-1,0-1.5,0c-0.2,0-0.3,0-0.3-0.3c0-0.9,0-1.9,0-2.8c0-0.2,0-0.3-0.3-0.3c-0.8,0-1.6,0-2.3,0c-0.2,0-0.3,0.1-0.3,0.3
	c0,0.9,0,1.9,0,2.8c0,0.2,0,0.3-0.3,0.3c-0.5,0-1.1,0-1.6,0c-0.2,0-0.2,0-0.2-0.2c0-2.6,0-5.3,0-7.9c0-0.2,0.1-0.2,0.2-0.2
	c0.6,0,1.1,0,1.7,0c0.2,0,0.2,0.1,0.2,0.2c0,0.9,0,1.7,0,2.6c0,0.2,0.1,0.3,0.3,0.3c0.8,0,1.6,0,2.3,0c0.2,0,0.3-0.1,0.3-0.3
	c0-0.9,0-1.7,0-2.6c0-0.2,0-0.3,0.2-0.3c0.5,0,1,0,1.6,0c0.2,0,0.3,0.1,0.3,0.3c0,1.3,0,2.6,0,3.9c0,1.3,0,2.6,0,3.9
	C36.2,66.1,36.2,66.1,36,66.1L36,66.1z M40.8,75.1c-0.3,0.4-0.7,0.6-1.1,0.7c-1.2,0.2-2.1-0.1-2.6-1.3c-0.5-1.1-0.4-2.7,0.5-3.6
	c0.8-0.8,2.2-0.9,3-0.1c0.2,0.2,0.3,0.4,0.5,0.6c0.3,0.5,0.4,1,0.4,1.5C41.5,73.7,41.3,74.6,40.8,75.1L40.8,75.1z M45.7,75.9
	c-0.6,0-1.1,0-1.7,0c-0.6,0-1.2,0-1.7,0c-0.1,0-0.2,0-0.2-0.1c0,0,0-0.1,0-0.1c0-0.3,0-0.8,0.2-1l0,0c0.4-0.4,0.8-0.8,1.3-1.3
	c0.3-0.3,0.8-0.7,0.9-1.1c0-0.2,0-0.3,0-0.5c0-0.1-0.1-0.2-0.2-0.2c-0.1,0-0.2-0.1-0.3-0.1c-0.5-0.1-1,0.2-1.4,0.4
	c0,0-0.1,0-0.1,0.1c-0.1,0-0.1-0.1-0.1-0.2c-0.1-0.3-0.1-0.5-0.1-0.8c0,0,0-0.1,0-0.1c0,0,0.1-0.1,0.1-0.1c0.1-0.1,0.2-0.1,0.3-0.2
	c0.8-0.4,2.1-0.5,2.8,0.2c0.6,0.5,0.6,1.4,0.2,2c-0.4,0.6-0.9,1.1-1.5,1.6c-0.1,0.1-0.2,0.1-0.2,0.2c0,0.1,0,0.1,0,0.2
	c0,0,0,0,0.1,0h0.6c0.3,0,0.6,0,0.9,0c0.2,0,0.3,0,0.4,0.2c0.1,0.2,0.1,0.5,0.1,0.7C46,75.8,45.9,75.9,45.7,75.9L45.7,75.9z
	 M46.4,65.7c-0.4,0.2-0.8,0.3-1.1,0.4c-0.7,0.2-1.3,0.2-2,0.1c-1.1-0.2-2.1-0.8-2.6-1.8c-0.2-0.4-0.3-0.8-0.4-1.2
	c-0.2-0.7-0.2-1.4-0.1-2.1c0.2-1.5,1-2.6,2.3-3.2c0.6-0.2,1.3-0.4,1.9-0.3c0.7,0,1.3,0.2,1.9,0.5c0.1,0.1,0.2,0.1,0.2,0.2
	c0,0.1,0.1,0.2,0,0.3c0,0.3-0.1,0.6-0.1,0.9c0,0.2-0.1,0.4-0.2,0.5c0,0,0,0-0.1,0c0,0-0.1,0-0.1,0c0,0-0.1,0-0.1-0.1
	c-0.3-0.2-0.5-0.3-0.8-0.4c-0.4-0.1-0.7-0.2-1.1-0.1c-0.4,0.1-0.7,0.2-1,0.5c-1.2,1.1-1.1,3.5,0.4,4.3c0.8,0.4,2,0.2,2.7-0.3
	c0.1-0.1,0.2-0.1,0.2,0.1c0.1,0.4,0.1,0.9,0.2,1.3c0,0.1,0,0.1,0,0.2C46.5,65.6,46.5,65.7,46.4,65.7L46.4,65.7z M50.6,75.1
	c-0.3,0.4-0.7,0.6-1.1,0.7c-0.7,0.1-1.4,0-2-0.5C47,75,46.8,74.5,46.7,74c-0.1-0.6-0.1-1.2,0-1.8c0.2-0.8,0.5-1.4,1.2-1.7
	c0.5-0.2,1.2-0.3,1.7-0.1c0.3,0.1,0.5,0.2,0.7,0.4c0.2,0.2,0.4,0.4,0.5,0.7c0.2,0.3,0.3,0.6,0.3,1c0,0.2,0,0.4,0,0.6
	C51.2,73.7,51.1,74.5,50.6,75.1L50.6,75.1z M55.2,65.9c-0.1,0.1-0.6,0.1-0.8,0.2c-0.3,0.1-0.6,0.1-0.9,0.1c-0.2,0-0.5,0.1-0.5-0.2
	c-0.1-0.5-0.3-0.9-0.4-1.4c0-0.1-0.1-0.1-0.1-0.2c-0.1,0-0.1-0.1-0.2-0.1c-0.7,0-1.5,0-2.2,0c-0.2,0-0.4,0-0.5,0.3
	c-0.1,0.3-0.2,0.7-0.3,1c-0.1,0.2-0.1,0.5-0.4,0.5c-0.5,0-1,0-1.6,0c-0.2,0-0.3-0.1-0.2-0.3c0.2-0.6,0.5-1.3,0.7-1.9
	c0.2-0.7,0.5-1.3,0.7-2c0.3-1,0.7-1.9,1-2.9c0.1-0.4,0.3-0.7,0.4-1.1c0-0.1,0.1-0.1,0.1-0.2c0.1,0,0.1-0.1,0.2,0h1.6
	c0.3,0,0.5-0.1,0.6,0.3l0.1,0.3c0.8,2.2,1.4,4.4,2.4,6.5C55.1,65.2,55.4,65.6,55.2,65.9L55.2,65.9z M62.5,66
	c-0.4,0.1-0.7,0.2-1.1,0.2c-0.2,0-0.7,0.1-0.9,0c0,0-0.1-0.1-0.1-0.1c-0.5-0.9-1-1.7-1.6-2.6c0-0.1-0.1-0.1-0.2-0.2
	c0,0-0.1-0.1-0.2-0.1c-0.1,0-0.1,0-0.2,0c-0.2,0.1-0.1,0.3-0.1,0.5c0,0.2,0,0.5,0,0.7c0,0.5,0,0.9,0,1.4c0,0.2-0.1,0.3-0.3,0.3
	c-0.5,0-1,0-1.6,0c-0.2,0-0.2-0.1-0.2-0.3c0-1.3,0-2.6,0-3.9c0-1.3,0-2.6,0-3.9c0-0.2,0-0.3,0.3-0.3c1.1,0,2.2-0.1,3.2,0
	c0.8,0,1.5,0.4,2,0.9c1.1,1.1,0.7,3.2-0.6,3.9c-0.3,0.2-0.4,0.2-0.1,0.5c0.5,0.8,1,1.5,1.5,2.3C62.6,65.6,62.8,65.9,62.5,66L62.5,66
	z M68.9,64.7c0,0.4,0,0.8,0,1.2c0,0.2,0,0.2-0.2,0.2c-1.6,0-3.3,0-4.9,0c-0.2,0-0.2-0.1-0.2-0.3c0-1.3,0-2.6,0-3.9
	c0-1.3,0-2.6,0-3.9c0-0.2,0-0.3,0.2-0.3c1.6,0,3.1,0,4.7,0c0.2,0,0.3,0.1,0.3,0.3c0,0.4,0,0.8,0,1.2c0,0.2-0.1,0.3-0.3,0.3
	c-0.9,0-1.7,0-2.6,0c-0.2,0-0.3,0.1-0.3,0.3c0,0.3,0,0.7,0,1c0,0.2,0.1,0.3,0.3,0.2c0.6,0,1.3,0,1.9,0c0.2,0,0.2,0.1,0.3,0.3
	c0.1,0.4,0.2,0.8,0.2,1.3c0,0.2-0.1,0.2-0.2,0.2c-0.5,0-1,0-1.5,0c-0.2,0-0.5,0-0.7,0c-0.2,0-0.2,0.1-0.2,0.2c0,0.4,0,0.8,0,1.3
	c0,0.2,0.1,0.2,0.2,0.2c0.9,0,1.8,0,2.7,0C68.9,64.4,68.9,64.5,68.9,64.7z M75.5,64.7c0,0.1-0.1,0.2-0.1,0.3
	c-0.5,0.9-1.5,1.2-2.5,1.3c-1,0.1-2.1-0.2-3-0.5c-0.1,0-0.1-0.1-0.1-0.2c0-0.5,0.1-1,0.2-1.5c0.1-0.2,0.5,0.1,0.6,0.1
	c0.7,0.4,1.7,0.6,2.5,0.5c0.1,0,0.3-0.1,0.4-0.2c0.1-0.1,0.2-0.2,0.3-0.3c0.1-0.3-0.1-0.6-0.4-0.8c-0.5-0.3-1-0.4-1.5-0.7
	c-0.5-0.2-1.1-0.5-1.5-0.9c-0.7-0.8-0.7-2.1-0.1-2.9c1-1.4,3.2-1.4,4.7-0.8c0.2,0.1,0.4,0.1,0.4,0.4c0,0.2,0,0.4,0,0.5
	c-0.1,0.3-0.1,0.7-0.2,1c0,0,0,0.1,0,0.1c-0.1,0.1-0.5-0.2-0.6-0.2c-0.2-0.1-0.5-0.2-0.7-0.3c-0.4-0.1-0.8-0.2-1.2-0.1
	c-0.4,0.1-0.8,0.4-0.6,0.9c0.1,0.2,0.2,0.3,0.4,0.4c0.5,0.3,1,0.4,1.5,0.6c0.6,0.3,1.3,0.6,1.7,1.2c0.2,0.3,0.3,0.7,0.3,1.1
	C75.8,63.9,75.7,64.3,75.5,64.7L75.5,64.7z"/>
<path class="st0" d="M28.6,43.5c-0.4,0.4-0.7,0.8-1.1,1.2c-0.3,0.4-0.7,0.7-1,1.1h32.5c-0.7-0.8-1.4-1.6-2.1-2.4
	c-0.1-0.1-0.1-0.1-0.2-0.2c-0.1,0-0.2,0-0.2,0c-1.6,0-3.2,0-4.7,0c-3.7,0-7.5,0-11.2,0c-3.8,0-7.6,0-11.4,0c-0.1,0-0.2,0-0.3,0.1
	C28.7,43.3,28.6,43.4,28.6,43.5z M54.9,44.1h0.6c0.1,0,0.3,0.1,0.4,0.2c0.1,0.1,0.2,0.2,0.2,0.4c0,0.1-0.1,0.3-0.2,0.4
	c-0.1,0.1-0.2,0.2-0.4,0.2h-0.6c-0.1,0-0.3-0.1-0.4-0.2c-0.1-0.1-0.2-0.2-0.2-0.4c0-0.1,0.1-0.3,0.2-0.4
	C54.6,44.1,54.8,44.1,54.9,44.1z M52.5,44.1h0.6c0.1,0,0.3,0.1,0.4,0.2c0.1,0.1,0.2,0.2,0.2,0.4c0,0.1-0.1,0.3-0.2,0.4
	c-0.1,0.1-0.2,0.2-0.4,0.2h-0.6c-0.1,0-0.3-0.1-0.4-0.2c-0.1-0.1-0.2-0.2-0.2-0.4c0-0.1,0.1-0.3,0.2-0.4
	C52.3,44.1,52.4,44.1,52.5,44.1z M50,44.1h0.6c0.1,0,0.3,0.1,0.4,0.2c0.1,0.1,0.2,0.2,0.2,0.4c0,0.1-0.1,0.3-0.2,0.4
	c-0.1,0.1-0.2,0.2-0.4,0.2H50c-0.1,0-0.3-0.1-0.4-0.2c-0.1-0.1-0.2-0.2-0.2-0.4c0-0.1,0.1-0.3,0.2-0.4C49.8,44.1,49.9,44.1,50,44.1z
	 M44.7,44.1h0.6c0.1,0,0.3,0.1,0.4,0.2c0.1,0.1,0.2,0.2,0.2,0.4c0,0.1-0.1,0.3-0.2,0.4c-0.1,0.1-0.2,0.2-0.4,0.2h-0.6
	c-0.1,0-0.3-0.1-0.4-0.2c-0.1-0.1-0.2-0.2-0.2-0.4c0-0.1,0.1-0.3,0.2-0.4C44.4,44.1,44.5,44.1,44.7,44.1z M42.2,44.1h0.6
	c0.1,0,0.3,0.1,0.4,0.2c0.1,0.1,0.2,0.2,0.2,0.4c0,0.1-0.1,0.3-0.2,0.4c-0.1,0.1-0.2,0.2-0.4,0.2h-0.6c-0.1,0-0.3-0.1-0.4-0.2
	c-0.1-0.1-0.2-0.2-0.2-0.4c0-0.1,0.1-0.3,0.2-0.4C42,44.1,42.1,44.1,42.2,44.1z M39.8,44.1h0.6c0.1,0,0.3,0.1,0.4,0.2
	c0.1,0.1,0.2,0.2,0.2,0.4c0,0.1-0.1,0.3-0.2,0.4c-0.1,0.1-0.2,0.2-0.4,0.2h-0.6c-0.1,0-0.3-0.1-0.4-0.2c-0.1-0.1-0.2-0.2-0.2-0.4
	c0-0.1,0.1-0.3,0.2-0.4C39.5,44.1,39.6,44.1,39.8,44.1z M37.3,44.1h0.6c0.1,0,0.3,0.1,0.4,0.2c0.1,0.1,0.2,0.2,0.2,0.4
	c0,0.1-0.1,0.3-0.2,0.4c-0.1,0.1-0.2,0.2-0.4,0.2h-0.6c-0.1,0-0.3-0.1-0.4-0.2c-0.1-0.1-0.2-0.2-0.2-0.4c0-0.1,0.1-0.3,0.2-0.4
	C37,44.1,37.2,44.1,37.3,44.1z M34.8,44.1h0.6c0.1,0,0.3,0.1,0.4,0.2c0.1,0.1,0.2,0.2,0.2,0.4c0,0.1-0.1,0.3-0.2,0.4
	c-0.1,0.1-0.2,0.2-0.4,0.2h-0.6c-0.1,0-0.3-0.1-0.4-0.2c-0.1-0.1-0.2-0.2-0.2-0.4c0-0.1,0.1-0.3,0.2-0.4
	C34.5,44.1,34.7,44.1,34.8,44.1z M32.3,44.1h0.6c0.1,0,0.3,0.1,0.4,0.2c0.1,0.1,0.2,0.2,0.2,0.4c0,0.1-0.1,0.3-0.2,0.4
	c-0.1,0.1-0.2,0.2-0.4,0.2h-0.6c-0.1,0-0.3-0.1-0.4-0.2c-0.1-0.1-0.2-0.2-0.2-0.4c0-0.1,0.1-0.3,0.2-0.4
	C32.1,44.1,32.2,44.1,32.3,44.1z M29.8,44.1h0.6c0.1,0,0.3,0.1,0.4,0.2c0.1,0.1,0.2,0.2,0.2,0.4c0,0.1-0.1,0.3-0.2,0.4
	c-0.1,0.1-0.2,0.2-0.4,0.2h-0.6c-0.1,0-0.3-0.1-0.4-0.2c-0.1-0.1-0.2-0.2-0.2-0.4c0-0.1,0.1-0.3,0.2-0.4
	C29.5,44.1,29.7,44.1,29.8,44.1z"/>
<path class="st0" d="M25.8,46.8c0,0-0.1,0-0.1,0.1c0,0.4,0,0.8,0.3,1.1c0.2,0.2,0.5,0.2,0.8,0.2c0.3,0,0.7,0,1,0h31
	c0.1,0,0.2,0,0.3,0c0.1,0,0.1,0,0.2-0.1c0.4-0.2,0.4-0.5,0.4-0.9c0-0.3-0.1-0.3-0.3-0.3c-5.6,0-11.1,0-16.7,0L25.8,46.8z"/>
<path class="st0" d="M51.4,42.4c0.1,0,0.1,0,0.2,0c0.1,0,0.1,0,0.1-0.2c-0.1-0.5-0.4-0.9-0.6-1.3c-0.4-0.6-1-1.1-1.6-1.5
	c-0.6-0.4-1.4-0.7-2.1-0.8c-0.8-0.1-1.6-0.1-2.4,0.1c-0.8,0.2-1.6,0.7-2.3,1.2c-0.7,0.6-1.2,1.4-1.5,2.4c0.1,0,0.2,0,0.4,0H51.4z"/>
<path class="st0" d="M48,37c0.8-0.8,1.1-1.9,0.8-3c-0.1-0.4-0.3-0.7-0.6-1c-0.2-0.2-0.4-0.3-0.6-0.5c-0.4-0.2-0.8-0.3-1.2-0.3
	c-0.3,0-0.7,0.1-1,0.3c-0.4,0.2-0.8,0.5-1,0.9s-0.4,0.9-0.4,1.3c0,0.4,0,0.9,0.2,1.3c0.2,0.4,0.4,0.8,0.7,1.1c0.4,0.4,1,0.7,1.6,0.7
	C47,37.6,47.5,37.4,48,37z"/>
<path class="st0" d="M27,33.9c1.8,0,3.5,0,5.3,0c0.1,0,0.3,0,0.4,0.1s0.3,0.1,0.4,0.3c0.8,0.8,1.7,1.7,2.5,2.5
	c0-0.1,0.1-0.2,0.1-0.4c0-0.6,0-1.2,0-1.7c0-0.1,0-0.2,0.1-0.3c0-0.1,0.1-0.2,0.2-0.3c0.1-0.1,0.2-0.1,0.3-0.2c0.1,0,0.2-0.1,0.3,0
	h1.3c0.8,0,1.6-0.8,1.6-1.6c0-3.1,0-6.2,0-9.3c0-1.1-0.7-1.8-1.8-1.8c-3.5,0-6.9,0-10.4,0c-0.2,0-0.5,0-0.7,0.1
	c-0.3,0.1-0.6,0.3-0.8,0.6c-0.2,0.3-0.3,0.6-0.3,1c0,3.1,0,6.2,0,9.3C25.3,33.1,26.1,34,27,33.9z M27.4,23.9
	c0.3-0.4,0.7-0.7,1.1-0.9c0.4-0.2,0.9-0.3,1.4-0.3c0.4,0,0.7,0.1,1.1,0.2c0.4,0.2,0.8,0.4,1.2,0.7c0.1,0.1,0.2,0.1,0.3,0
	c0.4-0.4,0.9-0.7,1.4-0.8c0.5-0.1,1.1-0.1,1.6,0.1c0.7,0.2,1.4,0.7,1.8,1.3c0.1,0.2,0.2,0.5,0.3,0.7c0.1,0.3,0.2,0.7,0.2,1.1
	c-0.1,0.8-0.3,1.6-0.7,2.2c-0.6,1.1-1.5,2-2.5,2.8c-0.6,0.5-1.3,1-2,1.5c-0.3,0.2-0.5,0.1-0.7,0c-1-0.6-2-1.4-2.8-2.2
	c-0.5-0.5-0.9-1-1.3-1.5c-0.5-0.7-0.8-1.5-1-2.4C26.7,25.4,26.9,24.6,27.4,23.9L27.4,23.9z"/>
<path class="st0" d="M58.4,59.4c-0.2,0-0.2,0.1-0.2,0.2c0,0.3,0,0.6,0,1s0,0.6,0,0.9c0,0.1,0,0.2,0.1,0.2c0.4,0,0.8,0.1,1.1-0.1
	c0.6-0.2,0.8-0.8,0.7-1.4C60,59.5,59.1,59.3,58.4,59.4z"/>
<path class="st0" d="M51.5,61.2c0-0.2-0.2-1.1-0.4-1c-0.1,0.1-0.2,0.4-0.2,0.5c-0.2,0.6-0.4,1.2-0.6,1.9c-0.1,0.2,0,0.2,0.1,0.2h0.7
	c0.2,0,0.5,0,0.7,0c0,0,0.1,0,0.1,0c0,0,0,0,0-0.1C51.8,62.2,51.6,61.7,51.5,61.2z"/>
<path class="st0" d="M39.3,71.3c-0.4-0.1-0.6,0.1-0.8,0.5c-0.2,0.4-0.3,1-0.2,1.5c0,0.3,0.1,0.6,0.2,0.9c0.1,0.3,0.4,0.6,0.7,0.6
	c0.1,0,0.3,0,0.4-0.1c0.1-0.1,0.2-0.2,0.3-0.3c0.2-0.4,0.3-0.8,0.3-1.2c0,0,0-0.1,0-0.1c0-0.4,0-0.8-0.2-1.2
	C39.7,71.5,39.5,71.4,39.3,71.3z"/>
<path class="st0" d="M49.5,71.6c-0.1-0.1-0.3-0.2-0.4-0.3c-0.2,0-0.4,0-0.5,0.1c-0.4,0.2-0.5,0.7-0.6,1.1c-0.1,0.5,0,1.1,0.1,1.6
	c0.1,0.4,0.4,0.7,0.8,0.7c0.1,0,0.3,0,0.4-0.1s0.2-0.2,0.3-0.3c0,0,0,0,0,0c0.2-0.4,0.3-0.9,0.3-1.4c0-0.2,0-0.3,0-0.5
	C49.8,72.2,49.7,71.9,49.5,71.6z"/>
<path class="st0" d="M29.3,29.1c0.9,0.9,1.8,1.6,2.8,2.3c0.1,0.1,0.1,0,0.2,0c0.8-0.5,1.5-1.1,2.2-1.7c0.6-0.5,1.1-1.1,1.5-1.7
	c0.2-0.3,0.4-0.6,0.5-1c0.2-0.3,0.2-0.7,0.3-1.1c0-0.4-0.1-0.7-0.3-1.1C36.1,24,35,23.4,34,23.8c-0.5,0.2-1,0.5-1.3,1
	c-0.3,0.5-0.6,0.5-0.9,0c-0.2-0.3-0.5-0.6-0.8-0.8c-0.3-0.2-0.7-0.3-1.1-0.3c-0.4,0-0.7,0.1-1,0.3c-0.3,0.1-0.5,0.3-0.7,0.6
	c-0.2,0.2-0.3,0.5-0.4,0.8c-0.1,0.6-0.1,1.2,0.1,1.7C28.2,27.8,28.7,28.5,29.3,29.1z"/>
</svg>
