<?xml version="1.0" encoding="utf-8"?>
<!-- Generator: Adobe Illustrator 23.0.5, SVG Export Plug-In . SVG Version: 6.00 Build 0)  -->
<svg version="1.1" id="Слой_1" xmlns="http://www.w3.org/2000/svg" xmlns:xlink="http://www.w3.org/1999/xlink" x="0px" y="0px"
	 width="74px" height="94.8px" viewBox="0 0 74 94.8" style="enable-background:new 0 0 74 94.8;" xml:space="preserve">
<style type="text/css">
	.st0{fill-rule:evenodd;clip-rule:evenodd;fill:#FFFFFF;}
	.st1{fill:#F2F3F2;}
	.st2{fill:#DCDEDC;}
	.st3{fill:#FF492C;}
</style>
<path class="st0" d="M0,75.4V0h74v75.4L72.7,76l-34,18.3l-1.1,0.5l-1.1-0.5L1.3,76L0,75.4z M2.3,2.4h69.3v0L2.3,2.4L2.3,2.4z"/>
<path class="st1" d="M2.3,73v1l35.3,18.3l34-18.3V3.4L2.3,73z"/>
<path d="M15.7,36.7v-8c0-0.1,0.1-0.2,0.2-0.2H18c0.1,0,0.2,0.1,0.2,0.2v8c0,1.2,0.8,2.1,2.1,2.1c1.3,0,2.1-0.8,2.1-2.1v-8
	c0-0.1,0.1-0.2,0.2-0.2h2.1c0.1,0,0.2,0.1,0.2,0.2v8c0,2.5-1.8,4.2-4.5,4.2C17.6,40.9,15.7,39.2,15.7,36.7z M26.4,38.3v-0.2
	c0-0.1,0.1-0.2,0.2-0.2h1.9c0.1,0,0.2,0.1,0.2,0.2c0,0.5,0.6,0.9,1.5,0.9c0.8,0,1.4-0.4,1.4-0.8c0-0.7-1.4-0.7-2.6-1.2
	c-1.2-0.4-2.5-1-2.5-2.5c0-1.7,1.5-2.8,3.7-2.8c2.3,0,3.7,1.2,3.7,2.8c0,0.1-0.1,0.2-0.2,0.2h-1.9c-0.1,0-0.2-0.1-0.2-0.2
	c0-0.5-0.5-0.9-1.5-0.9c-0.7,0-1.3,0.3-1.3,0.8c0,0.7,1.2,0.7,2.5,1.2c1.4,0.4,2.7,1,2.7,2.6c0,1.7-1.5,2.7-3.8,2.7
	C27.9,40.9,26.4,39.8,26.4,38.3z M43.6,36.8c0,0.2-0.1,0.2-0.3,0.2h-5.5c-0.1,0-0.1,0-0.1,0.1c0,0.3,0.1,0.5,0.2,0.7
	c0.3,0.6,0.8,1,1.8,1c0.8,0,1.4-0.4,1.8-0.9c0.1-0.1,0.2-0.2,0.3,0l1.3,1.3c0.1,0.1,0.1,0.2,0,0.3c-0.8,1-2.1,1.5-3.5,1.5
	c-2,0-3.4-1-4-2.6c-0.3-0.6-0.4-1.3-0.4-2.2c0-0.6,0.1-1.3,0.3-1.8c0.5-1.6,1.9-2.7,3.8-2.7c2.4,0,3.8,1.5,4.1,3.7
	C43.6,35.8,43.6,36.3,43.6,36.8z M37.9,34.7c-0.1,0.2-0.1,0.4-0.1,0.5c0,0.1,0,0.1,0.1,0.1h3c0.1,0,0.1,0,0.1-0.1
	c0-0.2-0.1-0.4-0.1-0.5c-0.2-0.7-0.7-1.1-1.5-1.1C38.7,33.7,38.2,34.1,37.9,34.7z M50.6,31.9c0.1,0.1,0.1,0.2,0.1,0.3l-0.4,2
	c0,0.2-0.1,0.2-0.3,0.1c-0.3-0.1-0.6-0.1-1-0.1c-0.8,0.1-1.5,0.6-1.5,1.5v4.8c0,0.1-0.1,0.2-0.2,0.2h-2.1c-0.1,0-0.2-0.1-0.2-0.2V32
	c0-0.1,0.1-0.2,0.2-0.2h2.1c0.1,0,0.2,0.1,0.2,0.2v0.6c0,0.1,0.1,0.1,0.1,0.1c0.5-0.6,1.1-1.1,1.9-1.1
	C50.1,31.6,50.4,31.7,50.6,31.9z M51.4,38.3v-0.2c0-0.1,0.1-0.2,0.2-0.2h1.9c0.1,0,0.2,0.1,0.2,0.2c0,0.5,0.6,0.9,1.5,0.9
	c0.8,0,1.4-0.4,1.4-0.8c0-0.7-1.4-0.7-2.6-1.2c-1.2-0.4-2.5-1-2.5-2.5c0-1.7,1.5-2.8,3.7-2.8c2.3,0,3.7,1.2,3.7,2.8
	c0,0.1-0.1,0.2-0.2,0.2h-1.9c-0.1,0-0.2-0.1-0.2-0.2c0-0.5-0.5-0.9-1.5-0.9c-0.7,0-1.3,0.3-1.3,0.8c0,0.7,1.2,0.7,2.5,1.2
	c1.4,0.4,2.7,1,2.7,2.6c0,1.7-1.5,2.7-3.8,2.7C52.9,40.9,51.4,39.8,51.4,38.3z M7.8,55.3V43.4c0-0.1,0.1-0.2,0.2-0.2h2.1
	c0.1,0,0.2,0.1,0.2,0.2v9.8c0,0.1,0,0.1,0.1,0.1h5.7c0.1,0,0.2,0.1,0.2,0.2v1.7c0,0.1-0.1,0.2-0.2,0.2H8C7.9,55.4,7.8,55.4,7.8,55.3
	z M17.7,52.7c-0.2-0.5-0.3-1.2-0.3-1.8c0-0.6,0.1-1.4,0.3-1.8c0.5-1.7,2-2.7,4-2.7c1.9,0,3.4,1.1,3.9,2.7c0.2,0.5,0.3,1.2,0.3,1.8
	c0,0.6-0.1,1.3-0.3,1.7c-0.5,1.8-2,2.9-3.9,2.9C19.7,55.6,18.2,54.5,17.7,52.7z M23.3,52.2c0.1-0.4,0.2-0.8,0.2-1.2
	c0-0.5-0.1-0.9-0.2-1.3c-0.3-0.8-0.8-1.3-1.5-1.3c-0.8,0-1.4,0.5-1.5,1.3C20,50,20,50.4,20,51c0,0.5,0,0.9,0.1,1.2
	c0.3,0.8,0.8,1.3,1.6,1.3C22.5,53.5,23,53,23.3,52.2z M29.3,55.3l-2.8-8.6c-0.1-0.2,0-0.3,0.2-0.3h2.3c0.1,0,0.2,0.1,0.3,0.2
	l1.5,5.3c0,0.1,0.1,0.1,0.1,0l1.5-5.3c0-0.1,0.1-0.2,0.3-0.2h2.3c0.2,0,0.3,0.1,0.2,0.3l-2.8,8.5c0,0.1-0.1,0.2-0.3,0.2h-2.3
	C29.4,55.4,29.3,55.4,29.3,55.3z M43.7,51.5c0,0.2-0.1,0.2-0.3,0.2h-5.5c-0.1,0-0.1,0-0.1,0.1c0,0.3,0.1,0.5,0.2,0.7
	c0.3,0.6,0.8,1,1.8,1c0.8,0,1.4-0.4,1.8-0.9c0.1-0.1,0.2-0.2,0.3,0l1.3,1.3c0.1,0.1,0.1,0.2,0,0.3c-0.8,1-2.1,1.5-3.5,1.5
	c-2,0-3.4-1-4-2.6c-0.3-0.6-0.4-1.3-0.4-2.2c0-0.6,0.1-1.3,0.3-1.8c0.5-1.6,1.9-2.7,3.8-2.7c2.4,0,3.8,1.5,4.1,3.7
	C43.7,50.5,43.7,51,43.7,51.5z M38,49.4c-0.1,0.2-0.1,0.4-0.1,0.5c0,0.1,0,0.1,0.1,0.1h3c0.1,0,0.1,0,0.1-0.1c0-0.2-0.1-0.4-0.1-0.5
	c-0.2-0.7-0.7-1.1-1.5-1.1C38.7,48.4,38.2,48.8,38,49.4z M48.7,51.4v-8c0-0.1,0.1-0.2,0.2-0.2H51c0.1,0,0.2,0.1,0.2,0.2v8
	c0,1.2,0.8,2.1,2.1,2.1c1.3,0,2.1-0.8,2.1-2.1v-8c0-0.1,0.1-0.2,0.2-0.2h2.1c0.1,0,0.2,0.1,0.2,0.2v8c0,2.5-1.8,4.2-4.5,4.2
	C50.6,55.6,48.7,53.9,48.7,51.4z M59.4,53v-0.2c0-0.1,0.1-0.2,0.2-0.2h1.9c0.1,0,0.2,0.1,0.2,0.2c0,0.5,0.6,0.9,1.5,0.9
	c0.8,0,1.4-0.4,1.4-0.8c0-0.7-1.4-0.7-2.6-1.2c-1.2-0.4-2.5-1-2.5-2.5c0-1.7,1.5-2.8,3.7-2.8c2.3,0,3.7,1.2,3.7,2.8
	c0,0.1-0.1,0.2-0.2,0.2h-1.9c-0.1,0-0.2-0.1-0.2-0.2c0-0.5-0.5-0.9-1.5-0.9c-0.7,0-1.3,0.3-1.3,0.8c0,0.7,1.2,0.7,2.5,1.2
	c1.4,0.4,2.7,1,2.7,2.6c0,1.7-1.5,2.7-3.8,2.7C60.9,55.6,59.4,54.5,59.4,53z"/>
<path d="M12.1,65.9h18.2v0.7H12.1V65.9z M44.7,65.9h18.2v0.7H44.7V65.9z"/>
<path class="st2" d="M33.1,65.1l2.8-0.5l1.5-2.8l1.4,2.7l3,0.5l-2.1,2.1l0.5,3l-2.7-1.3l-2.7,1.3l0.4-3L33.1,65.1z"/>
<path class="st3" d="M37.2,3.5c0.4,0,0.7,0,1.1,0.1l-1.1,2.1c-1.6-0.1-3.1,1.2-3.2,2.8c-0.1,1.6,1.2,3.1,2.8,3.2h0.4
	c0.7,0,1.5-0.3,2-0.7l1.2,2c-0.9,0.6-2,1-3.2,1c-2.9,0.1-5.4-2.1-5.5-5s2.1-5.4,5-5.5H37.2z M40.9,8l1.4,2.3l-1.4,2.2l-1.3-2.2H37
	L38.4,8H40.9z M38.7,7.2c0-0.4,0.1-0.7,0.3-1c0.2-0.3,0.5-0.5,0.8-0.7L40,5.4c0.4-0.2,0.5-0.3,0.5-0.5c0-0.2-0.3-0.4-0.5-0.4
	c-0.4,0-0.6,0.2-0.8,0.5l-0.5-0.5c0.1-0.2,0.3-0.4,0.5-0.5c0.3-0.2,0.5-0.2,0.8-0.2s0.6,0.1,0.8,0.3c0.2,0.2,0.4,0.5,0.4,0.7
	c0,0.5-0.3,0.8-0.8,1l-0.3,0.2c-0.3,0.2-0.5,0.3-0.5,0.5h1.6v0.6L38.7,7.2z M37.2,18.5l8.6-4.9V0H28.5v13.5L37.2,18.5z"/>
</svg>
