<svg width="38" height="38" viewBox="0 0 38 38" fill="none" xmlns="http://www.w3.org/2000/svg">
<path d="M3.06535 20.3753C-0.949196 24.3313 -1.07272 30.8834 3.00359 34.9631C7.07989 39.1045 13.6884 38.9191 17.6412 34.9631L22.3969 30.2035C19.6176 31.0689 17.4559 30.4508 15.5413 29.709L14.1825 31.0689C12.2062 33.0469 8.99452 32.9233 7.01813 31.0071C5.1035 29.0291 4.91821 25.753 6.89461 23.775L13.5649 17.0993C14.2443 16.4193 15.109 15.9866 16.0354 15.7394C18.5059 15.4303 20.8529 16.6666 21.7793 18.83L25.9791 14.7504C23.0763 10.3617 17.0854 8.87821 12.3914 11.598C11.5268 12.0306 10.7856 12.6488 10.1062 13.3287L3.06535 20.3753Z" fill="white"/>
<path d="M12.2679 23.0333C15.1707 27.3601 21.1617 28.8436 25.9174 26.1857C26.7203 25.753 27.4614 25.1349 28.1408 24.455L34.9347 17.6556C38.9492 13.6378 39.0727 7.14746 34.9964 3.00603C30.9201 -1.07359 24.3116 -0.949967 20.3588 3.06784L15.6031 7.8274C18.3824 6.90021 20.5441 7.51834 22.4587 8.3219L23.8175 6.96202C25.7938 4.98403 29.0672 5.10765 30.9819 7.02383C32.8965 9.00183 33.0818 12.2779 31.1054 14.2559L24.6821 20.6226C24.0027 21.3643 23.1381 21.797 22.2116 21.9824C19.7411 22.3533 17.3942 21.1171 16.4677 18.9536L12.2679 23.0333Z" fill="white"/>
</svg>
