<svg width="524" height="124" fill="none" xmlns="http://www.w3.org/2000/svg"><path d="M385.812 0 332.89 80h38.85l52.922-80h-38.85z" fill="#DD1E5C"/><path d="m435.32 0-52.922 80h38.85L474.17 0h-38.85z" fill="#83469D"/><path d="m484.827 0-52.906 80h38.834l52.922-80h-38.85z" fill="#7AC679"/><path d="M333.535 107.14c0-3.135-.099-5.873-.198-8.051h7.275l.33 2.937h.198c.874-1.155 2.936-3.465 6.978-3.465 3.035 0 5.394 1.402 6.401 3.761h.099c.956-1.204 2.029-2.161 3.283-2.788 1.204-.627 2.606-.957 4.19-.957 5.114 0 8.05 3.712 8.05 10.262v13.974h-8.43v-12.67c0-2.937-.874-4.62-2.788-4.62-1.402 0-2.26.924-2.656 2.029-.198.479-.247 1.254-.247 1.733v13.545h-8.43v-12.951c0-2.657-.825-4.389-2.755-4.389-1.584 0-2.31 1.155-2.656 1.98-.247.528-.247 1.155-.247 1.732v13.595h-8.43V107.14h.033zM383.785 113.97c.297 1.881 3.036 2.937 6.071 2.937 2.26 0 4.388-.247 6.5-.924l1.105 5.774c-2.837 1.155-5.922 1.535-8.859 1.535-8.331 0-13.049-4.62-13.049-12.143 0-5.543 3.564-12.621 12.291-12.621 7.654 0 10.937 5.642 10.937 12.143 0 1.452-.198 2.705-.33 3.283h-14.666v.016zm6.995-5.873c0-1.353-.627-3.861-3.365-3.861-2.557 0-3.564 2.36-3.712 3.861h7.077zM427.962 88.58v26.694c0 2.936.099 5.922.198 7.523h-7.704l-.33-3.234h-.099c-1.584 2.706-4.437 3.762-7.176 3.762-5.493 0-10.063-4.768-10.063-12.242-.05-7.952 5.015-12.522 10.607-12.522 2.607 0 4.768.775 5.824 2.26h.099V88.58h8.644zm-8.661 20.721c0-.33 0-.726-.049-1.105-.33-1.633-1.633-3.036-3.465-3.036-2.886 0-4.19 2.607-4.19 5.742 0 3.613 1.782 5.543 4.19 5.543 1.733 0 3.085-1.254 3.366-2.838a8.187 8.187 0 0 0 .148-1.583v-2.723zM443.387 92.539c0 2.31-1.733 4.141-4.488 4.141-2.705 0-4.388-1.831-4.388-4.141 0-2.36 1.732-4.092 4.438-4.092 2.689-.016 4.388 1.733 4.438 4.092zm-8.777 30.258V99.089h8.678v23.708h-8.678zM470.986 117.005c0 2.36.099 4.57.379 5.775h-7.803l-.478-2.079h-.149c-1.682 1.881-4.041 2.607-6.598 2.607-4.817 0-7.803-3.514-7.803-7.474 0-6.352 5.691-9.156 13.725-9.206v-.198c0-.957-.726-2.029-3.86-2.029-2.508 0-5.164.874-6.698 1.782l-1.534-5.544c1.534-.775 4.916-2.128 9.832-2.128 8.149 0 10.987 4.537 10.987 10.46v8.034zm-8.43-5.048c-3.514 0-5.543 1.006-5.543 3.085 0 1.502 1.006 2.26 2.458 2.26 1.254 0 2.606-.874 2.986-2.161.099-.379.099-.825.099-1.254v-1.93z" fill="#4F4F4F"/><path d="M18.806 52.728v70.052H0V52.728h18.806zM28.376 122.796V52.728h22.139l11.118 21.514c3.844 6.962 7.902 16.316 11.02 24.532h.314c-1.04-9.255-1.452-19.022-1.452-29.515V52.728h17.157v70.051H68.909L57.064 99.5c-3.943-7.49-8.53-16.844-11.845-25.357h-.313c.412 9.453.627 20.061.627 31.396v17.257H28.375zM98.32 52.728h45.004v15.277h-26.197v13h24.63v15.18h-24.63v26.611H98.321V52.728zM170.346 52.728v39.711c0 10.608 3.646 16.63 11.02 16.63 7.49 0 11.119-5.51 11.119-16.63V52.728h18.806V91.4c0 21.612-10.805 32.534-30.453 32.534-19.235 0-29.315-10.493-29.315-33.062V52.728h18.823zM221.999 104.087c4.256 2.178 11.217 4.372 18.196 4.372 6.45 0 9.568-2.178 9.568-5.725 0-3.431-3.118-5.411-11.02-8.1-11.845-4.158-19.648-10.708-19.648-21.102 0-12.373 10.393-21.926 28.061-21.926 8.414 0 14.336 1.551 19.021 3.646l-3.943 14.964c-3.019-1.352-8.215-3.332-15.276-3.332-5.724 0-8.842 2.079-8.842 5.197 0 3.53 3.745 4.982 12.571 8.315 12.57 4.57 18.295 11.334 18.295 21.101 0 12.06-9.453 22.454-29.942 22.454-8.414 0-16.629-2.293-20.572-4.372l3.531-15.492zM319.693 94.518h-25.158v12.885h28.16v15.376h-46.983V52.728h45.532v15.277h-26.709V79.34h25.158v15.178z" fill="#3286C9"/></svg>