<svg width="32" height="50" viewBox="0 0 32 50" fill="none" xmlns="http://www.w3.org/2000/svg">
<path d="M16 9.375C16.4144 9.375 16.8118 9.53962 17.1049 9.83265C17.3979 10.1257 17.5625 10.5231 17.5625 10.9375V17.1875C17.5625 17.6019 17.3979 17.9993 17.1049 18.2924C16.8118 18.5854 16.4144 18.75 16 18.75C15.5856 18.75 15.1882 18.5854 14.8951 18.2924C14.6021 17.9993 14.4375 17.6019 14.4375 17.1875V10.9375C14.4375 10.5231 14.6021 10.1257 14.8951 9.83265C15.1882 9.53962 15.5856 9.375 16 9.375ZM28.5 34.375C28.5 37.6902 27.183 40.8696 24.8388 43.2138C22.4946 45.558 19.3152 46.875 16 46.875C12.6848 46.875 9.50537 45.558 7.16116 43.2138C4.81696 40.8696 3.5 37.6902 3.5 34.375V15.625C3.5 12.3098 4.81696 9.13037 7.16116 6.78617C9.50537 4.44196 12.6848 3.125 16 3.125C19.3152 3.125 22.4946 4.44196 24.8388 6.78617C27.183 9.13037 28.5 12.3098 28.5 15.625V34.375ZM16 0C11.856 0 7.88171 1.6462 4.95146 4.57646C2.0212 7.50671 0.375 11.481 0.375 15.625V34.375C0.375 38.519 2.0212 42.4933 4.95146 45.4235C7.88171 48.3538 11.856 50 16 50C20.144 50 24.1183 48.3538 27.0485 45.4235C29.9788 42.4933 31.625 38.519 31.625 34.375V15.625C31.625 11.481 29.9788 7.50671 27.0485 4.57646C24.1183 1.6462 20.144 0 16 0Z" fill="#1C3C70"/>
</svg>
