<svg width="136" height="135" fill="none" xmlns="http://www.w3.org/2000/svg"><path d="M.5 67.5C.5 30.56 30.775.5 68 .5s67.5 30.06 67.5 67c0 36.939-30.275 67-67.5 67S.5 104.439.5 67.5z" stroke="url(#prefix__a)"/><path d="M10 67.5C10 35.804 36.01 10 68 10s58 25.804 58 57.5S99.99 125 68 125 10 99.196 10 67.5z" stroke="url(#prefix__b)" stroke-width="2"/><path d="M68 18c-27.572 0-50 22.206-50 49.5S40.428 117 68 117s50-22.206 50-49.5S95.572 18 68 18z" fill="url(#prefix__c)"/><defs><linearGradient id="prefix__a" x1="-13.178" y1="133.925" x2="119.229" y2="79.259" gradientUnits="userSpaceOnUse"><stop stop-color="#EE3124"/><stop offset=".818" stop-color="#FAAA23"/></linearGradient><linearGradient id="prefix__b" x1="-2.434" y1="125.069" x2="112.411" y2="77.6" gradientUnits="userSpaceOnUse"><stop stop-color="#EE3124"/><stop offset=".818" stop-color="#FAAA23"/></linearGradient><linearGradient id="prefix__c" x1="8.31" y1="116.212" x2="105.592" y2="75.94" gradientUnits="userSpaceOnUse"><stop stop-color="#EE3124"/><stop offset=".818" stop-color="#FAAA23"/></linearGradient></defs></svg>