<svg width="840" height="281" fill="none" xmlns="http://www.w3.org/2000/svg"><path d="M15.05 272h-5v5h5v-5zm0-42.55-3.642-3.425-1.358 1.443v1.982h5zm87.69-93.24 3.642 3.425.036-.037.034-.038-3.712-3.35zm20.35-28.12-4.422-2.334-.012.024-.012.023 4.446 2.287zm-2.22-49.58-3.216 3.829 3.216-3.829zM59.82 57.4l1.7 4.702.028-.01.028-.01L59.82 57.4zM24.67 76.27l-4.566 2.038 2.484 5.564 4.972-3.522-2.89-4.08zM6.17 34.83l-3.261-3.79-2.822 2.428 1.517 3.4L6.17 34.83zm40.7-21.46 1.495 4.771.033-.01.032-.01-1.56-4.751zm97.68.74-2 4.583 2-4.583zm31.08 25.53-4.203 2.709.035.054.037.054 4.131-2.817zm1.48 81.03-4.472-2.236-.017.035-.017.035 4.506 2.166zm-31.45 42.92 3.619 3.45.014-.015.015-.015-3.648-3.42zm-75.48 79.18-4.585 1.994 3.004 6.911 5.2-5.455-3.619-3.45zm-7.4-17.02v-5h-7.626l3.04 6.994 4.586-1.994zm133.2 0h5v-5h-5v5zm0 46.25v5h5v-5h-5zm-175.93 0v-42.55h-10V272h10zm-1.358-39.125 87.69-93.24-7.284-6.85-87.69 93.24 7.284 6.85zm87.76-93.315c9.31-10.316 16.385-20.046 21.084-29.183l-8.892-4.574c-4.181 8.129-10.672 17.147-19.616 27.057l7.424 6.7zm21.06-29.136c5.004-9.482 7.608-19.034 7.608-28.604h-10c0 7.697-2.083 15.658-6.452 23.936l8.844 4.668zm7.608-28.604c0-11.382-3.429-20.75-11.034-27.138l-6.432 7.657c4.728 3.971 7.466 10.143 7.466 19.481h10zm-11.034-27.138c-7.391-6.21-17.593-8.942-29.856-8.942v10c10.923 0 18.482 2.447 23.424 6.599l6.432-7.657zM94.23 45.74c-11.777 0-23.842 2.357-36.166 6.978l3.512 9.364c11.355-4.259 22.23-6.342 32.654-6.342v-10zm-36.11 6.958c-12.083 4.37-24.196 10.89-36.34 19.492l5.78 8.16c11.536-8.171 22.857-14.232 33.96-18.248l-3.4-9.404zM29.235 74.232l-18.5-41.44-9.132 4.076 18.5 41.44 9.132-4.076zM9.43 38.62c9.984-8.59 22.907-15.455 38.934-20.479L45.375 8.6c-17.026 5.336-31.237 12.778-42.466 22.44L9.43 38.62zm38.999-20.5c16.034-5.265 32.282-7.89 48.76-7.89v-10c-17.562 0-34.861 2.801-51.88 8.39l3.12 9.5zm48.76-7.89c17.464 0 32.545 2.87 45.36 8.463l4-9.166C132.231 3.28 115.739.23 97.19.23v10zm45.36 8.463c12.777 5.575 22.321 13.482 28.877 23.655l8.406-5.416c-7.75-12.027-18.927-21.14-33.283-27.405l-4 9.166zm28.949 23.764c6.764 9.92 10.231 21.736 10.231 35.663h10c0-15.673-3.933-29.51-11.969-41.297l-8.262 5.634zM181.73 78.12c0 14.83-3.054 28.238-9.092 40.314l8.944 4.472c6.789-13.578 10.148-28.536 10.148-44.786h-10zm-9.126 40.384c-5.863 12.194-15.979 26.079-30.592 41.666l7.296 6.84c14.987-15.986 25.838-30.715 32.308-44.174l-9.012-4.332zm-30.563 41.636-75.48 79.18 7.238 6.9 75.48-79.18-7.238-6.9zm-67.276 80.636-7.4-17.02-9.17 3.988 7.4 17.02 9.17-3.988zM62.78 230.75h133.2v-10H62.78v10zm128.2-5V272h10v-46.25h-10zm5 41.25H15.05v10h180.93v-10zm43.877-26.08-4.051 2.931.017.024.018.024 4.016-2.979zm0-200.54-4.016-2.98-.01.015-.01.014 4.036 2.951zm146.15 0-4.036 2.951.01.014.01.014 4.016-2.979zm0 200.17-4.031-2.959-.01.014-.01.014 4.051 2.931zm-41.07-31.08-4.533-2.11 4.533 2.11zm0-138.01-4.533 2.11 4.533-2.11zm-63.64 0-4.533-2.11 4.533 2.11zm0 138.01 4.533-2.11-4.533 2.11zm31.82 60.86c-30.445 0-53.285-10.879-69.245-32.389l-8.031 5.958c18.081 24.37 44.081 36.431 77.276 36.431v-10zm-69.209-32.341c-15.904-21.984-24.211-54.443-24.211-98.079h-10c0 44.671 8.465 79.551 26.109 103.941l8.102-5.862zm-24.211-98.079c0-42.88 8.301-74.84 24.196-96.579l-8.072-5.902c-17.652 24.141-26.124 58.533-26.124 102.481h10zm24.175-96.55c15.96-21.511 38.8-32.39 69.245-32.39v-10c-33.195 0-59.195 12.061-77.276 36.43l8.031 5.96zm69.245-32.39c30.445 0 53.145 10.877 68.854 32.361l8.072-5.902C372.205 13.033 346.312.97 313.117.97v10zm68.874 32.39c16.126 21.734 24.546 53.683 24.546 96.55h10c0-43.96-8.6-78.363-26.515-102.51l-8.031 5.96zm24.546 96.55c0 43.37-8.424 75.698-24.561 97.681l8.061 5.918c17.904-24.39 26.5-59.156 26.5-103.599h-10zm-24.581 97.709c-15.718 21.728-38.415 32.711-68.839 32.711v10c33.216 0 59.112-12.203 76.941-36.849l-8.102-5.862zm-68.839-1.689c8.131 0 15.426-2.012 21.666-6.22 6.214-4.191 11.062-10.344 14.687-18.13l-9.066-4.22c-3.036 6.521-6.821 11.097-11.213 14.06-4.367 2.945-9.652 4.51-16.074 4.51v10zm36.353-24.35c7.147-15.353 10.457-39.474 10.457-71.67h-10c0 31.938-3.35 54.19-9.523 67.45l9.066 4.22zm10.457-71.67c0-31.476-3.314-55.216-10.457-70.56l-9.066 4.22c6.177 13.27 9.523 35.163 9.523 66.34h10zM349.47 69.35c-3.625-7.786-8.473-13.94-14.687-18.13-6.24-4.208-13.535-6.22-21.666-6.22v10c6.422 0 11.707 1.565 16.074 4.51 4.392 2.963 8.177 7.539 11.213 14.06l9.066-4.22zM313.117 45c-8.132 0-15.427 2.012-21.666 6.22-6.214 4.19-11.063 10.344-14.687 18.13l9.066 4.22c3.035-6.521 6.82-11.097 11.213-14.06 4.367-2.945 9.652-4.51 16.074-4.51V45zm-36.353 24.35c-7.143 15.344-10.457 39.084-10.457 70.56h10c0-31.177 3.346-53.07 9.523-66.34l-9.066-4.22zm-10.457 70.56c0 32.196 3.31 56.317 10.457 71.67l9.066-4.22c-6.173-13.26-9.523-35.512-9.523-67.45h-10zm10.457 71.67c3.624 7.786 8.473 13.939 14.687 18.13 6.239 4.208 13.534 6.22 21.666 6.22v-10c-6.422 0-11.707-1.565-16.074-4.51-4.393-2.963-8.178-7.539-11.213-14.06l-9.066 4.22zm231.198 33.78h-5v5h5v-5zm0-191.29.471-4.978-5.471-.517v5.495h5zm27.38 2.59 2.547 4.303 13.236-7.832-15.312-1.449-.471 4.978zm-80.66 47.73h-5v8.769l7.547-4.466-2.547-4.303zm0-50.69-2.52-4.318-2.48 1.447V53.7h5zm77.33-45.14v-5h-1.352l-1.168.682 2.52 4.318zm33.67 0h5v-5h-5v5zm0 236.8v5h5v-5h-5zM450.982 272h-5v5h5v-5zm0-46.25v-5h-5v5h5zm172.05 0h5v-5h-5v5zm0 46.25v5h5v-5h-5zm-110.07-26.64V54.07h-10v191.29h10zm-5.471-186.312 27.38 2.59.942-9.956-27.38-2.59-.942 9.956zm25.305-6.691-80.66 47.73 5.093 8.606 80.66-47.73-5.093-8.606zm-73.114 52.033V53.7h-10v50.69h10zm-2.479-46.372 77.33-45.14-5.041-8.636-77.33 45.14 5.041 8.636zm74.809-44.458h33.67v-10h-33.67v10zm28.67-5v236.8h10V8.56h-10zm5 231.8h-57.72v10h57.72v-10zM455.982 272v-46.25h-10V272h10zm-5-41.25h172.05v-10h-172.05v10zm167.05-5V272h10v-46.25h-10zm5 41.25h-172.05v10h172.05v-10zm41.296-25.71 3.855-3.184-3.855 3.184zm-14.8-171.68-4.596-1.97 4.596 1.97zm38.11-47.73-2.76-4.17-.014.01-.014.01 2.788 4.15zM794.568 13l-1.604 4.736.034.011.035.012L794.568 13zm39.22 21.83 4.55 2.072 1.532-3.363-2.766-2.45-3.316 3.741zm-18.87 41.44-3.053 3.96 4.992 3.847 2.611-5.735-4.55-2.072zm-34.41-19.61-1.675 4.711 1.675-4.711zm-72.52 17.76 4.251 2.632.009-.015.009-.015-4.269-2.602zm-14.43 81.77-4.24 2.65 9.24 14.784V156.19h-5zm-5.55-8.88-4.866-1.152-.481 2.031 1.107 1.771 4.24-2.65zm12.58-24.42-3.664-3.402-.033.035-.033.037 3.73 3.33zm23.31-15.91 1.878 4.634.031-.013.031-.013-1.94-4.608zm71.04 5.18-2.65 4.24.051.032.052.031 2.547-4.303zm28.12 29.97-4.438 2.304.018.033.017.033 4.403-2.37zm-1.11 90.28 4.336 2.489.01-.017.01-.017-4.356-2.455zm-31.82 31.45 2.455 4.356-2.455-4.356zm-21.46-45.14-3.652-3.416 3.652 3.416zm0-61.05-3.711 3.351.03.033.029.032 3.652-3.416zm-49.21-6.29-2.443-4.363-.039.022-.038.022 2.52 4.319zm-14.06 14.8-4.403-2.37-.036.066-.033.068 4.472 2.236zm0 44.03-4.436 2.307.035.068.038.068 4.363-2.443zm14.06 14.8-2.65 4.24.102.064.105.059 2.443-4.363zm24.05 45.32c-32.81 0-57.683-10.868-75.325-32.224l-7.71 6.368c19.851 24.031 47.764 35.856 83.035 35.856v-10zm-75.325-32.224c-17.744-21.48-26.975-52.616-26.975-94.126h-10c0 42.85 9.515 76.587 29.265 100.494l7.71-6.368zm-26.975-94.126c0-28.365 4.366-52.45 12.915-72.4l-9.191-3.94c-9.21 21.49-13.724 46.985-13.724 76.34h10zm12.915-72.4c8.552-19.955 20.679-35.056 36.303-45.55l-5.576-8.3c-17.43 11.706-30.71 28.425-39.918 49.91l9.191 3.94zm36.274-45.53c15.844-10.485 34.71-15.82 56.811-15.82v-10c-23.78 0-44.627 5.765-62.33 17.48l5.519 8.34zm56.811-15.82c15.739 0 30.983 2.502 45.756 7.506l3.208-9.472C780.357 2.908 764.029.23 747.208.23v10zm45.825 7.529c14.707 4.744 27.155 11.698 37.438 20.813l6.633-7.484c-11.424-10.125-25.122-17.724-41.001-22.847l-3.07 9.518zm36.204 14.999-18.87 41.44 9.101 4.144 18.87-41.44-9.101-4.144zM817.97 72.31c-12.15-9.366-24.079-16.198-35.787-20.361l-3.35 9.422c10.491 3.73 21.502 9.971 33.032 18.859l6.105-7.92zm-35.787-20.361c-11.506-4.091-22.316-6.209-32.385-6.209v10c8.677 0 18.34 1.829 29.035 5.631l3.35-9.422zm-32.385-6.209c-20.025 0-35.567 8.825-46.08 26.078l8.539 5.204c8.727-14.32 21.059-21.282 37.541-21.282v-10zm-46.062 26.048c-10.331 16.69-15.178 40.598-15.178 71.082h10c0-29.703 4.773-51.428 13.681-65.818l-8.503-5.264zm-15.178 71.082v13.32h10v-13.32h-10zm9.24 10.67-5.55-8.88-8.48 5.3 5.55 8.88 8.48-5.3zm-4.925-5.078c2.037-8.598 5.854-15.981 11.444-22.242l-7.459-6.66c-6.743 7.552-11.312 16.449-13.716 26.598l9.731 2.304zm11.379-22.17c5.893-6.346 13.045-11.241 21.524-14.678l-3.757-9.268c-9.773 3.963-18.162 9.675-25.095 17.142l7.328 6.804zm21.586-14.704c8.733-3.677 18.06-5.528 28.03-5.528v-10c-11.244 0-21.897 2.096-31.911 6.312l3.881 9.216zm28.03-5.528c14.712 0 27.462 3.492 38.42 10.34l5.3-8.48c-12.723-7.951-27.352-11.86-43.72-11.86v10zm38.523 10.403c11.258 6.663 19.987 15.949 26.229 27.971l8.875-4.608c-7.078-13.631-17.095-24.325-30.011-31.969l-5.093 8.606zm26.264 28.037c6.465 12.006 9.763 25.848 9.763 41.66h10c0-17.242-3.609-32.752-10.958-46.401l-8.805 4.741zm9.763 41.66c0 16.502-3.646 31.057-10.826 43.795l8.712 4.91c8.113-14.395 12.114-30.674 12.114-48.705h-10zm-10.806 43.761c-7.193 12.528-17.145 22.372-29.939 29.583l4.91 8.712c14.339-8.082 25.6-19.205 33.701-33.317l-8.672-4.978zm-29.939 29.583c-12.728 7.174-27.403 10.826-44.165 10.826v10c18.264 0 34.669-3.995 49.075-12.114l-4.91-8.712zm-47.495-24.314c13.024 0 23.914-4.26 32.141-13.054l-7.303-6.832c-6.079 6.499-14.183 9.886-24.838 9.886v10zm32.141-13.054c8.189-8.754 12.079-20.178 12.079-33.756h-10c0 11.582-3.263 20.384-9.382 26.924l7.303 6.832zm12.079-33.756c0-13.795-3.874-25.355-12.079-34.126l-7.303 6.832c6.102 6.522 9.382 15.435 9.382 27.294h10zm-12.02-34.061c-8.02-8.88-18.967-13.119-32.2-13.119v10c10.94 0 18.987 3.408 24.779 9.821l7.421-6.702zm-32.2-13.119c-8.43 0-16.19 1.912-23.163 5.817l4.886 8.726c5.36-3.002 11.413-4.543 18.277-4.543v-10zm-23.24 5.861c-6.765 3.947-12.081 9.578-15.943 16.749l8.805 4.741c3.046-5.656 7.103-9.892 12.177-12.852l-5.039-8.638zm-16.012 16.883c-3.608 7.216-5.338 15.404-5.338 24.436h10c0-7.742 1.477-14.354 4.282-19.964l-8.944-4.472zm-5.338 24.436c0 9.025 1.727 17.125 5.374 24.137l8.872-4.614c-2.767-5.321-4.246-11.775-4.246-19.523h-10zm5.447 24.273c3.859 6.891 9.131 12.446 15.773 16.597l5.3-8.48c-5.198-3.249-9.3-7.56-12.348-13.003l-8.725 4.886zm15.98 16.72c6.973 3.905 14.733 5.817 23.163 5.817v-10c-6.864 0-12.917-1.541-18.277-4.543l-4.886 8.726z" fill="#fff"/></svg>