<svg width="709" height="148" fill="none" xmlns="http://www.w3.org/2000/svg"><path d="M27.244 46.447v99.921H.615V46.447h26.629zM40.775 146.368V46.447h31.332l15.735 30.69c5.444 9.936 11.176 23.276 15.596 34.989h.44c-1.469-13.194-2.06-27.129-2.06-42.107V46.446h24.274v99.922H98.139l-16.77-33.21c-5.589-10.676-12.062-24.016-16.771-36.172h-.446c.59 13.492.885 28.616.885 44.771v24.611H40.775zM203.481 46.447V68.24h-37.07v18.535h34.86v21.643h-34.86v37.95h-26.629V46.447h63.699zM241.736 46.447v56.636c0 15.124 5.149 23.718 15.596 23.718 10.587 0 15.735-7.86 15.735-23.718V46.447h26.629v55.149c0 30.837-15.302 46.404-43.104 46.404-27.213 0-41.479-14.972-41.479-47.144v-54.41h26.623zM314.851 119.682c6.034 3.114 15.892 6.227 25.744 6.227 9.117 0 13.537-3.113 13.537-8.157 0-4.892-4.414-7.708-15.597-11.561-16.771-5.93-27.797-15.27-27.797-30.09 0-17.643 14.706-31.28 39.714-31.28 11.911 0 20.3 2.227 26.918 5.188l-5.589 21.345c-4.263-1.93-11.622-4.746-21.624-4.746-8.087 0-12.507 2.968-12.507 7.41 0 5.044 5.299 7.12 17.8 11.865 17.801 6.525 25.894 16.162 25.894 30.091 0 17.2-13.386 32.02-42.363 32.02-11.918 0-23.534-3.259-29.128-6.227l4.998-22.085zM453.132 106.045h-35.595v18.377h39.864v21.939h-66.487V46.447h64.428V68.24h-37.805v16.162h35.595v21.643zM474.499 120.454c0-4.236-.072-7.792-.283-10.972h7.564l.355 5.45h.217c1.71-2.877 4.853-6.282 10.707-6.282 4.564 0 8.135 2.725 9.635 6.81h.144c1.211-2.046 2.644-3.557 4.282-4.613 1.927-1.438 4.137-2.191 6.991-2.191 5.781 0 11.634 4.164 11.634 15.962v21.715h-8.563v-20.35c0-6.129-1.999-9.759-6.208-9.759-2.999 0-5.209 2.27-6.137 4.916-.216.911-.427 2.046-.427 3.102v22.091h-8.563V125c0-5.146-1.927-8.776-5.992-8.776-3.282 0-5.498 2.725-6.281 5.299-.355.91-.5 1.966-.5 3.028v21.788h-8.563v-25.885h-.012zM540.341 130.515c.217 6.658 5.137 9.534 10.707 9.534 4.071 0 6.992-.607 9.635-1.663l1.283 6.434c-2.999 1.286-7.136 2.269-12.134 2.269-11.279 0-17.915-7.337-17.915-18.613 0-10.215 5.853-19.822 16.987-19.822 11.279 0 14.989 9.838 14.989 17.928 0 1.742-.145 3.101-.283 3.933h-23.269zm15.272-6.506c.072-3.405-1.355-9.001-7.208-9.001-5.426 0-7.708 5.22-8.064 9.001h15.272zM602.998 94.842v41.118c0 3.781.145 7.865.283 10.366h-7.852l-.355-5.827h-.145c-2.071 4.085-6.281 6.658-11.345 6.658-8.28 0-14.844-7.489-14.844-18.838-.072-12.332 7.208-19.67 15.561-19.67 4.781 0 8.207 2.118 9.779 4.843h.145v-18.65h8.773zm-8.773 29.999c0-.758-.073-1.663-.217-2.421-.783-3.63-3.571-6.585-7.563-6.585-5.637 0-8.78 5.298-8.78 12.18 0 6.731 3.137 11.653 8.707 11.653 3.571 0 6.709-2.573 7.564-6.585.216-.831.283-1.742.283-2.725v-5.517h.006zM612.422 146.324v-34.612h8.852v34.612h-8.852zm0-42.611V94.98h8.852v8.733h-8.852zM650.245 146.327l-.572-4.085h-.217c-2.144 2.877-5.781 4.916-10.279 4.916-6.992 0-10.918-5.371-10.918-10.967 0-9.303 7.78-13.995 20.625-13.922v-.607c0-2.421-.927-6.433-7.064-6.433-3.426 0-6.991 1.135-9.346 2.725l-1.71-6.051c2.571-1.663 7.064-3.253 12.562-3.253 11.134 0 14.344 7.489 14.344 15.513v13.315c0 3.332.144 6.585.499 8.855h-7.924v-.006zm-1.144-18.001c-6.209-.152-12.134 1.287-12.134 6.882 0 3.63 2.21 5.299 4.998 5.299 3.499 0 6.064-2.422 6.853-5.068.216-.68.283-1.438.283-2.045v-5.068z" fill="#333"/><path d="M477.321 81.338h50.048L580.764.001h-50.047l-53.396 81.337z" fill="#1C3C70"/><path d="M540.985 81.338h50.048L644.422 0h-50.041l-53.396 81.338z" fill="#005EAB"/><path d="M604.642 81.338h50.047L708.085 0h-50.047l-53.396 81.338z" fill="#0097DD"/></svg>