<svg width="211" height="42" fill="none" xmlns="http://www.w3.org/2000/svg"><path fill="#46B659" d="M.938 36.145h17.427v5.164H.938z"/><path fill="#FF5430" d="M18.363 36.144H35.79v5.164H18.363z"/><path fill="#00C0EB" d="M35.793 36.144h174.271v5.164H35.793z"/><path d="M24.432 5.292V2.904c0-.322-.064-.516-.193-.71-.13-.129-.388-.193-.646-.193-.387 0-.71.129-.839.322-.129.194-.258.581-.258 1.033v1.936h-.581V0h.58v2.065h.066c.129-.193.258-.323.451-.452.194-.129.452-.129.71-.129.452 0 .775.13 1.033.323.258.194.323.58.323 1.033v2.452h-.646zM19.333 5.294h-.516V.84h-1.614V.324h3.744V.84h-1.614v4.454z" fill="#fff"/><path fill-rule="evenodd" clip-rule="evenodd" d="M26.691 4.903c.323.323.71.516 1.291.516.258 0 .452 0 .645-.064l.581-.194v-.516c-.451.193-.839.258-1.226.258s-.71-.065-.904-.323c-.193-.258-.322-.58-.322-1.032h2.581V3.16c0-.452-.129-.903-.322-1.162-.259-.322-.646-.451-1.098-.451-.516 0-.903.129-1.226.516-.323.323-.452.84-.452 1.42 0 .645.13 1.097.452 1.42zm.387-2.582c.194-.193.388-.323.71-.323.323 0 .581.065.646.323.193.194.258.452.258.84h-1.936c.064-.388.129-.646.322-.84z" fill="#fff"/><path d="M34.76.774c-.582 0-.969.194-1.292.58-.323.388-.452.84-.452 1.485 0 .646.13 1.162.452 1.55.323.387.775.516 1.291.516.323 0 .775-.065 1.227-.194v.517c-.323.129-.775.193-1.291.193-.71 0-1.291-.193-1.679-.645-.387-.452-.58-1.098-.58-1.937 0-.516.064-.968.258-1.355.193-.387.451-.71.839-.904.387-.193.774-.322 1.29-.322.517 0 .969.064 1.356.258l-.258.516a2.532 2.532 0 0 0-1.162-.258zM37.728 4V1.546h-.58v2.452c0 .452.064.84.322 1.033.258.194.581.323 1.033.323.258 0 .516 0 .71-.13.258-.128.387-.257.516-.451l.065.516h.452V1.547h-.581v2c0 .452-.065.84-.258 1.033-.13.194-.452.323-.84.323-.258 0-.516-.065-.645-.194-.13-.193-.194-.387-.194-.71zM43.408 1.484c.194 0 .323 0 .452.065l-.065.516C43.666 2 43.473 2 43.408 2a.92.92 0 0 0-.774.388c-.194.258-.388.58-.388.903v2.001h-.58V1.55h.451l.065.71c.129-.259.323-.452.516-.581.258-.13.452-.194.71-.194z" fill="#fff"/><path fill-rule="evenodd" clip-rule="evenodd" d="m46.894 4.776.129.516v.065h.322V2.775c0-.452-.129-.775-.322-.968-.194-.194-.517-.323-.968-.323-.194 0-.452 0-.646.065-.194.064-.387.129-.58.258l.193.452c.387-.194.71-.259 1.033-.259.258 0 .451.065.58.194.13.13.194.323.194.646v.258h-.645c-1.227 0-1.807.387-1.807 1.162 0 .387.129.645.322.839.258.193.517.258.904.258.322 0 .516-.065.71-.13.193-.064.387-.193.58-.451zm-.323-.194c-.194.194-.516.323-.84.323a.733.733 0 0 1-.516-.194c-.129-.064-.193-.258-.193-.451 0-.259.129-.452.323-.581.193-.13.516-.194.968-.194h.58v.258c0 .387-.128.646-.322.84z" fill="#fff"/><path d="M50.057 4.906h.322c.065 0 .194 0 .194-.064v.451a.231.231 0 0 0-.085.024.423.423 0 0 1-.173.04h-.323c-.71 0-1.097-.386-1.097-1.16V2.001h-.517v-.259l.517-.258.258-.774h.323v.839h1.097v.452h-1.097v2.194c0 .194.064.387.129.516.064.13.258.194.452.194z" fill="#fff"/><path fill-rule="evenodd" clip-rule="evenodd" d="M51.8 4.903c.322.323.71.516 1.29.516.258 0 .452 0 .645-.064l.581-.194V4.71c-.452.194-.839.259-1.226.259s-.71-.065-.904-.323c-.193-.258-.322-.581-.322-1.033h2.581v-.387c0-.517-.129-.904-.387-1.227-.258-.322-.645-.451-1.097-.451-.517 0-.904.129-1.227.516-.322.323-.451.84-.451 1.42s.193 1.033.516 1.42zm.45-2.582c.194-.193.388-.323.71-.323.26 0 .517.065.646.259.194.193.258.451.258.839h-1.936c0-.388.13-.646.323-.775zM58.189 4.84c-.323.388-.71.582-1.226.582-.517 0-.904-.194-1.162-.517-.258-.323-.387-.839-.387-1.42 0-.645.129-1.097.387-1.42.258-.323.645-.516 1.162-.516.516 0 .903.193 1.161.58h.065V0h.58v5.293h-.45l-.13-.451zm-1.097.065c.387 0 .645-.129.839-.323.194-.193.258-.58.258-1.032v-.065c0-.516-.065-.903-.258-1.162-.194-.258-.452-.322-.84-.322a.92.92 0 0 0-.774.387c-.193.258-.258.645-.258 1.097 0 .452.065.84.258 1.097.13.194.388.323.775.323z" fill="#fff"/><path d="M65.547 5.294h.581V.324h-.516v4.195L62.9.324h-.646v4.97h.646v-2.84c0-.387 0-.84-.065-1.355l2.711 4.195z" fill="#fff"/><path fill-rule="evenodd" clip-rule="evenodd" d="M69.226 5.42c-.58 0-.968-.194-1.29-.517a2.127 2.127 0 0 1-.517-1.42c0-.58.129-1.097.452-1.42.323-.387.71-.516 1.226-.516.452 0 .84.129 1.097.451.258.323.388.71.388 1.227v.387H68c0 .452.129.775.323 1.033.193.258.516.323.903.323.388 0 .775-.065 1.227-.259v.452l-.581.194c-.194.064-.388.064-.646.064zm-.129-3.422c-.323 0-.516.13-.71.323-.194.194-.258.452-.323.84h1.937c0-.388-.065-.646-.258-.84-.13-.258-.388-.323-.646-.323z" fill="#fff"/><path d="M73.292 4.906h-.322c-.13 0-.388-.064-.452-.194a1.215 1.215 0 0 1-.13-.516V2.002h1.098V1.55h-1.097V.71h-.323l-.258.775-.517.258v.259h.517v2.194c0 .775.387 1.162 1.097 1.162h.323c.076 0 .129-.022.173-.04.032-.014.058-.025.085-.025v-.451c0 .064-.13.064-.194.064zM77.552 5.294l-.71-2.194c-.04-.08-.08-.234-.134-.446a18.692 18.692 0 0 0-.124-.458 4.61 4.61 0 0 1-.217.787 8.681 8.681 0 0 0-.04.117l-.71 2.194h-.646l-1.033-3.743h.58c.26.968.453 1.678.582 2.13.129.452.193.839.193.968 0-.13.065-.323.13-.516.064-.194.129-.388.129-.517l.71-2.13h.645l.645 2.13c.1.296.16.554.212.775v.001l.047.192c0-.023.008-.056.02-.096.018-.071.044-.168.044-.291.025-.076.07-.26.142-.555.113-.462.293-1.197.568-2.22h.581l-1.033 3.743h-.58v.13z" fill="#fff"/><path fill-rule="evenodd" clip-rule="evenodd" d="M82.91 4.84c.322-.322.451-.839.451-1.42 0-.58-.129-1.032-.452-1.42-.258-.322-.71-.516-1.226-.516-.58 0-.968.194-1.29.516-.323.323-.453.84-.453 1.42 0 .388.065.71.194 1.033.13.258.323.452.581.646.258.193.58.258.904.258.58 0 .968-.194 1.29-.517zm-2.13-.322c-.194-.258-.259-.646-.259-1.098 0-.451.065-.839.258-1.097.194-.258.452-.387.84-.387.387 0 .645.129.839.387.193.258.258.646.258 1.097 0 .452-.065.84-.258 1.098-.194.258-.452.387-.84.387-.387 0-.645-.13-.838-.387z" fill="#fff"/><path d="M86.266 1.484c.194 0 .323 0 .452.065l-.065.516C86.524 2 86.331 2 86.266 2a.92.92 0 0 0-.775.388c-.193.258-.322.58-.322.903v2.001h-.581V1.55h.452l.064.71c.13-.259.323-.452.517-.581a1.09 1.09 0 0 1 .645-.194zM88.382 3.213c-.064.079-.122.15-.18.208-.025-.1-.03-.19-.035-.271-.008-.128-.015-.231-.094-.31V0h-.58v5.422h.58v-1.42l.452-.388 1.355 1.743h.71l-1.613-2.13 1.549-1.614h-.646l-1.226 1.291c-.107.107-.194.213-.272.31zM30.627 14.453c0-.968.58-1.484 1.678-1.484 1.097 0 1.678.516 1.678 1.484 0 .452-.129.84-.387 1.097-.258.258-.71.388-1.226.388-1.162.064-1.743-.452-1.743-1.485zM33.79 28.46h-3.034V17.357h3.034v11.101z" fill="#fff"/><path fill-rule="evenodd" clip-rule="evenodd" d="M26.238 26.523c1.355-1.29 2.065-3.098 2.065-5.486 0-2.259-.71-4.002-2-5.228-1.291-1.226-3.099-1.872-5.487-1.872h-4.583V28.46h4.131c2.582 0 4.518-.646 5.874-1.937zm-5.293-10.069c2.776 0 4.131 1.55 4.131 4.648 0 3.227-1.485 4.776-4.454 4.776h-1.29v-9.424h1.613z" fill="#fff"/><path d="M6.939 31.3c-.387 0-.71-.064-1.033-.129v-1.42l.154.04c.185.049.338.09.492.09a.828.828 0 0 0 .645-.26c.194-.128.323-.386.387-.774l1.162-5.615h-.968l.194-.84 1.032-.515.13-.517c.129-.71.451-1.29.774-1.613.387-.323.904-.517 1.614-.517.516 0 .968.065 1.355.258l-.452 1.291a1.719 1.719 0 0 0-.774-.193c-.194 0-.387.064-.517.258-.129.129-.258.387-.258.58l-.064.517h1.29l-.258 1.356h-1.29L9.326 29.17C9.004 30.59 8.23 31.3 6.94 31.3z" fill="#fff"/><path fill-rule="evenodd" clip-rule="evenodd" d="M6.874 24.392c0 .84-.129 1.55-.387 2.195-.258.645-.645 1.097-1.162 1.484-.58.323-1.161.516-1.871.516-.775 0-1.356-.258-1.808-.71-.452-.451-.645-1.032-.645-1.807-.065-.839.064-1.549.323-2.194.258-.646.645-1.162 1.226-1.485.58-.323 1.162-.516 1.807-.516.775 0 1.356.258 1.807.71.452.387.71 1.032.71 1.807zm-1.807 0c0-.774-.258-1.162-.774-1.162-.323 0-.581.13-.775.323-.244.244-.372.545-.549.957l-.032.076c-.129.451-.193.903-.193 1.42 0 .71.322 1.097.903 1.097a.92.92 0 0 0 .775-.387c.258-.259.387-.581.516-.969.065-.387.13-.839.13-1.355zM46.634 18.907v-1.55h-3.873c-.07 0-.18-.019-.34-.047a14.297 14.297 0 0 0-.499-.082c-.387-.064-.774-.064-1.097-.064-1.42 0-2.582.322-3.356.968-.775.71-1.162 1.614-1.162 2.84 0 .71.194 1.355.516 1.936.323.581.775.968 1.356 1.227-.452.258-.775.58-1.033.839-.258.258-.387.58-.387 1.032 0 .323.064.646.322.969.259.322.517.516.84.645-.775.194-1.42.516-1.808.968-.452.452-.645 1.033-.645 1.678 0 .969.387 1.743 1.226 2.26.84.58 2.001.838 3.55.838 2.001 0 3.55-.387 4.647-1.097 1.098-.71 1.614-1.742 1.614-3.033 0-1.033-.323-1.808-.968-2.324-.646-.516-1.55-.774-2.776-.774H40.89c-1.097 0-1.678-.194-1.678-.646 0-.258.13-.516.452-.774l.452.064h.516c1.485 0 2.647-.323 3.486-.968.839-.646 1.226-1.614 1.226-2.776 0-.645-.129-1.161-.452-1.678l1.743-.451zm-8.004 12.07a1.065 1.065 0 0 1-.58-.969c0-.452.193-.774.58-1.032.388-.259.84-.388 1.42-.388h1.55c.774 0 1.355.13 1.678.258.322.13.516.452.516.84 0 .516-.258.903-.904 1.226-.645.323-1.484.452-2.581.452-.71 0-1.291-.13-1.678-.388zm.904-8.585c-.258-.323-.387-.84-.387-1.42 0-1.356.58-2 1.549-2 1.097 0 1.678.644 1.678 2 0 .58-.129 1.097-.387 1.42-.258.323-.646.516-1.227.516-.516 0-.968-.193-1.226-.516z" fill="#fff"/><path d="M48.312 14.453c0-.968.58-1.484 1.678-1.484 1.097 0 1.678.516 1.678 1.484 0 .452-.129.84-.387 1.097-.258.258-.71.388-1.226.388-1.162.064-1.743-.452-1.743-1.485zM51.475 28.46H48.44V17.357h3.034v11.101zM61.286 25.877c-.775.193-1.42.322-1.937.322-.451 0-.774-.064-.839-.258-.258-.194-.387-.516-.387-.968v-5.357h3.098v-2.26h-3.098v-2.388h-1.936l-.904 2.324-1.678 1.033v1.29h1.42v5.358c0 1.226.258 2.195.839 2.775.581.581 1.42.904 2.646.904 1.098 0 2.001-.194 2.776-.516v-2.26z" fill="#fff"/><path fill-rule="evenodd" clip-rule="evenodd" d="m70.515 28.46-.58-1.485h-.065c-.516.645-1.033 1.097-1.55 1.355-.515.258-1.225.387-2.13.387-1.096 0-1.87-.322-2.516-.903-.581-.581-.904-1.485-.904-2.582 0-1.162.387-2.066 1.226-2.582.84-.516 2.066-.839 3.744-.903l1.936-.065v-.516c0-1.098-.58-1.679-1.742-1.679-.904 0-1.937.259-3.099.775l-1.032-2.066c1.29-.645 2.71-1.032 4.26-1.032 1.484 0 2.646.322 3.42.968.775.645 1.162 1.614 1.162 2.969v7.423h-2.13v-.065zm-.903-5.164-1.162.064c-.904 0-1.55.194-1.936.452-.452.323-.646.71-.646 1.355 0 .84.517 1.291 1.485 1.291.71 0 1.29-.193 1.678-.58.452-.388.645-.969.645-1.614v-.968h-.064z" fill="#fff"/><path d="M75.744 28.461h3.033V13.035h-3.033V28.46z" fill="#fff"/><path fill-rule="evenodd" clip-rule="evenodd" d="M97.495 18.455c0 1.55-.516 2.776-1.484 3.55-.968.775-2.388 1.227-4.131 1.227h-1.291v5.163H87.49V13.937h4.647c1.743 0 3.098.388 4.002 1.162.903.71 1.355 1.872 1.355 3.356zm-6.97 2.324h1.032c.968 0 1.678-.194 2.13-.58.452-.388.71-.905.71-1.615s-.194-1.226-.58-1.613c-.388-.387-1.034-.517-1.873-.517h-1.42v4.325z" fill="#fff"/><path d="m107.435 27.039.387 1.42v-.065h2.388V17.293h-3.033v5.228c0 1.355-.194 2.259-.581 2.84-.323.58-.968.839-1.807.839-.646 0-1.098-.194-1.356-.581-.323-.387-.452-1.033-.452-1.807v-6.455h-3.033v7.294c0 1.355.322 2.323.968 3.033.71.71 1.678 1.033 2.969 1.033.775 0 1.485-.129 2.065-.452.581-.322 1.033-.71 1.356-1.226h.129z" fill="#fff"/><path fill-rule="evenodd" clip-rule="evenodd" d="M119.505 17.166c1.291 0 2.323.516 3.098 1.549.71 1.033 1.097 2.453 1.097 4.195 0 1.808-.387 3.227-1.162 4.26-.774 1.033-1.807 1.485-3.098 1.485s-2.323-.452-3.098-1.42h-.193l-.517 1.226h-2.323V13.035h3.033v3.614c0 .305-.029.728-.068 1.287-.019.27-.04.572-.061.908h.129c.71-1.162 1.807-1.678 3.163-1.678zm-.968 2.388c-.775 0-1.291.258-1.614.71-.323.452-.516 1.226-.516 2.259v.323c0 1.162.193 2.065.516 2.581.323.517.904.775 1.678.775.646 0 1.098-.258 1.485-.839.387-.58.581-1.42.581-2.517 0-1.098-.194-1.937-.581-2.453-.387-.58-.904-.84-1.549-.84z" fill="#fff"/><path d="M126.218 28.461h3.033V13.035h-3.033V28.46zM132.285 14.453c0-.968.581-1.484 1.678-1.484s1.678.516 1.678 1.484c0 .452-.129.84-.387 1.097-.258.258-.71.388-1.227.388-1.226.064-1.742-.452-1.742-1.485zM135.447 28.46h-3.033V17.357h3.033v11.101zM137.965 22.973c0 3.808 1.743 5.68 5.163 5.68.71 0 1.356-.065 1.872-.194a4.947 4.947 0 0 0 1.485-.645v-2.582c-.517.323-.968.58-1.485.71-.516.194-1.033.258-1.613.258-1.614 0-2.389-1.033-2.389-3.227 0-2.26.84-3.357 2.389-3.357.387 0 .839.065 1.226.194.452.13.904.258 1.355.452l.904-2.324c-.968-.516-2.13-.774-3.421-.774-1.807 0-3.098.516-4.066 1.484s-1.42 2.453-1.42 4.325z" fill="#fff"/><path fill-rule="evenodd" clip-rule="evenodd" d="m156.102 28.46-.581-1.485h-.065c-.516.645-1.032 1.097-1.549 1.355-.516.258-1.226.387-2.13.387-1.097 0-1.871-.322-2.517-.903-.581-.581-.904-1.485-.904-2.582 0-1.162.388-2.066 1.227-2.582.839-.516 2.065-.839 3.743-.903l1.937-.065v-.516c0-1.098-.581-1.679-1.743-1.679-.904 0-1.936.259-3.098.775l-1.033-2.066c1.291-.645 2.711-1.032 4.26-1.032 1.485 0 2.646.322 3.421.968.775.645 1.162 1.614 1.162 2.969v7.423h-2.13v-.065zm-.904-5.164-1.162.064c-.903 0-1.549.194-1.936.452-.452.323-.645.71-.645 1.355 0 .84.516 1.291 1.484 1.291.71 0 1.291-.193 1.678-.58.452-.388.646-.969.646-1.614v-.968h-.065z" fill="#fff"/><path d="M167.914 25.877c-.775.193-1.42.322-1.937.322-.387 0-.71-.064-.839-.258-.258-.194-.387-.516-.387-.968v-5.357h3.098v-2.26h-3.098v-2.388h-1.936l-.904 2.324-1.678 1.033v1.29h1.42v5.358c0 1.226.258 2.195.839 2.775.581.581 1.42.904 2.646.904 1.098 0 2.001-.194 2.776-.516v-2.26zM170.043 14.453c0-.968.581-1.484 1.679-1.484 1.097 0 1.678.516 1.678 1.484 0 .452-.129.84-.387 1.097-.259.258-.71.388-1.227.388-1.226.064-1.743-.452-1.743-1.485zM173.142 28.46h-3.034V17.357h3.034v11.101z" fill="#fff"/><path fill-rule="evenodd" clip-rule="evenodd" d="M185.018 27.106c.968-1.033 1.42-2.453 1.42-4.26 0-1.162-.259-2.13-.646-2.905-.452-.903-1.033-1.549-1.872-2a5.787 5.787 0 0 0-2.84-.71c-1.742 0-3.033.516-4.001 1.484-.969.968-1.42 2.388-1.42 4.195 0 1.162.193 2.13.645 3.034.452.839 1.033 1.549 1.872 2 .839.453 1.743.71 2.84.71 1.743 0 3.033-.516 4.002-1.548zm-5.745-1.743c-.323-.581-.516-1.42-.516-2.517 0-1.098.193-1.872.516-2.453.323-.581.968-.84 1.743-.84.774 0 1.355.259 1.743.84.322.516.516 1.355.516 2.453 0 1.097-.194 1.936-.516 2.517-.388.58-.969.839-1.743.839-.775 0-1.42-.258-1.743-.84z" fill="#fff"/><path d="M199.153 28.46h-3.033v-6.52c0-.774-.129-1.42-.452-1.807s-.71-.581-1.356-.581c-.839 0-1.484.258-1.807.84-.323.58-.581 1.484-.581 2.839v5.228h-3.033V17.358h2.323l.387 1.42h.194c.323-.517.775-.969 1.42-1.227.581-.258 1.291-.387 2.001-.387 1.291 0 2.259.322 2.905 1.032.645.71 1.032 1.679 1.032 3.034v7.23zM208.835 27.747c.774-.58 1.162-1.42 1.162-2.581 0-.581-.065-1.033-.258-1.485-.194-.387-.517-.71-.904-1.033a28.566 28.566 0 0 0-.129-.074c-.443-.254-1.045-.6-1.807-.894-.969-.387-1.614-.71-1.872-.904-.323-.193-.452-.451-.452-.71 0-.451.452-.71 1.355-.71.517 0 1.033.13 1.485.259.452.129.968.322 1.549.58l.904-2.194c-1.227-.58-2.518-.904-3.873-.904-1.355 0-2.453.323-3.227.84-.775.516-1.162 1.29-1.162 2.259 0 .58.065 1.097.258 1.484.194.387.517.71.904 1.033.387.258 1.032.58 1.872.968l.347.154c.419.185.766.338 1.073.491.387.194.645.388.774.517s.194.323.194.58c0 .646-.581.969-1.678.969a7.174 7.174 0 0 1-1.872-.258c-.646-.13-1.291-.388-1.872-.646v2.518c.516.193 1.033.322 1.614.451.58.13 1.29.194 2.065.194 1.549 0 2.775-.323 3.55-.904z" fill="#fff"/></svg>