<svg width="110" height="68" fill="none" xmlns="http://www.w3.org/2000/svg"><path d="M61.835 10.88 58.88 8.54 43.613 30.576l-18.29-11.163L8.337 44.737V39.31l16.077-24.36L42.839 26.33 56.491 6.647l-3.264-2.584L63.46 0l-1.625 10.88z" fill="#005EAB"/><path d="M25.802 23.208 8.338 48.461v11.227h17.464v-36.48zm-2.694 33.725H11.032v-7.235L23.108 31.89v25.043zm22.676-13.222V31.9l13.822-19.977 5.59 5.157v25.87a28.021 28.021 0 0 0-2.53-2.11V18.299l-2.55-2.154L48.48 32.892l.01 8.302c-1 .728-1.908 1.573-2.706 2.517zm19.575 21.46v2.79L0 67.998V2.801h2.794V65.21l47.19-.028a13.703 13.703 0 0 0 11.323-.008c1.087-.038 4.052-.003 4.052-.003zm-9.517-.643c2.364 0 4.676-.7 6.642-2.012a11.939 11.939 0 0 0 4.403-5.356 11.917 11.917 0 0 0-2.592-13.006 11.973 11.973 0 0 0-13.028-2.587 11.95 11.95 0 0 0-5.364 4.395 11.92 11.92 0 0 0-2.015 6.631 11.938 11.938 0 0 0 3.505 8.435 11.977 11.977 0 0 0 8.45 3.5zm0-21.036c1.803 0 3.566.534 5.065 1.534a9.087 9.087 0 0 1 1.381 14.003 9.12 9.12 0 0 1-9.935 1.973 9.113 9.113 0 0 1-4.09-3.352 9.09 9.09 0 0 1 1.133-11.492 9.117 9.117 0 0 1 6.446-2.666zM35.49 59.688h8.835s-.176-.284-.986-1.987a9.562 9.562 0 0 1-.828-2.487 12.4 12.4 0 0 1 .003-4.784c.125-.64 1.086-3.328 1.086-3.328V33.638l-15.565-9.525v35.575h7.455zm-4.761-30.752 10.177 6.148v21.849H30.728V28.936zm26.18 25.71c0-.317-.095-.694-1.248-1.163-1.33-.518-2.7-1.279-2.7-2.976a2.798 2.798 0 0 1 2.146-2.734v-1.55h2.017v1.422c.553.07 1.086.25 1.566.531l.412.243-.76 2.003-.577-.331a2.866 2.866 0 0 0-1.508-.406c-.588 0-.937.242-.937.65 0 .31.098.551 1.412 1.096a3.37 3.37 0 0 1 2.551 3.117 2.967 2.967 0 0 1-2.245 2.865v1.59h-2.031V57.53a4.445 4.445 0 0 1-1.935-.688l-.35-.249.731-2.036.604.4a3.21 3.21 0 0 0 1.732.517c.557-.002 1.12-.257 1.12-.827z" fill="#1C3C70"/></svg>