<svg width="200" height="200" fill="none" xmlns="http://www.w3.org/2000/svg"><path d="M133.141 173.141H93.863a12.673 12.673 0 0 0-3.693-7.553L67.34 142.676h-26.94l4.783-7.386-6.965-4.616-38.02 57.323 7.05 5.035 5.288-8.392h32.312l15.107 15.107h72.849a13.428 13.428 0 0 0 0-26.857l.336.251zm0 18.549H63.733l-15.191-15.443h-30.55l16.786-25.682h28.619l20.73 20.898a4.784 4.784 0 0 1 1.343 3.273 4.614 4.614 0 0 1-2.847 4.282 4.62 4.62 0 0 1-5.042-1.009l-13.345-13.68-5.875 5.875 13.596 13.68a12.935 12.935 0 0 0 4.91 3.056 12.935 12.935 0 0 0 11.192-1.353 12.92 12.92 0 0 0 4.041-4.137h41.041a5.12 5.12 0 0 1 0 10.24zM192.728 7.386l-5.288 8.392h-32.312L140.021 0H66.836a13.428 13.428 0 1 0 0 26.857h39.278a12.26 12.26 0 0 0 3.693 7.47l23.08 23.08h26.773l-4.784 7.385 6.966 4.616 38.02-57.742-7.134-4.28zM165.032 49.35H136.58l-20.982-20.815a4.954 4.954 0 0 1-1.343-3.357 4.62 4.62 0 0 1 2.847-4.282 4.618 4.618 0 0 1 5.043 1.01l13.596 13.68 5.875-5.876-13.596-13.596a12.926 12.926 0 0 0-20.143 2.434h-41.04a5.12 5.12 0 0 1 0-10.155h69.407l15.024 15.023h30.298L165.032 49.35z" fill="#fff"/><path d="M147.4 80.904a58.158 58.158 0 0 0-18.38-1.93 29.373 29.373 0 0 0-15.946 5.455c-12.757 9.988-11.75 32.48-11.75 32.48a59.325 59.325 0 0 0 18.296 1.847 28.785 28.785 0 0 0 16.03-5.456c12.674-9.903 11.75-32.396 11.75-32.396zm-16.785 25.766a20.06 20.06 0 0 1-11.414 3.777 51.408 51.408 0 0 1-8.981 0 28.538 28.538 0 0 1 8.393-19.052 20.648 20.648 0 0 1 11.33-3.693 44.814 44.814 0 0 1 9.065 0 28.704 28.704 0 0 1-8.561 18.968h.168zM73.032 66.638a29.626 29.626 0 0 0-16.03-5.456 59.336 59.336 0 0 0-18.296 1.847S37.699 85.52 50.54 95.509a28.532 28.532 0 0 0 15.946 5.455 59.695 59.695 0 0 0 18.38-1.846s.84-22.493-11.834-32.48zm-5.707 25.681a20.899 20.899 0 0 1-11.414-3.692 29.292 29.292 0 0 1-8.393-18.968 45.07 45.07 0 0 1 9.065 0 20.645 20.645 0 0 1 11.414 3.693 28.87 28.87 0 0 1 7.721 18.968c-2.79.298-5.603.298-8.393 0zM97.467 49.434h-8.225v97.356h8.225V49.434z" fill="#FE8836"/></svg>