<svg width="199" height="193" fill="none" xmlns="http://www.w3.org/2000/svg"><path d="M77.599 124.715a13.385 13.385 0 0 0-1.83-6.56 13.416 13.416 0 0 0-4.824-4.816 17.4 17.4 0 0 0-2.495-1.079l-.499-.083.25-.498a18.194 18.194 0 0 0 2.245-8.221 12.921 12.921 0 0 0-1.902-6.685 12.95 12.95 0 0 0-5.093-4.738 12.976 12.976 0 0 0-13.382.878 12.96 12.96 0 0 0-4.331 5.244 12.935 12.935 0 0 0-1.075 6.713 18.625 18.625 0 0 0 2.163 6.809l.249.415-.499.166c-.87.263-1.708.625-2.495 1.079a13.067 13.067 0 0 0-4.87 4.789 13.031 13.031 0 0 0-1.784 6.587v11.127H77.6v-11.127zM56.806 98.31a4.634 4.634 0 0 1 3.91 1.08 5.364 5.364 0 0 1 1.995 4.068 9.979 9.979 0 0 1-3.327 7.141 3.172 3.172 0 0 1-2.162.914 4.6 4.6 0 0 1-2.163-1.329 10.034 10.034 0 0 1-2.744-7.39 5.28 5.28 0 0 1 1.497-2.99 5.296 5.296 0 0 1 2.994-1.494zm13.058 29.893H45.079v-3.405a5.512 5.512 0 0 1 2.828-4.816 7.019 7.019 0 0 1 3.327-.664h.415c.915-.083 3.16-.083 5.822-.083 2.496 0 4.575 0 5.656.083h.665a7.019 7.019 0 0 1 3.327.664 5.419 5.419 0 0 1 2.745 4.733v3.488zm-36.346 42.016a8.015 8.015 0 0 0-2.578-1.079l-.5-.167.25-.415a16.773 16.773 0 0 0 2.246-8.22 12.91 12.91 0 0 0-6.931-11.435 12.966 12.966 0 0 0-13.363.806 13.14 13.14 0 0 0-5.49 12.04 18.775 18.775 0 0 0 2.246 6.809l.25.415-.5.167a9.759 9.759 0 0 0-2.494.996 13.191 13.191 0 0 0-4.873 4.835A13.164 13.164 0 0 0 0 181.595v11.127h40.172v-11.127a13.283 13.283 0 0 0-6.654-11.376zM19.296 155.19a4.268 4.268 0 0 1 2.091.044 4.268 4.268 0 0 1 1.818 1.035 5.077 5.077 0 0 1 2.08 4.069 10.29 10.29 0 0 1-3.328 7.141 3.082 3.082 0 0 1-2.162.83 3.968 3.968 0 0 1-2.163-1.328 10.335 10.335 0 0 1-2.828-7.391 5.29 5.29 0 0 1 4.491-4.4zm13.14 29.809H7.653v-3.404a5.404 5.404 0 0 1 2.744-4.733 7.13 7.13 0 0 1 3.41-.747h.333c.915 0 3.16-.083 5.905-.083 2.579 0 4.741.083 5.74.083h.581a6.456 6.456 0 0 1 3.244.747 5.327 5.327 0 0 1 2.828 4.733v3.404zm97.478-60.284a13.392 13.392 0 0 0-6.654-11.376c-.824-.439-1.687-.8-2.578-1.079l-.499-.083.249-.498a17.302 17.302 0 0 0 2.329-8.221 13.245 13.245 0 0 0-6.903-11.376 12.916 12.916 0 0 0-13.301.712 12.88 12.88 0 0 0-4.472 5.263 12.86 12.86 0 0 0-1.107 6.813 17.17 17.17 0 0 0 2.162 6.809l.25.415-.5.166c-.87.263-1.707.625-2.494 1.079a13.067 13.067 0 0 0-4.87 4.789 13.031 13.031 0 0 0-1.784 6.587v11.127h40.172v-11.127zM109.038 98.31a4.497 4.497 0 0 1 3.909 1.08 5.194 5.194 0 0 1 2.079 4.068 9.98 9.98 0 0 1-3.327 7.141 3.171 3.171 0 0 1-2.162.914 4.603 4.603 0 0 1-2.163-1.329 10.464 10.464 0 0 1-2.828-7.39 5.464 5.464 0 0 1 1.528-2.959 5.48 5.48 0 0 1 2.964-1.525zm13.141 29.893H97.394v-3.405a5.352 5.352 0 0 1 2.828-4.816 6.808 6.808 0 0 1 3.326-.664h.416c.915-.083 3.161-.083 5.822-.083 2.412 0 4.575 0 5.656.083h.665a7.02 7.02 0 0 1 3.327.664 5.406 5.406 0 0 1 2.745 4.733v3.488zm-36.43 42.016a7.569 7.569 0 0 0-2.494-1.079l-.5-.167.25-.415a16.773 16.773 0 0 0 2.246-8.22 12.89 12.89 0 0 0-4.034-9.389 12.936 12.936 0 0 0-9.606-3.523 12.934 12.934 0 0 0-11.662 9.13 12.887 12.887 0 0 0-.481 5.193 17.317 17.317 0 0 0 2.245 6.809l.25.415-.5.167c-.9.216-1.766.551-2.578.996a13.52 13.52 0 0 0-6.654 11.459v11.127h40.172v-11.127a12.94 12.94 0 0 0-1.77-6.596c-1.17-2-2.856-3.651-4.883-4.78zM71.612 155.19a4.32 4.32 0 0 1 3.909 1.079 5.315 5.315 0 0 1 2.079 4.069 10.645 10.645 0 0 1-3.327 7.141 3.222 3.222 0 0 1-2.162.83 3.716 3.716 0 0 1-2.163-1.328 10.335 10.335 0 0 1-2.828-7.391 5.29 5.29 0 0 1 4.491-4.4zm13.14 29.809H59.968v-3.404a5.403 5.403 0 0 1 2.744-4.733 7.13 7.13 0 0 1 3.41-.747h.333c.832 0 3.16-.083 5.905-.083 2.495 0 4.658.083 5.739.083h.582a6.672 6.672 0 0 1 3.244.747 5.477 5.477 0 0 1 2.828 4.733v3.404zm23.163-.913H199v8.627h-96.835l5.749-8.627zM199 74.22v8.627h-21.55l5.739-8.628L199 74.22zm-53.441 53.002H199v8.628h-59.159l5.718-8.628z" fill="#fff"/><path d="m189.381 27.485-5.406 8.137h-63.044c.34-1.414.507-2.863.499-4.317a19.19 19.19 0 0 0-.332-3.82h68.283zM24.619 35.622h53.728a20.29 20.29 0 0 1-.166-8.137H5.49L0 35.622h16.302v46.75H169.67l5.489-8.304H24.619V35.622zm62.295 0a12.403 12.403 0 0 1-.748-4.317 11.488 11.488 0 0 1 .582-3.82 13.052 13.052 0 0 1 3.254-5.501 13.08 13.08 0 0 1 5.479-3.3V0h8.317v18.683a13.058 13.058 0 0 1 8.733 8.802c.408 1.231.605 2.523.582 3.82a12.417 12.417 0 0 1-.748 4.317 13.409 13.409 0 0 1-4.889 6.614 13.44 13.44 0 0 1-15.673 0 13.403 13.403 0 0 1-4.889-6.614zm7.569-4.317a5.058 5.058 0 0 0 2.412 4.317 4.95 4.95 0 0 0 5.489 0 5.066 5.066 0 0 0 2.037-6.225 5.061 5.061 0 0 0-1.372-1.912 5.286 5.286 0 0 0-6.82 0 5.031 5.031 0 0 0-1.746 3.82z" fill="#FE8836"/></svg>