<svg width="78" height="63" fill="none" xmlns="http://www.w3.org/2000/svg"><path d="M63.745 25.3c-1.272-6.127-4.867-11.375-10.122-14.81-5.255-3.434-11.534-4.615-17.674-3.351l-.442-2.171c6.72-1.374 13.608-.082 19.36 3.682 5.753 3.764 9.68 9.507 11.063 16.184l-2.185.467z" fill="#005EAB"/><path d="m40.844.46-8.712 5.112 8.712 4.753V.461zM38.106 58.956c-11.948 0-22.679-8.325-25.196-20.388l2.185-.44c2.628 12.613 15.074 20.746 27.769 18.136l.442 2.17a25.481 25.481 0 0 1-5.2.522z" fill="#005EAB"/><path d="m37.968 62.915 8.74-5.083-8.74-4.754v9.837zM60.84 51.266l-1.714 2.5h-3.319l1.743-2.5h3.29zM65.653 51.266l-1.714 2.5h-3.32l1.715-2.5h3.32zM70.438 51.266l-1.687 2.5h-3.347l1.743-2.5h3.291z" fill="#005EAB"/><path d="M9.232 13.871h-2.49v20.965h2.49V13.87zM17.142 13.871h-2.49v20.965h2.49V13.87zM25.052 13.871h-2.489v20.965h2.49V13.87zM32.934 13.871h-2.489v20.965h2.49V13.87z" fill="#1C3C70"/><path d="M36.641 33.926H3.064v2.473h33.577v-2.473zM19.797 2.52.492 12.576v3.572h38.721v-3.572L19.797 2.52zM3.811 13.675l16.014-8.353 16.097 8.353H3.812zM77.436 52.089c-.304-2.72-1.908-5.138-4.314-6.54l-.222-.11-.027-.054c-.498-.248-.94-.413-1.41-.578l-.305-.082-.221-.027-2.434-.413 1.106-2.17.166-.33.277-.467c.94-1.731 1.493-3.792 1.548-5.66-.055-3.105-1.77-5.99-4.535-7.419-1.162-.632-2.545-.962-3.983-.962-1.798 0-3.457.522-4.785 1.484-2.572 1.786-3.983 4.781-3.623 7.886.138 1.593.664 3.242 1.493 4.698l.222.385.138.247 1.161 1.924-2.489.824-.47.137a11.08 11.08 0 0 0-1.66.687c-2.406 1.374-3.982 3.792-4.314 6.567-.055.303-.055.632-.055.934v6.98h28.764v-6.98c.055-.357.028-.659-.028-.961zm-20.66-17.146c.221-3.022 2.876-5.055 5.338-5.522.304-.055.719-.138 1.161-.138 1.3 0 2.545.495 3.79 1.456 1.52 1.292 2.406 3.105 2.406 4.919 0 2.665-1.328 5.55-3.402 7.418-.775.797-1.909 1.264-3.18 1.264h-.111l-.111-.027c-.94-.11-2.074-.742-3.043-1.676-1.908-1.979-3.07-5.028-2.848-7.694zm18.586 22.943H50.857v-4.863c0-.302.028-.632.083-.934a6.49 6.49 0 0 1 3.236-4.754l.11-.055c1.162-.577 2.213-.742 3.568-.824h.388c.332 0 .83 0 1.41-.027.94 0 2.157-.028 3.457-.028 1.466 0 2.766.028 3.679.055h1.466c1.466.082 2.517.22 3.678.824l.11.055a6.591 6.591 0 0 1 3.237 4.754c.055.302.083.604.083.934v4.863z" fill="#1C3C70"/><path d="M9.232 13.871h-2.49v20.965h2.49V13.87zM17.142 13.871h-2.49v20.965h2.49V13.87zM25.052 13.871h-2.489v20.965h2.49V13.87zM32.934 13.871h-2.489v20.965h2.49V13.87z" stroke="#1C3C70" stroke-width=".5" stroke-miterlimit="10"/><path d="M36.641 33.926H3.064v2.473h33.577v-2.473zM19.797 2.52.492 12.576v3.572h38.721v-3.572L19.797 2.52zM3.811 13.675l16.014-8.353 16.097 8.353H3.812zM77.436 52.089c-.304-2.72-1.908-5.138-4.314-6.54l-.222-.11-.027-.054c-.498-.248-.94-.413-1.41-.578l-.305-.082-.221-.027-2.434-.413 1.106-2.17.166-.33.277-.467c.94-1.731 1.493-3.792 1.548-5.66-.055-3.105-1.77-5.99-4.535-7.419-1.162-.632-2.545-.962-3.983-.962-1.798 0-3.457.522-4.785 1.484-2.572 1.786-3.983 4.781-3.623 7.886.138 1.593.664 3.242 1.493 4.698l.222.385.138.247 1.161 1.924-2.489.824-.47.137a11.08 11.08 0 0 0-1.66.687c-2.406 1.374-3.982 3.792-4.314 6.567-.055.303-.055.632-.055.934v6.98h28.764v-6.98c.055-.357.028-.659-.028-.961zm-20.66-17.146c.221-3.022 2.876-5.055 5.338-5.522.304-.055.719-.138 1.161-.138 1.3 0 2.545.495 3.79 1.456 1.52 1.292 2.406 3.105 2.406 4.919 0 2.665-1.328 5.55-3.402 7.418-.775.797-1.909 1.264-3.18 1.264h-.111l-.111-.027c-.94-.11-2.074-.742-3.043-1.676-1.908-1.979-3.07-5.028-2.848-7.694zm18.586 22.943H50.857v-4.863c0-.302.028-.632.083-.934a6.49 6.49 0 0 1 3.236-4.754l.11-.055c1.162-.577 2.213-.742 3.568-.824h.388c.332 0 .83 0 1.41-.027.94 0 2.157-.028 3.457-.028 1.466 0 2.766.028 3.679.055h1.466c1.466.082 2.517.22 3.678.824l.11.055a6.591 6.591 0 0 1 3.237 4.754c.055.302.083.604.083.934v4.863z" stroke="#1C3C70" stroke-width=".5" stroke-miterlimit="10"/></svg>