<svg width="110" height="68" fill="none" xmlns="http://www.w3.org/2000/svg"><path d="M44.227 16.31a6.107 6.107 0 0 0-3.059-5.23l-.032-.033a4.885 4.885 0 0 0-1.172-.487l-.228-.065-.195-.065.098-.163.13-.227a7.807 7.807 0 0 0 1.041-3.834 5.984 5.984 0 0 0-1.757-4.224 6.004 6.004 0 0 0-4.23-1.755 5.873 5.873 0 0 0-3.418 1.105 5.987 5.987 0 0 0-2.539 5.524 8.154 8.154 0 0 0 1.042 3.184l.098.227.097.163-.195.065-.228.065a6.33 6.33 0 0 0-1.171.487 6.118 6.118 0 0 0-3.06 5.296v5.134h18.778V16.31zM34.464 3.608c.149-.04.302-.062.456-.065a2.378 2.378 0 0 1 1.53.584 2.878 2.878 0 0 1 1.04 2.08 5.05 5.05 0 0 1-1.659 3.541 1.609 1.609 0 0 1-1.107.455h-.032a2.29 2.29 0 0 1-1.14-.682 5.058 5.058 0 0 1-1.366-3.64 2.685 2.685 0 0 1 2.278-2.273zm6.411 14.523H28.77v-1.787a2.781 2.781 0 0 1 1.4-2.404 3.176 3.176 0 0 1 1.692-.358h.162c.488-.032 1.562-.032 2.8-.032 1.268 0 2.375 0 2.733.032h.26a3.056 3.056 0 0 1 1.66.358 2.749 2.749 0 0 1 1.4 2.404v1.787zm25.71 39.477-.032-.033a5.22 5.22 0 0 0-1.14-.487l-.26-.065-.195-.065.097-.163.13-.227a7.81 7.81 0 0 0 1.042-3.834 5.984 5.984 0 0 0-1.746-4.213 6.004 6.004 0 0 0-4.21-1.765 6.005 6.005 0 0 0-4.478 1.977 5.983 5.983 0 0 0-1.51 4.65 8.942 8.942 0 0 0 1.042 3.185l.13.195.098.195-.196.065-.26.065a3.266 3.266 0 0 0-1.139.487 6.148 6.148 0 0 0-3.092 5.296v5.101h18.778v-5.133a6.107 6.107 0 0 0-3.059-5.231zM59.881 50.1a2.16 2.16 0 0 1 .456-.032c.564.002 1.108.21 1.53.584a2.714 2.714 0 0 1 1.04 2.08 5.079 5.079 0 0 1-1.627 3.541 1.751 1.751 0 0 1-1.139.455 2.053 2.053 0 0 1-1.139-.715 4.989 4.989 0 0 1-1.4-3.639 2.758 2.758 0 0 1 2.279-2.274zm6.444 14.556h-12.14V62.87a2.15 2.15 0 0 1 .196-.65.194.194 0 0 1 .033-.13 2.39 2.39 0 0 1 .618-1.072l.098-.097c.162-.163.26-.358.455-.455a3.238 3.238 0 0 1 1.693-.358h.162c.423-.032 1.497-.065 2.799-.065 1.27 0 2.343.033 2.766.033l.26.032a3.246 3.246 0 0 1 1.628.325 2.933 2.933 0 0 1 1.432 2.405v1.82zM15.75 57.444l-.032-.032a5.528 5.528 0 0 0-1.172-.488l-.228-.065-.195-.032.098-.195.13-.228a8.548 8.548 0 0 0 1.041-3.801 6.082 6.082 0 0 0-3.189-5.296 5.94 5.94 0 0 0-2.799-.682 5.767 5.767 0 0 0-3.417 1.072 6.009 6.009 0 0 0-2.538 5.556 7.953 7.953 0 0 0 1.009 3.151l.13.228.097.162-.195.065-.228.065a6.334 6.334 0 0 0-1.171.488A6.148 6.148 0 0 0 0 62.708v5.133h18.81v-5.133a6.122 6.122 0 0 0-3.059-5.264zm-6.736-7.473c.16-.037.323-.06.488-.065a2.49 2.49 0 0 1 1.53.617 2.773 2.773 0 0 1 1.008 2.047 5.017 5.017 0 0 1-1.627 3.542 1.547 1.547 0 0 1-1.139.455 2.289 2.289 0 0 1-1.139-.682 4.958 4.958 0 0 1-1.367-3.64 2.687 2.687 0 0 1 2.246-2.274zm6.443 14.524H3.352v-1.787a2.782 2.782 0 0 1 1.4-2.405 3.89 3.89 0 0 1 1.66-.357h.162c.52 0 1.595-.033 2.831-.033 1.27 0 2.376.033 2.734.033h.26a3.893 3.893 0 0 1 1.66.357 2.787 2.787 0 0 1 1.4 2.405v1.787zm8.202-38.567h4.556l-10.87 16.375h-4.524L23.66 25.928zm28.638 16.375L41.461 25.928h4.556l10.837 16.375h-4.556zm-44.26-7.018a7.77 7.77 0 0 0 4.315-1.297 7.738 7.738 0 0 0 1.201-11.92A7.766 7.766 0 0 0 5.1 20.371a7.759 7.759 0 0 0-3.489 2.847A7.74 7.74 0 0 0 .293 27.52 7.752 7.752 0 0 0 2.557 33a7.777 7.777 0 0 0 5.481 2.284zm0-11.859a4.121 4.121 0 0 1 3.794 2.552 4.104 4.104 0 0 1-.91 4.476 4.119 4.119 0 0 1-7.017-2.934 4.116 4.116 0 0 1 1.22-2.9 4.13 4.13 0 0 1 2.913-1.194zm0-7.96c1.532 0 3.03-.454 4.303-1.303a7.721 7.721 0 0 0 1.174-11.898A7.75 7.75 0 0 0 5.075.589a7.743 7.743 0 0 0-3.477 2.848A7.724 7.724 0 0 0 .293 7.733a7.745 7.745 0 0 0 2.274 5.462 7.77 7.77 0 0 0 5.471 2.27zm0-11.86a4.122 4.122 0 0 1 3.79 2.545 4.103 4.103 0 0 1-.895 4.472 4.12 4.12 0 0 1-7.028-2.89c0-1.095.436-2.144 1.21-2.918a4.136 4.136 0 0 1 2.923-1.209zm53.6 31.68a7.77 7.77 0 0 0 4.306-1.314 7.75 7.75 0 0 0 3.29-7.952 7.745 7.745 0 0 0-2.123-3.963 7.766 7.766 0 0 0-8.452-1.683 7.76 7.76 0 0 0-3.484 2.847 7.74 7.74 0 0 0-1.315 4.299 7.747 7.747 0 0 0 2.276 5.493 7.772 7.772 0 0 0 5.502 2.272zm0-11.86a4.121 4.121 0 0 1 3.794 2.552 4.104 4.104 0 0 1-.91 4.476 4.119 4.119 0 0 1-7.017-2.934 4.115 4.115 0 0 1 1.22-2.9 4.129 4.129 0 0 1 2.913-1.194zm0-7.96a7.754 7.754 0 0 0 4.295-1.32 7.721 7.721 0 0 0 1.139-11.893A7.75 7.75 0 0 0 58.633.593a7.742 7.742 0 0 0-3.47 2.848 7.723 7.723 0 0 0-1.304 4.293 7.746 7.746 0 0 0 2.286 5.474 7.771 7.771 0 0 0 5.492 2.259zm0-11.86a4.122 4.122 0 0 1 3.79 2.545 4.103 4.103 0 0 1-.895 4.472 4.119 4.119 0 0 1-7.028-2.89 4.12 4.12 0 0 1 2.552-3.812 4.14 4.14 0 0 1 1.581-.314z" fill="#1C3C70"/><path d="M34.824 44.156c-1.532 0-3.03.454-4.303 1.303a7.721 7.721 0 0 0-1.174 11.898 7.75 7.75 0 0 0 8.44 1.676 7.742 7.742 0 0 0 3.477-2.848 7.724 7.724 0 0 0-.963-9.765 7.744 7.744 0 0 0-5.477-2.264zm0 11.827a4.121 4.121 0 0 1-3.794-2.552 4.104 4.104 0 0 1 .91-4.476 4.12 4.12 0 0 1 7.017 2.934 4.092 4.092 0 0 1-2.555 3.79 4.112 4.112 0 0 1-1.578.304z" fill="#005EAB"/></svg>