<svg width="255" height="187" fill="none" xmlns="http://www.w3.org/2000/svg"><path d="M173.24 55.598c5.082 7.598 9.075 16.644 11.253 26.413h17.062v37.267h-9.076V91.056H176.87l-.363-3.618c-1.815-10.855-6.172-20.986-12.343-29.67l-2.178-3.255 10.891-10.855-14.158-14.111-10.89 10.855-3.268-2.171c-8.349-5.79-18.513-10.131-29.767-12.302l-3.63-.362V10.009H90.835v15.558l-3.63.362c-10.89 1.809-21.055 6.15-29.767 12.302l-3.267 2.17-10.89-10.854-13.795 13.75 10.89 10.854-2.177 3.256c-5.809 8.684-10.165 18.453-12.343 29.67l-1.452 3.617H9.157v19.9h16.699l.363 3.618c1.815 10.855 6.171 20.986 12.343 29.67l2.178 3.256-10.89 10.854 13.794 13.75 10.89-10.855 3.267 2.171c6.897 5.065 26.137 12.302 26.137 12.302l-5.082 7.598s-15.973-5.427-23.233-10.131l-12.342 12.302-26.863-26.775.363-.362 11.616-11.939c-5.082-7.599-9.075-16.644-11.253-26.413H.082V82.373h17.425c2.54-9.408 6.17-18.091 11.253-26.413L16.418 43.658 43.28 16.883l11.98 11.94c7.622-5.065 16.698-9.045 26.5-11.216V.602h37.753v17.367c9.438 2.533 18.15 6.15 26.5 11.216l12.342-12.302 26.863 26.775-11.979 11.94z" fill="#fff"/><path d="M56.35 101.181c0-24.242 19.965-44.142 44.287-44.142s44.287 19.538 44.287 44.142h-9.075c0-19.177-15.972-35.096-35.212-35.096-19.24 0-35.213 15.92-35.213 35.096 0 19.176 15.973 35.096 35.213 35.096h1.815l-5.808 8.684c-23.596-2.895-40.295-20.986-40.295-43.78z" fill="#fff"/><path d="m125.685 124.695-41.02 61.509h36.3l41.021-61.509h-36.301zm-23.959 52.464 29.041-43.78h14.883l-29.041 43.78h-14.883zM172.15 124.695l-41.02 61.509h36.301l41.021-61.509H172.15zm-24.321 52.464 29.041-43.78h14.883l-29.041 43.78h-14.883zM218.253 124.695l-41.02 61.509h36.301l41.021-61.509h-36.302zm-23.959 52.464 29.041-43.78h14.884l-29.041 43.78h-14.884z" fill="#FE8836"/></svg>