<?xml version="1.0" encoding="utf-8"?>
<!-- Generator: Adobe Illustrator 23.0.5, SVG Export Plug-In . SVG Version: 6.00 Build 0)  -->
<svg version="1.1" id="Слой_1" xmlns="http://www.w3.org/2000/svg" xmlns:xlink="http://www.w3.org/1999/xlink" x="0px" y="0px"
	 width="83.4px" height="83.8px" viewBox="0 0 83.4 83.8" style="enable-background:new 0 0 83.4 83.8;" xml:space="preserve">
<style type="text/css">
	.st0{fill:#FFFFFF;}
	.st1{fill-rule:evenodd;clip-rule:evenodd;fill:#FFFFFF;}
</style>
<path class="st0" d="M40,4.6c-0.1-0.8-0.4-1.3-1.3-1.2C38,3.5,37.5,4,37.6,4.7c0.1,1,0.8,1.1,1.6,1.3c0.9,0.2,1.9,0.5,2,1.9
	c0.1,1.7-1.1,2.2-2.1,2.4c-1.7,0.1-2.3-0.7-2.4-2.2L37.7,8c0.1,0.8,0.2,1.7,1.5,1.6c0.7-0.1,1.2-0.6,1.1-1.4c-0.1-1-0.8-1.1-1.6-1.4
	c-0.9-0.2-1.9-0.5-2-1.9c-0.1-0.7,0.1-2.1,2-2.2c1.4-0.1,2,0.5,2.2,1.9L40,4.6z"/>
<path class="st1" d="M33.8,3.6l-1.2,0.3l-0.4,7.5l0.9-0.2L33.2,9l2.3-0.5l1,1.8l0.9-0.2L33.8,3.6z M35.1,7.9l-1.9,0.5l0.2-3.7h0.1
	L35.1,7.9z"/>
<path class="st0" d="M27,5.6l3.5-1.3l0.3,0.8l-2.6,1L29,8.2l2.5-1L31.8,8l-2.5,1l1.2,3.2l-0.8,0.3L27,5.6z"/>
<path class="st0" d="M20.4,9.8c0.7-0.5,1.3-0.2,1.7,0.4l0.7-0.5C22,8.6,21.1,8.3,20,9.1c-1.5,1-1,2.3-0.6,2.8
	c0.8,1.1,1.8,0.9,2.7,0.6c0.8-0.2,1.6-0.4,2.1,0.4c0.5,0.7,0.3,1.4-0.3,1.8c-1.1,0.8-1.6,0.1-2.1-0.6L21,14.7
	c0.9,1.3,1.8,1.7,3.2,0.8c0.8-0.6,1.6-1.7,0.7-3.1c-0.8-1.1-1.8-0.8-2.7-0.6c-0.8,0.2-1.6,0.5-2.1-0.3C19.7,10.8,19.8,10.2,20.4,9.8
	z"/>
<path class="st0" d="M16.6,11.9l0.7-0.6l0.6,0.7c0.5,0.6,0.9,1.1,0.4,1.9L18,13.6c0.2-0.4,0.1-0.6-0.2-0.9l-0.2-0.2l-0.2,0.3
	L16.6,11.9z"/>
<path class="st1" d="M11.6,41.9c0,16.7,13.5,30.3,30.1,30.3c16.6,0,30.1-13.6,30.1-30.3S58.3,11.6,41.7,11.6
	C25.1,11.6,11.6,25.2,11.6,41.9z M12.6,41.9c0-16.1,13.1-29.3,29.1-29.3c16,0,29.1,13.1,29.1,29.3S57.7,71.2,41.7,71.2
	C25.7,71.2,12.6,58,12.6,41.9z"/>
<path class="st1" d="M2.8,42.8L2.8,44l7.3,1.7l-0.1-1l-2-0.4L7.9,42l2-0.7l-0.1-0.9L2.8,42.8z M7.2,42.2l0.1,1.9l-3.5-0.8v-0.1
	L7.2,42.2z"/>
<path class="st0" d="M2.8,39.4l0.2-1.5l5.9-0.8V37L3.3,35l0.2-1.5l7.2,0.9l-0.1,0.9l-6.3-0.8v0.1l6.1,2.4l-0.1,0.9l-6.4,0.8v0.1
	l6.2,0.8l-0.1,0.9L2.8,39.4z"/>
<path class="st0" d="M5.3,27.7l-1.2,3.6l6.9,2.3l1.2-3.7l-0.8-0.2l-1,2.8L8,31.7l0.8-2.6l-0.8-0.2l-0.8,2.6l-2.2-0.7L6,28L5.3,27.7z
	"/>
<path class="st1" d="M5.9,26.5l1-2.1c0.5-1,1.4-1.4,2.5-0.9c0.7,0.4,1.4,1,1.2,1.8h0.1c0.4-0.5,1-0.7,1.6-0.4l1,0.4
	c0.8,0.3,1,0.3,1.2,0.1l-0.5,1c-0.2,0.1-0.7-0.1-1.1-0.2l-1.1-0.4c-1-0.4-1.2,0.1-1.4,0.5l-0.5,1.1l2.9,1.4l-0.3,0.8L5.9,26.5z
	 M9.2,27.1l0.4-0.8v-0.1c0.2-0.5,0.6-1.3-0.7-1.9C8.2,24,7.6,24.2,7.3,25l-0.5,1L9.2,27.1z"/>
<path class="st0" d="M8.9,20.7l-0.5,0.8l6.1,3.8l0.5-0.8L8.9,20.7z"/>
<path class="st0" d="M16.1,19c1,0.9,1.7,2.1,0.8,3.4C15.6,24,13.9,23,12.5,22c-1.4-1.1-2.8-2.6-1.6-4.2c0.9-1.2,1.9-1.2,3.1-0.4
	l-0.6,0.8c-0.7-0.5-1.4-0.7-1.9,0.1c-0.8,1,0.2,1.9,1.6,3s2.5,1.7,3.2,0.7c0.7-0.9-0.1-1.6-0.7-2.2L16.1,19z"/>
<path class="st1" d="M15,13.4l-0.8,0.8l3.7,6.6l0.7-0.7l-1.1-1.8l1.6-1.7l1.8,1l0.7-0.7L15,13.4z M18.4,16.3L17,17.7l-1.8-3.2
	L18.4,16.3z"/>
<path class="st0" d="M43.2,10.1l0.9,0.1l0.3-6.5l1.8,0.1L46.3,3l-4.5-0.2l-0.1,0.8l1.8,0.1L43.2,10.1z"/>
<path class="st0" d="M47.6,3.1l3.7,0.7L51,4.6l-2.8-0.5l-0.5,2.2l2.6,0.5l-0.2,0.8l-2.6-0.5l-0.4,2.5l2.9,0.6L50,11l-3.8-0.8
	L47.6,3.1z"/>
<path class="st0" d="M54.2,5.4C55,5.7,55.1,6.3,54.8,7l0.8,0.3c0.4-1.3,0-2.2-1.3-2.6c-1.7-0.6-2.4,0.6-2.6,1.3
	c-0.4,1.3,0.4,1.9,1.1,2.5c0.7,0.5,1.3,1,1,1.9c-0.2,0.7-1,1-1.6,0.8c-1.3-0.4-1-1.3-0.8-2.1l-0.8-0.3c-0.5,1.5-0.3,2.5,1.3,3
	c1,0.4,2.3,0.3,2.8-1.3c0.4-1.3-0.4-2-1.1-2.5c-0.7-0.5-1.3-1-1-1.9C52.9,5.4,53.4,5.2,54.2,5.4z"/>
<path class="st0" d="M56.6,13.8l-0.8-0.4l2.9-5.8L57,6.8L57.3,6l4.1,2.1L61,8.8L59.4,8L56.6,13.8z"/>
<path class="st0" d="M61.5,12.9l-2.1-1.3L59,12.2l2.1,1.3L61.5,12.9z"/>
<path class="st0" d="M66.3,14.1c0.5-0.7,0.7-1.3-0.1-1.9c-1-0.8-1.9,0.2-3,1.5c-1.1,1.3-1.8,2.5-0.8,3.3c1,0.8,2-0.4,2.6-1.1
	L63.8,15l0.5-0.6l1.7,1.4l-2.3,3l-0.5-0.4l0.6-0.8c-0.5,0.4-1.3,0.4-1.9-0.1c-1.5-1.2-0.6-2.8,0.7-4.3c1.1-1.4,2.6-2.7,4.1-1.5
	c1.6,1.3,0.6,2.7,0.4,3v0.1L66.3,14.1z"/>
<path class="st1" d="M71.1,16.3l-1.6-1.7l-5.4,4.8l0.6,0.7l2.4-2.2l0.8,0.9c0.4,0.4,0.7,0.8-0.1,1.5l-0.8,0.8
	c-0.3,0.2-0.7,0.7-0.7,0.9l0.7,0.8c0-0.3,0.1-0.5,0.6-1.1l0.9-0.9c0.4-0.5,0.6-1.1,0.2-1.6H69c0.7,0.5,1.5,0.1,2.1-0.4
	C71.8,18.1,71.9,17.1,71.1,16.3z M68.3,18l-0.6-0.7l1.9-1.7l0.7,0.8c0.5,0.7,0.5,1.3,0,1.7C69.3,19.1,68.7,18.5,68.3,18z"/>
<path class="st1" d="M72.8,24.9c-1.6,1-3.3,1.8-4.4,0.1c-1.1-1.7,0.4-3,1.9-4c1.6-1,3.3-1.8,4.4-0.1C75.8,22.5,74.4,23.8,72.8,24.9z
	 M70.8,21.7c-1.4,0.9-2.5,1.8-1.8,2.8c0.7,1,1.9,0.4,3.3-0.5c1.4-0.9,2.5-1.8,1.8-2.8C73.4,20.1,72.1,20.7,70.8,21.7z"/>
<path class="st0" d="M77,25.2l-0.4-0.8l-6.2,4l0.4,1l5.8-1.2v0.1l-5,3.1l0.4,1l7.3-1.3L79,30.2l-5.9,1.2v-0.1l5.1-3.2l-0.4-1
	l-5.9,1.3v-0.1L77,25.2z"/>
<path class="st0" d="M79.4,32.1l0.2,0.9l-7,1.9L72.4,34L79.4,32.1z"/>
<path class="st0" d="M80.1,35.5l-0.2-1.1l-7.1,1.1l0.2,0.9l5.8-0.9v0.1l-5.4,3.2l0.2,1.2l7.1-1.1l-0.1-0.9l-5.9,1v-0.1L80.1,35.5z"
	/>
<path class="st0" d="M78.6,44.2c0.8-0.1,1.4-0.3,1.4-1.2c0.1-1.3-1.3-1.4-3-1.5c-1.7-0.1-3.1,0.1-3.1,1.3c-0.1,1.3,1.4,1.4,2.4,1.4
	l0.1-1.4l0.7,0.1l-0.1,2.2l-3.8-0.1v-0.7l1,0.1v-0.1c-0.6-0.2-1.1-0.8-1.1-1.6c0.1-1.9,1.9-2.2,3.8-2.2c1.9,0.1,3.7,0.4,3.7,2.4
	C80.7,45,79,45,78.6,45L78.6,44.2z"/>
<path class="st0" d="M9.4,51.1c0.3,1-0.4,2-1.3,2.2c-1,0.3-2-0.4-2.2-1.3c-0.3-1,0.4-2,1.3-2.2C8.1,49.6,9.1,50.2,9.4,51.1z"/>
<path class="st1" d="M14.1,57.8l-0.9-1.6l-6.4,3.6l0.5,0.8L10,59l0.5,1c0.6,1.1,1.7,1.4,2.9,0.8C15.2,59.7,14.4,58.3,14.1,57.8z
	 M11.2,59.6l-0.5-1l2.3-1.3l0.5,0.9c0.5,0.8,0.2,1.4-0.5,1.7C12.1,60.4,11.5,60.2,11.2,59.6z"/>
<path class="st1" d="M15.4,60l1.4,1.9c0.7,0.9,0.6,1.9-0.3,2.6c-0.7,0.5-1.4,0.8-2.2,0.2c0.4,0.5,0.2,1.1-0.4,1.6l-1,0.8
	c-0.6,0.5-0.7,0.8-0.7,1l-0.7-0.8c0.1-0.2,0.4-0.6,0.7-0.8l0.8-0.8c0.8-0.7,0.5-1.1,0.2-1.5l-0.8-1l-2.5,1.9l-0.5-0.7L15.4,60z
	 M13.4,62.7l0.5,0.7c0.4,0.4,0.9,1.1,2,0.3c0.6-0.4,0.7-1.1,0.1-1.7l-0.7-0.8L13.4,62.7z"/>
<path class="st0" d="M19,64.3l-0.6-0.7l-5.2,5l0.6,0.7L19,64.3z"/>
<path class="st0" d="M19.3,64.7l0.7,0.6l-3,5.6h0.1l5.2-3.8l0.7,0.6l-6.2,4.3L16,71.3L19.3,64.7z"/>
<path class="st1" d="M24.9,69.1l-1-0.7l-5.8,4.9l0.8,0.5l1.6-1.4l1.9,1.3l-0.7,1.9l0.8,0.5L24.9,69.1z M22.6,73L21,71.9l2.8-2.4h0.1
	L22.6,73z"/>
<path class="st0" d="M24.7,77.3l-0.8-0.4l2.9-5.7l-1.6-0.8l0.4-0.7l4,2.1l-0.4,0.7l-1.6-0.8L24.7,77.3z"/>
<path class="st0" d="M33.4,72.9l-3.5-1.3l-2.4,6.9l3.7,1.3l0.3-0.8l-2.8-1l0.8-2.5l2.5,0.9l0.3-0.8l-2.5-0.9l0.8-2.2l2.7,1
	L33.4,72.9z"/>
<path class="st0" d="M41.3,78.8c-0.2,1.4-0.8,2.6-2.5,2.4c-2-0.2-2.2-2.2-2-4c0.2-1.8,0.7-3.7,2.6-3.6c1.5,0.1,2,1,1.9,2.5l-1-0.1
	c0.1-0.8-0.2-1.6-1.1-1.6c-1.3-0.1-1.5,1.3-1.7,2.9c-0.2,1.7-0.1,3.1,1.1,3.1c1.1,0.1,1.3-0.9,1.4-1.8L41.3,78.8z"/>
<path class="st1" d="M44.7,81.2c2-0.1,2.2-2.1,2.1-3.9c-0.1-1.9-0.6-3.7-2.6-3.6c-2,0.1-2.2,2.1-2.1,3.9
	C42.2,79.4,42.7,81.3,44.7,81.2z M44.6,80.5c-1.3,0.1-1.5-1.3-1.6-3c-0.1-1.7,0-3.1,1.2-3.1c1.3-0.1,1.5,1.3,1.6,3
	C45.9,79,45.8,80.4,44.6,80.5z"/>
<path class="st0" d="M46.8,73.5l1.4-0.4l2.8,5.2h0.1l0.1-5.9l1.4-0.4l1.7,7.1l-0.9,0.2l-1.5-6.2h-0.1l-0.1,6.5L50.8,80l-3.1-5.8
	h-0.1l1.5,6.2l-0.9,0.2L46.8,73.5z"/>
<path class="st1" d="M55,70.9l-1.7,0.8l2.9,6.6L57,78l-1.3-2.8l1-0.5c1.1-0.5,1.6-1.6,1.1-2.8C57,70,55.7,70.7,55,70.9z M56.5,74.1
	l-1,0.4L54.4,72l1-0.4c0.8-0.4,1.4,0,1.7,0.7C57.4,73.2,57.1,73.8,56.5,74.1z"/>
<path class="st1" d="M58.2,69.2l1-0.7l5.5,5.1L64,74.2l-1.5-1.4l-2,1.3l0.6,2l-0.8,0.5L58.2,69.2z M60.3,73.3l1.7-1l-2.6-2.5h-0.1
	L60.3,73.3z"/>
<path class="st0" d="M61.8,66.7l-0.9,0.8l4.7,5.5l0.7-0.6l-3.8-4.5l5.6,3l1-0.8l-4.7-5.5l-0.7,0.6l4,4.6h-0.1L61.8,66.7z"/>
<path class="st0" d="M64.6,64l0.6-0.7l5.2,5L69.9,69L64.6,64z"/>
<path class="st0" d="M68,60l-2.3,3l5.7,4.5l2.4-3.1l-0.7-0.5l-1.9,2.4l-2-1.6l1.7-2.1l-0.7-0.5l-1.7,2.1l-1.8-1.4l1.8-2.2L68,60z"/>
<path class="st0" d="M71.4,57.8c-0.7-0.4-1.3-0.4-1.7,0.4c-0.4,0.7-0.2,1.3,0.4,1.6c0.8,0.5,1.4-0.1,2-0.6c0.7-0.7,1.4-1.3,2.6-0.6
	c1.4,0.8,1.3,2.2,0.7,3c-0.8,1.5-1.9,1.4-3.2,0.7l0.5-0.8c0.7,0.4,1.5,0.8,2.2-0.4c0.4-0.6,0.2-1.4-0.5-1.7c-0.8-0.5-1.4,0.1-2,0.6
	c-0.7,0.7-1.5,1.3-2.7,0.6c-0.6-0.4-1.6-1.3-0.7-2.8c0.7-1.2,1.6-1.4,2.8-0.8L71.4,57.8z"/>
<path class="st0" d="M76.2,49.9c-1-0.3-2,0.3-2.2,1.3c-0.3,1,0.3,2,1.3,2.2c1,0.3,2-0.3,2.2-1.3C77.7,51.2,77.2,50.2,76.2,49.9z"/>
<path class="st1" d="M0,41.9C0,65,18.7,83.8,41.7,83.8c23,0,41.7-18.8,41.7-41.9C83.4,18.8,64.6,0,41.7,0C18.7,0,0,18.8,0,41.9z
	 M1,41.9C1,19.4,19.3,1,41.7,1c22.4,0,40.7,18.3,40.7,40.9c0,22.6-18.2,40.9-40.7,40.9C19.3,82.8,1,64.5,1,41.9z"/>
<path class="st0" d="M48.9,43.5c-1.2-2-3.3-3.4-6.6-3.4c-2.7-0.1-4.8,0.9-6.2,2.4l-0.2,2.1h-1.2c-0.4,0.9-0.8,1.9-1,2.9
	c1.9,1.2,3.2,3.2,3.2,5.6c0,1.6-0.5,3.2-1.5,4.4c1.5,2,3.7,3,6.4,3c3.3,0,5.5-1.4,6.9-3.4c-1.1-1.6-1.7-3.8-1.7-6.5
	C47,47.9,47.6,45.4,48.9,43.5z M42,56.5c-1.2,0-2.1-1-2.5-2.4c-0.2-1-0.2-2.1-0.2-3.2c0-1.9,0.1-4.5,0.9-5.7
	c0.5-0.9,1.4-1.2,2.1-1.2c1.4,0,2.1,1.1,2.3,2.3c0.3,1.2,0.4,3.4,0.4,4.3C44.8,53.2,44.4,56.5,42,56.5z"/>
<path class="st0" d="M55.9,40.1c-3.2-0.1-5.5,1.2-7,3.4c1.2,2,1.7,4.5,1.7,6.5c0,2.4-0.6,5.1-2,7c1.5,2.3,3.9,3.5,6.7,3.5
	c6.5,0,8.8-5.6,8.8-10.5C64.2,46,62.6,40.2,55.9,40.1z M55.6,56.5c-1.2,0-2.1-1-2.5-2.4c-0.2-1-0.2-2.1-0.2-3.2
	c0-1.9,0.1-4.5,0.9-5.7c0.5-0.9,1.4-1.2,2.1-1.2c1.4,0,2.1,1.1,2.3,2.3c0.3,1.2,0.4,3.4,0.4,4.3C58.4,53.3,57.9,56.5,55.6,56.5z"/>
<path class="st0" d="M48.9,43.5c-1.3,1.9-1.9,4.4-1.9,7.1c0,2.6,0.6,4.8,1.7,6.5c1.4-2.1,2-4.6,2-7C50.6,47.9,50.2,45.5,48.9,43.5z"
	/>
<path class="st0" d="M33.7,47.5c-1.2-0.7-2.6-1-4.3-1c-1,0-2.3,0.2-3.2,0.5c-0.2,0.1-0.4,0.2-0.6,0.3l0.3-2.8l8.7,0
	c0.4-0.8,0.9-1.5,1.4-2.1l0.2-2H21.8l-1.1,10.6l4.8,0.6c0.4-0.5,0.8-1.2,2.4-1.2c2.1,0,3,1.2,3,3.1c0,1.5-0.8,3.1-2.9,3.1
	c-1.2,0-2.1-0.5-2.4-1.7c-0.1-0.4-0.1-1-0.1-1.4l-5.8,0.6c0.3,1.5,0.6,2.9,1.8,4.2c2.2,2.3,5.5,2.3,6.5,2.3c1.7,0,4.7-0.1,6.8-2.3
	c0.2-0.2,0.4-0.4,0.6-0.7c-1.2-1.7-2-4-2-6.9C33.4,49.5,33.5,48.5,33.7,47.5z"/>
<path class="st0" d="M35.8,44.6l0.2-2.1c-0.6,0.6-1,1.3-1.4,2.1H35.8z"/>
<path class="st0" d="M33.7,47.5c-0.2,1-0.3,2-0.3,3c0,2.9,0.7,5.2,2,6.9c1-1.2,1.5-2.9,1.5-4.4C36.9,50.6,35.6,48.6,33.7,47.5z"/>
<path class="st0" d="M19.6,39v-3.3h2v-8.3h-2v-3.5h10.6v3.5h-2v8.3h2V39H19.6z"/>
<path class="st0" d="M39.7,35.7h1.5v-3.4c0-1-0.7-1.5-1.7-1.5c-1.2,0-2.1,0.9-2.1,2.1v2.9H39V39h-8.3v-3.3h1.5v-5h-1.5v-3.3h6.5v2.3
	c0.1-0.1,0.2-0.2,0.3-0.3c1.2-1.4,2.6-1.8,4.3-1.8c2.5,0,4.5,1,4.5,3.8v4.4h1.3v3.3h-8V35.7z"/>
<path class="st0" d="M60.9,32.3l-4.5,0.5c-0.1-1.2-0.3-2.6-1.8-2.6c-1.9,0-2.1,1.6-2.1,3.2c0,1.5,0.1,3.2,2.1,3.2
	c1,0,1.9-0.6,1.9-1.8h4.4v0.4c-0.7,3.6-4,4.2-6.3,4.2c-3.7,0-7.3-1.8-7.3-5.9c0-4.1,3.6-5.9,7.3-5.9C54.6,27.5,60.4,27.1,60.9,32.3z
	"/>
<path class="st0" d="M64.3,37.2c0,1-0.8,1.9-1.9,1.9c-1,0-1.9-0.8-1.9-1.9c0-1,0.8-1.9,1.9-1.9C63.5,35.3,64.3,36.1,64.3,37.2z"/>
</svg>
