<svg width="110" height="63" fill="none" xmlns="http://www.w3.org/2000/svg"><path d="m74.918 18.946-11.066 16.71-3.506 5.283-2.646 3.98-2.062 3.123-2.062-3.123-9.28-13.999L47.15 29l8.489 12.832 4.708-7.102 3.506-5.284 8.214-12.386 2.852 1.887z" fill="#FE8836"/><path d="M21.94 19.858a7.94 7.94 0 0 0-4.64 1.475 8.137 8.137 0 0 0-3.403 7.514c.181 1.52.66 2.989 1.41 4.324l.584 1.029-1.169.343a9.91 9.91 0 0 0-1.546.652 8.253 8.253 0 0 0-4.159 7.137v6.862h25.844v-6.862a8.197 8.197 0 0 0-4.192-7.137c-.48-.295-1.001-.515-1.547-.652l-1.169-.309.585-1.063a11.214 11.214 0 0 0 1.478-5.25 8.212 8.212 0 0 0-4.296-7.102 8.138 8.138 0 0 0-3.78-.961zm-5.534 14.41h-.034l-.069-.137.103.138zm11.17.24.171.07-.171-.035v-.034zm1.202 4.015a4.33 4.33 0 0 1 2.2 3.809v3.02H12.832v-3.02a4.439 4.439 0 0 1 2.234-3.775 5.155 5.155 0 0 1 2.612-.583c.756 0 2.302-.034 4.261-.034h3.815l.447.034a5.396 5.396 0 0 1 2.577.55zm-5.086-5.25a2.81 2.81 0 0 1-1.89.79 3.53 3.53 0 0 1-1.994-1.133 7.457 7.457 0 0 1-2.096-5.524 4.367 4.367 0 0 1 3.609-3.637c.246-.067.5-.102.756-.102.9.025 1.764.365 2.44.96a4.298 4.298 0 0 1 1.65 3.294 7.406 7.406 0 0 1-2.475 5.353zM0 0v62.275h82V0H0zm78.563 7.96H32.236l-.309.446-1.993 2.882h48.63V58.81H3.436V3.431h75.126v4.53zm-66.019 3.328h-4.33l2.268-3.293h4.33l-2.268 3.293zm1.959 0 2.234-3.293H21.1l-2.268 3.293h-4.33zm6.255 0 2.268-3.293h4.33l-2.234 3.293h-4.364z" fill="#fff"/></svg>