<svg width="110" height="87" fill="none" xmlns="http://www.w3.org/2000/svg"><path d="m70.875 23.91-3.225 2.418a35.356 35.356 0 1 1-26.003-14.03c1.638.114 3.267.329 4.878.645l.806-4.031a34.753 34.753 0 0 0-5.402-.686 39.39 39.39 0 0 0-5.08 78.615h2.62a39.43 39.43 0 0 0 31.406-62.932z" fill="#fff"/><path d="M12.617 45.678A26.89 26.89 0 0 0 37.49 74.383h1.935a26.568 26.568 0 0 0 17.537-6.531 26.85 26.85 0 0 0 1.532-39.146l-2.862 2.822a22.818 22.818 0 1 1-14.635-6.733c1.964.144 3.901.537 5.766 1.17l1.29-4.032a27.291 27.291 0 0 0-6.733-1.33 26.892 26.892 0 0 0-28.704 25.075z" fill="#fff"/><path d="M41.165 58.58a11.128 11.128 0 1 1-3.548-21.972 10.278 10.278 0 0 1 3.145 0l.484-4.032a16.847 16.847 0 0 0-4.274 0 15.158 15.158 0 0 0 2.42 30.115c.804.061 1.613.061 2.418 0a15.199 15.199 0 0 0 9.877-6.248 14.957 14.957 0 0 0 2.661-11.288 15.158 15.158 0 0 0-1.935-5.201l-3.508 2.056a9.997 9.997 0 0 1 1.371 3.79 11.087 11.087 0 0 1-9.192 12.78h.08z" fill="#fff"/><path d="m66.767 22.294 7.78-13.707-9.433-1.33L59.793 0l-9.031 12.095 2.66 9.836L39.394 43.34a4.031 4.031 0 0 0-3.628 1.935 4.313 4.313 0 1 0 7.257 4.636 4.031 4.031 0 0 0 0-4.394l13.787-21.327 9.958-1.895zm-2.58-3.668-4.394.766 5.24-8.063 3.064.443-3.91 6.854zM59.712 6.773l1.774 2.379-5.04 8.063-1.169-4.354 4.435-6.088z" fill="#FE8836"/></svg>