<svg width="78" height="70" fill="none" xmlns="http://www.w3.org/2000/svg"><path d="M47.715 46.363h-2.489v20.965h2.49V46.363zM55.625 46.363h-2.489v20.965h2.49V46.363zM63.508 46.363h-2.49v20.965h2.49V46.363zM71.418 46.363h-2.49v20.965h2.49V46.363z" fill="#1C3C70"/><path d="M75.124 66.422H41.548v2.473h33.576v-2.473zM58.28 35.016 38.977 45.072v3.572h38.72v-3.572L58.282 35.016zM42.268 46.144 58.28 37.79l16.097 8.353H42.267zM2.19 39.688l-1.659 2.5h30.811l1.715-2.5H2.19zM3.546 10.508v8.408h2.517v-6.732l-2.517-1.676zM15.383 16.855h-2.489v5.77h2.49v-5.77z" fill="#1C3C70"/><path d="M3.546 22.078v20.086h26.44V22.078H3.547zm2.517 17.613V24.578h21.435v15.113H6.063z" fill="#1C3C70"/><path d="M3.546 14.934v9.644h21.186v-9.644H3.546zm2.517 7.144v-4.671h16.18v4.67H6.063zM8.441 28.48v7.172h7.108V28.48H8.442zm2.24 4.946v-2.72h2.628v2.72h-2.627zM17.734 28.48v7.172h7.108V28.48h-7.108zm2.24 4.946v-2.72h2.628v2.72h-2.627z" fill="#1C3C70"/><path d="M56.926 31.75c-1.272-6.1-4.867-11.349-10.095-14.783-5.255-3.435-11.533-4.616-17.673-3.352l-.443-2.17c6.721-1.375 13.608-.083 19.36 3.681 5.754 3.764 9.681 9.507 11.064 16.184l-2.213.44z" fill="#005EAB"/><path d="m34.053 6.91-8.712 5.11 8.712 4.754V6.91zM31.315 65.406c-11.948 0-22.68-8.326-25.196-20.388l2.185-.44c1.272 6.1 4.868 11.348 10.095 14.783 5.255 3.434 11.533 4.616 17.673 3.352l.443 2.17a25.878 25.878 0 0 1-5.2.523z" fill="#005EAB"/><path d="m31.177 69.363 8.712-5.083-8.712-4.753v9.836zM3.547 5.48l2.517 1.73v3.298L3.547 8.804V5.48zM3.547.727 6.064 2.43v3.325L3.547 4.024V.727z" fill="#005EAB"/></svg>