<svg width="89" height="68" fill="none" xmlns="http://www.w3.org/2000/svg"><g clip-path="url(#a)"><path d="M50.498 61.529h-3.19l-3.555-5.44h3.19l3.555 5.44Z" fill="#005EAB"/><path d="M47.46 61.527h3.19l6.898-10.422h-3.19L47.46 61.528Z" fill="#005EAB"/><path d="M42.325 44.664 26.859 68h30.992l15.466-23.335H42.325Zm13.764 20.327H32.45l11.485-17.35h23.639l-11.485 17.35Z" fill="#005EAB"/><path d="M63.715 28.256a28.622 28.622 0 0 0-3.828-9.115l4.041-4.041.183-.183-8.903-8.872-.426-.425-4.223 4.193a30.14 30.14 0 0 0-9.115-3.829V.09H28.287v5.894a29.32 29.32 0 0 0-9.115 3.829l-4.041-4.041h-.152l-8.903 8.872-.425.425 4.223 4.224a28.561 28.561 0 0 0-3.828 9.115H.12v13.035h5.894a27.953 27.953 0 0 0 3.829 9.115L5.803 54.6H5.62l8.902 8.903.426.425 4.193-4.223a48.62 48.62 0 0 0 8.021 3.524l1.701-2.582a63.563 63.563 0 0 1-9.115-4.224l-1.094-.79-3.767 3.798-4.8-4.83 3.767-3.768-.79-1.094a24.55 24.55 0 0 1-4.315-10.27V38.16H3.16v-6.867h5.286l.487-1.245a27.042 27.042 0 0 1 4.314-10.33l.76-1.095-3.768-3.767 4.8-4.832 3.769 3.798 1.093-.79a24.854 24.854 0 0 1 10.3-4.314h1.307V3.28h6.836V8.69h1.277a27.042 27.042 0 0 1 10.33 4.314l1.094.79 3.768-3.798 4.8 4.831-3.767 3.768.79 1.094a24.521 24.521 0 0 1 4.284 10.27l.182 1.306h5.409v9.784h3.038V28.134l-5.834.122Z" fill="#1C3C70"/><path d="M34.699 19.508a15.207 15.207 0 1 0-1.398 30.384l2.005-3.038H34.7A12.154 12.154 0 1 1 46.853 34.7h3.038A15.192 15.192 0 0 0 34.7 19.508Z" fill="#1C3C70"/></g><defs><clipPath id="a"><path fill="#fff" d="M0 0h73.165v68H0z"/></clipPath></defs></svg>