<svg width="89" height="68" fill="none" xmlns="http://www.w3.org/2000/svg"><g clip-path="url(#a)"><path d="m13.689 7.285-2.082 3.154H7.602l2.113-3.154h3.974Z" fill="#1C3C70"/><path d="M19.491 7.285 17.41 10.44h-4.006l2.082-3.154h4.005Z" fill="#1C3C70"/><path d="m25.294 7.285-2.081 3.154h-4.037l2.113-3.154h4.005Z" fill="#1C3C70"/><path d="M36.145 57.687V54.5H3.185V3.186H72.51V7.38H29.774l-.316.41-1.83 2.681H72.51V30.5h3.186V0H0v57.718" fill="#1C3C70"/><path fill-rule="evenodd" clip-rule="evenodd" d="M39.33 33.652H75.76V58.38h-4.227v9.636l-7.717-10.078H39.33V33.652Zm3.154 3.154v17.978h22.888l3.006 3.926v-3.484h4.227v-18.42h-30.12Z" fill="#005EAB"/><path d="m37.753 18.734-1.861 2.807H6.308v-2.807h31.445Z" fill="#1C3C70"/><path d="m32.202 27.125-1.83 2.776H6.309v-2.776h25.894Z" fill="#1C3C70"/><path d="m26.84 35.23-1.86 2.808H6.307V35.23H26.84Z" fill="#1C3C70"/></g><defs><clipPath id="a"><path fill="#fff" d="M0 0h75.759v68H0z"/></clipPath></defs></svg>