<svg width="89" height="68" fill="none" xmlns="http://www.w3.org/2000/svg"><g clip-path="url(#a)"><path d="m60.696 58.204 2.14-3.267H76v3.267H60.696Z" fill="#005EAB"/><path d="m54.276 68 2.14-3.266H76v3.267H54.276Z" fill="#005EAB"/><path d="M3.08 58.626v-3.56a5.025 5.025 0 0 1 .678-2.45 4.98 4.98 0 0 1 1.787-1.796 5.607 5.607 0 0 1 2.756-.588h8.592a7.23 7.23 0 0 1 1.491 0 13.365 13.365 0 0 1 1.848-2.646 7.834 7.834 0 0 0-1.394-.392l-.908-.196.519-.75a11.258 11.258 0 0 0 1.88-5.912 7.916 7.916 0 0 0-1.105-4.01 7.84 7.84 0 0 0-2.98-2.882 7.702 7.702 0 0 0-7.948.443 7.79 7.79 0 0 0-2.68 3.163 7.857 7.857 0 0 0-.688 4.102c.221 1.824.866 3.57 1.881 5.095l.486.784H6.42a6.872 6.872 0 0 0-2.4.85 7.94 7.94 0 0 0-2.93 2.9A8.014 8.014 0 0 0 0 54.772v6.533h16.73v-3.103l-13.65.425Zm8.82-22.863a4.312 4.312 0 0 1 3.566.98c.544.442.985.999 1.293 1.63.308.632.476 1.324.49 2.028a8.15 8.15 0 0 1-.733 3.143 8.096 8.096 0 0 1-1.893 2.605 3.228 3.228 0 0 1-2.172.85 3.69 3.69 0 0 1-2.27-1.242 8.043 8.043 0 0 1-1.71-2.743 8.088 8.088 0 0 1-.495-3.2c.18-.976.652-1.872 1.354-2.567a4.786 4.786 0 0 1 2.57-1.32v-.164Z" fill="#1C3C70"/><path d="M52.071 64.569H19.907v-7.643a10.774 10.774 0 0 1 1.136-4.507 11.135 11.135 0 0 1 1.783-2.646c.675-.686 1.439-1.28 2.27-1.764a11.86 11.86 0 0 1 5.641-1.273H46.56c2.011-.089 4.01.35 5.803 1.273a10.87 10.87 0 0 1 2.27 1.764c.728.79 1.339 1.68 1.815 2.646.55 1.16.89 2.41 1.006 3.69l2.56-3.854a16.074 16.074 0 0 0-.777-1.698 14.195 14.195 0 0 0-5.188-5.422 14.262 14.262 0 0 0-4.053-1.404l-3.242-.686 1.913-2.907a19.697 19.697 0 0 0 3.242-10.386 13.562 13.562 0 0 0-1.902-6.818 13.433 13.433 0 0 0-5.069-4.907 13.117 13.117 0 0 0-13.496.748 13.267 13.267 0 0 0-4.566 5.358 13.38 13.38 0 0 0-1.197 6.958 20.179 20.179 0 0 0 3.242 8.95l1.913 2.939-3.437.653a12.52 12.52 0 0 0-4.052 1.404 13.22 13.22 0 0 0-3.243 2.776c-.73.803-1.361 1.691-1.88 2.646A14.292 14.292 0 0 0 16.6 56.99v10.942h33.298l2.172-3.365ZM29.02 28.64a10.155 10.155 0 0 1 2.734-5.704 10.027 10.027 0 0 1 5.566-2.95c.528-.05 1.06-.05 1.588 0a9.49 9.49 0 0 1 5.999 2.188 10.243 10.243 0 0 1 2.727 3.453c.65 1.336 1.002 2.8 1.034 4.287a16.658 16.658 0 0 1-1.49 6.33 16.553 16.553 0 0 1-3.795 5.265 7.105 7.105 0 0 1-4.831 1.927 8.054 8.054 0 0 1-5.09-2.678 16.35 16.35 0 0 1-3.44-5.636 16.44 16.44 0 0 1-.938-6.547l-.064.066Z" fill="#1C3C70"/><path d="M9.468 24.004h3.988c.49-.944 1.03-1.86 1.62-2.744l.844-1.176-4.02-4.05 5.122-5.16 4.021 4.05 1.167-.85a26.42 26.42 0 0 1 10.992-4.637l1.394-.163V3.46h7.295v5.879l1.33.163a29.065 29.065 0 0 1 11.056 4.638l1.167.85 4.02-4.05 5.123 5.16-4.02 4.05.81 1.176a24.19 24.19 0 0 1 1.719 2.743h3.729a30.93 30.93 0 0 0-1.914-3.56l4.313-4.344-9.468-9.57-.454-.457-4.507 4.54a31.168 31.168 0 0 0-9.727-4.148V.227H31.062V6.53a30.49 30.49 0 0 0-9.727 4.148l-4.313-4.377v-.163l-9.5 9.537-.454.49 4.507 4.507a29.123 29.123 0 0 0-2.107 3.332Z" fill="#005EAB"/></g><defs><clipPath id="a"><path fill="#fff" d="M0 0h76v68H0z"/></clipPath></defs></svg>