<svg width="168" height="185" fill="none" xmlns="http://www.w3.org/2000/svg"><g clip-path="url(#a)"><path d="M143.489 152.089a36.596 36.596 0 0 0-17.552-27.381l-.878-.439a32.93 32.93 0 0 0-5.88-2.37h-2.194l-10.092-1.755 4.563-8.776.703-1.404 1.14-1.931a53.529 53.529 0 0 0 6.407-23.695 35.717 35.717 0 0 0-18.781-31.068 34.489 34.489 0 0 0-16.499-4.037 33.613 33.613 0 0 0-19.922 6.231 35.105 35.105 0 0 0-15.095 32.91 50.025 50.025 0 0 0 6.232 19.659l.965 1.58.614 1.053 4.827 8.074-8.776 2.984-1.404.438-1.93.527a43.44 43.44 0 0 0-6.846 2.896 36.247 36.247 0 0 0-17.552 27.469 29.82 29.82 0 0 0 0 3.95v29.136H144.98v-29.224a28.491 28.491 0 0 0-1.492-4.827Zm-85.83-71.7a26.855 26.855 0 0 1 22.204-23.082 23.17 23.17 0 0 1 4.826-.614 25.102 25.102 0 0 1 15.71 6.055 27.393 27.393 0 0 1 7.246 9.175 27.394 27.394 0 0 1 2.758 11.361 43.887 43.887 0 0 1-14.13 30.98 18.163 18.163 0 0 1-13.163 5.266h-.878a23.432 23.432 0 0 1-12.638-7.021A43.276 43.276 0 0 1 57.66 80.213v.175Zm77.23 95.922H33.174V155.95a18.606 18.606 0 0 1 0-3.861A27.293 27.293 0 0 1 46.6 132.167h.439a35.113 35.113 0 0 1 14.832-3.423h43.178a35.118 35.118 0 0 1 15.27 3.423h.439a27.288 27.288 0 0 1 13.779 19.922 18.592 18.592 0 0 1 0 3.861l.351 20.361Z" fill="#fff"/><path d="M167.36 128.482v38.791h-15.183v-8.776h6.407v-24.222l8.776-5.793Z" fill="#fff"/><path d="M15.183 158.496v8.776H0v-32.12l8.776-5.793v29.137h6.407Z" fill="#fff"/><path d="m34.315 0-5.793 8.776H8.776V33.35L0 39.23V0h34.315Z" fill="#fff"/><path d="m114.001 0-5.792 8.776H88.024V27.47h-8.776V8.776h-25.45L59.59 0H114Z" fill="#FE8836"/><path d="M167.36 0v32.647l-8.776 5.792V8.776h-25.1L139.277 0h28.083Z" fill="#fff"/><path d="M167.36 106.804v-50.55l-8.776 5.792v17.64h-18.781v8.776h18.781v24.134l8.776-5.792Z" fill="#FE8836"/><path d="M.175 60.993v50.902l8.776-5.792V88.55H26.68v-8.776H8.951V55.201L.175 60.993Z" fill="#FE8836"/></g><defs><clipPath id="a"><path fill="#fff" d="M0 0h167.36v185H0z"/></clipPath></defs></svg>