<svg width="56" height="45" fill="none" xmlns="http://www.w3.org/2000/svg"><path fill-rule="evenodd" clip-rule="evenodd" d="M39.464 22.06c.502.57.94 1.192 1.307 1.857.196.424.364.861.505 1.307l-1.812 2.591a7.659 7.659 0 0 0-.734-2.591 7.2 7.2 0 0 0-1.26-1.857 6.649 6.649 0 0 0-1.629-1.239 8.208 8.208 0 0 0-4.082-.894H20.454a8.095 8.095 0 0 0-3.967.894 6.993 6.993 0 0 0-1.582 1.239 7.907 7.907 0 0 0-1.284 1.857 7.52 7.52 0 0 0-.803 3.164v5.458h22.77l-1.559 2.293H10.48V32.86H4.426v-3.531H0v-5.527a6.88 6.88 0 0 1 1.766-4.586A7.224 7.224 0 0 1 3.44 17.84a7.268 7.268 0 0 1 2.04-.71l1.216-.23-.665-1.032a9.746 9.746 0 0 1-1.628-4.403A6.719 6.719 0 0 1 7.2 5.275a6.88 6.88 0 0 1 5.091-1.01c.306-.285.627-.553.963-.802a8.002 8.002 0 0 1 6.604-1.17h.16a6.53 6.53 0 0 1 .872-.62 9.356 9.356 0 0 1 9.7-.595 9.516 9.516 0 0 1 4.93 8.209 13.758 13.758 0 0 1-2.293 7.315l-1.353 2.018 2.408.504c1.007.18 1.982.513 2.889.986.857.533 1.63 1.19 2.293 1.95ZM18.207 4.585a3.577 3.577 0 0 0-1.215 0 5.733 5.733 0 0 0-4.77 4.839 9.17 9.17 0 0 0 2.591 6.879 4.426 4.426 0 0 0 2.867 1.513 3.715 3.715 0 0 0 1.995-.573l-.436-.665a14.196 14.196 0 0 1-2.293-6.26 9.357 9.357 0 0 1 1.399-5.733h-.138ZM7.827 7.697a4.586 4.586 0 0 0-1.246 2.53 7.407 7.407 0 0 0 2.018 5.48 3.577 3.577 0 0 0 2.293 1.193 3.003 3.003 0 0 0 1.147-.275l-.207-.298A12.063 12.063 0 0 1 9.86 10.96a8.025 8.025 0 0 1 .895-4.586h-.436c-.949.168-1.82.63-2.491 1.322ZM4.427 26.118a8.462 8.462 0 0 1 1.009-3.852 7.52 7.52 0 0 1 1.123-1.628 8.484 8.484 0 0 1 1.766-1.445H7.177a5.458 5.458 0 0 0-2.59.55 5.548 5.548 0 0 0-1.056.895c-.3.326-.548.697-.733 1.1a4.77 4.77 0 0 0-.505 2.018v3.348h2.133v-.986Zm7.223-2.201c.367-.665.805-1.288 1.307-1.858a9.17 9.17 0 0 1 2.11-1.72H13.07a7.085 7.085 0 0 0-3.21.712 5.506 5.506 0 0 0-1.308 1.031 5.71 5.71 0 0 0-1.032 1.49 5.572 5.572 0 0 0-.642 2.546v4.38h3.6v-1.995a9.609 9.609 0 0 1 1.17-4.586Zm14.4-5.137a5 5 0 0 0 3.371-1.444 11.464 11.464 0 0 0 3.738-8.164 7.202 7.202 0 0 0-2.568-5.228 6.65 6.65 0 0 0-4.22-1.536 6.283 6.283 0 0 0-1.146 0 7.43 7.43 0 0 0-4.586 2.637 6.146 6.146 0 0 0-1.422 3.44 11.465 11.465 0 0 0 2.293 7.337 25.129 25.129 0 0 0 1.422 1.514 5.503 5.503 0 0 0 3.118 1.444Z" fill="#1C3C70"/><path d="m30.315 41.734-1.49 2.293H0v-2.293h30.315Z" fill="#1C3C70"/><path d="m32.337 44.074 1.582-2.385h21.716v2.385H32.337Z" fill="#005EAB"/><path d="M46.464 30.26 44.463 26l-2.016 4.292-4.447.686 3.157 3.34L40.401 39l4.032-2.232L48.57 39l-.786-4.682L51 31.025l-4.447-.686-.089-.078Zm.296 2.95c-.18.149-.32.346-.404.571-.084.226-.108.47-.07.709l.282 1.779-1.394-.765a1.226 1.226 0 0 0-1.274 0l-1.557.858.267-1.56c.06-.225.065-.462.013-.689a1.381 1.381 0 0 0-.31-.606l-1.274-1.311 1.6-.406c.204-.007.403-.072.575-.187.172-.116.311-.277.404-.469l.8-1.7.712 1.56c.073.205.195.386.353.528.158.142.348.24.551.284l1.794.265-1.068 1.14Z" fill="#005EAB"/></svg>