<svg width="204" height="185" fill="none" xmlns="http://www.w3.org/2000/svg"><g clip-path="url(#a)"><path d="m203.589 176.148-5.843 8.763L0 185V5.754L8.675 0v176.325l194.914-.177Z" fill="#fff"/><path d="M184.806 9.57a18.138 18.138 0 0 0-18.058 18.058 17.654 17.654 0 0 0 5.311 12.658l-42.311 63.643a16.408 16.408 0 0 0-5.93-1.062 17.79 17.79 0 0 0-10.534 3.364l-17.792-12.57A17.97 17.97 0 1 0 66.016 98l-23.191 34.61a17.521 17.521 0 0 0-7.082-1.505 17.995 17.995 0 1 0 14.075 6.816l23.368-35.142a17.698 17.698 0 0 0 16.553-2.389l17.88 12.657a16.584 16.584 0 0 0-1.859 7.79 18.014 18.014 0 0 0 36.026 0 17.787 17.787 0 0 0-4.514-11.861l42.488-64.087c1.642.465 3.339.703 5.046.709a18.013 18.013 0 0 0 0-36.027ZM35.743 158.278a9.161 9.161 0 1 1 0-18.323 7.567 7.567 0 0 1 2.036.266 8.79 8.79 0 0 1 6.55 5.842c.363.962.543 1.982.532 3.01a9.18 9.18 0 0 1-9.118 9.205Zm52.49-70.901a8.657 8.657 0 0 1-5.576 6.904 8.47 8.47 0 0 1-3.363.708 3.635 3.635 0 0 1-.974-.089 8.604 8.604 0 0 1-6.993-4.78 7.86 7.86 0 0 1-1.15-4.248 9.117 9.117 0 1 1 18.234 0 4.425 4.425 0 0 1-.177 1.504Zm35.585 42.576a9.18 9.18 0 0 1-9.206-9.117c.015-.564.074-1.127.177-1.682a9.068 9.068 0 0 1 5.665-6.816 10.781 10.781 0 0 1 3.364-.619c.239-.015.479.015.708.088a8.968 8.968 0 0 1 7.524 5.134 9.32 9.32 0 0 1 .885 3.895 9.164 9.164 0 0 1-9.117 9.117Zm61.342-93.208h-.354a9.267 9.267 0 0 1-7.613-3.983v-.089a8.542 8.542 0 0 1-1.593-5.045 9.162 9.162 0 1 1 18.323 0 9.09 9.09 0 0 1-8.763 9.117Z" fill="#FE8836"/><path d="m163.738 126.402-26.909 40.63h-10.533l26.82-40.63h10.622Z" fill="#fff"/><path d="m183.831 126.402-26.909 40.63h-10.533l26.82-40.63h10.622Z" fill="#fff"/><path d="m203.925 126.402-26.909 40.63h-10.534l26.821-40.63h10.622Z" fill="#fff"/></g><defs><clipPath id="a"><path fill="#fff" d="M0 0h203.925v185H0z"/></clipPath></defs></svg>