<svg width="243" height="185" fill="none" xmlns="http://www.w3.org/2000/svg"><g clip-path="url(#a)"><path d="M0 0v185h243V0H0Zm232.816 23.648H95.53l-.917 1.324-5.907 8.562h144.11v141.171H10.184V10.193h222.632v13.455Z" fill="#fff"/><path d="m43.895 23.75-6.722 9.785H24.341l6.721-9.785h12.833Z" fill="#fff"/><path d="m62.533 23.75-6.722 9.785H42.978l6.62-9.785h12.935Z" fill="#fff"/><path d="m81.068 23.75-6.62 9.785H61.514l6.721-9.785h12.833Z" fill="#fff"/><path d="M33.17 50.791v42.097h53.265V82.695h-43.08V60.984h156.229v21.71h-43.385v10.194h53.57V50.79H33.171Z" fill="#fff"/><path d="M88.269 133.658H33.17v-10.193h46.95l5.092 6.421 3.056 3.772Z" fill="#fff"/><path d="M209.769 123.465v10.193h-55.098l3.055-3.772 5.092-6.421h46.951Z" fill="#fff"/><path d="M104.564 154.044H33.171v-10.192h63.245l5.092 6.421 3.056 3.771Z" fill="#fff"/><path d="M209.769 143.852v10.192h-71.393l3.055-3.873 5.093-6.319h63.245Z" fill="#fff"/><path d="M146.013 107.464V71.688H96.619v35.776H80.426l4.583 5.81 8.147 10.193 3.463 4.383 4.685 5.81 1.222 1.529 6.925 8.664 8.046 10.193 3.972 4.994 3.972-4.994 8.046-10.193 6.925-8.664 1.222-1.529 4.379-5.504 3.769-4.689 8.147-10.193 4.583-5.81h-16.499Zm-9.166 16.003-1.018 1.223-.306.306-6.925 8.664-1.222 1.529-5.907 7.441-5.907-7.441-1.222-1.529-6.925-8.664-.612-.815-.611-.714-4.583-5.81h5.194V81.88h29.026v35.777h5.601l-4.583 5.81Z" fill="#FE8836"/></g><defs><clipPath id="a"><path fill="#fff" d="M0 0h243v185H0z"/></clipPath></defs></svg>