<svg width="255" height="204" fill="none" xmlns="http://www.w3.org/2000/svg"><path d="M174.887 189.173V204h55.935v-14.836a17.963 17.963 0 0 0-2.446-8.939 17.99 17.99 0 0 0-6.577-6.534 17.53 17.53 0 0 0-5.399-1.887l-.647-.133.364-.54a24.554 24.554 0 0 0 4.219-13.135 17.71 17.71 0 0 0-9.255-15.438 17.509 17.509 0 0 0-18.026.95 17.473 17.473 0 0 0-7.584 16.365 25.233 25.233 0 0 0 4.157 11.258l.364.549-.647.124c-1.905.32-3.742.958-5.434 1.887a17.983 17.983 0 0 0-9.024 15.482Zm26.594-40.238a7.53 7.53 0 0 1 1.498-.151 8.513 8.513 0 0 1 5.425 2.02 9.535 9.535 0 0 1 3.545 7.147 16.549 16.549 0 0 1-5.371 11.603 6.002 6.002 0 0 1-4.078 1.639h-.151a7.331 7.331 0 0 1-4.095-2.409 16.125 16.125 0 0 1-4.512-11.984 9.307 9.307 0 0 1 7.783-7.865h-.044Zm-18.288 40.256a9.56 9.56 0 0 1 4.839-8.282c1.707-.85 3.6-1.261 5.506-1.195 0 0 4.13-.124 9.272-.16 5.141-.035 9.237.16 9.281.16a11.448 11.448 0 0 1 5.496 1.195 9.562 9.562 0 0 1 4.84 8.273v6.466h-39.234v-6.457Z" fill="#fff"/><path d="M174.887 51.667v14.827h55.935V51.658a17.963 17.963 0 0 0-2.446-8.939 17.994 17.994 0 0 0-6.577-6.534 17.528 17.528 0 0 0-5.399-1.887l-.647-.133.364-.54a24.553 24.553 0 0 0 4.219-13.135 17.711 17.711 0 0 0-9.255-15.438 17.503 17.503 0 0 0-18.026.95 17.474 17.474 0 0 0-7.584 16.366 25.231 25.231 0 0 0 4.157 11.257l.364.55-.647.123c-1.905.32-3.742.958-5.434 1.887a17.979 17.979 0 0 0-9.024 15.482Zm26.594-40.238c.493-.1.994-.15 1.498-.15a8.513 8.513 0 0 1 5.425 2.019 9.53 9.53 0 0 1 3.545 7.148 16.548 16.548 0 0 1-5.371 11.602 6.004 6.004 0 0 1-4.078 1.64h-.151a7.333 7.333 0 0 1-4.095-2.41 16.147 16.147 0 0 1-4.512-11.984 9.317 9.317 0 0 1 7.783-7.865h-.044Zm-18.288 40.256a9.55 9.55 0 0 1 4.839-8.282c1.707-.85 3.6-1.26 5.506-1.195 0 0 4.13-.124 9.272-.16 5.141-.035 9.237.16 9.281.16a11.462 11.462 0 0 1 5.496 1.195 9.565 9.565 0 0 1 3.533 3.487 9.544 9.544 0 0 1 1.307 4.786v6.466h-39.234v-6.457Z" fill="#fff"/><path d="M82 125.151V145h73v-19.861a24.537 24.537 0 0 0-3.193-11.967 23.78 23.78 0 0 0-8.584-8.747 22.498 22.498 0 0 0-7.045-2.526l-.845-.178.475-.723a33.446 33.446 0 0 0 5.506-17.584 24.157 24.157 0 0 0-3.288-12.023 23.402 23.402 0 0 0-8.789-8.644c-3.664-2-7.79-2.939-11.935-2.715a22.464 22.464 0 0 0-11.591 3.987 23.256 23.256 0 0 0-7.92 9.544 23.912 23.912 0 0 0-1.978 12.365 34.305 34.305 0 0 0 5.426 15.07l.474.735-.844.166a22.094 22.094 0 0 0-7.092 2.526 23.795 23.795 0 0 0-8.585 8.753A24.543 24.543 0 0 0 82 125.151Zm34.707-53.867a9.603 9.603 0 0 1 1.955-.202c2.596.026 5.101.982 7.081 2.704a12.711 12.711 0 0 1 3.335 4.265 13.027 13.027 0 0 1 1.291 5.303 22.614 22.614 0 0 1-1.984 8.488 22.165 22.165 0 0 1-5.026 7.046 7.733 7.733 0 0 1-5.322 2.193h-.197a9.52 9.52 0 0 1-5.344-3.225 21.7 21.7 0 0 1-4.563-7.398 22.091 22.091 0 0 1-1.326-8.645 12.582 12.582 0 0 1 3.388-6.978 12.06 12.06 0 0 1 6.77-3.551h-.058ZM92.84 125.175a13.037 13.037 0 0 1 1.703-6.414 12.638 12.638 0 0 1 4.613-4.673 14.659 14.659 0 0 1 7.185-1.6s5.39-.166 12.1-.214c6.71-.047 12.055.214 12.113.214a14.646 14.646 0 0 1 7.173 1.6 12.638 12.638 0 0 1 4.611 4.668 13.04 13.04 0 0 1 1.706 6.407v8.656H92.84v-8.644Z" fill="#FE8836"/><path d="M19 189.173V204h55.945v-14.836a17.977 17.977 0 0 0-9.033-15.473 17.442 17.442 0 0 0-5.389-1.887l-.657-.133.364-.54a24.549 24.549 0 0 0 4.22-13.135 17.704 17.704 0 0 0-9.255-15.438 17.509 17.509 0 0 0-18.025.95 17.478 17.478 0 0 0-7.585 16.365 25.222 25.222 0 0 0 4.158 11.258l.362.549-.647.124c-1.901.32-3.735.958-5.424 1.887A17.999 17.999 0 0 0 19 189.173Zm26.594-40.238c.493-.1.996-.15 1.499-.151 1.99.016 3.91.731 5.424 2.02a9.542 9.542 0 0 1 3.547 7.147 16.553 16.553 0 0 1-5.38 11.603 6.003 6.003 0 0 1-4.08 1.639h-.14a7.302 7.302 0 0 1-4.097-2.409 16.117 16.117 0 0 1-4.52-11.984 9.318 9.318 0 0 1 7.791-7.865h-.044Zm-18.243 40.3a9.55 9.55 0 0 1 4.84-8.281 11.521 11.521 0 0 1 5.505-1.196s4.13-.124 9.272-.16c5.142-.035 9.237.16 9.282.16a11.436 11.436 0 0 1 5.496 1.196 9.557 9.557 0 0 1 4.84 8.272v6.466H27.351v-6.457Z" fill="#fff"/><path d="M19 51.667v14.827h55.945V51.658a17.978 17.978 0 0 0-9.033-15.473c-1.68-.92-3.5-1.558-5.389-1.887l-.657-.133.364-.54a24.548 24.548 0 0 0 4.22-13.135 17.704 17.704 0 0 0-9.255-15.438 17.503 17.503 0 0 0-18.025.95 17.462 17.462 0 0 0-7.585 16.365 25.22 25.22 0 0 0 4.158 11.258l.362.55-.647.123a17.17 17.17 0 0 0-5.424 1.887 18.006 18.006 0 0 0-6.583 6.538A17.985 17.985 0 0 0 19 51.667ZM45.594 11.43c.493-.1.996-.15 1.499-.15 1.99.015 3.91.73 5.424 2.019a9.55 9.55 0 0 1 3.547 7.148 16.559 16.559 0 0 1-5.38 11.602 6.005 6.005 0 0 1-4.08 1.64h-.14a7.306 7.306 0 0 1-4.097-2.41 16.115 16.115 0 0 1-4.52-11.984 9.327 9.327 0 0 1 7.792-7.865h-.045Zm-18.243 40.3a9.552 9.552 0 0 1 4.84-8.281 11.531 11.531 0 0 1 5.505-1.196s4.13-.124 9.272-.16c5.142-.035 9.237.16 9.282.16a11.435 11.435 0 0 1 5.496 1.196 9.561 9.561 0 0 1 4.84 8.272v6.466H27.351V51.73Z" fill="#fff"/><g clip-path="url(#a)"><path d="M166.598 117.185 152.743 89l-13.956 28.391L108 121.934l21.859 22.094L124.625 175l27.913-14.764L181.17 175l-5.439-30.972L198 122.244l-30.787-4.543-.615-.516Z" fill="#1C3C70"/><path d="M160.856 123.387 152.852 107l-8.064 16.507L127 126.148l12.629 12.845L136.605 157l16.128-8.583L169.276 157l-3.143-18.007L179 126.328l-17.788-2.641-.356-.3Zm1.186 11.344a5.153 5.153 0 0 0-1.618 2.197 5.22 5.22 0 0 0-.279 2.725l1.126 6.843-5.573-2.941a5.05 5.05 0 0 0-5.099 0l-6.226 3.301 1.067-6.002c.242-.864.26-1.776.052-2.649a5.235 5.235 0 0 0-1.238-2.333l-5.099-5.042 6.404-1.561a4.529 4.529 0 0 0 2.296-.72 4.597 4.597 0 0 0 1.617-1.801l3.202-6.543 2.846 6.003a4.976 4.976 0 0 0 1.412 2.032c.632.545 1.391.92 2.205 1.089l7.174 1.02-4.269 4.382Z" fill="#FE8836"/></g><defs><clipPath id="a"><path fill="#fff" transform="translate(116 101)" d="M0 0h77v71H0z"/></clipPath></defs></svg>