<svg width="210" height="234" fill="none" xmlns="http://www.w3.org/2000/svg"><path d="M210 233.079H0l45.692-69.716c43.731 26.447 79.5 28.177 119.69 1.639L210 233.079Z" fill="#1C3C70"/><path fill-rule="evenodd" clip-rule="evenodd" d="M29.983 102.115c9.5 33.806 40.605 58.662 77.406 58.662 44.326 0 80.388-36.062 80.388-80.388 0-36.8-24.856-67.905-58.662-77.406A80.288 80.288 0 0 0 107.389 0C63.062 0 27 36.062 27 80.389a80.283 80.283 0 0 0 2.983 21.726Zm55.679-73.98c6.618-2.603 13.936-4.018 21.727-4.018v56.272H51.117c0-7.79 1.415-15.11 4.018-21.727 5.537-14.08 16.446-24.99 30.527-30.527Z" fill="#fff"/></svg>