<svg width="42" height="44" fill="none" xmlns="http://www.w3.org/2000/svg"><g clip-path="url(#a)"><path d="M26.628 16.758c-1.334-.01-3.696 0-5.028 0l-1.395 2.105c1.01.021 3.05.02 4.057.033a3.677 3.677 0 0 1-5.942 1.75 3.886 3.886 0 0 1 4.653-6.218l1.24-1.875a5.869 5.869 0 0 0-3.483-1.08 6.172 6.172 0 0 0-2.235 11.922 6.086 6.086 0 0 0 7.019-1.865 7.06 7.06 0 0 0 1.114-4.772Z" fill="#005EAB"/><path d="m41.057 17.571-6.864-5.874V4.466h-8.447l-5.218-4.47-5.217 4.47H6.862v7.231L0 17.572V44h41.062V17.571h-.005Zm-6.864-3.61 4.332 3.708-.366.318-.01-.012-3.954 3.483-.002-7.497ZM20.528 2.272l2.579 2.202H17.96l2.568-2.202ZM8.581 6.193h23.895v16.78L20.53 33.49 8.583 22.971 8.581 6.193Zm-1.719 7.775v7.497l-4.316-3.8 4.316-3.697ZM1.705 41.106V19.29h.091l8.975 7.908-9.066 13.908ZM2.99 42.29l9.087-13.94 8.445 7.439 8.309-7.318 9.01 13.82H2.99Zm36.347-.86-9.202-14.114 9.111-8.021h.093l-.002 22.136Z" fill="#1C3C70"/></g><defs><clipPath id="a"><path fill="#fff" d="M0 0h41.062v44H0z"/></clipPath></defs></svg>