<svg width="58" height="44" fill="none" xmlns="http://www.w3.org/2000/svg"><g clip-path="url(#a)"><path d="M0 36.947 4.677 44h48.358l4.654-7.053H0Zm51.74 4.783H5.949l-1.631-2.44h49.03l-1.608 2.44Z" fill="#1C3C70"/><path d="M51.524 36.947v.024H6.164v-.024H3.839v2.343h49.989v-2.343h-2.303Z" fill="#1C3C70"/><path d="M3.845 4.977v31.979H6.17V7.296h.024v-2.32h-2.35Zm47.686 0v31.979h2.303V4.976H51.53Z" fill="#1C3C70"/><path d="M10.47 0v23.308h8.108v8.598l6.333-8.598h22.308V0H10.47Zm34.35 20.893H24.023l-3.406 4.734v-4.734h-7.724V2.536H44.82v18.357Z" fill="#005EAB"/><path d="M35.437 5.508 28.864 15.53h-3.19l-3.406-5.217h3.022l1.967 3.02 5.133-7.826h3.047Z" fill="#005EAB"/></g><defs><clipPath id="a"><path fill="#fff" d="M0 0h57.689v44H0z"/></clipPath></defs></svg>