<svg width="189" height="185" fill="none" xmlns="http://www.w3.org/2000/svg"><g clip-path="url(#a)"><path d="M137.868 131.231a29.911 29.911 0 0 0-20.08-23.524l-21.087-7.057v-3.697h-8.402v6.385l-3.024 12.014-8.402-10.081-.504-.589h-9.073l-.505.589-8.4 10.081-3.026-12.35v-6.049h-8.401v3.697l-21.087 7.057a29.909 29.909 0 0 0-20.08 23.524L.084 164.837v1.848h88.887l4.201-6.385 1.26-1.932h-8.401l-4.453-30.918 1.596-2.352 4.453 5.377 2.017 2.436.756-3.108 5.293-21.172 19.659 6.553a21.678 21.678 0 0 1 14.366 16.803h8.402l-.252-.756Zm-79.562 27.557h-48.14l4.368-26.213a21.845 21.845 0 0 1 14.451-16.803l19.66-6.553 5.292 21.172.84 3.108 1.933-2.436 4.453-5.377 1.596 2.352-4.453 30.75Zm14.87-32.262 4.537 32.262H66.707l4.621-32.262v-1.176l-4.368-6.469L71.832 113h1.177l4.872 5.881-4.284 6.469v.588l-.42.588Z" fill="#fff"/><path d="M112.159 47.3V32.766a14.536 14.536 0 0 0-11.342-14.198A29.233 29.233 0 0 0 73.765.167h-1.849a40.327 40.327 0 0 0-40.243 40.327v6.973a14.62 14.62 0 0 0-2.604 11.426 13.779 13.779 0 0 0 7.73 9.746 39.823 39.823 0 0 0 8.82 15.794l9.999 10.082a14.368 14.368 0 0 0 10.25 4.285h12.098a14.366 14.366 0 0 0 10.25-4.285l10.081-10.082a53.682 53.682 0 0 0 9.326-16.214 12.685 12.685 0 0 0 7.057-10.502 16.13 16.13 0 0 0-2.521-10.418ZM98.717 63.095a21.257 21.257 0 0 1-6.385 15.29l-9.998 10.082a6.553 6.553 0 0 1-4.368 1.764H65.867a6.553 6.553 0 0 1-4.368-1.764L51.5 78.385a21.17 21.17 0 0 1-6.301-15.29V52.173H53.6a47.972 47.972 0 0 0 29.91-10.586 22.516 22.516 0 0 0 14.87 10.166l.336 11.342Zm5.125-19.24h-1.008A14.115 14.115 0 0 1 90.82 37.05l-4.117-6.889-1.092-1.764-1.428 1.428-2.353 2.353a39.236 39.236 0 0 1-28.145 11.678H39.991v-3.53A31.926 31.926 0 0 1 71.916 8.402h1.849a20.751 20.751 0 0 1 19.911 14.955l.504 1.932v1.093h3.193a6.218 6.218 0 0 1 6.133 6.217l.336 11.258Z" fill="#fff"/><path d="M187.604 145.259a12.601 12.601 0 0 0-9.325-5.041h-9.83v-9.913a11.516 11.516 0 0 0-5.881-9.158 8.415 8.415 0 0 0-3.865-.84c-2.294.031-4.534.7-6.469 1.932l-1.008.756-7.225 17.476h-7.394l-3.108 4.62-7.226 10.67-2.772 4.201-6.133 9.326-5.713 8.401-4.369 6.721h55.702c6.301 0 11.678-9.157 11.762-9.242l12.854-21.171a11.491 11.491 0 0 0 1.008-4.621 8.388 8.388 0 0 0-1.008-4.117Zm-7.393 5.461-12.686 20.5c-.588.84-3.529 4.957-5.293 4.957h-38.647l.42-.588 7.141-10.754 8.402-12.939 1.764-2.436h8.402l8.401-20.163h1.008a3.188 3.188 0 0 1 1.092 2.016l-.588 17.979h19.996c.301.418.476.914.504 1.428h.084Z" fill="#FE8836"/><path d="m126.61 140.641-2.856 4.284-4.285 6.47-6.133 9.325 3.445-5.125 9.997-14.954h-.168Z" fill="#39B54A"/><path d="m110.647 164.837-5.965 8.821L97.121 185H87.039l13.106-19.659 6.133-9.326 10.418-15.374h10.082l-9.998 14.954-3.444 5.125-2.689 4.117Z" fill="#FE8836"/></g><defs><clipPath id="a"><path fill="#fff" d="M0 0h188.865v185H0z"/></clipPath></defs></svg>