<svg width="232" height="185" fill="none" xmlns="http://www.w3.org/2000/svg"><g clip-path="url(#a)"><path d="M86.85 39.319v12.945h46.66V39.319a15.551 15.551 0 0 0-7.729-13.235c-.932-.494-1.9-.914-2.898-1.256h-.58v-.58a21.537 21.537 0 0 0 2.609-9.66 15.459 15.459 0 0 0-8.018-13.235 14.974 14.974 0 0 0-21.93 14.877 21.641 21.641 0 0 0 2.512 7.921v.483h-.58a13.716 13.716 0 0 0-2.897 1.256 15.168 15.168 0 0 0-7.15 13.429Zm22.412-30.72a5.217 5.217 0 0 1 4.54 1.255 6.085 6.085 0 0 1 2.415 4.734 11.587 11.587 0 0 1-3.864 8.308 3.674 3.674 0 0 1-2.512 1.062 6.37 6.37 0 0 1-2.511-1.545 11.792 11.792 0 0 1-3.189-8.598 6.183 6.183 0 0 1 5.121-4.83v-.387ZM95.737 39.414a6.375 6.375 0 0 1 3.284-5.603 7.632 7.632 0 0 1 3.864-.773H117.473a8.114 8.114 0 0 1 3.864.773 6.284 6.284 0 0 1 3.188 5.507v3.96H95.543l.194-3.864Z" fill="#fff"/><path d="M43.473 105.878v12.945h46.66v-12.945a15.071 15.071 0 0 0-7.728-13.235c-.89-.575-1.87-.999-2.898-1.256h-.58v-.483a19.32 19.32 0 0 0 2.609-9.66 15.167 15.167 0 0 0-7.922-13.235 15.068 15.068 0 0 0-20.69 6.95 15.07 15.07 0 0 0-1.336 7.927 20.191 20.191 0 0 0 2.609 7.922v.483h-.58a9.656 9.656 0 0 0-2.994 1.255 15.46 15.46 0 0 0-7.15 13.332Zm22.51-30.72a5.219 5.219 0 0 1 4.54 1.159 6.568 6.568 0 0 1 2.415 4.83 12.366 12.366 0 0 1-3.865 8.308 3.865 3.865 0 0 1-2.511 1.063 5.798 5.798 0 0 1-2.512-1.642 11.976 11.976 0 0 1-3.285-8.598 6.375 6.375 0 0 1 5.217-5.12Zm-13.526 30.72a6.28 6.28 0 0 1 3.188-5.506 7.436 7.436 0 0 1 3.961-.773h14.588a6.76 6.76 0 0 1 3.767.773 6.376 6.376 0 0 1 3.285 5.506v3.961H52.264l.193-3.961Z" fill="#fff"/><path d="M0 172.055V185h46.662v-13.042a15.357 15.357 0 0 0-7.73-13.235 12.93 12.93 0 0 0-2.897-1.159h-.58v-.483a20.677 20.677 0 0 0 2.609-9.661 15.457 15.457 0 0 0-7.923-13.331 15.067 15.067 0 0 0-15.519.858 15.072 15.072 0 0 0-6.506 14.115 21.262 21.262 0 0 0 2.512 7.826v.579h-.58c-1.01.268-1.982.658-2.898 1.16A15.747 15.747 0 0 0 0 172.055Zm22.51-30.818a5.611 5.611 0 0 1 4.54 1.256 6.378 6.378 0 0 1 2.319 4.734 11.592 11.592 0 0 1-3.865 8.405 3.39 3.39 0 0 1-2.415.966 4.058 4.058 0 0 1-2.512-1.546 11.306 11.306 0 0 1-3.284-8.598 6.372 6.372 0 0 1 5.217-5.217ZM8.985 172.055a6.278 6.278 0 0 1 3.188-5.507 8.12 8.12 0 0 1 3.864-.869h14.588a9.645 9.645 0 0 1 3.864.773 6.85 6.85 0 0 1 3.285 5.603v3.96H8.791l.193-3.96Z" fill="#fff"/><path d="M147.614 39.32v12.945h46.661V39.32a15.56 15.56 0 0 0-7.729-13.235 13.7 13.7 0 0 0-2.899-1.256h-.772v-.58a19.318 19.318 0 0 0 2.609-9.66 14.985 14.985 0 0 0-8.061-13.292 14.97 14.97 0 0 0-15.512 1.023 15.363 15.363 0 0 0-6.375 13.911 20.197 20.197 0 0 0 2.607 7.922v.483h-.579a13.71 13.71 0 0 0-2.898 1.256 15.165 15.165 0 0 0-7.052 13.428ZM170.027 8.6a5.217 5.217 0 0 1 4.54 1.255 6.38 6.38 0 0 1 2.415 4.734 11.602 11.602 0 0 1-3.864 8.308 3.671 3.671 0 0 1-2.512 1.063 6.373 6.373 0 0 1-2.512-1.546 11.877 11.877 0 0 1-3.284-8.598 6.37 6.37 0 0 1 5.217-4.83v-.387Zm-13.525 30.816a6.373 6.373 0 0 1 3.187-5.603 8.313 8.313 0 0 1 3.962-.772h14.587a7.536 7.536 0 0 1 3.768.772 6.185 6.185 0 0 1 3.284 5.507v3.96h-28.982l.194-3.864Z" fill="#fff"/><path d="M104.237 105.881v12.945h46.66v-12.945a15.258 15.258 0 0 0-7.727-13.235 9.674 9.674 0 0 0-2.899-1.255h-.579v-.484a20.302 20.302 0 0 0 2.609-9.66 15.363 15.363 0 0 0-7.729-12.945 15.072 15.072 0 0 0-22.027 14.877 21.651 21.651 0 0 0 2.512 7.922v.483h-.579a9.674 9.674 0 0 0-2.899 1.255 15.465 15.465 0 0 0-7.342 13.042Zm22.509-30.72a5.317 5.317 0 0 1 4.541 1.159 6.47 6.47 0 0 1 2.319 4.83 11.587 11.587 0 0 1-3.865 8.308 3.476 3.476 0 0 1-2.415 1.063 5.317 5.317 0 0 1-2.512-1.642 11.602 11.602 0 0 1-3.284-8.598 6.275 6.275 0 0 1 5.216-5.12Zm-13.524 30.72a6.278 6.278 0 0 1 3.188-5.506 7.244 7.244 0 0 1 3.961-.773h14.201a6.953 6.953 0 0 1 3.767.773 6.565 6.565 0 0 1 3.285 5.506v3.961h-28.982l.58-3.961Z" fill="#fff"/><path d="M60.765 172.053v12.945h46.66v-13.042a15.557 15.557 0 0 0-7.728-13.235 12.984 12.984 0 0 0-2.898-1.159h-.58v-.483a21.834 21.834 0 0 0 2.61-9.66 14.972 14.972 0 0 0-8.04-13.447 14.972 14.972 0 0 0-15.63 1.081 15.265 15.265 0 0 0-6.28 14.008 21.25 21.25 0 0 0 2.512 7.825v.58h-.579c-1.009.268-1.983.657-2.898 1.159a15.556 15.556 0 0 0-7.15 13.428Zm22.509-30.817a5.602 5.602 0 0 1 4.541 1.256 6.368 6.368 0 0 1 2.318 4.733 11.983 11.983 0 0 1-3.864 8.405 3.477 3.477 0 0 1-2.415.966 4.443 4.443 0 0 1-2.609-1.546 11.49 11.49 0 0 1-3.187-8.597 6.28 6.28 0 0 1 5.216-5.217Zm-13.62 30.817a6.568 6.568 0 0 1 3.283-5.506 8.109 8.109 0 0 1 3.865-.87h14.587a9.662 9.662 0 0 1 3.865.773 6.567 6.567 0 0 1 3.188 5.603v3.961H69.46l.193-3.961Z" fill="#fff"/><path d="M125.394 174.953 118.729 185h112.449v-10.047H125.394Z" fill="#FE8836"/><path d="m212.823 42.602-6.666 10.047h25.021V42.602h-18.355Z" fill="#FE8836"/><path d="m169.06 108.777-6.569 10.047h68.686v-10.047H169.06Z" fill="#FE8836"/></g><defs><clipPath id="a"><path fill="#fff" d="M0 0h231.178v185H0z"/></clipPath></defs></svg>