<svg width="89" height="72" fill="none" xmlns="http://www.w3.org/2000/svg"><g clip-path="url(#a)"><path d="M34.962 25.242H22.686v2.663h12.276v-2.663Z" fill="#005EAB"/><path d="M34.962 29.555H22.686v2.662h12.276v-2.662Z" fill="#005EAB"/><path d="m12.116 59.832 1.464-2.21a27.32 27.32 0 0 1 29.85-45.613l1.464-2.21a29.956 29.956 0 0 0-32.778 50.033Z" fill="#1C3C70"/><path d="M45.772 9.692 39.115 0 37.97 2.476l5.592 8.175-10.118 1.385-.852 1.73-.373.8 11.343-1.545 2.21-3.329Z" fill="#1C3C70"/><path d="m48.089 12.195-1.465 2.21a27.32 27.32 0 0 1-29.849 45.613l-1.464 2.236a29.983 29.983 0 0 0 32.778-50.059Z" fill="#1C3C70"/><path d="m14.379 62.333 6.63 9.666 1.172-2.45-5.619-8.201 10.145-1.358.852-1.758.373-.798-11.343 1.544-2.21 3.355Z" fill="#1C3C70"/><path d="M38.583 46.839v3.408H19.172V22.315h19.41v7.828l2.663-4.02v-6.47H16.51V52.91h24.736V42.95l-2.662 3.888Z" fill="#005EAB"/><path d="M43.243 26.176 33.178 41.194v5.724l5.032-2.316L48.41 29.717l-5.166-3.541Zm.639 3.328 1.225.852-6.79 9.879-1.092-.772 6.657-9.959ZM35.6 43.217V41.94l.32-.453 1.065.746-.347.506-1.038.48Z" fill="#005EAB"/><path d="M34.828 33.898H22.686v2.663h10.385l1.758-2.663Z" fill="#005EAB"/></g><defs><clipPath id="a"><path fill="#fff" d="M0 0h60.151v72H0z"/></clipPath></defs></svg>