<svg width="227" height="185" fill="none" xmlns="http://www.w3.org/2000/svg"><g clip-path="url(#a)"><path d="m139.445 175-6.639 10h93.305v-10h-86.666Z" fill="#FE8836"/><path d="m120.824 184.808 6.197-9.624H0v9.624h120.824Z" fill="#fff"/><path d="m161.678 141.459-6.639 10h71.072v-10h-64.433Z" fill="#FE8836"/><path d="m183.412 108.305-6.6 9.999h49.299v-9.999h-42.699Z" fill="#FE8836"/><path d="M170.806 100.412a40.394 40.394 0 0 0-5.496-7.816 40.874 40.874 0 0 0-9.887-8.122 39.054 39.054 0 0 0-12.049-4.177l-10.117-2.07 5.688-8.556a57.325 57.325 0 0 0 9.838-30.615 39.742 39.742 0 0 0-5.65-20.046 39.66 39.66 0 0 0-15.007-14.419 39.033 39.033 0 0 0-40.605 2.445 37.952 37.952 0 0 0-3.632 3.012l-.672-.173a33.517 33.517 0 0 0-27.71 4.918 34.189 34.189 0 0 0-3.988 3.33 27.532 27.532 0 0 0-12.917.374 27.562 27.562 0 0 0-11.329 6.228 27.624 27.624 0 0 0-7.252 10.714 27.664 27.664 0 0 0-1.583 12.847 41.545 41.545 0 0 0 6.803 18.45l2.882 4.37-5.092.962a27.12 27.12 0 0 0-8.58 2.974 29.054 29.054 0 0 0-7.043 5.774 27.628 27.628 0 0 0-3.901 5.563A29.055 29.055 0 0 0 .038 99.767v23.204h18.525v14.745h25.394v13.705h98.677l6.505-9.846h-95.39v-22.396a30.838 30.838 0 0 1 3.352-13.272 29.923 29.923 0 0 1 5.333-7.815 28.829 28.829 0 0 1 6.726-5.187l.106-.068a35.356 35.356 0 0 1 16.699-3.734l24.309-.414c4.525 0 8.647.087 12.144.154 4.593.087 10.848.24 10.848.24a35.369 35.369 0 0 1 17.18 3.783 29.183 29.183 0 0 1 6.725 5.236c2.184 2.299 3.99 4.93 5.352 7.796a31.934 31.934 0 0 1 3.037 10.856l7.504-11.376a40.87 40.87 0 0 0-2.258-4.966Zm-99.638-81.25a16.201 16.201 0 0 1 5.092-.26h.289a39.128 39.128 0 0 0-5.525 24.418 59.145 59.145 0 0 0 9.714 26.313l1.806 2.772a16.074 16.074 0 0 1-8.417 2.415 18.737 18.737 0 0 1-11.99-6.361 38.728 38.728 0 0 1-8.394-13.314 38.778 38.778 0 0 1-2.407-15.56A24.077 24.077 0 0 1 57.903 26.1a24.008 24.008 0 0 1 13.266-6.966v.028Zm-43.602 23.83a19.02 19.02 0 0 1 5.193-10.666 18.965 18.965 0 0 1 10.497-5.502 13.259 13.259 0 0 1 1.826-.097 33.848 33.848 0 0 0-3.844 19.432 50.513 50.513 0 0 0 8.302 22.492l.826 1.26a12.09 12.09 0 0 1-4.804 1.127 14.79 14.79 0 0 1-9.416-5.024 30.862 30.862 0 0 1-6.683-10.631 30.903 30.903 0 0 1-1.897-12.42v.03Zm-4.804 50.48a35.36 35.36 0 0 0-4.209 16.217v4.081h-9.33V99.776a19.698 19.698 0 0 1 2.153-8.488 18.703 18.703 0 0 1 3.41-4.986 18.915 18.915 0 0 1 4.305-3.359 23.029 23.029 0 0 1 10.81-2.387h.259l4.804-.115a35.803 35.803 0 0 0-7.475 6.294 34.418 34.418 0 0 0-4.756 6.709l.029.028Zm31.553-.866a40.058 40.058 0 0 0-5.496 7.815 40.89 40.89 0 0 0-4.871 18.806v8.325h-15.23v-17.863a24.97 24.97 0 0 1 2.71-10.721A23.585 23.585 0 0 1 41.2 88.381a29.092 29.092 0 0 1 13.586-3.003s4.477-.125 8.33-.192a41.624 41.624 0 0 0-8.83 7.391l.03.03Zm68.987-19.797a20.763 20.763 0 0 1-14.085 6.005 23.148 23.148 0 0 1-13.106-6.005 79.682 79.682 0 0 1-5.919-6.39 47.3 47.3 0 0 1-9.416-30.799 25.932 25.932 0 0 1 6.053-14.436 31.127 31.127 0 0 1 6.236-5.775 32.113 32.113 0 0 1 12.27-5.207 24.682 24.682 0 0 1 4.804-.462 28.363 28.363 0 0 1 17.727 6.449 30.463 30.463 0 0 1 8.071 10.178 30.522 30.522 0 0 1 3.104 12.622 48.14 48.14 0 0 1-15.767 33.791l.028.029Z" fill="#fff"/><g clip-path="url(#b)"><path d="M114.95 107.42 107.869 93l-7.134 14.526L85 109.85l11.172 11.304L93.497 137l14.267-7.553L122.398 137l-2.78-15.846L131 110.008l-15.735-2.324-.315-.264Z" fill="#FE8836"/></g></g><defs><clipPath id="a"><path fill="#fff" d="M0 0h226.111v185H0z"/></clipPath><clipPath id="b"><path fill="#fff" transform="translate(69 80)" d="M0 0h77v71H0z"/></clipPath></defs></svg>