<svg width="186" height="185" fill="none" xmlns="http://www.w3.org/2000/svg"><g clip-path="url(#a)"><path d="m124.219 184.998-31.276-47.49-31.543 47.49h62.819Zm-16.037-8.86H77.703l15.24-23.125 15.239 23.125Z" fill="#fff"/><path d="m0 77.969 17.72 25.96h27.998l17.189-25.783L0 77.969Zm16.037 8.86h30.39l-5.936 8.86H21.973l-5.936-8.86Z" fill="#fff"/><path d="M.443 53.958v16.037h61.579V53.869a19.58 19.58 0 0 0-9.835-16.834 18.784 18.784 0 0 0-5.848-2.127h-1.418l.798-1.151a27.29 27.29 0 0 0 4.607-14.442 19.58 19.58 0 0 0-10.1-16.835 19.138 19.138 0 0 0-27.91 18.96 28.53 28.53 0 0 0 4.519 12.317l.797 1.24h-1.329c-2.09.348-4.1 1.068-5.936 2.127A19.67 19.67 0 0 0 .443 53.957ZM29.682 8.505h1.772c2.309.055 4.529.9 6.29 2.392a11.253 11.253 0 0 1 4.165 8.329 19.135 19.135 0 0 1-6.202 13.29 7.177 7.177 0 0 1-4.785 1.95 8.328 8.328 0 0 1-4.873-2.836 18.518 18.518 0 0 1-5.227-13.733 10.987 10.987 0 0 1 8.86-9.037v-.355ZM8.949 53.958a11.075 11.075 0 0 1 5.582-9.658 14 14 0 0 1 6.38-1.417h20.555a13.38 13.38 0 0 1 6.29 1.417 11.163 11.163 0 0 1 5.671 9.658v8.063h-44.3l-.178-8.063Z" fill="#fff"/><path d="M123.422 81.338v16.125h62.021V81.338a19.679 19.679 0 0 0-9.835-16.923 20.376 20.376 0 0 0-5.848-2.038h-1.417l.797-1.152a26.578 26.578 0 0 0 4.607-14.442 19.047 19.047 0 0 0-27.45-16.88 19.046 19.046 0 0 0-10.56 18.918 28.002 28.002 0 0 0 4.608 12.404l.709 1.152h-1.329a19.4 19.4 0 0 0-5.937 2.038 19.672 19.672 0 0 0-10.366 16.923Zm29.15-45.364h1.772a9.833 9.833 0 0 1 6.379 2.392 10.98 10.98 0 0 1 4.076 8.329 19.225 19.225 0 0 1-6.114 13.29 7.44 7.44 0 0 1-4.873 1.86 7.886 7.886 0 0 1-4.873-2.746 18.426 18.426 0 0 1-5.139-13.733 10.724 10.724 0 0 1 9.126-9.392h-.354Zm-20.29 45.364a11.07 11.07 0 0 1 5.671-9.569 13.374 13.374 0 0 1 6.29-1.418h20.556a14 14 0 0 1 6.379 1.418 10.981 10.981 0 0 1 5.582 9.569v7.708h-44.301l-.177-7.708Z" fill="#FE8836"/><path d="M159.039 154.698 26.935 124.397v-8.772l132.104 30.125v8.948Z" fill="#fff"/><path d="M35.707 102.156h-8.86v21.973h8.86v-21.973Z" fill="#fff"/><path d="M158.951 129.891h-8.86v21.973h8.86v-21.973Z" fill="#fff"/><path d="m123.422 104.906 17.72 25.961h27.91l17.72-25.872-63.35-.089Zm16.037 8.86h30.479l-5.937 8.861h-18.517l-6.025-8.861Z" fill="#fff"/></g><defs><clipPath id="a"><path fill="#fff" d="M0 0h185.797v185H0z"/></clipPath></defs></svg>