<svg xmlns="http://www.w3.org/2000/svg" width="577" height="190"><path stroke="#FFF" fill="none" d="M540.438 92.399c9.608 2.765 17.157 7.464 22.644 14.101 6.332 7.668 9.5 17.418 9.5 29.25 0 15.5-5.461 27.711-16.375 36.625-10.918 8.918-25.711 13.375-44.375 13.375-11.668 0-22.918-1.875-33.75-5.625-10.836-3.75-19.836-8.957-27-15.625l9.25-19.25c8 6.5 16.164 11.375 24.5 14.625 8.332 3.25 17.082 4.875 26.25 4.875 12.164 0 21.289-2.539 27.375-7.625 6.082-5.082 9.125-12.789 9.125-23.125 0-10-3.168-17.457-9.5-22.375-6.336-4.914-15.918-7.375-28.75-7.375h-21.75v-21h17.75c12.332 0 21.707-2.582 28.125-7.75 6.414-5.164 9.625-12.664 9.625-22.5 0-9-2.668-15.914-8-20.75-5.336-4.832-12.918-7.25-22.75-7.25-8.5 0-16.875 1.625-25.125 4.875S470.832 38 462.832 44.5l-9.25-19.25c7.164-6.5 16.125-11.664 26.875-15.5C491.207 5.918 502.246 4 513.582 4c11 0 20.664 1.875 29 5.625 8.332 3.75 14.707 9.125 19.125 16.125 4.414 7 6.625 15.168 6.625 24.5 0 10.836-2.836 20.086-8.5 27.75-4.867 6.584-11.334 11.38-19.394 14.399zM319.584 162.75h39V36.775l-36.25 22.475V35.5L369.584 6h15v156.75h39V184h-104v-21.25zM214.337 186c-20.668 0-36.418-7.707-47.25-23.125-10.836-15.414-16.25-38.039-16.25-67.875 0-29.664 5.375-52.25 16.125-67.75S193.501 4 214.337 4c20.832 0 36.625 7.75 47.375 23.25s16.125 38 16.125 67.5c0 29.836-5.418 52.5-16.25 68-10.836 15.5-26.586 23.25-47.25 23.25zm28.625-144.25C236.876 30.586 227.337 25 214.337 25s-22.543 5.625-28.625 16.875c-6.086 11.25-9.125 28.875-9.125 52.875 0 24.336 3.039 42.168 9.125 53.5 6.082 11.336 15.625 17 28.625 17s22.539-5.664 28.625-17c6.082-11.332 9.125-29.164 9.125-53.5 0-24.164-3.043-41.832-9.125-53zm-234.123 123 61.25-67.25c7.832-8.664 13.539-16.539 17.125-23.625 3.582-7.082 5.375-14.125 5.375-21.125 0-9-2.625-15.875-7.875-20.625S72.003 25 62.339 25c-8.336 0-16.625 1.625-24.875 4.875S21.003 38 12.839 44.5l-9.25-19.25c7.164-6.5 16.125-11.664 26.875-15.5C41.214 5.918 52.171 4 63.339 4c11.164 0 20.875 1.918 29.125 5.75 8.25 3.836 14.625 9.293 19.125 16.375 4.5 7.086 6.75 15.543 6.75 25.375 0 10.168-2.25 19.875-6.75 29.125s-12 19.543-22.5 30.875l-47.515 51.25h84.015V184H8.839v-19.25z"/></svg>