<?xml version="1.0" encoding="utf-8"?>
<!-- Generator: Adobe Illustrator 23.0.5, SVG Export Plug-In . SVG Version: 6.00 Build 0)  -->
<svg version="1.1" id="Слой_1" xmlns="http://www.w3.org/2000/svg" xmlns:xlink="http://www.w3.org/1999/xlink" x="0px" y="0px"
	 width="76.8px" height="42px" viewBox="0 0 76.8 42" style="enable-background:new 0 0 76.8 42;" xml:space="preserve">
<style type="text/css">
	.st0{fill:#FFFFFF;}
</style>
<path class="st0" d="M61.4,13.8c-7.6,0-11.3,3-12.7,6.2v-1.9c-2.3-2.8-6.2-4.3-11.5-4.3c-7.7,0-11.3,3-12.8,6.3
	c-1.9-4-6.1-6.3-12.8-6.3c-6.8,0-9.9,2.3-11.6,4.3v5.2h9.4v-1.4c0.3-0.5,1.1-0.8,2.2-0.8c1.1,0,1.9,0.3,2.2,0.8v2
	c-0.3,0.5-1.2,0.8-2.2,0.8H7v6h4.6c1,0,1.9,0.3,2.2,0.8v2.2c-0.3,0.5-1.2,0.8-2.2,0.8c-1.1,0-1.9-0.3-2.2-0.8v-1.4H0v5.2
	c0.8,1,3.7,4.3,11.6,4.3c7.6,0,11.3-3,12.8-6.3C25.8,39,29.4,42,37.1,42c6,0,9.6-1.9,11.5-4.3v-1.9C50.1,39,53.8,42,61.4,42
	c7.6,0,11.3-3,12.7-6.3V20.1C72.7,16.8,69,13.8,61.4,13.8z M20.9,27.9c1.7-0.9,2.8-2.1,3.4-3.6v7.1C23.7,30,22.6,28.9,20.9,27.9z
	 M39.3,33.9c-0.3,0.5-1.1,0.8-2.2,0.8c-1.1,0-1.9-0.3-2.2-0.8v-3c0.7-0.2,1.5-0.3,2.2-0.3c1.1,0,1.9,0.3,2.2,0.8V33.9z M41.1,23.9
	c-2.6,0-4.7,0.7-6.2,1.6v-3.8c0.3-0.5,1.1-0.8,2.2-0.8c1.1,0,1.9,0.3,2.2,0.8v1.1h9.3v4.5C47.1,25.2,44.1,23.9,41.1,23.9z
	 M63.6,33.8c-0.3,0.5-1.1,0.8-2.2,0.8c-1.1,0-1.9-0.3-2.2-0.8V22.1c0.3-0.5,1.1-0.8,2.2-0.8c1.1,0,1.9,0.3,2.2,0.8V33.8z"/>
<path class="st0" d="M74.7,20.4h0.2v1h0.4v-1h0.2v-0.3h-0.8V20.4z"/>
<path class="st0" d="M76.3,20.1l-0.1,0.4h0l-0.1-0.4h-0.5v1.3h0.4v-0.7h0l0.1,0.4h0.2l0.1-0.4h0v0.7h0.4v-1.3H76.3z"/>
<path class="st0" d="M10.2,7.7L9.5,7.8l0,0.8h5.2l-0.1-2.2l-1.1,0l-0.1,1.4h-1.6V4.5h0.7l0.2,0.7h0.7V3.1l-0.7,0l-0.2,0.7h-0.7V0.7
	h1.6L13.4,2l1,0L14.5,0H9.5l0,0.7l0.8,0.1V7.7z"/>
<path class="st0" d="M15.7,7.8l-0.6,0.1l0,0.6h2.5l0-0.6l-0.6-0.1V3.9c0.1-0.1,0.1-0.2,0.2-0.3c0.1-0.1,0.3-0.1,0.4-0.1
	c0.5,0,0.7,0.3,0.7,0.9v4.1h2l0-0.6l-0.6-0.1V4.2c0-1.1-0.7-1.7-1.6-1.7c-0.6,0-1.1,0.2-1.5,0.7V2.9l-0.1-0.4L15,2.8v0.6l0.7,0.1
	L15.7,7.8L15.7,7.8z"/>
<path class="st0" d="M47.5,7.8L47,7.9l0,0.6h2.5l0-0.6l-0.6-0.1V3.9c0.1-0.1,0.1-0.2,0.2-0.3c0.1-0.1,0.3-0.1,0.4-0.1
	c0.5,0,0.7,0.3,0.7,0.9v4.1h2l0-0.6l-0.6-0.1V4.2c0-1.1-0.7-1.7-1.6-1.7c-0.6,0-1.1,0.2-1.5,0.7V2.9l-0.1-0.4l-1.7,0.2v0.6l0.7,0.1
	L47.5,7.8L47.5,7.8z"/>
<path class="st0" d="M21.1,7.3c0,1,0.7,1.4,1.4,1.4c0.4,0,0.8-0.1,1.2-0.2l-0.1-0.7H23c0,0-0.1,0-0.1,0c-0.3,0-0.4-0.3-0.4-0.5V3.5
	l1-0.1l0.1-0.8h-1V1.4l-1,0l-0.3,1.1l-0.8,0l0,0.8l0.7,0.1V7.3z"/>
<path class="st0" d="M63.7,7.8l-0.5,0.1l0,0.6h2.5l0-0.6l-0.6-0.1V3.7c0.2-0.1,0.4-0.2,0.6-0.2l0.1,0.9l0.9,0l0.2-1.6l-0.3-0.2
	c-0.6,0-1.3,0.2-1.8,0.6V3l-0.1-0.4L63,2.8v0.6l0.6,0.1L63.7,7.8L63.7,7.8z"/>
<path class="st0" d="M38.8,7.8l-0.5,0.1l0,0.6h2.5l0-0.6l-0.6-0.1V3.7c0.2-0.1,0.4-0.2,0.6-0.2L41,4.4l0.9,0l0.2-1.6l-0.3-0.2
	c-0.6,0-1.3,0.2-1.8,0.6V3l-0.1-0.4l-1.7,0.2v0.6l0.6,0.1L38.8,7.8L38.8,7.8z"/>
<path class="st0" d="M24.6,7.8l-0.5,0.1l0,0.6h2.5l0-0.6l-0.6-0.1V3.7c0.2-0.1,0.4-0.2,0.6-0.2l0.1,0.9l0.9,0l0.2-1.6l-0.3-0.2
	c-0.6,0-1.3,0.2-1.8,0.6V3l-0.1-0.4L24,2.8v0.6l0.6,0.1L24.6,7.8L24.6,7.8z"/>
<path class="st0" d="M30.5,8.7c0.7,0,1.3-0.2,1.9-0.6l-0.2-0.6c-0.4,0.2-0.8,0.3-1.2,0.3c-0.9,0-1.3-0.8-1.3-1.8l2.9,0l0.1-0.4
	c0-1.6-0.6-3.1-2.1-3.1c-1.8,0-2.4,1.6-2.4,3.1C28.1,7.3,28.9,8.7,30.5,8.7z M30.4,3.3c0.7,0,0.8,1.1,0.9,1.9l-1.8,0.1
	c0-0.6,0.1-1.2,0.4-1.8C30.1,3.4,30.2,3.3,30.4,3.3z"/>
<path class="st0" d="M55,8.7c0.7,0,1.3-0.2,1.9-0.6l-0.2-0.6c-0.4,0.2-0.8,0.3-1.2,0.3C54.5,7.8,54,7,54,5.9l2.9,0l0.1-0.4
	c0-1.6-0.6-3.1-2.1-3.1c-1.8,0-2.4,1.6-2.4,3.1C52.5,7.3,53.4,8.7,55,8.7z M54.9,3.3c0.7,0,0.8,1.1,0.9,1.9L54,5.3
	c0-0.6,0.1-1.2,0.4-1.8C54.5,3.4,54.7,3.3,54.9,3.3z"/>
<path class="st0" d="M44.7,8.7c0.7,0,1.3-0.2,1.9-0.6l-0.2-0.6c-0.4,0.2-0.8,0.3-1.2,0.3c-0.9,0-1.3-0.8-1.3-1.8l2.9,0l0.1-0.4
	c0-1.6-0.6-3.1-2.1-3.1c-1.8,0-2.4,1.6-2.4,3.1C42.3,7.3,43.1,8.7,44.7,8.7z M44.6,3.3c0.7,0,0.8,1.1,0.9,1.9l-1.8,0.1
	c0-0.6,0.1-1.2,0.4-1.8C44.3,3.4,44.4,3.3,44.6,3.3z"/>
<path class="st0" d="M57.8,6.9c0,1.3,0.8,1.7,1.7,1.7c0.5,0,1-0.2,1.4-0.6L61,8.6h1.6l0.1-0.6l-0.6-0.1V3L62,2.5l-1.9,0.2v0.6
	l0.7,0.1v4c-0.1,0.1-0.2,0.2-0.3,0.3c-0.2,0.1-0.3,0.1-0.5,0.1c-0.5,0-0.8-0.3-0.8-1V3l-0.1-0.5l-1.9,0.2v0.6l0.7,0.1L57.8,6.9
	L57.8,6.9z"/>
<path class="st0" d="M33.3,10.8l-0.6,0.1l0,0.6h2.5l0-0.6l-0.6-0.1V8.4c0.3,0.2,0.6,0.2,0.9,0.2c2.1,0,2.2-2.2,2.2-3.2
	c0-1.8-0.5-2.9-1.8-2.9c-0.6,0-1.1,0.3-1.5,0.7V3l-0.1-0.5l-1.7,0.2v0.6l0.7,0.1L33.3,10.8L33.3,10.8z M34.7,3.8
	c0.1-0.1,0.2-0.2,0.3-0.4c0.2-0.1,0.3-0.1,0.5-0.1c0.8,0,0.9,0.8,0.9,2.3c0,1.4-0.2,1.8-0.3,2c-0.2,0.1-0.5,0.2-0.7,0.2
	c-0.3,0-0.5,0-0.7-0.2L34.7,3.8L34.7,3.8z"/>
<path class="st0" d="M66.3,7.9L66.3,7.9L66.3,7.9l0.1,0.3l0,0l0,0.1h0.2l0-0.1l0,0V8.2h0c0,0.1,0.1,0.1,0.1,0.1h0.1l0-0.1l0,0
	c0,0-0.1-0.1-0.1-0.1c0,0,0.1-0.1,0.1-0.1c0-0.1-0.1-0.1-0.2-0.1L66.3,7.9L66.3,7.9z M66.6,8.1C66.6,8.1,66.6,8.1,66.6,8.1l-0.1,0.1
	V8L66.6,8.1C66.6,8,66.6,8,66.6,8.1z"/>
<path class="st0" d="M66.5,7.7C66.5,7.7,66.5,7.7,66.5,7.7c-0.3,0-0.5,0.2-0.5,0.4c0,0,0,0,0,0c0,0.2,0.2,0.4,0.5,0.4c0,0,0,0,0,0
	c0.2,0,0.4-0.2,0.4-0.4c0,0,0,0,0,0C67,7.9,66.8,7.7,66.5,7.7z M66.9,8.1C66.9,8.2,66.9,8.2,66.9,8.1c0,0.2-0.2,0.3-0.3,0.3
	c0,0,0,0,0,0c-0.2,0-0.3-0.1-0.3-0.3c0,0,0,0,0,0c0-0.2,0.2-0.3,0.3-0.3c0,0,0,0,0,0C66.7,7.9,66.9,8,66.9,8.1z"/>
</svg>
