<?xml version="1.0" encoding="utf-8"?>
<!-- Generator: Adobe Illustrator 23.0.5, SVG Export Plug-In . SVG Version: 6.00 Build 0)  -->
<svg version="1.1" id="Слой_1" xmlns="http://www.w3.org/2000/svg" xmlns:xlink="http://www.w3.org/1999/xlink" x="0px" y="0px"
	 width="100px" height="97px" viewBox="0 0 100 97" style="enable-background:new 0 0 100 97;" xml:space="preserve">
<style type="text/css">
	.st0{fill:#FFFFFF;}
	.st1{fill-rule:evenodd;clip-rule:evenodd;fill:#FFFFFF;}
</style>
<path class="st0" d="M92,24.2L50.4,0L8.8,24.2v42.1c0.4-0.2,0.7-0.3,1.1-0.5v-41L50.4,1.3L91,24.9V67c0.4,0.2,0.7,0.4,1.1,0.6V24.2z
	"/>
<path class="st0" d="M79.1,65.2L78.6,65L78,66.6l0.5,0.2c0.5,0.2,0.9,0.1,1.1-0.6C79.8,65.7,79.6,65.4,79.1,65.2z"/>
<path class="st0" d="M21,65.6l-0.5,0.2l0.6,1.7l0.5-0.2c0.4-0.2,0.7-0.5,0.5-1.1C21.8,65.6,21.5,65.4,21,65.6z"/>
<path class="st0" d="M29.2,63.3l0.1,2.7l1.1-0.3L29.2,63.3L29.2,63.3z"/>
<path class="st1" d="M88.3,66.3L88.3,66.3c1.4,0.7,2.9,1.4,4.4,2.1l-1.4,3.4l-2.8,7.2c-18-9.6-33.7-11.6-46.9-10.1
	c-10,1.1-18.6,4.1-25.8,7.2l0,0c-0.4,0.2-0.8,0.4-1.2,0.5c-1.8,0.8-3.5,1.6-5.2,2.4l0-0.1l0,0c-0.8-2-1.5-4-2.3-6l0,0
	c-0.6-1.5-1.1-2.9-1.7-4.4c1.1-0.6,2.3-1.1,3.4-1.7V67c0.4-0.2,0.7-0.3,1.1-0.5v0c1.9-0.9,3.8-1.7,5.7-2.5l0,0
	c7.3-2.9,15.8-5.6,25.4-6.6C54.4,56,70.2,57.7,88.3,66.3z M79.6,70.7L79.6,70.7c-0.2-0.2-0.1-0.5,0.1-1.1c0.4-1.2,0.4-1.7-0.3-2v0
	c0.7,0.1,1.1-0.3,1.4-1.1c0.3-0.9-0.1-1.6-1-1.9l-2.1-0.7l-1.9,5.6l1.1,0.4l0.8-2.4l0.6,0.2c0.5,0.2,0.6,0.5,0.4,0.9l-0.3,1.1
	c-0.1,0.2-0.1,0.4-0.1,0.6l0,0c0,0,0,0,0,0c0,0,0,0,0,0c0,0,0,0,0,0L79.6,70.7z M21.9,68.1l-0.6,0.2l0.7,2.2L21,70.9l-1.9-5.6l2-0.7
	c1.1-0.4,1.8,0.3,2.1,1.2C23.5,66.9,23,67.7,21.9,68.1z M24.9,69.5l-1.6-5.7l1.1-0.3l1.4,4.7l2-0.6l0.3,0.9L24.9,69.5z M31.3,67.8
	l-0.6-1.1L29.3,67l0,1.3l-1.2,0.3l0.1-6.1l1.4-0.3l2.9,5.4L31.3,67.8z M34.5,67.1l-1.2,0.2l-1-4.8l-1.3,0.3L31,61.8l3.7-0.8l0.2,0.9
	l-1.3,0.3L34.5,67.1z M36.3,66.8l-1-5.8l1.2-0.2l1,5.8L36.3,66.8z M40.8,66.1l-2-3.9h0l0.5,4.1l-1.1,0.1l-0.8-5.8l1.4-0.2l1.9,3.8h0
	l-0.5-4l1.1-0.1l0.8,5.8L40.8,66.1z M44.6,65.8c-1,0.1-1.9-0.2-2-1.7L42.3,60l1.2-0.1l0.3,4.1c0,0.6,0.2,1,0.8,1s0.7-0.5,0.6-1.1
	l-0.3-4.1l1.2-0.1l0.3,4.1C46.5,65.3,45.6,65.8,44.6,65.8z M51.2,60.8L51.2,60.8l-1,4.7l-0.9,0l-1.1-4.7h0l0.1,4.7l-1.1,0l-0.1-5.9
	l1.7,0l0.9,4.1h0l0.8-4.2l1.7,0l0.1,5.9l-1.1,0L51.2,60.8z M58,61.5L58,61.5l-1,4.2l-1.3-0.1l-0.6-6l1.1,0.1l0.3,4.4h0l1.1-4.3
	l1.1,0.1l0.3,4.4h0l1-4.3l1.1,0.1l-1.6,5.8l-1.3-0.1L58,61.5z M62.3,66.3l-1.2-0.2l0.8-5.8l1.2,0.2L62.3,66.3z M65.6,66.8l-0.7-4.3
	h0l-0.7,4.1l-1.1-0.2l1-5.8l1.3,0.2l0.7,4.2h0l0.7-4l1.1,0.2l-1,5.8L65.6,66.8z M70.1,67.8l-0.5-4.3h0l-0.9,4l-1.1-0.2l1.3-5.7
	l1.3,0.3l0.5,4.3h0l0.9-3.9l1.1,0.2l-1.3,5.7L70.1,67.8z M75.4,69.2l-3.2-0.9l1.6-5.7l3.1,0.9l-0.3,0.9l-2-0.6l-0.4,1.3l1.9,0.6
	l-0.3,0.9L74,66.2l-0.4,1.5l2.1,0.6L75.4,69.2z"/>
<path class="st0" d="M39.2,41l-1.5,7h3L39.2,41L39.2,41z"/>
<path class="st0" d="M27.2,36.1c0.3,0,0.6-0.2,0.8-0.7c0.2-0.4,0.4-1,0.4-1.6c0-0.7-0.1-1.2-0.4-1.6c-0.2-0.4-0.5-0.7-0.9-0.7
	c-0.3,0-0.6,0.2-0.8,0.7c-0.2,0.4-0.4,1-0.4,1.6c0,0.7,0.1,1.2,0.4,1.6C26.6,35.9,26.9,36.1,27.2,36.1z"/>
<path class="st0" d="M18.4,47.9l1.5-7h0l1.5,7H18.4z"/>
<path class="st1" d="M88.3,26.4v39.3c-18-8.5-33.8-10.3-47.4-8.8c-11,1.2-20.4,4.4-28.3,7.8V26.4L50.4,4.4L88.3,26.4z M83.1,38.2
	h0.5v0.5h-0.5V38.2z M83.1,38.8h0.5v0.5h-0.5V38.8z M83.1,39.4h0.5v0.5h-0.5V39.4z M83.1,39.9h0.5v0.5h-0.5V39.9z M83.1,40.5h0.5V41
	h-0.5V40.5z M83.1,41.1h0.5v0.5h-0.5V41.1z M83.1,41.7h0.5v0.5h-0.5V41.7z M83.1,42.2h0.5v0.5h-0.5V42.2z M83.1,42.8h0.5v0.5h-0.5
	V42.8z M83.1,43.4h0.5v0.5h-0.5V43.4z M83.1,44h0.5v0.5h-0.5V44z M83.1,44.5h0.5v0.5h-0.5V44.5z M79.9,52v-0.5h0.5V52H79.9z
	 M80.4,52v0.5h-0.5V52H80.4z M79.9,51.4v-0.5h0.5v0.5H79.9z M79.9,50.8v-0.5h0.5v0.5H79.9z M79.9,50.3v-0.5h0.5v0.5H79.9z
	 M79.9,49.7v-0.5h0.5v0.5H79.9z M79.9,49.1v-0.5h0.5v0.5H79.9z M79.9,48.5V48h0.5v0.5H79.9z M79.9,48v-0.5h0.5V48H79.9z M79.8,41.7
	h0.5v0.5h-0.5V41.7z M79.8,42.2h0.5v0.5h-0.5V42.2z M79.8,42.8h0.5v0.5h-0.5V42.8z M79.3,47.4v-0.5h0.5v0.5H79.3z M79.9,52.6v0.5
	h-0.5v-0.5H79.9z M79.3,40.5h0.5V41h-0.5V40.5z M79.3,41.1h0.5v0.5h-0.5V41.1z M79.3,42.8h0.5v0.5h-0.5V42.8z M78.8,46.8v-0.5h0.5
	v0.5H78.8z M79.3,53.2v0.5h-0.5v-0.5H79.3z M78.8,39.4h0.5v0.5h-0.5V39.4z M78.8,39.9h0.5v0.5h-0.5V39.9z M78.8,42.8h0.5v0.5h-0.5
	V42.8z M78.3,46.8v-0.5h0.5v0.5H78.3z M78.8,53.2v0.5h-0.5v-0.5H78.8z M78.2,38.2h0.5v0.5h-0.5V38.2z M78.2,38.8h0.5v0.5h-0.5V38.8z
	 M78.2,42.8h0.5v0.5h-0.5V42.8z M77.7,46.8v-0.5h0.5v0.5H77.7z M78.2,53.2v0.5h-0.5v-0.5H78.2z M77.7,39.4h0.5v0.5h-0.5V39.4z
	 M77.7,39.9h0.5v0.5h-0.5V39.9z M77.7,42.8h0.5v0.5h-0.5V42.8z M77.2,46.8v-0.5h0.5v0.5H77.2z M77.7,53.2v0.5h-0.5v-0.5H77.7z
	 M77.1,40.5h0.5V41h-0.5V40.5z M77.1,41.1h0.5v0.5h-0.5V41.1z M77.1,42.8h0.5v0.5h-0.5V42.8z M76.6,53.1v-0.5h0.5v0.5H76.6z
	 M77.1,53.2v0.5h-0.5v-0.5H77.1z M76.6,52.6V52h0.5v0.5H76.6z M76.6,52v-0.5h0.5V52H76.6z M76.6,51.4v-0.5h0.5v0.5H76.6z M76.6,50.8
	v-0.5h0.5v0.5H76.6z M76.6,50.3v-0.5h0.5v0.5H76.6z M76.6,49.7v-0.5h0.5v0.5H76.6z M76.6,49.1v-0.5h0.5v0.5H76.6z M76.6,48.5V48h0.5
	v0.5H76.6z M76.6,48v-0.5h0.5V48H76.6z M76.6,47.4v-0.5h0.5v0.5H76.6z M76.6,46.8v-0.5h0.5v0.5H76.6z M76.6,41.7h0.5v0.5h-0.5V41.7z
	 M76.6,42.2h0.5v0.5h-0.5V42.2z M76.6,42.8h0.5v0.5h-0.5V42.8z M76.1,46.8v-0.5h0.5v0.5H76.1z M76.6,53.2v0.5h-0.5v-0.5H76.6z
	 M76,42.8h0.5v0.5H76V42.8z M76,43.4h0.5v0.5H76V43.4z M76,44h0.5v0.5H76V44z M76,44.5h0.5v0.5H76V44.5z M76,45.1h0.5v0.5H76V45.1z
	 M75.5,46.3H76v0.5h-0.5V46.3z M75.5,53.2H76v0.5h-0.5V53.2z M73.3,47.9v-0.5h0.5v0.5H73.3z M73.8,48v0.5h-0.5V48H73.8z M73.3,38.2
	h0.5v0.5h-0.5V38.2z M72.8,49.1v-0.5h0.5v0.5H72.8z M73.3,53.2v0.5h-0.5v-0.5H73.3z M72.8,47.4v-0.5h0.5v0.5H72.8z M72.8,38.2h0.5
	v0.5h-0.5V38.2z M72.2,49.7v-0.5h0.5v0.5H72.2z M72.7,52.6v0.5h-0.5v-0.5H72.7z M72.2,46.8v-0.5h0.5v0.5H72.2z M72.2,38.2h0.5v0.5
	h-0.5V38.2z M71.7,50.3v-0.5h0.5v0.5H71.7z M72.2,52v0.5h-0.5V52H72.2z M71.7,46.8v-0.5h0.5v0.5H71.7z M71.7,38.2h0.5v0.5h-0.5V38.2
	z M71.1,50.3v-0.5h0.5v0.5H71.1z M71.7,51.4V52h-0.5v-0.5H71.7z M71.1,46.8v-0.5h0.5v0.5H71.1z M71.1,38.2h0.5v0.5h-0.5V38.2z
	 M71.1,38.8h0.5v0.5h-0.5V38.8z M71.1,39.4h0.5v0.5h-0.5V39.4z M71.1,39.9h0.5V41h-0.5V39.9z M71.1,41.1h0.5v0.5h-0.5V41.1z
	 M71.1,41.7h0.5v0.5h-0.5V41.7z M71.1,42.2h0.5v1.1h-0.5V42.2z M71.1,43.4h0.5v0.5h-0.5V43.4z M71.1,44h0.5V45h-0.5V44z M71.1,45.1
	h0.5v0.5h-0.5V45.1z M70.6,50.3v-0.5h0.5v0.5H70.6z M71.1,50.9v0.5h-0.5v-0.5H71.1z M70.6,46.8v-0.5h0.5v0.5H70.6z M70.6,38.2h0.5
	v0.5h-0.5V38.2z M70.1,50.3v-0.5h0.5v0.5H70.1z M70.6,50.3v0.5H70v-0.5H70.6z M70.1,46.8v-0.5h0.5v0.5H70.1z M70,38.2h0.5v0.5H70
	V38.2z M69.5,46.8v-0.5H70v0.5H69.5z M70,49.7v0.5h-0.5v-0.5H70z M69.5,38.2H70v0.5h-0.5V38.2z M68.9,53.1v-0.5h0.5v0.5H68.9z
	 M69.5,53.2v0.5h-0.5v-0.5H69.5z M68.9,52.6V52h0.5v0.5H68.9z M68.9,52v-0.5h0.5V52H68.9z M68.9,51.4v-0.5h0.5v0.5H68.9z M68.9,50.8
	v-0.5h0.5v0.5H68.9z M68.9,50.3v-0.5h0.5v0.5H68.9z M68.9,49.7v-0.5h0.5v0.5H68.9z M68.9,49.1v-0.5h0.5v0.5H68.9z M68.9,48.5V48h0.5
	v0.5H68.9z M68.9,47.9v-0.5h0.5v0.5H68.9z M68.9,47.4v-0.5h0.5v0.5H68.9z M68.9,46.8v-0.5h0.5v0.5H68.9z M68.9,38.2h0.5v0.5h-0.5
	V38.2z M66.7,38.2h0.5v0.5h-0.5V38.2z M66.7,45.1h0.5v0.5h-0.5V45.1z M66.2,53.1v-0.5h0.5v0.5H66.2z M66.8,53.2v0.5h-0.5v-0.5H66.8z
	 M66.2,52.5V52h0.5v0.5H66.2z M66.2,52v-0.5h0.5V52H66.2z M66.2,51.4v-0.5h0.5v0.5H66.2z M66.2,38.2h0.5v0.5h-0.5V38.2z M66.2,45.1
	h0.5v0.5h-0.5V45.1z M65.7,50.8v-0.5h0.5v0.5H65.7z M66.2,50.8v0.5h-0.5v-0.5H66.2z M65.7,50.2v-0.5h0.5v0.5H65.7z M65.6,38.2h0.5
	v0.5h-0.5V38.2z M65.6,38.8h0.5v0.5h-0.5V38.8z M65.6,39.4h0.5v0.5h-0.5V39.4z M65.6,39.9h0.5v0.5h-0.5V39.9z M65.6,40.5h0.5V41
	h-0.5V40.5z M65.6,41.1h0.5v0.5h-0.5V41.1z M65.6,41.7h0.5v0.5h-0.5V41.7z M65.6,42.2h0.5v0.5h-0.5V42.2z M65.6,42.8h0.5v0.5h-0.5
	V42.8z M65.6,43.4h0.5v0.5h-0.5V43.4z M65.6,44h0.5v0.5h-0.5V44z M65.6,44.5h0.5v0.5h-0.5V44.5z M65.6,45.1h0.5v0.5h-0.5V45.1z
	 M65.1,49.7v-0.5h0.5v0.5H65.1z M65.7,50.8v0.5h-0.5v-0.5H65.7z M65.1,49.1v-0.5h0.5v0.5H65.1z M65.1,38.2h0.5v0.5h-0.5V38.2z
	 M65.1,45.1h0.5v0.5h-0.5V45.1z M64.6,48.5V48h0.5v0.5H64.6z M65.1,50.8v0.5h-0.5v-0.5H65.1z M64.6,47.9v-0.5h0.5v0.5H64.6z
	 M64.6,38.2h0.5v0.5h-0.5V38.2z M64.6,45.1h0.5v0.5h-0.5V45.1z M64,46.3h0.5v0.5H64V46.3z M64,46.8h0.5v0.5H64V46.8z M64,50.8h0.5
	v0.5H64V50.8z M63.5,47.4H64v0.5h-0.5V47.4z M63.5,48H64v0.5h-0.5V48z M63.5,50.8H64v0.5h-0.5V50.8z M63,48.5h0.5v0.5H63V48.5z
	 M63,49.1h0.5v0.5H63V49.1z M63,50.8h0.5v0.5H63V50.8z M62.4,49.7h0.5v0.5h-0.5V49.7z M62.4,50.3h0.5v0.5h-0.5V50.3z M62.4,50.8h0.5
	v0.5h-0.5V50.8z M61.9,53.1v-0.5h0.5v0.5H61.9z M62.4,53.2v0.5h-0.5v-0.5H62.4z M61.9,52.5V52h0.5v0.5H61.9z M61.9,52v-0.5h0.5V52
	H61.9z M61.9,51.4v-0.5h0.5v0.5H61.9z M61.8,38.2h0.5v0.5h-0.5V38.2z M61.8,41.7h0.5v0.5h-0.5V41.7z M61.8,42.2h0.5v0.5h-0.5V42.2z
	 M61.8,42.8h0.5v0.5h-0.5V42.8z M61.8,43.4h0.5v0.5h-0.5V43.4z M61.8,44h0.5v0.5h-0.5V44z M61.8,44.5h0.5v0.5h-0.5V44.5z M61.8,45.1
	h0.5v0.5h-0.5V45.1z M61.3,42.2v-0.5h0.5v0.5H61.3z M61.8,45.1v0.5h-0.5v-0.5H61.8z M61.3,38.8v-0.5h0.5v0.5H61.3z M61,23.6l0.4,0.5
	L61,24.5l-0.4-0.5L61,23.6z M60.7,42.2v-0.5h0.5v0.5H60.7z M61.3,45.1v0.5h-0.5v-0.5H61.3z M60.7,38.8v-0.5h0.5v0.5H60.7z
	 M60.2,46.8v-0.5h0.5v0.5H60.2z M60.7,46.8v0.5h-0.5v-0.5H60.7z M60.2,38.2h0.5v0.5h-0.5V38.2z M60.2,45.1h0.5v0.5h-0.5V45.1z
	 M59.7,48h0.5v0.5h-0.5V48z M59.6,45.7v-0.5h0.5v0.5H59.6z M59.7,47.9v-0.5h0.5v0.5H59.7z M60.1,38.8h-0.5v-0.5h0.5V38.8z
	 M59.2,22.7l0.4,0.5l-0.4,0.5l-0.4-0.5L59.2,22.7z M59.6,45.1v0.5h-0.5v-0.5H59.6z M59.1,38.8v-0.5h0.5v0.5H59.1z M59.1,49.1h0.5
	v0.5h-0.5V49.1z M59.1,49.1v-0.5h0.5v0.5H59.1z M58.6,51.4v-0.5h0.5v0.5H58.6z M59.1,51.4V52h-0.5v-0.5H59.1z M58.6,50.8v-0.5h0.5
	v0.5H58.6z M58.6,50.3v-0.5h0.5v0.5H58.6z M58.6,38.2h0.5v0.5h-0.5V38.2z M58.6,45.1h0.5v0.5h-0.5V45.1z M58,53.1v-0.5h0.5v0.5H58z
	 M58.5,53.2v0.5H58v-0.5H58.5z M58,52.6V52h0.5v0.5H58z M58,38.8h0.5v0.5H58V38.8z M58,44.5h0.5v0.5H58V44.5z M58,40.5V41h-0.5v-0.5
	H58z M57.5,40.5v-0.5H58v0.5H57.5z M58,41.1v0.5h-0.5v-0.5H58z M58,41.7v0.5h-0.5v-0.5H58z M58,42.2v0.5h-0.5v-0.5H58z M58,42.8v0.5
	h-0.5v-0.5H58z M58,43.4v0.5h-0.5v-0.5H58z M58,44v0.5h-0.5V44H58z M57.5,52H58v0.5h-0.5V52z M57.5,52v-0.5H58V52H57.5z M58,39.9
	h-0.5v-0.5H58V39.9z M57.5,21.8l0.5,0.6l-0.5,0.6L57,22.4L57.5,21.8z M56.9,50.9h0.5v0.5h-0.5V50.9z M56.4,50.3h0.5v0.5h-0.5V50.3z
	 M55.7,20.9l0.5,0.6l-0.5,0.6l-0.5-0.6L55.7,20.9z M56.4,50.9v0.5h-0.5v-0.5H56.4z M55.8,45.1v0.5h-0.5v-0.5H55.8z M55.3,38.8v-0.5
	h0.5v0.5H55.3z M55.3,52h0.5v0.5h-0.5V52z M55.3,52v-0.5h0.5V52H55.3z M54.7,52.6V52h0.5v0.5H54.7z M55.3,52.6v0.5h-0.5v-0.5H55.3z
	 M54.7,38.2h0.5v0.5h-0.5V38.2z M54.2,45.1v-0.5h0.5v0.5H54.2z M54.7,45.1v0.5h-0.5v-0.5H54.7z M54.2,44.5V44h0.5v0.5H54.2z
	 M54.2,43.9v-0.5h0.5v0.5H54.2z M54.2,43.4v-0.5h0.5v0.5H54.2z M54.2,42.8v-0.5h0.5v0.5H54.2z M54.2,42.2v-0.5h0.5v0.5H54.2z
	 M54.2,41.6v-0.5h0.5v0.5H54.2z M54.2,41.1v-0.5h0.5v0.5H54.2z M54.2,40.5v-0.5h0.5v0.5H54.2z M54.2,39.9v-0.5h0.5v0.5H54.2z
	 M54.2,39.3v-0.5h0.5v0.5H54.2z M54.2,38.8v-0.5h0.5v0.5H54.2z M54,20.1l0.5,0.7L54,21.4l-0.5-0.6L54,20.1z M54.1,45.1v0.5h-0.5
	v-0.5H54.1z M53.6,38.8v-0.5h0.5v0.5H53.6z M53.7,49.1h0.5v0.5h-0.5V49.1z M53.7,49.1v-0.5h0.5v0.5H53.7z M53.1,38.2h0.5v0.5h-0.5
	V38.2z M53.6,47.4v0.5h-0.5v-0.5H53.6z M52.2,19.2l0.6,0.7l-0.6,0.7l-0.6-0.7L52.2,19.2z M50.4,18.3l0.6,0.7l-0.6,0.7l-0.6-0.7
	L50.4,18.3z M50.4,53.1v-0.5h0.5v0.5H50.4z M50.9,53.2v0.5h-0.5v-0.5H50.9z M50.4,52.6V52h0.5v0.5H50.4z M50.4,52v-0.5h0.5V52H50.4z
	 M50.4,51.4v-0.5h0.5v0.5H50.4z M50.4,44.5V44h0.5v0.5H50.4z M50.4,43.9v-0.5h0.5v0.5H50.4z M50.4,43.4v-0.5h0.5v0.5H50.4z
	 M50.4,42.8v-0.5h0.5v0.5H50.4z M50.4,42.2v-0.5h0.5v0.5H50.4z M50.4,41.6v-0.5h0.5v0.5H50.4z M50.4,41.1v-0.5h0.5v0.5H50.4z
	 M50.4,40.5v-0.5h0.5v0.5H50.4z M50.4,39.9v-0.5h0.5v0.5H50.4z M49.8,50.8v-0.5h0.5v0.5H49.8z M50.3,50.9v0.5h-0.5v-0.5H50.3z
	 M49.8,50.3v-0.5h0.5v0.5H49.8z M49.8,45.1v-0.5h0.5v0.5H49.8z M49.8,39.3v-0.5h0.5v0.5H49.8z M49.3,38.2h0.5v0.5h-0.5V38.2z
	 M49.3,45.1h0.5v0.5h-0.5V45.1z M49.3,48.6h0.5v0.5h-0.5V48.6z M49.3,49.1h0.5v0.5h-0.5V49.1z M49.3,50.9h0.5v0.5h-0.5V50.9z
	 M48.7,48.5V48h0.5v0.5H48.7z M49.2,50.9v0.5h-0.5v-0.5H49.2z M48.7,48v-0.5h0.5V48H48.7z M48.7,45.7v-0.5h0.5v0.5H48.7z M48.7,38.8
	v-0.5h0.5v0.5H48.7z M48.6,19.2l0.6,0.7l-0.6,0.7L48,19.9L48.6,19.2z M48.2,47.4v-0.5h0.5v0.5H48.2z M48.7,50.9v0.5h-0.5v-0.5H48.7z
	 M48.2,46.8v-0.5h0.5v0.5H48.2z M48.7,45.1v0.5h-0.5v-0.5H48.7z M48.2,38.8v-0.5h0.5v0.5H48.2z M47.6,38.2h0.5v0.5h-0.5V38.2z
	 M47.6,45.1h0.5v0.5h-0.5V45.1z M47.6,47.4h0.5V48h-0.5V47.4z M47.6,48h0.5v0.5h-0.5V48z M47.6,50.9h0.5v0.5h-0.5V50.9z M47.1,49.7
	v-0.5h0.5v0.5H47.1z M47.6,50.9v0.5h-0.5v-0.5H47.6z M47.1,49.1v-0.5h0.5v0.5H47.1z M47.1,45.7v-0.5h0.5v0.5H47.1z M47.1,45.1v-0.5
	h0.5v0.5H47.1z M47.1,44.5V44h0.5v0.5H47.1z M47.1,43.9v-0.5h0.5v0.5H47.1z M47.1,43.4v-0.5h0.5v0.5H47.1z M47.1,42.8v-0.5h0.5v0.5
	H47.1z M47.1,42.2v-0.5h0.5v0.5H47.1z M47.1,41.6v-0.5h0.5v0.5H47.1z M47.1,41.1v-0.5h0.5v0.5H47.1z M47.1,40.5v-0.5h0.5v0.5H47.1z
	 M47.1,39.9v-0.5h0.5v0.5H47.1z M47.1,39.3v-0.5h0.5v0.5H47.1z M47.1,38.8v-0.5h0.5v0.5H47.1z M46.9,20.1l0.5,0.7l-0.5,0.6l-0.5-0.6
	L46.9,20.1z M46.5,50.8v-0.5h0.5v0.5H46.5z M47,50.9v0.5h-0.5v-0.5H47z M46.5,50.3v-0.5h0.5v0.5H46.5z M46.5,45.7v-0.5h0.5v0.5H46.5
	z M46.5,38.8v-0.5h0.5v0.5H46.5z M46,38.2h0.5v0.5H46V38.2z M46,45.1h0.5v0.5H46V45.1z M46,50.9h0.5v0.5H46V50.9z M46,51.4h0.5V52
	H46V51.4z M46,52h0.5v0.5H46V52z M46,52.6h0.5v0.5H46V52.6z M46,53.2h0.5v0.5H46V53.2z M45.1,20.9l0.5,0.6l-0.5,0.6l-0.5-0.6
	L45.1,20.9z M43.3,21.8l0.5,0.6l-0.5,0.6l-0.5-0.6L43.3,21.8z M41.6,22.7l0.4,0.5l-0.4,0.5l-0.4-0.5L41.6,22.7z M39.8,23.6l0.4,0.5
	l-0.4,0.5l-0.4-0.5L39.8,23.6z M39.3,30.2h1.5v7.4h-1.5v-5.4l-1,1l-1-1L39.3,30.2z M41.2,38.3l4.1,15.5H42l-0.7-3.3h-4.1l-0.7,3.3
	h-3.2l4.1-15.5H41.2z M32.2,30.4c0.3-0.2,0.8-0.2,1.6-0.2c0.7,0,1.3,0.2,1.8,0.5c0.5,0.4,0.7,0.9,0.7,1.6c0,0.9-0.3,1.6-1,2.3
	c-0.6,0.7-1.2,1.2-1.6,1.4h2.6v1.5h-4.9V36c0.3,0,0.9-0.4,1.8-1.2c0.9-0.8,1.4-1.4,1.6-1.7c0.1-0.3,0.1-0.7,0-1
	c-0.2-0.3-0.5-0.5-1.2-0.5c-0.6,0-1,0.2-1.4,0.6l-1-1C31.5,30.8,31.8,30.6,32.2,30.4z M25.3,31.2c0.5-0.7,1.1-1.1,2-1.1
	c0.8,0,1.5,0.4,2,1.1c0.5,0.7,0.7,1.6,0.7,2.6c0,1-0.2,1.9-0.7,2.6c-0.5,0.7-1.1,1.1-2,1.1c-0.8,0-1.5-0.4-2-1.1
	c-0.5-0.7-0.7-1.6-0.7-2.6C24.5,32.8,24.8,31.9,25.3,31.2z M27.3,38.3l2.2,11.5h0.1l2.3-11.5h3.2l-3.5,15.5h-4L24,38.3H27.3z
	 M19.1,30.4c0.3-0.2,0.8-0.2,1.6-0.2c0.7,0,1.3,0.2,1.8,0.5c0.5,0.4,0.7,0.9,0.7,1.6c0,0.9-0.3,1.6-1,2.3c-0.6,0.7-1.2,1.2-1.6,1.4
	h2.6v1.5h-4.9V36c0.3,0,0.9-0.4,1.8-1.2c0.9-0.8,1.4-1.4,1.6-1.7c0.2-0.3,0.1-0.7,0-1c-0.2-0.3-0.5-0.5-1.2-0.5
	c-0.6,0-1,0.2-1.4,0.6l-1-1C18.5,30.8,18.8,30.6,19.1,30.4z M17.2,53.8h-3.2L18,38.3h3.8l4.1,15.5h-3.2L22,50.5h-4.1L17.2,53.8z
	 M53.1,47.4h-0.5v-0.5h0.5V47.4z M53.1,46.8h-0.5v-0.5h0.5V46.8z M53.1,45.1h0.5v0.5h-0.5V45.1z M53.1,48h0.5v0.5h-0.5V48z M54.7,52
	h-0.5v-0.5h0.5V52z M54.7,51.4h-0.5v-0.5h0.5V51.4z M54.7,50.8h-0.5v-0.5h0.5V50.8z M54.7,50.3h-0.5v-0.5h0.5V50.3z M54.7,45.1h0.5
	v0.5h-0.5V45.1z M54.7,53.2h0.5v0.5h-0.5V53.2z M80.9,45.7h-0.5v-0.5h0.5V45.7z M80.9,45.1h-0.5v-0.5h0.5V45.1z M80.9,44.5h-0.5V44
	h0.5V44.5z M80.9,43.9h-0.5v-0.5h0.5V43.9z M80.9,43.4h-0.5v-0.5h0.5V43.4z M83.1,52.6h-0.5V52h0.5V52.6z M83.1,47.9h-0.5v-0.5h0.5
	V47.9z M83.1,45.1h0.5v0.5h-0.5V45.1z M83.7,53.1h-0.5v-0.5h0.5V53.1z M83.7,48.5h-0.5V48h0.5V48.5z M83.7,47.4h-0.5v-0.5h0.5V47.4z
	 M83.7,45.1h0.5v0.5h-0.5V45.1z M84.2,53.7h-0.5v-0.5h0.5V53.7z M84.2,49.1h-0.5v-0.5h0.5V49.1z M84.2,46.8h-0.5v-0.5h0.5V46.8z
	 M84.2,45.1h0.5v0.5h-0.5V45.1z M84.8,53.7h-0.5v-0.5h0.5V53.7z M84.8,49.7h-0.5v-0.5h0.5V49.7z M84.8,46.8h-0.5v-0.5h0.5V46.8z
	 M84.8,45.1h0.5v0.5h-0.5V45.1z M85.3,53.7h-0.5v-0.5h0.5V53.7z M85.3,50.3h-0.5v-0.5h0.5V50.3z M85.3,46.8h-0.5v-0.5h0.5V46.8z
	 M85.3,45.1h0.5v0.5h-0.5V45.1z M85.9,53.7h-0.5v-0.5h0.5V53.7z M85.9,50.8h-0.5v-0.5h0.5V50.8z M85.9,46.8h-0.5v-0.5h0.5V46.8z
	 M85.9,45.1h0.5v0.5h-0.5V45.1z M86.4,53.7h-0.5v-0.5h0.5V53.7z M86.4,51.4h-0.5v-0.5h0.5V51.4z M86.4,46.8h-0.5v-0.5h0.5V46.8z
	 M86.4,45.1h0.5v0.5h-0.5V45.1z M87,53.1h-0.5v-0.5H87V53.1z M87,52h-0.5v-0.5H87V52z M87,47.4h-0.5v-0.5H87V47.4z M87,45.1h0.5v0.5
	H87V45.1z M87.5,52.6H87V52h0.5V52.6z M87.5,47.9H87v-0.5h0.5V47.9z"/>
<path class="st0" d="M6.6,73.2l2.2,6.1l0,0L9,79.7l0,0.1l0,0l0,0.1c3.9-1.9,8.4-3.9,13.4-5.8l1.4,6l-1.7,0.5l0,0
	c-6,1.6-11.8,3.6-17.5,6c0.7-2.8,1-4.2,1.9-7.1c-2.5-1.5-3.8-2.2-6.5-3.6C2.2,74.9,4.4,74.1,6.6,73.2z"/>
<path class="st0" d="M22.9,81l27.5,16l27.4-15.9l-1.5-0.4L50.4,95.7L24.3,80.6l0,0L22.9,81z"/>
<path class="st0" d="M76.1,80l0.6,0.2c0.1,0,0.2,0,0.3,0.1l0,0l1.5,0.4l0,0c5.8,1.6,11.3,3.5,16.9,5.8c-0.7-2.8-1-4.3-1.9-7.1
	c2.5-1.5,3.8-2.2,6.5-3.6c-2.6-1.1-5.3-2.1-8-3.1l-0.4-0.2L89,79.4l0,0l0,0l0,0.1l0,0l-0.2,0.4c-3.9-2.1-7.6-3.8-11.3-5.2L76.1,80z"
	/>
<path class="st1" d="M76.8,74.4c-13.2-5-25-6-35.2-4.9c-6.8,0.7-13,2.4-18.6,4.4l0.8,3.2l26.6,15.5l25.6-14.9L76.8,74.4z M39.4,73
	l0.4,0.5l0.4-0.5l-0.4-0.5L39.4,73z M41.1,73.8l0.4,0.5l0.4-0.5l-0.4-0.5L41.1,73.8z M42.9,74.6l0.5,0.6l0.5-0.6l-0.5-0.6L42.9,74.6
	z M44.6,75.5l0.5,0.6l0.5-0.6l-0.5-0.6L44.6,75.5z M46.3,76.3l0.5,0.7l0.5-0.7l-0.5-0.6L46.3,76.3z M48,77.1l0.6,0.7l0.6-0.7
	l-0.6-0.7L48,77.1z M49.8,78l0.6,0.7L51,78l-0.6-0.7L49.8,78z M51.6,77.1l0.6,0.7l0.6-0.7l-0.6-0.7L51.6,77.1z M53.4,76.3l0.5,0.7
	l0.5-0.7L54,75.6L53.4,76.3z M55.2,75.5l0.5,0.6l0.5-0.6l-0.5-0.6L55.2,75.5z M57,74.6l0.5,0.6l0.5-0.6l-0.5-0.6L57,74.6z
	 M58.8,73.8l0.4,0.5l0.4-0.5l-0.4-0.5L58.8,73.8z M60.6,73l0.4,0.5l0.4-0.5L61,72.5L60.6,73z"/>
</svg>
