<svg width="110" height="79" fill="none" xmlns="http://www.w3.org/2000/svg"><path d="M46.16 39.559H9.734v-3.294h38.604l-2.178 3.294zm-2.21 3.327H9.734v3.294h32.038l2.178-3.294zm-4.389 6.621H9.734v3.294h27.65l2.177-3.294zm19.863-23.19v39.53H20.853l-9.04 12.155V65.846H0v-39.53h59.424zm-3.233 3.392H3.234v32.909h11.284v7.181l5.18-7.181h36.493V29.709z" fill="#1C3C70"/><path d="M65.892 13.242H39.43V9.948h28.64l-2.178 3.294zM39.43 16.471v3.294h22.14l2.177-3.294H39.43zM29.53 0v23.224h3.234V3.393h43.058v26.32h-3.002l-2.31.033h-.726v7.181l-.89-1.284-1.188-1.647-3.036-4.283h-2.376v3.228h1.518l2.442 3.229v.033l1.188 1.614 4.916 6.555v-11.43h6.698V0H29.531z" fill="#005EAB"/></svg>