<svg width="201" height="184" viewBox="0 0 201 184" fill="none" xmlns="http://www.w3.org/2000/svg">
<path d="M181.594 9.59375C171.99 9.59375 164.132 17.4558 164.132 27.065C164.132 32.3064 165.878 36.6742 169.37 39.2949L127.463 102.191C125.717 102.191 123.97 102.191 122.224 102.191C117.859 102.191 114.367 103.065 111.747 105.686L94.2858 93.4558C95.1589 90.8351 96.032 88.2144 96.032 85.5938C96.032 75.9846 88.1743 68.1225 78.5704 68.1225C68.9666 68.1225 61.1089 75.9846 61.1089 85.5938C61.1089 89.9616 62.8551 94.3294 65.4743 97.8236L42.7743 131.893C41.0281 131.019 38.4089 130.145 35.7897 130.145C26.1858 130.145 18.3281 138.008 18.3281 147.617C18.3281 157.226 26.1858 165.088 35.7897 165.088C45.3935 165.088 53.2512 157.226 53.2512 147.617C53.2512 143.249 51.5051 139.755 49.7589 136.26L72.4589 101.318C74.205 102.191 76.8243 102.191 78.5704 102.191C82.0627 102.191 86.4281 101.318 89.0474 98.6972L106.509 110.927C104.763 114.421 103.89 117.042 103.89 119.663C103.89 129.272 111.747 137.134 121.351 137.134C130.955 137.134 138.813 129.272 138.813 119.663C138.813 115.295 137.067 110.927 134.447 108.306L176.355 45.4098C178.101 45.4098 179.847 46.2834 181.594 46.2834C191.197 46.2834 199.055 38.4213 199.055 28.8121C199.055 19.2029 192.07 9.59375 181.594 9.59375ZM34.9166 156.352C29.6781 156.352 26.1858 151.985 26.1858 147.617C26.1858 143.249 30.5512 138.881 34.9166 138.881C35.7897 138.881 36.6627 138.881 36.6627 138.881C40.155 139.755 41.9012 141.502 42.7743 144.996C42.7743 145.87 43.6474 146.743 43.6474 147.617C43.6474 152.858 40.155 156.352 34.9166 156.352ZM86.4281 86.4673C86.4281 89.9616 83.8089 92.5823 81.1897 93.4558C80.3166 93.4558 79.4435 94.3294 77.6974 94.3294H76.8243C73.332 94.3294 71.5858 92.5823 69.8397 89.9616C68.9666 88.2144 68.9666 86.4673 68.9666 85.5938C68.9666 80.3524 73.332 76.8581 77.6974 76.8581C82.0627 76.8581 86.4281 81.2259 86.4281 85.5938C87.3012 85.5938 87.3012 86.4673 86.4281 86.4673ZM122.224 128.398C116.986 128.398 113.494 124.031 113.494 119.663C113.494 118.789 113.494 118.789 113.494 117.916C114.367 115.295 116.113 112.674 118.732 110.927C119.605 110.927 120.478 110.054 122.224 110.054C122.224 110.054 122.224 110.054 123.097 110.054C126.59 110.054 129.209 111.801 130.955 115.295C131.828 116.168 131.828 117.916 131.828 118.789C130.955 124.904 126.59 128.398 122.224 128.398ZM182.467 36.6742C178.974 36.6742 176.355 34.9271 174.609 32.3064C173.736 30.5593 172.863 28.8121 172.863 27.065C172.863 21.8236 177.228 18.3294 181.594 18.3294C186.832 18.3294 190.324 22.6972 190.324 27.065C191.197 32.3064 186.832 36.6742 182.467 36.6742Z" fill="#FE8836"/>
<path d="M8.73077 174.713H200.808L194.696 183.448H0V6.11494L8.73077 0V174.713ZM161.519 124.92H151.042L124.85 165.103H135.327L161.519 124.92ZM154.535 165.103L180.727 124.92H170.25L144.058 165.103H154.535ZM174.615 165.103L200.808 124.92H190.331L164.138 165.103H174.615Z" fill="white"/>
</svg>
