<svg width="192" height="187" viewBox="0 0 192 187" fill="none" xmlns="http://www.w3.org/2000/svg">
<path d="M157.979 63.5853V0H26.9857L0.316406 40.0352V186.046H157.195V153.076H149.351V178.196H8.16032V43.9602H30.9077L55.2238 7.06504H150.135V62.8003H157.979V63.5853ZM26.9857 36.1102H12.0823L30.9077 7.06504H45.0267L26.9857 36.1102ZM131.31 72.2204H53.6551V64.3703H131.31V72.2204ZM110.131 105.191V113.826H53.6551V105.191H110.131ZM53.6551 143.656H131.31V152.291H53.6551V143.656Z" fill="white"/>
<path d="M26.201 72.9984L16.0039 56.5133H25.4166L31.6917 66.7184L46.5952 44.7383H56.0079L37.1825 73.7834H26.201V72.9984ZM31.6917 107.539L25.4166 97.3336H16.0039L26.9854 113.819H37.1825L56.0079 84.7735H46.5952L31.6917 107.539ZM31.6917 148.359L25.4166 138.154H16.0039L26.201 155.424H36.3981L55.2235 126.379H45.8108L31.6917 148.359Z" fill="#FE8836"/>
<path d="M154.841 71.4459C134.447 71.4459 117.974 87.931 117.974 108.341C117.974 128.751 134.447 145.236 154.841 145.236C175.235 145.236 191.707 128.751 191.707 108.341C191.707 87.931 174.451 71.4459 154.841 71.4459ZM154.841 137.386C139.153 137.386 125.818 124.041 125.818 108.341C125.818 92.641 139.153 79.2959 154.841 79.2959C170.529 79.2959 183.863 92.641 183.863 108.341C183.863 124.041 170.529 137.386 154.841 137.386ZM175.235 104.416V112.266H157.978V129.536H150.134V112.266H132.878V104.416H150.134V87.146H157.978V104.416H175.235Z" fill="#FE8836"/>
</svg>
