<svg width="199" height="186" fill="none" xmlns="http://www.w3.org/2000/svg"><path d="M52.368 47.937h96.743l-5.791 8.775H52.368v-8.775zM138.879 63.614h-86.51v8.74h80.719l5.791-8.74zM128.505 79.243H52.368v8.74h70.31l5.827-8.74zM119.054 94.91H52.369v8.74h60.894l5.791-8.74z" fill="#fff" fill-opacity=".44"/><path fill-rule="evenodd" clip-rule="evenodd" d="m165.062 57.356 33.112 28.351V186h-8.278V93.985h-.462l-43.948 38.726L180.216 186h-9.917l-31.136-47.747-40.111 35.315-40.75-35.883L26.821 186H16.92l35.093-53.822L8.704 94.021h-.426V186H0V85.707l33.112-28.351V22.468h40.786L99.088.902l25.188 21.566h40.786v34.888zm20.855 28.849-20.89-17.906V104.5l19.078-16.804.036.035 1.776-1.527zm-74.395-63.773L99.087 11.81l-12.4 10.623h24.835zm45.227 89.317V30.746H41.425v81.039l57.662 50.769 57.662-50.805zm-123.637-7.283V68.299l-20.82 17.834 20.82 18.333z" fill="#fff" fill-opacity=".44"/></svg>