<svg width="110" height="68" fill="none" xmlns="http://www.w3.org/2000/svg"><path d="M49.14 14.606a5.648 5.648 0 0 0-2.846-4.87h-.001a4.586 4.586 0 0 0-1.067-.447l-.216-.059.107-.197a7.527 7.527 0 0 0 .962-3.516A5.508 5.508 0 0 0 43.107.626 5.531 5.531 0 0 0 35.52 3.24a5.54 5.54 0 0 0-.47 2.878 7.592 7.592 0 0 0 .94 2.906l.11.194-.214.062a4.806 4.806 0 0 0-1.078.451 5.68 5.68 0 0 0-2.849 4.876v4.758h17.18v-4.76zM40.232 3.303a2.04 2.04 0 0 1 1.678.457 2.332 2.332 0 0 1 .877 1.745 4.375 4.375 0 0 1-1.428 3.072 1.328 1.328 0 0 1-.922.368c-.359-.09-.68-.29-.919-.572a4.26 4.26 0 0 1-1.195-3.156 2.297 2.297 0 0 1 1.909-1.914zm5.615 12.772H35.253v-1.453a2.352 2.352 0 0 1 1.188-2.04c.446-.219.94-.321 1.438-.298.198-.006 1.323-.038 2.668-.045 1.198.007 2.209.032 2.703.045.485-.02.968.082 1.405.295a2.35 2.35 0 0 1 1.191 2.032l.001 1.464zm-12.654 22.85a5.668 5.668 0 0 0-2.848-4.876h-.002a4.655 4.655 0 0 0-1.067-.444l-.214-.062.107-.194a7.444 7.444 0 0 0 .962-3.514 5.607 5.607 0 0 0-2.926-4.872 5.543 5.543 0 0 0-7.617 2.556 5.519 5.519 0 0 0-.482 2.917 7.639 7.639 0 0 0 .936 2.905l.11.195-.213.062a4.737 4.737 0 0 0-1.077.45 5.677 5.677 0 0 0-2.848 4.883v4.752h17.181l-.002-4.758zM24.29 27.623a2.016 2.016 0 0 1 1.675.454 2.345 2.345 0 0 1 .871 1.748 4.363 4.363 0 0 1-1.422 3.069c-.245.237-.573.37-.914.371a1.742 1.742 0 0 1-.93-.576 4.313 4.313 0 0 1-1.194-3.155 2.309 2.309 0 0 1 1.914-1.91zm5.608 12.775H19.304v-1.456a2.368 2.368 0 0 1 1.186-2.046c.45-.216.947-.316 1.445-.29l.17-.004c.398-.01 1.36-.039 2.49-.042 1.05.003 1.944.028 2.41.038l.296.007c.486-.024.97.076 1.405.291a2.36 2.36 0 0 1 1.192 2.04v1.462zM14.333 58.37a4.643 4.643 0 0 0-1.071-.45l-.216-.063.107-.194a7.432 7.432 0 0 0 .962-3.51 5.608 5.608 0 0 0-2.926-4.872 5.54 5.54 0 0 0-7.618 2.554 5.516 5.516 0 0 0-.48 2.918 7.65 7.65 0 0 0 .935 2.906l.11.194-.214.063a4.83 4.83 0 0 0-1.076.447A5.686 5.686 0 0 0 0 63.245v4.754h17.18v-4.764a5.653 5.653 0 0 0-2.847-4.866zm-6.056-6.43a1.914 1.914 0 0 1 1.674.458 2.312 2.312 0 0 1 .87 1.745A4.362 4.362 0 0 1 9.4 57.21c-.246.237-.574.37-.915.37a1.824 1.824 0 0 1-.93-.575 4.321 4.321 0 0 1-1.195-3.16 2.276 2.276 0 0 1 1.918-1.906zm5.607 12.773H3.29v-1.456a2.366 2.366 0 0 1 1.187-2.042c.447-.218.942-.32 1.44-.299l.141-.003c.377-.01 1.36-.036 2.526-.039 1.087.004 2.014.025 2.459.036l.24.007c.486-.02.97.082 1.408.295a2.372 2.372 0 0 1 1.194 2.035v1.466zM68.66 9.736a4.586 4.586 0 0 0-1.066-.448l-.216-.059.107-.197a7.526 7.526 0 0 0 .962-3.517A5.509 5.509 0 0 0 65.475.624a5.531 5.531 0 0 0-7.587 2.615 5.537 5.537 0 0 0-.47 2.88 7.586 7.586 0 0 0 .939 2.906l.11.194-.214.062a4.806 4.806 0 0 0-1.078.451 5.68 5.68 0 0 0-2.849 4.876v4.758h17.18v-4.76a5.648 5.648 0 0 0-2.846-4.87zm-6.062-6.433a2.04 2.04 0 0 1 1.678.457 2.332 2.332 0 0 1 .877 1.745 4.375 4.375 0 0 1-1.428 3.072 1.327 1.327 0 0 1-.922.368c-.359-.09-.68-.29-.919-.572a4.258 4.258 0 0 1-1.194-3.156 2.297 2.297 0 0 1 1.908-1.914zm5.615 12.772H57.62v-1.453a2.353 2.353 0 0 1 1.189-2.04c.446-.22.941-.322 1.438-.299.198-.006 1.323-.038 2.668-.045 1.198.007 2.209.032 2.703.045.486-.02.968.082 1.405.295a2.35 2.35 0 0 1 1.191 2.032v1.465zM52.711 34.049h-.002a4.655 4.655 0 0 0-1.067-.444l-.214-.062.107-.194a7.441 7.441 0 0 0 .962-3.514 5.607 5.607 0 0 0-2.926-4.872 5.543 5.543 0 0 0-7.617 2.556 5.519 5.519 0 0 0-.482 2.917 7.627 7.627 0 0 0 .936 2.905l.11.195-.213.062a4.737 4.737 0 0 0-1.077.45 5.677 5.677 0 0 0-2.848 4.883v4.752H55.56v-4.759a5.67 5.67 0 0 0-2.85-4.875zm-6.055-6.426a2.016 2.016 0 0 1 1.674.454 2.346 2.346 0 0 1 .873 1.748 4.363 4.363 0 0 1-1.423 3.069c-.245.237-.573.37-.914.371a1.742 1.742 0 0 1-.93-.576 4.313 4.313 0 0 1-1.194-3.155 2.31 2.31 0 0 1 1.914-1.91zm5.607 12.775H41.67v-1.456a2.368 2.368 0 0 1 1.186-2.046 2.98 2.98 0 0 1 1.445-.29l.17-.004c.398-.01 1.36-.039 2.49-.042 1.05.003 1.944.028 2.41.038l.296.007c.486-.024.97.076 1.405.291a2.359 2.359 0 0 1 1.192 2.04v1.462zM36.698 58.37h-.002a4.648 4.648 0 0 0-1.07-.45l-.216-.063.106-.194a7.43 7.43 0 0 0 .962-3.51 5.606 5.606 0 0 0-2.926-4.872 5.54 5.54 0 0 0-7.618 2.554 5.514 5.514 0 0 0-.48 2.918 7.648 7.648 0 0 0 .936 2.906l.109.194-.213.063a4.83 4.83 0 0 0-1.077.447 5.687 5.687 0 0 0-2.846 4.883v4.754h17.18v-4.764a5.652 5.652 0 0 0-2.844-4.866zm-6.055-6.43a1.914 1.914 0 0 1 1.675.458 2.315 2.315 0 0 1 .87 1.745 4.362 4.362 0 0 1-1.423 3.069c-.246.237-.574.37-.915.37a1.824 1.824 0 0 1-.93-.575 4.322 4.322 0 0 1-1.195-3.16 2.275 2.275 0 0 1 1.918-1.906zm5.608 12.773H25.655v-1.456a2.367 2.367 0 0 1 1.186-2.042c.448-.218.943-.32 1.44-.299l.143-.003c.376-.01 1.36-.036 2.525-.039 1.087.004 2.015.025 2.46.036l.239.007c.487-.02.97.082 1.408.295a2.372 2.372 0 0 1 1.193 2.035l.002 1.466z" fill="#1C3C70"/><path d="M46.162 64.31h38.954V68H43.703l2.459-3.69zm32.194-48.634-2.455 3.69h9.216v-3.69h-6.761zm-18.54 28.006h25.3v-3.69H62.26l-2.445 3.69z" fill="#005EAB"/></svg>