<svg width="68" height="57" fill="none" xmlns="http://www.w3.org/2000/svg"><path fill-rule="evenodd" clip-rule="evenodd" d="M52.9 30.201c.7.8 1.3 1.6 1.8 2.5.22.367.386.734.578 1.299h-3.646a8.276 8.276 0 0 0-1.232-1.599c-.6-.7-1.3-1.3-2.1-1.7-1.8-.9-3.5-1.2-5.5-1.2 0 0-2-.1-3.5-.1-1.2-.1-2.5-.1-3.9-.1l-7.7.1-.033.003c-1.69.099-3.479.204-5.267 1.198-.8.4-1.5 1-2.1 1.6-.7.7-1.3 1.6-1.7 2.5-.7 1.3-1.1 2.7-1.1 4.2v7.1H45v3.1H14.5v-4.4H6.4v-4.7H.5v-7.4c0-1.5.4-3 1.1-4.3.3-.7.7-1.2 1.2-1.8.6-.7 1.4-1.3 2.2-1.8.7-.4 1.6-.7 2.7-.9l1.6-.3-.9-1.4c-1.2-1.9-2-3.9-2.2-5.9-.4-3.2 1-6.3 3.7-8.2 2-1.4 4.4-1.9 6.8-1.4.4-.4.8-.8 1.3-1.1 2.5-1.8 5.7-2.4 8.8-1.6l.2.1c.4-.4.8-.7 1.2-1 3.8-2.6 8.9-2.9 12.9-.7 4 2.1 6.5 6.3 6.6 10.9 0 3.2-1.1 6.7-3.1 9.7l-1.8 2.7 3.2.7c1.6.3 2.8.7 3.8 1.3 1.2.7 2.2 1.6 3.1 2.6zm-28.3-23.4c-.5 0-1.1 0-1.6.1-2.9.5-6 2.9-6.3 6.6-.3 3.2 1.1 6.9 3.4 9.2 1.2 1.2 2.5 1.9 3.8 2 1 0 1.9-.3 2.7-.8l-.6-.9c-1.7-2.6-2.8-5.5-3.1-8.4-.3-2.8.4-5.5 1.8-7.8h-.1zm-10.5 2.6c-2.3.4-4.8 2.3-5 5.1-.2 2.5.9 5.4 2.8 7.4 1 1 2 1.5 3 1.6.5 0 1-.2 1.5-.4l-.3-.4c-1.4-2.2-2.3-4.6-2.6-7.1-.2-2.2.2-4.3 1.2-6.2h-.6zm-7.8 26.3c0-1.8.4-3.6 1.3-5.2.4-.8.9-1.5 1.5-2.1.7-.8 1.5-1.5 2.4-2H9.9c-1.1.1-2.2.2-3.4.8-.5.3-1 .7-1.4 1.1-.4.4-.8 1-1.1 1.6-.5.9-.7 1.8-.7 2.7v4.4h3v-1.3zm9.6-3c.4-.9 1-1.7 1.7-2.5.8-.9 1.8-1.7 3-2.4-1.3.1-2.7.1-2.7.1l-.084.007c-1.28.098-2.748.21-4.216.993-.6.3-1.1.7-1.7 1.3-.6.5-1 1.2-1.4 2-.6 1.1-.9 2.3-.9 3.4v5.7h4.8v-2.6c0-2.2.5-4.2 1.5-6zm19.2-6.9c1.7 0 3.2-.7 4.5-1.9 3-2.7 4.9-6.8 4.9-10.8-.1-2.7-1.4-5.4-3.6-7.2-1.6-1.3-3.6-2-5.6-2-.5 0-1 0-1.5.1-1.3.3-2.7.9-3.9 1.7-.8.5-1.4 1.1-2 1.8-1 1.3-1.8 2.8-1.9 4.6-.3 3.3.9 7 3 9.8.4.5 1.7 1.8 1.9 2 .6.5 2.4 1.9 4.2 1.9z" fill="#fff"/><path fill-rule="evenodd" clip-rule="evenodd" d="M68 36H47v21h21V36zm-6.105 11.112.028.027c1.301.738 2.09 2.018 2.077 3.47V54H51v-3.391c.014-1.465.803-2.771 2.132-3.497.25-.119.526-.224.817-.317l.152-.04.139-.039-.07-.105-.083-.145a5.252 5.252 0 0 1-.692-2.085c-.152-1.439.526-2.85 1.758-3.669.679-.475 1.51-.712 2.368-.712.678 0 1.356.145 1.938.449a4.027 4.027 0 0 1 2.201 3.496 5.434 5.434 0 0 1-.72 2.508l-.083.145-.069.132.138.026.153.04a3.353 3.353 0 0 1 .816.316z" fill="#FE8836"/></svg>