<svg width="71" height="69" fill="none" xmlns="http://www.w3.org/2000/svg"><path d="M56.614 31.066c-1.273-6.1-4.868-11.348-10.095-14.783-5.255-3.434-11.534-4.616-17.674-3.352l-.442-2.17c6.72-1.374 13.607-.083 19.36 3.681 5.753 3.765 9.68 9.507 11.063 16.184l-2.212.44z" fill="#005EAB"/><path d="m33.74 6.227-8.712 5.11 8.713 4.754V6.227zM31.003 64.722c-11.948 0-22.68-8.325-25.197-20.388l2.185-.44c1.273 6.1 4.868 11.349 10.095 14.783 5.255 3.435 11.534 4.616 17.674 3.352l.442 2.171a25.877 25.877 0 0 1-5.2.522z" fill="#005EAB"/><path d="m30.864 68.68 8.712-5.084-8.712-4.753v9.837zM3.262 4.796l2.517 1.731v3.297L3.262 8.121V4.796zM3.262.043l2.517 1.704V5.07l-2.517-1.73V.042zM53.378 57.03l-1.743 2.5h-3.319l1.743-2.5h3.319zM58.19 57.03l-1.742 2.5h-3.32l1.715-2.5h3.347zM62.975 57.03l-1.715 2.5h-3.346l1.742-2.5h3.319z" fill="#005EAB"/><path d="m1.878 39.004-1.66 2.5H31.03l1.714-2.5H1.878zM3.26 9.824v8.408h2.49V11.5L3.26 9.824zM15.071 16.172h-2.489v5.77h2.49v-5.77z" fill="#1C3C70"/><path d="M3.262 21.395V41.48h26.44V21.395H3.263zM5.75 39.007V23.895h21.435v15.112H5.75z" fill="#1C3C70"/><path d="M3.26 14.25v9.644h21.187V14.25H3.26zm2.49 7.144v-4.671h16.18v4.67H5.75zM8.129 27.797v7.171h7.108v-7.171H8.129zm2.24 4.946v-2.72h2.628v2.72h-2.628zM17.422 27.797v7.171h7.108v-7.171h-7.108zm2.24 4.946v-2.72h2.628v2.72h-2.628zM69.998 58.06c-.304-2.72-1.908-5.139-4.315-6.54l-.22-.11-.029-.055c-.497-.247-.94-.412-1.41-.577l-.304-.082-.222-.028-2.433-.412 1.106-2.17.166-.33.276-.468c.94-1.73 1.494-3.791 1.55-5.66-.056-3.105-1.771-5.99-4.537-7.419-1.161-.632-2.544-.961-3.982-.961-1.798 0-3.458.522-4.785 1.483-2.572 1.786-3.983 4.782-3.623 7.886.138 1.594.663 3.243 1.493 4.699l.221.384.139.248 1.161 1.923-2.157.715-.332.11-.47.137a11.06 11.06 0 0 0-1.66.687c-2.406 1.374-3.982 3.792-4.314 6.567-.056.302-.056.632-.056.934V66h28.765v-6.98c.055-.356.027-.659-.028-.96zm-20.66-17.146c.22-3.023 2.876-5.056 5.337-5.523.305-.055.72-.137 1.162-.137 1.3 0 2.545.494 3.79 1.456 1.52 1.291 2.405 3.105 2.405 4.918 0 2.665-1.327 5.55-3.401 7.419-.775.797-1.909 1.264-3.181 1.264h-.11l-.111-.028c-.94-.11-2.075-.742-3.043-1.676-1.88-1.978-3.042-5.028-2.848-7.693zM67.95 63.857H43.446v-4.864c0-.302.028-.632.083-.934a6.49 6.49 0 0 1 3.236-4.753l.111-.055c1.162-.577 2.213-.742 3.568-.825h.387c.332 0 .83 0 1.41-.027.941 0 2.158-.027 3.458-.027 1.466 0 2.766.027 3.678.054h1.466c1.466.083 2.517.22 3.679.825l.11.055a6.591 6.591 0 0 1 3.236 4.753c.056.303.083.605.083.934v4.864z" fill="#1C3C70"/><path fill-rule="evenodd" clip-rule="evenodd" d="M50.714 34.528c1.373-.994 3.084-1.53 4.93-1.53 1.474 0 2.898.338 4.1.99 2.849 1.474 4.611 4.444 4.668 7.636v.012c-.056 1.908-.62 4.007-1.579 5.772l-.004.008-.273.46-.162.322-.952 1.868 2.093.355.233.029.33.089.009.003c.473.166.927.335 1.439.589l.074.037.028.055.154.077.007.004c2.47 1.438 4.12 3.921 4.436 6.719.057.31.087.635.03 1.017v7.21H41.012v-7.24c0-.293 0-.638.058-.96.343-2.85 1.964-5.334 4.438-6.747l.009-.005c.54-.283 1.107-.507 1.696-.702l.009-.003.466-.136.327-.109 1.86-.616-1.004-1.662-.137-.246-.22-.383-.001-.001c-.846-1.485-1.383-3.167-1.525-4.797-.37-3.198 1.084-6.28 3.727-8.115zm4.93-1.03c-1.75 0-3.357.508-4.639 1.436l-.004.003c-2.499 1.735-3.866 4.642-3.517 7.652v.007c.136 1.555.65 3.169 1.462 4.596l.223.386.136.244 1.321 2.188-2.795.926-.466.136c-.569.188-1.106.402-1.614.667-2.333 1.334-3.863 3.68-4.186 6.377v.008l-.002.008c-.05.276-.052.582-.052.889v6.729h28.265v-6.748l.003-.02a2.52 2.52 0 0 0-.027-.878l-.001-.008-.002-.009c-.294-2.637-1.848-4.984-4.184-6.347l-.289-.143-.027-.055c-.451-.219-.86-.37-1.3-.525l-.278-.076-.214-.026-2.77-.47 1.26-2.472.001-.001.17-.337.278-.47c.92-1.695 1.461-3.713 1.516-5.538-.056-3.015-1.722-5.812-4.4-7.195l-.005-.003c-1.121-.61-2.462-.931-3.863-.931zm-.854 2.126-.069.013c-2.387.453-4.923 2.42-5.134 5.295-.188 2.588.943 5.568 2.777 7.5.945.91 2.029 1.502 2.894 1.603l.015.002.097.024h.08c1.211 0 2.278-.445 3.001-1.188l.006-.006.006-.006c2.025-1.824 3.32-4.643 3.32-7.233 0-1.73-.846-3.475-2.314-4.724-1.212-.935-2.402-1.4-3.632-1.4-.385 0-.748.066-1.047.12zm-.085-.492c.294-.054.7-.128 1.132-.128 1.369 0 2.666.522 3.942 1.508l.01.007c1.57 1.334 2.493 3.215 2.493 5.11 0 2.737-1.358 5.685-3.478 7.598-.826.846-2.024 1.334-3.354 1.334h-.141l-.125-.031c-1.011-.124-2.186-.793-3.171-1.743l-.008-.007c-1.926-2.026-3.116-5.144-2.917-7.884.232-3.17 3.005-5.27 5.54-5.75l.003-.001.074-.013zm-2.457 17.517c-.585.027-1.085.027-1.416.027h-.38c-1.338.082-2.349.244-3.465.799l-.105.052a6.239 6.239 0 0 0-3.105 4.567l-.002.01c-.052.287-.079.601-.079.89v4.613h24.005v-4.614c0-.315-.026-.602-.079-.889l-.001-.01a6.341 6.341 0 0 0-3.107-4.568l-.108-.053c-1.11-.579-2.117-.715-3.57-.797H59.37a124.423 124.423 0 0 0-5.532-.04l-.14.001c-.528.006-1.018.012-1.45.012zM67.95 63.857v.25H43.196v-5.114c0-.314.029-.657.087-.974a6.74 6.74 0 0 1 3.36-4.931l.011-.006.055-.028.056-.027c1.205-.599 2.294-.767 3.664-.85h.402c.332 0 .824 0 1.399-.028h.012c.43 0 .92-.006 1.45-.012l.14-.002a124.926 124.926 0 0 1 5.549.041h1.476c1.474.083 2.569.223 3.778.852l.115.057.007.004a6.841 6.841 0 0 1 3.358 4.93c.058.316.086.632.086.974v4.864h-.25z" fill="#1C3C70"/></svg>