<svg width="264" height="117" fill="none" xmlns="http://www.w3.org/2000/svg"><path d="M49.282 23.2c-.842-.243-1.456-.54-1.841-.89a1.717 1.717 0 0 1-.573-1.31c0-.586.234-1.07.7-1.452.471-.386 1.082-.578 1.832-.578.511 0 .967.099 1.365.296.403.198.713.47.931.819.222.348.333.728.333 1.14h-.987c0-.45-.144-.803-.43-1.059-.286-.259-.69-.388-1.212-.388-.484 0-.863.107-1.136.322-.269.211-.404.506-.404.885 0 .303.128.56.384.772.26.208.697.4 1.314.573.62.174 1.105.367 1.453.578.351.208.61.452.777.731.17.28.256.609.256.988 0 .603-.235 1.087-.706 1.452-.47.361-1.1.542-1.887.542-.511 0-.989-.097-1.432-.291-.443-.198-.786-.467-1.028-.808a1.976 1.976 0 0 1-.358-1.162h.987c0 .45.165.807.496 1.07.334.259.78.388 1.335.388.518 0 .916-.106 1.192-.317.276-.211.414-.5.414-.864 0-.365-.128-.646-.384-.844-.255-.201-.72-.4-1.39-.593zM56.576 25.972c-.369.433-.91.65-1.622.65-.59 0-1.04-.171-1.35-.512-.307-.345-.462-.853-.465-1.524v-3.601h.946v3.575c0 .839.34 1.258 1.023 1.258.723 0 1.203-.27 1.442-.808v-4.025h.946v5.534h-.9l-.02-.547zM59.834 20.985l.03.695a2.016 2.016 0 0 1 1.657-.797c1.17 0 1.76.66 1.77 1.979v3.657h-.946v-3.662c-.003-.4-.096-.694-.276-.885-.178-.19-.456-.286-.834-.286-.307 0-.576.081-.808.245a1.667 1.667 0 0 0-.542.645v3.943h-.946v-5.534h.895zM52.445 73.853h-3.12l-.701 1.943h-1.013l2.844-7.447h.86l2.848 7.447h-1.007l-.711-1.943zm-2.824-.808h2.532l-1.268-3.484-1.264 3.483zM58.373 75.249c-.369.433-.91.65-1.622.65-.59 0-1.04-.171-1.35-.512-.307-.344-.462-.852-.466-1.524v-3.6h.947v3.574c0 .84.34 1.258 1.023 1.258.722 0 1.203-.269 1.442-.808v-4.025h.946v5.534h-.9l-.02-.547zM60.51 72.983c0-.862.2-1.548.599-2.056.399-.511.927-.767 1.585-.767.675 0 1.202.239 1.58.716l.047-.614h.864v5.401c0 .716-.213 1.28-.64 1.693-.422.413-.991.619-1.708.619-.398 0-.789-.085-1.17-.256-.383-.17-.674-.404-.875-.7l.49-.568c.407.501.903.752 1.489.752.46 0 .818-.13 1.074-.389.26-.26.389-.624.389-1.094v-.476c-.379.436-.895.654-1.55.654-.648 0-1.173-.26-1.575-.782-.4-.522-.599-1.233-.599-2.133zm.952.108c0 .624.128 1.115.383 1.473.256.354.614.532 1.074.532.597 0 1.035-.272 1.315-.814v-2.526c-.29-.529-.725-.793-1.304-.793-.46 0-.82.179-1.08.537-.259.358-.388.888-.388 1.59zM112.051 74.227h-3.119l-.701 1.943h-1.013l2.844-7.447h.859l2.849 7.447h-1.008l-.711-1.944zm-2.823-.809h2.532l-1.269-3.483-1.263 3.483zM117.979 75.623c-.368.433-.908.65-1.621.65-.59 0-1.04-.171-1.35-.512-.307-.344-.462-.853-.466-1.524v-3.601h.946v3.575c0 .839.341 1.258 1.023 1.258.723 0 1.204-.27 1.443-.808v-4.025h.946v5.534h-.9l-.021-.547zM120.117 73.357c0-.863.2-1.548.599-2.056.399-.511.927-.767 1.585-.767.675 0 1.202.238 1.581.716l.046-.614h.864v5.401c0 .716-.213 1.28-.639 1.693-.423.413-.993.619-1.709.619-.399 0-.789-.085-1.171-.256-.382-.17-.673-.404-.875-.7l.491-.568c.406.5.902.751 1.489.751.46 0 .818-.129 1.074-.388.259-.26.389-.624.389-1.095v-.475c-.379.436-.895.654-1.55.654-.648 0-1.173-.26-1.575-.782-.399-.522-.599-1.233-.599-2.133zm.951.107c0 .624.128 1.115.384 1.473.256.355.614.532 1.074.532.597 0 1.035-.27 1.315-.813V72.13c-.29-.528-.725-.792-1.305-.792-.46 0-.82.179-1.079.537-.259.358-.389.888-.389 1.59zM57.732 96.428h-1.266v-8.392l-2.539.933v-1.144l3.607-1.354h.198v9.957zM119.694 96.8h-6.493v-.906l3.43-3.811c.508-.576.858-1.044 1.048-1.402.195-.363.293-.738.293-1.123 0-.518-.157-.942-.47-1.273-.313-.331-.73-.497-1.252-.497-.626 0-1.114.18-1.463.538-.345.354-.518.848-.518 1.484h-1.259c0-.913.293-1.65.878-2.213.59-.562 1.377-.843 2.362-.843.921 0 1.649.242 2.185.728.535.48.803 1.123.803 1.926 0 .975-.622 2.137-1.865 3.485l-2.655 2.879h4.976v1.027zM106.587 19.072l2.435 6.076 2.434-6.076h1.274v7.447h-.982v-2.9l.092-3.13-2.445 6.03h-.752l-2.439-6.015.097 3.115v2.9h-.982v-7.447h1.268zM114.065 23.7c0-.541.105-1.029.317-1.462.215-.433.511-.767.89-1.003a2.434 2.434 0 0 1 1.304-.352c.754 0 1.362.26 1.826.782.467.522.701 1.216.701 2.082v.066a3.29 3.29 0 0 1-.312 1.453c-.205.426-.5.759-.885.997a2.44 2.44 0 0 1-1.32.358c-.75 0-1.359-.26-1.826-.782-.463-.522-.695-1.212-.695-2.072v-.066zm.951.113c0 .614.142 1.107.425 1.478.286.372.668.558 1.145.558.481 0 .863-.188 1.146-.563.283-.378.424-.907.424-1.585 0-.607-.144-1.098-.434-1.473a1.367 1.367 0 0 0-1.146-.568c-.467 0-.844.186-1.13.558-.287.371-.43.903-.43 1.595zM121.184 20.985l.031.695a2.016 2.016 0 0 1 1.657-.797c1.17 0 1.76.66 1.77 1.979v3.657h-.946v-3.662c-.004-.4-.096-.694-.277-.885-.177-.19-.455-.286-.833-.286-.307 0-.577.081-.808.245a1.672 1.672 0 0 0-.543.645v3.943h-.946v-5.534h.895zM172.445 19.88h-2.394v6.639h-.977V19.88h-2.388v-.808h5.759v.808zM176.327 25.972c-.368.433-.909.65-1.621.65-.59 0-1.04-.171-1.351-.512-.307-.345-.462-.853-.465-1.524v-3.601h.946v3.575c0 .839.341 1.258 1.023 1.258.723 0 1.204-.27 1.442-.808v-4.025h.947v5.534h-.901l-.02-.547zM180.986 26.621c-.75 0-1.36-.245-1.831-.736-.47-.495-.706-1.155-.706-1.98v-.174c0-.549.104-1.038.312-1.468.212-.433.505-.77.88-1.012a2.215 2.215 0 0 1 1.228-.368c.719 0 1.278.237 1.677.71.399.474.599 1.153.599 2.036v.394h-3.749c.013.546.172.987.475 1.325.307.334.696.5 1.166.5.335 0 .618-.067.849-.204.232-.136.435-.317.609-.542l.578.45c-.464.713-1.159 1.07-2.087 1.07zm-.117-4.961c-.382 0-.703.14-.962.42-.259.276-.419.664-.481 1.166h2.772v-.072c-.027-.48-.156-.852-.388-1.115-.232-.266-.546-.399-.941-.399z" fill="#fff" fill-opacity=".54"/><path d="M171.627 73.416h-2.532l1.264-3.483 1.268 3.483zM180.936 73.462c0 .624.128 1.115.383 1.473.256.355.614.532 1.074.532.597 0 1.035-.271 1.315-.813v-2.527c-.29-.528-.725-.793-1.304-.793-.461 0-.82.18-1.079.537-.26.358-.389.889-.389 1.59z" fill="#fff"/><path fill-rule="evenodd" clip-rule="evenodd" d="M152.441 46.935h47.762v69.014h-47.762V46.935zm16.358 27.289h3.12l.711 1.944h1.007l-2.849-7.447h-.859l-2.844 7.447h1.013l.701-1.944zm7.426 2.046c.713 0 1.253-.217 1.622-.65l.02.548h.9v-5.534h-.946v4.025c-.239.538-.719.808-1.442.808-.682 0-1.023-.42-1.023-1.258v-3.575h-.946v3.6c.003.672.158 1.18.465 1.524.31.341.76.512 1.35.512zm3.759-2.915c0-.863.2-1.549.599-2.056.399-.512.927-.768 1.585-.768.676 0 1.202.239 1.581.716l.046-.613h.864v5.4c0 .717-.213 1.28-.639 1.694-.423.412-.992.618-1.708.618-.399 0-.79-.085-1.172-.255-.382-.17-.673-.404-.874-.701l.491-.568c.406.501.902.752 1.488.752.46 0 .818-.13 1.074-.389.259-.259.389-.624.389-1.094v-.476c-.379.437-.895.655-1.55.655-.648 0-1.173-.261-1.575-.783-.399-.521-.599-1.232-.599-2.132zm-4.136 17.875h-.946v1.028h.946c.667.01 1.178.168 1.532.477.354.308.531.75.531 1.327 0 .594-.161 1.05-.484 1.368-.322.317-.787.476-1.395.476-.572 0-1.028-.156-1.368-.47-.34-.313-.51-.73-.51-1.252h-1.266c0 .826.29 1.49.871 1.994.585.504 1.343.756 2.273.756.93 0 1.686-.261 2.267-.783.58-.522.871-1.227.871-2.117 0-.576-.15-1.064-.449-1.463-.295-.4-.715-.685-1.26-.857.481-.2.86-.502 1.137-.906.281-.403.422-.82.422-1.252 0-.88-.265-1.568-.796-2.062-.531-.495-1.264-.742-2.199-.742-.884 0-1.615.26-2.191.783-.572.517-.858 1.168-.858 1.953h1.259c0-.513.161-.923.484-1.232.326-.313.762-.47 1.306-.47 1.157 0 1.736.581 1.736 1.743 0 .517-.17.928-.511 1.232-.34.304-.807.46-1.402.47z" fill="#fff"/><path d="m263.001 47.29-236.037.003M9.243 54.942l-8.122 8.12 8.122 8.122M263 .906H36.748c-5.773 0-10.454 4.68-10.454 10.454v94.14c0 5.774 4.68 10.454 10.454 10.454H263v-.697H36.748c-5.388 0-9.757-4.368-9.757-9.757V11.36c0-5.388 4.369-9.757 9.757-9.757H263V.906z" stroke="url(#prefix__a)" stroke-width=".697"/><defs><linearGradient id="prefix__a" x1="25.659" y1="58.43" x2="263.001" y2="50.273" gradientUnits="userSpaceOnUse"><stop stop-color="#fff"/><stop offset="1" stop-color="#fff" stop-opacity="0"/></linearGradient></defs></svg>