<svg width="229" height="173" viewBox="0 0 229 173" fill="none" xmlns="http://www.w3.org/2000/svg">
<path d="M95.7274 103.588C96.5175 104.379 96.5175 104.379 95.7274 105.17C94.1472 107.543 91.7769 109.915 89.4065 111.497C90.1967 123.361 83.0857 136.806 72.0242 144.715C66.4934 148.67 59.3824 151.042 52.2715 151.042C45.1605 151.042 37.2594 148.67 30.9385 144.715C30.1484 144.715 30.1484 143.924 30.1484 143.133C30.1484 142.342 30.9385 142.342 31.7287 142.342C37.2594 143.133 42.7902 141.552 47.5308 139.179C42.7902 138.388 38.8396 135.224 36.4693 130.479V129.688C36.4693 128.897 37.2594 128.897 38.0495 128.897C38.8396 128.897 39.6297 128.897 39.6297 128.897C34.8891 126.524 32.5188 121.779 31.7287 116.243V115.452C32.5188 114.661 33.3089 114.661 34.099 115.452C34.8891 115.452 34.8891 116.243 35.6792 116.243C34.8891 114.661 33.3089 113.079 33.3089 110.706C32.5188 106.752 33.3089 103.588 34.8891 99.6336C34.8891 98.8427 35.6792 98.8427 35.6792 98.8427C36.4693 98.8427 36.4693 98.8427 37.2594 99.6336C42.7902 106.752 51.4814 111.497 60.9627 112.288C60.1725 106.752 62.5429 102.006 67.2835 99.6336C72.8143 95.679 79.9252 96.4699 85.456 101.215C87.8263 100.424 90.1967 99.6336 92.567 98.8427H93.3571C94.1472 98.8427 94.9373 99.6336 94.1472 100.424C93.3571 102.006 92.567 103.588 91.7769 104.379C92.567 104.379 93.3571 104.379 93.3571 103.588C94.1472 103.588 94.9373 103.588 95.7274 103.588Z" fill="#FE8836"/>
<path d="M64.9054 22.9309C64.9054 26.0945 62.5351 28.4672 58.5845 28.4672C54.634 29.2581 52.2637 26.8854 52.2637 22.9309C52.2637 19.7672 54.634 17.3945 58.5845 17.3945C62.5351 17.3945 64.9054 19.7672 64.9054 22.9309ZM53.0538 68.0124H64.1153V34.0035H53.0538V68.0124ZM91.7691 33.2126C85.4482 33.2126 83.0779 36.3762 81.4977 38.749V34.0035H70.4362C70.4362 37.1672 70.4362 68.0124 70.4362 68.0124H81.4977V49.0307C81.4977 48.2398 81.4977 46.658 81.4977 46.658C82.2878 44.2853 83.868 42.7035 87.0284 42.7035C90.979 42.7035 92.5592 45.8671 92.5592 50.6125V68.8033H103.621V48.2398C105.201 37.9581 99.6702 33.2126 91.7691 33.2126Z" fill="#FE8836"/>
<path d="M222.927 84.6261V47.4536L184.212 76.7171H134.435V112.308H150.237V155.808H174.731V112.308H183.422L222.137 141.571V104.399C226.088 102.817 228.458 98.8624 228.458 94.117C229.248 90.1624 226.878 86.2079 222.927 84.6261ZM167.62 148.689H158.138V114.681H167.62V148.689ZM182.632 105.19H140.756V84.6261H182.632V105.19ZM215.026 126.544L190.533 108.353V80.6716L215.026 62.4808V126.544Z" fill="#FE8836"/>
<path d="M1.69636 172.417H126.533V76.7178H1.69636V172.417ZM8.80733 84.6268H118.632V165.299H8.80733V84.6268ZM172.36 0L127.324 68.0178H118.632L158.138 7.90905H49.893L10.3875 68.0178H0.90625L45.9424 0H172.36Z" fill="white"/>
</svg>
