<?xml version="1.0" encoding="utf-8"?>
<!-- Generator: Adobe Illustrator 23.0.5, SVG Export Plug-In . SVG Version: 6.00 Build 0)  -->
<svg version="1.1" id="Слой_1" xmlns="http://www.w3.org/2000/svg" xmlns:xlink="http://www.w3.org/1999/xlink" x="0px" y="0px"
	 viewBox="0 0 38 38" style="enable-background:new 0 0 38 38;" xml:space="preserve">
<style type="text/css">
	.st0{fill:#FFFFFF;}
</style>
<path class="st0" d="M3.1,20.4c-4,4-4.1,10.5-0.1,14.6c4.1,4.1,10.7,4,14.6,0l4.8-4.8c-2.8,0.9-4.9,0.2-6.9-0.5l-1.4,1.4
	C12.2,33,9,32.9,7,31c-1.9-2-2.1-5.3-0.1-7.2l6.7-6.7c0.7-0.7,1.5-1.1,2.5-1.4c2.5-0.3,4.8,0.9,5.7,3.1l4.2-4.1
	c-2.9-4.4-8.9-5.9-13.6-3.2c-0.9,0.4-1.6,1.1-2.3,1.7L3.1,20.4z"/>
<path class="st0" d="M12.3,23c2.9,4.3,8.9,5.8,13.6,3.2c0.8-0.4,1.5-1.1,2.2-1.7l6.8-6.8c4-4,4.1-10.5,0.1-14.6
	c-4.1-4.1-10.7-4-14.6,0.1l-4.8,4.8c2.8-0.9,4.9-0.3,6.9,0.5L23.8,7c2-2,5.2-1.9,7.2,0.1c1.9,2,2.1,5.3,0.1,7.2l-6.4,6.4
	c-0.7,0.7-1.5,1.2-2.5,1.4c-2.5,0.4-4.8-0.9-5.7-3L12.3,23z"/>
</svg>
