<svg width="288" height="288" fill="none" xmlns="http://www.w3.org/2000/svg"><path d="M159.025 136.945c5.015-4.368 7.847-10.678 7.847-17.472 0-12.7-10.273-23.215-22.973-23.215-12.699 0-22.972 10.434-22.972 23.215 0 6.794 2.75 12.942 7.846 17.472-13.589 5.904-22.406 19.736-22.406 34.701 0 1.213.486 2.426 1.375 3.316a4.719 4.719 0 0 0 3.317 1.375h65.843a4.718 4.718 0 0 0 3.316-1.375 4.718 4.718 0 0 0 1.375-3.316c-.081-15.046-9.14-28.797-22.568-34.701zm-1.537-17.472c0 3.64-1.375 7.118-3.963 9.787-2.588 2.589-6.067 4.045-9.545 4.045-3.64 0-7.118-1.376-9.706-4.045-2.589-2.588-3.964-6.066-3.964-9.787 0-3.64 1.375-7.118 3.964-9.788a13.292 13.292 0 0 1 9.544-4.044c3.64 0 7.119 1.375 9.545 4.044 2.75 2.589 4.125 6.148 4.125 9.788zm14.237 47.481h-55.57a27.777 27.777 0 0 1 7.846-15.53c5.419-5.42 12.537-8.413 19.979-8.413 7.442 0 14.56 2.993 19.98 8.413 4.125 4.125 6.875 9.706 7.765 15.53z" fill="#0097DD"/><path d="m259.462 105.865.005.014.004.013a.622.622 0 0 1-.097.605.915.915 0 0 1-.653.363c-.26-.022-.57-.257-.648-.509l-.008-.025-.008-.024c-4.459-13.292-11.147-25.68-19.657-36.503l-.032-.042-.035-.04a.612.612 0 0 1-.126-.395c0-.22.063-.357.135-.453a.794.794 0 0 1 .371-.263.726.726 0 0 1 .42-.028c.091.024.207.079.333.243l.014.019.015.018c8.709 10.926 15.446 23.444 19.967 37.007zM28.367 106.301l-.009.025-.007.025c-.023.071-.088.189-.25.306a1.132 1.132 0 0 1-.506.201.752.752 0 0 1-.537-.319.686.686 0 0 1-.106-.647l.005-.016.005-.015a121.53 121.53 0 0 1 17.912-34.397l.004-.005a.726.726 0 0 1 1.316.451c0 .133-.034.276-.17.472-7.598 10.164-13.536 21.637-17.657 33.919zM55.43 229.604l-.007-.006-.006-.007a121.865 121.865 0 0 1-28.771-47.712c-.113-.36.16-.971.816-1.022.317.017.565.234.634.469l.009.031.01.031C33.89 199.29 43.7 215.292 56.468 228.49c.183.224.241.444.241.582 0 .335-.173.575-.475.698a.779.779 0 0 1-.428.051.678.678 0 0 1-.376-.217zM258.39 181.467l.003-.01.003-.01c.065-.208.372-.533.833-.589.438.038.768.462.624.956-6.184 19.013-16.8 36.044-30.737 49.748-.199.187-.477.247-.796.112-.317-.134-.467-.373-.467-.66 0-.124.045-.301.233-.491 13.705-13.461 24.274-30.306 30.304-49.056zM228.273 148.831v.378l.002.054c.015.335-.276.789-.9.789h-38.341a.92.92 0 0 1-.897-.898v-.323c0-.48.418-.897.897-.897h38.341c.48 0 .898.417.898.897zM97.307 150.052h-38.26a.919.919 0 0 1-.897-.898v-.323c0-.48.417-.897.897-.897h38.341c.48 0 .897.417.897.897v.323c0 .442-.379.898-.978.898zM.809 168.087c-.485-.486-.809-1.294-.809-2.103 0-9.626 5.743-18.605 14.64-22.406-3.316-2.75-5.095-6.876-5.095-11.244 0-8.331 6.714-15.045 14.883-15.045 8.17 0 14.884 6.714 14.884 15.045 0 4.368-1.86 8.332-5.096 11.244 8.816 3.801 14.56 12.618 14.56 22.406 0 .809-.486 1.617-.971 2.103-.485.647-1.294.97-2.103.97H2.912c-.809 0-1.456-.323-2.103-.97zM278.255 132.576c0 4.368-1.86 8.332-5.096 11.244 8.817 4.044 14.56 12.861 14.641 22.406 0 .809-.324 1.456-.809 2.103-.485.647-1.294.971-2.103.971h-42.79c-.809 0-1.618-.324-2.103-.971-.647-.485-.971-1.294-.971-2.103 0-9.545 5.743-18.523 14.56-22.406-3.316-2.75-5.096-6.876-5.096-11.244 0-8.331 6.714-15.045 14.884-15.045 8.169 0 14.883 6.714 14.883 15.045z" fill="#005EAB"/><path d="M56.38 59.372c-.565-.566-.97-1.456-.97-2.427 0-11.243 6.714-21.759 16.987-26.207-3.964-3.155-5.986-8.008-5.986-13.104C66.41 7.846 74.257 0 83.883 0c9.545 0 17.391 7.927 17.391 17.634 0 5.015-2.265 9.706-5.986 13.104 10.273 4.448 16.987 14.802 16.987 26.207 0 .89-.567 1.86-1.133 2.427-.566.728-1.456 1.132-2.427 1.132H58.807c-.97 0-1.698-.404-2.426-1.132zM218.319 17.634c0 5.015-2.265 9.706-6.067 13.104 10.435 4.691 17.472 14.964 17.148 26.207 0 .89-.404 1.699-.97 2.427s-1.456 1.132-2.427 1.132h-50.555c-.89 0-1.86-.404-2.427-1.132-.728-.566-1.132-1.456-1.132-2.427 0-11.243 6.795-21.678 17.229-26.207-3.963-3.155-6.067-8.008-6.067-13.104C183.051 7.846 191.059 0 200.685 0c9.707 0 17.634 7.927 17.634 17.634zM212.333 258.034c3.801-3.397 6.066-8.088 6.066-13.104 0-9.706-7.927-17.633-17.633-17.633-9.626 0-17.634 7.846-17.634 17.633 0 5.096 2.103 9.95 6.067 13.104-10.435 4.53-17.23 14.965-17.23 26.208 0 .971.405 1.861 1.133 2.427.566.728 1.537 1.132 2.427 1.132h50.555c.97 0 1.86-.404 2.426-1.132.567-.728.971-1.537.971-2.427.243-11.243-6.714-21.516-17.148-26.208zM56.461 286.669c-.566-.566-.97-1.456-.97-2.427 0-11.243 6.713-21.759 17.067-26.208-3.963-3.154-5.986-8.008-5.986-13.104 0-9.787 7.847-17.633 17.391-17.633 9.545 0 17.391 7.927 17.391 17.633 0 5.016-2.265 9.707-5.985 13.104 10.272 4.449 16.986 14.803 16.986 26.208 0 .89-.566 1.861-1.132 2.427-.567.728-1.456 1.132-2.427 1.132H58.888c-.97 0-1.699-.404-2.427-1.132z" fill="#1C3C70"/></svg>