<svg width="229" height="171" fill="none" xmlns="http://www.w3.org/2000/svg"><path d="M213.808 125.608a24.71 24.71 0 0 0-5.574-12.019 24.64 24.64 0 0 0-10.974-7.401l-17.24-5.827v-3.26h-6.924v5.272l-2.492 9.918-6.924-8.323-.485.07h-7.478l-.415.485-6.924 8.323-2.492-10.196v-5.548h-6.924v3.051l-17.379 5.827a24.64 24.64 0 0 0-10.974 7.401 24.71 24.71 0 0 0-5.574 12.019l-4.708 28.091v1.526h73.115l3.462-5.272 1.039-1.595h-6.924l-3.67-25.524 1.316-1.942 5.331 6.45.623-2.566 4.362-17.479 16.202 5.41a17.869 17.869 0 0 1 7.818 5.311 17.913 17.913 0 0 1 4.022 8.561h6.923l-.138-.763zm-65.845 22.75H108.29l3.6-21.64a18.043 18.043 0 0 1 4.068-8.561 18.002 18.002 0 0 1 7.841-5.311l16.201-5.41 4.362 17.409.693 2.567 1.592-2.012 3.67-4.439 1.315 1.942-3.669 25.455zm12.255-26.634 3.739 26.634h-9.001l3.808-26.634v-.971l-3.601-5.341 4.016-4.855h.97l4.015 4.855-3.531 5.341v.486l-.415.485z" fill="#fff"/><path d="M192.619 56.323V44.185a12.017 12.017 0 0 0-2.62-7.505 11.976 11.976 0 0 0-6.727-4.217 24.128 24.128 0 0 0-8.828-11.011 24.066 24.066 0 0 0-13.467-4.179h-1.731a33.203 33.203 0 0 0-23.455 9.776 33.321 33.321 0 0 0-9.71 23.517v5.757a12.087 12.087 0 0 0-2.146 9.433 11.364 11.364 0 0 0 6.37 8.046 32.89 32.89 0 0 0 6.924 13.039l8.239 8.323a11.839 11.839 0 0 0 8.447 3.537h9.97a11.824 11.824 0 0 0 9.209-3.537l8.308-8.323a44.341 44.341 0 0 0 7.686-13.386 10.464 10.464 0 0 0 4.064-3.557 10.499 10.499 0 0 0 1.752-5.113 13.338 13.338 0 0 0-2.285-8.462zm-11.078 13.04a17.579 17.579 0 0 1-5.262 12.623l-8.24 8.184a5.394 5.394 0 0 1-3.6 1.457h-9.97a5.398 5.398 0 0 1-3.601-1.457l-8.239-8.323a17.489 17.489 0 0 1-5.193-12.485v-9.016h6.924a39.49 39.49 0 0 0 24.856-8.74A18.573 18.573 0 0 0 181.472 60l.069 9.363zm4.223-15.884h-.831a11.618 11.618 0 0 1-5.683-1.513 11.648 11.648 0 0 1-4.218-4.105l-3.392-5.688-.9-1.456-1.177.902-1.939 1.942a32.336 32.336 0 0 1-10.625 7.168 32.283 32.283 0 0 1-12.57 2.473h-11.285v-2.636a26.378 26.378 0 0 1 7.632-18.564 26.286 26.286 0 0 1 18.47-7.793h1.523c3.701.003 7.3 1.208 10.259 3.434a17.133 17.133 0 0 1 6.151 8.912l.415 1.596v.901h2.631a5.116 5.116 0 0 1 3.578 1.528 5.138 5.138 0 0 1 1.477 3.605l.484 9.294zM0 70.539h69.238l18.97 25.593V70.54h24.788V0H0v70.539zm6.924-6.936V6.936h99.218V63.74h-23.68v15.12l-10.87-15.12-64.668-.138z" fill="#fff"/><path d="M19.664 46.056h25.549l15.855-24.068H35.52L19.663 46.056zM54.98 46.056h4.846l15.855-24.068h-4.846L54.979 46.056zM75.676 46.056h4.847l15.855-24.068h-4.915L75.676 46.056z" fill="#FE8836"/><path d="M74.157 21.988H93.82l-2.146 3.399H72.356l1.8-3.399zM60.242 42.727h19.663l-2.146 3.329H58.44l1.8-3.33zM190.544 153.358l-4.916 7.283-6.232 9.364h-8.308l10.801-16.231 5.054-7.698 8.586-12.693h8.308l-8.239 12.346-2.839 4.231-2.215 3.398zM220.319 163.618h-6.37v6.381h6.37v-6.381zM206.471 133.383v11.513h6.37v-5.201h8.862v6.034l-7.754 5.895v6.035h6.369v-2.775l7.686-5.895v-15.606h-21.533z" fill="#FE8836"/></svg>