<svg width="266" height="150" fill="none" xmlns="http://www.w3.org/2000/svg"><g opacity=".5" fill="#fff"><path d="M194.19 0h39.13C253.429 18.765 266 45.488 266 75.141c0 29.505-12.445 56.109-32.379 74.859h-38.756c29.151-12.371 49.594-41.231 49.594-74.859C244.459 41.254 223.7 12.21 194.19 0zM131.248 150H92.49a103.359 103.359 0 0 1-14.42-16.822h16.06l5.055-7.631A81.644 81.644 0 0 0 131.248 150zM131.924 0H92.792A103.402 103.402 0 0 0 78.07 17.105h16.06l5.055 7.631C107.745 13.931 118.994 5.35 131.924 0zM163.057 53.008a22.163 22.163 0 0 0-10.751 2.775 22.134 22.134 0 0 0-8.051 7.638h15.444a11.746 11.746 0 0 1 8.211 3.481 11.715 11.715 0 0 1 0 16.483 11.746 11.746 0 0 1-8.211 3.481h-15.444a22.162 22.162 0 0 0 19.373 10.404c3.857-.1 7.62-1.203 10.919-3.2a22.144 22.144 0 0 0 7.889-8.192 22.11 22.11 0 0 0-.284-21.966 22.14 22.14 0 0 0-8.098-7.985 22.181 22.181 0 0 0-10.997-2.92z"/><path d="M110.33 41.56c11.107-17.36 30.564-28.873 52.726-28.873 34.534 0 62.53 27.961 62.53 62.452 0 34.49-27.999 62.451-62.528 62.451-22.158 0-41.619-11.512-52.726-28.872l12.677-19.134 1.124-1.703c5.358 16.349 20.759 28.159 38.923 28.159 22.617 0 40.953-18.313 40.953-40.901 0-22.59-18.336-40.902-40.953-40.902-18.164 0-33.56 11.81-38.926 28.16l-1.124-1.704L110.33 41.56zM0 21.112l27.687 41.795h25.95L25.95 21.112H0z"/><path d="M25.919 67.426h133.779a7.727 7.727 0 0 1 5.389 2.298 7.706 7.706 0 0 1 0 10.83 7.727 7.727 0 0 1-5.389 2.298H25.919V67.426zM53.637 87.37 25.95 129.167H0l27.687-41.795h25.95zM60.697 87.37 33.01 129.167h25.95l27.685-41.795h-25.95zM66.02 129.166l27.688-41.795h25.95L91.97 129.166H66.02zM60.697 62.907 33.01 21.112h25.95l27.685 41.795h-25.95zM91.97 21.112H66.02l27.688 41.795h25.95L91.97 21.112z"/></g></svg>