<svg width="110" height="83" fill="none" xmlns="http://www.w3.org/2000/svg"><path d="M44.91 13.55a11.04 11.04 0 1 0 .377 22.077 11.04 11.04 0 0 0-.376-22.077zm0 19.163a8.047 8.047 0 1 1 0-16.094 8.047 8.047 0 0 1 0 16.094z" fill="#005EAB"/><path d="m65.728 38.44-2.92-2.957a22.716 22.716 0 0 0 2.433-5.914h4.192v-9.881h-4.192a20.77 20.77 0 0 0-2.433-5.914l3.032-3.032-7.037-7-2.92 2.958a21.634 21.634 0 0 0-5.913-2.47V0H40.09v4.192a19.876 19.876 0 0 0-5.914 2.47l-2.957-2.92-7 7 2.92 2.92a23.807 23.807 0 0 0-2.433 5.913h-4.191v9.882h4.192c.5 2.085 1.321 4.08 2.432 5.913l-2.92 2.957 7 7 2.957-2.92a22.721 22.721 0 0 0 5.914 2.433v4.192h9.769v-4.117c2.085-.501 4.08-1.322 5.914-2.433l2.956 2.92 7-6.962zm-10.555.935a17.926 17.926 0 0 1-6.962 2.882h-1.235V46h-3.743v-3.743h-1.198a17.404 17.404 0 0 1-7-2.882l-1.047-.748-2.62 2.62-2.732-2.733 2.62-2.62-.749-1.01a17.853 17.853 0 0 1-2.882-7v-1.197h-3.743v-3.743h3.743v-1.198a17.404 17.404 0 0 1 2.845-7.149l.748-1.048-2.62-2.62 2.732-2.732 2.62 2.62 1.048-.749a17.442 17.442 0 0 1 6.962-2.882h1.235V3.443h3.743v3.743h1.198a17.779 17.779 0 0 1 7.037 2.882l1.01.749 2.62-2.62 2.733 2.732-2.62 2.62.748 1.048a17.441 17.441 0 0 1 2.882 6.962v1.235h3.556v3.743h-3.743v1.198a18.453 18.453 0 0 1-2.92 7l-.748 1.01 2.62 2.62-2.732 2.732-2.583-2.62-.823.898zM16.695 64.415h3.93l8.46-12.8h-3.93l-8.46 12.8zM37.13 64.415h3.93l8.459-12.8h-3.93l-8.46 12.8zM66.026 51.615l-8.459 12.8h3.93l8.496-12.8h-3.967z" fill="#005EAB"/><path d="M83.993 71.751H.002l7.486 10.93h75.27l7.26-10.93h-6.025zm-3.257 7.486H9.284L6.74 75.494h76.505l-2.508 3.743zM80.4 71.751h3.593V22.195h-8.946l-2.358 3.593h7.71v45.963zM9.62 25.788h5.128l2.395-3.593H5.99v49.556h3.63V25.788z" fill="#1C3C70"/></svg>