<svg width="190" height="188" fill="none" xmlns="http://www.w3.org/2000/svg"><path d="M189.998 15.625h-18.924l-5.733 8.622h16.024v94.351H8.639v-94.35h10.287l5.631-8.623H0v146.578h67.051l-16.668 25.408h89.239l-16.726-25.408H190l-.002-146.578zm-65.706 163.641H65.695l11.366-17.063h35.69l11.541 17.063zm-7.076-25.686H8.636v-26.36h172.726v26.36h-64.146z" fill="#fff"/><path d="m108.778 70.828-5.182 7.76H49.32v-7.76h59.458zM49.32 94.329h43.847l5.145-7.76H49.32v7.76z" fill="#FE8836"/><path fill-rule="evenodd" clip-rule="evenodd" d="M49.32 58.295V16.742h61.12v41.553H49.32zm6.916-6.904h47.288V23.646H56.236v27.745z" fill="#FE8836"/><path fill-rule="evenodd" clip-rule="evenodd" d="M126.481 0v102.324h30.027l-5.339 7.76H31.989V0h94.492zM39.764 7.763v94.561h78.941V7.764h-78.94z" fill="#FE8836"/><path fill-rule="evenodd" clip-rule="evenodd" d="M134.476 23.685 146.25 5.996l11.765 17.689V94.32h-23.539V23.685zm7.776 62.874h7.987V39.23h-7.987v47.33zm0-55.096h7.987V26.55l-3.989-6.113-3.93 6.003-.068.11v4.915z" fill="#FE8836"/></svg>