<svg width="88" height="66" fill="none" xmlns="http://www.w3.org/2000/svg"><path fill-rule="evenodd" clip-rule="evenodd" d="M85 45H64v21h21V45zm-6.105 11.112.028.027c1.302.738 2.09 2.018 2.077 3.47V63H68v-3.391c.014-1.465.803-2.771 2.132-3.497.25-.119.526-.224.817-.317l.152-.04.139-.039-.07-.105-.083-.145a5.252 5.252 0 0 1-.692-2.085c-.152-1.439.526-2.85 1.758-3.669.679-.475 1.51-.712 2.368-.712.678 0 1.356.145 1.938.449a4.027 4.027 0 0 1 2.201 3.496 5.434 5.434 0 0 1-.72 2.508l-.083.145-.069.132.138.026.153.04a3.353 3.353 0 0 1 .817.316z" fill="#FE8836"/><path fill-rule="evenodd" clip-rule="evenodd" d="M25.935 13.041c-2.694 2.891-7.257 3.052-10.148.358-2.905-2.706-3.04-7.244-.359-10.148a7.15 7.15 0 0 1 10.148-.358 7.174 7.174 0 0 1 .359 10.148zm-2.47-2.302c1.428-1.534 1.342-3.972-.178-5.39a3.828 3.828 0 0 0-5.402.192 3.8 3.8 0 0 0 .204 5.388 3.809 3.809 0 0 0 5.375-.19zM3.252 26.85c2.892 2.694 7.454 2.533 10.161-.372 2.694-2.89 2.533-7.453-.358-10.148a7.174 7.174 0 0 0-10.148.359c-2.693 2.917-2.56 7.455.345 10.161zm7.5-8.049c1.521 1.417 1.607 3.855.19 5.376-1.441 1.547-3.867 1.62-5.388.203a3.828 3.828 0 0 1-.19-5.402c1.416-1.52 3.855-1.606 5.389-.177zM85.576 26.85c-2.891 2.694-7.454 2.533-10.16-.372-2.694-2.89-2.533-7.453.358-10.148a7.174 7.174 0 0 1 10.148.359c2.693 2.917 2.56 7.455-.346 10.161zm-7.5-8.049c-1.52 1.417-1.606 3.855-.19 5.376 1.442 1.547 3.868 1.62 5.388.203a3.828 3.828 0 0 0 .191-5.402c-1.416-1.52-3.855-1.606-5.389-.177zM73.042 13.4c-2.891 2.693-7.454 2.532-10.148-.359a7.174 7.174 0 0 1 .358-10.148 7.15 7.15 0 0 1 10.148.358c2.68 2.904 2.547 7.442-.358 10.148zm-7.5-8.05c-1.52 1.417-1.607 3.855-.177 5.389a3.809 3.809 0 0 0 5.375.19 3.8 3.8 0 0 0 .204-5.388 3.828 3.828 0 0 0-5.402-.191zM69 37.299l-1 1.9s4 1.2 4.5 1.6c.633.355 1.749 1.187 2.247 2.2h-5.083c-.83-.293-1.64-.4-2.664-.4H56.2c-1.4.1-2.5.2-3.6.8l-.1.1c-.9.6-1.7 1.4-2.2 2.4-.5.8-.7 1.7-.8 2.6v5H62v3.1H46.3v-7.7c0-.2 0-.4.1-.5 0-.7.1-1.4.3-2.1.018-.038.034-.072.047-.104l.016-.04.02-.055.017-.051c.025-.075.05-.15.1-.25l.1-.2c.4-.9.8-1.6 1.2-2.2h-7.6c.4.6.8 1.4 1.1 2.2.4.9.6 1.8.6 2.7.1.2.1.3.1.5v7.7H11.7v-7.7c0-.9.1-1.7.3-2.5.6-2.3 2.2-4.4 4.2-5.7.7-.4 2.2-.9 2.2-.9l2-.6-1-1.8-.2-.4c-.9-1.6-1.4-3.3-1.6-5.1-.4-3.4 1.1-6.7 3.9-8.6 1.5-1.1 3.4-1.7 5.3-1.7 1.5 0 3 .4 4.3 1.1 1.8.9 3.2 2.4 4 4.2h.1l.4-.2 2.1-.6-1.1-1.9-.2-.4c-.9-1.6-1.4-3.3-1.6-5.1-.3-3.4 1.2-6.7 3.9-8.6 1.5-1.1 3.4-1.7 5.3-1.7 1.5 0 3 .4 4.3 1.1 2.9 1.7 4.8 4.8 4.9 8.2 0 .2-.026.375-.05.55-.026.175-.05.35-.05.55v.1c-.1 1.3-.4 2.4-.8 3.3a7.794 7.794 0 0 1-.382.927 9.988 9.988 0 0 1-.418.773l-.2.4-1 1.9 2.5.7c.098 0 .173.025.247.05h.003l.068.022a.617.617 0 0 0 .181.028c.6-1.5 1.7-2.8 3.1-3.7 1.5-1.1 3.4-1.7 5.3-1.7 1.5 0 3 .4 4.3 1.1 3 1.6 4.8 4.7 4.9 8.1 0 2.1-.6 4.3-1.7 6.2l-.2.4zm-24.7-25.8c-.3 0-.7 0-1.1.1-2.4.5-5 2.4-5.3 5.3-.2 2.7 1 5.7 2.9 7.6.9 1 1.9 1.6 2.8 1.7h.2c1 0 1.9-.2 2.6-.8l.4-.4c1.4-1.2 2.5-2.9 3-4.7.2-.9.4-1.8.4-2.6 0-1.8-.8-3.6-2.3-4.8-1.1-.9-2.4-1.4-3.6-1.4zM26.522 24.616A3.225 3.225 0 0 0 26 24.7c-2.4.5-4.9 2.4-5.2 5.2-.2 2.6 1 5.7 2.9 7.6.9 1 1.9 1.6 2.8 1.7h.1c.8 0 1.5-.2 2.2-.6.06 0 .084 0 .117-.023l.026-.022L29 38.5c.1 0 .2-.1.2-.1l.3-.3.1-.1c.6-.6 1.3-1.3 1.8-2.2.5-.8.9-1.7 1.1-2.5.2-.6.3-1.2.4-1.9.1-.2.1-.4.1-.7 0-.7-.2-1.6-.5-2.3-.4-.9-1-1.8-1.8-2.4-1.1-.9-2.4-1.4-3.6-1.4-.168 0-.366 0-.578.017zM14.8 53.5h24.3v-5c-.1-.9-.3-1.8-.8-2.6-.5-1-1.3-1.8-2.3-2.4 0-.05 0-.075-.013-.087-.012-.013-.038-.013-.087-.013-1.2-.6-2.2-.8-3.6-.8H21.6c-1.4.1-2.5.2-3.6.8-2 1.1-3.2 3.2-3.2 5.5v4.6zm22.1-13.1h14.9c.127-.064.54-.21 1.037-.384l.004-.002c1.059-.372 2.494-.878 2.358-1.014l-1-1.8-.2-.4c-.3-.4-.5-.899-.699-1.399-.5-1.101-.8-2.301-.9-3.301a.313.313 0 0 1-.098-.207c-.002-.03-.002-.062-.002-.093 0-.2-.012-.4-.023-.6-.022-.4-.044-.8.023-1.2-.9-.4-1.8-.5-3-.6H38.5c-1 .1-1.8.2-2.6.4.028.084.048.176.062.271.02.134.03.274.034.41.004.112.004.22.004.319 0 .4 0 .8-.1 1.2-.1 1-.4 2.1-.8 3.2-.1.6-.4 1.2-.7 1.7l-.2.4-1 1.9s3.3 1 3.7 1.2zm24.6-1.1c1.1 0 2.1-.4 3-1.2 2-1.8 3.4-4.6 3.4-7.4 0-1.7-.8-3.5-2.3-4.7-1.1-.9-2.4-1.4-3.6-1.4-.3 0-.7 0-1.1.1-1.7.3-4 1.5-4.9 3.9-.034.166-.078.333-.123.5l-.059.225a3.18 3.18 0 0 0-.118.775c0 .7 0 1.5.2 2.4l.3 1.2c.054.27.137.483.234.684.045.094.094.186.144.28l.121.236c.5 1.1 1.2 2.1 1.9 2.8.047.047.094.088.141.127.054.044.107.084.16.124.1.075.2.15.3.249l.1.1s0 .1.1.1c.7.5 1.3.9 2 .9h.1z" fill="#fff"/></svg>