<svg width="111" height="69" fill="none" xmlns="http://www.w3.org/2000/svg"><path d="m82.58 28.738-4.144-8.61-4.464 8.928-9.566 1.276 7.015 6.696-1.594 9.565 8.609-4.464 8.608 4.464-1.594-9.566 7.015-6.695-9.885-1.595zm.638 6.058c-.319.319-1.275 1.275-.956 2.55l.637 3.508-2.87-1.594c-.637 0-1.593-.638-2.869 0l-3.188 1.594.637-3.189c0-.637.32-1.594-.637-2.55l-2.87-2.551 3.507-.638c.32 0 1.595-.319 2.232-1.275l1.595-3.508 1.594 3.189c.319.319.637 1.594 1.913 1.594l3.826.638-2.55 2.232z" fill="#005EAB"/><path d="m69.19 1-2.232 3.507h36.667L91.19 22.681h4.145L110.321 1H69.189zM62.813 65.407H26.464l-2.232 3.507h40.494l11.797-17.855h-4.145l-9.566 14.348zM42.347 10.05a6.87 6.87 0 0 0-.991-.43h-.1v-.198a6.935 6.935 0 0 0 .892-3.303 5.251 5.251 0 0 0-2.609-4.525 5.185 5.185 0 0 0-5.35.33 5.12 5.12 0 0 0-2.18 4.756c.108.95.4 1.87.858 2.709h-.198a5.58 5.58 0 0 0-.99.43 5.317 5.317 0 0 0-2.544 4.755V19h15.953v-4.426a5.318 5.318 0 0 0-2.741-4.525zM36.83 4.07a1.85 1.85 0 0 1 1.552.43 2.147 2.147 0 0 1 .66 1.618 3.963 3.963 0 0 1-1.32 2.84 1.189 1.189 0 0 1-.86.364 2.18 2.18 0 0 1-.858-.529 4.029 4.029 0 0 1-1.09-2.94 2.147 2.147 0 0 1 1.916-1.783zm5.185 11.857h-9.908v-1.32a2.18 2.18 0 0 1 1.09-1.916 2.773 2.773 0 0 1 1.32-.265h4.988c.456-.021.91.07 1.321.265a2.146 2.146 0 0 1 1.09 1.882l.1 1.354zM28.494 31.558a6.49 6.49 0 0 0-.936-.406h-.094v-.188a6.558 6.558 0 0 0 .843-3.122 4.965 4.965 0 0 0-2.467-4.278 4.903 4.903 0 0 0-5.058.312 4.84 4.84 0 0 0-2.061 4.496c.102.898.378 1.768.812 2.561h-.188a5.28 5.28 0 0 0-.936.406 5.027 5.027 0 0 0-2.405 4.496v4.184h15.082v-4.184a5.027 5.027 0 0 0-2.592-4.277zm-5.214-5.652a1.748 1.748 0 0 1 1.467.406 2.03 2.03 0 0 1 .625 1.53 3.748 3.748 0 0 1-1.25 2.685 1.124 1.124 0 0 1-.811.344 2.061 2.061 0 0 1-.812-.5 3.81 3.81 0 0 1-1.03-2.78 2.03 2.03 0 0 1 1.81-1.685zm4.902 11.21h-9.368v-1.25a2.062 2.062 0 0 1 1.03-1.81c.39-.185.82-.27 1.25-.25h4.715c.43-.02.86.065 1.249.25a2.03 2.03 0 0 1 1.03 1.78l.094 1.28zM12.494 53.574a6.49 6.49 0 0 0-.937-.406h-.093v-.188a6.558 6.558 0 0 0 .843-3.122A4.965 4.965 0 0 0 9.84 45.58a4.902 4.902 0 0 0-5.058.312A4.84 4.84 0 0 0 2.72 50.39c.102.898.378 1.767.812 2.56h-.188c-.324.105-.638.24-.936.406a5.028 5.028 0 0 0-2.405 4.497v4.184h15.082v-4.184a5.027 5.027 0 0 0-2.592-4.278zM7.28 47.922a1.748 1.748 0 0 1 1.467.406 2.03 2.03 0 0 1 .625 1.53 3.747 3.747 0 0 1-1.25 2.685 1.125 1.125 0 0 1-.811.344 2.06 2.06 0 0 1-.812-.5 3.81 3.81 0 0 1-1.03-2.779 2.03 2.03 0 0 1 1.81-1.686zm4.902 11.21H2.814v-1.25a2.06 2.06 0 0 1 1.03-1.81c.39-.185.82-.27 1.25-.25h4.715c.43-.02.86.065 1.249.25a2.03 2.03 0 0 1 1.03 1.78l.094 1.28zM63.222 10.05a6.862 6.862 0 0 0-.99-.43h-.067v-.198a7.366 7.366 0 0 0 .892-3.303 5.152 5.152 0 1 0-10.272.561c.109.95.4 1.87.859 2.709h-.198a4.688 4.688 0 0 0-.991.43 5.25 5.25 0 0 0-2.642 4.524V19h15.952v-4.426a5.316 5.316 0 0 0-2.543-4.525zM57.574 4.07a1.883 1.883 0 0 1 1.586.43 2.148 2.148 0 0 1 .792 1.618 3.963 3.963 0 0 1-1.321 2.84 1.255 1.255 0 0 1-.859.364 2.18 2.18 0 0 1-.858-.529 4.029 4.029 0 0 1-1.09-2.94 2.147 2.147 0 0 1 1.75-1.783zm5.219 11.857h-9.909v-1.32a2.28 2.28 0 0 1 1.123-1.916 2.61 2.61 0 0 1 1.552-.265h4.988c.455-.021.909.07 1.32.265a2.148 2.148 0 0 1 1.09 1.882l-.164 1.354zM48.23 31.558a6.5 6.5 0 0 0-.937-.406h-.062v-.188c.522-.96.81-2.03.843-3.122a4.87 4.87 0 0 0-9.307-1.994 4.871 4.871 0 0 0-.404 2.525c.103.897.378 1.767.812 2.56h-.188a4.433 4.433 0 0 0-.936.406 4.964 4.964 0 0 0-2.498 4.278v4.403h15.082v-4.185a5.027 5.027 0 0 0-2.405-4.277zm-5.34-5.652a1.78 1.78 0 0 1 1.5.406 2.029 2.029 0 0 1 .749 1.53 3.748 3.748 0 0 1-1.25 2.685 1.186 1.186 0 0 1-.811.344 2.06 2.06 0 0 1-.812-.5 3.809 3.809 0 0 1-1.03-2.78 2.03 2.03 0 0 1 1.655-1.685zm4.934 11.21h-9.367v-1.25a2.154 2.154 0 0 1 1.061-1.81c.452-.233.965-.32 1.468-.25H45.7c.43-.02.86.065 1.249.25a2.03 2.03 0 0 1 1.03 1.78l-.156 1.28zM32.23 53.574a6.49 6.49 0 0 0-.937-.406h-.062v-.188c.522-.96.81-2.03.843-3.122a4.872 4.872 0 0 0-7.681-3.966 4.872 4.872 0 0 0-2.03 4.497c.103.898.378 1.767.812 2.56h-.188a4.437 4.437 0 0 0-.936.406 4.965 4.965 0 0 0-2.498 4.278v4.403h15.082v-4.184a5.028 5.028 0 0 0-2.405-4.278zm-5.34-5.652a1.781 1.781 0 0 1 1.5.406 2.03 2.03 0 0 1 .749 1.53 3.748 3.748 0 0 1-1.25 2.685 1.186 1.186 0 0 1-.811.344 2.06 2.06 0 0 1-.812-.5 3.807 3.807 0 0 1-1.03-2.779 2.03 2.03 0 0 1 1.655-1.686zm4.934 11.21h-9.367v-1.25a2.154 2.154 0 0 1 1.061-1.81c.452-.233.965-.32 1.468-.25H29.7c.43-.02.86.065 1.249.25a2.03 2.03 0 0 1 1.03 1.78l-.156 1.28z" fill="#1C3C70"/></svg>