<svg width="70" height="57" fill="none" xmlns="http://www.w3.org/2000/svg"><path fill-rule="evenodd" clip-rule="evenodd" d="M54.8 30c.7.8 1.3 1.6 1.8 2.5.267.532.454.986.633 1.5H53.76a8.473 8.473 0 0 0-1.56-2.2c-.7-.7-1.4-1.3-2.2-1.7-1.7-.9-3.6-1.3-5.5-1.2h-.3c-.35 0-.925-.012-1.67-.028-1.373-.03-3.325-.072-5.53-.072-3.7 0-6.7.1-7.5.1h-.1c-1.8 0-3.6.4-5.3 1.2-.8.5-1.5 1-2.1 1.7-.7.7-1.3 1.6-1.7 2.5-.7 1.3-1.1 2.7-1.1 4.2v7.2h27.801v3.1h-30.9V43H.3v-6.2c0-1.3.3-2.6 1-3.7s1.7-2 2.8-2.8c.7-.4 1.5-.7 2.3-.8l.9-.2-.5-.7c-1-1.4-1.6-3.1-1.8-4.8-.2-1.4 0-2.7.6-3.9.5-1.2 1.4-2.3 2.5-3 1.1-.7 2.4-1.1 3.7-1.2 1.3-.1 2.6.2 3.8.8 1.1.6 2.1 1.6 2.8 2.7.7 1.2 1.1 2.5 1.1 3.8-.1 2-.7 4-1.8 5.6l-.5.7.9.2.201.049c.358.086.764.184 1.099.352.9-1 1.9-1.8 3.1-2.5 1.2-.6 2.5-1.1 3.8-1.3l3.3-.6-1.8-2.8c-1.7-2.5-2.8-5.4-3.1-8.4-.2-2.3.1-4.5 1.1-6.6.9-2.1 2.4-3.8 4.3-5.1 1.9-1.2 4-2 6.3-2.1 2.2-.2 4.5.3 6.5 1.4 2 1.1 3.6 2.7 4.8 4.6 1.2 1.9 1.8 4.1 1.8 6.4 0 3.5-1.1 6.9-3.1 9.8l-1.8 2.7 3.2.7c1.3.2 2.6.6 3.8 1.3 1.2.7 2.3 1.6 3.2 2.6zM13.4 18.9c-.6-.2-1.2-.2-1.8-.1-1 .1-1.8.6-2.5 1.1-.6.7-1.1 1.6-1.2 2.5 0 1 .1 2 .5 3 .3 1 .9 1.9 1.6 2.6.5.7 1.3 1.1 2.1 1.2.8 0 1.5-.3 2.1-.8.8-.6 1.4-1.5 1.8-2.4.4-.9.7-1.9.7-2.9 0-.7-.2-1.3-.5-1.9-.3-.6-.7-1.1-1.2-1.5-.5-.4-1-.6-1.6-.8zm2.7 21.2v-1.6c0-2.1.5-4.1 1.5-6v-.1c-.5-.1-.9-.1-1.4-.1-.081 0-.262-.007-.523-.018A79.735 79.735 0 0 0 12.2 32.2c-1.524 0-2.838.053-3.558.082-.272.011-.46.018-.542.018-.9 0-1.8.2-2.6.6-.7.4-1.3 1-1.7 1.7-.4.7-.6 1.5-.6 2.3v3.2h12.9zm20.7-14.5c1.7 0 3.4-.6 4.6-1.8 1.5-1.4 2.8-3 3.7-4.9.8-1.9 1.3-3.9 1.4-6 0-1.4-.4-2.7-1-4-.6-1.2-1.5-2.3-2.6-3.2-1.6-1.4-3.6-2.1-5.7-2.1-.5 0-1 0-1.5.1-2 .4-3.9 1.3-5.3 2.8-1.4 1.4-2.3 3.3-2.6 5.3-.1 2.1.2 4.2.9 6.1.7 1.9 1.9 3.7 3.3 5.2 1.2 1.4 2.9 2.3 4.8 2.5z" fill="#fff"/><path fill-rule="evenodd" clip-rule="evenodd" d="M70 36H49v21h21V36zm-6.105 11.112.028.027c1.302.738 2.09 2.018 2.077 3.47V54H53v-3.391c.014-1.465.803-2.771 2.132-3.497.25-.119.526-.224.817-.317l.152-.04.139-.039-.07-.105-.083-.145a5.252 5.252 0 0 1-.692-2.085c-.152-1.439.526-2.85 1.758-3.669.679-.475 1.51-.712 2.368-.712.678 0 1.356.145 1.938.449a4.027 4.027 0 0 1 2.201 3.496 5.434 5.434 0 0 1-.72 2.508l-.083.145-.069.132.138.026.153.04a3.353 3.353 0 0 1 .816.316z" fill="#FE8836"/></svg>