<svg width="207" height="135" fill="none" xmlns="http://www.w3.org/2000/svg"><path fill-rule="evenodd" clip-rule="evenodd" d="m132.74 34.592-3.467-1.185-23.899-8.213c-.957-.325-1.34.112-.858.983 0 0 .235.422.847 1.447 3.801 6.066 14.028 19.41 14.028 19.41.607.785.333 1.138-.607.775l-7.257-2.275a6.067 6.067 0 0 1-2.888-1.87l-3.062-4.084a4.214 4.214 0 0 0-1.292-1.047 4.308 4.308 0 0 0-1.607-.475h-2.286a4.336 4.336 0 0 0-1.61.478 4.24 4.24 0 0 0-1.294 1.05l-3.079 4.106a6.108 6.108 0 0 1-2.882 1.88l-7.082 2.247c-.935.363-1.208 0-.607-.774 0 0 10.232-13.35 14.028-19.41.64-1.068.918-1.56.918-1.56.482-.865.104-1.297-.847-.96l-23.303 8.27a372 372 0 0 1-3.456 1.207l-2.444.839a2.784 2.784 0 0 0-1.224.95 2.687 2.687 0 0 0-.51 1.442v31.318a6.912 6.912 0 0 0 1.012 3.29l2.904 4.309c.608 1 .955 2.132 1.011 3.295v8.18a4.844 4.844 0 0 0 1.307 3.05l19.048 18.294c.716.694 1.225.454 1.132-.534 0 0-1.296-13.072-2.521-20.916-1.225-7.845-5.097-17.045-5.097-17.045a3.488 3.488 0 0 0-1.03-1.242 3.596 3.596 0 0 0-1.491-.66l-3.128-.426a2.524 2.524 0 0 1-1.343-.7 2.425 2.425 0 0 1-.68-1.33l-.575-4.96a1.165 1.165 0 0 1 .034-.619c.066-.2.186-.378.347-.518.16-.14.356-.236.566-.279.211-.042.43-.029.634.038l13.163 2.964a2.03 2.03 0 0 1 1.186.803c.282.4.403.888.34 1.37l-1.45 9.847c-.047.538.034 1.08.237 1.584.203.502.523.953.934 1.315l6.983 5.468a2.364 2.364 0 0 0 2.839-.037l6.562-5.399c.404-.373.717-.83.914-1.338a3.523 3.523 0 0 0 .224-1.593l-1.45-9.847a1.944 1.944 0 0 1 .354-1.35c.282-.393.7-.672 1.178-.786l13.672-2.985a1.258 1.258 0 0 1 1.203.248c.16.14.28.32.347.52.068.2.08.414.036.62l-.575 4.961c-.078.499-.317.96-.682 1.317a2.454 2.454 0 0 1-1.347.67l-4.506.534a2.994 2.994 0 0 0-1.431.656 2.89 2.89 0 0 0-.882 1.282s-2.275 8.085-4.074 16.885c-1.8 8.8-2.877 20.996-2.877 20.996-.087.982.427 1.223 1.149.534l19.047-18.294a4.869 4.869 0 0 0 1.307-3.05v-8.228a6.42 6.42 0 0 1 1.094-3.247l3.281-4.4A6.43 6.43 0 0 0 137 69.141V37.823a2.688 2.688 0 0 0-.51-1.443 2.786 2.786 0 0 0-1.224-.95l-2.526-.838z" fill="#fff"/><path stroke="#fff" stroke-width="3" d="M1.5 1.5h202v132H1.5z"/></svg>