<svg width="76" height="70" fill="none" xmlns="http://www.w3.org/2000/svg"><path d="m2.038 39.488-1.66 2.5H31.19l1.687-2.5H2.038zM3.394 10.309v8.408h2.489v-6.732l-2.49-1.676zM15.23 16.656h-2.489v5.77h2.49v-5.77z" fill="#1C3C70"/><path d="M3.393 21.879v20.085h26.44V21.88H3.393zm2.516 17.613V24.379h21.435v15.113H5.91z" fill="#1C3C70"/><path d="M3.394 14.734v9.645h21.185v-9.645H3.395zm2.516 7.144v-4.67h16.18v4.67H5.91zM8.29 28.281v7.172h7.107V28.28H8.29zm2.212 4.946v-2.72h2.627v2.72h-2.627zM17.554 28.281v7.172h7.108V28.28h-7.108zm2.24 4.946v-2.72h2.628v2.72h-2.628zM45.018 62.816l-1.687 2.5h30.81l1.716-2.5H45.018zM46.373 33.664v8.38h2.49v-6.731l-2.49-1.649zM58.184 39.984h-2.49v5.77h2.49v-5.77z" fill="#1C3C70"/><path d="M46.373 45.23v20.086h26.441V45.23H46.373zm2.517 17.586V47.703h21.435v15.112H48.89z" fill="#1C3C70"/><path d="M46.373 38.063v9.644h21.186v-9.645H46.373zm2.517 7.17v-4.67h16.18v4.67H48.89zM51.241 51.61v7.17h7.108v-7.17h-7.108zm2.24 4.945v-2.72h2.628v2.72h-2.628zM60.534 51.61v7.17h7.108v-7.17h-7.108zm2.24 4.945v-2.72h2.628v2.72h-2.627z" fill="#1C3C70"/><path d="M56.77 31.55c-1.272-6.1-4.868-11.348-10.095-14.782-5.255-3.435-11.533-4.616-17.673-3.353l-.443-2.17c6.721-1.374 13.608-.083 19.36 3.682 5.754 3.764 9.68 9.507 11.064 16.183l-2.213.44z" fill="#005EAB"/><path d="m33.87 6.71-8.713 5.112 8.712 4.753V6.711zM31.104 65.207a25.584 25.584 0 0 1-14.078-4.204c-5.753-3.765-9.68-9.507-11.063-16.184l2.185-.44c1.272 6.1 4.867 11.348 10.095 14.783 5.255 3.434 11.533 4.616 17.673 3.352l.443 2.17a26.22 26.22 0 0 1-5.255.523z" fill="#005EAB"/><path d="m30.993 69.164 8.74-5.083-8.74-4.754v9.837zM3.39 5.28l2.517 1.731v3.298L3.391 8.605V5.28zM3.39.527l2.517 1.704v3.325L3.391 3.825V.527zM46.37 28.609l2.518 1.73v3.298l-2.517-1.704V28.61zM46.37 23.856l2.518 1.703v3.325l-2.517-1.731v-3.297z" fill="#005EAB"/></svg>