<svg width="167" height="131" fill="none" xmlns="http://www.w3.org/2000/svg"><path d="M96.876 45.137H37.981v6.054h58.895v-6.054zM84.217 73.758H37.98v6.055h46.236v-6.055zM74.309 100.727H37.981v6.054H74.31v-6.054z" fill="#1D3D70"/><path d="M105.13 97.424v28.072H5.504V30.273L22.017 5.504h83.113V52.29l4.954-8.256V0h-91.37L0 28.622V131h110.084V89.168l-4.954 8.256z" fill="#1D3D70"/><path d="M34.676 1.102 18.163 25.87H4.403v5.504h17.063L41.28 1.102h-6.605z" fill="#1D3D70"/><path d="m131.552 50.639-13.76-9.358-36.328 54.492-2.202 18.164 14.862-8.807 28.622-41.281 1.1.55-8.256 11.559 4.403 3.302 11.009-15.962-5.504-3.853 6.054-8.806zm-12.659-1.652 4.953 3.303-2.752 3.853-4.403-3.303 2.202-3.853zm-1.101 11.56L94.674 94.121l-4.403-2.752 23.117-34.126 4.404 3.302zm-31.924 42.932.55-6.055 1.1-1.651 4.404 2.752-1.1 1.651-4.954 3.303zM25.868 51.187l13.21-20.366h-6.605l-9.908 15.962-4.403-7.155h-6.605l7.705 11.559h6.606zM25.868 79.815 39.078 60h-6.605l-9.908 15.412-4.403-7.156h-6.605l7.705 11.56h6.606zM25.868 108.983l13.21-20.366h-6.605l-9.908 15.412-4.403-6.605h-6.605l7.705 11.559h6.606z" fill="#005EAB"/></svg>