<svg width="110" height="82" fill="none" xmlns="http://www.w3.org/2000/svg"><path d="M60.918 31.86h-36.95v-3.708h36.95v3.708zm-8.104 14.468H23.968v3.708h28.846v-3.708zM23.97 66.794h22.84v-3.708H23.97v3.708zm41.834-33.929V3.428H24.152L13.41 19.635H3.434v58.934h62.368V61.104l3.434-5.172v26.065H0V17.9L11.863 0h57.373v27.693l-3.433 5.172zM20.01 3.428h-6.299L5.254 16.187h6.3L20.01 3.428z" fill="#fff"/><path d="m20.522 19.45 4.11-.095-8.298 12.594h-4.41l-4.748-7.207 4.11.095 2.843 4.315 6.393-9.701zM14.13 47.23l-2.844-4.315-4.11-.095 4.75 7.207h4.408l8.298-12.592-4.11.095-6.392 9.7zm0 18.08-2.844-4.316-4.11-.095 4.75 7.207h4.408l8.298-12.592-4.11.095-6.392 9.7zm49.259-24.5 3.909 2.39-.098.148-15.893 23.445h3.946l14.942-21.818 4.081 2.502.355-12.782-11.242 6.114z" fill="#FE8836"/></svg>