<svg width="110" height="73" fill="none" xmlns="http://www.w3.org/2000/svg"><path d="M0 72.335h20.887V28.707L0 58.909v13.426zm3.222-11.947L17.665 39.09v30.028H3.222v-8.73zm20.333-20.711v32.658H42.17V41.18L23.555 29.789v9.888zm3.222-4.12 12.172 7.353v26.207H26.778l-.001-33.56zM61.3 15.223 44.771 39.09v33.245H68V21.393l-6.699-6.17zm3.477 53.895H47.993V40.284l13.932-20.017 2.854 2.584v46.267z" fill="#1C3C70"/><path d="m63.947 13.01-3.558-2.817L42.192 37.51 20.318 24.16 0 54.444v-6.489l19.229-29.134L41.265 32.43l16.23-24.527-3.842-3.043L65.89 0l-1.944 13.01z" fill="#005EAB"/></svg>