<?xml version="1.0" encoding="utf-8"?>
<!-- Generator: Adobe Illustrator 23.0.5, SVG Export Plug-In . SVG Version: 6.00 Build 0)  -->
<svg version="1.1" id="Слой_1" xmlns="http://www.w3.org/2000/svg" xmlns:xlink="http://www.w3.org/1999/xlink" x="0px" y="0px"
	 width="49.4px" height="49.4px" viewBox="0 0 49.4 49.4" style="enable-background:new 0 0 49.4 49.4;" xml:space="preserve">
<style type="text/css">
	.st0{fill:#015EAB;stroke:#015EAB;stroke-width:0.2;}
</style>
<path class="st0" d="M37.4,22.1L37.4,22.1L37.4,22.1c0,0.4,0.2,0.8,0.5,1.1c0.3,0.3,0.7,0.4,1.1,0.4h5L33.3,34.3
	c-0.7,0.5-0.8,1.5-0.2,2.1c0.3,0.3,0.7,0.5,1.1,0.6c0.4,0,0.7-0.1,1.1-0.4c0,0,0.1,0,0.1,0c0,0,0.1-0.1,0.1-0.1c0,0,0-0.1,0-0.1
	l10.7-10.7v5c0,0.8,0.7,1.5,1.5,1.6l0,0h0c0.8,0,1.5-0.7,1.6-1.5l0,0v0v-8.6c0-0.8-0.7-1.5-1.5-1.5h-8.9h0c-0.5,0-0.9,0.2-1.1,0.5
	C37.5,21.5,37.4,21.8,37.4,22.1z M46.1,36.5H46v0.1v7.1c0,1.3-1,2.4-2.4,2.4H5.7c-1.3,0-2.4-1-2.4-2.4V15.4h38.3
	c0.5,0,0.9-0.2,1.2-0.5c0.3-0.3,0.5-0.7,0.5-1.2c0-0.5-0.2-0.9-0.5-1.2c-0.3-0.3-0.7-0.5-1.2-0.5H3.4V5.7c0-1.3,1-2.4,2.4-2.4h37.9
	c1.3,0,2.4,1,2.4,2.4v11.1V17l0.1,0c0.4-0.1,1-0.1,1.5-0.1c0.5,0,0.9,0,1.4,0.1l0.1,0v-0.1V5.7c0-3.1-2.5-5.6-5.6-5.6H5.7
	c-3.1,0-5.6,2.5-5.6,5.6v37.9c0,3.1,2.5,5.6,5.6,5.6h37.9c3.1,0,5.6-2.5,5.6-5.6v-7.1v-0.1h-0.1H46.1z M7.6,5.8
	c-1,0-1.9,0.8-1.9,1.9c0,1.2,1,1.8,1.9,1.8c0.5,0,1-0.2,1.3-0.5c0.4-0.3,0.6-0.8,0.6-1.3c0-0.5-0.2-1-0.6-1.3C8.6,6,8.1,5.8,7.6,5.8
	z M12.4,5.8c-1,0-1.9,0.8-1.9,1.9c0,1.2,1,1.8,1.9,1.8c1,0,1.8-0.8,1.8-1.8c0-0.5-0.2-1-0.5-1.3C13.3,6,12.9,5.8,12.4,5.8z
	 M17.2,5.8c-1,0-1.9,0.8-1.9,1.9c0,0.6,0.2,1,0.6,1.3c0.3,0.3,0.8,0.5,1.4,0.5c1,0,1.9-0.8,1.9-1.9C19.1,6.4,18.1,5.8,17.2,5.8z
	 M8.8,22.2H19c0.5,0,0.9-0.2,1.1-0.4c0.3-0.3,0.4-0.6,0.4-1.1c0-0.8-0.7-1.5-1.5-1.5H8.8c-0.5,0-0.9,0.2-1.1,0.4
	c-0.3,0.3-0.4,0.6-0.4,1.1c0,0.4,0.1,0.8,0.4,1.1C8,22,8.3,22.2,8.8,22.2z M9,31.7h16.2c1,0,1.6-0.7,1.6-1.5c0-0.8-0.7-1.5-1.6-1.5
	H9c-1,0-1.6,0.7-1.6,1.5c0,0.4,0.1,0.8,0.4,1.1C8,31.6,8.4,31.7,9,31.7z M8.8,27h16.3c0.5,0,0.9-0.2,1.1-0.4
	c0.3-0.3,0.4-0.6,0.4-1.1c0-0.5-0.2-0.9-0.4-1.1c-0.3-0.3-0.6-0.4-1.1-0.4H8.8c-0.5,0-0.9,0.2-1.1,0.4c-0.2,0.3-0.4,0.6-0.4,1
	c-0.1,0.4,0,0.8,0.3,1.1C7.9,26.8,8.3,27,8.8,27z M8.4,37h17.1c0.7,0,1.2-0.7,1.2-1.5c0-0.8-0.5-1.5-1.2-1.5H8.4
	c-0.7,0-1.2,0.7-1.2,1.5C7.2,36.3,7.7,37,8.4,37z M8.5,41.7h16.8c0.4,0,0.8-0.2,1-0.4c0.2-0.3,0.4-0.6,0.4-1c0-0.4-0.1-0.8-0.3-1.1
	c-0.2-0.3-0.6-0.5-1-0.5H8.5c-0.7,0-1.3,0.7-1.3,1.6c0,0.5,0.2,0.9,0.4,1.1C7.9,41.6,8.2,41.7,8.5,41.7z"/>
</svg>
