<?xml version="1.0" encoding="utf-8"?>
<!-- Generator: Adobe Illustrator 23.0.5, SVG Export Plug-In . SVG Version: 6.00 Build 0)  -->
<svg version="1.1" id="Слой_1" xmlns="http://www.w3.org/2000/svg" xmlns:xlink="http://www.w3.org/1999/xlink" x="0px" y="0px"
	 width="51.2px" height="51.2px" viewBox="0 0 51.2 51.2" style="enable-background:new 0 0 51.2 51.2;" xml:space="preserve">
<style type="text/css">
	.st0{fill:#005EAB;}
	.st1{fill:#FFFFFF;filter:url(#Adobe_OpacityMaskFilter);}
	.st2{mask:url(#path-1-outside-1_1_);fill:none;stroke:#005EAB;stroke-width:1.2;}
	.st3{fill:#FFFFFF;filter:url(#Adobe_OpacityMaskFilter_1_);}
	.st4{mask:url(#path-1-outside-1_2_);fill:none;stroke:#005EAB;stroke-width:1.2;}
	.st5{fill:#FFFFFF;filter:url(#Adobe_OpacityMaskFilter_2_);}
	.st6{mask:url(#path-1-outside-1_3_);fill:none;stroke:#005EAB;stroke-width:1.2;}
	.st7{fill:#FFFFFF;filter:url(#Adobe_OpacityMaskFilter_3_);}
	.st8{mask:url(#path-1-outside-1_4_);fill:none;stroke:#005EAB;stroke-width:1.2;}
</style>
<path class="st0" d="M43.3,7.9c-4.7-4.7-11-7.3-17.7-7.3s-13,2.6-17.7,7.3c-4.7,4.7-7.3,11-7.3,17.7s2.6,13,7.3,17.7
	c4.7,4.7,11,7.3,17.7,7.3s13-2.6,17.7-7.3c4.7-4.7,7.3-11,7.3-17.7S48,12.6,43.3,7.9z M48.5,20.5l-6.6-1.8c-0.3-0.1-0.6,0-0.8,0.2
	c-0.2,0.2-0.3,0.5-0.2,0.7l0.5,2.4c0.2,0.7,0.6,1.3,1.2,1.6c0.6,0.3,1.2,0.4,1.9,0.2V25c0,0.5-0.3,1.1-0.7,1.4l-4,3l-3.5-6.8
	c-0.2-0.4-0.7-0.5-1.1-0.3c-0.4,0.2-0.5,0.7-0.3,1.1l3.6,6.9c0.8,1.5,2.3,2.3,3.9,2.2l0.2,0l-0.3,1.4l-4.8,4.5
	c-0.1,0.1-0.1,0.2-0.2,0.3l-3.5,8.9c-0.9,0.2-1.8,0-2.6-0.4c-0.9-0.5-1.5-1.3-1.8-2.3c-0.3-1.2-0.4-1.6-0.4-1.8v-3.8
	c0-0.3-0.2-0.6-0.5-0.7l-0.8-0.3c-1.1-0.4-2.1-1.1-2.8-2.1l-1.4-1.8c-0.2-0.2-0.5-0.3-0.7-0.3l-5.8,1c-1,0.2-2-0.3-2.6-1.1l-0.6-0.9
	c-1-1.5-1.1-3.5-0.3-5.2l1.3-2.6c0.1-0.1,0.1-0.2,0.1-0.4l0-1c0-0.9,0.6-1.6,1.4-1.7l5.2-0.9c0.9-0.2,1.7,0,2.5,0.5l3,2
	c0.2,0.1,0.5,0.2,0.7,0.1l4.9-1.6c0.1,0,0.2-0.1,0.3-0.2l0.7-0.6c0.6-0.6,1-1.4,1-2.3c0-0.9-0.4-1.7-1-2.3c-0.2-0.2-0.5-0.2-0.7-0.2
	L28.9,18l-2.4-2.2c-0.5-0.4-1.1-0.5-1.7-0.3c-0.6,0.2-1,0.8-1,1.4c0,0,0,0,0,0L23,16.2c0,0-0.1-0.1-0.1-0.1
	c-1.2-0.7-2.8-0.5-3.8,0.5l-1.2,1.1c-0.1,0.1-0.1,0.1-0.2,0.2l-1.2,2.2l-1.5-0.4c-0.4-0.1-0.6-0.4-0.6-0.8l-0.1-1.1
	c0-0.5,0.3-0.9,0.8-0.9l1.5-0.2c0.4,0,0.7-0.4,0.7-0.8v-2l3-2.3c0.4-0.3,0.7-0.6,0.9-1l1-1.8c0.2-0.3,0.1-0.6,0-0.8
	c-0.2-0.2-0.5-0.4-0.8-0.3l-3.7,0.7V8.3c0-0.8,0.3-1.5,1-2l4.8-3.9l3.2,1.8c0.4,0.2,0.8,0.3,1.2,0.2c0.4-0.1,0.8-0.4,1-0.8l0.6-1.2
	c4.8,0.8,9.2,3,12.7,6.6C45.4,12.2,47.5,16.2,48.5,20.5z M25.5,18.8L25.3,17c0,0,0,0,0,0c0,0,0,0,0.1,0l2.7,2.5
	c0.2,0.2,0.5,0.3,0.8,0.2l3.8-1.1c0.1,0.2,0.2,0.5,0.2,0.8c0,0.4-0.2,0.8-0.5,1.1l-0.6,0.5l-4.4,1.5l-2.7-1.8
	c-0.8-0.5-1.8-0.8-2.7-0.8c-0.3,0-0.6,0-0.9,0.1l-3.1,0.6l0.9-1.6l1.1-1c0.5-0.5,1.3-0.6,1.9-0.3l2.2,2c0.2,0.2,0.6,0.3,0.9,0.1
	C25.4,19.4,25.6,19.1,25.5,18.8z M26,2.2c0.6,0,1.2,0,1.7,0.1l-0.4,0.6c0,0,0,0,0,0c0,0,0,0,0,0L26,2.2z M9,42.2
	c-4.4-4.4-6.9-10.3-6.9-16.6S4.6,13.5,9,9c3.2-3.2,7.2-5.4,11.5-6.3l-3,2.4c-1,0.8-1.5,2-1.5,3.2v1.1c0,0.2,0.1,0.5,0.3,0.6
	c0.2,0.1,0.4,0.2,0.6,0.2l2.9-0.6L19.7,10c-0.1,0.2-0.3,0.4-0.5,0.5L15.9,13c-0.2,0.1-0.3,0.4-0.3,0.6v1.6l-0.8,0.1
	c-1.3,0.1-2.3,1.3-2.2,2.6l0.1,1.1c0.1,1.1,0.8,1.9,1.8,2.2l0.2,0.1c-0.9,0.6-1.4,1.6-1.4,2.8l0,0.8l-1.2,2.4
	c-1.1,2.2-1,4.7,0.4,6.7l0.6,0.9c0.9,1.4,2.5,2,4.1,1.8l5.3-1l1.2,1.4c0.9,1.1,2.1,2,3.5,2.5l0.3,0.1V43c0,0.3,0,0.8,0.4,2.2
	c0.4,1.4,1.3,2.5,2.5,3.2c0,0,0.1,0,0.1,0.1c-1.6,0.4-3.3,0.5-5,0.5C19.3,49,13.5,46.6,9,42.2z M42.2,42.2c-1.9,1.9-4,3.4-6.3,4.5
	l2.9-7.4l4.8-4.6c0.1-0.1,0.2-0.3,0.2-0.4l0.5-2.7c0-0.2,0-0.5-0.2-0.7c-0.2-0.2-0.4-0.3-0.6-0.3l-1.2,0.1c-0.5,0-1-0.1-1.4-0.3
	l3.8-2.8c0.8-0.6,1.3-1.6,1.3-2.6v-2.3c0-0.3-0.1-0.5-0.3-0.6c-0.2-0.1-0.5-0.2-0.7-0.1l-0.9,0.3c-0.2,0.1-0.5,0.1-0.7-0.1
	c-0.2-0.1-0.4-0.3-0.4-0.6l-0.2-1.1l6.1,1.7c0.2,1.1,0.2,2.2,0.2,3.4C49,31.9,46.6,37.7,42.2,42.2z"/>
<path class="st0" d="M12.7,10.8l0.9,0.5l-0.5,2.1c-0.1,0.4,0.2,0.8,0.6,0.9c0.1,0,0.1,0,0.2,0c0.4,0,0.7-0.2,0.8-0.6l0.6-2.7
	c0.1-0.3-0.1-0.7-0.4-0.8l-1.3-0.8c-0.4-0.2-0.9-0.1-1.1,0.3C12.2,10.1,12.3,10.6,12.7,10.8z"/>
<path class="st0" d="M30.3,16.3h2.3c0.2,0,0.3-0.1,0.5-0.2l1.3-1c0.3-0.3,0.4-0.7,0.2-1.1c-0.3-0.3-0.7-0.4-1.1-0.2l-1.1,0.8h-2.1
	c-0.4,0-0.8,0.4-0.8,0.8C29.5,16,29.8,16.3,30.3,16.3z"/>
<path class="st0" d="M37,15c0.2,0.2,0.4,0.3,0.6,0.3c0.2,0,0.3,0,0.5-0.2c0.3-0.3,0.4-0.7,0.2-1.1l-2.1-2.9
	c-0.3-0.3-0.7-0.4-1.1-0.2c-0.3,0.3-0.4,0.7-0.2,1.1L37,15z"/>
<defs>
	<filter id="Adobe_OpacityMaskFilter" filterUnits="userSpaceOnUse" x="0" y="0" width="51.2" height="51.2">
		<feColorMatrix  type="matrix" values="1 0 0 0 0  0 1 0 0 0  0 0 1 0 0  0 0 0 1 0"/>
	</filter>
</defs>
<mask maskUnits="userSpaceOnUse" x="0" y="0" width="51.2" height="51.2" id="path-1-outside-1_1_">
	<rect x="-0.4" y="-0.4" class="st1" width="52" height="52"/>
	<path d="M43.3,7.9c-4.7-4.7-11-7.3-17.7-7.3s-13,2.6-17.7,7.3c-4.7,4.7-7.3,11-7.3,17.7s2.6,13,7.3,17.7c4.7,4.7,11,7.3,17.7,7.3
		s13-2.6,17.7-7.3c4.7-4.7,7.3-11,7.3-17.7S48,12.6,43.3,7.9z M48.5,20.5l-6.6-1.8c-0.3-0.1-0.6,0-0.8,0.2c-0.2,0.2-0.3,0.5-0.2,0.7
		l0.5,2.4c0.2,0.7,0.6,1.3,1.2,1.6c0.6,0.3,1.2,0.4,1.9,0.2V25c0,0.5-0.3,1.1-0.7,1.4l-4,3l-3.5-6.8c-0.2-0.4-0.7-0.5-1.1-0.3
		c-0.4,0.2-0.5,0.7-0.3,1.1l3.6,6.9c0.8,1.5,2.3,2.3,3.9,2.2l0.2,0l-0.3,1.4l-4.8,4.5c-0.1,0.1-0.1,0.2-0.2,0.3l-3.5,8.9
		c-0.9,0.2-1.8,0-2.6-0.4c-0.9-0.5-1.5-1.3-1.8-2.3c-0.3-1.2-0.4-1.6-0.4-1.8v-3.8c0-0.3-0.2-0.6-0.5-0.7l-0.8-0.3
		c-1.1-0.4-2.1-1.1-2.8-2.1l-1.4-1.8c-0.2-0.2-0.5-0.3-0.7-0.3l-5.8,1c-1,0.2-2-0.3-2.6-1.1l-0.6-0.9c-1-1.5-1.1-3.5-0.3-5.2
		l1.3-2.6c0.1-0.1,0.1-0.2,0.1-0.4l0-1c0-0.9,0.6-1.6,1.4-1.7l5.2-0.9c0.9-0.2,1.7,0,2.5,0.5l3,2c0.2,0.1,0.5,0.2,0.7,0.1l4.9-1.6
		c0.1,0,0.2-0.1,0.3-0.2l0.7-0.6c0.6-0.6,1-1.4,1-2.3c0-0.9-0.4-1.7-1-2.3c-0.2-0.2-0.5-0.2-0.7-0.2L28.9,18l-2.4-2.2
		c-0.5-0.4-1.1-0.5-1.7-0.3c-0.6,0.2-1,0.8-1,1.4c0,0,0,0,0,0L23,16.2c0,0-0.1-0.1-0.1-0.1c-1.2-0.7-2.8-0.5-3.8,0.5l-1.2,1.1
		c-0.1,0.1-0.1,0.1-0.2,0.2l-1.2,2.2l-1.5-0.4c-0.4-0.1-0.6-0.4-0.6-0.8l-0.1-1.1c0-0.5,0.3-0.9,0.8-0.9l1.5-0.2
		c0.4,0,0.7-0.4,0.7-0.8v-2l3-2.3c0.4-0.3,0.7-0.6,0.9-1l1-1.8c0.2-0.3,0.1-0.6,0-0.8c-0.2-0.2-0.5-0.4-0.8-0.3l-3.7,0.7V8.3
		c0-0.8,0.3-1.5,1-2l4.8-3.9l3.2,1.8c0.4,0.2,0.8,0.3,1.2,0.2c0.4-0.1,0.8-0.4,1-0.8l0.6-1.2c4.8,0.8,9.2,3,12.7,6.6
		C45.4,12.2,47.5,16.2,48.5,20.5z M25.5,18.8L25.3,17c0,0,0,0,0,0c0,0,0,0,0.1,0l2.7,2.5c0.2,0.2,0.5,0.3,0.8,0.2l3.8-1.1
		c0.1,0.2,0.2,0.5,0.2,0.8c0,0.4-0.2,0.8-0.5,1.1l-0.6,0.5l-4.4,1.5l-2.7-1.8c-0.8-0.5-1.8-0.8-2.7-0.8c-0.3,0-0.6,0-0.9,0.1
		l-3.1,0.6l0.9-1.6l1.1-1c0.5-0.5,1.3-0.6,1.9-0.3l2.2,2c0.2,0.2,0.6,0.3,0.9,0.1C25.4,19.4,25.6,19.1,25.5,18.8z M26,2.2
		c0.6,0,1.2,0,1.7,0.1l-0.4,0.6c0,0,0,0,0,0c0,0,0,0,0,0L26,2.2z M9,42.2c-4.4-4.4-6.9-10.3-6.9-16.6S4.6,13.5,9,9
		c3.2-3.2,7.2-5.4,11.5-6.3l-3,2.4c-1,0.8-1.5,2-1.5,3.2v1.1c0,0.2,0.1,0.5,0.3,0.6c0.2,0.1,0.4,0.2,0.6,0.2l2.9-0.6L19.7,10
		c-0.1,0.2-0.3,0.4-0.5,0.5L15.9,13c-0.2,0.1-0.3,0.4-0.3,0.6v1.6l-0.8,0.1c-1.3,0.1-2.3,1.3-2.2,2.6l0.1,1.1
		c0.1,1.1,0.8,1.9,1.8,2.2l0.2,0.1c-0.9,0.6-1.4,1.6-1.4,2.8l0,0.8l-1.2,2.4c-1.1,2.2-1,4.7,0.4,6.7l0.6,0.9c0.9,1.4,2.5,2,4.1,1.8
		l5.3-1l1.2,1.4c0.9,1.1,2.1,2,3.5,2.5l0.3,0.1V43c0,0.3,0,0.8,0.4,2.2c0.4,1.4,1.3,2.5,2.5,3.2c0,0,0.1,0,0.1,0.1
		c-1.6,0.4-3.3,0.5-5,0.5C19.3,49,13.5,46.6,9,42.2z M42.2,42.2c-1.9,1.9-4,3.4-6.3,4.5l2.9-7.4l4.8-4.6c0.1-0.1,0.2-0.3,0.2-0.4
		l0.5-2.7c0-0.2,0-0.5-0.2-0.7c-0.2-0.2-0.4-0.3-0.6-0.3l-1.2,0.1c-0.5,0-1-0.1-1.4-0.3l3.8-2.8c0.8-0.6,1.3-1.6,1.3-2.6v-2.3
		c0-0.3-0.1-0.5-0.3-0.6c-0.2-0.1-0.5-0.2-0.7-0.1l-0.9,0.3c-0.2,0.1-0.5,0.1-0.7-0.1c-0.2-0.1-0.4-0.3-0.4-0.6l-0.2-1.1l6.1,1.7
		c0.2,1.1,0.2,2.2,0.2,3.4C49,31.9,46.6,37.7,42.2,42.2z"/>
	<path d="M12.7,10.8l0.9,0.5l-0.5,2.1c-0.1,0.4,0.2,0.8,0.6,0.9c0.1,0,0.1,0,0.2,0c0.4,0,0.7-0.2,0.8-0.6l0.6-2.7
		c0.1-0.3-0.1-0.7-0.4-0.8l-1.3-0.8c-0.4-0.2-0.9-0.1-1.1,0.3C12.2,10.1,12.3,10.6,12.7,10.8z"/>
	<path d="M30.3,16.3h2.3c0.2,0,0.3-0.1,0.5-0.2l1.3-1c0.3-0.3,0.4-0.7,0.2-1.1c-0.3-0.3-0.7-0.4-1.1-0.2l-1.1,0.8h-2.1
		c-0.4,0-0.8,0.4-0.8,0.8C29.5,16,29.8,16.3,30.3,16.3z"/>
	<path d="M37,15c0.2,0.2,0.4,0.3,0.6,0.3c0.2,0,0.3,0,0.5-0.2c0.3-0.3,0.4-0.7,0.2-1.1l-2.1-2.9c-0.3-0.3-0.7-0.4-1.1-0.2
		c-0.3,0.3-0.4,0.7-0.2,1.1L37,15z"/>
</mask>
<path class="st2" d="M43.3,7.9c-4.7-4.7-11-7.3-17.7-7.3s-13,2.6-17.7,7.3c-4.7,4.7-7.3,11-7.3,17.7s2.6,13,7.3,17.7
	c4.7,4.7,11,7.3,17.7,7.3s13-2.6,17.7-7.3c4.7-4.7,7.3-11,7.3-17.7S48,12.6,43.3,7.9z M48.5,20.5l-6.6-1.8c-0.3-0.1-0.6,0-0.8,0.2
	c-0.2,0.2-0.3,0.5-0.2,0.7l0.5,2.4c0.2,0.7,0.6,1.3,1.2,1.6c0.6,0.3,1.2,0.4,1.9,0.2V25c0,0.5-0.3,1.1-0.7,1.4l-4,3l-3.5-6.8
	c-0.2-0.4-0.7-0.5-1.1-0.3c-0.4,0.2-0.5,0.7-0.3,1.1l3.6,6.9c0.8,1.5,2.3,2.3,3.9,2.2l0.2,0l-0.3,1.4l-4.8,4.5
	c-0.1,0.1-0.1,0.2-0.2,0.3l-3.5,8.9c-0.9,0.2-1.8,0-2.6-0.4c-0.9-0.5-1.5-1.3-1.8-2.3c-0.3-1.2-0.4-1.6-0.4-1.8v-3.8
	c0-0.3-0.2-0.6-0.5-0.7l-0.8-0.3c-1.1-0.4-2.1-1.1-2.8-2.1l-1.4-1.8c-0.2-0.2-0.5-0.3-0.7-0.3l-5.8,1c-1,0.2-2-0.3-2.6-1.1l-0.6-0.9
	c-1-1.5-1.1-3.5-0.3-5.2l1.3-2.6c0.1-0.1,0.1-0.2,0.1-0.4l0-1c0-0.9,0.6-1.6,1.4-1.7l5.2-0.9c0.9-0.2,1.7,0,2.5,0.5l3,2
	c0.2,0.1,0.5,0.2,0.7,0.1l4.9-1.6c0.1,0,0.2-0.1,0.3-0.2l0.7-0.6c0.6-0.6,1-1.4,1-2.3c0-0.9-0.4-1.7-1-2.3c-0.2-0.2-0.5-0.2-0.7-0.2
	L28.9,18l-2.4-2.2c-0.5-0.4-1.1-0.5-1.7-0.3c-0.6,0.2-1,0.8-1,1.4c0,0,0,0,0,0L23,16.2c0,0-0.1-0.1-0.1-0.1
	c-1.2-0.7-2.8-0.5-3.8,0.5l-1.2,1.1c-0.1,0.1-0.1,0.1-0.2,0.2l-1.2,2.2l-1.5-0.4c-0.4-0.1-0.6-0.4-0.6-0.8l-0.1-1.1
	c0-0.5,0.3-0.9,0.8-0.9l1.5-0.2c0.4,0,0.7-0.4,0.7-0.8v-2l3-2.3c0.4-0.3,0.7-0.6,0.9-1l1-1.8c0.2-0.3,0.1-0.6,0-0.8
	c-0.2-0.2-0.5-0.4-0.8-0.3l-3.7,0.7V8.3c0-0.8,0.3-1.5,1-2l4.8-3.9l3.2,1.8c0.4,0.2,0.8,0.3,1.2,0.2c0.4-0.1,0.8-0.4,1-0.8l0.6-1.2
	c4.8,0.8,9.2,3,12.7,6.6C45.4,12.2,47.5,16.2,48.5,20.5z M25.5,18.8L25.3,17c0,0,0,0,0,0c0,0,0,0,0.1,0l2.7,2.5
	c0.2,0.2,0.5,0.3,0.8,0.2l3.8-1.1c0.1,0.2,0.2,0.5,0.2,0.8c0,0.4-0.2,0.8-0.5,1.1l-0.6,0.5l-4.4,1.5l-2.7-1.8
	c-0.8-0.5-1.8-0.8-2.7-0.8c-0.3,0-0.6,0-0.9,0.1l-3.1,0.6l0.9-1.6l1.1-1c0.5-0.5,1.3-0.6,1.9-0.3l2.2,2c0.2,0.2,0.6,0.3,0.9,0.1
	C25.4,19.4,25.6,19.1,25.5,18.8z M26,2.2c0.6,0,1.2,0,1.7,0.1l-0.4,0.6c0,0,0,0,0,0c0,0,0,0,0,0L26,2.2z M9,42.2
	c-4.4-4.4-6.9-10.3-6.9-16.6S4.6,13.5,9,9c3.2-3.2,7.2-5.4,11.5-6.3l-3,2.4c-1,0.8-1.5,2-1.5,3.2v1.1c0,0.2,0.1,0.5,0.3,0.6
	c0.2,0.1,0.4,0.2,0.6,0.2l2.9-0.6L19.7,10c-0.1,0.2-0.3,0.4-0.5,0.5L15.9,13c-0.2,0.1-0.3,0.4-0.3,0.6v1.6l-0.8,0.1
	c-1.3,0.1-2.3,1.3-2.2,2.6l0.1,1.1c0.1,1.1,0.8,1.9,1.8,2.2l0.2,0.1c-0.9,0.6-1.4,1.6-1.4,2.8l0,0.8l-1.2,2.4
	c-1.1,2.2-1,4.7,0.4,6.7l0.6,0.9c0.9,1.4,2.5,2,4.1,1.8l5.3-1l1.2,1.4c0.9,1.1,2.1,2,3.5,2.5l0.3,0.1V43c0,0.3,0,0.8,0.4,2.2
	c0.4,1.4,1.3,2.5,2.5,3.2c0,0,0.1,0,0.1,0.1c-1.6,0.4-3.3,0.5-5,0.5C19.3,49,13.5,46.6,9,42.2z M42.2,42.2c-1.9,1.9-4,3.4-6.3,4.5
	l2.9-7.4l4.8-4.6c0.1-0.1,0.2-0.3,0.2-0.4l0.5-2.7c0-0.2,0-0.5-0.2-0.7c-0.2-0.2-0.4-0.3-0.6-0.3l-1.2,0.1c-0.5,0-1-0.1-1.4-0.3
	l3.8-2.8c0.8-0.6,1.3-1.6,1.3-2.6v-2.3c0-0.3-0.1-0.5-0.3-0.6c-0.2-0.1-0.5-0.2-0.7-0.1l-0.9,0.3c-0.2,0.1-0.5,0.1-0.7-0.1
	c-0.2-0.1-0.4-0.3-0.4-0.6l-0.2-1.1l6.1,1.7c0.2,1.1,0.2,2.2,0.2,3.4C49,31.9,46.6,37.7,42.2,42.2z"/>
<defs>
	<filter id="Adobe_OpacityMaskFilter_1_" filterUnits="userSpaceOnUse" x="11.7" y="8.8" width="4.1" height="6.2">
		<feColorMatrix  type="matrix" values="1 0 0 0 0  0 1 0 0 0  0 0 1 0 0  0 0 0 1 0"/>
	</filter>
</defs>
<mask maskUnits="userSpaceOnUse" x="11.7" y="8.8" width="4.1" height="6.2" id="path-1-outside-1_2_">
	<rect x="-0.4" y="-0.4" class="st3" width="52" height="52"/>
	<path d="M43.3,7.9c-4.7-4.7-11-7.3-17.7-7.3s-13,2.6-17.7,7.3c-4.7,4.7-7.3,11-7.3,17.7s2.6,13,7.3,17.7c4.7,4.7,11,7.3,17.7,7.3
		s13-2.6,17.7-7.3c4.7-4.7,7.3-11,7.3-17.7S48,12.6,43.3,7.9z M48.5,20.5l-6.6-1.8c-0.3-0.1-0.6,0-0.8,0.2c-0.2,0.2-0.3,0.5-0.2,0.7
		l0.5,2.4c0.2,0.7,0.6,1.3,1.2,1.6c0.6,0.3,1.2,0.4,1.9,0.2V25c0,0.5-0.3,1.1-0.7,1.4l-4,3l-3.5-6.8c-0.2-0.4-0.7-0.5-1.1-0.3
		c-0.4,0.2-0.5,0.7-0.3,1.1l3.6,6.9c0.8,1.5,2.3,2.3,3.9,2.2l0.2,0l-0.3,1.4l-4.8,4.5c-0.1,0.1-0.1,0.2-0.2,0.3l-3.5,8.9
		c-0.9,0.2-1.8,0-2.6-0.4c-0.9-0.5-1.5-1.3-1.8-2.3c-0.3-1.2-0.4-1.6-0.4-1.8v-3.8c0-0.3-0.2-0.6-0.5-0.7l-0.8-0.3
		c-1.1-0.4-2.1-1.1-2.8-2.1l-1.4-1.8c-0.2-0.2-0.5-0.3-0.7-0.3l-5.8,1c-1,0.2-2-0.3-2.6-1.1l-0.6-0.9c-1-1.5-1.1-3.5-0.3-5.2
		l1.3-2.6c0.1-0.1,0.1-0.2,0.1-0.4l0-1c0-0.9,0.6-1.6,1.4-1.7l5.2-0.9c0.9-0.2,1.7,0,2.5,0.5l3,2c0.2,0.1,0.5,0.2,0.7,0.1l4.9-1.6
		c0.1,0,0.2-0.1,0.3-0.2l0.7-0.6c0.6-0.6,1-1.4,1-2.3c0-0.9-0.4-1.7-1-2.3c-0.2-0.2-0.5-0.2-0.7-0.2L28.9,18l-2.4-2.2
		c-0.5-0.4-1.1-0.5-1.7-0.3c-0.6,0.2-1,0.8-1,1.4c0,0,0,0,0,0L23,16.2c0,0-0.1-0.1-0.1-0.1c-1.2-0.7-2.8-0.5-3.8,0.5l-1.2,1.1
		c-0.1,0.1-0.1,0.1-0.2,0.2l-1.2,2.2l-1.5-0.4c-0.4-0.1-0.6-0.4-0.6-0.8l-0.1-1.1c0-0.5,0.3-0.9,0.8-0.9l1.5-0.2
		c0.4,0,0.7-0.4,0.7-0.8v-2l3-2.3c0.4-0.3,0.7-0.6,0.9-1l1-1.8c0.2-0.3,0.1-0.6,0-0.8c-0.2-0.2-0.5-0.4-0.8-0.3l-3.7,0.7V8.3
		c0-0.8,0.3-1.5,1-2l4.8-3.9l3.2,1.8c0.4,0.2,0.8,0.3,1.2,0.2c0.4-0.1,0.8-0.4,1-0.8l0.6-1.2c4.8,0.8,9.2,3,12.7,6.6
		C45.4,12.2,47.5,16.2,48.5,20.5z M25.5,18.8L25.3,17c0,0,0,0,0,0c0,0,0,0,0.1,0l2.7,2.5c0.2,0.2,0.5,0.3,0.8,0.2l3.8-1.1
		c0.1,0.2,0.2,0.5,0.2,0.8c0,0.4-0.2,0.8-0.5,1.1l-0.6,0.5l-4.4,1.5l-2.7-1.8c-0.8-0.5-1.8-0.8-2.7-0.8c-0.3,0-0.6,0-0.9,0.1
		l-3.1,0.6l0.9-1.6l1.1-1c0.5-0.5,1.3-0.6,1.9-0.3l2.2,2c0.2,0.2,0.6,0.3,0.9,0.1C25.4,19.4,25.6,19.1,25.5,18.8z M26,2.2
		c0.6,0,1.2,0,1.7,0.1l-0.4,0.6c0,0,0,0,0,0c0,0,0,0,0,0L26,2.2z M9,42.2c-4.4-4.4-6.9-10.3-6.9-16.6S4.6,13.5,9,9
		c3.2-3.2,7.2-5.4,11.5-6.3l-3,2.4c-1,0.8-1.5,2-1.5,3.2v1.1c0,0.2,0.1,0.5,0.3,0.6c0.2,0.1,0.4,0.2,0.6,0.2l2.9-0.6L19.7,10
		c-0.1,0.2-0.3,0.4-0.5,0.5L15.9,13c-0.2,0.1-0.3,0.4-0.3,0.6v1.6l-0.8,0.1c-1.3,0.1-2.3,1.3-2.2,2.6l0.1,1.1
		c0.1,1.1,0.8,1.9,1.8,2.2l0.2,0.1c-0.9,0.6-1.4,1.6-1.4,2.8l0,0.8l-1.2,2.4c-1.1,2.2-1,4.7,0.4,6.7l0.6,0.9c0.9,1.4,2.5,2,4.1,1.8
		l5.3-1l1.2,1.4c0.9,1.1,2.1,2,3.5,2.5l0.3,0.1V43c0,0.3,0,0.8,0.4,2.2c0.4,1.4,1.3,2.5,2.5,3.2c0,0,0.1,0,0.1,0.1
		c-1.6,0.4-3.3,0.5-5,0.5C19.3,49,13.5,46.6,9,42.2z M42.2,42.2c-1.9,1.9-4,3.4-6.3,4.5l2.9-7.4l4.8-4.6c0.1-0.1,0.2-0.3,0.2-0.4
		l0.5-2.7c0-0.2,0-0.5-0.2-0.7c-0.2-0.2-0.4-0.3-0.6-0.3l-1.2,0.1c-0.5,0-1-0.1-1.4-0.3l3.8-2.8c0.8-0.6,1.3-1.6,1.3-2.6v-2.3
		c0-0.3-0.1-0.5-0.3-0.6c-0.2-0.1-0.5-0.2-0.7-0.1l-0.9,0.3c-0.2,0.1-0.5,0.1-0.7-0.1c-0.2-0.1-0.4-0.3-0.4-0.6l-0.2-1.1l6.1,1.7
		c0.2,1.1,0.2,2.2,0.2,3.4C49,31.9,46.6,37.7,42.2,42.2z"/>
	<path d="M12.7,10.8l0.9,0.5l-0.5,2.1c-0.1,0.4,0.2,0.8,0.6,0.9c0.1,0,0.1,0,0.2,0c0.4,0,0.7-0.2,0.8-0.6l0.6-2.7
		c0.1-0.3-0.1-0.7-0.4-0.8l-1.3-0.8c-0.4-0.2-0.9-0.1-1.1,0.3C12.2,10.1,12.3,10.6,12.7,10.8z"/>
	<path d="M30.3,16.3h2.3c0.2,0,0.3-0.1,0.5-0.2l1.3-1c0.3-0.3,0.4-0.7,0.2-1.1c-0.3-0.3-0.7-0.4-1.1-0.2l-1.1,0.8h-2.1
		c-0.4,0-0.8,0.4-0.8,0.8C29.5,16,29.8,16.3,30.3,16.3z"/>
	<path d="M37,15c0.2,0.2,0.4,0.3,0.6,0.3c0.2,0,0.3,0,0.5-0.2c0.3-0.3,0.4-0.7,0.2-1.1l-2.1-2.9c-0.3-0.3-0.7-0.4-1.1-0.2
		c-0.3,0.3-0.4,0.7-0.2,1.1L37,15z"/>
</mask>
<path class="st4" d="M12.7,10.8l0.9,0.5l-0.5,2.1c-0.1,0.4,0.2,0.8,0.6,0.9c0.1,0,0.1,0,0.2,0c0.4,0,0.7-0.2,0.8-0.6l0.6-2.7
	c0.1-0.3-0.1-0.7-0.4-0.8l-1.3-0.8c-0.4-0.2-0.9-0.1-1.1,0.3C12.2,10.1,12.3,10.6,12.7,10.8z"/>
<defs>
	<filter id="Adobe_OpacityMaskFilter_2_" filterUnits="userSpaceOnUse" x="28.9" y="13.2" width="6.4" height="3.7">
		<feColorMatrix  type="matrix" values="1 0 0 0 0  0 1 0 0 0  0 0 1 0 0  0 0 0 1 0"/>
	</filter>
</defs>
<mask maskUnits="userSpaceOnUse" x="28.9" y="13.2" width="6.4" height="3.7" id="path-1-outside-1_3_">
	<rect x="-0.4" y="-0.4" class="st5" width="52" height="52"/>
	<path d="M43.3,7.9c-4.7-4.7-11-7.3-17.7-7.3s-13,2.6-17.7,7.3c-4.7,4.7-7.3,11-7.3,17.7s2.6,13,7.3,17.7c4.7,4.7,11,7.3,17.7,7.3
		s13-2.6,17.7-7.3c4.7-4.7,7.3-11,7.3-17.7S48,12.6,43.3,7.9z M48.5,20.5l-6.6-1.8c-0.3-0.1-0.6,0-0.8,0.2c-0.2,0.2-0.3,0.5-0.2,0.7
		l0.5,2.4c0.2,0.7,0.6,1.3,1.2,1.6c0.6,0.3,1.2,0.4,1.9,0.2V25c0,0.5-0.3,1.1-0.7,1.4l-4,3l-3.5-6.8c-0.2-0.4-0.7-0.5-1.1-0.3
		c-0.4,0.2-0.5,0.7-0.3,1.1l3.6,6.9c0.8,1.5,2.3,2.3,3.9,2.2l0.2,0l-0.3,1.4l-4.8,4.5c-0.1,0.1-0.1,0.2-0.2,0.3l-3.5,8.9
		c-0.9,0.2-1.8,0-2.6-0.4c-0.9-0.5-1.5-1.3-1.8-2.3c-0.3-1.2-0.4-1.6-0.4-1.8v-3.8c0-0.3-0.2-0.6-0.5-0.7l-0.8-0.3
		c-1.1-0.4-2.1-1.1-2.8-2.1l-1.4-1.8c-0.2-0.2-0.5-0.3-0.7-0.3l-5.8,1c-1,0.2-2-0.3-2.6-1.1l-0.6-0.9c-1-1.5-1.1-3.5-0.3-5.2
		l1.3-2.6c0.1-0.1,0.1-0.2,0.1-0.4l0-1c0-0.9,0.6-1.6,1.4-1.7l5.2-0.9c0.9-0.2,1.7,0,2.5,0.5l3,2c0.2,0.1,0.5,0.2,0.7,0.1l4.9-1.6
		c0.1,0,0.2-0.1,0.3-0.2l0.7-0.6c0.6-0.6,1-1.4,1-2.3c0-0.9-0.4-1.7-1-2.3c-0.2-0.2-0.5-0.2-0.7-0.2L28.9,18l-2.4-2.2
		c-0.5-0.4-1.1-0.5-1.7-0.3c-0.6,0.2-1,0.8-1,1.4c0,0,0,0,0,0L23,16.2c0,0-0.1-0.1-0.1-0.1c-1.2-0.7-2.8-0.5-3.8,0.5l-1.2,1.1
		c-0.1,0.1-0.1,0.1-0.2,0.2l-1.2,2.2l-1.5-0.4c-0.4-0.1-0.6-0.4-0.6-0.8l-0.1-1.1c0-0.5,0.3-0.9,0.8-0.9l1.5-0.2
		c0.4,0,0.7-0.4,0.7-0.8v-2l3-2.3c0.4-0.3,0.7-0.6,0.9-1l1-1.8c0.2-0.3,0.1-0.6,0-0.8c-0.2-0.2-0.5-0.4-0.8-0.3l-3.7,0.7V8.3
		c0-0.8,0.3-1.5,1-2l4.8-3.9l3.2,1.8c0.4,0.2,0.8,0.3,1.2,0.2c0.4-0.1,0.8-0.4,1-0.8l0.6-1.2c4.8,0.8,9.2,3,12.7,6.6
		C45.4,12.2,47.5,16.2,48.5,20.5z M25.5,18.8L25.3,17c0,0,0,0,0,0c0,0,0,0,0.1,0l2.7,2.5c0.2,0.2,0.5,0.3,0.8,0.2l3.8-1.1
		c0.1,0.2,0.2,0.5,0.2,0.8c0,0.4-0.2,0.8-0.5,1.1l-0.6,0.5l-4.4,1.5l-2.7-1.8c-0.8-0.5-1.8-0.8-2.7-0.8c-0.3,0-0.6,0-0.9,0.1
		l-3.1,0.6l0.9-1.6l1.1-1c0.5-0.5,1.3-0.6,1.9-0.3l2.2,2c0.2,0.2,0.6,0.3,0.9,0.1C25.4,19.4,25.6,19.1,25.5,18.8z M26,2.2
		c0.6,0,1.2,0,1.7,0.1l-0.4,0.6c0,0,0,0,0,0c0,0,0,0,0,0L26,2.2z M9,42.2c-4.4-4.4-6.9-10.3-6.9-16.6S4.6,13.5,9,9
		c3.2-3.2,7.2-5.4,11.5-6.3l-3,2.4c-1,0.8-1.5,2-1.5,3.2v1.1c0,0.2,0.1,0.5,0.3,0.6c0.2,0.1,0.4,0.2,0.6,0.2l2.9-0.6L19.7,10
		c-0.1,0.2-0.3,0.4-0.5,0.5L15.9,13c-0.2,0.1-0.3,0.4-0.3,0.6v1.6l-0.8,0.1c-1.3,0.1-2.3,1.3-2.2,2.6l0.1,1.1
		c0.1,1.1,0.8,1.9,1.8,2.2l0.2,0.1c-0.9,0.6-1.4,1.6-1.4,2.8l0,0.8l-1.2,2.4c-1.1,2.2-1,4.7,0.4,6.7l0.6,0.9c0.9,1.4,2.5,2,4.1,1.8
		l5.3-1l1.2,1.4c0.9,1.1,2.1,2,3.5,2.5l0.3,0.1V43c0,0.3,0,0.8,0.4,2.2c0.4,1.4,1.3,2.5,2.5,3.2c0,0,0.1,0,0.1,0.1
		c-1.6,0.4-3.3,0.5-5,0.5C19.3,49,13.5,46.6,9,42.2z M42.2,42.2c-1.9,1.9-4,3.4-6.3,4.5l2.9-7.4l4.8-4.6c0.1-0.1,0.2-0.3,0.2-0.4
		l0.5-2.7c0-0.2,0-0.5-0.2-0.7c-0.2-0.2-0.4-0.3-0.6-0.3l-1.2,0.1c-0.5,0-1-0.1-1.4-0.3l3.8-2.8c0.8-0.6,1.3-1.6,1.3-2.6v-2.3
		c0-0.3-0.1-0.5-0.3-0.6c-0.2-0.1-0.5-0.2-0.7-0.1l-0.9,0.3c-0.2,0.1-0.5,0.1-0.7-0.1c-0.2-0.1-0.4-0.3-0.4-0.6l-0.2-1.1l6.1,1.7
		c0.2,1.1,0.2,2.2,0.2,3.4C49,31.9,46.6,37.7,42.2,42.2z"/>
	<path d="M12.7,10.8l0.9,0.5l-0.5,2.1c-0.1,0.4,0.2,0.8,0.6,0.9c0.1,0,0.1,0,0.2,0c0.4,0,0.7-0.2,0.8-0.6l0.6-2.7
		c0.1-0.3-0.1-0.7-0.4-0.8l-1.3-0.8c-0.4-0.2-0.9-0.1-1.1,0.3C12.2,10.1,12.3,10.6,12.7,10.8z"/>
	<path d="M30.3,16.3h2.3c0.2,0,0.3-0.1,0.5-0.2l1.3-1c0.3-0.3,0.4-0.7,0.2-1.1c-0.3-0.3-0.7-0.4-1.1-0.2l-1.1,0.8h-2.1
		c-0.4,0-0.8,0.4-0.8,0.8C29.5,16,29.8,16.3,30.3,16.3z"/>
	<path d="M37,15c0.2,0.2,0.4,0.3,0.6,0.3c0.2,0,0.3,0,0.5-0.2c0.3-0.3,0.4-0.7,0.2-1.1l-2.1-2.9c-0.3-0.3-0.7-0.4-1.1-0.2
		c-0.3,0.3-0.4,0.7-0.2,1.1L37,15z"/>
</mask>
<path class="st6" d="M30.3,16.3h2.3c0.2,0,0.3-0.1,0.5-0.2l1.3-1c0.3-0.3,0.4-0.7,0.2-1.1c-0.3-0.3-0.7-0.4-1.1-0.2l-1.1,0.8h-2.1
	c-0.4,0-0.8,0.4-0.8,0.8C29.5,16,29.8,16.3,30.3,16.3z"/>
<defs>
	<filter id="Adobe_OpacityMaskFilter_3_" filterUnits="userSpaceOnUse" x="34.1" y="10.3" width="4.9" height="5.7">
		<feColorMatrix  type="matrix" values="1 0 0 0 0  0 1 0 0 0  0 0 1 0 0  0 0 0 1 0"/>
	</filter>
</defs>
<mask maskUnits="userSpaceOnUse" x="34.1" y="10.3" width="4.9" height="5.7" id="path-1-outside-1_4_">
	<rect x="-0.4" y="-0.4" class="st7" width="52" height="52"/>
	<path d="M43.3,7.9c-4.7-4.7-11-7.3-17.7-7.3s-13,2.6-17.7,7.3c-4.7,4.7-7.3,11-7.3,17.7s2.6,13,7.3,17.7c4.7,4.7,11,7.3,17.7,7.3
		s13-2.6,17.7-7.3c4.7-4.7,7.3-11,7.3-17.7S48,12.6,43.3,7.9z M48.5,20.5l-6.6-1.8c-0.3-0.1-0.6,0-0.8,0.2c-0.2,0.2-0.3,0.5-0.2,0.7
		l0.5,2.4c0.2,0.7,0.6,1.3,1.2,1.6c0.6,0.3,1.2,0.4,1.9,0.2V25c0,0.5-0.3,1.1-0.7,1.4l-4,3l-3.5-6.8c-0.2-0.4-0.7-0.5-1.1-0.3
		c-0.4,0.2-0.5,0.7-0.3,1.1l3.6,6.9c0.8,1.5,2.3,2.3,3.9,2.2l0.2,0l-0.3,1.4l-4.8,4.5c-0.1,0.1-0.1,0.2-0.2,0.3l-3.5,8.9
		c-0.9,0.2-1.8,0-2.6-0.4c-0.9-0.5-1.5-1.3-1.8-2.3c-0.3-1.2-0.4-1.6-0.4-1.8v-3.8c0-0.3-0.2-0.6-0.5-0.7l-0.8-0.3
		c-1.1-0.4-2.1-1.1-2.8-2.1l-1.4-1.8c-0.2-0.2-0.5-0.3-0.7-0.3l-5.8,1c-1,0.2-2-0.3-2.6-1.1l-0.6-0.9c-1-1.5-1.1-3.5-0.3-5.2
		l1.3-2.6c0.1-0.1,0.1-0.2,0.1-0.4l0-1c0-0.9,0.6-1.6,1.4-1.7l5.2-0.9c0.9-0.2,1.7,0,2.5,0.5l3,2c0.2,0.1,0.5,0.2,0.7,0.1l4.9-1.6
		c0.1,0,0.2-0.1,0.3-0.2l0.7-0.6c0.6-0.6,1-1.4,1-2.3c0-0.9-0.4-1.7-1-2.3c-0.2-0.2-0.5-0.2-0.7-0.2L28.9,18l-2.4-2.2
		c-0.5-0.4-1.1-0.5-1.7-0.3c-0.6,0.2-1,0.8-1,1.4c0,0,0,0,0,0L23,16.2c0,0-0.1-0.1-0.1-0.1c-1.2-0.7-2.8-0.5-3.8,0.5l-1.2,1.1
		c-0.1,0.1-0.1,0.1-0.2,0.2l-1.2,2.2l-1.5-0.4c-0.4-0.1-0.6-0.4-0.6-0.8l-0.1-1.1c0-0.5,0.3-0.9,0.8-0.9l1.5-0.2
		c0.4,0,0.7-0.4,0.7-0.8v-2l3-2.3c0.4-0.3,0.7-0.6,0.9-1l1-1.8c0.2-0.3,0.1-0.6,0-0.8c-0.2-0.2-0.5-0.4-0.8-0.3l-3.7,0.7V8.3
		c0-0.8,0.3-1.5,1-2l4.8-3.9l3.2,1.8c0.4,0.2,0.8,0.3,1.2,0.2c0.4-0.1,0.8-0.4,1-0.8l0.6-1.2c4.8,0.8,9.2,3,12.7,6.6
		C45.4,12.2,47.5,16.2,48.5,20.5z M25.5,18.8L25.3,17c0,0,0,0,0,0c0,0,0,0,0.1,0l2.7,2.5c0.2,0.2,0.5,0.3,0.8,0.2l3.8-1.1
		c0.1,0.2,0.2,0.5,0.2,0.8c0,0.4-0.2,0.8-0.5,1.1l-0.6,0.5l-4.4,1.5l-2.7-1.8c-0.8-0.5-1.8-0.8-2.7-0.8c-0.3,0-0.6,0-0.9,0.1
		l-3.1,0.6l0.9-1.6l1.1-1c0.5-0.5,1.3-0.6,1.9-0.3l2.2,2c0.2,0.2,0.6,0.3,0.9,0.1C25.4,19.4,25.6,19.1,25.5,18.8z M26,2.2
		c0.6,0,1.2,0,1.7,0.1l-0.4,0.6c0,0,0,0,0,0c0,0,0,0,0,0L26,2.2z M9,42.2c-4.4-4.4-6.9-10.3-6.9-16.6S4.6,13.5,9,9
		c3.2-3.2,7.2-5.4,11.5-6.3l-3,2.4c-1,0.8-1.5,2-1.5,3.2v1.1c0,0.2,0.1,0.5,0.3,0.6c0.2,0.1,0.4,0.2,0.6,0.2l2.9-0.6L19.7,10
		c-0.1,0.2-0.3,0.4-0.5,0.5L15.9,13c-0.2,0.1-0.3,0.4-0.3,0.6v1.6l-0.8,0.1c-1.3,0.1-2.3,1.3-2.2,2.6l0.1,1.1
		c0.1,1.1,0.8,1.9,1.8,2.2l0.2,0.1c-0.9,0.6-1.4,1.6-1.4,2.8l0,0.8l-1.2,2.4c-1.1,2.2-1,4.7,0.4,6.7l0.6,0.9c0.9,1.4,2.5,2,4.1,1.8
		l5.3-1l1.2,1.4c0.9,1.1,2.1,2,3.5,2.5l0.3,0.1V43c0,0.3,0,0.8,0.4,2.2c0.4,1.4,1.3,2.5,2.5,3.2c0,0,0.1,0,0.1,0.1
		c-1.6,0.4-3.3,0.5-5,0.5C19.3,49,13.5,46.6,9,42.2z M42.2,42.2c-1.9,1.9-4,3.4-6.3,4.5l2.9-7.4l4.8-4.6c0.1-0.1,0.2-0.3,0.2-0.4
		l0.5-2.7c0-0.2,0-0.5-0.2-0.7c-0.2-0.2-0.4-0.3-0.6-0.3l-1.2,0.1c-0.5,0-1-0.1-1.4-0.3l3.8-2.8c0.8-0.6,1.3-1.6,1.3-2.6v-2.3
		c0-0.3-0.1-0.5-0.3-0.6c-0.2-0.1-0.5-0.2-0.7-0.1l-0.9,0.3c-0.2,0.1-0.5,0.1-0.7-0.1c-0.2-0.1-0.4-0.3-0.4-0.6l-0.2-1.1l6.1,1.7
		c0.2,1.1,0.2,2.2,0.2,3.4C49,31.9,46.6,37.7,42.2,42.2z"/>
	<path d="M12.7,10.8l0.9,0.5l-0.5,2.1c-0.1,0.4,0.2,0.8,0.6,0.9c0.1,0,0.1,0,0.2,0c0.4,0,0.7-0.2,0.8-0.6l0.6-2.7
		c0.1-0.3-0.1-0.7-0.4-0.8l-1.3-0.8c-0.4-0.2-0.9-0.1-1.1,0.3C12.2,10.1,12.3,10.6,12.7,10.8z"/>
	<path d="M30.3,16.3h2.3c0.2,0,0.3-0.1,0.5-0.2l1.3-1c0.3-0.3,0.4-0.7,0.2-1.1c-0.3-0.3-0.7-0.4-1.1-0.2l-1.1,0.8h-2.1
		c-0.4,0-0.8,0.4-0.8,0.8C29.5,16,29.8,16.3,30.3,16.3z"/>
	<path d="M37,15c0.2,0.2,0.4,0.3,0.6,0.3c0.2,0,0.3,0,0.5-0.2c0.3-0.3,0.4-0.7,0.2-1.1l-2.1-2.9c-0.3-0.3-0.7-0.4-1.1-0.2
		c-0.3,0.3-0.4,0.7-0.2,1.1L37,15z"/>
</mask>
<path class="st8" d="M37,15c0.2,0.2,0.4,0.3,0.6,0.3c0.2,0,0.3,0,0.5-0.2c0.3-0.3,0.4-0.7,0.2-1.1l-2.1-2.9
	c-0.3-0.3-0.7-0.4-1.1-0.2c-0.3,0.3-0.4,0.7-0.2,1.1L37,15z"/>
</svg>
