<?xml version="1.0" encoding="utf-8"?>
<!-- Generator: Adobe Illustrator 23.0.5, SVG Export Plug-In . SVG Version: 6.00 Build 0)  -->
<svg version="1.1" id="Слой_1" xmlns="http://www.w3.org/2000/svg" xmlns:xlink="http://www.w3.org/1999/xlink" x="0px" y="0px"
	 width="57.3px" height="57.7px" viewBox="0 0 57.3 57.7" style="enable-background:new 0 0 57.3 57.7;" xml:space="preserve">
<style type="text/css">
	.st0{fill:#005EAB;stroke:#005EAB;stroke-width:0.2;}
	.st1{fill:#005EAB;stroke:#005EAB;stroke-width:0.6;}
</style>
<path class="st0" d="M4.4,26L4.4,26L4.4,26l0,0.4v0.1h0.1h2.9h0.1v-0.1v-0.3c0.5-4.6,2.5-8.8,5.8-12s7.5-5.3,12-5.8h0.3h0.1V8.2v-3
	V5.1h-0.1h-0.4v0l0,0C19.9,5.6,14.9,8,11.1,11.8C7.3,15.6,4.9,20.6,4.4,26z"/>
<path class="st0" d="M31.2,8.2h0.3c4.6,0.5,8.8,2.5,12.1,5.8s5.3,7.5,5.8,12.1v0.3v0.1h0.1h3h0.1v-0.1V26h0l0,0
	c-0.5-5.4-2.9-10.4-6.7-14.2C42,8,37,5.6,31.6,5.1l0,0h0h-0.4h-0.1v0.1v2.9v0.1H31.2z"/>
<path class="st0" d="M7.6,32L7.6,32L7.6,32l-3.1-0.1H4.4V32v0.4h0l0,0c0.5,5.4,2.9,10.4,6.7,14.2c3.8,3.8,8.8,6.2,14.2,6.7l0,0h0
	h0.4h0.1v-0.1v-2.9v-0.1h-0.1h-0.3c-4.5-0.5-8.8-2.6-12-5.8c-3.2-3.2-5.3-7.5-5.7-12V32z"/>
<path class="st0" d="M49.4,32.3L49.4,32.3L49.4,32.3c-0.5,4.6-2.5,8.8-5.8,12.1c-3.2,3.2-7.5,5.3-12.1,5.8h-0.3h-0.1v0.1v3v0.1h0.1
	h0.4v0l0,0c5.4-0.5,10.4-2.9,14.2-6.7c3.8-3.8,6.2-8.8,6.7-14.2h0v0V32v-0.1h-0.1h-2.9h-0.1l0,0.1L49.4,32.3z"/>
<path class="st0" d="M10.8,27.7H1.6c-0.8,0-1.5,0.6-1.5,1.5s0.7,1.4,1.5,1.4h9.3c0.8,0,1.5-0.6,1.5-1.4S11.7,27.7,10.8,27.7z"/>
<path class="st0" d="M55.8,27.7h-9.3c-0.8,0-1.5,0.6-1.5,1.4s0.7,1.5,1.5,1.5h9.3c0.8,0,1.5-0.6,1.5-1.5S56.6,27.7,55.8,27.7z"/>
<path class="st0" d="M27,46.8v9.3c0,0.8,0.6,1.5,1.5,1.5s1.4-0.7,1.4-1.5v-9.3c0-0.8-0.6-1.5-1.4-1.5S27,46,27,46.8z"/>
<path class="st0" d="M27,1.6v9.3c0,0.8,0.6,1.5,1.5,1.5s1.4-0.7,1.4-1.5V1.6c0-0.8-0.6-1.5-1.4-1.5S27,0.8,27,1.6z"/>
<path class="st1" d="M34,25.1c0.3-0.3,0.5-0.8,0.5-1.2c0-0.5-0.2-0.9-0.5-1.2c-0.3-0.3-0.8-0.5-1.2-0.5s-0.9,0.2-1.2,0.5
	C31.2,23,31,23.4,31,23.9c0,0.5,0.2,0.9,0.5,1.2c0.3,0.3,0.8,0.5,1.2,0.5S33.7,25.5,34,25.1z"/>
<path class="st1" d="M29.6,31.7c-0.2-0.1-0.3-0.1-0.5-0.1c-0.2,0-0.3,0.1-0.5,0.2c-0.1,0.1-0.3,0.2-0.4,0.4
	c-0.1,0.2-0.1,0.3-0.1,0.5v1H27c-0.5,0-0.9,0.2-1.2,0.5c-0.3,0.3-0.5,0.8-0.5,1.2v1.1h-1.1c-0.5,0-0.9,0.2-1.2,0.5
	c-0.3,0.3-0.5,0.8-0.5,1.2V39c0,0.1,0,0.2-0.1,0.3c-0.1,0.1-0.2,0.1-0.3,0.1H19c-0.1,0-0.2,0-0.3-0.1s-0.1-0.2-0.1-0.3v-2.3
	c0,0,0,0,0,0c0-0.1,0-0.2,0.1-0.3c0,0,0,0,0,0l6.6-6.6c0.7-0.7,0.9-1.7,0.7-2.5c-0.1-0.4-0.1-0.9-0.1-1.3v0c0-3.5,2.7-6.2,6.2-6.2
	s6.2,2.7,6.2,6.2s-2.7,6.2-6.2,6.2C31.1,32.1,30.3,32,29.6,31.7z M29.6,31.7l-0.1,0.3 M29.6,31.7L29.6,31.7l-0.1,0.3 M32.1,17.6
	c-4.6,0-8.3,3.6-8.3,8.3c0,0.6,0.1,1.2,0.2,1.8c0.1,0.3,0,0.5-0.1,0.6l-6.6,6.6c-0.2,0.2-0.4,0.5-0.5,0.8c-0.1,0.3-0.2,0.6-0.2,0.9
	c0,0,0,0,0,0V39c0,0.7,0.3,1.3,0.7,1.7c0.5,0.5,1.1,0.7,1.7,0.7h2.9c0.7,0,1.3-0.3,1.7-0.7c0.5-0.5,0.7-1.1,0.7-1.7v-0.4h1.1
	c0.5,0,0.9-0.2,1.2-0.5c0.3-0.3,0.5-0.8,0.5-1.2v-1.1h1.1c0.5,0,0.9-0.2,1.2-0.5c0.3-0.3,0.5-0.7,0.5-1.1c0.6,0.1,1.3,0.2,1.9,0.2
	c4.6,0,8.3-3.6,8.3-8.3S36.7,17.6,32.1,17.6z"/>
</svg>
