<?xml version="1.0" encoding="utf-8"?>
<!-- Generator: Adobe Illustrator 23.0.5, SVG Export Plug-In . SVG Version: 6.00 Build 0)  -->
<svg version="1.1" id="Слой_1" xmlns="http://www.w3.org/2000/svg" xmlns:xlink="http://www.w3.org/1999/xlink" x="0px" y="0px"
	 width="143.4px" height="47.4px" viewBox="0 0 143.4 47.4" style="enable-background:new 0 0 143.4 47.4;" xml:space="preserve">
<style type="text/css">
	.st0{fill:url(#SVGID_1_);stroke:#F2A103;stroke-width:0.861;}
</style>
<linearGradient id="SVGID_1_" gradientUnits="userSpaceOnUse" x1="40.8712" y1="-73.2411" x2="94.7695" y2="73.5508" gradientTransform="matrix(1 0 0 -1 0 49.9927)">
	<stop  offset="0" style="stop-color:#EE3124"/>
	<stop  offset="0.8182" style="stop-color:#FAAA23"/>
</linearGradient>
<path class="st0" d="M31.9,24c2.7-2.5,4.1-6,4.1-9.7c0-7.7-6.2-13.9-13.6-13.9C15,0.4,8.8,6.6,8.8,14c0,3.8,1.4,7.3,4.1,9.7
	C5.4,27.5,0.4,35.2,0.4,43.8c0,0.4,0.1,0.8,0.3,1.2c0.2,0.4,0.4,0.7,0.8,1c0.6,0.6,1.3,1,2.1,1h38c0.4,0,0.8-0.1,1.2-0.3
	c0.4-0.2,0.7-0.4,1-0.8c0.6-0.6,1-1.3,1-2v0l0,0C44.3,35.2,39.4,27.5,31.9,24z M81,24c2.7-2.5,4.1-6,4.1-9.7
	c0-7.7-6.2-13.9-13.6-13.9c-7.4,0-13.6,6.2-13.6,13.6c0,3.8,1.4,7.3,4.1,9.7c-7.6,3.8-12.5,11.5-12.5,20.1c0,0.4,0.1,0.8,0.3,1.2
	c0.2,0.4,0.4,0.7,0.8,1c0.6,0.6,1.3,1,2.1,1h38c0.4,0,0.8-0.1,1.2-0.3c0.4-0.2,0.7-0.4,1-0.8c0.6-0.6,1-1.3,1-2v0l0,0
	C93.5,35.2,88.6,27.5,81,24z M142.9,43.8L142.9,43.8L142.9,43.8c-0.3-8.6-5.2-16.3-12.8-19.8c2.7-2.5,4.1-6,4.1-9.7
	c0-7.7-6.2-13.9-13.6-13.9c-7.4,0-13.6,6.2-13.6,13.6c0,3.8,1.4,7.3,4.1,9.7c-7.6,3.8-12.5,11.5-12.5,20.1c0,0.4,0.1,0.8,0.3,1.2
	c0.2,0.4,0.4,0.7,0.8,1c0.6,0.6,1.3,1,2.1,1h38c0.4,0,0.8-0.1,1.2-0.3c0.4-0.2,0.7-0.4,1-0.8C142.6,45.2,142.9,44.5,142.9,43.8z
	 M17.3,8.9c1.4-1.4,3.4-2.3,5.4-2.3c2,0,4,0.8,5.4,2.3c1.4,1.4,2.3,3.4,2.3,5.4c0,2-0.8,3.9-2.2,5.3c-1.7,1.2-3.7,2-5.7,2
	c-2,0-3.9-0.8-5.4-2.2c-1.1-1.4-2-3.4-2-5.4C15,12,15.9,10.3,17.3,8.9z M37.7,40.7H7.1c0.6-3,2.1-6,4.3-8.2c2.9-2.9,7-4.6,11.1-4.6
	c4.4,0,8.1,1.7,11.1,4.6C35.6,34.7,37.1,37.7,37.7,40.7z M66.5,8.9c1.4-1.4,3.4-2.3,5.4-2.3c2,0,4,0.8,5.4,2.3
	c1.4,1.4,2.3,3.4,2.3,5.4c0,2-0.8,3.9-2.2,5.3c-1.7,1.2-3.7,2-5.7,2c-2,0-3.9-0.8-5.4-2.2c-1.1-1.4-2-3.4-2-5.4
	C64.2,12,65,10.3,66.5,8.9z M86.9,40.7H56.2c0.6-3,2.1-6,4.3-8.2c2.9-2.9,7-4.6,11.1-4.6c4.4,0,8.1,1.7,11.1,4.6
	C84.8,34.7,86.2,37.7,86.9,40.7z M115.6,8.9c1.4-1.4,3.4-2.3,5.4-2.3c2,0,4,0.8,5.4,2.3c1.4,1.4,2.3,3.4,2.3,5.4
	c0,2-0.8,3.9-2.2,5.3c-1.7,1.2-3.7,2-5.7,2c-2,0-3.9-0.8-5.4-2.2c-1.1-1.4-2-3.4-2-5.4C113.3,12,114.2,10.3,115.6,8.9z M136,40.7
	h-30.6c0.6-3,2.1-6,4.3-8.2c2.9-2.9,7-4.6,11.1-4.6c4.4,0,8.1,1.7,11.1,4.6C133.9,34.7,135.4,37.7,136,40.7z"/>
</svg>
