<?xml version="1.0" encoding="utf-8"?>
<!-- Generator: Adobe Illustrator 23.0.5, SVG Export Plug-In . SVG Version: 6.00 Build 0)  -->
<svg version="1.1" id="Слой_1" xmlns="http://www.w3.org/2000/svg" xmlns:xlink="http://www.w3.org/1999/xlink" x="0px" y="0px"
	 width="324.7px" height="142.4px" viewBox="0 0 324.7 142.4" style="enable-background:new 0 0 324.7 142.4;" xml:space="preserve"
	>
<style type="text/css">
	.st0{fill:none;stroke:url(#SVGID_1_);stroke-width:0.8625;stroke-opacity:0.38;}
	.st1{fill:#FE8836;}
	.st2{fill-rule:evenodd;clip-rule:evenodd;fill:#FE8836;}
	.st3{fill:#656565;fill-opacity:0.38;}
	.st4{fill:url(#SVGID_2_);fill-opacity:0.38;}
	.st5{fill:none;stroke:#CECECE;stroke-width:0.8625;}
</style>
<linearGradient id="SVGID_1_" gradientUnits="userSpaceOnUse" x1="36.6862" y1="79.6123" x2="307.5292" y2="94.1594" gradientTransform="matrix(1 0 0 -1 0 144.6406)">
	<stop  offset="0" style="stop-color:#656565"/>
	<stop  offset="1" style="stop-color:#656565;stop-opacity:0"/>
</linearGradient>
<line class="st0" x1="324.7" y1="57.4" x2="32.6" y2="57.4"/>
<path class="st1" d="M211.6,89.4h-3.1l1.6-4.3L211.6,89.4z"/>
<path class="st1" d="M223.1,89.4c0,0.8,0.2,1.4,0.5,1.8c0.3,0.4,0.8,0.7,1.3,0.7c0.7,0,1.3-0.3,1.6-1v-3.1c-0.4-0.7-0.9-1-1.6-1
	c-0.6,0-1,0.2-1.3,0.7S223.1,88.5,223.1,89.4z"/>
<path class="st2" d="M187.9,57H247v85.4h-59.1V57z M207.3,92.8l0.9-2.4h3.9l0.9,2.4h1.2l-3.5-9.2h-1.1l-3.5,9.2H207.3z M217.3,92.9
	c0.9,0,1.6-0.3,2-0.8l0,0.7h1.1v-6.8h-1.2v5c-0.3,0.7-0.9,1-1.8,1c-0.8,0-1.3-0.5-1.3-1.6v-4.4h-1.2v4.5c0,0.8,0.2,1.5,0.6,1.9
	C216,92.7,216.6,92.9,217.3,92.9z M222,89.3c0-1.1,0.2-1.9,0.7-2.5c0.5-0.6,1.1-0.9,2-0.9c0.8,0,1.5,0.3,2,0.9l0.1-0.8h1.1v6.7
	c0,0.9-0.3,1.6-0.8,2.1c-0.5,0.5-1.2,0.8-2.1,0.8c-0.5,0-1-0.1-1.4-0.3c-0.5-0.2-0.8-0.5-1.1-0.9l0.6-0.7c0.5,0.6,1.1,0.9,1.8,0.9
	c0.6,0,1-0.2,1.3-0.5c0.3-0.3,0.5-0.8,0.5-1.4v-0.6c-0.5,0.5-1.1,0.8-1.9,0.8c-0.8,0-1.5-0.3-1.9-1C222.2,91.3,222,90.4,222,89.3z
	 M216.8,111.7h-1.2v1.3h1.2c0.8,0,1.5,0.2,1.9,0.6c0.4,0.4,0.7,0.9,0.7,1.6c0,0.7-0.2,1.3-0.6,1.7c-0.4,0.4-1,0.6-1.7,0.6
	c-0.7,0-1.3-0.2-1.7-0.6c-0.4-0.4-0.6-0.9-0.6-1.6h-1.6c0,1,0.4,1.8,1.1,2.5c0.7,0.6,1.7,0.9,2.8,0.9s2.1-0.3,2.8-1
	c0.7-0.6,1.1-1.5,1.1-2.6c0-0.7-0.2-1.3-0.6-1.8c-0.4-0.5-0.9-0.8-1.6-1.1c0.6-0.2,1.1-0.6,1.4-1.1c0.3-0.5,0.5-1,0.5-1.6
	c0-1.1-0.3-1.9-1-2.6s-1.6-0.9-2.7-0.9c-1.1,0-2,0.3-2.7,1c-0.7,0.6-1.1,1.4-1.1,2.4h1.6c0-0.6,0.2-1.1,0.6-1.5
	c0.4-0.4,0.9-0.6,1.6-0.6c1.4,0,2.1,0.7,2.1,2.2c0,0.6-0.2,1.1-0.6,1.5S217.6,111.7,216.8,111.7z"/>
<path class="st3" d="M60.2,27.2c-1-0.3-1.8-0.7-2.3-1.1c-0.5-0.4-0.7-1-0.7-1.6c0-0.7,0.3-1.3,0.9-1.8c0.6-0.5,1.3-0.7,2.3-0.7
	c0.6,0,1.2,0.1,1.7,0.4c0.5,0.2,0.9,0.6,1.2,1c0.3,0.4,0.4,0.9,0.4,1.4h-1.2c0-0.6-0.2-1-0.5-1.3C61.5,23.1,61,23,60.4,23
	c-0.6,0-1.1,0.1-1.4,0.4c-0.3,0.3-0.5,0.6-0.5,1.1c0,0.4,0.2,0.7,0.5,1c0.3,0.3,0.9,0.5,1.6,0.7c0.8,0.2,1.4,0.5,1.8,0.7
	c0.4,0.3,0.8,0.6,1,0.9c0.2,0.3,0.3,0.8,0.3,1.2c0,0.7-0.3,1.3-0.9,1.8c-0.6,0.4-1.4,0.7-2.3,0.7c-0.6,0-1.2-0.1-1.8-0.4
	c-0.5-0.2-1-0.6-1.3-1c-0.3-0.4-0.4-0.9-0.4-1.4h1.2c0,0.6,0.2,1,0.6,1.3c0.4,0.3,1,0.5,1.7,0.5c0.6,0,1.1-0.1,1.5-0.4
	c0.3-0.3,0.5-0.6,0.5-1.1s-0.2-0.8-0.5-1C61.6,27.7,61,27.5,60.2,27.2z"/>
<path class="st3" d="M69.2,30.6c-0.5,0.5-1.1,0.8-2,0.8c-0.7,0-1.3-0.2-1.7-0.6c-0.4-0.4-0.6-1.1-0.6-1.9v-4.5h1.2v4.4
	c0,1,0.4,1.6,1.3,1.6c0.9,0,1.5-0.3,1.8-1v-5h1.2v6.8h-1.1L69.2,30.6z"/>
<path class="st3" d="M73.3,24.5l0,0.9c0.5-0.7,1.2-1,2.1-1c1.4,0,2.2,0.8,2.2,2.4v4.5h-1.2v-4.5c0-0.5-0.1-0.9-0.3-1.1
	c-0.2-0.2-0.6-0.4-1-0.4c-0.4,0-0.7,0.1-1,0.3c-0.3,0.2-0.5,0.5-0.7,0.8v4.9h-1.2v-6.8H73.3z"/>
<path class="st3" d="M64.1,89.9h-3.9l-0.9,2.4h-1.3l3.5-9.2h1.1l3.5,9.2H65L64.1,89.9z M60.6,88.9h3.1l-1.6-4.3L60.6,88.9z"/>
<path class="st3" d="M71.5,91.6c-0.5,0.5-1.1,0.8-2,0.8c-0.7,0-1.3-0.2-1.7-0.6c-0.4-0.4-0.6-1.1-0.6-1.9v-4.5h1.2v4.4
	c0,1,0.4,1.6,1.3,1.6c0.9,0,1.5-0.3,1.8-1v-5h1.2v6.8h-1.1L71.5,91.6z"/>
<path class="st3" d="M74.1,88.8c0-1.1,0.2-1.9,0.7-2.5c0.5-0.6,1.1-0.9,2-0.9c0.8,0,1.5,0.3,2,0.9l0.1-0.8h1.1v6.7
	c0,0.9-0.3,1.6-0.8,2.1C78.6,94.7,77.9,95,77,95c-0.5,0-1-0.1-1.4-0.3s-0.8-0.5-1.1-0.9l0.6-0.7c0.5,0.6,1.1,0.9,1.8,0.9
	c0.6,0,1-0.2,1.3-0.5c0.3-0.3,0.5-0.8,0.5-1.4v-0.6c-0.5,0.5-1.1,0.8-1.9,0.8c-0.8,0-1.5-0.3-1.9-1C74.4,90.8,74.1,89.9,74.1,88.8z
	 M75.3,89c0,0.8,0.2,1.4,0.5,1.8c0.3,0.4,0.8,0.7,1.3,0.7c0.7,0,1.3-0.3,1.6-1v-3.1c-0.4-0.7-0.9-1-1.6-1c-0.6,0-1,0.2-1.3,0.7
	C75.4,87.4,75.3,88.1,75.3,89z"/>
<path class="st3" d="M137.9,90.4H134l-0.9,2.4h-1.3l3.5-9.2h1.1l3.5,9.2h-1.2L137.9,90.4z M134.4,89.4h3.1l-1.6-4.3L134.4,89.4z"/>
<path class="st3" d="M145.2,92.1c-0.5,0.5-1.1,0.8-2,0.8c-0.7,0-1.3-0.2-1.7-0.6c-0.4-0.4-0.6-1.1-0.6-1.9v-4.5h1.2v4.4
	c0,1,0.4,1.6,1.3,1.6c0.9,0,1.5-0.3,1.8-1v-5h1.2v6.8h-1.1L145.2,92.1z"/>
<path class="st3" d="M147.9,89.3c0-1.1,0.2-1.9,0.7-2.5c0.5-0.6,1.1-0.9,2-0.9c0.8,0,1.5,0.3,2,0.9l0.1-0.8h1.1v6.7
	c0,0.9-0.3,1.6-0.8,2.1c-0.5,0.5-1.2,0.8-2.1,0.8c-0.5,0-1-0.1-1.4-0.3c-0.5-0.2-0.8-0.5-1.1-0.9l0.6-0.7c0.5,0.6,1.1,0.9,1.8,0.9
	c0.6,0,1-0.2,1.3-0.5c0.3-0.3,0.5-0.8,0.5-1.4v-0.6c-0.5,0.5-1.1,0.8-1.9,0.8c-0.8,0-1.5-0.3-1.9-1
	C148.1,91.3,147.9,90.4,147.9,89.3z M149.1,89.4c0,0.8,0.2,1.4,0.5,1.8c0.3,0.4,0.8,0.7,1.3,0.7c0.7,0,1.3-0.3,1.6-1v-3.1
	c-0.4-0.7-0.9-1-1.6-1c-0.6,0-1,0.2-1.3,0.7C149.2,87.9,149.1,88.6,149.1,89.4z"/>
<path class="st3" d="M70.7,118.1h-1.6v-10.4l-3.1,1.2v-1.4l4.5-1.7h0.2V118.1z"/>
<path class="st3" d="M147.4,118.6h-8v-1.1l4.2-4.7c0.6-0.7,1.1-1.3,1.3-1.7c0.2-0.4,0.4-0.9,0.4-1.4c0-0.6-0.2-1.2-0.6-1.6
	c-0.4-0.4-0.9-0.6-1.6-0.6c-0.8,0-1.4,0.2-1.8,0.7c-0.4,0.4-0.6,1.1-0.6,1.8h-1.6c0-1.1,0.4-2,1.1-2.7c0.7-0.7,1.7-1,2.9-1
	c1.1,0,2,0.3,2.7,0.9c0.7,0.6,1,1.4,1,2.4c0,1.2-0.8,2.6-2.3,4.3l-3.3,3.6h6.2V118.6z"/>
<path class="st3" d="M131.1,22.1l3,7.5l3-7.5h1.6v9.2h-1.2v-3.6l0.1-3.9l-3,7.5h-0.9l-3-7.4l0.1,3.9v3.6h-1.2v-9.2H131.1z"/>
<path class="st3" d="M140.4,27.8c0-0.7,0.1-1.3,0.4-1.8c0.3-0.5,0.6-0.9,1.1-1.2c0.5-0.3,1-0.4,1.6-0.4c0.9,0,1.7,0.3,2.3,1
	c0.6,0.6,0.9,1.5,0.9,2.6V28c0,0.7-0.1,1.3-0.4,1.8c-0.3,0.5-0.6,0.9-1.1,1.2c-0.5,0.3-1,0.4-1.6,0.4c-0.9,0-1.7-0.3-2.3-1
	C140.7,29.8,140.4,29,140.4,27.8L140.4,27.8z M141.6,28c0,0.8,0.2,1.4,0.5,1.8c0.4,0.5,0.8,0.7,1.4,0.7c0.6,0,1.1-0.2,1.4-0.7
	c0.4-0.5,0.5-1.1,0.5-2c0-0.8-0.2-1.4-0.5-1.8c-0.4-0.5-0.8-0.7-1.4-0.7c-0.6,0-1,0.2-1.4,0.7C141.7,26.5,141.6,27.1,141.6,28z"/>
<path class="st3" d="M149.2,24.5l0,0.9c0.5-0.7,1.2-1,2.1-1c1.4,0,2.2,0.8,2.2,2.4v4.5h-1.2v-4.5c0-0.5-0.1-0.9-0.3-1.1
	c-0.2-0.2-0.6-0.4-1-0.4c-0.4,0-0.7,0.1-1,0.3c-0.3,0.2-0.5,0.5-0.7,0.8v4.9h-1.2v-6.8H149.2z"/>
<path class="st3" d="M212.6,23.1h-3v8.2h-1.2v-8.2h-3v-1h7.1V23.1z"/>
<path class="st3" d="M217.4,30.6c-0.5,0.5-1.1,0.8-2,0.8c-0.7,0-1.3-0.2-1.7-0.6c-0.4-0.4-0.6-1.1-0.6-1.9v-4.5h1.2v4.4
	c0,1,0.4,1.6,1.3,1.6c0.9,0,1.5-0.3,1.8-1v-5h1.2v6.8h-1.1L217.4,30.6z"/>
<path class="st3" d="M223.2,31.5c-0.9,0-1.7-0.3-2.3-0.9c-0.6-0.6-0.9-1.4-0.9-2.4v-0.2c0-0.7,0.1-1.3,0.4-1.8
	c0.3-0.5,0.6-1,1.1-1.3c0.5-0.3,1-0.5,1.5-0.5c0.9,0,1.6,0.3,2.1,0.9c0.5,0.6,0.7,1.4,0.7,2.5v0.5h-4.6c0,0.7,0.2,1.2,0.6,1.6
	c0.4,0.4,0.9,0.6,1.4,0.6c0.4,0,0.8-0.1,1.1-0.3c0.3-0.2,0.5-0.4,0.8-0.7l0.7,0.6C225.2,31,224.4,31.5,223.2,31.5z M223.1,25.3
	c-0.5,0-0.9,0.2-1.2,0.5c-0.3,0.3-0.5,0.8-0.6,1.4h3.4v-0.1c0-0.6-0.2-1.1-0.5-1.4C223.9,25.5,223.5,25.3,223.1,25.3z"/>
<linearGradient id="SVGID_2_" gradientUnits="userSpaceOnUse" x1="178.2303" y1="144.6406" x2="178.2303" y2="2.2623" gradientTransform="matrix(1 0 0 -1 0 144.6406)">
	<stop  offset="0" style="stop-color:#656565"/>
	<stop  offset="1" style="stop-color:#656565;stop-opacity:0"/>
</linearGradient>
<path class="st4" d="M324.7,0h-280c-7.1,0-12.9,5.8-12.9,12.9v116.5c0,7.1,5.8,12.9,12.9,12.9h280v-0.9h-280
	c-6.7,0-12.1-5.4-12.1-12.1V12.9c0-6.7,5.4-12.1,12.1-12.1h280V0z"/>
<path class="st5" d="M10.7,66.9l-10.1,10L10.7,87"/>
</svg>
