<?xml version="1.0" encoding="utf-8"?>
<!-- Generator: Adobe Illustrator 23.0.5, SVG Export Plug-In . SVG Version: 6.00 Build 0)  -->
<svg version="1.1" id="Слой_1" xmlns="http://www.w3.org/2000/svg" xmlns:xlink="http://www.w3.org/1999/xlink" x="0px" y="0px"
	 width="109px" height="46px" viewBox="0 0 109 46" style="enable-background:new 0 0 109 46;" xml:space="preserve">
<style type="text/css">
	.st0{fill:url(#SVGID_1_);}
	.st1{fill:url(#SVGID_2_);}
	.st2{fill:url(#SVGID_3_);}
</style>
<linearGradient id="SVGID_1_" gradientUnits="userSpaceOnUse" x1="-14.1967" y1="25.0315" x2="123.3973" y2="25.0315" gradientTransform="matrix(1 0 0 -1 0 48)">
	<stop  offset="0" style="stop-color:#FF7B17"/>
	<stop  offset="1" style="stop-color:#EFA900"/>
</linearGradient>
<path class="st0" d="M16.3,45.9c-3.2,0-6.2-0.4-9.2-1.3c-3-0.9-5.3-2.1-7.1-3.5l3.7-8.4c1.9,1.3,3.9,2.4,5.9,3c2,0.7,4,1,6.1,1
	c2.5,0,4.3-0.4,5.4-1.1c1.1-0.8,1.6-2,1.6-3.8c0-1.7-0.5-2.9-1.6-3.6c-1-0.7-2.7-1.1-5.1-1.1H9v-9.1h5.8c2.4,0,4-0.3,5.1-0.9
	c1.1-0.6,1.6-1.7,1.6-3.2c0-1.6-0.5-2.8-1.5-3.7c-1-0.8-2.3-1.3-4.1-1.3c-1.8,0-3.7,0.4-5.8,1.1c-2,0.7-3.9,1.7-5.7,3L0.6,4.8
	c1.8-1.5,4.2-2.6,7.1-3.5c3-0.9,5.9-1.3,8.9-1.3c3.2,0,6,0.5,8.4,1.5c2.4,1,4.3,2.4,5.6,4.3c1.3,1.8,2,4,2,6.6c0,2.5-0.7,4.7-2,6.5
	c-1.3,1.8-3.3,3-5.8,3.8l0.1-0.5c2.8,0.7,5,2,6.6,3.9c1.6,1.9,2.3,4.3,2.3,7.2c0,3.9-1.6,7.1-4.7,9.3C25.9,44.8,21.7,45.9,16.3,45.9
	z"/>
<linearGradient id="SVGID_2_" gradientUnits="userSpaceOnUse" x1="-14.1967" y1="24.937" x2="123.3973" y2="24.937" gradientTransform="matrix(1 0 0 -1 0 48)">
	<stop  offset="0" style="stop-color:#FF7B17"/>
	<stop  offset="1" style="stop-color:#EFA900"/>
</linearGradient>
<path class="st1" d="M55.5,46c-5.6,0-9.8-2-12.8-5.9c-3-3.9-4.4-9.7-4.4-17.1c0-7.4,1.5-13,4.4-16.9c3-3.9,7.3-5.9,12.8-5.9
	s9.8,2,12.8,5.9c3,3.9,4.5,9.5,4.5,16.9c0,7.5-1.5,13.2-4.5,17.1C65.4,44,61.1,46,55.5,46z M55.5,37.1c2,0,3.5-1.1,4.4-3.3
	c0.9-2.2,1.3-5.9,1.3-10.9c0-4.9-0.4-8.5-1.3-10.6C59,10.1,57.6,9,55.5,9c-2,0-3.5,1.1-4.4,3.3c-0.9,2.2-1.3,5.7-1.3,10.6
	c0,5,0.4,8.7,1.3,10.9C52.1,36,53.5,37.1,55.5,37.1z"/>
<linearGradient id="SVGID_3_" gradientUnits="userSpaceOnUse" x1="-14.1967" y1="20.8726" x2="123.3973" y2="20.8726" gradientTransform="matrix(1 0 0 -1 0 48)">
	<stop  offset="0" style="stop-color:#FF7B17"/>
	<stop  offset="1" style="stop-color:#EFA900"/>
</linearGradient>
<path class="st2" d="M109,23.3v7.6H77.9v-7.6H109z M89.6,11.6h7.7v31.1h-7.7V11.6z"/>
</svg>
