<?xml version="1.0" encoding="utf-8"?>
<!-- Generator: Adobe Illustrator 23.0.5, SVG Export Plug-In . SVG Version: 6.00 Build 0)  -->
<svg version="1.1" id="Слой_1" xmlns="http://www.w3.org/2000/svg" xmlns:xlink="http://www.w3.org/1999/xlink" x="0px" y="0px"
	 width="143px" height="46px" viewBox="0 0 143 46" style="enable-background:new 0 0 143 46;" xml:space="preserve">
<style type="text/css">
	.st0{fill:url(#SVGID_1_);}
	.st1{fill:url(#SVGID_2_);}
	.st2{fill:url(#SVGID_3_);}
	.st3{fill:url(#SVGID_4_);}
</style>
<linearGradient id="SVGID_1_" gradientUnits="userSpaceOnUse" x1="-23.0092" y1="24.9729" x2="160.5696" y2="24.973" gradientTransform="matrix(1 0 0 -1 0 48)">
	<stop  offset="0" style="stop-color:#FF7B17"/>
	<stop  offset="1" style="stop-color:#EFA900"/>
</linearGradient>
<path class="st0" d="M9.7,40V10.3h5.5L0.6,18.6V8.5l14-7.9h7V40H9.7z M0,45.5v-9.4h31.4v9.4H0z"/>
<linearGradient id="SVGID_2_" gradientUnits="userSpaceOnUse" x1="-23.0092" y1="25.0045" x2="160.5696" y2="25.0046" gradientTransform="matrix(1 0 0 -1 0 48)">
	<stop  offset="0" style="stop-color:#FF7B17"/>
	<stop  offset="1" style="stop-color:#EFA900"/>
</linearGradient>
<path class="st1" d="M49.9,46c-3.2,0-6.2-0.4-9.2-1.3c-3-0.9-5.4-2.1-7.2-3.5l3.7-8.4c1.9,1.3,3.9,2.4,6,3c2,0.7,4.1,1,6.1,1
	c2.5,0,4.3-0.4,5.4-1.1c1.1-0.8,1.6-2,1.6-3.8c0-1.7-0.5-2.9-1.6-3.6c-1-0.7-2.7-1.1-5.1-1.1h-7v-9.1h5.8c2.4,0,4.1-0.3,5.1-0.9
	c1.1-0.6,1.6-1.7,1.6-3.2c0-1.6-0.5-2.8-1.5-3.7c-1-0.8-2.3-1.3-4.1-1.3c-1.8,0-3.7,0.4-5.8,1.1c-2,0.7-3.9,1.7-5.7,3l-3.7-8.4
	c1.8-1.5,4.2-2.6,7.1-3.5c3-0.9,5.9-1.3,9-1.3c3.3,0,6.1,0.5,8.4,1.5c2.4,1,4.3,2.4,5.6,4.3c1.4,1.9,2,4,2,6.6c0,2.5-0.7,4.7-2,6.5
	c-1.4,1.8-3.3,3-5.8,3.8l0.1-0.5c2.8,0.7,5,2,6.6,3.9c1.6,1.9,2.3,4.3,2.3,7.2c0,4-1.6,7.1-4.8,9.3C59.6,44.9,55.3,46,49.9,46z"/>
<linearGradient id="SVGID_3_" gradientUnits="userSpaceOnUse" x1="-23.0092" y1="25.0045" x2="160.5696" y2="25.0046" gradientTransform="matrix(1 0 0 -1 0 48)">
	<stop  offset="0" style="stop-color:#FF7B17"/>
	<stop  offset="1" style="stop-color:#EFA900"/>
</linearGradient>
<path class="st2" d="M89.3,46c-3.4,0-6.5-0.5-9.2-1.5c-2.7-1.1-4.8-2.5-6.3-4.4c-1.5-1.9-2.3-4.2-2.3-6.9c0-3.2,1-5.7,3-7.6
	c2.1-2,4.9-3.2,8.5-3.6l-0.1,1c-3.1-0.6-5.6-1.8-7.5-3.7c-1.9-1.9-2.9-4.2-2.9-6.9c0-2.5,0.7-4.7,2.2-6.5c1.5-1.9,3.5-3.3,6-4.2
	c2.5-1,5.4-1.5,8.5-1.5s5.9,0.5,8.4,1.5c2.5,1,4.5,2.4,6,4.2c1.5,1.8,2.2,4,2.2,6.5c0,2.8-1,5.2-2.9,7.1c-1.9,1.9-4.3,3.1-7.3,3.5
	l-0.1-0.9c3.5,0.5,6.3,1.7,8.3,3.7c2.1,1.9,3.1,4.4,3.1,7.5c0,2.7-0.8,5-2.3,6.9c-1.5,1.9-3.6,3.4-6.3,4.4
	C95.8,45.5,92.8,46,89.3,46z M89.3,37.1c1.9,0,3.6-0.4,4.9-1.2c1.3-0.8,2-2.1,2-3.7c0-1.6-0.6-2.9-1.9-3.8c-1.3-1-2.9-1.6-5-2
	c-2,0.4-3.7,1.1-5,2c-1.3,0.9-1.9,2.2-1.9,3.8c0,1.6,0.7,2.9,2,3.7C85.7,36.7,87.4,37.1,89.3,37.1z M89.3,19.2
	c1.6-0.4,2.9-1,3.9-1.8c1.1-0.9,1.7-2.1,1.7-3.7c0-1.7-0.6-2.9-1.7-3.6c-1.1-0.8-2.4-1.1-3.9-1.1c-1.6,0-2.9,0.4-4,1.1
	c-1.1,0.7-1.6,1.9-1.6,3.6c0,1.6,0.5,2.8,1.6,3.7C86.4,18.2,87.8,18.8,89.3,19.2z"/>
<linearGradient id="SVGID_4_" gradientUnits="userSpaceOnUse" x1="-23.0092" y1="20.8399" x2="160.5696" y2="20.84" gradientTransform="matrix(1 0 0 -1 0 48)">
	<stop  offset="0" style="stop-color:#FF7B17"/>
	<stop  offset="1" style="stop-color:#EFA900"/>
</linearGradient>
<path class="st3" d="M143,23.3V31h-31.2v-7.6H143z M123.5,11.6h7.7v31.1h-7.7V11.6z"/>
</svg>
