<?xml version="1.0" encoding="utf-8"?>
<!-- Generator: Adobe Illustrator 23.0.5, SVG Export Plug-In . SVG Version: 6.00 Build 0)  -->
<svg version="1.1" id="Слой_1" xmlns="http://www.w3.org/2000/svg" xmlns:xlink="http://www.w3.org/1999/xlink" x="0px" y="0px"
	 width="186.3px" height="107.6px" viewBox="0 0 186.3 107.6" style="enable-background:new 0 0 186.3 107.6;" xml:space="preserve"
	>
<style type="text/css">
	.st0{fill-rule:evenodd;clip-rule:evenodd;fill:#BEBEBE;}
	.st1{fill:#BEBEBE;}
	.st2{fill-rule:evenodd;clip-rule:evenodd;fill:#FE8836;}
	.st3{fill:#FE8836;}
</style>
<path class="st0" d="M85.8,72.3H8.5c-4.4,0-7.9,3.6-7.9,7.9v18.8c0,4.4,3.6,7.9,7.9,7.9h77.3c4.4,0,7.9-3.6,7.9-7.9V80.3
	C93.8,75.9,90.2,72.3,85.8,72.3z M8.5,71.8c-4.7,0-8.5,3.8-8.5,8.5v18.8c0,4.7,3.8,8.5,8.5,8.5h77.3c4.7,0,8.5-3.8,8.5-8.5V80.3
	c0-4.7-3.8-8.5-8.5-8.5H8.5z"/>
<path class="st1" d="M35.5,86.3l-3.3,7.5h-1.1l3.3-7.2H30v-0.8h5.4V86.3z"/>
<path class="st1" d="M36.7,93.2c0-0.2,0.1-0.3,0.2-0.4c0.1-0.1,0.3-0.2,0.5-0.2c0.2,0,0.4,0.1,0.5,0.2c0.1,0.1,0.2,0.3,0.2,0.4
	c0,0.2-0.1,0.3-0.2,0.4c-0.1,0.1-0.3,0.2-0.5,0.2c-0.2,0-0.4-0.1-0.5-0.2C36.8,93.6,36.7,93.4,36.7,93.2z M36.7,88.4
	c0-0.2,0.1-0.3,0.2-0.4c0.1-0.1,0.3-0.2,0.5-0.2c0.2,0,0.4,0.1,0.5,0.2c0.1,0.1,0.2,0.3,0.2,0.4c0,0.2-0.1,0.3-0.2,0.4
	c-0.1,0.1-0.3,0.2-0.5,0.2c-0.2,0-0.4-0.1-0.5-0.2C36.8,88.7,36.7,88.5,36.7,88.4z"/>
<path class="st1" d="M40.9,89.3h0.8c0.5,0,0.9-0.1,1.1-0.4c0.3-0.2,0.4-0.6,0.4-1c0-0.9-0.5-1.4-1.4-1.4c-0.4,0-0.8,0.1-1.1,0.4
	c-0.3,0.3-0.4,0.6-0.4,1h-1c0-0.6,0.2-1.2,0.7-1.6c0.5-0.4,1.1-0.6,1.8-0.6c0.8,0,1.4,0.2,1.8,0.6c0.4,0.4,0.6,1,0.6,1.7
	c0,0.4-0.1,0.7-0.3,1c-0.2,0.3-0.5,0.6-0.9,0.7c0.4,0.1,0.8,0.4,1,0.7c0.2,0.3,0.4,0.7,0.4,1.2c0,0.7-0.2,1.3-0.7,1.7
	c-0.5,0.4-1.1,0.6-1.8,0.6s-1.4-0.2-1.8-0.6c-0.5-0.4-0.7-1-0.7-1.6h1c0,0.4,0.1,0.8,0.4,1c0.3,0.3,0.6,0.4,1.1,0.4
	c0.5,0,0.9-0.1,1.1-0.4c0.3-0.3,0.4-0.6,0.4-1.1c0-0.5-0.1-0.8-0.4-1.1c-0.3-0.3-0.7-0.4-1.2-0.4h-0.8V89.3z"/>
<path class="st1" d="M50.8,90.3c0,1.2-0.2,2.1-0.6,2.7c-0.4,0.6-1,0.9-1.9,0.9c-0.9,0-1.5-0.3-1.9-0.9c-0.4-0.6-0.6-1.4-0.6-2.6
	v-1.4c0-1.2,0.2-2.1,0.6-2.6c0.4-0.6,1.1-0.9,1.9-0.9c0.9,0,1.5,0.3,1.9,0.8c0.4,0.6,0.6,1.4,0.6,2.6V90.3z M49.8,88.9
	c0-0.9-0.1-1.5-0.4-1.9c-0.2-0.4-0.6-0.6-1.2-0.6c-0.5,0-0.9,0.2-1.1,0.6c-0.2,0.4-0.4,1-0.4,1.8v1.6c0,0.9,0.1,1.5,0.4,1.9
	c0.3,0.4,0.6,0.6,1.2,0.6c0.5,0,0.9-0.2,1.1-0.6c0.2-0.4,0.4-1,0.4-1.8V88.9z"/>
<path class="st1" d="M55,90.5v2.2h-0.7v-5.6h2.1c0.6,0,1.1,0.2,1.4,0.5c0.4,0.3,0.5,0.7,0.5,1.2c0,0.5-0.2,1-0.5,1.3
	c-0.3,0.3-0.8,0.4-1.5,0.4H55z M55,89.9h1.3c0.4,0,0.7-0.1,0.9-0.3c0.2-0.2,0.3-0.5,0.3-0.8c0-0.3-0.1-0.6-0.3-0.8
	c-0.2-0.2-0.5-0.3-0.9-0.3H55V89.9z"/>
<path class="st1" d="M60.2,87.1l1.8,4.6l1.8-4.6h1v5.6h-0.7v-2.2l0.1-2.4l-1.8,4.6h-0.6L60,88.2l0.1,2.4v2.2h-0.7v-5.6H60.2z"/>
<path class="st2" d="M174.1,0.8H63.5c-6.3,0-11.3,5.1-11.3,11.3V39c0,6.3,5.1,11.3,11.3,11.3h110.6c6.3,0,11.3-5.1,11.3-11.3V12.2
	C185.5,5.9,180.4,0.8,174.1,0.8z M63.5,0c-6.7,0-12.2,5.4-12.2,12.2V39c0,6.7,5.4,12.2,12.2,12.2h110.6c6.7,0,12.2-5.4,12.2-12.2
	V12.2c0-6.7-5.4-12.2-12.2-12.2H63.5z"/>
<path class="st3" d="M102.1,20.8l-4.8,10.7h-1.5l4.8-10.3h-6.2v-1.2h7.8V20.8z"/>
<path class="st3" d="M103.9,30.7c0-0.3,0.1-0.5,0.2-0.6c0.2-0.2,0.4-0.3,0.7-0.3s0.5,0.1,0.7,0.3c0.2,0.2,0.2,0.4,0.2,0.6
	c0,0.2-0.1,0.4-0.2,0.6c-0.2,0.2-0.4,0.2-0.7,0.2s-0.5-0.1-0.7-0.2C104,31.1,103.9,30.9,103.9,30.7z M103.9,23.7
	c0-0.3,0.1-0.5,0.2-0.6c0.2-0.2,0.4-0.3,0.7-0.3c0.3,0,0.5,0.1,0.7,0.3c0.2,0.2,0.2,0.4,0.2,0.6c0,0.2-0.1,0.4-0.2,0.6
	c-0.2,0.2-0.4,0.2-0.7,0.2c-0.3,0-0.5-0.1-0.7-0.2C104,24.2,103.9,23.9,103.9,23.7z"/>
<path class="st3" d="M113.9,27.6h1.6v1.2h-1.6v2.7h-1.5v-2.7h-5.2v-0.9l5.2-8h1.6V27.6z M108.8,27.6h3.6v-5.7l-0.2,0.3L108.8,27.6z"
	/>
<path class="st3" d="M117.5,25.7l0.6-5.7h5.9v1.4h-4.7l-0.3,3.1c0.6-0.3,1.2-0.5,1.9-0.5c1.1,0,1.9,0.3,2.5,1
	c0.6,0.7,0.9,1.6,0.9,2.8c0,1.2-0.3,2.1-1,2.8c-0.6,0.7-1.5,1-2.7,1c-1,0-1.8-0.3-2.5-0.8c-0.6-0.6-1-1.3-1.1-2.3h1.4
	c0.1,0.7,0.3,1.2,0.7,1.5c0.4,0.3,0.9,0.5,1.5,0.5c0.7,0,1.2-0.2,1.6-0.7c0.4-0.5,0.6-1.1,0.6-1.9c0-0.8-0.2-1.4-0.6-1.9
	c-0.4-0.5-1-0.7-1.7-0.7c-0.6,0-1.1,0.1-1.5,0.4l-0.4,0.3L117.5,25.7z"/>
<path class="st3" d="M130.1,26.8V30H129v-8.1h3c0.9,0,1.6,0.2,2.1,0.7c0.5,0.4,0.8,1,0.8,1.8c0,0.8-0.2,1.4-0.7,1.8
	c-0.5,0.4-1.2,0.6-2.1,0.6H130.1z M130.1,26h1.9c0.6,0,1-0.1,1.3-0.4c0.3-0.3,0.5-0.7,0.5-1.2c0-0.5-0.2-0.9-0.5-1.2
	c-0.3-0.3-0.7-0.4-1.2-0.4h-2V26z"/>
<path class="st3" d="M137.5,21.9l2.6,6.6l2.6-6.6h1.4V30h-1.1v-3.1l0.1-3.4l-2.6,6.5h-0.8l-2.6-6.5l0.1,3.4V30h-1.1v-8.1H137.5z"/>
</svg>
