<?xml version="1.0" encoding="utf-8"?>
<!-- Generator: Adobe Illustrator 23.0.5, SVG Export Plug-In . SVG Version: 6.00 Build 0)  -->
<svg version="1.1" id="Слой_1" xmlns="http://www.w3.org/2000/svg" xmlns:xlink="http://www.w3.org/1999/xlink" x="0px" y="0px"
	 viewBox="0 0 270.5 56.6" style="enable-background:new 0 0 270.5 56.6;" xml:space="preserve">
<style type="text/css">
	.st0{fill:#333333;}
	.st1{fill:#1C3C70;}
	.st2{fill:#005EAB;}
	.st3{fill:#0097DD;}
</style>
<path class="st0" d="M10.2,17.8V56H0V17.8H10.2z"/>
<path class="st0" d="M15.4,56V17.8h12l6,11.7c2.1,3.8,4.3,8.9,6,13.4h0.2c-0.6-5-0.8-10.4-0.8-16.1v-9H48V56H37.3l-6.4-12.7
	c-2.1-4.1-4.6-9.2-6.4-13.8h-0.2c0.2,5.2,0.3,10.9,0.3,17.1V56H15.4z"/>
<path class="st0" d="M53.2,17.8h24.3v8.3H63.4v7.1h13.3v8.3H63.4V56H53.2L53.2,17.8L53.2,17.8z"/>
<path class="st0" d="M92.2,17.8v21.7c0,5.8,2,9.1,6,9.1c4,0,6-3,6-9.1V17.8h10.2v21.1c0,11.8-5.8,17.7-16.5,17.7
	c-10.4,0-15.9-5.7-15.9-18V17.8H92.2z"/>
<path class="st0" d="M120.1,45.8c2.3,1.2,6.1,2.4,9.8,2.4c3.5,0,5.2-1.2,5.2-3.1c0-1.9-1.7-2.9-6-4.4c-6.4-2.3-10.6-5.8-10.6-11.5
	c0-6.7,5.6-12,15.2-12c4.6,0,7.8,0.9,10.3,2l-2.1,8.2c-1.6-0.7-4.4-1.8-8.3-1.8c-3.1,0-4.8,1.1-4.8,2.8c0,1.9,2,2.7,6.8,4.5
	c6.8,2.5,9.9,6.2,9.9,11.5c0,6.6-5.1,12.2-16.2,12.2c-4.6,0-9-1.2-11.1-2.4L120.1,45.8z"/>
<path class="st0" d="M173,40.5h-13.6v7h15.2V56h-25.4V17.8h24.6v8.3h-14.5v6.2H173V40.5z"/>
<path class="st0" d="M181.2,46c0-1.6,0-3-0.1-4.2h2.9l0.1,2.1h0.1c0.7-1.1,1.9-2.4,4.1-2.4c1.7,0,3.1,1,3.7,2.6h0.1
	c0.5-0.8,1-1.4,1.6-1.8c0.7-0.5,1.6-0.8,2.7-0.8c2.2,0,4.4,1.6,4.4,6.1v8.3h-3.3v-7.8c0-2.3-0.8-3.7-2.4-3.7c-1.1,0-2,0.9-2.3,1.9
	c-0.1,0.3-0.2,0.8-0.2,1.2v8.4h-3.3v-8.2c0-2-0.7-3.4-2.3-3.4c-1.3,0-2.1,1-2.4,2c-0.1,0.3-0.2,0.8-0.2,1.2v8.3h-3.3L181.2,46
	L181.2,46z"/>
<path class="st0" d="M206.3,49.9c0.1,2.5,2,3.6,4.1,3.6c1.6,0,2.7-0.2,3.7-0.6l0.5,2.5c-1.1,0.5-2.7,0.9-4.6,0.9
	c-4.3,0-6.8-2.8-6.8-7.1c0-3.9,2.2-7.6,6.5-7.6c4.3,0,5.7,3.8,5.7,6.9c0,0.7-0.1,1.2-0.1,1.5H206.3z M212.2,47.4
	c0-1.3-0.5-3.4-2.8-3.4c-2.1,0-2.9,2-3.1,3.4H212.2z"/>
<path class="st0" d="M230.3,36.3V52c0,1.4,0.1,3,0.1,4h-3l-0.1-2.2h-0.1c-0.8,1.6-2.4,2.5-4.3,2.5c-3.2,0-5.7-2.9-5.7-7.2
	c0-4.7,2.8-7.5,5.9-7.5c1.8,0,3.1,0.8,3.7,1.9h0.1v-7.1H230.3z M226.9,47.7c0-0.3,0-0.6-0.1-0.9c-0.3-1.4-1.4-2.5-2.9-2.5
	c-2.2,0-3.4,2-3.4,4.7c0,2.6,1.2,4.5,3.3,4.5c1.4,0,2.6-1,2.9-2.5c0.1-0.3,0.1-0.7,0.1-1L226.9,47.7L226.9,47.7z"/>
<path class="st0" d="M233.9,55.9V42.7h3.4v13.2H233.9z M233.9,39.7v-3.3h3.4v3.3H233.9z"/>
<path class="st0" d="M248.4,55.9l-0.2-1.6h-0.1c-0.8,1.1-2.2,1.9-3.9,1.9c-2.7,0-4.2-2.1-4.2-4.2c0-3.6,3-5.4,7.9-5.3v-0.2
	c0-0.9-0.4-2.5-2.7-2.5c-1.3,0-2.7,0.4-3.6,1l-0.7-2.3c1-0.6,2.7-1.2,4.8-1.2c4.3,0,5.5,2.9,5.5,5.9v5.1c0,1.3,0.1,2.5,0.2,3.4
	L248.4,55.9L248.4,55.9z M247.9,49.1c-2.4-0.1-4.6,0.5-4.6,2.6c0,1.4,0.8,2,1.9,2c1.3,0,2.3-0.9,2.6-1.9c0.1-0.3,0.1-0.5,0.1-0.8
	V49.1z"/>
<path class="st1" d="M182.2,31.1h19.1L221.8,0h-19.1L182.2,31.1z"/>
<path class="st2" d="M206.6,31.1h19.1L246.1,0H227L206.6,31.1z"/>
<path class="st3" d="M230.9,31.1h19.1L270.5,0h-19.1L230.9,31.1z"/>
</svg>
