<svg width="182" height="184" fill="none" xmlns="http://www.w3.org/2000/svg"><g clip-path="url(#a)"><path d="M174.455 139.539v-8.281H6.935v8.281h167.52Z" fill="#fff"/><path d="M182 184H0V0h182v184ZM7.962 176.044h166.076V7.979H7.962v168.065Z" fill="#fff"/><path d="M160.331 104.255h-23.963l-22.101-49.237L97.17 91.106 71.88 25.764l-24.813 78.491H26.14l-5.267 7.987h32.025l19.738-62.448 23.792 61.48 17.646-37.233 17.143 38.201h23.839l5.275-7.987Z" fill="#FE8836"/><path d="m26.21 153.207-5.468 8.281h98.151v-8.281H26.21Z" fill="#fff"/><path d="M150.161 153.207H126.816v8.281H155.08l5.437-8.227v-.054h-10.356Z" fill="#fff"/></g><defs><clipPath id="a"><path fill="#fff" d="M0 0h182v184H0z"/></clipPath></defs></svg>