<svg width="226" height="190" fill="none" xmlns="http://www.w3.org/2000/svg"><g clip-path="url(#a)"><path d="m205.102 161.209 20.418-19.854-28.604-4.14-.189-.282-12.608-25.593-12.796 25.875h-.282l-28.322 4.14 20.7 20.136-.094.282-4.799 28.228 25.593-13.455.188.094 25.311 13.361-4.893-28.698.377-.094Zm-7.622 12.043-8.844-4.704a10.682 10.682 0 0 0-4.611-1.412 7.19 7.19 0 0 0-3.481.941l-9.88 5.175 1.694-9.785a8.162 8.162 0 0 0 .085-4.152 8.157 8.157 0 0 0-1.967-3.658l-8.092-7.904 10.444-1.505a7.466 7.466 0 0 0 6.21-4.046l5.081-10.256 4.517 9.315a7.694 7.694 0 0 0 5.645 4.799l11.479 1.693-7.151 6.963a8.315 8.315 0 0 0-3.011 7.716l1.882 10.82Z" fill="#FE8836"/><path d="M114.322 135.896v-13.831a5.763 5.763 0 0 1 .094-1.318 18.062 18.062 0 0 1 2.446-7.903 17.172 17.172 0 0 1 6.775-7.151l.094-.094h.094l.282-.283a25.498 25.498 0 0 1 10.915-2.446l.847.094a30.914 30.914 0 0 0 3.763-.188l4.329.094c2.07-.188 4.516-.188 7.151-.188 7.339 0 12.608.188 14.866.188l1.412.094a22.216 22.216 0 0 1 10.726 2.352c.094 0 .094.094.188.189l4.234-8.469a18.17 18.17 0 0 0-4.892-1.882l-1.318-.376-6.116-1.882 3.105-5.645.659-1.13a40.128 40.128 0 0 0 5.081-18.63 27.93 27.93 0 0 0-27.851-27.85 27.42 27.42 0 0 0-15.996 5.08 26.147 26.147 0 0 0-9.315 11.197c-.47-.094-.941-.282-1.412-.376l-1.411-.283-6.116-1.882 3.105-5.645.659-1.13a31.25 31.25 0 0 0 2.352-5.08 36.074 36.074 0 0 0 2.541-9.88l.094-.282c.094-1.13.188-2.258.188-3.387A28.056 28.056 0 0 0 98.044.027a27.898 27.898 0 0 0-27.757 31.05 40.994 40.994 0 0 0 4.798 15.432l.659 1.129 3.199 5.645-6.21 1.788-1.223.47h-.189l-.093.095A27.55 27.55 0 0 0 46.199 39.64a27.9 27.9 0 0 0-27.663 31.05 39.517 39.517 0 0 0 4.799 15.338l.658 1.223 3.106 5.551-6.117 1.788-1.317.564a22.423 22.423 0 0 0-5.269 2.07A29.17 29.17 0 0 0 .941 114.443 28.685 28.685 0 0 0 0 122.065v23.24h92.492v-23.334a4.14 4.14 0 0 0-.188-1.506 23.93 23.93 0 0 0-1.693-8.092 24.179 24.179 0 0 0-3.388-6.586h22.959a33.217 33.217 0 0 0-3.482 6.586l-.282.565c-.186.492-.343.995-.47 1.505a21.35 21.35 0 0 0-.847 6.21 3.218 3.218 0 0 0-.189 1.412v23.24h28.04l-9.494-9.409h-9.136ZM95.127 9.709a14.37 14.37 0 0 1 3.387-.376 17.378 17.378 0 0 1 10.915 4.234 18.752 18.752 0 0 1 7.057 14.396 27.283 27.283 0 0 1-1.318 7.904 30.67 30.67 0 0 1-8.938 14.302l-.659.47-.564.47a12.657 12.657 0 0 1-7.716 2.541h-.47a14.942 14.942 0 0 1-8.563-4.986 31.106 31.106 0 0 1-8.844-22.959A19.072 19.072 0 0 1 95.127 9.691v.018Zm-51.75 39.519a23.285 23.285 0 0 1 3.387-.376 17.52 17.52 0 0 1 10.914 4.328 18.959 18.959 0 0 1 5.458 7.245 17.135 17.135 0 0 1 1.6 7.057 8.47 8.47 0 0 1-.19 2.258 30.993 30.993 0 0 1-1.128 5.74 29.29 29.29 0 0 1-3.387 7.433 30.542 30.542 0 0 1-5.552 6.775l-.282.188c-.376.282-.659.564-1.035.847a1.45 1.45 0 0 1-.565.376 1.966 1.966 0 0 1-.564.376 12.609 12.609 0 0 1-6.587 1.788h-.376a14.941 14.941 0 0 1-8.562-4.987 31.397 31.397 0 0 1-8.845-22.958 18.866 18.866 0 0 1 15.713-16.109v.019Zm39.612 86.659H9.41v-13.832a19.401 19.401 0 0 1 9.597-16.654 25.951 25.951 0 0 1 11.01-2.54l.94.094c1.257.01 2.514-.053 3.764-.189h4.516c2.07 0 4.423-.094 6.869-.094 2.446 0 4.328 0 6.21.094l.377.095h8.185l1.506.094a22.217 22.217 0 0 1 10.726 2.352c.189.094.283.094.377.282a17.777 17.777 0 0 1 6.962 7.245 18.07 18.07 0 0 1 2.447 7.81c.078.434.11.876.094 1.317v13.926Zm43-41.307-1.317.565a14.048 14.048 0 0 0-3.576 1.317H76.308a12.882 12.882 0 0 0-3.763-1.317l-1.13-.376-6.21-1.882 3.106-5.646.658-1.129a24.592 24.592 0 0 0 2.259-5.08 37.569 37.569 0 0 0 2.54-9.786c.469-2.231.5-4.532.094-6.775a33.153 33.153 0 0 1 7.904-1.223h9.22c2.07 0 4.423-.094 6.964-.094 2.352 0 4.516 0 6.492.094h9.785c3.141-.016 6.25.625 9.127 1.882a27.47 27.47 0 0 0 .095 5.551c.016.352.08.7.188 1.035a37.142 37.142 0 0 0 2.634 10.068 44.598 44.598 0 0 0 2.07 4.234l.659 1.223 3.105 5.552-6.116 1.787Zm33.403-4.892a12.75 12.75 0 0 1-8.939 3.575h-.376a10.893 10.893 0 0 1-6.116-2.823 1.305 1.305 0 0 1-.377-.282c-.094-.094-.282-.188-.376-.282a9.858 9.858 0 0 1-1.788-1.6 29.184 29.184 0 0 1-5.74-8.468 18.802 18.802 0 0 1-1.599-3.67c-.376-1.223-.659-2.446-.941-3.575a32.15 32.15 0 0 1-.47-7.151c.119-1.518.468-3.01 1.035-4.423a19.753 19.753 0 0 1 14.678-11.761 23.526 23.526 0 0 1 3.293-.376 17.652 17.652 0 0 1 10.915 4.328 18.716 18.716 0 0 1 7.057 14.302 31.188 31.188 0 0 1-10.256 22.187v.019Z" fill="#fff"/></g><defs><clipPath id="a"><path fill="#fff" d="M0 0h225.52v190H0z"/></clipPath></defs></svg>