<svg width="22" height="26" fill="none" xmlns="http://www.w3.org/2000/svg"><g clip-path="url(#a)"><path d="m14.573 19.314-4.386 6.687h3.22l4.385-6.687h-3.22Z" fill="#0096DE"/><path d="m18.676 19.314-4.385 6.687h3.22l4.384-6.687h-3.219Z" fill="#0096DE"/><path d="M6.98 21.358c-2.378 0-4.757-1.006-5.792-1.548L0 24.22c1.457.93 4.18 1.78 7.403 1.78.54 0 1.055-.032 1.559-.078l7.41-11.298a6.78 6.78 0 0 0-4.175-2.436v-.078c3.069-1.083 4.564-3.172 4.564-5.842C16.76 2.825 13.807 0 8.476 0 5.254 0 2.262.929.766 1.896l1.19 4.256c1.035-.62 3.183-1.51 5.216-1.51 2.455 0 3.68 1.123 3.68 2.632 0 2.128-2.49 2.863-4.448 2.902H4.141v4.217H6.52c2.57 0 5.024 1.122 5.024 3.599 0 1.896-1.534 3.366-4.564 3.366" fill="#005EAB"/></g><defs><clipPath id="a"><path fill="#fff" d="M0 0h21.895v26H0z"/></clipPath></defs></svg>