<svg width="190" height="185" fill="none" xmlns="http://www.w3.org/2000/svg"><g clip-path="url(#a)"><path d="m111.797 30.155-.089-.088a13.25 13.25 0 0 0-3.181-1.326l-.619-.177-.53-.177.265-.442.353-.62a21.286 21.286 0 0 0 2.828-10.434 16.303 16.303 0 0 0-4.77-11.498A16.283 16.283 0 0 0 94.563.619a15.9 15.9 0 0 0-9.28 3.007 16.286 16.286 0 0 0-6.893 15.033 22.243 22.243 0 0 0 2.828 8.667l.265.619.265.442-.53.177-.619.177a17.154 17.154 0 0 0-3.181 1.326 16.629 16.629 0 0 0-8.308 14.414v13.973h50.994V44.393a16.654 16.654 0 0 0-8.307-14.238ZM93.591 9.816c.404-.108.82-.168 1.237-.177a6.449 6.449 0 0 1 4.154 1.592 7.827 7.827 0 0 1 2.828 5.66 13.78 13.78 0 0 1-4.507 9.639 4.364 4.364 0 0 1-3.005 1.238h-.088a6.186 6.186 0 0 1-3.094-1.857 13.769 13.769 0 0 1-3.712-9.905 7.316 7.316 0 0 1 6.187-6.19ZM111 49.346H78.125v-4.864a7.582 7.582 0 0 1 3.8-6.544 8.604 8.604 0 0 1 4.596-.973h.442c1.325-.089 4.242-.089 7.6-.089 3.358 0 6.452 0 7.424.089h.706a8.287 8.287 0 0 1 4.508.972 7.471 7.471 0 0 1 3.8 6.544v4.864Z" fill="#fff"/><path d="m180.819 156.79-.089-.088a14.139 14.139 0 0 0-3.092-1.327l-.708-.176-.53-.177.266-.442.353-.619a21.29 21.29 0 0 0 2.828-10.435 16.301 16.301 0 0 0-4.739-11.467 16.28 16.28 0 0 0-11.434-4.805 16.277 16.277 0 0 0-12.162 5.382 16.324 16.324 0 0 0-3.4 5.891 16.316 16.316 0 0 0-.699 6.767 24.375 24.375 0 0 0 2.827 8.667l.354.53.265.531-.53.177-.707.176a8.843 8.843 0 0 0-3.093 1.327 16.734 16.734 0 0 0-8.396 14.414V185h50.993v-13.972a16.65 16.65 0 0 0-8.307-14.238Zm-18.206-20.427a5.769 5.769 0 0 1 1.238-.089 6.272 6.272 0 0 1 4.153 1.592 7.384 7.384 0 0 1 2.828 5.66 13.833 13.833 0 0 1-4.419 9.639 4.741 4.741 0 0 1-3.092 1.238 5.578 5.578 0 0 1-3.094-1.946 13.587 13.587 0 0 1-3.8-9.904 7.501 7.501 0 0 1 6.186-6.19Zm17.499 39.617h-32.965v-4.864c.083-.613.262-1.21.531-1.768a.528.528 0 0 1 .088-.354 6.499 6.499 0 0 1 1.679-2.918l.265-.266c.442-.442.707-.972 1.238-1.238a8.827 8.827 0 0 1 4.595-.972h.442c1.149-.089 4.065-.177 7.6-.177 3.535 0 6.364.088 7.513.088l.706.089a8.824 8.824 0 0 1 4.419.884 7.966 7.966 0 0 1 2.778 2.776 7.969 7.969 0 0 1 1.111 3.768v4.952Z" fill="#fff"/><path d="m42.775 156.347-.089-.088a15.025 15.025 0 0 0-3.181-1.327l-.619-.176-.53-.089.265-.53.353-.619a23.325 23.325 0 0 0 2.829-10.347 16.578 16.578 0 0 0-8.662-14.414 16.1 16.1 0 0 0-7.6-1.858 15.64 15.64 0 0 0-9.28 2.919 16.36 16.36 0 0 0-6.894 15.122 21.697 21.697 0 0 0 2.74 8.578l.354.619.265.442-.53.177-.619.176a17.203 17.203 0 0 0-3.181 1.327A16.716 16.716 0 0 0 0 170.673v13.973h51.082v-13.973a16.682 16.682 0 0 0-8.307-14.326ZM24.48 136.008a5.749 5.749 0 0 1 5.479 1.503 7.542 7.542 0 0 1 2.74 5.572 13.674 13.674 0 0 1-4.42 9.639 4.209 4.209 0 0 1-3.092 1.238 6.193 6.193 0 0 1-3.094-1.857 13.507 13.507 0 0 1-3.712-9.905 7.324 7.324 0 0 1 6.099-6.19Zm17.498 39.529H9.103v-4.864a7.58 7.58 0 0 1 3.8-6.544 10.545 10.545 0 0 1 4.507-.972h.442c1.414 0 4.33-.089 7.689-.089 3.358 0 6.452.089 7.424.089h.706c1.556-.013 3.096.32 4.508.972a7.576 7.576 0 0 1 3.8 6.544v4.864Z" fill="#fff"/><path d="m76.623 70.568-29.518 44.57H34.82l29.43-44.57h12.373Z" fill="#fff"/><path d="M154.394 115.138h-12.373l-29.429-44.57h12.373l29.429 44.57Z" fill="#fff"/><path d="M21.83 53.855a21.068 21.068 0 0 0-11.728 3.537A21.089 21.089 0 0 0 1.11 79.05a21.095 21.095 0 0 0 5.77 10.81 21.075 21.075 0 0 0 22.992 4.564 21.08 21.08 0 0 0 9.457-7.787 21.1 21.1 0 0 0 3.534-11.735 21.05 21.05 0 0 0-6.158-14.885 21.023 21.023 0 0 0-14.876-6.162Zm0 32.278a11.175 11.175 0 0 1-10.357-6.865 11.192 11.192 0 0 1 2.376-12.2 11.177 11.177 0 0 1 19.116 7.834 11.253 11.253 0 0 1-3.262 7.906 11.238 11.238 0 0 1-7.874 3.325Z" fill="#fff"/><path d="M21.83 0c-4.16 0-8.227 1.234-11.686 3.547A21.059 21.059 0 0 0 6.957 35.93a21.03 21.03 0 0 0 22.922 4.563 21.036 21.036 0 0 0 9.44-7.752 21.056 21.056 0 0 0 3.544-11.693 20.995 20.995 0 0 0-6.142-14.9A20.97 20.97 0 0 0 21.83 0Zm0 32.19a11.174 11.174 0 0 1-10.364-6.886 11.192 11.192 0 0 1 2.415-12.211 11.178 11.178 0 0 1 12.203-2.417 11.182 11.182 0 0 1 6.881 10.37 11.173 11.173 0 0 1-3.269 7.872 11.158 11.158 0 0 1-7.866 3.271Z" fill="#fff"/><path d="M167.385 53.855a21.067 21.067 0 0 0-11.726 3.537 21.09 21.09 0 0 0-8.992 21.658 21.075 21.075 0 0 0 28.761 15.373 21.096 21.096 0 0 0 12.991-19.521 21.128 21.128 0 0 0-6.181-14.861 21.1 21.1 0 0 0-14.853-6.185Zm0 32.278a11.173 11.173 0 0 1-10.355-6.865 11.185 11.185 0 0 1 2.375-12.2 11.176 11.176 0 0 1 17.207 1.627 11.192 11.192 0 0 1 1.909 6.207 11.257 11.257 0 0 1-3.261 7.906 11.24 11.24 0 0 1-7.875 3.325Z" fill="#fff"/><path d="M167.386 0a21.026 21.026 0 0 0-19.432 12.993 21.056 21.056 0 0 0 4.559 22.936 21.025 21.025 0 0 0 32.362-3.19 21.058 21.058 0 0 0 3.545-11.692 21.066 21.066 0 0 0-6.164-14.88A21.034 21.034 0 0 0 167.386 0Zm0 32.19a11.177 11.177 0 0 1-10.364-6.886 11.19 11.19 0 0 1 8.15-15.275 11.175 11.175 0 0 1 11.484 4.786 11.19 11.19 0 0 1 1.865 6.232 11.171 11.171 0 0 1-3.269 7.871 11.159 11.159 0 0 1-7.866 3.271Z" fill="#fff"/><path d="M94.564 120.18a21.038 21.038 0 0 0-19.432 12.992 21.061 21.061 0 0 0 4.558 22.937 21.022 21.022 0 0 0 32.362-3.189 21.054 21.054 0 0 0 3.545-11.693 21.03 21.03 0 0 0-21.033-21.047Zm0 32.189a11.181 11.181 0 0 1-10.301-6.947 11.19 11.19 0 0 1 8.207-15.22 11.172 11.172 0 0 1 11.458 4.802 11.201 11.201 0 0 1 1.86 6.223 11.147 11.147 0 0 1-3.296 7.907 11.128 11.128 0 0 1-7.928 3.235Z" fill="#FE8836"/></g><defs><clipPath id="a"><path fill="#fff" d="M0 0h189.126v185H0z"/></clipPath></defs></svg>