<svg width="43" height="44" fill="none" xmlns="http://www.w3.org/2000/svg"><g clip-path="url(#a)"><path d="M28.068 18.287h2.704L42.864 0h-2.69L28.068 18.287Z" fill="#005EAB"/><path d="M14.165 18.287 26.26 0h-2.693L11.464 18.287h2.701Z" fill="#005EAB"/><path d="M19.767 18.287h2.701L34.56 0h-2.69L19.767 18.287Z" fill="#005EAB"/><path d="M0 34.121h27.7V20.703h-2.684v10.735H2.684V20.703H0v13.418Z" fill="#1C3C70"/><path d="M12.506 44h2.69v-9.925h-2.69V44Z" fill="#1C3C70"/><path d="M21.621 41.307H7.88l-1.78 2.692h13.74l1.782-2.692Z" fill="#1C3C70"/><path d="M20.435 0 18.7 2.681H8.082v.003h-.02v23.392H19.44v-.016h2.88v2.7H5.378V0h15.057Z" fill="#1C3C70"/><path d="M19.638 20.704v8.056h2.683v-8.056h-2.683Z" fill="#1C3C70"/></g><defs><clipPath id="a"><path fill="#fff" d="M0 0h42.864v44H0z"/></clipPath></defs></svg>