<svg width="22" height="25" fill="none" xmlns="http://www.w3.org/2000/svg"><g clip-path="url(#a)"><path d="M17.923 18.465 13.66 25h3.13l4.262-6.536h-3.129Z" fill="#0096DE"/><path d="M13.936 18.465 9.673 25h3.129l4.263-6.536h-3.13Z" fill="#0096DE"/><path d="M0 25v-3.48l3.132-2.874c5.293-4.802 7.866-7.565 7.941-10.439 0-2.004-1.193-3.593-3.99-3.593-2.088 0-3.915 1.059-5.183 2.042L.297 2.534C2.124 1.134 4.957 0 8.238 0c5.48 0 8.501 3.252 8.501 7.715 0 4.123-2.945 7.413-6.45 10.59l-2.236 1.892v.076h3.915L8.891 25H0Z" fill="#005EAB"/></g><defs><clipPath id="a"><path fill="#fff" d="M0 0h21.053v25H0z"/></clipPath></defs></svg>