<svg width="18" height="21" fill="none" xmlns="http://www.w3.org/2000/svg"><path d="M17.154 21H0l3.83-5.86h9.494l3.83 5.86Z" fill="#1C3C70"/><circle cx="8.523" cy="8.57" r="7.458" fill="#fff" stroke="#fff" stroke-width="1.776"/><path d="M13.169 3.924A6.55 6.55 0 0 0 8.523 2a6.528 6.528 0 0 0-4.646 1.924A6.528 6.528 0 0 0 1.954 8.57c0 1.754.683 3.405 1.924 4.646a6.528 6.528 0 0 0 4.646 1.924 6.528 6.528 0 0 0 4.646-1.924 6.53 6.53 0 0 0 1.924-4.646 6.55 6.55 0 0 0-1.924-4.646Zm-.93 8.363a5.222 5.222 0 0 1-3.716 1.54 5.222 5.222 0 0 1-3.716-1.54 5.222 5.222 0 0 1-1.54-3.717c0-1.404.547-2.724 1.54-3.717a5.222 5.222 0 0 1 3.716-1.539V8.57h5.256a5.22 5.22 0 0 1-1.54 3.717Z" fill="#0097DD"/></svg>