<svg width="89" height="68" fill="none" xmlns="http://www.w3.org/2000/svg"><g clip-path="url(#a)"><path d="M70.203 20.145 43.737 60.53h4.055l25.316-38.502-2.905-1.883Z" fill="#005EAB"/><path d="m76.397 25.285.35-12.387-10.886 5.907 10.535 6.48Z" fill="#005EAB"/><path d="M49.037 28.734 28.158 60.532h4.023l19.761-29.914-2.905-1.884Z" fill="#005EAB"/><path d="m55.262 33.871.319-12.387-10.854 5.938 10.535 6.45Z" fill="#005EAB"/><path d="M28.669 13.28v4.278h15.42v-4.277a5.013 5.013 0 0 0-2.555-4.374 3.767 3.767 0 0 0-.957-.415h-.192V8.3c.55-.975.846-2.073.862-3.192a4.948 4.948 0 0 0-7.79-4.055A4.948 4.948 0 0 0 31.35 5.65c.102.924.396 1.815.862 2.618v.16h-.191a5.779 5.779 0 0 0-.99.415 5.108 5.108 0 0 0-2.362 4.438Zm7.438-10.152a1.787 1.787 0 0 1 1.5.415 2.138 2.138 0 0 1 .799 1.565 3.959 3.959 0 0 1-1.277 2.745c-.225.214-.52.34-.83.351a1.916 1.916 0 0 1-.83-.542 3.831 3.831 0 0 1-1.086-2.81 2.075 2.075 0 0 1 1.724-1.724Zm-4.47 10.152a2.075 2.075 0 0 1 1.054-1.82c.409-.19.859-.278 1.31-.255h4.819c.43-.024.86.064 1.246.256a2.107 2.107 0 0 1 1.085 1.82v1.308h-9.577l.063-1.309Z" fill="#1C3C70"/><path d="M14.367 35.147v4.278h15.419v-4.278a5.203 5.203 0 0 0-2.554-4.406 4.28 4.28 0 0 0-.958-.383h-.191v-.16c.53-.982.825-2.075.862-3.192a4.98 4.98 0 1 0-9.897.543c.105.918.387 1.807.83 2.618v.16h-.192a3.189 3.189 0 0 0-.957.382 5.139 5.139 0 0 0-2.362 4.438Zm7.438-10.152a1.755 1.755 0 0 1 1.5.383 2.139 2.139 0 0 1 .766 1.596 3.959 3.959 0 0 1-1.276 2.746c-.225.21-.523.325-.83.319a1.532 1.532 0 0 1-.83-.51 3.8 3.8 0 0 1-1.054-2.842 2.012 2.012 0 0 1 1.724-1.692Zm-4.502 10.152a2.171 2.171 0 0 1 1.086-1.82 2.68 2.68 0 0 1 1.277-.287h4.98c.443-.011.882.087 1.277.287a2.075 2.075 0 0 1 1.054 1.82v1.309h-9.578l-.096-1.309Z" fill="#1C3C70"/><path d="M0 57.016v4.278h15.42v-4.31a5.141 5.141 0 0 0-2.554-4.373 4.282 4.282 0 0 0-.958-.383h-.224v-.192c.538-.98.834-2.075.862-3.192a5.139 5.139 0 0 0-2.65-4.406 4.95 4.95 0 0 0-7.247 4.916c.084.923.367 1.816.83 2.618v.192h-.191a3.736 3.736 0 0 0-.958.383A5.044 5.044 0 0 0 0 57.017Zm7.406-10.184a1.822 1.822 0 0 1 1.532.415 2.108 2.108 0 0 1 .767 1.565 3.958 3.958 0 0 1-1.277 2.777c-.225.21-.522.325-.83.32a1.532 1.532 0 0 1-.83-.511 3.863 3.863 0 0 1-1.054-2.842 2.076 2.076 0 0 1 1.692-1.724Zm-4.47 10.184a2.203 2.203 0 0 1 1.086-1.851c.398-.192.837-.28 1.277-.256h4.82c.44-.02.88.067 1.278.256a2.173 2.173 0 0 1 1.053 1.851v1.405H2.873l.064-1.405Z" fill="#1C3C70"/><path d="m47.408 0-2.394 3.544h36.713L77.61 9.577h4.246L88.335 0H47.409Z" fill="#1C3C70"/><path d="M40.96 64.457H4.628l-2.395 3.544h40.64l2.427-3.544h-4.342Z" fill="#1C3C70"/></g><defs><clipPath id="a"><path fill="#fff" d="M0 0h88.336v68H0z"/></clipPath></defs></svg>