<svg width="188" height="184" fill="none" xmlns="http://www.w3.org/2000/svg"><g clip-path="url(#a)"><path d="M146.989 151.812v24.528H7.639V42.48L30.632 7.66H146.99v55.247h7.716V0H26.543L0 40.158V184h154.705v-32.188h-7.716Z" fill="#fff"/><path d="M48.535 1.857 25.85 36.29H6.097v7.737h23.842l27.855-42.17h-9.26Z" fill="#fff"/><path d="M151.62 79.156c5.616 0 11.105 1.67 15.775 4.798a28.46 28.46 0 0 1 10.458 12.78 28.546 28.546 0 0 1 1.616 16.451 28.503 28.503 0 0 1-7.771 14.579 28.368 28.368 0 0 1-14.539 7.793 28.321 28.321 0 0 1-16.406-1.62 28.411 28.411 0 0 1-12.743-10.488 28.527 28.527 0 0 1-4.785-15.819 28.514 28.514 0 0 1 8.316-20.134 28.356 28.356 0 0 1 20.079-8.34Zm0-7.738a36.044 36.044 0 0 0-20.063 6.103 36.19 36.19 0 0 0-13.299 16.251 36.3 36.3 0 0 0-2.055 20.922 36.244 36.244 0 0 0 9.882 18.542 36.084 36.084 0 0 0 18.49 9.91 36.018 36.018 0 0 0 20.864-2.061 36.13 36.13 0 0 0 16.206-13.337 36.282 36.282 0 0 0 6.085-20.118 36.264 36.264 0 0 0-10.576-25.606 36.06 36.06 0 0 0-25.534-10.606Z" fill="#FE8836"/><path d="M129.089 63.525H52.701v8.357h76.388v-8.357Z" fill="#fff"/><path d="M108.102 104.379h-55.4v8.357h55.4v-8.357Z" fill="#fff"/><path d="M129.089 141.984H52.701v8.357h76.388v-8.357Z" fill="#fff"/><path d="m35.648 72.115 18.519-28.32-9.182.232L30.71 65.77l-6.327-9.672-9.182-.232 10.571 16.249h9.877Z" fill="#FE8836"/><path d="m35.648 112.66 18.519-28.242-9.182.155-14.275 21.82-6.327-9.672-9.182-.232 10.571 16.171h9.877Z" fill="#FE8836"/><path d="m35.648 153.203 18.519-28.242-9.182.232-14.275 21.743-6.327-9.672-9.182-.232 10.571 16.171h9.877Z" fill="#FE8836"/><path d="M172.067 103.065h-16.59V86.352h-7.716v16.713h-16.666v7.737h16.666v16.636h7.716v-16.636h16.59v-7.737Z" fill="#FE8836"/></g><defs><clipPath id="a"><path fill="#fff" d="M0 0h187.73v184H0z"/></clipPath></defs></svg>