<svg width="191" height="185" fill="none" xmlns="http://www.w3.org/2000/svg"><g clip-path="url(#a)"><path d="M154.114 113.695s-49.796 27.892-73.985 27.892c-24.188 0-75.323-24.11-75.323-24.11s-.473 23.243-.473 30.729c0 18.121 33.486 32.776 74.85 32.776 41.366 0 74.931-14.655 74.931-32.776v-34.511Z" fill="#1C3C70"/><path fill-rule="evenodd" clip-rule="evenodd" d="M158.053 106.973v41.232c0 5.834-2.718 11.079-6.998 15.505-4.262 4.407-10.238 8.194-17.316 11.289-14.168 6.194-33.461 9.922-54.555 9.922s-40.368-3.728-54.517-9.923c-7.069-3.095-13.036-6.883-17.29-11.291-4.273-4.427-6.983-9.671-6.983-15.502 0-3.784.119-11.504.237-18.24.059-3.376.118-6.518.162-8.816l.074-3.748.124-6.079 5.527 2.606.105.05.422.196a419.384 419.384 0 0 0 7.707 3.46 462.318 462.318 0 0 0 20.048 8.217c7.838 2.988 16.371 5.956 24.403 8.171 8.096 2.233 15.418 3.625 20.926 3.625 5.42 0 12.594-1.588 20.551-4.166 7.882-2.554 16.231-5.979 23.894-9.432 7.653-3.449 14.566-6.902 19.569-9.494a377.41 377.41 0 0 0 5.908-3.126c.696-.377 1.234-.671 1.596-.871l.409-.227.102-.056.024-.014 5.871-3.288ZM8.628 123.544a4846.48 4846.48 0 0 0-.12 6.559c-.118 6.757-.235 14.401-.235 18.102 0 3.23 1.475 6.613 4.773 10.031 3.317 3.436 8.307 6.71 14.78 9.544 12.936 5.664 31.087 9.262 51.358 9.262 20.271 0 38.443-3.598 51.399-9.263 6.484-2.834 11.484-6.109 14.808-9.546 3.306-3.418 4.783-6.801 4.783-10.028v-27.911c-.743.391-1.547.811-2.406 1.257-5.09 2.637-12.138 6.157-19.957 9.681-7.81 3.52-16.445 7.069-24.703 9.744-8.183 2.652-16.303 4.55-22.979 4.55-6.586 0-14.727-1.621-23.02-3.909-8.36-2.305-17.146-5.365-25.116-8.404a470.482 470.482 0 0 1-23.365-9.669Z" fill="#fff"/><path d="M154.114 75.797s-49.796 27.892-73.985 27.892c-24.188 0-75.796-25.37-75.796-25.37v31.988c0 18.122 33.486 32.777 74.85 32.777 41.366 0 74.931-14.655 74.931-32.777v-34.51Z" fill="#1C3C70"/><path fill-rule="evenodd" clip-rule="evenodd" d="M158.053 69.074v41.233c0 5.833-2.718 11.078-6.998 15.505-4.262 4.407-10.238 8.194-17.316 11.288-14.168 6.194-33.461 9.923-54.555 9.923s-40.368-3.729-54.517-9.924c-7.069-3.094-13.036-6.882-17.29-11.29-4.273-4.427-6.983-9.672-6.983-15.502V71.991l5.677 2.791.032.016.106.052.426.207a420.967 420.967 0 0 0 7.774 3.64 458.308 458.308 0 0 0 20.21 8.646c7.895 3.145 16.484 6.266 24.555 8.596 8.141 2.35 15.473 3.81 20.955 3.81 5.42 0 12.594-1.589 20.551-4.167 7.882-2.554 16.231-5.978 23.894-9.431 7.653-3.45 14.566-6.902 19.569-9.494a372.703 372.703 0 0 0 5.908-3.127c.696-.376 1.234-.67 1.596-.87l.409-.227.102-.057.024-.013 5.871-3.289ZM8.273 84.547v25.76c0 3.23 1.475 6.613 4.773 10.03 3.317 3.437 8.307 6.711 14.78 9.545 12.936 5.663 31.087 9.262 51.358 9.262 20.271 0 38.443-3.599 51.399-9.263 6.484-2.835 11.484-6.109 14.808-9.547 3.306-3.418 4.783-6.8 4.783-10.027V82.395c-.743.392-1.547.812-2.406 1.257-5.09 2.638-12.138 6.158-19.957 9.682-7.81 3.52-16.445 7.068-24.703 9.744-8.183 2.651-16.303 4.55-22.979 4.55-6.612 0-14.801-1.712-23.14-4.119-8.408-2.427-17.256-5.648-25.286-8.846a466.021 466.021 0 0 1-23.43-10.116Z" fill="#fff"/><path d="M154.114 40.578S104.318 68.47 80.129 68.47c-24.188 0-75.323-24.11-75.323-24.11s-.473 23.243-.473 30.728c0 18.122 33.486 32.777 74.85 32.777 41.366 0 74.931-14.655 74.931-32.777v-34.51Z" fill="#1C3C70"/><path fill-rule="evenodd" clip-rule="evenodd" d="M158.053 33.855v41.233c0 5.834-2.718 11.079-6.998 15.505-4.262 4.407-10.238 8.194-17.316 11.289-14.168 6.193-33.461 9.922-54.555 9.922s-40.368-3.729-54.517-9.923c-7.069-3.095-13.036-6.883-17.29-11.29C3.104 86.162.394 80.917.394 75.087c0-3.784.119-11.504.237-18.24.059-3.377.118-6.518.162-8.816l.074-3.748.124-6.079 5.527 2.606.105.05.422.196c.373.173.926.428 1.64.754A461.868 461.868 0 0 0 34.8 52.733c7.838 2.989 16.371 5.956 24.403 8.171 8.096 2.233 15.418 3.626 20.926 3.626 5.42 0 12.594-1.588 20.551-4.166 7.882-2.555 16.231-5.979 23.894-9.432 7.653-3.45 14.566-6.902 19.569-9.494a371.865 371.865 0 0 0 5.908-3.127c.696-.376 1.234-.67 1.596-.87l.409-.227.102-.056.024-.014 5.871-3.288ZM8.628 50.427c-.037 1.929-.078 4.186-.12 6.559-.118 6.757-.235 14.4-.235 18.102 0 3.23 1.475 6.613 4.773 10.03 3.317 3.437 8.307 6.71 14.78 9.545 12.936 5.663 31.087 9.262 51.358 9.262 20.271 0 38.443-3.599 51.399-9.263 6.484-2.834 11.484-6.109 14.808-9.546 3.306-3.419 4.783-6.801 4.783-10.028V47.177c-.743.39-1.547.811-2.406 1.257-5.09 2.637-12.138 6.157-19.957 9.681-7.81 3.52-16.445 7.068-24.703 9.744-8.183 2.652-16.303 4.55-22.979 4.55-6.586 0-14.727-1.621-23.02-3.909-8.36-2.305-17.146-5.366-25.116-8.404a469.733 469.733 0 0 1-23.365-9.669Z" fill="#fff"/><path d="M79.342 69.491c41.382 0 74.93-14.675 74.93-32.777S120.724 3.938 79.342 3.938c-41.383 0-74.93 14.674-74.93 32.776 0 18.102 33.547 32.777 74.93 32.777Z" fill="#1C3C70"/><path fill-rule="evenodd" clip-rule="evenodd" d="M13.133 26.697c-3.305 3.417-4.781 6.798-4.781 10.02 0 3.221 1.476 6.601 4.78 10.02 3.324 3.436 8.323 6.711 14.805 9.547 12.954 5.666 31.125 9.27 51.405 9.27s38.45-3.604 51.404-9.27c6.483-2.836 11.482-6.111 14.805-9.548 3.305-3.418 4.781-6.798 4.781-10.02 0-3.221-1.476-6.602-4.781-10.02-3.323-3.436-8.322-6.711-14.805-9.547-12.954-5.667-31.125-9.27-51.404-9.27-20.28 0-38.45 3.604-51.405 9.27-6.482 2.836-11.481 6.11-14.804 9.548ZM24.78 9.93C38.945 3.734 58.239 0 79.342 0c21.103 0 40.397 3.734 54.562 9.93 7.077 3.096 13.051 6.884 17.311 11.29 4.279 4.425 6.996 9.667 6.996 15.496 0 5.83-2.717 11.072-6.996 15.497-4.26 4.406-10.234 8.194-17.311 11.29-14.165 6.196-33.459 9.93-54.562 9.93-21.103 0-40.397-3.734-54.562-9.93-7.077-3.096-13.051-6.884-17.312-11.29C3.19 47.788.473 42.546.473 36.716c0-5.829 2.717-11.071 6.995-15.496 4.26-4.406 10.235-8.194 17.312-11.29Z" fill="#fff"/><path d="m-1 306.654 58.605.347L171 138.695h-36.5l-22 9.806-10.5 4.961L-1 306.654Z" fill="#1C3C70"/><path d="m91.78 184.37 13.315.079 25.764-38.213-13.315-.158-25.765 38.292Z" fill="#FE8836"/><path d="m118.41 184.605 13.316.157 25.843-38.371-13.316-.079-25.843 38.293Z" fill="#FE8836"/><path d="m145.041 184.843 13.316.158L184.2 146.63l-13.316-.079-25.843 38.292Z" fill="#FE8836"/></g><defs><clipPath id="a"><path fill="#fff" d="M0 0h190.2v185H0z"/></clipPath></defs></svg>