<svg width="185" height="185" fill="none" xmlns="http://www.w3.org/2000/svg"><g clip-path="url(#a)"><path d="M122.972 160.156H86.639a11.493 11.493 0 0 0-3.416-6.987L61.874 131.82H37.42l4.426-6.831-6.444-4.27L.233 174.053l6.444 4.27 4.969-7.764h29.888l13.974 14.052h67.386a12.422 12.422 0 0 0 0-24.843l.078.388Zm0 17.157H58.769l-14.052-14.051H16.692l15.526-23.834h26.318l19.33 19.409a4.04 4.04 0 0 1 1.32 3.027 4.27 4.27 0 0 1-7.297 3.028l-12.654-12.654-5.357 5.434 12.576 12.577a11.965 11.965 0 0 0 8.462 3.493 12.03 12.03 0 0 0 10.17-5.667h37.963a4.737 4.737 0 0 1 0 9.471l-.077-.233Z" fill="#fff"/><path d="M61.64 24.766h36.333a11.488 11.488 0 0 0 3.416 6.987l21.271 21.35h24.455l-4.503 6.753 6.521 4.27 35.168-53.334-6.521-4.27-4.891 7.764H143L129.725.234H62.339a12.421 12.421 0 1 0 0 24.765l-.698-.233Zm0-17.157h64.203l13.974 14.052h28.724l-15.526 23.756h-26.318l-19.408-19.409a4.194 4.194 0 0 1 .63-6.556 4.194 4.194 0 0 1 2.397-.664 3.958 3.958 0 0 1 3.028 1.243l12.577 12.576 5.434-5.357-13.12-12.654a11.956 11.956 0 0 0-18.632 2.252H61.641a4.813 4.813 0 0 1 0-9.55v.311Z" fill="#fff"/><path d="M116.605 89.046a12.421 12.421 0 0 0-3.494-1.475l-2.639-.699 1.319-2.406a25.382 25.382 0 0 0 3.339-11.878 18.638 18.638 0 0 0-9.704-16.07 18.326 18.326 0 0 0-8.54-2.174 17.933 17.933 0 0 0-10.48 3.338 18.4 18.4 0 0 0-7.764 17.002 26.395 26.395 0 0 0 3.183 9.782l1.32 2.329-2.64.776a22.344 22.344 0 0 0-3.493 1.475 18.631 18.631 0 0 0-9.394 16.148v15.526h58.38v-15.526a18.56 18.56 0 0 0-9.393-16.148ZM95.488 63.194a6.442 6.442 0 0 1 1.708 0 8.693 8.693 0 0 1 5.512 2.174 9.709 9.709 0 0 1 3.727 7.763 16.783 16.783 0 0 1-5.59 12.11 6.365 6.365 0 0 1-4.27 1.786 7.763 7.763 0 0 1-4.502-2.561 16.847 16.847 0 0 1-4.736-12.5 9.86 9.86 0 0 1 8.151-8.772Zm-18.864 42a10.092 10.092 0 0 1 5.046-8.54 11.645 11.645 0 0 1 5.9-1.32h18.865a12.187 12.187 0 0 1 5.822 1.242 9.786 9.786 0 0 1 4.969 8.618v6.831h-40.99l.388-6.831Z" fill="#FE8836"/></g><defs><clipPath id="a"><path fill="#fff" d="M0 0h184.612v185H0z"/></clipPath></defs></svg>