<svg width="210" height="185" fill="none" xmlns="http://www.w3.org/2000/svg"><g clip-path="url(#a)"><path d="M166.456 28.828H99.751v7.734h66.705v-7.734Z" fill="#fff"/><path d="M148.616 52.117H99.751v7.822h48.865v-7.822Z" fill="#fff"/><path d="M131.39 74.79H99.751v7.733h31.639v-7.734Z" fill="#fff"/><path fill-rule="evenodd" clip-rule="evenodd" d="m51.664 53.164 48.737 1.054a13.174 13.174 0 0 1 9.826 2.47 13.187 13.187 0 0 1 5.229 9.182 13.802 13.802 0 0 1-11.352 15.185l-.247.042-41.469 2.388-.505-8.775 40.929-2.356a5.01 5.01 0 0 0 3.912-5.484l-.007-.065a4.39 4.39 0 0 0-1.744-3.071 4.393 4.393 0 0 0-3.441-.796l-.451.085-48.833-1.056a11.955 11.955 0 0 0-4.361 1.708c-1.29.907-3.085 2.676-5.39 4.947l-.139.137c-2.154 2.123-4.79 4.712-7.158 6.274l-1.1.725H2.11v-8.789h29.244c1.343-1.064 2.973-2.634 4.836-4.47l.488-.482c1.997-1.972 4.31-4.255 6.258-5.604l.053-.037.054-.035a20.744 20.744 0 0 1 8.253-3.122l.368-.055Z" fill="#fff"/><path fill-rule="evenodd" clip-rule="evenodd" d="M27.818 127.96H.615v-8.788H29.62l.814.34a32.34 32.34 0 0 1 8.207 4.974 3.25 3.25 0 0 0 1.807.574h26.346v8.789h-26.4a12.035 12.035 0 0 1-7.058-2.353l-.112-.083-.106-.089a23.596 23.596 0 0 0-5.3-3.364Z" fill="#fff"/><path fill-rule="evenodd" clip-rule="evenodd" d="M63.095 83.285c.39.002.835.011 1.37.023l.525.011c1.093.023 2.399.041 3.878-.007l-.283-8.784c-1.245.04-2.367.026-3.414.004l-.46-.01c-.857-.018-1.752-.038-2.534-.016-1.41.04-4.993.167-6.792 3.439h-.002l-.047.09c-.691 1.33-.883 2.715-.962 3.689-.065.803-.074 1.698-.08 2.432a97.95 97.95 0 0 1-.005.448c-.025 1.843-.14 3.097-.592 4.125-.571 1.299-2.757 4.517-15.554 4.517v8.788c13.568 0 20.786-3.373 23.598-9.765 1.24-2.816 1.311-5.683 1.336-7.548l.007-.63c.003-.303.006-.567.011-.806Z" fill="#fff"/><path fill-rule="evenodd" clip-rule="evenodd" d="M0 128.137V66.969h8.789v61.168H0Z" fill="#fff"/><path d="M131.213 92.457a16.874 16.874 0 0 0-9.491 2.988 16.7 16.7 0 0 0-6.943 15.468 22.84 22.84 0 0 0 3.955 10.634v.528h-.616a16.79 16.79 0 0 0-13.71 16.522v14.062h24.52a32.98 32.98 0 0 1-3.427-7.822h-13.095v-6.152a8.789 8.789 0 0 1 4.57-7.822 10.193 10.193 0 0 1 5.185-1.142h24.344a14.242 14.242 0 0 0 5.362-5.01 10.29 10.29 0 0 0-4.57-2.021 19.716 19.716 0 0 0-3.076-.439h-1.055v-.528a23.646 23.646 0 0 0 4.043-12.48 16.703 16.703 0 0 0-8.789-14.589 16.434 16.434 0 0 0-7.822-2.021l.615-.176Zm-.439 29.178a7.294 7.294 0 0 1-3.867-2.285 15.287 15.287 0 0 1-4.306-11.425 8.786 8.786 0 0 1 7.382-7.47h1.406a7.906 7.906 0 0 1 5.185 1.933 9.314 9.314 0 0 1 3.34 6.768 15.737 15.737 0 0 1-5.097 10.985 5.62 5.62 0 0 1-3.867 1.582l-.176-.088Z" fill="#fff"/><path d="M163.82 138.245a34.539 34.539 0 0 0 15.995 10.898 63.711 63.711 0 0 1-16.874 20.478 73.66 73.66 0 0 1-16.435-20.214 35.593 35.593 0 0 0 17.577-10.898l-.263-.264Zm.263-14.413a35.153 35.153 0 0 1-30.057 19.423 86.836 86.836 0 0 0 29.091 37.791 73.83 73.83 0 0 0 29.002-37.791c-16.171-2.637-19.599-7.295-28.036-19.423Z" fill="#FE8836"/><path d="M75.142 90.96h-8.788V185h87.885l-.527-.879-8.788-7.558h-70.31V90.961h.528Z" fill="#fff"/><path d="M209.696 0H66.793v45.086l8.35.087.087-.527V8.437h126.116v168.126h-20.125l-4.043 3.252-7.471 5.185h39.989V0Z" fill="#fff"/><path d="m154.064 184.562.528.879h.615l-1.143-.879Z" fill="#FE8836"/></g><defs><clipPath id="a"><path fill="#fff" d="M0 0h209.696v185H0z"/></clipPath></defs></svg>