<svg width="216" height="28" fill="none" xmlns="http://www.w3.org/2000/svg"><path d="M11.652 27.26H0V1.245h10.312c1.578-.03 3.153.184 4.663.638a6.642 6.642 0 0 1 2.957 1.712 6.628 6.628 0 0 1 1.786 4.535 5.298 5.298 0 0 1-2.017 4.547 7.046 7.046 0 0 1-.962.65c-.174.088-.491.224-.94.423a7.056 7.056 0 0 1 3.93 2.174 5.942 5.942 0 0 1 1.465 4.122 6.887 6.887 0 0 1-1.903 4.793c-1.397 1.616-3.946 2.42-7.639 2.42ZM5.924 11.784h2.832c1.25.062 2.5-.119 3.678-.528A2.224 2.224 0 0 0 13.64 8.96a2.293 2.293 0 0 0-1.148-2.24 8.946 8.946 0 0 0-3.723-.561H5.947l-.023 5.624Zm0 10.572h4.09a9.401 9.401 0 0 0 3.829-.617 2.428 2.428 0 0 0 1.272-2.42c.124-1-.427-1.963-1.363-2.384a11.892 11.892 0 0 0-4.32-.572h-3.44l-.068 5.993Z" fill="#fff"/><path d="m44.486 27.258-2.476-5.602H30.86l-2.489 5.602h-6.313l11.46-26.015h5.731l11.46 26.015h-6.223Zm-8.035-18.3-3.345 7.55h6.657l-3.312-7.55Z" fill="#fff"/><path d="M64.073 22.128c2.797.063 5.46-1.184 7.162-3.358l3.806 3.841c-5.12 5.927-14.186 6.68-20.25 1.676a17.467 17.467 0 0 1-.562-.487c-2.643-2.51-4.086-5.99-3.976-9.587-.117-3.66 1.355-7.196 4.055-9.734 2.64-2.543 6.223-3.923 9.923-3.83 4.222-.067 8.25 1.726 10.965 4.881l-3.7 4.089c-1.639-2.17-4.24-3.443-7-3.428a8.29 8.29 0 0 0-5.732 2.14 7.384 7.384 0 0 0-2.383 5.779 7.737 7.737 0 0 0 2.292 5.823 7.537 7.537 0 0 0 5.4 2.195Z" fill="#fff"/><path d="M78.914 1.243h5.89v10.682L94.856 1.243h7.359L91.68 12.745c.918 1.24 2.605 3.553 5.067 6.944 2.462 3.358 4.297 5.912 5.524 7.572h-6.876l-7.804-10.27-2.787 2.901v7.37h-5.89V1.241Z" fill="#fff"/><path d="M105.535 27.257V1.242h5.947v20.841h11.347v5.174h-17.294Z" fill="#fff"/><path d="M126.632 1.243h5.936v26.015h-5.936V1.243Z" fill="#fff"/><path d="M155.421 1.243h5.935v26.015h-5.935l-12.687-16.296v16.296h-5.936V1.243h5.558l13.065 16.8v-16.8Z" fill="#fff"/><path d="M165.461 1.243h5.935v10.682l10.052-10.682h7.355l-10.591 11.502c.917 1.24 2.605 3.553 5.067 6.944 2.462 3.392 4.301 5.916 5.524 7.572h-6.932l-7.805-10.27-2.67 2.901v7.37h-5.935V1.241Z" fill="#fff"/><path d="M210.944 13.495h4.055a13.797 13.797 0 0 0-3.828-9.015l-2.866 2.812a9.863 9.863 0 0 1 2.639 6.203Z" fill="#fff"/><path d="M201.191 24.032v3.964a14.431 14.431 0 0 0 9.248-3.742l-2.866-2.8a10.342 10.342 0 0 1-6.382 2.578Z" fill="#fff"/><path d="M200.161 3.963V0a14.465 14.465 0 0 0-9.247 3.742l2.877 2.8a10.414 10.414 0 0 1 6.37-2.579Z" fill="#fff"/><path d="m193.787 21.457-2.877 2.8A14.483 14.483 0 0 0 200.157 28v-3.966a10.377 10.377 0 0 1-6.37-2.576Z" fill="#fff"/><path d="m193.052 7.27-2.821-2.79a13.806 13.806 0 0 0-3.829 9.037h4.056a9.896 9.896 0 0 1 2.594-6.247Z" fill="#fff"/><path d="M190.407 14.559h-4.055a13.807 13.807 0 0 0 3.885 8.959l2.877-2.8a9.96 9.96 0 0 1-2.707-6.16Z" fill="#fff"/><path d="M210.944 14.559a9.894 9.894 0 0 1-2.635 6.236l2.866 2.8a13.81 13.81 0 0 0 3.828-9.036h-4.059Z" fill="#fff"/><path d="m207.573 6.539 2.866-2.801A14.447 14.447 0 0 0 201.191 0v3.963a10.443 10.443 0 0 1 6.382 2.576Z" fill="#fff"/></svg>