<svg width="110" height="88" fill="none" xmlns="http://www.w3.org/2000/svg"><path d="M56.76 87.399V68.417H48l17.853-26.415v18.981h8.724L56.76 87.4Zm-1.913-22.59h5.595v10.61l7.288-10.827h-5.558v-10.61L54.847 64.81Z" fill="#005EAB"/><path d="M8.95 30.295v-.15H.217v3.299H8.95v-3.15Zm53.286 0v-.15h-8.733v3.299h8.733v-3.15ZM52.081 8.853l-.106-.106-.106.106-5.963 5.956-.106.106.106.106 2.123 2.12.106.107.106-.106 5.963-5.957.106-.106-.106-.106-2.123-2.12ZM29.719.85h-.15v8.724H32.87V.85H29.72ZM8.224 11.03l-.106.105.106.106 5.963 5.957.106.105.106-.105 2.123-2.121.106-.106-.106-.106-5.963-5.957-.106-.105-.106.105-2.123 2.121Zm33.312 30.507-.002.001-.164.18-.01.012-.008.014-.113.192c-2.679 3.96-3.775 8.06-4.217 10.779H25.645a26.903 26.903 0 0 0-3.874-10.157l-.18-.28-.01-.015-.014-.013-.245-.227c-2.71-2.693-4.22-6.26-4.22-10.053 0-7.8 6.332-14.124 14.108-14.124 7.777 0 14.108 6.324 14.108 14.091 0 3.584-1.347 6.989-3.782 9.6Zm-1.034 10.5c.495-2.292 1.484-5.313 3.46-8.24a17.342 17.342 0 0 0 4.659-11.843c.016-9.605-7.795-17.407-17.41-17.407-9.649 0-17.427 7.802-17.427 17.407 0 4.854 1.98 9.23 5.184 12.402a23.567 23.567 0 0 1 3.221 7.963c.22 1.076.32 1.967.367 2.589a13.967 13.967 0 0 1 .038.954V55.876l-.003.154H40.007v-.166a4 4 0 0 1 .003-.121 13.783 13.783 0 0 1 .059-.922c.061-.675.185-1.638.433-2.785Zm-1.479 6.46v-.15H23.847v3.336H39.024v-3.185Zm0 5.31v-.15H23.847v3.227H39.024v-3.077Z" fill="#1C3C70" stroke="#1C3C70" stroke-width=".3"/></svg>