<svg width="110" height="81" fill="none" xmlns="http://www.w3.org/2000/svg"><path d="M38.127 40.812v-4.915a4.831 4.831 0 0 0-1.073-3.039 4.91 4.91 0 0 0-2.754-1.707 9.791 9.791 0 0 0-3.614-4.459A9.93 9.93 0 0 0 25.172 25h-.624a13.67 13.67 0 0 0-9.602 3.958 13.418 13.418 0 0 0-3.976 9.523v2.33a4.866 4.866 0 0 0-.879 3.849c.147.707.46 1.37.912 1.937a4.643 4.643 0 0 0 1.696 1.32 13.273 13.273 0 0 0 2.835 5.28l3.373 3.37A4.886 4.886 0 0 0 22.365 58h4.224a4.886 4.886 0 0 0 3.459-1.431l3.401-3.483a17.912 17.912 0 0 0 3.147-5.336 4.269 4.269 0 0 0 1.664-1.44c.417-.616.665-1.33.717-2.07a5.353 5.353 0 0 0-.85-3.427Zm-4.536 5.28a7.048 7.048 0 0 1-.54 2.769 7.1 7.1 0 0 1-1.586 2.342l-3.402 3.37c-.4.371-.925.582-1.474.59h-4.082a2.222 2.222 0 0 1-1.474-.59l-3.373-3.37a7.075 7.075 0 0 1-1.587-2.341 7.021 7.021 0 0 1-.539-2.77V42.44h2.835a16.285 16.285 0 0 0 10.261-3.398 7.558 7.558 0 0 0 2.151 2.218c.863.584 1.84.986 2.867 1.18l-.057 3.65Zm1.73-6.432h-.341a4.796 4.796 0 0 1-2.327-.612 4.742 4.742 0 0 1-1.727-1.663l-1.389-2.302-.368-.59-.539.477-.793.787a13.245 13.245 0 0 1-4.324 2.891c-1.62.67-3.36 1.015-5.116 1.012h-4.62v-1.18c0-2.83 1.135-5.544 3.155-7.546a10.823 10.823 0 0 1 7.616-3.126h.624a7.045 7.045 0 0 1 4.2 1.39 6.937 6.937 0 0 1 2.518 3.61l.17.646v.365h1.078c.55.007 1.077.23 1.464.618.388.39.605.914.605 1.46l.113 3.763Z" fill="#fff"/><path d="m48.914 80.395-1.938-11.129a9.63 9.63 0 0 0-2.294-4.761 10.174 10.174 0 0 0-4.519-2.933L33.01 59.32v-1.21h-2.85a5.648 5.648 0 0 0 .142 2.392c.116.209.26.403.427.577a10.206 10.206 0 0 1-6.356 2.5 8.55 8.55 0 0 1-3.337-.756A8.274 8.274 0 0 1 18.3 60.83c.12-.135.226-.282.314-.44a5.305 5.305 0 0 0 .17-2.39h-2.85v1.319L8.78 61.627A10.176 10.176 0 0 0 4.26 64.56a9.63 9.63 0 0 0-2.294 4.762L0 80.396V81h49l-.086-.605ZM3.335 78.28l1.482-8.574a7.038 7.038 0 0 1 1.675-3.392A7.43 7.43 0 0 1 9.72 64.21l5.986-1.923a11.807 11.807 0 0 0 3.837 2.883 12.212 12.212 0 0 0 4.715 1.156c1.71-.052 3.39-.431 4.947-1.115a12.908 12.908 0 0 0 4.117-2.87l5.701 1.87a7.43 7.43 0 0 1 3.228 2.103 7.038 7.038 0 0 1 1.675 3.392l1.682 8.574H3.335Z" fill="#fff"/><path d="M84 28.617H55.814L48.09 39V28.617H38V0h46v28.617Zm-2.819-2.814V2.813h-40.39V25.86h9.64v6.134l4.424-6.134 26.326-.056Z" fill="#FE8836"/><path d="M47 6h28v2.5H47V6Z" fill="#FE8836"/><path d="M47 12.5h28V15H47v-2.5Z" fill="#FE8836"/><path d="M47 19h28v2.5H47V19Z" fill="#FE8836"/></svg>