<svg width="110" height="74" fill="none" xmlns="http://www.w3.org/2000/svg"><path d="M74.634 48.617h4.368l-5.176-31.445h-2.33V7.494H69.2V0H55.386v7.495h-2.297v9.677h-2.33l-.452 2.574H33.355l-.453-2.574h-2.33V7.494h-2.264V0H14.462v7.495h-2.296v9.677h-2.33L8.801 23.56h3.267l.518-3.128h17.599l4.238 24.927H8.478l.582-3.52h-3.3l-1.1 6.779h4.4L5.404 63.05h-.55V74h33.16V63.051h-.518L33.71 48.617h4.561l-.647-3.78h8.411l-.647 3.78h4.594L46.166 63.05h-.518V74H78.84V63.051h-.582l-3.624-14.434ZM17.697 3.258h7.376v4.237h-7.376V3.258Zm9.64 13.914H15.4v-6.419h11.938v6.42Zm7.442 53.57H8.088V66.31h26.69v4.431Zm-.648-7.69H8.737l3.688-14.435H30.38l3.753 14.434Zm24.49-59.794h7.343v4.237h-7.343V3.258Zm-2.297 7.495h11.937v6.42H56.324v-6.42ZM37.075 41.578l-3.17-18.573h15.852l-3.17 18.573h-9.512Zm12.164 3.78 4.238-24.927h17.599l4.108 24.927H49.24Zm4.076 3.259H71.27l3.656 14.434H49.498l3.817-14.434Zm22.29 22.125H48.883V66.31h26.722v4.431Z" fill="#1C3C70"/><path d="M0 38.326h3.882l7.376-11.306H7.376L0 38.325Z" fill="#005EAB"/><path d="M7.762 38.324h3.85l7.408-11.34h-3.882l-7.376 11.34Z" fill="#005EAB"/><path d="M15.492 38.291h3.882l7.409-11.307H22.9l-7.408 11.307Z" fill="#005EAB"/></svg>