<svg width="110" height="79" fill="none" xmlns="http://www.w3.org/2000/svg"><path d="M1.832 49.947v3.63h76.327v-3.63H1.832Z" fill="#fff"/><path d="M21.195 78.995H58.76l-9.419-14.34H30.613l-9.418 14.34Zm11.31-10.819h14.872l4.945 7.298H27.668l4.836-7.298Z" fill="#fff"/><path d="m72.036 6.566-2.436 3.63h6.764v54.459H3.636V10.197h4.328l2.363-3.63H0v61.718h80V6.566h-7.964Z" fill="#fff"/><path d="M20.766 29.84v3.267H43.64l2.182-3.267H20.766Z" fill="#FE8836"/><path d="M20.766 36.45v3.267h18.472l2.146-3.268H20.766Z" fill="#FE8836"/><path d="M20.766 7.047v17.499H46.51v-17.5H20.766Zm22.836 14.595H23.675V9.988h19.927v11.654Z" fill="#FE8836"/><path d="m66.545 9.982-4.982-7.443-4.945 7.443v29.733h9.927V9.982Zm-3.273 26.466h-3.345V16.517h3.345v19.931ZM59.927 13.25v-2.07l.036-.036 1.673-2.541 1.673 2.578v2.07h-3.382Z" fill="#FE8836"/><path d="M13.923 43.097v3.268h49.71l2.254-3.268H13.923Z" fill="#FE8836"/><path d="M13.453 0v46.362h39.782V0H13.453Zm36.51 43.094H16.725V3.267h33.236v39.827Z" fill="#FE8836"/></svg>