<svg width="110" height="84" fill="none" xmlns="http://www.w3.org/2000/svg"><path d="M30.114 67.98 20.102 83.002h4.45L34.6 67.98h-4.486Z" fill="#1C3C70"/><path d="M10.083 67.98.071 83.002h4.45L14.569 67.98h-4.486Z" fill="#1C3C70"/><path d="M70.162 67.98 60.113 83.002h4.486L74.612 67.98h-4.45Z" fill="#1C3C70"/><path d="M50.142 67.98 40.094 83.005h4.486L54.629 67.98h-4.486Z" fill="#1C3C70"/><path d="M54.192 42.578c-.072-.39-.215-.78-.359-1.242l-8.182-22.73h-8.614l-8.182 22.73c-.18.461-.287.852-.395 1.278-.251 1.137-.251 2.309-.072 3.48l4.02 15.734H50.28l3.912-15.343a8.967 8.967 0 0 0 0-3.907Zm-3.481 3.126-3.194 12.572H35.17l-3.23-12.714a6.465 6.465 0 0 1 .036-2.202c.036-.249.144-.497.251-.782l7.322-20.386h3.553l7.357 20.386c.108.285.18.533.251.782a6.43 6.43 0 0 1 0 2.344Z" fill="#1C3C70"/><path d="M0 58.281h81l-2.369 3.658H0v-3.658Z" fill="#1C3C70"/><path d="M57.171 24.759h3.553l7.357 20.386c.108.284.18.533.252.781.18.782.143 1.634 0 2.38l-2.549 9.98h3.697l2.369-9.234a10.22 10.22 0 0 0 0-3.907c-.072-.39-.216-.781-.36-1.243l-8.182-22.73h-8.613l-2.476 6.89 1.902 5.292 3.05-8.595Z" fill="#1C3C70"/><path d="M24.225 24.759h-3.553l-7.357 20.386c-.107.284-.18.533-.25.781-.18.782-.144 1.634 0 2.38l2.547 9.98h-3.66l-2.37-9.234a10.22 10.22 0 0 1 0-3.907c.073-.39.216-.781.36-1.243l8.182-22.73h8.614l2.476 6.89-1.866 5.327-3.123-8.63Z" fill="#1C3C70"/><path d="M45.834 14.774h-9.009s-2.332-7.28-2.225-8.63c.288-3.268 2.943-5.896 6.245-6.109 1.902-.142 3.697.497 5.096 1.776 1.364 1.278 2.153 3.019 2.153 4.901 0 1.101-2.26 8.062-2.26 8.062Zm-6.676-3.551h4.343c.287-1.03 1.04-4.014 1.04-4.546 0-.888-.358-1.705-1.004-2.273-.682-.604-1.544-.924-2.44-.853-1.544.107-2.8 1.35-2.908 2.841-.036.64.682 3.765.97 4.83Z" fill="#005EAB"/><path d="M63.373 17.477h-9.008s-2.332-7.28-2.225-8.63c.287-3.268 2.943-5.896 6.245-6.109 1.902-.142 3.696.497 5.096 1.776 1.364 1.279 2.153 3.019 2.153 4.901 0 1.137-2.26 8.062-2.26 8.062Zm-6.675-3.551h4.307c.287-1.03 1.04-4.014 1.04-4.546 0-.888-.358-1.705-1.004-2.273-.646-.604-1.508-.888-2.405-.817-1.543.106-2.8 1.35-2.907 2.841-.072.64.646 3.73.97 4.795Z" fill="#005EAB"/><path d="M26.99 17.477h-9.007s-2.333-7.28-2.226-8.63c.288-3.268 2.943-5.896 6.245-6.109 1.902-.142 3.697.497 5.096 1.776 1.364 1.279 2.154 3.019 2.154 4.901 0 1.137-2.261 8.062-2.261 8.062Zm-6.71-3.551h4.342c.287-1.03 1.04-3.978 1.04-4.51 0-.889-.358-1.706-1.004-2.274-.682-.64-1.508-.923-2.405-.852-1.543.106-2.799 1.314-2.907 2.841-.071.64.646 3.73.933 4.795Z" fill="#005EAB"/></svg>