<svg width="110" height="92" fill="none" xmlns="http://www.w3.org/2000/svg"><path d="m30.25 74.37.105-.135H78.482V27.659H.349v46.576H17.642V90.71l12.608-16.34Zm44.102-4.434v.35h-.35l-44.941.093-7.48 9.994-.63.842V70.379H4.431V31.607H74.35v38.329Z" fill="#1C3C70" stroke="#1C3C70" stroke-width=".7"/><path fill="#1C3C70" d="M66 26.242h14v6.07H66z"/><path d="m62.512 40.656-2.843 3.952H9.708v-3.952h52.804ZM9.25 49.56h46.855l-2.843 3.951H9.25V49.56Zm.458 8.903h40.488l-2.437 3.95H9.708v-3.95Z" fill="#1C3C70" stroke="#1C3C70" stroke-width=".5"/><path d="M80.362 3V1.5h-6.24v9.543h6.24V3Zm-12.02 44.733v1.5h17.8V42.04c4.429-2.645 7.424-7.122 8.077-12.132v.62H103.97v-6.141H94.219v1.367c-1.062-8.22-8.307-14.539-16.976-14.539-8.712 0-15.986 6.381-16.992 14.661v-1.49H50.5v6.141H60.251v-.729c.62 5.082 3.622 9.595 8.092 12.213v5.722Zm14.936-11.176 1.006-1.472.261-.383V29.527h-5.96v3.388l-1.051 1.538h-.346l-.909-1.592v-3.334H70.32v4.755l.208.352 1.35 2.292c-3.384-1.816-5.505-5.297-5.505-9.085 0-5.737 4.833-10.486 10.869-10.486S88.11 22.105 88.11 27.84c0 3.484-1.836 6.76-4.833 8.716ZM57.235 10.226l-1.105 1.083 1.117 1.07 4.808 4.607 1.05 1.006 1.037-1.018 2.279-2.233 1.105-1.083-1.117-1.071L61.6 7.98l-1.05-1.006-1.037 1.017-2.279 2.234ZM94.97 7.992l-1.038-1.017-1.05 1.005-4.806 4.606-1.118 1.071 1.105 1.084 2.279 2.233 1.038 1.017 1.05-1.005 4.807-4.606 1.118-1.071-1.106-1.084-2.279-2.233Z" fill="#005EAB" stroke="#1C3C70" stroke-width="3"/></svg>