<svg width="110" height="91" fill="none" xmlns="http://www.w3.org/2000/svg"><path d="M30.048 14.625c-3.664 0-6.622 2.986-6.622 6.686a6.635 6.635 0 0 0 4.47 6.278 6.366 6.366 0 0 0 2.152.373c.672 0 1.344-.102 1.95-.305 2.688-.849 4.671-3.36 4.671-6.346 0-3.7-2.991-6.686-6.621-6.686Zm1.277 9.672c-.403.17-.84.271-1.277.271a3.088 3.088 0 0 1-1.48-.373c-1.075-.509-1.78-1.629-1.78-2.884 0-1.833 1.445-3.292 3.26-3.292 1.781 0 3.26 1.459 3.26 3.292 0 1.357-.84 2.51-1.983 2.986Z" fill="#005EAB"/><path d="M46.555 20.735c0 3.054-1.176 6.108-3.294 8.484l-1.983-2.715c1.244-1.73 1.916-3.733 1.916-5.803 0-2.647-1.11-5.226-3.092-7.127l1.916-2.613c2.857 2.58 4.537 6.075 4.537 9.774Z" fill="#1C3C70"/><path d="M60.232 20.837c0 5.532-1.848 10.962-5.176 15.543-.874 1.188-1.849 2.342-2.958 3.394-.202.237-.437.44-.672.678l-.505-.678-1.411-1.969c.47-.475.907-.95 1.344-1.425 3.832-4.344 6.017-9.876 6.017-15.543 0-6.923-3.193-13.575-8.773-18.224L49.98 0c6.488 5.294 10.252 12.896 10.252 20.837Z" fill="#1C3C70"/><path d="M13.644 20.731c0 3.055 1.176 6.109 3.294 8.484L18.92 26.5c-1.244-1.73-1.916-3.733-1.916-5.803 0-2.647 1.11-5.226 3.093-7.126l-1.916-2.58c-2.857 2.546-4.538 6.041-4.538 9.74Z" fill="#1C3C70"/><path d="M0 20.837C0 28.1 3.193 35.26 8.807 40.453l1.916-2.648C6.017 33.258 3.36 27.15 3.36 20.837c0-6.923 3.194-13.575 8.74-18.224L10.218 0C3.766 5.294 0 12.896 0 20.837Z" fill="#1C3C70"/><path d="M32.674 31.292a9.599 9.599 0 0 1-2.622.373c-.974 0-1.95-.136-2.823-.407l-4.504 22.364v.034l-.975 4.683-5.48 27.15v.033l-.907 4.48h3.429l.638-3.156.034-.034 8.168-12.455V68.25l-6.386 9.706 3.126-15.611 3.26 4.955v-6.143l-2.286-3.495v-.034l4.605-22.806 2.521 12.557h3.43l-3.228-16.086Z" fill="#1C3C70"/><path d="M75.833 63.496H57.984v3.394h17.85v-3.394Z" fill="#005EAB"/><path d="M75.967 70.313H55.16v3.393h20.807v-3.394Z" fill="#005EAB"/><path d="M75.967 56.605H55.16V60h20.807v-3.394Z" fill="#005EAB"/><path d="M38.457 56.645V73.85h13.176V56.645H38.457Zm9.815 13.812h-6.454V60.038h6.454v10.419Z" fill="#005EAB"/><path d="M83.93 57.727V50.77H30.988v30.644h8.034v8.213h52.975v-31.9H83.93ZM34.92 77.41V54.163h45.042V77.41H34.921Zm53.176 8.246H42.988v-4.242H83.93V61.12h4.167v24.536Z" fill="#1C3C70"/></svg>