<svg width="101" height="84" fill="none" xmlns="http://www.w3.org/2000/svg"><path d="M41.653 74.144H23.425v3.707h18.228v-3.707Z" fill="#1C3C70"/><path d="M76.576 74.144H58.391v3.708h18.185v-3.708Z" fill="#1C3C70"/><path d="M54.886 51.652H51.14V70.89h3.745V51.652Z" fill="#1C3C70"/><path d="M90.099 70.978V8.368H72.37v3.665h13.983v58.945h3.745Z" fill="#1C3C70"/><path d="M34.13 8.367H16.402v62.61h3.746V12.034H34.13V8.367Z" fill="#1C3C70"/><path d="m79.237 68.95-9.405 14.087h20.683l9.488-14.088H79.237Zm9.28 10.38h-11.86l4.453-6.674h11.943l-4.536 6.673Z" fill="#1C3C70"/><path d="m44.323 68.95-9.405 14.087H55.6l9.489-14.088H44.323Zm9.322 10.38h-11.86l4.452-6.674h11.944l-4.536 6.673Z" fill="#1C3C70"/><path d="M9.405 68.955 0 83.001h20.683l9.53-14.087H9.404v.041Zm9.322 10.38H6.867l4.452-6.672h11.944l-4.536 6.672Z" fill="#1C3C70"/><path d="M53.01 14.914c-6.782 0-12.276 5.437-12.276 12.151 0 6.715 5.493 12.152 12.277 12.152 6.783 0 12.276-5.437 12.276-12.152 0-6.714-5.535-12.15-12.276-12.15Zm8.948 12.234c0 4.902-3.995 8.856-8.947 8.856-4.953 0-8.948-3.954-8.948-8.856 0-4.902 3.995-8.856 8.948-8.856 4.952 0 8.947 3.995 8.947 8.856Z" fill="#005EAB"/><path d="M80.187 32.54V21.668h-4.66a22.271 22.271 0 0 0-2.706-6.509l3.371-3.336-7.823-7.744-3.288 3.254c-2.164-1.236-4.37-2.142-6.575-2.677V0H47.561v4.613c-2.288.536-4.494 1.442-6.575 2.678L37.7 4.078l-7.782 7.744 3.287 3.254c-1.248 2.142-2.164 4.325-2.705 6.508h-4.702v10.833h4.66c.542 2.266 1.457 4.449 2.706 6.509l-3.288 3.254 7.824 7.744 3.287-3.255c2.164 1.236 4.37 2.142 6.575 2.678v4.613h10.862v-4.49a22.758 22.758 0 0 0 6.575-2.677l3.287 3.254 7.824-7.744-3.288-3.254c1.249-2.142 2.164-4.325 2.705-6.508h4.661Zm-7.449-3.17-.166 1.317c-.624 3.007-1.707 5.602-3.205 7.703l-.832 1.153 2.913 2.884-3.038 3.007-2.913-2.884-1.165.824c-2.164 1.524-4.786 2.595-7.74 3.172l-1.374.165v3.995h-4.203v-3.995l-1.331-.165c-3.038-.618-5.66-1.689-7.782-3.172l-1.166-.824-2.912 2.884-3.038-3.007 2.913-2.884-.833-1.153c-1.498-2.142-2.621-4.737-3.204-7.703l-.166-1.318h-4.037v-4.284h4.037l.166-1.318c.624-3.007 1.706-5.602 3.204-7.703l.833-1.153-2.913-2.883 3.038-3.007 2.913 2.883 1.165-.824c2.164-1.524 4.785-2.595 7.74-3.171l1.373-.165V3.748h4.328v3.996l1.332.165c2.996.576 5.618 1.647 7.782 3.171l1.165.824 2.913-2.883 3.038 3.007-2.913 2.883.832 1.153c1.54 2.101 2.622 4.696 3.205 7.662l.166 1.36h3.912v4.283h-4.037Z" fill="#005EAB"/></svg>