<svg width="110" height="90" fill="none" xmlns="http://www.w3.org/2000/svg"><path d="m57.892 51.574-6.08 9.118h-3.056l-3.834 5.4h7.1l9.615-14.518h-3.745Z" fill="#005EAB"/><path d="M68.049 35.932c.06.03.09.09.15.119 7.338 5.34 12.13 13.926 12.13 23.604 0 2.538-.329 4.987-.928 7.347-.15.443-.27.915-.419 1.387-.15.443-.3.915-.48 1.358-.15.442-.329.885-.508 1.327-.36.826-.78 1.623-1.199 2.39-.21.413-.449.826-.719 1.24-.33.53-.659 1.032-1.018 1.563-.33.473-.66.915-1.049 1.387v.03c-.359.442-.718.885-1.138 1.298v.03c-.33.383-.659.737-1.048 1.091a29.775 29.775 0 0 1-21.298 8.911c-7.938 0-15.517-3.305-21.028-8.793-.33-.324-.659-.678-.988-1.032-.33-.325-.63-.68-.96-1.063a28.273 28.273 0 0 1-3.564-5.34c-.3-.59-.569-1.18-.839-1.8C21.59 67.446 20.5 61 20.5 58H24c-.015 3 .5 9.002 4.448 15.848l3.565-2.508 1.677 2.301-3.504 2.479a25.614 25.614 0 0 0 6.77 5.724l2.066-3.54 2.487 1.416-2.007 3.452a26.251 26.251 0 0 0 9.525 2.33v-3.628h2.966v3.658a27.021 27.021 0 0 0 10.035-2.537l-1.618-3.04 2.546-1.327 1.588 3.01a25.961 25.961 0 0 0 7.459-6.816l-2.756-1.889 1.647-2.33 2.696 1.829a25.143 25.143 0 0 0 3.445-11.33H73.56V58.21h3.505a25.53 25.53 0 0 0-3.355-11.42l-1.318.886-1.498 1.033-1.647-2.331 2.156-1.476.75-.501a21.706 21.706 0 0 0-1.678-2.036 25.61 25.61 0 0 0-5.841-4.869l-1.678 3.157-2.546-1.298 1.708-3.245c-3.086-1.476-6.5-2.36-10.125-2.568v3.895h-2.966v-3.865c-2.396.118-4.733.59-6.92 1.328.63-1.21 1.109-2.508 1.468-3.836a31.982 31.982 0 0 1 5.602-.767v.059c.45-.06.899-.06 1.348-.06.54 0 1.108.03 1.648.03h.15c4.612.295 8.926 1.594 12.7 3.718.3.177.6.325.869.502l.06.03 2.097 1.356Z" fill="#1C3C70"/><path d="M8.044 24.945v-.15H.85v2.752H8.044v-2.602Zm43.558 0v-.15H44.41v2.752H51.602v-2.602ZM43.293 7.4l-.106-.106-.106.106-4.875 4.869-.106.106.106.106 1.736 1.734.106.105.106-.105 4.875-4.87.106-.105-.106-.107L43.293 7.4ZM24.988.85h-.15V8.036h2.755V.85h-2.605ZM7.402 9.155l-.106.106.106.106 4.874 4.869.106.106.106-.106 1.736-1.734.106-.106-.106-.106-4.875-4.869-.106-.106-.106.106-1.735 1.734Zm27.231 24.962-.001.001-.134.147-.011.012-.008.014-.091.156c-2.185 3.23-3.084 6.574-3.448 8.798h-9.253a22.018 22.018 0 0 0-3.167-8.29l-.148-.228-.01-.016-.014-.012-.2-.186c-2.21-2.196-3.44-5.105-3.44-8.198 0-6.36 5.163-11.518 11.505-11.518 6.341 0 11.505 5.157 11.505 11.491 0 2.923-1.099 5.7-3.085 7.829Zm-.798 8.607c.404-1.87 1.211-4.335 2.823-6.723a14.204 14.204 0 0 0 3.814-9.699c.014-7.867-6.384-14.257-14.26-14.257-7.901 0-14.272 6.39-14.272 14.257 0 3.974 1.622 7.557 4.244 10.155a19.24 19.24 0 0 1 2.627 6.498c.18.878.262 1.605.3 2.113a11.525 11.525 0 0 1 .031.739v.05l-.003.154H33.43V45.804l.006-.168c.006-.148.019-.364.044-.64.05-.551.152-1.337.354-2.273ZM32.627 48v-.15h-12.46V50.631h12.46V48Zm0 4.34v-.15h-12.46V54.883h12.46V52.34Z" fill="#005EAB" stroke="#005EAB" stroke-width=".3"/></svg>