<svg width="207" height="83" fill="none" xmlns="http://www.w3.org/2000/svg"><path d="M173.732 40.446c0 9.234-1.478 16.806-4.62 22.716-2.033 4.063-4.991 7.757-8.502 10.712L148.596 52.45c.925-4.063 1.479-8.126 1.294-12.373 0-7.388-1.478-12.928-4.436-16.437-2.957-3.51-7.392-5.356-11.828-5.172-1.294 0-2.588.185-3.881.37l-9.611-17.176A56.213 56.213 0 0 1 133.626 0c12.753 0 22.733 3.509 29.571 10.712 6.839 7.202 10.535 16.99 10.535 29.734zm-36.225 22.9c-1.109.186-2.403.37-3.511.37-4.621.185-8.872-1.662-11.829-5.171-2.957-3.509-4.251-9.234-4.251-17.176 0-3.693.37-7.202 1.109-10.896L106.827 8.68c-.74.739-1.664 1.478-2.403 2.216-7.023 7.203-10.535 17.36-10.535 30.289-.37 8.126 1.479 16.067 5.36 23.085 3.142 5.726 7.947 10.527 13.862 13.482 6.838 3.14 14.046 4.617 21.439 4.248 4.251 0 8.317-.37 12.383-1.478l-9.426-17.175zm45.836-4.986V1.477H207v78.86h-11.274L183.343 58.36zM50.271 41.185 28.093 1.477H0v20.131h17.188L34.562 52.82h15.894l-.185-11.635zM84.28 1.477v78.86H65.057v-43.4l-11.274-20.13L62.47 1.292h21.809v.184zM8.502 37.122H0v43.031h19.406V56.33L8.502 37.122z" fill="#000"/></svg>