<svg width="130" height="40" fill="none" xmlns="http://www.w3.org/2000/svg"><path d="m13.383 15.037-.044-3.396c0-.353.22-.617.482-.662h2.37c.263 0 .483.265.483.618l.043 3.396c0 .352-.219.617-.482.661h-2.37c-.263.044-.482-.264-.482-.617zM8.907 11.684l.044 3.396c0 .352.22.617.483.617h2.37c.262-.044.482-.309.482-.661l-.044-3.396c0-.353-.22-.617-.483-.617H9.39c-.262.044-.482.308-.482.661zM4.52 15.127l-.044-3.396c0-.353.219-.618.482-.662h2.37c.263 0 .482.265.482.618l.044 3.395c0 .353-.22.618-.482.662h-2.37c-.263.044-.483-.265-.483-.617zM.044 20.814 0 17.418c0-.352.22-.617.483-.661h2.369c.263 0 .483.264.483.617l.044 3.396c0 .353-.22.617-.483.661H.526c-.263.044-.482-.264-.482-.617zM.044 26.634 0 23.24c0-.353.22-.618.483-.662h2.369c.263 0 .483.265.483.617l.044 3.396c0 .353-.22.618-.483.662H.526c-.263.044-.482-.265-.482-.618zM8.951 29.059l.044 3.396c0 .352.22.661.483.617h2.37c.262-.044.482-.309.482-.661l-.044-3.396c0-.353-.22-.617-.483-.617h-2.37c-.262.044-.482.308-.482.661zM8.995 20.814l-.044-3.396c0-.352.22-.617.483-.661h2.37c.262 0 .482.264.482.617l.044 3.396c0 .353-.22.617-.483.661h-2.37c-.263.044-.482-.264-.482-.617zM13.339 23.239l.044 3.395c0 .353.22.662.482.618h2.37c.263-.044.482-.309.482-.662l-.043-3.395c0-.353-.22-.618-.483-.618h-2.37c-.263.044-.482.309-.482.662zM17.814 17.418l.044 3.396c0 .353.22.662.483.617h2.37c.263-.044.482-.308.482-.661l-.044-3.396c0-.353-.22-.617-.483-.617h-2.369c-.263.044-.483.308-.483.661z" fill="#02F4AF"/><path d="m18.304 15.644-1.585 1.81v3.359c0 .353-.22.617-.483.617h-2.37c-.263 0-.482-.264-.482-.617v-3.396c0-.353.22-.617.482-.617h2.37c.02 0 .039.002.058.005l1.609-1.837V11.64c0-.353.22-.617.483-.617h2.369c.263 0 .483.308.483.617v3.396c0 .352-.22.617-.483.617h-2.37a.387.387 0 0 1-.081-.009zM4.477 17.418l.043 3.396c0 .353.22.662.483.617h2.37c.263-.044.482-.308.482-.661l-.044-3.396c0-.353-.22-.617-.482-.617h-2.37c-.263.044-.482.308-.482.661zM8.952 23.239l.044 3.395c0 .353.22.662.483.618h2.37c.262-.044.482-.309.482-.662l-.044-3.395c0-.353-.22-.618-.483-.618h-2.37c-.262.044-.482.309-.482.662zM13.384 32.455l-.044-3.396c0-.353.22-.617.482-.662h2.37l.04.002 1.587-1.692a.823.823 0 0 1-.004-.074v-3.395c0-.353.22-.618.483-.618h2.37c.263 0 .482.309.482.617v3.396c0 .353-.22.618-.482.618h-2.334l-1.66 1.769.044 3.39c0 .353-.219.618-.482.662h-2.37c-.263 0-.482-.265-.482-.617zM42.782 36.911c-1.58 1.544-3.555 2.25-5.748 2.25-5.617 0-8.03-3.881-8.03-7.85 0-3.97 2.545-8.026 8.03-8.026 2.062 0 3.992.793 5.572 2.337l-1.887 1.852c-1.009-1.014-2.37-1.455-3.686-1.455-3.641 0-5.22 2.734-5.22 5.292 0 2.514 1.49 5.16 5.22 5.16 1.317 0 2.809-.53 3.818-1.544l1.93 1.984zM57.48 23.593v8.732c0 4.498-2.764 6.791-6.581 6.791-3.642 0-6.714-2.205-6.714-6.791v-8.732h2.853v8.732c0 2.734 1.58 4.19 3.905 4.19 2.37 0 3.685-1.588 3.685-4.19v-8.732h2.852z" fill="#fff"/><path fill-rule="evenodd" clip-rule="evenodd" d="M70.337 38.809h3.378v-.001h2.677l1.316-2.867h7.942l1.272 2.867h3.116l-6.845-15.215h-3.116l-6.6 14.767-4.369-4.975c2.852-.618 3.817-2.735 3.817-4.807 0-2.602-1.886-5.028-5.44-5.028h-7.196V38.81h2.852v-5.072h2.764l4.431 5.072zm-7.196-7.673v-4.851h4.343c1.8 0 2.59 1.19 2.59 2.425 0 1.19-.79 2.425-2.59 2.425h-4.343zm18.516-4.367-2.808 6.482h5.616l-2.808-6.482z" fill="#fff"/><path d="M87.932 26.195h4.782v12.613h2.852V26.195h4.827v-2.602H87.932v2.602zM113.468 38.808h-11.364V23.593h11.364v2.779h-8.512v3.483h8.205v2.69h-8.205v3.44h8.512v2.823z" fill="#fff"/><path fill-rule="evenodd" clip-rule="evenodd" d="M121.41 38.808c5.309 0 7.635-3.925 7.591-7.762-.044-3.748-2.369-7.453-7.591-7.453h-5.967v15.215h5.967zm0-2.779h-3.115v-9.79h3.115c3.291 0 4.695 2.382 4.739 4.763.088 2.514-1.316 5.027-4.739 5.027z" fill="#fff"/><path d="M33.654 0h-3.467v17.64h3.467V0zM47.738 0v3.087H43V17.64h-3.466V3.087h-4.52V0h12.725z" fill="#02F4AF"/></svg>