<svg width="110" height="83" fill="none" xmlns="http://www.w3.org/2000/svg"><path d="M36.907 0a27.124 27.124 0 0 0-15.052 4.559 27.059 27.059 0 0 0-9.979 12.139 27.008 27.008 0 0 0-1.541 15.628 27.035 27.035 0 0 0 7.414 13.85 27.106 27.106 0 0 0 13.873 7.402 27.134 27.134 0 0 0 15.653-1.54 27.084 27.084 0 0 0 12.16-9.962A27.017 27.017 0 0 0 64 27.05a27.033 27.033 0 0 0-7.937-19.125A27.122 27.122 0 0 0 36.907 0zm17.78 42.83a24.311 24.311 0 0 1-8.065 5.797 24.346 24.346 0 0 1-9.715 2.091 23.734 23.734 0 0 1-13.17-3.988 23.676 23.676 0 0 1-8.732-10.622 23.631 23.631 0 0 1-1.35-13.675 23.656 23.656 0 0 1 6.489-12.118 23.718 23.718 0 0 1 12.138-6.478 23.742 23.742 0 0 1 13.697 1.347 23.699 23.699 0 0 1 10.639 8.717 23.64 23.64 0 0 1 3.995 13.15 23.973 23.973 0 0 1-4.516 14.088c-.563.561-.846 1.125-1.41 1.688v.002zM18.722 53.162l2.942 1.87L3.826 83 .883 81.13 18.72 53.163z" fill="#1C3C70"/><path d="m48.438 16.598-2.023 3.064H24.094v-3.064h24.344zM24.094 28.889h16.218l2.023-3.064H24.094v3.064zm0 8.984h10.254l2.058-3.099H24.094v3.099z" fill="#005EAB"/></svg>