<svg width="204" height="200" viewBox="0 0 204 200" fill="none" xmlns="http://www.w3.org/2000/svg">
<path d="M118.67 101.553H25.5275V93.1569H124.597L118.67 101.553ZM112.743 109.949H24.6807V118.345H106.815L112.743 109.949ZM101.735 126.741H25.5275V135.137H96.6543L101.735 126.741ZM152.54 67.9688V168.721H53.4702L30.608 199.787V168.721H0.125V67.9688H152.54ZM144.072 76.3648H8.59249V160.325H37.3819V178.797L50.9299 160.325H144.919V76.3648H144.072Z" fill="white"/>
<path d="M169.176 33.5648H101.521V25.1736H175.096L169.176 33.5648ZM100.675 41.956V50.3472H157.336L163.256 41.956H100.675ZM75.3047 0V58.7384H83.7616V8.3912H193.701V75.5208H186.09H180.17H178.479V93.9815L176.787 90.625L173.404 86.4294L165.793 75.5208H159.873V83.912H164.102L170.022 92.3032L173.404 96.4988L186.09 113.281V83.912H203.004V0H75.3047Z" fill="#FE8836"/>
</svg>
