<svg width="110" height="95" fill="none" xmlns="http://www.w3.org/2000/svg"><path d="M8.724 62.752h18.39V24.304L8.723 50.846v11.906zm14.75-26.542v23.053h-11.11v-6.749l11.11-16.304zM46.713 35.907l-16.38-10.086v36.855h16.494l-.114-26.769zM33.86 59.037V32.494l9.214 5.422v21.195l-9.214-.076zM49.67 34.428v28.854h1.895v-.834a21.424 21.424 0 0 1 1.706-9.024V35.679l11.375-16.19 1.858 1.668v22.522l3.792-.303v-23.85l-6.446-5.725-14.18 20.627zM9.176 12.513h4.815l2.54-3.64h-4.815l-2.54 3.64zM23.507 8.873h-4.853l-2.502 3.64h4.815l2.54-3.64zM30.445 8.873H25.63l-2.502 3.64h4.815l2.502-3.64z" fill="#1C3C70"/><path d="M0 0v69.387h53.652c-.341-.493-.645-.986-.948-1.478a13.204 13.204 0 0 1-.986-2.39H3.792V3.793h83.416v5.08H35.755l-.34.493-2.2 3.223h53.993v56.875H91V0H0z" fill="#1C3C70"/><path d="M58.431 75.076 47.625 92.025l3.223 2.01 10.768-16.911-3.185-2.048z" fill="#005EAB"/><path fill-rule="evenodd" clip-rule="evenodd" d="M69.748 73.019c6.62 0 11.988-5.367 11.988-11.988 0-6.62-5.367-11.988-11.988-11.988-6.62 0-11.988 5.367-11.988 11.988 0 6.62 5.367 11.988 11.988 11.988zm0 3.27c8.426 0 15.257-6.832 15.257-15.258 0-8.427-6.83-15.258-15.257-15.258-8.426 0-15.257 6.831-15.257 15.258 0 8.426 6.83 15.257 15.257 15.257z" fill="#005EAB"/></svg>