<svg width="91" height="114" viewBox="0 0 91 114" fill="none" xmlns="http://www.w3.org/2000/svg">
<path d="M48.1719 10.9025V15.9047H17.6585L20.96 10.9025H48.1719Z" fill="#7DC6ED"/>
<path d="M62.7221 15.9047V30.5611H58.3702V15.9047H62.7221ZM67.7243 10.9025H53.368V35.5633H67.7243V10.9025Z" fill="#7DC6ED"/>
<path d="M40.1721 20.8164V25.8186H11.1094L14.4108 20.8164H40.1721Z" fill="#7DC6ED"/>
<path d="M47.0251 30.8633H11.1094V35.8655H47.0251V30.8633Z" fill="#7DC6ED"/>
<path d="M66.7276 75.4267H40.166V80.4289H66.7276V75.4267Z" fill="#7DC6ED"/>
<path d="M66.926 85.4693H35.9624V90.4715H66.926V85.4693Z" fill="#7DC6ED"/>
<path d="M66.926 65.2767H35.9624V70.2789H66.926V65.2767Z" fill="#7DC6ED"/>
<path d="M48.5258 51.1726H11.1094V56.1747H48.5258V51.1726Z" fill="#7DC6ED"/>
<path d="M25.7158 70.3264V85.6831H16.1116V70.3264H25.7158ZM30.718 65.3242H11.1094V90.6853H30.718V65.3242Z" fill="#7DC6ED"/>
<path d="M67.284 40.7614H11.1094V45.7636H67.284V40.7614Z" fill="#7DC6ED"/>
<path d="M78.7846 12.0553V0H16.2071L12.3554 5.85257L5.85257 15.857L0 24.4607V101.895H11.9552V114H90.7898V12.0553H78.7846ZM5.85257 95.9921V24.7108L11.6551 15.907L15.0066 10.9048L18.308 5.90259H72.882V95.9421L5.85257 95.9921ZM85.0373 108.147H17.8578V101.895H78.7846V17.8578H85.0373V108.147Z" fill="#7DC6ED"/>
</svg>
