<svg width="110" height="82" fill="none" xmlns="http://www.w3.org/2000/svg"><path d="M61.208 58.166a13.236 13.236 0 0 0-3-6.454 13.268 13.268 0 0 0-5.914-3.972l-9.363-3.128v-1.639H39.24v2.83l-1.343 5.325-3.73-4.468-.224-.26h-4.028l-.224.26-3.73 4.468-1.343-5.474v-2.68h-3.692v1.638l-9.362 3.128a13.268 13.268 0 0 0-5.914 3.972 13.236 13.236 0 0 0-3 6.454L.111 73.249l-.112.82h39.463l1.865-2.83.56-.857H38.12l-1.977-13.704.709-1.043 1.977 2.384.895 1.08.335-1.378 2.35-9.384 8.728 2.904a9.622 9.622 0 0 1 4.195 2.82 9.598 9.598 0 0 1 2.184 4.553h3.767l-.075-.447zM25.737 70.382H4.363l1.94-11.619a9.662 9.662 0 0 1 2.172-4.64 9.685 9.685 0 0 1 4.243-2.882l8.728-2.904 2.35 9.384.373 1.377.858-1.08 1.977-2.383.708 1.043-1.977 13.704zm6.602-14.3 2.014 14.3h-4.85l2.052-14.3.038-.26-.15-.261-1.94-2.867 2.164-2.607h.522l2.164 2.607-1.903 2.867-.149.26.038.261zM16.337 30.35a17.655 17.655 0 0 0 3.916 7.001l4.44 4.469a6.38 6.38 0 0 0 4.55 1.899h5.37a6.386 6.386 0 0 0 4.551-1.9l4.476-4.468a23.795 23.795 0 0 0 4.14-7.187 5.642 5.642 0 0 0 3.133-4.655 7.153 7.153 0 0 0-1.118-4.543v-6.517a6.454 6.454 0 0 0-1.416-4.025 6.473 6.473 0 0 0-3.62-2.268 12.957 12.957 0 0 0-4.755-5.913A12.99 12.99 0 0 0 32.75 0h-.82a17.915 17.915 0 0 0-12.637 5.248 17.857 17.857 0 0 0-5.23 12.627v3.09a6.488 6.488 0 0 0-1.156 5.065 6.095 6.095 0 0 0 3.431 4.32zm27.49-2.383a9.415 9.415 0 0 1-2.835 6.777l-4.439 4.47a2.907 2.907 0 0 1-1.94.781h-5.37a2.907 2.907 0 0 1-1.94-.782l-4.439-4.469a9.397 9.397 0 0 1-2.797-6.777v-4.84h3.767a21.32 21.32 0 0 0 13.39-4.693 9.992 9.992 0 0 0 6.603 4.506v5.027zM17.754 17.875a14.157 14.157 0 0 1 4.157-10.001 14.203 14.203 0 0 1 10.017-4.15h.82a9.208 9.208 0 0 1 5.53 1.84 9.183 9.183 0 0 1 3.31 4.788l.224.857.15.484h1.417c.727.006 1.421.3 1.932.816.51.516.795 1.214.79 1.94v4.99h-.447a6.269 6.269 0 0 1-5.334-3.017l-1.827-3.053-.485-.782-.634.633-1.044 1.042a17.428 17.428 0 0 1-12.496 5.177h-6.08v-1.564z" fill="#1C3C70"/><path d="M83.288 64.382a5.593 5.593 0 0 0-4.14-2.235h-4.364l.037-.186.112-4.208a5.112 5.112 0 0 0-2.611-4.059 3.64 3.64 0 0 0-1.716-.372 5.494 5.494 0 0 0-2.872.856l-.447.336-3.208 7.745-.038.112H60.76l-1.38 2.048-3.208 4.73-1.23 1.861-2.723 4.134-2.537 3.76-1.94 2.98h24.73c2.797 0 5.185-4.06 5.222-4.096l5.707-9.385c.29-.644.442-1.341.447-2.048a3.656 3.656 0 0 0-.56-1.973zm-3.282 2.42-.038.037-5.483 9.05c-.26.372-1.566 2.197-2.35 2.197H54.978l.186-.261 3.17-4.767 3.805-5.734.783-1.08.038-.075h3.58l3.656-8.937.037-.075.075-.037c.097-.025.197-.037.298-.037h.075a1.4 1.4 0 0 1 .485.894l-.261 7.969h8.056c.187 0 .671 0 .82.149.135.185.212.405.224.633v.074zm-30.884 6.256-2.648 3.91-3.357 5.028H38.64l5.818-8.714 2.723-4.134 4.625-6.814h4.476l-4.438 6.628-1.53 2.272-1.193 1.824z" fill="#005EAB"/></svg>