<svg width="222" height="204" viewBox="0 0 222 204" fill="none" xmlns="http://www.w3.org/2000/svg">
<path d="M110.536 33.2257C95.7978 33.2257 83.8227 45.2239 83.8227 59.9909C83.8227 74.7579 95.7978 86.7561 110.536 86.7561C125.275 86.7561 137.25 74.7579 137.25 59.9909C137.25 45.2239 126.196 33.2257 110.536 33.2257ZM110.536 80.2955C99.4824 80.2955 91.1919 71.0661 91.1919 59.9909C91.1919 48.9156 100.404 40.6092 110.536 40.6092C120.669 40.6092 130.802 49.8386 130.802 59.9909C130.802 70.1432 121.59 80.2955 110.536 80.2955ZM162.121 94.1395L154.752 86.7561C157.516 82.1414 159.358 76.6038 161.2 71.9891H171.333V47.9927H161.2C160.279 42.4551 157.516 37.8404 154.752 33.2257L162.121 25.8422L144.619 8.30643L137.25 15.6899C132.644 12.9211 127.117 11.0752 122.511 9.22937V0H98.5612V10.1523C93.9554 11.0752 88.4285 12.9211 83.8227 15.6899L77.3745 8.30643L59.8725 25.8422L67.2417 33.2257C64.4783 37.8404 61.7148 43.378 60.7936 47.9927H50.6608V71.9891H60.7936C61.7148 77.5267 63.5571 82.1414 67.2417 86.7561L59.8725 94.1395L77.3745 111.675L84.7438 104.292C89.3496 107.061 94.8766 108.907 99.4824 110.752V120.905H123.433V110.752C128.96 109.829 133.565 107.061 138.171 104.292L145.54 111.675L162.121 94.1395ZM135.408 96.9084C130.802 100.6 125.275 102.446 117.906 104.292H115.142V113.521H105.931V104.292H103.167C96.7189 103.369 90.2708 100.6 85.665 96.9084L82.9015 95.0625L76.4534 101.523L70.9264 94.1395L77.3745 87.679L75.5322 84.9102C71.8476 80.2955 70.0052 74.7579 68.1629 67.3744V64.6056H58.9513V55.3762H68.1629V52.6074C69.0841 46.1468 71.8476 39.6863 75.5322 35.0716L77.3745 32.3028L70.9264 26.7652L77.3745 20.3046L83.8227 26.7652L86.5861 24.9193C91.1919 21.2275 96.7189 19.3817 104.088 17.5358H106.852V8.30643H116.063V17.5358H118.827C125.275 18.4587 131.723 21.2275 136.329 24.9193L139.092 26.7652L145.54 20.3046L151.989 26.7652L145.54 33.2257L147.383 35.9945C151.067 40.6092 152.91 46.1468 154.752 53.5303V56.2991H163.043V65.5285H153.831V68.2973C152.91 74.7579 150.146 81.2184 146.462 85.8331L144.619 88.6019L151.067 95.0625L144.619 101.523L138.171 95.0625L135.408 96.9084ZM61.7148 126.442H71.8476L50.6608 158.745H41.4492L61.7148 126.442ZM112.379 126.442H122.511L101.325 158.745H91.1919L112.379 126.442ZM172.254 126.442L151.067 158.745H140.935L162.121 127.365H172.254V126.442Z" fill="#FE8836"/>
<path d="M207.261 176.286H198.05H23.9502H14.7386H0L18.4232 203.051H204.498L222 176.286H207.261ZM198.971 194.744H23.029L16.5809 185.515H204.498L198.971 194.744ZM23.9502 176.286H14.7386V54.4581H42.3734L36.8465 63.6875H23.9502V176.286ZM198.05 62.7645H178.705L184.232 53.5352H206.34V175.363H197.129V62.7645H198.05Z" fill="white"/>
</svg>
