<svg width="110" height="68" fill="none" xmlns="http://www.w3.org/2000/svg"><path d="M78.655 25.844H47.17v4.031h28.815l2.671-4.03zM73.577 33.453H47.169v4.069h23.737l2.67-4.069zM68.46 41.063H47.17v4.069h18.62l2.67-4.069zM63.006 49.088H47.17v4.031h13.166l2.671-4.03zM15.348 8.74l-2.483 3.768H8.163l2.482-3.768h4.703zM22.157 8.74l-2.445 3.768h-4.665l2.408-3.768h4.702zM28.962 8.74l-2.445 3.768h-4.74L24.26 8.74h4.702z" fill="#fff"/><path d="M85.317 51.914v12.319H3.724V3.73h81.593v4.972H35.775l-.34.49-2.18 3.127h52.062v7.384l3.762-5.463V0H0v68h89.079V46.376l-3.762 5.538z" fill="#fff"/><path d="M40.36 33.566a3.77 3.77 0 0 0-1.957-3.202V18.572l-12.376 9.381H10.152v11.302h5.304v13.864h7.787V39.255h2.822l12.338 9.343V36.806a3.764 3.764 0 0 0 1.956-3.24zM20.872 50.783h-3.047V39.895h3.047v10.888zm4.853-13.864H12.522v-6.593h13.204v6.593zm10.27 6.894-7.712-5.839v-8.778l7.712-5.84v20.457zM98.482 6.253 76.55 39.066l-1.317 12.508 10.157-6.065 16.476-23.885 2.144-3.09 3.988-5.801-9.517-6.48zM83.058 42.457l-3.31 1.997.451-4.069.64-.98 2.934 1.997-.715 1.055zm2.86-4.144-2.972-2.034 12.64-18.837 3.159 2.185-12.828 18.686zm15.046-21.963-3.16-2.186 1.806-2.674 3.198 2.223-1.844 2.637z" fill="#FE8836"/></svg>