<svg width="615" height="146" fill="none" xmlns="http://www.w3.org/2000/svg"><path d="m452.856 0-62.119 93.901h45.601L498.457 0h-45.601z" fill="#DD1E5C"/><path d="m510.966 0-62.118 93.901h45.601L556.567 0h-45.601z" fill="#83469D"/><path d="m569.075 0-62.098 93.901h45.581L614.677 0h-45.602z" fill="#7AC679"/><path d="M391.494 125.757c0-3.679-.116-6.894-.232-9.45h8.539l.387 3.447h.233c1.026-1.355 3.446-4.066 8.19-4.066 3.563 0 6.332 1.646 7.514 4.415h.116c1.123-1.414 2.381-2.537 3.853-3.273 1.414-.736 3.06-1.123 4.918-1.123 6.003 0 9.45 4.357 9.45 12.045v16.402h-9.895v-14.872c0-3.447-1.026-5.422-3.272-5.422-1.646 0-2.653 1.084-3.118 2.382-.232.561-.29 1.471-.29 2.033v15.899h-9.895v-15.202c0-3.118-.968-5.151-3.234-5.151-1.859 0-2.711 1.355-3.117 2.324-.291.619-.291 1.355-.291 2.033v15.957h-9.895v-18.378h.039zM450.476 133.775c.348 2.207 3.563 3.447 7.126 3.447 2.653 0 5.15-.291 7.629-1.085l1.297 6.778c-3.33 1.355-6.951 1.801-10.398 1.801-9.779 0-15.317-5.422-15.317-14.253 0-6.507 4.183-14.814 14.426-14.814 8.985 0 12.838 6.623 12.838 14.253 0 1.704-.232 3.175-.387 3.853h-17.214v.02zm8.21-6.894c0-1.588-.736-4.532-3.95-4.532-3.001 0-4.183 2.769-4.357 4.532h8.307zM502.329 103.972v31.332c0 3.447.117 6.952.233 8.831h-9.043l-.387-3.796h-.116c-1.859 3.176-5.209 4.415-8.424 4.415-6.448 0-11.811-5.596-11.811-14.368-.058-9.334 5.886-14.699 12.45-14.699 3.06 0 5.596.911 6.836 2.653h.116v-14.368h10.146zm-10.165 24.322c0-.387 0-.852-.059-1.297-.387-1.917-1.917-3.563-4.066-3.563-3.388 0-4.918 3.059-4.918 6.739 0 4.241 2.091 6.506 4.918 6.506 2.033 0 3.621-1.472 3.95-3.331a9.622 9.622 0 0 0 .175-1.859v-3.195zM520.436 108.619c0 2.711-2.033 4.861-5.267 4.861-3.175 0-5.15-2.15-5.15-4.861 0-2.769 2.033-4.802 5.208-4.802 3.157-.02 5.151 2.033 5.209 4.802zm-10.301 35.516v-27.828h10.185v27.828h-10.185zM552.831 137.337c0 2.769.117 5.364.446 6.778h-9.159l-.562-2.44h-.174c-1.975 2.208-4.744 3.06-7.746 3.06-5.654 0-9.158-4.125-9.158-8.773 0-7.455 6.68-10.747 16.11-10.805v-.233c0-1.123-.852-2.382-4.531-2.382-2.943 0-6.061 1.027-7.862 2.092l-1.8-6.507c1.8-.91 5.77-2.498 11.54-2.498 9.566 0 12.896 5.325 12.896 12.277v9.431zm-9.894-5.926c-4.125 0-6.507 1.182-6.507 3.622 0 1.762 1.182 2.653 2.886 2.653 1.471 0 3.059-1.027 3.504-2.537.117-.445.117-.968.117-1.472v-2.266z" fill="#4F4F4F"/><path d="M22.074 61.89v82.225H0V61.891h22.074zM33.306 144.134V61.89h25.986l13.05 25.252c4.512 8.173 9.276 19.153 12.936 28.796h.367c-1.22-10.863-1.704-22.328-1.704-34.644V61.89h20.139v82.225H80.882L66.979 116.79c-4.628-8.791-10.011-19.771-13.903-29.764h-.368c.484 11.097.736 23.548.736 36.852v20.256H33.306zM115.406 61.89h52.824v17.933h-30.749v15.26h28.909v17.815h-28.909v31.236h-22.075V61.89zM199.947 61.89v46.612c0 12.452 4.28 19.52 12.935 19.52 8.791 0 13.051-6.468 13.051-19.52V61.89h22.075v45.392c0 25.369-12.683 38.188-35.745 38.188-22.578 0-34.409-12.316-34.409-38.807V61.89h22.093zM260.575 122.174c4.996 2.556 13.168 5.132 21.358 5.132 7.572 0 11.231-2.556 11.231-6.72 0-4.028-3.659-6.351-12.935-9.508-13.903-4.88-23.062-12.568-23.062-24.768 0-14.524 12.2-25.736 32.938-25.736 9.875 0 16.827 1.82 22.326 4.28l-4.628 17.564c-3.543-1.588-9.643-3.912-17.93-3.912-6.72 0-10.379 2.44-10.379 6.1 0 4.144 4.395 5.848 14.755 9.76 14.755 5.364 21.474 13.304 21.474 24.768 0 14.156-11.095 26.356-35.145 26.356-9.875 0-19.518-2.692-24.146-5.132l4.143-18.184zM375.246 110.942h-29.529v15.124h33.053v18.049h-55.147V61.89h53.443v17.933h-31.349v13.303h29.529v17.816z" fill="#3286C9"/></svg>