<svg width="350" height="147" fill="none" xmlns="http://www.w3.org/2000/svg"><path d="M88.13 51.01v-1h-.823l-.159.807.981.192zm-8.8 44.8-.982-.193-.234 1.192h1.215v-1zm23.399 0h1v-1h-1v1zm0 13.799v1h1v-1h-1zm-26 0v-1h-.823l-.158.809.981.191zm-7 35.8v1h.824l.158-.808-.982-.192zm-15 0-.981-.191-.233 1.191h1.214v-1zm7-35.8.982.192.233-1.192h-1.215v1zm-29.2 0v-1h-.823l-.158.809.981.191zm-7 35.8v1h.824l.158-.808-.982-.192zm-14.8 0-.981-.191-.233 1.191h1.214v-1zm7-35.8.982.192.233-1.192h-1.215v1zm-16.4 0h-1v1h1v-1zm0-13.8v-1h-1v1h1zm19 0v1h.823l.159-.807-.982-.193zm8.8-44.8.981.193.235-1.193h-1.216v1zm-23.6 0h-1v1h1v-1zm0-13.8v-1h-1v1h1zm26.4 0v1h.826l.156-.81-.982-.19zm6.6-34.2v-1h-.825l-.157.81.982.19zm15 0 .981.195.238-1.195h-1.219v1zm-6.8 34.2-.98-.195-.238 1.195h1.218v-1zm29.2 0v1h.821l.16-.805-.98-.195zm6.8-34.2v-1h-.82l-.16.805.98.195zm14.8 0 .982.19.23-1.19h-1.212v1zm-6.6 34.2-.982-.19-.23 1.19h1.212v-1zm16 0h1v-1h-1v1zm0 13.8v1h1v-1h-1zm-33.6 0 .982.193.234-1.193h-1.216v1zm-29.2 0v-1h-.822l-.159.808.981.192zm-8.8 44.8-.981-.192-.234 1.192h1.215v-1zm29.2 0v1h.823l.158-.807-.98-.193zm22.62-44.992-8.8 44.8 1.962.385 8.8-44.8-1.963-.385zm-7.82 45.992h23.4v-2h-23.4v2zm22.4-1v13.8h2v-13.8h-2zm1 12.8h-26v2h26v-2zm-26.981.809-7 35.8 1.963.383 7-35.8-1.963-.383zm-6.019 34.991h-15v2h15v-2zm-14.018 1.192 7-35.8-1.963-.383-7 35.8 1.963.383zm6.018-36.992h-29.2v2h29.2v-2zm-30.181.809-7 35.8 1.963.383 7-35.8-1.963-.383zm-6.019 34.991h-14.8v2h14.8v-2zm-13.818 1.192 7-35.8-1.963-.383-7 35.8 1.963.383zm6.018-36.992H1.33v2h16.4v-2zm-15.4 1v-13.8h-2v13.8h2zm-1-12.8h19v-2h-19v2zm19.982-.807 8.8-44.8-1.963-.385-8.8 44.8 1.963.385zm7.818-45.993H5.53v2h23.6v-2zm-22.6 1v-13.8h-2v13.8h2zm-1-12.8h26.4v-2H5.53v2zm27.382-.81 6.6-34.2-1.964-.38-6.6 34.2 1.964.38zm5.618-33.39h15v-2h-15v2zm14.02-1.195-6.8 34.2 1.961.39 6.8-34.2-1.962-.39zm-5.82 35.395h29.2v-2h-29.2v2zm30.181-.805 6.8-34.2-1.961-.39-6.8 34.2 1.961.39zM82.73 4.01h14.8v-2h-14.8v2zm13.817-1.19-6.6 34.2 1.964.38 6.6-34.2-1.964-.38zM90.93 38.21h16v-2h-16v2zm15-1v13.8h2v-13.8h-2zm1 12.8h-18.8v2h18.8v-2zm-33.6 0h-29.2v2h29.2v-2zm-30.18.808-8.801 44.8 1.962.385 8.8-44.8-1.962-.385zm-7.82 45.992h29.2v-2h-29.2v2zm30.181-.807 8.8-44.8-1.962-.385-8.8 44.8 1.962.385zm158.308 32.407h1v-1h-1v1zm0 17v1h1v-1h-1zm-93.4 0h-1v1h1v-1zm0-15.4-.739-.673-.261.286v.387h1zm49-53.8.74.674.002-.003-.742-.67zm13.6-18.8-.89-.455-.004.008.894.447zm-1.8-33.4-.683.73.007.007.006.006.67-.743zm-57.6 9.8-.899.438.543 1.116.975-.768-.619-.786zm-7.4-15.2-.68-.732-.543.504.324.666.899-.438zm21.4-12.4.334.943.013-.004-.347-.939zm58.4 5.4-.654.757.007.005.647-.762zm6.6 51.2.898.441.003-.006-.901-.435zm-18 24.6.734.68-.734-.68zm-38 41-.733-.679-1.557 1.679h2.29v-1zm66.2 0v17h2v-17h-2zm1 16h-93.4v2h93.4v-2zm-92.4 1v-15.4h-2v15.4h2zm-.26-14.726 49-53.8-1.479-1.347-49 53.8 1.479 1.347zM180.16 76.88c6.301-6.971 10.898-13.313 13.753-19.023l-1.789-.895c-2.745 5.49-7.215 11.681-13.448 18.577l1.484 1.341zm13.749-19.015c2.994-5.853 4.509-11.675 4.509-17.456h-2c0 5.42-1.418 10.931-4.29 16.545l1.781.91zm4.509-17.456c0-7.395-2.129-13.167-6.529-17.142l-1.341 1.485c3.866 3.491 5.87 8.652 5.87 15.657h2zm-6.516-17.13c-4.381-4.098-10.663-6.07-18.684-6.07v2c7.713 0 13.431 1.895 17.317 5.53l1.367-1.46zm-18.684-6.07c-13.479 0-26.891 5.314-40.219 15.815l1.238 1.57c13.073-10.299 26.061-15.385 38.981-15.385v-2zm-38.701 16.163-7.4-15.2-1.798.875 7.4 15.2 1.798-.875zm-7.618-14.03c5.482-5.09 12.489-9.16 21.053-12.19l-.667-1.885c-8.77 3.103-16.029 7.3-21.747 12.61l1.361 1.465zm21.066-12.194c8.561-3.162 17.177-4.739 25.853-4.739v-2c-8.924 0-17.774 1.623-26.546 4.862l.693 1.877zm25.853-4.739c13.436 0 23.911 3.357 31.546 9.957l1.308-1.513c-8.098-7-19.089-10.444-32.854-10.444v2zm31.553 9.962c7.751 6.589 11.647 15.497 11.647 26.838h2c0-11.858-4.103-21.35-12.352-28.362l-1.295 1.524zm11.647 26.838c0 8.116-1.766 15.834-5.3 23.166l1.801.869c3.665-7.602 5.499-15.617 5.499-24.035h-2zm-5.297 23.16c-3.542 7.213-9.472 15.333-17.836 24.36l1.467 1.36c8.436-9.105 14.505-17.386 18.164-24.839l-1.795-.881zm-17.836 24.36-38 41.001 1.467 1.359 38-41-1.467-1.36zm-37.267 42.68h67.2v-2h-67.2v2zm192.322-13.6v1h1v-1h-1zm-21 0v-1h-1v1h1zm0 29.6v1h1v-1h-1zm-20.4 0h-1v1h1v-1zm0-29.6h1v-1h-1v1zm-63.8 0h-1v1h1v-1zm0-15.4-.821-.57-.179.257v.313h1zm67.6-97.4v-1h-.523l-.298.43.821.57zm16.6 0h1v-1h-1v1zm0 96.2h-1v1h1v-1zm21 0h1v-1h-1v1zm-41.4 0v1h1v-1h-1zm0-62.8h1v-3.193l-1.821 2.623.821.57zm-43.6 62.8-.821-.57-1.09 1.57h1.911v-1zm85 15.6h-21v2h21v-2zm-22 1v29.6h2v-29.6h-2zm1 28.6h-20.4v2h20.4v-2zm-19.4 1v-29.6h-2v29.6h2zm-1-30.6h-63.8v2h63.8v-2zm-62.8 1v-15.4h-2v15.4h2zm-.178-14.829 67.6-97.4-1.643-1.14-67.6 97.4 1.643 1.14zM311.34 4.01h16.6v-2h-16.6v2zm15.6-1v96.2h2V3.01h-2zm1 97.199h21v-2h-21v2zm20-1v16.6h2v-16.6h-2zm-39.4 0v-62.8h-2v62.8h2zm-1.821-63.37-43.6 62.8 1.643 1.14 43.6-62.8-1.643-1.14zm-42.779 64.37h43.6v-2h-43.6v2z" fill="#fff"/></svg>