<svg width="110" height="76" fill="none" xmlns="http://www.w3.org/2000/svg"><path d="m56.675 53.008 2.403-3.64h25.421v3.64H56.675Z" fill="#005EAB"/><path d="m49.464 63.926 2.403-3.64h32.632v3.64H49.464Z" fill="#005EAB"/><path d="m42.254 74.849 2.403-3.641H84.5v3.64H42.254Z" fill="#005EAB"/><path d="M60.61 0H12.514S.5 20.17.5 20.57c0 .4 35.825 54.612 36.044 54.612.218 0 36.08-54.211 36.08-54.612 0-.4-12.015-20.57-12.015-20.57Zm6.662 18.714H55.658l4.369-12.27 7.245 12.27ZM57.078 3.64 52.345 16.93 40.548 3.64h16.53Zm-8.12 15.073H24.166l12.379-14.09 12.415 14.09ZM32.467 3.64 20.779 16.966 16.046 3.641h16.42ZM13.097 6.408l4.369 12.27H5.852l7.245-12.27ZM6.216 22.39h12.488l13.69 40.048L6.215 22.391Zm16.456 0h27.78L36.544 64.296 22.672 22.391Zm17.876 39.866L54.274 22.21h12.561L40.549 62.257Z" fill="#1C3C70"/></svg>