<svg width="247" height="184" fill="none" xmlns="http://www.w3.org/2000/svg"><path d="M230.687 135.525a26.666 26.666 0 0 0-6.013-12.969 26.59 26.59 0 0 0-11.841-7.985l-18.601-6.286v-3.518h-7.471v5.688l-2.689 10.701-7.47-8.98-.523.075h-8.068l-.448.524-7.471 8.98-2.689-11.001v-5.987h-7.471v3.293l-18.75 6.286a26.6 26.6 0 0 0-11.841 7.986 26.654 26.654 0 0 0-6.013 12.968l-5.08 30.308v1.647h78.887l3.735-5.688 1.121-1.721h-7.471l-3.959-27.539 1.419-2.096 5.753 6.96.672-2.769 4.706-18.858 17.481 5.837a19.276 19.276 0 0 1 8.435 5.729 19.321 19.321 0 0 1 4.339 9.238h7.471l-.15-.823Zm-71.043 24.546h-42.805l3.884-23.349a19.482 19.482 0 0 1 4.389-9.237 19.429 19.429 0 0 1 8.46-5.73l17.481-5.837 4.706 18.783.747 2.769 1.719-2.17 3.959-4.789 1.419 2.095-3.959 27.465Zm13.222-28.737 4.034 28.737h-9.711l4.109-28.737v-1.048l-3.885-5.762 4.333-5.239h1.046l4.333 5.239-3.81 5.762v.524l-.449.524Z" fill="#fff"/><path d="M207.825 60.77V47.672a12.96 12.96 0 0 0-2.826-8.097 12.919 12.919 0 0 0-7.259-4.55 26.03 26.03 0 0 0-9.524-11.88 25.969 25.969 0 0 0-14.53-4.509h-1.868a35.827 35.827 0 0 0-25.307 10.547 35.955 35.955 0 0 0-10.476 25.374v6.211a13.04 13.04 0 0 0-2.316 10.178 12.284 12.284 0 0 0 2.403 5.162 12.256 12.256 0 0 0 4.47 3.519 35.496 35.496 0 0 0 7.47 14.069l8.89 8.98a12.77 12.77 0 0 0 9.114 3.817h10.757a12.76 12.76 0 0 0 9.936-3.817l8.964-8.98a47.851 47.851 0 0 0 8.293-14.443 11.288 11.288 0 0 0 4.384-3.838 11.322 11.322 0 0 0 1.891-5.517 14.388 14.388 0 0 0-2.466-9.13Zm-11.952 14.068a18.953 18.953 0 0 1-5.678 13.62l-8.889 8.83a5.822 5.822 0 0 1-3.885 1.572h-10.757a5.822 5.822 0 0 1-3.885-1.571l-8.89-8.98a18.866 18.866 0 0 1-5.603-13.47v-9.73h7.471a42.605 42.605 0 0 0 26.818-9.428 20.013 20.013 0 0 0 13.223 9.055l.075 10.102Zm4.557-17.137h-.897a12.554 12.554 0 0 1-10.682-6.062l-3.661-6.136-.971-1.572-1.27.973L180.857 47a34.878 34.878 0 0 1-11.463 7.734 34.833 34.833 0 0 1-13.562 2.668h-12.177v-2.844c0-7.503 2.96-14.703 8.235-20.03a28.362 28.362 0 0 1 19.928-8.407h1.644a18.429 18.429 0 0 1 11.068 3.704 18.479 18.479 0 0 1 6.636 9.616l.449 1.721v.973h2.838a5.521 5.521 0 0 1 3.861 1.649 5.542 5.542 0 0 1 1.593 3.89l.523 10.027Z" fill="#fff"/><path d="M0 76.107h74.704l20.469 27.614V76.107h26.744V0H0v76.107Zm7.47-7.483V7.484h107.051v61.29H88.972v16.314L77.244 68.774l-69.774-.15Z" fill="#fff"/><path d="m205.585 165.468-5.304 7.858-6.723 10.102h-8.965l11.654-17.511 5.453-8.307 9.264-13.695h8.964l-8.89 13.321-3.063 4.565-2.39 3.667Z" fill="#FE8836"/><path d="M21.215 49.694H48.78l17.107-25.967H38.322L21.215 49.694Z" fill="#FE8836"/><path d="M59.318 49.694h5.23l17.107-25.967h-5.23L59.318 49.694Z" fill="#FE8836"/><path d="M81.65 49.694h5.228l17.108-25.967h-5.304L81.649 49.694Z" fill="#FE8836"/><path d="M80.01 23.727h21.215l-2.316 3.666H78.067l1.942-3.666Z" fill="#FE8836"/><path d="M64.996 46.102h21.216l-2.316 3.592H63.053l1.943-3.592Z" fill="#FE8836"/><path d="M237.711 176.537h-6.873v6.885h6.873v-6.885Z" fill="#FE8836"/><path d="M222.769 143.915v12.423h6.873v-5.613h9.562v6.511l-8.367 6.361v6.511h6.873v-2.994l8.292-6.361v-16.838h-23.233Z" fill="#FE8836"/></svg>