<svg width="110" height="84" fill="none" xmlns="http://www.w3.org/2000/svg"><path d="M55.717 71.947H39.396a5.266 5.266 0 0 0-1.535-3.139l-9.485-9.52H17.18l1.988-3.07-2.895-1.917L.477 78.12l2.929 2.092 2.197-3.487h13.426l6.278 6.277h30.27a5.58 5.58 0 1 0 0-11.16l.14.105Zm0 7.707h-28.84l-6.313-6.417H7.87l6.975-10.671h11.892l8.613 8.683c.353.366.553.853.558 1.36a1.918 1.918 0 0 1-3.278 1.36l-5.545-5.684-2.44 2.441 5.649 5.685a5.372 5.372 0 0 0 8.37-1.011h17.053a2.127 2.127 0 1 1 0 4.254Z" fill="#fff"/><path d="M28.164 11.16h16.321a5.092 5.092 0 0 0 1.535 3.103l9.59 9.59h11.125l-1.988 3.07 2.894 1.918L83.44 4.847 80.475 3.07l-2.197 3.487H64.852L58.574 0h-30.41a5.58 5.58 0 0 0 0 11.16Zm0-7.673h28.84l6.243 6.243h12.59L68.862 20.4H57.144l-8.718-8.544a2.058 2.058 0 0 1-.558-1.395 1.918 1.918 0 0 1 3.278-1.36l5.65 5.685 2.44-2.442-5.649-5.65a5.371 5.371 0 0 0-8.37 1.012H28.165a2.127 2.127 0 0 1 0-4.22Z" fill="#fff"/><path d="M50.417 47.844a6.975 6.975 0 0 1-1.918 5.022 7.568 7.568 0 0 1-4.742 2.197v3.243h-3.488v-3.278a8.648 8.648 0 0 1-3.487-1.395c-.35-.25-.676-.53-.977-.837a8.893 8.893 0 0 1-2.336-4.986v-.977h3.313v.732a5.022 5.022 0 0 0 3.487 3.906 7.5 7.5 0 0 0 2.023.244 6.35 6.35 0 0 0 1.465 0 4.01 4.01 0 0 0 2.022-.906 3.104 3.104 0 0 0 1.151-2.476 3.766 3.766 0 0 0-.732-2.442 5.336 5.336 0 0 0-2.407-1.569L38.84 42.37a6.975 6.975 0 0 1-5.056-6.975 6.974 6.974 0 0 1 1.848-5.021 6.975 6.975 0 0 1 4.638-2.477v-3.138h3.488v3.487a7.568 7.568 0 0 1 2.964 1.256 6.73 6.73 0 0 1 1.22 1.011 9.45 9.45 0 0 1 2.232 4.917v1.012h-3.487V35.22a4.778 4.778 0 0 0-2.964-3.487 5.997 5.997 0 0 0-1.988-.35 4.813 4.813 0 0 0-1.465.175 3.487 3.487 0 0 0-1.778.872 3.139 3.139 0 0 0-1.116 2.511c-.046.869.2 1.728.697 2.441.67.71 1.51 1.239 2.441 1.535l4.883 1.813a6.974 6.974 0 0 1 5.021 7.114Z" fill="#FE8836"/></svg>