<svg width="220" height="203" fill="none" xmlns="http://www.w3.org/2000/svg"><path fill-rule="evenodd" clip-rule="evenodd" d="m161.155 59.694 6.037-9.249h52.488v104.882l-6.102 9.535-3.433 5.244-9.535 13.825-12.585 19.07H0V95.926l9.535-14.493L23.74 60.457l6.293-9.535h26.471l5.913 9.058h-27.14L9.536 98.882v8.772H65.98l13.893-20.933.149.228.3-.196 3.297 5.168 1.335 2.193.858 1.24-8.39 12.014h16.781l2.765 4.29.858 1.144 1.621 2.575.954 1.525H71.129l-25.267 38.139h90.961l25.267-38.139h-41.094l2.765-4.29.762-1.335 2.575-3.909h41.571l31.56-47.674h-39.074ZM9.535 117.188h50.152L34.42 155.327 9.535 192.989v-75.801Zm11.06 76.278 19.07-28.604h90.961l-19.07 28.604H20.595Zm168.574-9.535-6.293 9.535h-59.878l19.069-28.604h59.878l-12.776 19.069Zm20.595-31.369-1.621 2.384h-59.878l25.171-38.139 6.389-9.535 29.939-44.908v90.198Z" fill="#fff"/><path fill-rule="evenodd" clip-rule="evenodd" d="M110.787 50.9c5.688 0 10.299-4.612 10.299-10.3 0-5.688-4.611-10.3-10.299-10.3s-10.299 4.612-10.299 10.3c0 5.688 4.611 10.3 10.299 10.3Zm0 10c11.211 0 20.299-9.089 20.299-20.3 0-11.21-9.088-20.3-20.299-20.3s-20.3 9.09-20.3 20.3c0 11.211 9.089 20.3 20.3 20.3Z" fill="#FE8836"/><path fill-rule="evenodd" clip-rule="evenodd" d="m77.756 45.084 33.89 51.704 33.89-51.704C144.214 24.763 128.83 10 111.646 10s-32.567 14.763-33.89 35.084Zm77.872 2.845-43.982 67.101-43.982-67.1C67.664 21.458 87.356 0 111.646 0c24.291 0 43.982 21.459 43.982 47.93Z" fill="#FE8836"/></svg>