<svg width="212" height="204" fill="none" xmlns="http://www.w3.org/2000/svg"><path d="M159.042 19.518v2.798l-4.448 13.67.784 2.122 3.579 9.614h-27.784l3.413-9.715.726-2.072-4.402-13.616v-2.8h28.135-.003Zm-34.665-6.507.019 2.19v8.16l4.044 12.499-3.969 11.312.267 7.063h41.184l-.244-7.09-4.183-11.292 4.066-12.496V13.011h-41.184Z" fill="#fff"/><path d="M119.792 56.322h77.671l-1.851-9.103h-75.82v9.103Z" fill="#fff"/><path d="M140.495 83.765h-18.388v8.99h18.388v-8.99Z" fill="#fff"/><path d="m210.493 120.169 1.347 6.123-90.473.026.121-30.123 6.165.049-.075 23.909 76.617-.023" fill="#fff"/><path d="M127.651 80.294h-6.165V60.195h76.077l3.8 17.558-6.299.02-2.466-11.413-64.947-.003v13.937Z" fill="#fff"/><path d="M151.453 102.37h-25.75v-6.299h19.452V80.436h-19.039V74.14h25.337v28.23Z" fill="#fff"/><path d="M80.933 19.52v2.811l-3.728 11.53-.677 2.086.729 2.072 3.426 9.705H52.899l4.366-11.735-.72-2.154-3.747-11.517V19.52h28.135Zm6.53-6.506H46.29v10.339l4.07 12.496-4.187 11.292-.24 7.09h41.168l.266-7.064-3.972-11.315 4.04-12.5V13.005l.027.01Z" fill="#fff"/><path d="M92.05 56.322H14.38l1.848-9.103H92.05v9.103Z" fill="#fff"/><path d="M71.343 92.753H89.73v-8.99H71.343v8.99Z" fill="#fff"/><path d="M1.347 120.169 0 126.292l90.476.026-.124-30.123-6.162.049.072 23.909-76.613-.023" fill="#fff"/><path d="M84.19 80.294h6.162V60.195H14.275L10.48 77.753l6.298.02 2.466-11.413 64.947-.003v13.937Z" fill="#fff"/><path d="M86.136 102.37H60.389V74.14h25.337v6.296H66.684V96.07h19.452v6.299Z" fill="#fff"/><path d="M95.456 75.82v26.352h21.472V75.819H95.456Zm15.828 21.657H100.6V80.234h10.684v17.243Z" fill="#FE8836"/><path d="m189.062 148.766 12.038 46.1h-65.338l12.054-46.1h41.246Zm6.279-8.134h-53.82l-16.29 62.377h86.416l-16.306-62.367v-.01Z" fill="#FE8836"/><path d="m161.665 6.832-1.451 5.742h-30.497l-1.454-5.742h33.402ZM170.449 0h-50.963l4.912 19.406h41.139L170.44 0h.009Z" fill="#FE8836"/><path d="m64.026 148.766 12.037 46.1H10.736l12.037-46.1h41.253Zm6.279-8.134H16.497L.191 203.009h86.42l-16.306-62.377Z" fill="#FE8836"/><path d="m83.58 6.832-1.455 5.742h-30.5l-1.451-5.742h33.405ZM92.362 0h-50.96l4.902 19.406h41.136L92.357 0h.006Z" fill="#FE8836"/></svg>