<svg width="228" height="205" fill="none" xmlns="http://www.w3.org/2000/svg"><path d="m177.659 1-30.243 44.168v24.177h-41.349l-30.328 43.997v7.511H30.886L.56 164.85v39.391H227.55V1h-49.892ZM9.102 195.698v-28.199l26.227-38.103h40.41v66.302H9.102Zm138.314 0H84.458v-79.707l26.053-38.103h36.906l-.001 117.81Zm71.592 0h-63.049V47.816l26.227-38.273h36.823l-.001 186.155Z" fill="#fff" stroke="#fff" stroke-width=".35" stroke-miterlimit="10"/><path d="m186.804 73.363-8.543 11.277h-14.44l7.774-11.277h15.209Z" fill="#FE8836"/><path d="m212.941 73.363-7.774 11.277h-14.78l7.775-11.277h14.779Z" fill="#FE8836"/><path d="m186.804 49.379-8.543 11.448h-14.44l7.774-11.192 15.209-.256Z" fill="#FE8836"/><path d="m212.941 49.379-7.774 11.448h-14.78l7.775-11.192 14.779-.256Z" fill="#FE8836"/><path d="m212.941 26.621-7.774 11.277h-14.78l7.775-11.277h14.779Z" fill="#FE8836"/><path d="m186.803 95.919-8.543 11.277h-14.439l7.774-11.277h15.208Z" fill="#FE8836"/><path d="m212.941 95.919-7.774 11.277h-14.78l7.775-11.277h14.779Z" fill="#FE8836"/><path d="m186.803 118.39-8.543 11.277h-14.439l7.774-11.277h15.208Z" fill="#FE8836"/><path d="m212.941 118.39-7.774 11.277h-14.78l7.775-11.277h14.779Z" fill="#FE8836"/><path d="m186.803 140.356-8.543 11.277h-14.439l7.774-11.277h15.208Z" fill="#FE8836"/><path d="m212.941 140.356-7.774 11.277h-14.78l7.775-11.277h14.779Z" fill="#FE8836"/><path d="m186.803 162.544-8.543 11.276h-14.439l7.774-11.276h15.208Z" fill="#FE8836"/><path d="m212.941 162.544-7.774 11.276h-14.78l7.775-11.276h14.779Z" fill="#FE8836"/><path d="m140.156 95.919-7.774 11.277h-14.695l7.69-11.277h14.779Z" fill="#FE8836"/><path d="m113.583 118.39-7.69 11.277h-14.78l7.69-11.277h14.78Z" fill="#FE8836"/><path d="m140.156 118.39-7.774 11.277h-14.695l7.69-11.277h14.779Z" fill="#FE8836"/><path d="m113.583 140.356-7.69 11.277h-14.78l7.69-11.277h14.78Z" fill="#FE8836"/><path d="m57.81 140.356-7.689 11.277h-14.78l7.69-11.277h14.78Z" fill="#FE8836"/><path d="m140.156 140.356-7.774 11.277h-14.695l7.69-11.277h14.779Z" fill="#FE8836"/><path d="m113.583 162.544-7.69 11.276h-14.78l7.69-11.276h14.78Z" fill="#FE8836"/><path d="m140.156 162.544-7.774 11.276h-14.695l7.69-11.276h14.779Z" fill="#FE8836"/><path d="m42.559 162.544-7.69 11.276H20.09l7.69-11.276h14.78Z" fill="#FE8836"/><path d="m69.132 162.544-7.774 11.276H46.664l7.69-11.276h14.778Z" fill="#FE8836"/><path d="m186.804 73.363-8.543 11.277h-14.44l7.774-11.277h15.209Z" stroke="#FE8836" stroke-width=".35" stroke-miterlimit="10"/><path d="m212.941 73.363-7.774 11.277h-14.78l7.775-11.277h14.779Z" stroke="#FE8836" stroke-width=".35" stroke-miterlimit="10"/><path d="m186.804 49.379-8.543 11.448h-14.44l7.774-11.192 15.209-.256Z" stroke="#FE8836" stroke-width=".35" stroke-miterlimit="10"/><path d="m212.941 49.379-7.774 11.448h-14.78l7.775-11.192 14.779-.256Z" stroke="#FE8836" stroke-width=".35" stroke-miterlimit="10"/><path d="m212.941 26.621-7.774 11.277h-14.78l7.775-11.277h14.779Z" stroke="#FE8836" stroke-width=".35" stroke-miterlimit="10"/><path d="m186.803 95.919-8.543 11.277h-14.439l7.774-11.277h15.208Z" stroke="#FE8836" stroke-width=".35" stroke-miterlimit="10"/><path d="m212.941 95.919-7.774 11.277h-14.78l7.775-11.277h14.779Z" stroke="#FE8836" stroke-width=".35" stroke-miterlimit="10"/><path d="m186.803 118.39-8.543 11.277h-14.439l7.774-11.277h15.208Z" stroke="#FE8836" stroke-width=".35" stroke-miterlimit="10"/><path d="m212.941 118.39-7.774 11.277h-14.78l7.775-11.277h14.779Z" stroke="#FE8836" stroke-width=".35" stroke-miterlimit="10"/><path d="m186.803 140.356-8.543 11.277h-14.439l7.774-11.277h15.208Z" stroke="#FE8836" stroke-width=".35" stroke-miterlimit="10"/><path d="m212.941 140.356-7.774 11.277h-14.78l7.775-11.277h14.779Z" stroke="#FE8836" stroke-width=".35" stroke-miterlimit="10"/><path d="m186.803 162.544-8.543 11.276h-14.439l7.774-11.276h15.208Z" stroke="#FE8836" stroke-width=".35" stroke-miterlimit="10"/><path d="m212.941 162.544-7.774 11.276h-14.78l7.775-11.276h14.779Z" stroke="#FE8836" stroke-width=".35" stroke-miterlimit="10"/><path d="m140.156 95.919-7.774 11.277h-14.695l7.69-11.277h14.779Z" stroke="#FE8836" stroke-width=".35" stroke-miterlimit="10"/><path d="m113.583 118.39-7.69 11.277h-14.78l7.69-11.277h14.78Z" stroke="#FE8836" stroke-width=".35" stroke-miterlimit="10"/><path d="m140.156 118.39-7.774 11.277h-14.695l7.69-11.277h14.779Z" stroke="#FE8836" stroke-width=".35" stroke-miterlimit="10"/><path d="m113.583 140.356-7.69 11.277h-14.78l7.69-11.277h14.78Z" stroke="#FE8836" stroke-width=".35" stroke-miterlimit="10"/><path d="m57.81 140.356-7.689 11.277h-14.78l7.69-11.277h14.78Z" stroke="#FE8836" stroke-width=".35" stroke-miterlimit="10"/><path d="m140.156 140.356-7.774 11.277h-14.695l7.69-11.277h14.779Z" stroke="#FE8836" stroke-width=".35" stroke-miterlimit="10"/><path d="m113.583 162.544-7.69 11.276h-14.78l7.69-11.276h14.78Z" stroke="#FE8836" stroke-width=".35" stroke-miterlimit="10"/><path d="m140.156 162.544-7.774 11.276h-14.695l7.69-11.276h14.779Z" stroke="#FE8836" stroke-width=".35" stroke-miterlimit="10"/><path d="m42.559 162.544-7.69 11.276H20.09l7.69-11.276h14.78Z" stroke="#FE8836" stroke-width=".35" stroke-miterlimit="10"/><path d="m69.132 162.544-7.774 11.276H46.664l7.69-11.276h14.778Z" stroke="#FE8836" stroke-width=".35" stroke-miterlimit="10"/></svg>