<svg width="110" height="64" fill="none" xmlns="http://www.w3.org/2000/svg"><path d="M47.824 35.577v-2.825h11.962l17.717-3.488 5.231-.941 1.081-.21v25.529l-1.29-.244L61.6 49.56l3 13.078.313 1.36h-9.207l-.21-1.22-3.208-13.95h-4.464V35.577ZM60.38 46.004l20.437 3.871v-17.96l-21.03 3.94h-.244v10.219h.837v-.07Zm-4.882 2.86 2.72 12.032h2.895l-2.72-12.032h-2.895Zm.802-2.825V35.786h-5.022v10.253h5.022Z" fill="#FE8836"/><path d="m51.278 60.23-47.256.034V3.522h76.656v4.639H33.422l-.314.453-2.057 2.964h49.627l-.07 13.916 3.592-.733V0H.5v63.821h51.685l-.907-3.592Z" fill="#fff"/><path d="M84.201 60.23h-16.67l.872 3.488h15.798V60.23Z" fill="#fff"/><path d="m15.914 8.129-2.337 3.487H9.183l2.302-3.487h4.429Z" fill="#fff"/><path d="m22.335 8.129-2.302 3.487h-4.43l2.268-3.487h4.464Z" fill="#fff"/><path d="m28.714 8.129-2.267 3.487h-4.464l2.302-3.487h4.429Z" fill="#fff"/><path d="M80.572 63.82v-7.707l3.627.698v7.01h-3.627Z" fill="#fff"/><path d="m43.047 22.672-2.057 3.104H9.184v-3.104h33.863Z" fill="#fff"/><path d="m36.909 31.95-2.023 3.068H9.183V31.95H36.91Z" fill="#fff"/><path d="m30.98 40.91-2.057 3.104H9.183V40.91H30.98Z" fill="#fff"/></svg>