<svg width="110" height="67" fill="none" xmlns="http://www.w3.org/2000/svg"><path fill-rule="evenodd" clip-rule="evenodd" d="M25.799 19.205 40.235 41.23l14.437-22.025C54.108 10.548 47.555 4.26 40.235 4.26c-7.32 0-13.873 6.288-14.436 14.945Zm33.172 1.212L40.235 49 21.5 20.417C21.5 9.14 29.888 0 40.235 0c10.348 0 18.736 9.14 18.736 20.417Z" fill="#1C3C70"/><path fill-rule="evenodd" clip-rule="evenodd" d="M39.87 21.683a4.387 4.387 0 1 0 0-8.775 4.387 4.387 0 0 0 0 8.775Zm0 4.26a8.647 8.647 0 1 0 0-17.295 8.647 8.647 0 0 0 0 17.295Z" fill="#005EAB"/><path d="M.5 66.8h3.93L12.889 54h-3.93L.5 66.8Z" fill="#005EAB"/><path d="M20.934 66.8h3.93l8.46-12.8h-3.93l-8.46 12.8Z" fill="#005EAB"/><path d="M40.805 66.8h3.93L53.194 54h-3.93l-8.46 12.8Z" fill="#005EAB"/><path d="M60.5 66.8h3.93L72.889 54h-3.93L60.5 66.8Z" fill="#005EAB"/></svg>