<svg width="269" height="153" fill="none" xmlns="http://www.w3.org/2000/svg"><path fill-rule="evenodd" clip-rule="evenodd" d="m67.715 91.46-2.787 18.396-4.752-3.717-17.986 26.698-20.178-12.13L1 151.505v-12.029l18.924-28.277 20.322 12.348 14.536-21.627-4.606-3.604 17.54-6.855Zm-26.947 34.421-20.32-12.346L2.745 139.99v.005l17.704-26.454 20.32 12.346 15.014-22.34 2.613 2.13.003-.005-2.615-2.131-15.015 22.34Z" fill="#FE8836"/><path fill-rule="evenodd" clip-rule="evenodd" d="m68.027 91.07-2.916 19.247-4.878-3.816-17.968 26.672-20.18-12.13L.75 152.315V139.4l19.1-28.538 20.322 12.347 14.273-21.236-4.768-3.73 18.35-7.173Zm-17.351 7.32 4.444 3.476-14.8 22.018-20.322-12.347L1.25 139.552v11.142l20.688-30.323L42.115 132.5l18.004-26.723 4.626 3.619 2.658-17.545-16.727 6.538Zm5.053 4.784 3.004 2.449-.284.421-2.612-2.13-14.996 22.311-20.319-12.346-18.028 26.939v-.904l17.88-26.717 20.32 12.346 15.035-22.369Z" fill="#FE8836"/><path d="M147.701 116.095v10.777h-17.962v17.962h-10.777v-17.962H101v-10.777h17.962V98.133h10.777v17.962h17.962Z" fill="#fff"/><path d="M6 2h56.708L34.354 48.7 6 2Z" fill="#fff"/><path d="m197.214 125.391 24.539 12.822 24.374-12.822v13.448l-24.374 12.665-24.539-12.665v-13.448Zm24.539-33.93 38.279 20.014v26.738h-6.871v-23.142l-31.408 16.419-38.443-20.015 38.443-20.015Z" fill="#fff"/><path fill-rule="evenodd" clip-rule="evenodd" d="m174.646 8.74 11.218 8.875 4.14 17.743h25.602l3.629-17.19h4.252l4.011 17.19H253.1l3.313-15.693 11.636-9.205-5.333-6.741-7.398 5.853H189.55L179.979 2l-5.333 6.74Zm81.27 2.551h-66.964l-8.691-6.876-3.2 4.044.007.005 3.196-4.04 8.691 6.877h66.963l6.519-5.157 3.194 4.037.003-.003-3.2-4.044-6.518 5.157Zm-47.362 15.37h-11.65l-1.958-8.393h15.38l-1.772 8.393Zm-13.013 1.72.002.01h14.407l2.498-11.832h-.005l-2.495 11.821h-14.407Zm50.507-1.72h-11.649l-1.959-8.393h15.38l-1.772 8.393Zm-13.013 1.72.002.01h14.408l2.497-11.832h-.004l-2.496 11.821h-14.407Z" fill="#fff"/><path d="M126.806 22.357c-5.459-2.11-7.122-3.505-7.122-5.97 0-2.019 1.537-4.373 5.872-4.373a14.696 14.696 0 0 1 7.298 1.841l.47.25 1.822-4.494-.337-.185a17.194 17.194 0 0 0-7.539-1.994V2h-4.622v5.708c-2.464.265-4.739 1.36-6.4 3.082-1.661 1.721-2.593 3.95-2.622 6.267 0 5.57 4.878 8.127 10.144 10.06 4.595 1.736 6.464 3.546 6.464 6.245 0 2.97-2.733 5.042-6.648 5.042a16.2 16.2 0 0 1-8.347-2.328l-.489-.306-1.75 4.566.282.188a18.543 18.543 0 0 0 8.946 2.525v5.652h4.687v-5.877c2.576-.31 4.946-1.477 6.678-3.285 1.732-1.81 2.711-4.14 2.757-6.567 0-4.892-2.855-8.067-9.544-10.615Z" fill="#fff"/><path fill-rule="evenodd" clip-rule="evenodd" d="M125.556 12.014c-4.335 0-5.872 2.354-5.872 4.373 0 2.465 1.663 3.86 7.122 5.97 6.689 2.548 9.544 5.723 9.544 10.615-.046 2.427-1.025 4.758-2.757 6.566-1.732 1.81-4.102 2.975-6.678 3.286v5.877h-4.687v-5.652a18.543 18.543 0 0 1-8.946-2.525l-.282-.188 1.75-4.566.489.306c.413.25.836.482 1.27.694a16.286 16.286 0 0 0 7.077 1.634c3.915 0 6.648-2.072 6.648-5.042 0-2.699-1.869-4.509-6.464-6.245-5.266-1.934-10.144-4.49-10.144-10.06.029-2.318.961-4.546 2.622-6.267s3.936-2.817 6.4-3.082V2h4.622v5.432c2.649.083 5.236.767 7.539 1.994l.337.185-1.822 4.494-.47-.25c-.429-.24-.871-.457-1.323-.65a14.781 14.781 0 0 0-5.975-1.191Zm3.714-6.423c2.27.3 4.469 1 6.479 2.07l.01.005 1.909 1.045-3.324 8.201-2.446-1.3-.018-.01a12.7 12.7 0 0 0-6.304-1.588h-.02c-1.809 0-2.75.486-3.217.91-.468.425-.655.96-.655 1.463 0 .383.062.63.153.822.093.196.268.447.646.763.82.688 2.319 1.466 5.04 2.517 3.478 1.326 6.198 2.898 8.051 4.959 1.913 2.128 2.776 4.637 2.776 7.524v.039c-.056 2.946-1.245 5.752-3.312 7.91-1.656 1.73-3.787 2.953-6.123 3.557V50.7h-8.687v-5.79a20.449 20.449 0 0 1-7.959-2.663l-.049-.029-1.66-1.107 3.193-8.327 2.536 1.589a14.2 14.2 0 0 0 7.3 2.03c1.622 0 2.83-.432 3.581-1.001.716-.543 1.064-1.233 1.064-2.04 0-.797-.24-1.409-.899-2.046-.747-.723-2.057-1.491-4.263-2.326-2.663-.978-5.477-2.196-7.635-4.009-2.242-1.883-3.811-4.444-3.811-7.925v-.024c.035-2.846 1.18-5.557 3.183-7.632 1.583-1.64 3.615-2.795 5.839-3.36V0h8.622v5.59Z" fill="#fff"/></svg>