<svg width="91" height="114" fill="none" xmlns="http://www.w3.org/2000/svg"><path d="M48.172 10.902v5.003H17.659l3.301-5.002h27.212Z" fill="#7DC6ED"/><path d="M62.722 15.905V30.56H58.37V15.905h4.352Zm5.002-5.002H53.368v24.66h14.356v-24.66Z" fill="#7DC6ED"/><path d="M40.172 20.816v5.003H11.11l3.302-5.003h25.761Z" fill="#7DC6ED"/><path d="M47.025 30.863H11.11v5.002h35.916v-5.002Z" fill="#7DC6ED"/><path d="M66.728 75.427H40.166v5.002h26.562v-5.002Z" fill="#7DC6ED"/><path d="M66.926 85.47H35.962v5.002h30.964v-5.003Z" fill="#7DC6ED"/><path d="M66.926 65.277H35.962v5.002h30.964v-5.002Z" fill="#7DC6ED"/><path d="M48.526 51.173H11.109v5.002h37.417v-5.002Z" fill="#7DC6ED"/><path d="M25.716 70.326v15.357h-9.604V70.326h9.604Zm5.002-5.002H11.109v25.361h19.609v-25.36Z" fill="#7DC6ED"/><path d="M67.284 40.761H11.109v5.003h56.175V40.76Z" fill="#7DC6ED"/><path d="M78.785 12.055V0H16.207l-3.852 5.853-6.502 10.004L0 24.461v77.434h11.955V114H90.79V12.055H78.785ZM5.853 95.992V24.711l5.802-8.804 3.352-5.002 3.301-5.002h54.574v90.04l-67.03.05Zm79.184 12.155h-67.18v-6.252h60.928V17.858h6.252v90.289Z" fill="#7DC6ED"/></svg>