<svg width="176" height="203" fill="none" xmlns="http://www.w3.org/2000/svg"><path fill-rule="evenodd" clip-rule="evenodd" d="m49.203 68.028 9.263 7.328 3.42 14.652h21.141l2.997-14.196h3.511l3.313 14.196h21.142l2.736-12.959 9.608-7.602-4.404-5.566-6.109 4.833h-54.31l-7.904-6.253-4.404 5.567Zm67.112 2.106H61.017l-7.177-5.679-2.643 3.34.003.002 2.64-3.336 7.177 5.678h55.298l5.383-4.258 2.639 3.336.003-.002-2.642-3.34-5.383 4.259ZM77.204 82.826h-9.62l-1.618-6.93h12.7l-1.462 6.93Zm1.15 1.42H66.458l-2.278-9.764h-.001l2.28 9.77h11.897l2.063-9.77h-.002l-2.061 9.764Zm29.812-1.42h-9.62l-1.617-6.93h12.7l-1.463 6.93Zm1.151 1.42H97.42l-2.279-9.764 2.279 9.77h11.898l2.062-9.77h-.001l-2.062 9.764Z" fill="#fff"/><path d="M136.342 57.46V39.6a17.654 17.654 0 0 0-13.778-17.248A35.516 35.516 0 0 0 89.7 0h-2.245a48.99 48.99 0 0 0-48.887 48.99v8.47a17.759 17.759 0 0 0-3.164 13.983 16.737 16.737 0 0 0 9.39 11.84A48.381 48.381 0 0 0 55 102.47l12.145 12.247a17.453 17.453 0 0 0 12.451 5.205h15.207a17.461 17.461 0 0 0 12.451-5.205l12.248-12.656a65.184 65.184 0 0 0 11.329-19.391 15.413 15.413 0 0 0 8.573-12.758 19.588 19.588 0 0 0-3.062-12.452Zm-16.329 19.188a25.817 25.817 0 0 1-7.655 18.575l-12.247 12.248a7.966 7.966 0 0 1-5.308 2.143H80.108a7.965 7.965 0 0 1-5.308-2.143L62.654 95.223A25.719 25.719 0 0 1 55 76.648V63.38h10.206a58.277 58.277 0 0 0 36.946-12.35 27.348 27.348 0 0 0 18.065 12.35l-.204 13.268Zm6.225-23.372h-1.224a17.15 17.15 0 0 1-14.595-8.267l-5.001-8.369-1.327-2.143-1.939 1.735-2.858 2.858a47.664 47.664 0 0 1-33.986 14.186H48.672v-4.287a38.783 38.783 0 0 1 38.783-38.783H89.7a25.207 25.207 0 0 1 24.189 18.167l.612 2.348v1.326h3.879a7.55 7.55 0 0 1 7.45 7.553l.408 13.676Z" fill="#fff"/><path d="m175.229 200.754-6.94-41.335a36.338 36.338 0 0 0-24.393-28.577l-25.617-8.369v-4.491h-10.206a21.74 21.74 0 0 0 .51 8.88c.416.777.93 1.498 1.531 2.143a35.829 35.829 0 0 1-22.76 9.288 29.71 29.71 0 0 1-21.739-10.206 9.332 9.332 0 0 0 1.123-1.633 20.416 20.416 0 0 0 .612-8.88H57.144v4.899l-25.617 8.573a36.338 36.338 0 0 0-24.393 28.577L.092 200.754V203h175.443l-.306-2.246Zm-163.196-7.859 5.307-31.843a26.532 26.532 0 0 1 17.555-20.412l21.433-7.144a42.454 42.454 0 0 0 30.618 15.003 46.229 46.229 0 0 0 32.455-14.799l20.413 6.94a26.528 26.528 0 0 1 17.554 20.412l6.022 31.843H12.033Z" fill="#FE8836"/><path d="M92.365 174.608h53.944v22.713h-9.937v-12.776h-34.07v12.776h-9.937v-22.713Z" fill="#FE8836"/></svg>