<svg width="110" height="110" viewBox="0 0 110 110" fill="none" xmlns="http://www.w3.org/2000/svg">
<path d="M30.8837 66.0086C29.7302 63.7119 28.6637 63.9548 28.0107 59.7588C27.7278 57.9259 28.9249 54.8783 29.7084 53.2883C25.2684 50.5719 22.4824 45.846 22.896 40.6563C23.2442 36.1511 25.8995 32.2865 29.7519 29.9677C28.5766 28.0022 27.9672 25.7275 28.1631 23.3204C28.6637 16.9161 34.5185 12.0355 41.4832 11.9693C42.0491 4.88034 48.8615 -0.441879 56.6969 0.0439668C63.0305 0.441477 68.1235 4.54908 69.5382 9.8713C75.2406 11.4834 79.1801 16.4523 78.7665 22.0616C78.7448 22.4812 78.6795 22.8787 78.5924 23.2983C83.0107 25.4405 85.8837 29.7689 85.4919 34.5832C85.2525 37.7633 83.6419 40.5458 81.226 42.5334C81.596 43.7701 81.7483 45.0951 81.6395 46.4422C81.4219 49.269 80.1377 51.7866 78.1571 53.7299C80.1377 56.2475 82.0095 59.538 80.943 62.696C80.2248 64.8381 79.3107 64.9706 78.9189 66.0307L30.8837 66.0086Z" fill="#B75669"/>
<path d="M58.657 47.7672C58.1129 48.1647 57.634 48.2089 57.1987 48.0985C57.7646 49.1585 57.4599 52.5152 56.9375 55.8499C56.7852 56.7554 56.6328 58.235 56.4805 59.9796C56.6546 59.2508 56.8287 58.3675 56.9375 57.3737C57.3075 53.7961 58.8311 49.5339 58.657 47.7672Z" fill="#686643"/>
<path d="M55.935 66.9802C55.7609 69.6082 55.6085 71.9932 55.5215 73.3624C55.7391 73.4508 55.9568 73.5391 56.1962 73.6495C56.3268 72.3024 56.4574 70.6903 56.5009 69.3652C56.5662 66.5606 56.4574 65.4564 55.935 66.9802Z" fill="#CFA355"/>
<path d="M65.1633 23.3195C64.4233 23.4078 63.5962 23.8936 63.8791 24.9758C63.9444 25.2187 64.0097 25.4616 64.075 25.7487C65.0327 26.1683 65.468 24.4678 65.1633 23.3195Z" fill="#F1E9C6"/>
<path d="M67.7759 21.1561C67.0359 22.5474 66.5136 23.4528 65.7736 23.3203C65.643 23.9607 66.3395 24.4024 67.2754 22.8124C68.2112 21.2223 68.9513 20.2727 69.4954 20.1844C68.9077 19.6985 68.3418 20.096 67.7759 21.1561Z" fill="#F1E9C6"/>
<path d="M45.2922 26.3679C45.1616 27.5163 45.2269 29.7246 46.2281 33.6777C47.2293 37.6086 47.8605 40.0157 47.8605 40.0157C49.0575 40.8329 49.2317 42.9971 49.1228 43.3725C48.9922 43.7479 51.6911 45.7134 52.257 45.6471C51.3864 45.3821 50.5593 43.8583 49.5581 41.4512C48.0564 37.8294 47.5558 35.864 46.5546 32.441C45.5534 29.018 45.7493 26.3458 46.1193 24.9545C46.1628 24.7999 46.1628 24.6674 46.1846 24.557C45.5534 24.7558 45.401 25.5066 45.2922 26.3679Z" fill="#DEC26A"/>
<path d="M44.5528 27.0748C44.6181 25.9927 45.184 24.8444 44.6834 24.9769C44.1828 25.1094 43.1816 24.4689 42.311 23.1439C41.4404 21.8189 40.6133 20.538 40.0039 20.9134C40.5045 21.5539 43.421 25.7277 43.791 28.1349C43.791 28.1349 44.4004 31.2708 45.1187 34.5392L45.641 34.2963C45.184 31.8229 44.4875 28.1128 44.5528 27.0748Z" fill="#BAAF6B"/>
<path d="M52.366 55.4527C52.3008 59.7812 52.9319 65.3022 53.1061 66.6272C53.3019 67.9522 54.042 66.5609 54.412 65.6776C54.782 64.7942 55.4132 65.7438 56.0444 64.3526C56.0661 64.2863 56.0879 64.2642 56.1096 64.2642C56.3708 60.8191 56.6538 57.4403 56.915 55.8503C57.4373 52.5377 57.742 49.1588 57.1761 48.0988C56.9803 48.0326 56.7844 47.9442 56.6102 47.8338C55.7396 47.3259 54.9126 47.3259 54.2378 47.5688C53.7155 47.7675 53.1061 48.1651 52.6272 48.2755C52.2137 48.938 52.4313 51.4556 52.366 55.4527Z" fill="#E7CF7F"/>
<path d="M50.6244 53.5535C50.6244 53.5314 50.6244 53.5093 50.6026 53.4651C50.4067 52.8689 50.1891 51.7647 49.9279 50.1084C49.4273 46.9945 49.1226 47.635 49.4926 46.4204C49.8626 45.2057 48.992 45.2057 48.3608 44.7641C48.1432 44.6095 47.969 44.4107 47.7949 44.0574C48.0779 45.6916 48.8614 49.5121 49.4708 51.2346C49.7973 52.1622 50.1673 55.1214 50.4503 58.0365C51.2773 62.4312 51.9738 68.3718 51.4297 71.7506C51.5168 71.7948 51.7126 71.8389 51.9521 71.9273C52.1262 67.908 51.2556 56.7556 50.6244 53.5535Z" fill="#6D582A"/>
<path d="M56.1318 64.2641C56.11 64.2641 56.0883 64.2862 56.0665 64.3525C55.4353 65.7438 54.8041 64.7941 54.4341 65.6775C54.0641 66.5609 53.3024 67.9742 53.1282 66.6271C52.9324 65.3021 52.3229 59.759 52.3882 55.4526C52.4535 51.4555 52.2359 48.9379 52.6494 48.2754C52.4753 48.3195 52.3229 48.3195 52.1924 48.2754C51.6918 48.0766 51.4306 48.3416 51.5612 49.7992C51.6918 51.2567 51.4959 53.2884 51.1259 53.8626C50.9518 54.1276 50.7776 53.9951 50.6035 53.4651C50.6035 53.4872 50.6035 53.5093 50.6253 53.5534C51.2782 56.7556 52.1271 67.908 51.9747 71.9935C52.7365 72.2585 54.1294 72.7885 55.5441 73.3627C55.653 71.5297 55.8706 67.8638 56.1318 64.2641Z" fill="#DEC26A"/>
<path d="M47.8183 44.0788C47.47 43.3501 47.1218 42.0029 46.4906 39.0658C46.4906 39.0658 46.0118 36.5703 45.6853 34.6269C45.6635 34.5165 45.6418 34.4061 45.62 34.2957L45.0977 34.5386C45.5547 36.6586 46.0553 38.8229 46.4471 40.2141C47.4483 43.7697 48.3624 49.9973 49.4942 53.7958C49.7989 54.7895 50.1471 56.3133 50.4736 58.058C50.1907 55.1429 49.8424 52.1616 49.4942 51.2561C48.863 49.5336 48.1012 45.713 47.8183 44.0788Z" fill="#DEC26A"/>
<path d="M66.3836 27.9577C66.3618 28.024 66.3401 28.1123 66.3183 28.2007C66.3183 28.2227 66.2965 28.2448 66.2965 28.2669C66.2748 28.3553 66.253 28.4436 66.2095 28.554C66.2095 28.5761 66.2095 28.5982 66.1877 28.6203C66.166 28.7086 66.1224 28.819 66.1007 28.9294C66.1007 28.9515 66.0789 28.9736 66.0789 28.9957C66.0354 29.1061 66.0136 29.2386 65.9701 29.3711C65.9701 29.4153 65.9483 29.4374 65.9483 29.4815C65.9048 29.614 65.883 29.7465 65.8395 29.879C65.8395 29.9011 65.8177 29.9453 65.8177 29.9674C65.796 30.0778 65.7524 30.2103 65.7307 30.3428C65.7089 30.4091 65.7089 30.4532 65.6871 30.5195C65.6436 30.652 65.6218 30.7845 65.5783 30.917C65.5565 31.0053 65.5348 31.1157 65.4912 31.2041C65.4912 31.2482 65.4695 31.2703 65.4695 31.3145C65.143 32.5733 64.773 34.0087 64.4248 35.3559C64.4248 35.3559 64.4248 35.3559 64.4248 35.3779C64.3159 35.7755 64.2071 36.195 64.0983 36.5705C64.0983 36.5926 64.0983 36.5926 64.0983 36.6146C64.0983 36.6146 64.0983 36.6146 64.0983 36.6367C64.0548 36.8134 63.9895 36.9901 63.9459 37.1667L63.9242 37.2109C63.8806 37.3876 63.8371 37.5422 63.7936 37.6968V37.7188C63.7501 37.8734 63.7065 38.028 63.663 38.1826C63.663 38.2268 63.6412 38.2489 63.6412 38.293C63.5977 38.4476 63.5542 38.5801 63.5106 38.7126C62.5747 41.8265 59.2665 49.6883 58.1347 56.6227C57.1117 62.9608 56.8506 71.3527 56.8723 73.9586C56.9376 73.9807 57.0029 74.0248 57.0682 74.0469C57.0682 74.0469 57.917 73.5169 58.8094 72.9427C57.5035 68.813 59.3971 57.6385 60.5071 53.818C61.6388 49.9975 63.01 44.5428 64.0112 40.9873C65.0124 37.4317 66.6448 28.7969 66.6448 28.7969C67.0148 26.3898 69.5178 21.5534 70.0184 20.913C68.7778 21.2884 66.8842 26.3677 66.3836 27.9577Z" fill="#DACBA1"/>
<path d="M66.8175 25.1092C66.121 26.6992 65.011 32.0214 64.184 34.7598C64.1404 34.8703 64.1187 34.9807 64.0751 35.1132C64.0751 35.1353 64.0534 35.1794 64.0534 35.2015C64.0316 35.3119 63.9881 35.4224 63.9663 35.5328C63.8792 35.8199 63.7922 36.107 63.7051 36.4161C63.7051 36.4161 63.7051 36.4161 63.7051 36.4382C63.5745 36.902 63.4222 37.3878 63.2698 37.9178C63.2698 37.9399 63.2698 37.962 63.2481 37.962C63.2045 38.1166 63.1392 38.2712 63.0957 38.4479V38.4699C63.1392 38.4037 63.161 38.3374 63.2045 38.2712C63.6398 37.3657 64.0751 36.3057 64.1187 36.6149C64.1187 36.5928 64.1187 36.5928 64.1187 36.5707C64.2275 36.1953 64.3363 35.7757 64.4451 35.3782C64.4451 35.3782 64.4451 35.3782 64.4451 35.3561C64.7934 33.9869 65.1634 32.5735 65.4899 31.3147L65.5116 31.2043C65.5334 31.116 65.5552 31.0056 65.5987 30.9172C65.6422 30.7847 65.664 30.6522 65.7075 30.5197C65.7293 30.4535 65.7293 30.4093 65.751 30.3431C65.7728 30.2106 65.8163 30.1001 65.8381 29.9676C65.8381 29.9455 65.8599 29.9014 65.8599 29.8793C65.9034 29.7468 65.9252 29.6143 65.9687 29.4818C65.9687 29.4376 65.9905 29.4155 65.9905 29.3714C66.034 29.2389 66.0557 29.1064 66.0993 28.9959C66.0993 28.9739 66.121 28.9518 66.121 28.9297C66.1428 28.8193 66.1863 28.7309 66.2081 28.6205C66.2081 28.5984 66.2299 28.5763 66.2299 28.5543C66.2516 28.4438 66.2952 28.3555 66.3169 28.2672C66.3169 28.2451 66.3169 28.223 66.3387 28.2009C66.3605 28.1126 66.3822 28.0242 66.404 27.958C66.9046 26.3679 68.7764 21.2886 70.0387 20.9132C69.8646 20.582 69.6687 20.339 69.4946 20.1844C68.4934 20.582 67.4487 23.6516 66.8175 25.1092Z" fill="#6D582A"/>
<path d="M65.7109 30.4753C65.6664 30.6081 65.6441 30.7409 65.5996 30.8737C65.6219 30.7409 65.6664 30.6081 65.7109 30.4753Z" fill="#6D582A"/>
<path d="M66.1035 28.9739C66.059 29.0845 66.0367 29.2173 65.9922 29.3501C66.0367 29.2173 66.059 29.1067 66.1035 28.9739Z" fill="#6D582A"/>
<path d="M66.298 28.2668C66.2757 28.3554 66.2535 28.4439 66.209 28.5545C66.2535 28.4439 66.2757 28.3554 66.298 28.2668Z" fill="#6D582A"/>
<path d="M65.9726 29.46C65.9281 29.5927 65.9058 29.7255 65.8613 29.8583C65.9058 29.7255 65.9281 29.5927 65.9726 29.46Z" fill="#6D582A"/>
<path d="M66.3851 27.9585C66.3629 28.0249 66.3406 28.1134 66.3184 28.2019C66.3406 28.1134 66.3629 28.0249 66.3851 27.9585Z" fill="#6D582A"/>
<path d="M64.0977 36.5933C64.0977 36.5709 64.0977 36.5709 64.0977 36.5486C64.12 36.5709 64.12 36.5709 64.0977 36.5933Z" fill="#6D582A"/>
<path d="M65.5121 31.1823L65.4902 31.2928C65.4902 31.2486 65.5121 31.2265 65.5121 31.1823Z" fill="#6D582A"/>
<path d="M65.841 29.9448C65.8187 30.0555 65.7742 30.1883 65.752 30.3211C65.7742 30.1883 65.8187 30.0776 65.841 29.9448Z" fill="#6D582A"/>
<path d="M66.2101 28.6198C66.1879 28.7083 66.1433 28.8189 66.1211 28.9296C66.1433 28.7968 66.1656 28.7083 66.2101 28.6198Z" fill="#6D582A"/>
<path d="M58.1335 56.6006C59.2653 49.6883 62.5736 41.8043 63.5095 38.6905C63.553 38.558 63.5966 38.4034 63.6401 38.2709C63.6401 38.2267 63.6619 38.2046 63.6619 38.1605C63.7054 38.0059 63.7489 37.8513 63.7924 37.6967V37.6746C63.836 37.52 63.8795 37.3434 63.923 37.1888L63.9448 37.1446C63.9883 36.9679 64.0319 36.7913 64.0972 36.6146V36.5925C64.0754 36.3054 63.6183 37.3434 63.183 38.2488C63.1613 38.3151 63.1177 38.3813 63.0742 38.4476C63.0307 38.6242 62.9654 38.7788 62.9218 38.9555C62.9218 38.9776 62.9218 38.9776 62.9001 38.9997C62.8565 39.1543 62.813 39.3088 62.7477 39.4413C62.726 39.4855 62.726 39.5076 62.7042 39.5518C62.6607 39.6843 62.6171 39.8389 62.5736 39.9714C62.5736 39.9934 62.5518 40.0376 62.5518 40.0597C62.4865 40.2364 62.443 40.391 62.3777 40.5676C62.3777 40.5897 62.356 40.6118 62.356 40.6339C62.3124 40.7664 62.2689 40.921 62.2036 41.0535C62.1818 41.0976 62.1818 41.1418 62.1601 41.186C62.1165 41.3185 62.073 41.451 62.0295 41.5835C62.0077 41.6277 62.0077 41.6497 61.9859 41.6939C61.9206 41.8485 61.8771 42.0252 61.8118 42.1798C61.8118 42.2018 61.7901 42.2239 61.7901 42.246C61.7465 42.3785 61.6812 42.511 61.6377 42.6435C61.6159 42.6877 61.5942 42.7319 61.5942 42.776C61.5506 42.8864 61.5071 42.9969 61.4636 43.1294C61.4418 43.1735 61.4418 43.2177 61.4201 43.2619C61.3548 43.4165 61.3112 43.549 61.2459 43.7035C61.2459 43.7256 61.2242 43.7477 61.2242 43.7477C61.1806 43.8802 61.1153 43.9906 61.0718 44.1231C61.0501 44.1673 61.0283 44.2115 61.0283 44.2556C60.9848 44.3661 60.9412 44.4544 60.8977 44.5427C60.8759 44.5869 60.8542 44.6311 60.8542 44.6532C60.7889 44.7857 60.7453 44.9182 60.68 45.0286C60.68 45.0286 60.68 45.0507 60.6583 45.0507C60.6148 45.1611 60.5495 45.2715 60.5059 45.3819C60.4842 45.4261 60.4624 45.4482 60.4406 45.4923C60.3971 45.5807 60.3536 45.6469 60.31 45.7353C60.2883 45.7574 60.2665 45.8015 60.2665 45.8236C60.2012 45.934 60.1577 46.0224 60.0924 46.1107C60.0053 46.2432 59.9183 46.3757 59.8312 46.4861C59.8094 46.5082 59.7877 46.5524 59.7659 46.5745C59.7006 46.6628 59.6353 46.7732 59.5483 46.8615C59.5265 46.8836 59.5265 46.9057 59.5047 46.9057C59.4394 46.9941 59.3524 47.0824 59.2871 47.1707C59.2653 47.1928 59.2436 47.237 59.2 47.2591C59.1565 47.3253 59.0912 47.3695 59.0477 47.4136C59.0259 47.4357 59.0041 47.4578 58.9824 47.4799C58.9171 47.5462 58.8518 47.5903 58.8083 47.6345C58.7647 47.6566 58.743 47.6787 58.7212 47.7007C58.6994 47.7007 58.6994 47.7228 58.6777 47.7449C58.8518 49.5116 57.3282 53.7738 56.9582 57.3293C56.8494 58.3231 56.697 59.1844 56.5012 59.9352C56.3053 62.0774 56.1312 64.617 55.957 66.9579C56.4576 65.4341 56.5665 66.5383 56.5229 69.3209C56.5012 70.6459 56.3706 72.236 56.2182 73.6052C56.4359 73.6935 56.6535 73.8039 56.8712 73.8923C56.8494 71.3305 57.0888 62.9166 58.1335 56.6006Z" fill="#6D582A"/>
<path d="M63.663 38.1605C63.663 38.2049 63.6406 38.2271 63.6406 38.2715C63.6406 38.2271 63.663 38.2049 63.663 38.1605Z" fill="#6D582A"/>
<path d="M63.8186 37.6744V37.7006C63.7922 37.7006 63.7922 37.7006 63.8186 37.6744Z" fill="#6D582A"/>
<path d="M63.9676 37.145L63.9453 37.1897L63.9676 37.145Z" fill="#6D582A"/>
<path d="M64.0762 35.1802C64.0762 35.158 64.0982 35.1136 64.0982 35.0914C64.0982 35.1358 64.0762 35.158 64.0762 35.1802Z" fill="#F1E9C6"/>
<path d="M63.7051 36.3944C63.7922 36.085 63.8793 35.7756 63.9665 35.5104C63.9011 35.7756 63.814 36.085 63.7051 36.3944Z" fill="#F1E9C6"/>
<path d="M63.0957 38.4266C63.1393 38.2716 63.2048 38.0946 63.2484 37.9397C63.2048 38.0946 63.1611 38.2495 63.0957 38.4266Z" fill="#F1E9C6"/>
<path d="M63.2695 37.8733C63.4219 37.3654 63.5742 36.8574 63.7048 36.3937C63.5742 36.8795 63.4219 37.3654 63.2695 37.8733Z" fill="#F1E9C6"/>
<path d="M62.0085 41.7168C61.943 41.8717 61.8994 42.0488 61.834 42.2037C61.8994 42.0488 61.9648 41.8938 62.0085 41.7168Z" fill="#F1E9C6"/>
<path d="M60.4199 45.5144C60.3763 45.6029 60.3327 45.6693 60.2891 45.7579C60.3327 45.6693 60.3763 45.5808 60.4199 45.5144Z" fill="#F1E9C6"/>
<path d="M60.2448 45.8241C60.1794 45.9348 60.1357 46.0233 60.0703 46.1118C60.1357 46.0233 60.1794 45.9348 60.2448 45.8241Z" fill="#F1E9C6"/>
<path d="M60.8346 44.6754C60.7692 44.8082 60.7256 44.941 60.6602 45.0516C60.7256 44.941 60.7692 44.8082 60.8346 44.6754Z" fill="#F1E9C6"/>
<path d="M59.812 46.4866C59.7894 46.5089 59.7668 46.5535 59.7441 46.5758C59.7668 46.5535 59.7894 46.5312 59.812 46.4866Z" fill="#F1E9C6"/>
<path d="M61.0293 44.2781C60.9857 44.3887 60.9421 44.4772 60.8984 44.5658C60.9421 44.4772 60.9857 44.3666 61.0293 44.2781Z" fill="#F1E9C6"/>
<path d="M60.6371 45.0728C60.5716 45.1834 60.528 45.2941 60.4844 45.4047C60.528 45.2941 60.5934 45.1834 60.6371 45.0728Z" fill="#F1E9C6"/>
<path d="M59.0499 47.4144C59.0274 47.4366 59.0049 47.4588 58.9824 47.481C59.0049 47.481 59.0274 47.4366 59.0499 47.4144Z" fill="#F1E9C6"/>
<path d="M58.6992 47.7238C58.7218 47.7015 58.7671 47.6792 58.7897 47.6569C58.7671 47.6792 58.7218 47.7015 58.6992 47.7238Z" fill="#F1E9C6"/>
<path d="M59.2917 47.1708C59.269 47.1931 59.2464 47.2377 59.2012 47.2601C59.2238 47.2377 59.2464 47.2154 59.2917 47.1708Z" fill="#F1E9C6"/>
<path d="M59.5309 46.8611C59.5076 46.8841 59.5076 46.907 59.4844 46.907C59.5076 46.907 59.5309 46.8841 59.5309 46.8611Z" fill="#F1E9C6"/>
<path d="M61.6172 42.8198C61.5736 42.9305 61.53 43.0411 61.4863 43.1739C61.53 43.0411 61.5736 42.9305 61.6172 42.8198Z" fill="#F1E9C6"/>
<path d="M61.2249 43.7704C61.1813 43.9032 61.1159 44.0138 61.0723 44.1466C61.1377 44.0138 61.1813 43.9032 61.2249 43.7704Z" fill="#F1E9C6"/>
<path d="M62.7481 39.5745C62.7044 39.7072 62.6608 39.8621 62.6172 39.9949C62.639 39.8621 62.6826 39.7072 62.7481 39.5745Z" fill="#F1E9C6"/>
<path d="M62.5749 40.0822C62.5095 40.2592 62.4658 40.4141 62.4004 40.5911C62.4658 40.4141 62.5095 40.2592 62.5749 40.0822Z" fill="#F1E9C6"/>
<path d="M62.9222 39.0222C62.8786 39.1771 62.835 39.332 62.7695 39.4648C62.8131 39.3099 62.8786 39.155 62.9222 39.0222Z" fill="#F1E9C6"/>
<path d="M62.3792 40.6559C62.3356 40.7887 62.292 40.9436 62.2266 41.0764C62.292 40.9436 62.3356 40.8108 62.3792 40.6559Z" fill="#F1E9C6"/>
<path d="M61.4421 43.2844C61.3766 43.4393 61.333 43.5721 61.2676 43.727C61.3112 43.5721 61.3766 43.4393 61.4421 43.2844Z" fill="#F1E9C6"/>
<path d="M62.1816 41.2307C62.138 41.3635 62.0944 41.4963 62.0508 41.629C62.0944 41.4741 62.138 41.3414 62.1816 41.2307Z" fill="#F1E9C6"/>
<path d="M63.096 38.4474C63.0524 38.6244 62.987 38.7793 62.9434 38.9564C62.987 38.8015 63.0306 38.6244 63.096 38.4474Z" fill="#F1E9C6"/>
<path d="M61.8128 42.2677C61.7692 42.4005 61.7038 42.5333 61.6602 42.666C61.7256 42.5333 61.7692 42.4005 61.8128 42.2677Z" fill="#F1E9C6"/>
<path d="M44.4876 24.1596C45.2276 24.1596 45.6847 24.027 45.1188 25.5508C44.5529 27.0746 46.6859 37.8737 47.7523 40.59L48.0135 41.1642L49.1453 43.3946C49.2759 43.0192 49.08 40.855 47.9047 40.0379C47.9047 40.0379 47.2735 37.6307 46.2723 33.6998C45.2711 29.7689 45.2058 27.5384 45.3364 26.39C45.4235 25.5288 45.5976 24.7779 46.207 24.6012C46.2288 23.5412 44.9447 23.232 44.2699 23.3424C43.5082 23.4749 43.0076 22.5695 42.2676 21.1782C42.6811 22.8787 43.7476 24.1596 44.4876 24.1596Z" fill="#DEC26A"/>
<path d="M67.2768 22.8126C67.168 22.9893 67.0809 23.1218 66.9938 23.2322C66.9938 23.2543 66.9721 23.2985 66.9721 23.3206C66.6674 23.8285 65.2744 26.3681 65.1656 27.1411C65.035 27.8919 64.665 31.2045 63.2285 35.9747C61.792 40.7448 60.4208 43.6599 59.4849 45.1836C58.549 46.7074 57.6131 47.1491 56.5467 46.5749C56.2855 46.4203 56.0896 46.2216 55.959 46.0008C55.9155 45.9787 55.8937 45.9787 55.872 45.9566C54.7402 45.2057 54.8055 43.5494 54.8055 43.5494C54.7184 44.2561 54.479 44.6315 54.3484 44.7861C54.2613 45.0732 54.1743 45.3162 54.1308 45.5149C53.9349 46.2216 52.8249 47.1049 51.6278 46.332C50.779 45.7799 49.8866 44.5211 49.4513 43.8586C49.2554 43.6599 49.1466 43.5053 49.1901 43.4169L48.0583 41.1865L47.8189 40.6123C46.7524 37.8739 44.6195 27.0969 45.1854 25.5731C45.7512 24.0493 45.3159 24.1818 44.5542 24.1818C43.7924 24.1818 42.7477 22.901 42.2906 21.2005C41.5506 19.8092 40.7888 19.5442 40.0488 20.9355C40.68 20.5601 41.4853 21.8189 42.3559 23.166C43.2265 24.491 44.2277 25.1314 44.7283 24.9989C45.2289 24.8664 44.663 26.0148 44.5977 27.0969C44.5324 28.179 45.2942 32.1762 45.7295 34.6496C46.0777 36.593 46.5348 39.0885 46.5348 39.0885C47.4707 43.4611 47.7972 44.3665 48.4066 44.8082C49.0378 45.2499 49.9084 45.2499 49.5384 46.4645C49.1683 47.6791 49.4731 47.0387 49.9737 50.1525C50.4742 53.2664 50.779 54.4589 51.1707 53.9068C51.5407 53.3326 51.7366 51.3009 51.606 49.8434C51.4754 48.3858 51.7366 48.1208 52.2372 48.3196C52.7378 48.5183 53.6084 47.8779 54.3049 47.6129C55.0014 47.3479 55.8067 47.3479 56.6773 47.8779C57.2649 48.2091 57.9179 48.4079 58.7449 47.7675C58.7667 47.7454 58.8102 47.7233 58.832 47.7012C58.8973 47.657 58.9626 47.5908 59.0279 47.5466C59.0496 47.5245 59.0714 47.5025 59.0932 47.4804C59.1367 47.4362 59.202 47.37 59.2455 47.3258C59.2673 47.3037 59.2891 47.2595 59.3326 47.2374C59.3979 47.1491 59.4849 47.0608 59.5502 46.9724C59.5502 46.9504 59.572 46.9504 59.5938 46.9283C59.6591 46.8399 59.7243 46.7516 59.8114 46.6412C59.8332 46.6191 59.8549 46.5749 59.8767 46.5529C59.9638 46.4424 60.0508 46.3099 60.1379 46.1774C60.2032 46.0891 60.2467 46.0008 60.312 45.8903C60.3338 45.8682 60.3555 45.8241 60.3555 45.802C60.3991 45.7357 60.4426 45.6474 60.4861 45.5591C60.5079 45.5149 60.5297 45.4928 60.5514 45.4487C60.6167 45.3382 60.6602 45.2499 60.7038 45.1174C60.7038 45.1174 60.7038 45.0953 60.7255 45.0953C60.7908 44.9849 60.8344 44.8524 60.8997 44.7199C60.9214 44.6757 60.9432 44.6315 60.9432 44.6095C60.9867 44.5211 61.0303 44.4107 61.0738 44.3224C61.0955 44.2782 61.1173 44.234 61.1173 44.1899C61.1608 44.0795 61.2261 43.9469 61.2697 43.8144C61.2697 43.7924 61.2914 43.7703 61.2914 43.7703C61.3567 43.6157 61.4003 43.4832 61.4655 43.3286C61.4873 43.2844 61.4873 43.2403 61.5091 43.1961C61.5526 43.0857 61.5961 42.9753 61.6397 42.8428C61.6614 42.7986 61.6832 42.7544 61.6832 42.7102C61.7267 42.5777 61.792 42.4452 61.8356 42.3127C61.8356 42.2907 61.8573 42.2686 61.8573 42.2465C61.9226 42.0919 61.9661 41.9152 62.0314 41.7606C62.0532 41.7165 62.0532 41.6944 62.075 41.6502C62.1185 41.5177 62.162 41.3852 62.2056 41.2527C62.2273 41.2085 62.2273 41.1644 62.2491 41.1202C62.2926 40.9877 62.3361 40.8331 62.4014 40.7006C62.4014 40.6785 62.4232 40.6564 62.4232 40.6344C62.4885 40.4577 62.532 40.3031 62.5973 40.1264C62.5973 40.1043 62.6191 40.0602 62.6191 40.0381C62.6626 39.9056 62.7061 39.751 62.7497 39.6185C62.7714 39.5743 62.7714 39.5522 62.7932 39.5081C62.8367 39.3535 62.8803 39.1989 62.9456 39.0664C62.9456 39.0443 62.9456 39.0222 62.9673 39.0222C63.0326 38.8456 63.0762 38.6689 63.1197 38.5143C63.1197 38.4922 63.1197 38.4922 63.1197 38.4701C63.1632 38.3155 63.2285 38.1389 63.272 37.9843C63.272 37.9622 63.272 37.9401 63.2938 37.9401C63.4462 37.4322 63.5985 36.9243 63.7291 36.4605C63.7291 36.4605 63.7291 36.4605 63.7291 36.4384C63.8162 36.1292 63.9032 35.8201 63.9903 35.5551C64.0338 35.4446 64.0556 35.3342 64.0773 35.2238C64.0773 35.2017 64.0991 35.1575 64.0991 35.1355C64.1426 35.025 64.1644 34.8925 64.2079 34.7821C65.0132 32.0437 66.145 26.7215 66.8415 25.1315C67.4727 23.696 68.5174 20.6263 69.4968 20.2067C68.9309 20.2951 68.2127 21.2226 67.2768 22.8126Z" fill="#F1E9C6"/>
<path d="M55.4357 40.2813C55.7404 39.4642 56.0669 38.9562 56.4369 39.5304C56.4586 39.5525 56.4586 39.5746 56.4804 39.5967C56.3498 38.8458 55.9798 38.0729 55.1092 38.0729C54.1298 38.0729 53.5204 39.42 53.7162 40.8113C54.1515 41.8051 55.131 41.0763 55.4357 40.2813Z" fill="#F1E9C6"/>
<path d="M55.8062 45.9338C55.8498 45.9559 55.8715 45.978 55.8933 45.978C55.5015 45.2934 55.6321 44.3437 55.6756 43.7696C55.7409 43.0187 56.5462 41.2961 56.5462 40.479C56.5462 40.2361 56.5245 39.9269 56.4592 39.5957C56.4374 39.5736 56.4157 39.5515 56.4157 39.5294C56.0457 38.9552 55.7192 39.4632 55.4145 40.2803C55.1098 41.0753 54.1303 41.8041 53.7168 40.7882C53.7603 41.1416 53.8692 41.517 54.0433 41.8703C54.6309 43.0408 54.4786 44.0346 54.2609 44.7633C54.3915 44.6087 54.6309 44.2333 54.718 43.5266C54.7615 43.5045 54.6962 45.1608 55.8062 45.9338Z" fill="#6D582A"/>
<path d="M56.7617 37.6309C56.3699 37.2997 55.804 37.1009 54.9987 37.0347C54.237 37.0788 53.6711 37.2776 53.2793 37.5868C53.9105 37.6309 54.2805 37.9843 54.4981 38.2493C54.6723 38.1168 54.8899 38.0505 55.1293 38.0505C55.4123 38.0505 55.6299 38.1389 55.804 38.2714C55.9782 38.0284 56.2829 37.7413 56.7617 37.6309Z" fill="#DEC26A"/>
<path d="M53.3678 43.7696C53.4983 44.4101 53.1066 45.9339 52.236 45.6689C51.8007 45.713 50.0595 44.5205 49.3848 43.8138C49.8201 44.4763 50.6907 45.7572 51.5613 46.2872C52.7583 47.0381 53.8684 46.1547 54.0642 45.4701C54.1731 45.0284 54.456 44.388 54.4778 43.5488C54.0642 43.1513 53.5201 42.8642 53.3678 43.7696Z" fill="#DEC26A"/>
<path d="M54.0649 41.8706C53.4119 40.5235 53.6949 38.8451 54.5002 38.2709C54.3043 38.0059 53.9125 37.6526 53.2813 37.6084C52.5848 38.1605 52.3672 39.088 52.3672 40.2364C52.6937 41.6718 53.869 42.1798 54.0649 41.8706Z" fill="#DACBA1"/>
<path d="M54.0648 41.8704C53.869 42.1796 52.6937 41.6717 52.3672 40.2141C52.3672 41.9808 53.2378 43.1292 53.3684 43.7696C53.5207 42.8642 54.0648 43.1513 54.4566 43.5709C54.4784 43.0629 54.3696 42.4888 54.0648 41.8704Z" fill="#CFA355"/>
<path d="M57.5459 41.1414C57.5894 40.8543 57.6329 40.5451 57.6329 40.2138C57.6329 39.1096 57.4371 38.1821 56.7623 37.63C56.2835 37.7404 55.9788 38.0496 55.8047 38.2704C56.4576 38.7342 56.5665 39.8826 56.5665 40.4788C56.5665 40.8763 56.3706 41.4947 56.1529 42.113C56.5229 42.2676 57.1324 41.8922 57.5459 41.1414Z" fill="#DACBA1"/>
<path d="M65.7731 23.3203C65.5989 23.2982 65.4031 23.2982 65.1854 23.3203C65.4901 24.4686 65.0548 26.147 64.0972 25.7274C64.4019 27.0745 64.6195 28.9738 63.7707 31.8226C62.7695 35.2456 61.8989 39.574 60.6366 41.8487C59.3742 44.1454 58.6342 45.4042 57.7636 45.6692C56.893 45.9342 56.5012 44.3883 56.6318 43.77C56.4359 43.262 55.6959 43.77 55.6959 43.77C55.6306 44.5208 55.4347 46.0005 56.5012 46.5746C57.5677 47.1488 58.5036 46.7071 59.4395 45.1833C60.3754 43.6596 61.7466 40.7445 63.183 35.9744C64.6195 31.2042 64.9895 27.9137 65.1201 27.1408C65.2507 26.3679 66.6219 23.8503 66.9266 23.3203C66.9484 23.2982 66.9484 23.2761 66.9484 23.2319C66.1866 24.314 65.6425 23.8945 65.7731 23.3203Z" fill="#DEC26A"/>
<path d="M56.6312 43.7698C56.74 43.2619 57.3277 42.4006 57.5454 41.1418C57.1318 41.8706 56.5224 42.246 56.1741 42.0915C55.9565 42.7319 55.7388 43.3723 55.6953 43.7477C55.6953 43.7698 56.4353 43.2619 56.6312 43.7698Z" fill="#CFA355"/>
<path d="M67.2976 22.0393C67.4499 21.7522 67.6023 21.4431 67.7764 21.1781L55.3921 4.88013L42.0938 21.0235C42.1808 21.1118 42.4202 21.5093 42.6161 21.8847L55.3921 6.35975L67.2976 22.0393Z" fill="#BAD2ED"/>
<path d="M55.3698 6.33728L42.5938 21.8623C42.7896 22.1935 42.942 22.4585 42.942 22.4585C42.942 22.4585 43.3773 23.0548 43.8996 23.2535H66.187C66.5135 23.1431 66.7093 22.9223 66.927 22.6573C67.0576 22.4806 67.1664 22.2598 67.297 22.0389L55.3698 6.33728Z" fill="#E1E6F4"/>
<path d="M44.2486 23.3204C44.2486 23.3204 44.8798 23.2321 45.2716 23.4529C45.6851 23.6738 46.1857 23.8946 46.1639 24.6896H63.8588C63.8588 24.6896 63.7935 24.1817 64.0547 23.8725C64.3159 23.5633 64.9253 23.3646 65.1865 23.3425C65.4477 23.2983 65.7741 23.3425 65.7741 23.3425C65.9483 23.3425 66.0789 23.3204 66.2094 23.2762H43.9004C44.0092 23.2983 44.118 23.3204 44.2486 23.3204Z" fill="#BAD2ED"/>
<path d="M36.3257 102.447C34.0404 101.917 32.8651 100.901 31.1239 99.6864C30.2315 99.046 28.3815 97.5001 29.1215 98.516C27.3803 97.3013 25.8567 95.888 24.2679 94.4304C24.8556 93.5692 25.9873 91.5816 26.292 88.7769C26.6403 85.7073 24.1373 82.8805 24.1373 82.8805C24.1373 82.8805 21.4167 86.0827 21.569 89.2628C21.6343 90.4332 22.2438 91.8908 22.8097 93.0391C21.2426 91.4712 19.7843 89.7707 18.4349 87.9598C19.1531 87.2311 20.5896 85.5085 21.3732 82.8364C22.222 79.9213 20.2849 76.7854 20.2849 76.7854C20.2849 76.7854 17.129 79.3913 16.7372 82.5051C16.5849 83.6535 16.9549 85.1993 17.3249 86.3919C15.9319 84.4706 14.7349 82.483 13.6901 80.4071C14.4737 79.855 16.2149 78.4417 17.4555 75.9241C18.7614 73.274 17.4119 69.8952 17.4119 69.8952C17.4119 69.8952 13.9296 71.8606 13.0372 74.7978C12.689 75.9683 12.7978 77.6687 12.9937 78.9496C11.9489 76.6749 11.0784 74.3561 10.3819 72.0152C11.2307 71.6177 13.146 70.5577 14.7566 68.3493C16.4543 66.0084 15.736 62.5191 15.736 62.5191C15.736 62.5191 12.036 63.8221 10.6866 66.4943C10.1642 67.5322 9.9901 69.1222 9.94658 70.3589C9.33716 67.9739 8.90186 65.5667 8.61891 63.1596C9.51128 62.9167 11.5354 62.2321 13.4507 60.377C15.4966 58.4115 15.366 54.9223 15.366 54.9223C15.366 54.9223 11.5789 55.5406 9.81598 57.9036C9.14127 58.809 8.70597 60.3328 8.44479 61.5254C8.22715 59.0299 8.20538 56.5565 8.31421 54.1714C9.14127 54.1052 11.296 53.8181 13.5378 52.3164C15.8449 50.7705 16.3019 47.3696 16.3019 47.3696C16.3019 47.3696 12.5366 47.3033 10.4689 49.2909C9.57657 50.1301 8.83656 51.7643 8.40126 52.9126C8.59715 50.2626 9.01068 47.745 9.57657 45.3599C10.2948 45.4483 12.5148 45.6028 15.0396 44.4766C17.5208 43.3724 18.5437 40.1923 18.5437 40.1923C18.5437 40.1923 14.9307 39.4856 12.5801 41.0315C11.4701 41.7602 10.4036 43.4165 9.81598 44.4545C10.1642 43.1736 10.556 41.959 10.9913 40.8106C11.4484 39.4635 11.9489 38.2047 12.4713 37.0122C13.1678 37.233 15.2572 37.741 17.869 37.1005C20.4373 36.4822 21.9608 33.5671 21.9608 33.5671C21.9608 33.5671 18.5873 32.2642 16.0625 33.3463C14.8872 33.8542 13.3637 35.0688 12.8413 36.1288C14.2778 33.2358 15.3225 31.2262 16.5413 29.3491C17.0637 29.6362 19.0661 30.5858 21.8302 30.4091C24.4203 30.2545 26.3791 27.7149 26.3791 27.7149C26.3791 27.7149 23.332 25.8819 20.7202 26.4782C19.349 26.7873 17.4772 27.9799 16.8678 28.8411C18.239 26.8757 19.0661 25.8598 19.9149 24.8219C20.5243 24.7777 22.3961 24.4906 23.5061 23.1656C25.1603 21.178 25.3344 19.1242 25.3344 19.1242C25.3344 19.1242 22.7008 19.588 21.5473 20.6038C20.1108 21.8626 19.7408 24.071 19.6755 24.5789C18.9573 25.3961 18.152 26.4782 17.2161 27.8253C17.8472 26.9198 18.4349 24.8881 18.3696 23.4968C18.239 20.7143 15.6708 18.2629 15.6708 18.2629C15.6708 18.2629 13.799 20.8688 14.3649 23.4306C14.9743 26.2132 16.389 27.8474 16.7808 28.2449C15.4966 30.0558 14.169 32.3746 12.8631 35.0467C13.146 33.9204 13.516 31.9991 13.2113 30.7183C12.5801 28.002 9.57657 26.0144 9.57657 26.0144C9.57657 26.0144 8.16185 28.9736 9.16304 31.447C10.2295 34.075 11.9707 35.5105 12.4713 35.8859C11.7966 37.3435 11.1219 38.9114 10.5125 40.6119C10.2295 41.3406 9.96834 42.0915 9.70716 42.8644C9.75069 41.6719 9.72892 40.0156 9.27186 38.9335C8.18361 36.3276 4.78829 34.848 4.78829 34.848C4.78829 34.848 3.87416 38.0722 5.31064 40.391C6.74713 42.6878 8.57538 43.8141 9.29363 44.1895C8.64068 46.4641 8.16185 48.8934 7.87891 51.4551C7.70479 50.2626 7.40008 48.7167 6.79066 47.7671C5.22358 45.3378 1.56708 44.4766 1.56708 44.4766C1.56708 44.4766 1.21884 47.8775 3.06886 49.9534C4.89711 51.9851 6.94301 52.8022 7.72655 53.0672C7.5089 55.5185 7.48714 58.0582 7.61773 60.642C7.24772 59.4716 6.6383 57.9257 5.85477 57.0423C3.83063 54.9002 0 54.6793 0 54.6793C0 54.6793 0.239414 58.1686 2.45944 59.9132C4.67946 61.6579 6.87772 62.0996 7.68302 62.21C7.87891 64.595 8.24891 67.0022 8.77127 69.4093C8.20538 68.3272 7.37831 67.0684 6.50772 66.3838C4.13534 64.573 0.239414 65.0588 0.239414 65.0588C0.239414 65.0588 1.08825 68.526 3.63474 69.8731C6.09418 71.176 8.3142 71.2644 9.20657 71.2202C9.77246 73.4286 10.4907 75.5928 11.3613 77.735C10.6431 76.8516 9.72892 75.902 8.83656 75.4382C6.13771 74.047 2.30708 75.2174 2.30708 75.2174C2.30708 75.2174 3.76533 78.5521 6.55125 79.4354C9.14127 80.2746 11.3178 80.0096 12.2754 79.8329C13.2113 81.8426 14.2996 83.8081 15.5402 85.7073C14.6696 84.9564 13.6031 84.1835 12.6454 83.8964C9.6854 82.991 6.05065 84.846 6.05065 84.846C6.05065 84.846 8.09655 87.9377 11.0566 88.3353C13.8207 88.7107 15.9755 88.0482 16.9114 87.6727C18.1302 89.4395 19.4361 91.0957 20.8508 92.6416C19.8496 92.0674 18.6961 91.5154 17.7167 91.4049C14.5825 91.0295 11.2525 93.5471 11.2525 93.5471C11.2525 93.5471 13.8425 96.2855 16.8896 96.153C19.6973 96.0426 21.7214 95.0046 22.6138 94.4746C24.1373 95.9763 25.7262 97.3455 27.4021 98.6264C26.292 98.2289 25.0079 97.8755 23.985 97.9197C20.7637 98.0964 17.869 101.232 17.869 101.232C17.869 101.232 20.9379 103.507 23.985 102.822C26.7926 102.204 28.5774 99.5318 29.448 100.106C31.7986 101.63 32.9739 102.624 35.9557 104.258C34.8674 103.662 37.4792 102.712 36.3257 102.447Z" fill="#D48A74"/>
<path d="M73.6741 102.447C75.9595 101.916 77.1348 100.901 78.876 99.686C79.7683 99.0456 81.6183 97.4997 80.8783 98.5156C82.6195 97.301 84.1431 95.8876 85.7319 94.43C85.1443 93.5688 84.0125 91.5812 83.7078 88.7766C83.3595 85.7069 85.8625 82.8801 85.8625 82.8801C85.8625 82.8801 88.5831 86.0602 88.4308 89.2624C88.3655 90.4329 87.7561 91.8904 87.1902 93.0388C88.7572 91.4708 90.2155 89.7703 91.5649 87.9595C90.8467 87.2307 89.4102 85.5081 88.6267 82.836C87.7778 79.9209 89.7149 76.785 89.7149 76.785C89.7149 76.785 92.8708 79.3909 93.2626 82.5047C93.4149 83.6531 93.0449 85.199 92.6749 86.3915C94.0679 84.4702 95.265 82.4827 96.3097 80.4068C95.5261 79.8547 93.7849 78.4413 92.5443 75.9237C91.2384 73.2736 92.5879 69.8948 92.5879 69.8948C92.5879 69.8948 96.0703 71.8603 96.9626 74.7974C97.3109 75.9679 97.202 77.6684 97.0062 78.9492C98.0509 76.6746 98.9215 74.3558 99.6179 72.0149C98.7691 71.6174 96.8538 70.5573 95.2432 68.3489C93.5455 66.008 94.2638 62.5188 94.2638 62.5188C94.2638 62.5188 97.9638 63.8217 99.3132 66.4939C99.8356 67.5318 100.01 69.1219 100.053 70.3586C100.663 67.9735 101.098 65.5664 101.381 63.1592C100.489 62.9163 98.4644 62.2317 96.5491 60.3766C94.5032 58.4112 94.6338 54.9219 94.6338 54.9219C94.6338 54.9219 98.4209 55.5403 100.184 57.9032C100.859 58.8087 101.294 60.3325 101.555 61.525C101.773 59.0295 101.794 56.5561 101.686 54.1711C100.859 54.1048 98.7038 53.8177 96.462 52.316C94.1549 50.7701 93.6979 47.3692 93.6979 47.3692C93.6979 47.3692 97.4632 47.303 99.5309 49.2905C100.423 50.1297 101.163 51.7639 101.599 52.9123C101.403 50.2622 100.989 47.7446 100.423 45.3596C99.705 45.4479 97.485 45.6025 94.9602 44.4762C92.479 43.372 91.4561 40.1919 91.4561 40.1919C91.4561 40.1919 95.0691 39.4853 97.4197 41.0311C98.5297 41.7599 99.5962 43.4162 100.184 44.4541C99.8356 43.1733 99.4438 41.9587 99.0085 40.8103C98.5515 39.4632 98.0509 38.2044 97.5285 37.0119C96.832 37.2327 94.7426 37.7406 92.1308 37.1002C89.5625 36.4818 88.039 33.5668 88.039 33.5668C88.039 33.5668 91.4126 32.2638 93.9373 33.3459C95.1126 33.8539 96.6361 35.0685 97.1585 36.1285C95.722 33.2355 94.6773 31.2259 93.4585 29.3487C92.9361 29.6358 90.9337 30.5854 88.1696 30.4088C85.5796 30.2542 83.6207 27.7145 83.6207 27.7145C83.6207 27.7145 86.6678 25.8816 89.2796 26.4778C90.6508 26.787 92.5226 27.9795 93.132 28.8408C91.7608 26.8753 90.9337 25.8595 90.0849 24.8215C89.4755 24.7774 87.6037 24.4903 86.4937 23.1652C84.8396 21.1777 84.6654 19.1239 84.6654 19.1239C84.6654 19.1239 87.299 19.5876 88.4525 20.6035C89.889 21.8623 90.259 24.0707 90.3243 24.5786C91.0426 25.3957 91.8479 26.4778 92.7838 27.8249C92.1526 26.9195 91.5649 24.8878 91.6302 23.4965C91.7826 20.7802 94.3508 18.3289 94.3508 18.3289C94.3508 18.3289 96.2226 20.9348 95.6567 23.4965C95.0473 26.2791 93.6326 27.9133 93.2408 28.3108C94.5249 30.1217 95.8526 32.4405 97.1585 35.1126C96.8756 33.9864 96.5056 32.0651 96.8103 30.7842C97.4414 28.0679 100.445 26.0803 100.445 26.0803C100.445 26.0803 101.86 29.0396 100.859 31.513C99.7921 34.1409 98.0509 35.5764 97.5503 35.9518C98.225 37.4094 98.8997 38.9773 99.5091 40.6778C99.7921 41.4066 100.053 42.1574 100.314 42.9303C100.271 41.7378 100.293 40.0815 100.75 38.9994C101.838 36.3935 105.233 34.9139 105.233 34.9139C105.233 34.9139 106.147 38.1381 104.711 40.4569C103.274 42.7537 101.446 43.88 100.728 44.2554C101.381 46.53 101.86 48.9593 102.143 51.521C102.317 50.3285 102.621 48.7826 103.231 47.833C104.798 45.4037 108.454 44.5425 108.454 44.5425C108.454 44.5425 108.803 47.9434 106.953 50.0193C105.124 52.051 103.079 52.8681 102.295 53.1331C102.513 55.5844 102.534 58.1241 102.404 60.7079C102.774 59.5375 103.383 57.9916 104.167 57.1082C106.147 54.944 109.978 54.7452 109.978 54.7452C109.978 54.7452 109.739 58.2345 107.519 59.9791C105.299 61.7238 103.1 62.1654 102.295 62.2759C102.099 64.6609 101.729 67.0681 101.207 69.4752C101.773 68.3931 102.6 67.1343 103.47 66.4497C105.843 64.6388 109.739 65.1247 109.739 65.1247C109.739 65.1247 108.89 68.5919 106.343 69.939C103.884 71.2419 101.664 71.3303 100.771 71.2861C100.206 73.4945 99.4874 75.6587 98.6168 77.8009C99.335 76.9175 100.249 75.9679 101.141 75.5041C103.84 74.1128 107.671 75.2833 107.671 75.2833C107.671 75.2833 106.213 78.618 103.427 79.5013C100.837 80.3405 98.6603 80.0755 97.7026 79.8988C96.7667 81.9085 95.6785 83.8739 94.4379 85.7731C95.3085 85.0223 96.375 84.2494 97.3326 83.9623C100.293 83.0568 103.927 84.9119 103.927 84.9119C103.927 84.9119 101.881 88.0036 98.9215 88.4011C96.1573 88.7766 94.0026 88.114 93.0667 87.7386C91.8479 89.5053 90.542 91.1616 89.1272 92.7075C90.1284 92.1333 91.282 91.5812 92.2614 91.4708C95.3955 91.0954 98.7256 93.6129 98.7256 93.6129C98.7256 93.6129 96.1356 96.3513 93.0885 96.2188C90.2808 96.1084 88.2566 95.0705 87.3643 94.5405C85.8407 96.0422 84.2519 97.4114 82.576 98.6922C83.686 98.2947 84.9701 97.9414 85.9931 97.9856C89.2143 98.1622 92.109 101.298 92.109 101.298C92.109 101.298 89.0402 103.573 85.9931 102.888C83.1854 102.27 81.4007 99.5977 80.5301 100.172C78.1795 101.696 77.0042 102.689 74.0224 104.324C75.1324 103.661 72.5206 102.712 73.6741 102.447Z" fill="#D48A74"/>
<path d="M30.7109 108.233C30.7109 109.205 31.4727 109.978 32.4304 109.978H77.5708C78.5285 109.978 79.2903 109.205 79.2903 108.233V94.0776H30.7109V108.233Z" fill="#DA2128"/>
<path d="M30.7322 83.4342C30.6669 83.4342 30.6016 83.39 30.6016 83.3017C30.6016 83.2354 30.6886 83.1471 30.7757 83.0587C32.0163 81.9545 33.7575 80.5632 33.7575 78.6861C33.7575 77.2727 32.9957 76.9856 32.5604 76.9856C32.1904 76.9856 31.8857 77.0519 31.6245 77.3169C31.4069 77.5157 31.2545 77.9353 31.2545 78.1782C31.2545 78.2665 31.2327 78.3548 31.1457 78.3548C31.1022 78.3548 31.0804 78.2886 31.0586 78.1782C31.0586 78.0898 31.0151 77.3611 31.0151 77.0961C31.0151 77.0077 31.0151 76.9856 31.1239 76.9194C31.4722 76.7427 31.951 76.5881 32.7128 76.5881C34.2581 76.5881 34.9328 77.4494 34.9328 78.4874C34.9328 80.232 33.0392 81.7337 31.9075 82.6612C31.8639 82.7054 31.8857 82.7275 31.9292 82.7275H32.5386C32.691 82.7275 33.7357 82.7275 34.0622 82.6833C34.6716 82.6171 34.9546 82.3079 35.0634 81.8883C35.0852 81.7779 35.1069 81.7558 35.1722 81.7558C35.2375 81.7558 35.2375 81.8441 35.2375 81.9324C35.2375 82.065 35.0634 82.9041 34.9763 83.2133C34.911 83.4562 34.7587 83.4783 34.2146 83.4783H30.7322V83.4342Z" fill="black"/>
<path d="M37.6966 83.5875C35.9554 83.5875 35.4766 81.5558 35.4766 80.2749C35.4766 78.199 36.1948 76.5648 37.8272 76.5648C39.5684 76.5648 40.0472 78.442 40.0472 79.8553C40.0472 82.0858 39.1984 83.5875 37.6966 83.5875ZM37.6531 76.9844C37.0001 76.9844 36.5213 77.9119 36.5213 79.9437C36.5213 81.4895 36.8913 83.19 37.8707 83.19C38.589 83.19 39.0243 81.9754 39.0243 80.2307C39.0243 78.6849 38.6107 76.9844 37.6531 76.9844Z" fill="black"/>
<path d="M40.2654 83.4337C40.2001 83.4337 40.1348 83.3895 40.1348 83.3012C40.1348 83.2349 40.2218 83.1466 40.3089 83.0582C41.5495 81.954 43.2907 80.5628 43.2907 78.6856C43.2907 77.2722 42.5289 76.9852 42.0936 76.9852C41.7236 76.9852 41.4189 77.0514 41.1577 77.3164C40.9401 77.5152 40.7877 77.9348 40.7877 78.1777C40.7877 78.266 40.7659 78.3544 40.6789 78.3544C40.6354 78.3544 40.6136 78.2881 40.5918 78.1777C40.5918 78.0894 40.5483 77.3606 40.5483 77.0956C40.5483 77.0072 40.5483 76.9852 40.6571 76.9189C41.0054 76.7422 41.4842 76.5876 42.246 76.5876C43.7913 76.5876 44.466 77.4489 44.466 78.4869C44.466 80.2315 42.5724 81.7332 41.4407 82.6607C41.3971 82.7049 41.4189 82.727 41.4624 82.727H42.0718C42.2242 82.727 43.2689 82.727 43.5954 82.6828C44.2048 82.6166 44.4877 82.3074 44.5966 81.8878C44.6183 81.7774 44.6401 81.7553 44.7054 81.7553C44.7707 81.7553 44.7707 81.8436 44.7707 81.932C44.7707 82.0645 44.5966 82.9037 44.5095 83.2128C44.4442 83.4557 44.2919 83.4778 43.7477 83.4778H40.2654V83.4337Z" fill="black"/>
<path d="M46.7283 79.3261C46.7283 78.8402 46.7283 78.4648 46.7283 78.1556C46.7283 77.9348 46.7283 77.8243 46.5977 77.8243C46.4236 77.8243 45.7707 78.1777 45.5748 78.2439C45.5313 78.266 45.4877 78.2881 45.4442 78.2881C45.4224 78.2881 45.3789 78.2439 45.3789 78.1998C45.3789 78.1556 45.4224 78.1114 45.466 78.0673C45.5095 78.0452 47.1854 76.9189 47.5119 76.6981C47.5989 76.6539 47.6642 76.5876 47.7513 76.5876C47.8383 76.5876 47.8601 76.676 47.8601 76.7864C47.8601 76.8527 47.8166 77.736 47.8166 79.1052V80.7615C47.8166 81.6228 47.8166 82.3736 47.8601 82.7711C47.8819 83.0582 47.9254 83.1907 48.2084 83.257C48.3389 83.2791 48.7089 83.3012 48.796 83.3012C48.8395 83.3012 48.8831 83.3233 48.8831 83.3895C48.8831 83.4558 48.8395 83.4778 48.7525 83.4778C48.0778 83.4778 47.5119 83.4558 47.2725 83.4558C47.0766 83.4558 46.3366 83.4778 45.7707 83.4778C45.6836 83.4778 45.6183 83.4558 45.6183 83.3895C45.6183 83.3233 45.6618 83.3012 45.6836 83.3012C45.7707 83.3012 46.2277 83.2791 46.3801 83.2349C46.663 83.1687 46.7066 83.0362 46.7283 82.7711C46.7719 82.3736 46.7719 81.6228 46.7719 80.7615L46.7283 79.3261Z" fill="black"/>
<path d="M51.2347 83.345C51.1041 83.2788 51.0605 83.2346 51.0605 83.0358C51.0605 82.55 51.1041 81.9979 51.1041 81.8654C51.1041 81.7329 51.1476 81.6225 51.2129 81.6225C51.3 81.6225 51.3 81.7108 51.3 81.7771C51.3 81.8875 51.3435 82.0862 51.387 82.2408C51.5829 82.9033 52.1053 83.1463 52.6494 83.1463C53.4329 83.1463 53.8247 82.5942 53.8247 82.1304C53.8247 81.6887 53.6941 81.2912 52.9541 80.695L52.5406 80.3637C51.5611 79.5908 51.2347 78.9724 51.2347 78.2437C51.2347 77.2499 52.04 76.5432 53.2806 76.5432C53.8465 76.5432 54.2165 76.6315 54.4559 76.6978C54.5429 76.7199 54.5865 76.742 54.5865 76.8082C54.5865 76.9186 54.5429 77.1836 54.5429 77.8903C54.5429 78.0891 54.5212 78.1553 54.4559 78.1553C54.3906 78.1553 54.3688 78.1112 54.3688 78.0007C54.3688 77.9124 54.3253 77.6474 54.1294 77.4045C53.9988 77.2278 53.7376 76.9628 53.1717 76.9628C52.5188 76.9628 52.127 77.3382 52.127 77.8903C52.127 78.3099 52.3229 78.6191 53.0629 79.1712L53.3023 79.3699C54.3688 80.187 54.7388 80.8054 54.7388 81.6446C54.7388 82.1525 54.5429 82.7708 53.9118 83.1904C53.4765 83.4775 52.9759 83.5659 52.5188 83.5659C52.0182 83.5879 51.6264 83.5217 51.2347 83.345Z" fill="black"/>
<path d="M57.4167 77.206L56.1109 77.2502C55.6103 77.2722 55.3926 77.3164 55.262 77.5152C55.175 77.6477 55.1314 77.7581 55.1097 77.8243C55.0879 77.8906 55.0661 77.9348 55.0226 77.9348C54.9573 77.9348 54.9355 77.8906 54.9355 77.8023C54.9355 77.6698 55.1097 76.8527 55.1314 76.7643C55.1532 76.6539 55.175 76.5876 55.2403 76.5876C55.3056 76.5876 55.3926 76.676 55.6103 76.6981C55.8714 76.7202 56.1979 76.7422 56.4809 76.7422H59.9633C60.2462 76.7422 60.4421 76.7202 60.5727 76.6981C60.7033 76.676 60.7686 76.6539 60.8121 76.6539C60.8774 76.6539 60.8774 76.6981 60.8774 76.8306C60.8774 77.0293 60.8556 77.6256 60.8556 77.8685C60.8556 77.9569 60.8339 78.001 60.7686 78.001C60.7033 78.001 60.6815 77.9569 60.6815 77.8243V77.736C60.6597 77.4931 60.4203 77.2502 59.6368 77.2281L58.5268 77.206V80.8719C58.5268 81.689 58.5268 82.3957 58.5703 82.7932C58.5921 83.0362 58.6574 83.2349 58.9185 83.2791C59.0491 83.3012 59.245 83.3232 59.3756 83.3232C59.4627 83.3232 59.5062 83.3453 59.5062 83.3895C59.5062 83.4558 59.4409 83.4778 59.3321 83.4778C58.7444 83.4778 58.2003 83.4558 57.9391 83.4558C57.7432 83.4558 57.1773 83.4778 56.8291 83.4778C56.7203 83.4778 56.655 83.4558 56.655 83.3895C56.655 83.3453 56.6985 83.3232 56.7856 83.3232C56.9162 83.3232 57.025 83.3012 57.112 83.2791C57.2862 83.2349 57.3515 83.0362 57.3732 82.7932C57.4168 82.4178 57.4167 81.7111 57.4167 80.894V77.206Z" fill="black"/>
<path d="M61.8767 79.2814C61.8767 77.9122 61.8767 77.6693 61.855 77.3822C61.8332 77.073 61.7679 76.9405 61.485 76.8743C61.4197 76.8522 61.2673 76.8522 61.1367 76.8522C61.0497 76.8522 60.9844 76.8301 60.9844 76.7638C60.9844 76.6976 61.0497 76.6755 61.1803 76.6755C61.4197 76.6755 61.6809 76.6755 61.8985 76.6755C62.1379 76.6755 62.3338 76.6976 62.4644 76.6976C62.7473 76.6976 64.5103 76.6976 64.6627 76.6976C64.8368 76.6755 64.9674 76.6534 65.0327 76.6534C65.0762 76.6534 65.1197 76.6093 65.1632 76.6093C65.2068 76.6093 65.2068 76.6534 65.2068 76.6976C65.2068 76.7638 65.1632 76.8743 65.1415 77.2718C65.1415 77.3601 65.1197 77.7576 65.098 77.868C65.098 77.9122 65.0762 77.9564 65.0109 77.9564C64.9456 77.9564 64.9238 77.9122 64.9238 77.8239C64.9238 77.7576 64.9238 77.603 64.8803 77.4926C64.815 77.338 64.7279 77.2276 64.2926 77.1614C64.1403 77.1393 63.2262 77.1172 63.0303 77.1172C62.9868 77.1172 62.965 77.1393 62.965 77.2055V79.4581C62.965 79.5243 62.965 79.5464 63.0303 79.5464C63.2262 79.5464 64.2274 79.5464 64.445 79.5243C64.6627 79.5022 64.7932 79.4802 64.8585 79.3918C64.9238 79.3256 64.9456 79.2814 64.9891 79.2814C65.0327 79.2814 65.0544 79.3035 65.0544 79.3477C65.0544 79.3918 65.0109 79.5464 64.9891 80.0102C64.9891 80.1868 64.9456 80.5402 64.9456 80.6064C64.9456 80.6727 64.9456 80.7831 64.8585 80.7831C64.7932 80.7831 64.7715 80.7389 64.7715 80.6948C64.7715 80.6064 64.7715 80.496 64.7279 80.3635C64.6844 80.1868 64.5538 80.0543 64.2274 80.0102C64.0532 79.9881 63.1826 79.9881 62.965 79.9881C62.9215 79.9881 62.9215 80.0323 62.9215 80.0764V80.7831C62.9215 81.0923 62.9215 81.9094 62.9215 82.1744C62.9432 82.7927 63.0738 82.9252 63.9879 82.9252C64.2274 82.9252 64.5974 82.9252 64.815 82.8148C65.0327 82.7044 65.1415 82.5277 65.2068 82.1523C65.2285 82.064 65.2503 82.0198 65.2938 82.0198C65.3591 82.0198 65.3591 82.0861 65.3591 82.1744C65.3591 82.3732 65.2938 82.9915 65.2503 83.1682C65.185 83.4111 65.1197 83.4111 64.7715 83.4111C64.1185 83.4111 63.6179 83.389 63.2479 83.389C62.8779 83.3669 62.595 83.3669 62.3338 83.3669C62.2467 83.3669 62.0509 83.3669 61.8332 83.3669C61.6373 83.3669 61.3979 83.389 61.2238 83.389C61.115 83.389 61.0497 83.3669 61.0497 83.3007C61.0497 83.2565 61.0932 83.2344 61.1803 83.2344C61.3108 83.2344 61.4197 83.2123 61.5067 83.1903C61.6809 83.1461 61.7244 82.9473 61.7679 82.7044C61.8114 82.329 61.8114 81.6223 61.8114 80.8052V79.2814H61.8767Z" fill="black"/>
<path d="M66.0126 77.5806C65.8168 77.0948 65.6644 76.9843 65.3379 76.896C65.2073 76.8518 65.055 76.8518 64.9897 76.8518C64.9026 76.8518 64.8809 76.8298 64.8809 76.7635C64.8809 76.6973 64.9679 76.6752 65.1203 76.6752C65.5773 76.6752 66.0997 76.6972 66.4044 76.6972C66.6221 76.6972 67.0574 76.6752 67.4927 76.6752C67.6015 76.6752 67.6886 76.6973 67.6886 76.7635C67.6886 76.8298 67.645 76.8518 67.558 76.8518C67.4274 76.8518 67.275 76.8518 67.2097 76.9181C67.1444 76.9623 67.1227 77.0285 67.1227 77.1169C67.1227 77.2273 67.2097 77.4923 67.3185 77.8014L68.8421 81.8649H68.8856C69.2556 80.8711 70.4092 78.0002 70.6268 77.4039C70.6704 77.2935 70.7139 77.161 70.7139 77.0727C70.7139 77.0064 70.6704 76.9402 70.6051 76.896C70.4963 76.8518 70.3657 76.8518 70.2568 76.8518C70.1698 76.8518 70.1045 76.8518 70.1045 76.7856C70.1045 76.7193 70.1915 76.6972 70.3439 76.6972C70.7792 76.6972 71.1492 76.7193 71.2798 76.7193C71.4322 76.7193 71.8457 76.6972 72.1069 76.6972C72.2157 76.6972 72.281 76.7193 72.281 76.7856C72.281 76.8518 72.2375 76.8739 72.1504 76.8739C72.0633 76.8739 71.8675 76.8739 71.7151 76.9843C71.6063 77.0727 71.4757 77.2273 71.2363 77.7794C70.888 78.6186 70.6486 79.1044 70.1698 80.2086C69.6039 81.5116 69.1903 82.4833 68.9945 82.947C68.755 83.4549 68.7115 83.6095 68.5809 83.6095C68.4721 83.6095 68.4068 83.477 68.2544 83.0574L66.0126 77.5806Z" fill="black"/>
<path d="M72.6078 79.2811C72.6078 77.9119 72.6078 77.6689 72.586 77.3819C72.5642 77.0727 72.4772 76.9181 72.2813 76.8739C72.1942 76.8518 72.0636 76.8298 71.9548 76.8298C71.8677 76.8298 71.8242 76.8077 71.8242 76.7414C71.8242 76.6973 71.8895 76.6752 72.0419 76.6752C72.3683 76.6752 72.9342 76.6972 73.1954 76.6972C73.4131 76.6972 73.9354 76.6752 74.2619 76.6752C74.3707 76.6752 74.4578 76.6973 74.4578 76.7414C74.4578 76.8077 74.4142 76.8298 74.3272 76.8298C74.2401 76.8298 74.1748 76.8298 74.066 76.8518C73.8266 76.896 73.7613 77.0506 73.7395 77.3598C73.7178 77.6469 73.7178 77.8898 73.7178 79.259V80.827C73.7178 81.6882 73.7178 82.3949 73.7613 82.7924C73.7831 83.0353 73.8484 83.1899 74.1095 83.2341C74.2401 83.2562 74.436 83.2783 74.5666 83.2783C74.6537 83.2783 74.6972 83.3004 74.6972 83.3445C74.6972 83.4108 74.6319 83.4329 74.5231 83.4329C73.9354 83.4329 73.3913 83.4108 73.1519 83.4108C72.956 83.4108 72.3901 83.4329 72.0419 83.4329C71.933 83.4329 71.8678 83.4108 71.8678 83.3445C71.8678 83.3004 71.9113 83.2783 71.9983 83.2783C72.1289 83.2783 72.2377 83.2562 72.3248 83.2341C72.4989 83.1899 72.5642 83.0353 72.586 82.7924C72.6295 82.417 72.6295 81.7103 72.6295 80.849V79.2811H72.6078Z" fill="black"/>
<path d="M75.9588 79.2814C75.9588 77.9122 75.9588 77.6693 75.937 77.3822C75.9152 77.073 75.8499 76.9405 75.567 76.8743C75.5017 76.8522 75.3494 76.8522 75.2188 76.8522C75.1317 76.8522 75.0664 76.8301 75.0664 76.7638C75.0664 76.6976 75.1317 76.6755 75.2623 76.6755C75.5017 76.6755 75.7629 76.6755 75.9805 76.6755C76.22 76.6755 76.4158 76.6976 76.5464 76.6976C76.8294 76.6976 78.5923 76.6976 78.7447 76.6976C78.9188 76.6755 79.0494 76.6534 79.1147 76.6534C79.1582 76.6534 79.2018 76.6093 79.2453 76.6093C79.2888 76.6093 79.2888 76.6534 79.2888 76.6976C79.2888 76.7638 79.2453 76.8743 79.2235 77.2718C79.2235 77.3601 79.2018 77.7576 79.18 77.868C79.18 77.9122 79.1582 77.9564 79.0929 77.9564C79.0276 77.9564 79.0059 77.9122 79.0059 77.8239C79.0059 77.7576 79.0059 77.603 78.9623 77.4926C78.897 77.338 78.81 77.2276 78.3747 77.1614C78.2223 77.1393 77.3082 77.1172 77.1123 77.1172C77.0688 77.1172 77.047 77.1393 77.047 77.2055V79.4581C77.047 79.5243 77.047 79.5464 77.1123 79.5464C77.3082 79.5464 78.3094 79.5464 78.527 79.5243C78.7447 79.5022 78.8753 79.4802 78.9406 79.3918C79.0059 79.3256 79.0276 79.2814 79.0712 79.2814C79.1147 79.2814 79.1365 79.3035 79.1365 79.3477C79.1365 79.3918 79.0929 79.5464 79.0712 80.0102C79.0712 80.1868 79.0276 80.5402 79.0276 80.6064C79.0276 80.6727 79.0276 80.7831 78.9406 80.7831C78.8753 80.7831 78.8535 80.7389 78.8535 80.6948C78.8535 80.6064 78.8535 80.496 78.81 80.3635C78.7665 80.1868 78.6359 80.0543 78.3094 80.0102C78.1353 79.9881 77.2647 79.9881 77.047 79.9881C77.0035 79.9881 77.0035 80.0323 77.0035 80.0764V80.7831C77.0035 81.0923 77.0035 81.9094 77.0035 82.1744C77.0253 82.7927 77.1558 82.9252 78.07 82.9252C78.3094 82.9252 78.6794 82.9252 78.897 82.8148C79.1365 82.7044 79.2235 82.5277 79.2888 82.1523C79.3106 82.064 79.3323 82.0198 79.3759 82.0198C79.4412 82.0198 79.4412 82.0861 79.4412 82.1744C79.4412 82.3732 79.3759 82.9915 79.3323 83.1682C79.267 83.4111 79.2018 83.4111 78.8535 83.4111C78.2006 83.4111 77.7 83.389 77.33 83.389C76.96 83.3669 76.677 83.3669 76.4158 83.3669C76.3288 83.3669 76.1329 83.3669 75.9152 83.3669C75.7194 83.3669 75.4799 83.389 75.3058 83.389C75.197 83.389 75.1317 83.3669 75.1317 83.3007C75.1317 83.2565 75.1752 83.2344 75.2623 83.2344C75.3929 83.2344 75.5017 83.2123 75.5888 83.1903C75.7629 83.1461 75.8064 82.9473 75.8499 82.7044C75.8935 82.329 75.8935 81.6223 75.8935 80.8052V79.2814H75.9588Z" fill="black"/>
<path d="M80.0078 77.6477C80.0078 77.1618 80.3778 76.8085 80.8784 76.8085C81.379 76.8085 81.749 77.1618 81.749 77.6477C81.749 78.1114 81.379 78.4647 80.8784 78.4647C80.3778 78.4647 80.0078 78.1335 80.0078 77.6477ZM81.5531 77.6477C81.5531 77.2501 81.2702 76.9851 80.8784 76.9851C80.4866 76.9851 80.2037 77.2501 80.2037 77.6477C80.2037 78.0452 80.4866 78.3322 80.9002 78.3322C81.2702 78.3322 81.5531 78.0452 81.5531 77.6477ZM80.5302 77.5151V77.2722C80.5302 77.206 80.4866 77.206 80.4213 77.206C80.4213 77.206 80.3996 77.206 80.3996 77.1839C80.3996 77.1618 80.4213 77.1397 80.4431 77.1397H80.4866C80.5084 77.1397 80.5737 77.1397 80.639 77.1397C80.7261 77.1397 80.7696 77.1397 80.8566 77.1397C81.009 77.1397 81.2702 77.1618 81.2702 77.4047C81.2702 77.4931 81.2266 77.5814 81.0743 77.6918L81.2484 77.8906C81.379 78.0231 81.379 78.0231 81.4008 78.0231C81.4225 78.0231 81.4225 78.0231 81.4225 78.0452C81.4225 78.0672 81.4225 78.0893 81.3355 78.0893C81.2049 78.0893 81.1178 78.0893 80.9655 77.9126L80.8349 77.736H80.726V77.8243C80.726 78.001 80.7261 78.0231 80.7478 78.0231C80.7696 78.0231 80.8131 78.0231 80.8349 78.0231C80.8566 78.0231 80.8566 78.0231 80.8566 78.0452C80.8566 78.0672 80.8349 78.0893 80.8131 78.0893H80.7696C80.7478 78.0893 80.6608 78.0893 80.6172 78.0893C80.5955 78.0893 80.4866 78.0893 80.4866 78.0893H80.4431C80.4213 78.0893 80.3778 78.0893 80.3778 78.0452C80.3778 78.0231 80.3778 78.0231 80.3996 78.0231C80.4866 78.0231 80.4866 78.0231 80.5084 77.9568C80.5084 77.9127 80.5084 77.8464 80.5084 77.7139V77.5151H80.5302ZM80.726 77.6035C80.7478 77.6256 80.8131 77.6256 80.8566 77.6256C80.8784 77.6256 80.9219 77.6256 80.9437 77.6035C80.9872 77.5814 81.0308 77.5152 81.0308 77.4489C81.0308 77.3385 80.9437 77.2501 80.8131 77.2501C80.8131 77.2501 80.7478 77.2501 80.726 77.2722V77.6035Z" fill="black"/>
<path d="M36.6744 86.4145C36.5656 86.0832 36.4786 85.8624 36.348 85.774C36.2609 85.7078 36.065 85.6857 35.9997 85.6857C35.9127 85.6857 35.8691 85.6857 35.8691 85.5974C35.8691 85.5311 35.9344 85.509 36.065 85.509C36.5221 85.509 37.0009 85.5311 37.088 85.5311C37.175 85.5311 37.545 85.509 38.0674 85.509C38.198 85.509 38.2633 85.5311 38.2633 85.5974C38.2633 85.6636 38.198 85.6857 38.1109 85.6857C38.0456 85.6857 37.9586 85.6857 37.8933 85.7299C37.8062 85.774 37.8062 85.8182 37.8062 85.9286C37.8062 86.039 37.8933 86.3482 38.0021 86.7457C38.1545 87.342 38.9815 90.0362 39.1339 90.5442H39.1556L40.8751 85.8845C40.9621 85.6415 41.0274 85.5532 41.0927 85.5532C41.1798 85.5532 41.2233 85.6857 41.3539 85.9728L43.1822 90.4779H43.2039C43.3563 89.8816 44.0745 87.5187 44.3792 86.4807C44.4445 86.282 44.4663 86.0832 44.4663 85.9728C44.4663 85.8403 44.3792 85.7078 44.0528 85.7078C43.9657 85.7078 43.9004 85.6857 43.9004 85.6195C43.9004 85.5532 43.9657 85.5311 44.0963 85.5311C44.5534 85.5311 44.9234 85.5532 45.0104 85.5532C45.0757 85.5532 45.4457 85.5311 45.7504 85.5311C45.8375 85.5311 45.9028 85.5532 45.9028 85.5974C45.9028 85.6636 45.8592 85.6857 45.7722 85.6857C45.6851 85.6857 45.5545 85.6857 45.4675 85.7299C45.2498 85.8182 45.1628 86.1715 44.9669 86.6795C44.5534 87.8058 43.6392 90.6546 43.2039 92.0017C43.1169 92.3109 43.0733 92.4213 42.9427 92.4213C42.8557 92.4213 42.8122 92.3109 42.6598 91.9796L40.8315 87.4966H40.8098C40.6357 87.9603 39.4604 91.1183 39.0904 91.9354C38.9162 92.3109 38.8727 92.3992 38.7639 92.3992C38.6768 92.3992 38.6333 92.3109 38.568 92.0679L36.6744 86.4145Z" fill="black"/>
<path d="M46.5765 88.1149C46.5765 86.7457 46.5765 86.5028 46.5547 86.2157C46.533 85.9065 46.4459 85.752 46.25 85.7078C46.163 85.6857 46.0324 85.6636 45.9236 85.6636C45.8365 85.6636 45.793 85.6415 45.793 85.5753C45.793 85.5311 45.8583 85.509 46.0106 85.509C46.3371 85.509 46.903 85.5311 47.1642 85.5311C47.3818 85.5311 47.9042 85.509 48.2306 85.509C48.3395 85.509 48.4265 85.5311 48.4265 85.5753C48.4265 85.6415 48.383 85.6636 48.2959 85.6636C48.2089 85.6636 48.1436 85.6636 48.0348 85.6857C47.7953 85.7299 47.73 85.8845 47.7083 86.1936C47.6865 86.4807 47.6865 86.7236 47.6865 88.0928V89.6608C47.6865 90.5221 47.6865 91.2288 47.7301 91.6263C47.7518 91.8692 47.8171 92.0238 48.0783 92.068C48.2089 92.09 48.4048 92.1121 48.5354 92.1121C48.6224 92.1121 48.6659 92.1342 48.6659 92.1784C48.6659 92.2446 48.6006 92.2667 48.4918 92.2667C47.9042 92.2667 47.36 92.2446 47.1206 92.2446C46.9247 92.2446 46.3589 92.2667 46.0106 92.2667C45.9018 92.2667 45.8365 92.2446 45.8365 92.1784C45.8365 92.1342 45.88 92.1121 45.9671 92.1121C46.0977 92.1121 46.2065 92.09 46.2936 92.068C46.4677 92.0238 46.533 91.8692 46.5547 91.6263C46.5983 91.2508 46.5983 90.5442 46.5983 89.6829V88.1149H46.5765Z" fill="black"/>
<path d="M50.4513 91.0747C50.473 91.7814 50.5819 92.0022 50.756 92.0685C50.9083 92.1127 51.0825 92.1347 51.2131 92.1347C51.3001 92.1347 51.3654 92.1568 51.3654 92.201C51.3654 92.2672 51.2784 92.2893 51.1695 92.2893C50.6036 92.2893 50.2336 92.2672 50.0813 92.2672C49.9942 92.2672 49.5807 92.2893 49.1236 92.2893C49.0148 92.2893 48.9277 92.2893 48.9277 92.201C48.9277 92.1568 48.9713 92.1347 49.0583 92.1347C49.1671 92.1347 49.3413 92.1347 49.4501 92.0906C49.6895 92.0243 49.7113 91.7593 49.733 90.9864L49.8201 85.6862C49.8201 85.5096 49.8419 85.3771 49.9289 85.3771C50.016 85.3771 50.103 85.4875 50.2554 85.6642C50.3642 85.7746 51.6919 87.2321 52.9978 88.5351C53.6072 89.1534 54.7825 90.4343 54.9349 90.5668H54.9784L54.8913 86.5475C54.8913 85.9954 54.8043 85.8408 54.5866 85.7525C54.456 85.7083 54.2384 85.7083 54.1296 85.7083C54.0207 85.7083 53.999 85.6863 53.999 85.62C53.999 85.5537 54.086 85.5317 54.2384 85.5317C54.6955 85.5317 55.109 85.5537 55.3049 85.5537C55.3919 85.5537 55.7402 85.5317 56.1755 85.5317C56.2843 85.5317 56.3714 85.5317 56.3714 85.62C56.3714 85.6642 56.3278 85.7083 56.219 85.7083C56.1319 85.7083 56.0666 85.7083 55.9578 85.7304C55.7184 85.7967 55.6313 85.9954 55.6313 86.4813L55.5443 92.1347C55.5443 92.3335 55.5008 92.4218 55.4355 92.4218C55.3484 92.4218 55.2396 92.3335 55.1308 92.2231C54.5649 91.6931 53.4548 90.5226 52.5407 89.5951C51.5831 88.6234 50.6036 87.5192 50.4513 87.3425H50.4295L50.4513 91.0747Z" fill="black"/>
<path d="M57.8302 91.0747C57.8519 91.7814 57.9608 92.0022 58.1349 92.0685C58.2872 92.1127 58.4614 92.1347 58.5919 92.1347C58.679 92.1347 58.7443 92.1568 58.7443 92.201C58.7443 92.2672 58.6572 92.2893 58.5484 92.2893C57.9825 92.2893 57.6125 92.2672 57.4602 92.2672C57.3731 92.2672 56.9596 92.2893 56.5025 92.2893C56.3937 92.2893 56.3066 92.2893 56.3066 92.201C56.3066 92.1568 56.3502 92.1347 56.4372 92.1347C56.546 92.1347 56.7202 92.1347 56.829 92.0906C57.0684 92.0243 57.0902 91.7593 57.1119 90.9864L57.199 85.6862C57.199 85.5096 57.2208 85.3771 57.3078 85.3771C57.3949 85.3771 57.4819 85.4875 57.6343 85.6642C57.7431 85.7746 59.0708 87.2321 60.3767 88.5351C60.9861 89.1534 62.1614 90.4343 62.3137 90.5668H62.3573L62.2702 86.5475C62.2702 85.9954 62.1831 85.8408 61.9655 85.7525C61.8349 85.7083 61.6173 85.7083 61.5084 85.7083C61.3996 85.7083 61.3778 85.6863 61.3778 85.62C61.3778 85.5537 61.4649 85.5317 61.6173 85.5317C62.0743 85.5317 62.4878 85.5537 62.6837 85.5537C62.7708 85.5537 63.119 85.5317 63.5543 85.5317C63.6631 85.5317 63.7502 85.5317 63.7502 85.62C63.7502 85.6642 63.7067 85.7083 63.5979 85.7083C63.5108 85.7083 63.4455 85.7083 63.3367 85.7304C63.0973 85.7967 63.0102 85.9954 63.0102 86.4813L62.9231 92.1347C62.9231 92.3335 62.8796 92.4218 62.8143 92.4218C62.7273 92.4218 62.6184 92.3335 62.5096 92.2231C61.9437 91.6931 60.8337 90.5226 59.9196 89.5951C58.9619 88.6234 57.9825 87.5192 57.8302 87.3425H57.8084L57.8302 91.0747Z" fill="black"/>
<path d="M65.0545 88.1151C65.0545 86.7459 65.0545 86.503 65.0327 86.2159C65.0109 85.9068 64.9457 85.7743 64.6627 85.708C64.5974 85.6859 64.4451 85.6859 64.3145 85.6859C64.2274 85.6859 64.1621 85.6638 64.1621 85.5976C64.1621 85.5313 64.2274 85.5092 64.358 85.5092C64.5974 85.5092 64.8586 85.5092 65.0762 85.5092C65.3157 85.5092 65.5115 85.5313 65.6421 85.5313C65.9251 85.5313 67.6881 85.5313 67.8404 85.5313C68.0145 85.5092 68.1451 85.4872 68.2104 85.4872C68.2539 85.4872 68.2975 85.443 68.341 85.443C68.3845 85.443 68.3845 85.4872 68.3845 85.5313C68.3845 85.5976 68.341 85.708 68.3192 86.1055C68.3192 86.1938 68.2975 86.5914 68.2757 86.7018C68.2757 86.7459 68.2539 86.7901 68.1886 86.7901C68.1234 86.7901 68.1016 86.7459 68.1016 86.6576C68.1016 86.5914 68.1016 86.4368 68.0581 86.3263C67.9928 86.1718 67.9057 86.0613 67.4704 85.9951C67.318 85.973 66.4039 85.9509 66.208 85.9509C66.1645 85.9509 66.1427 85.973 66.1427 86.0393V88.2918C66.1427 88.3581 66.1427 88.3802 66.208 88.3802C66.4039 88.3802 67.4051 88.3802 67.6228 88.3581C67.8404 88.336 67.971 88.3139 68.0363 88.2256C68.1016 88.1593 68.1234 88.1151 68.1669 88.1151C68.2104 88.1151 68.2322 88.1372 68.2322 88.1814C68.2322 88.2256 68.1887 88.3801 68.1669 88.8439C68.1669 89.0206 68.1234 89.3739 68.1234 89.4402C68.1234 89.5064 68.1234 89.6168 68.0363 89.6168C67.971 89.6168 67.9492 89.5727 67.9492 89.5285C67.9492 89.4402 67.9492 89.3298 67.9057 89.1973C67.8622 89.0206 67.7316 88.8881 67.4051 88.8439C67.231 88.8218 66.3604 88.8218 66.1427 88.8218C66.0992 88.8218 66.0992 88.866 66.0992 88.9102V89.6168C66.0992 89.926 66.0992 90.7431 66.0992 91.0081C66.121 91.6265 66.2516 91.759 67.1657 91.759C67.4051 91.759 67.7751 91.759 67.9928 91.6486C68.2104 91.5381 68.3192 91.3615 68.3845 90.9861C68.4063 90.8977 68.4281 90.8535 68.4716 90.8535C68.5369 90.8535 68.5369 90.9198 68.5369 91.0081C68.5369 91.2069 68.4716 91.8252 68.4281 92.0019C68.3628 92.2448 68.2975 92.2448 67.9492 92.2448C67.2963 92.2448 66.7957 92.2227 66.4257 92.2227C66.0557 92.2007 65.7727 92.2007 65.5115 92.2007C65.4245 92.2007 65.2286 92.2007 65.011 92.2007C64.8151 92.2007 64.5756 92.2227 64.4015 92.2227C64.2927 92.2227 64.2274 92.2007 64.2274 92.1344C64.2274 92.0902 64.2709 92.0682 64.358 92.0682C64.4886 92.0682 64.5974 92.0461 64.6845 92.024C64.8586 91.9798 64.9021 91.7811 64.9457 91.5381C64.9892 91.1627 64.9892 90.456 64.9892 89.6389V88.1151H65.0545Z" fill="black"/>
<path d="M70.0174 88.1149C70.0174 86.7457 70.0174 86.5028 69.9956 86.2157C69.9738 85.9065 69.9085 85.774 69.6256 85.7078C69.5603 85.6857 69.4079 85.6857 69.2774 85.6857C69.1903 85.6857 69.125 85.6636 69.125 85.5974C69.125 85.5311 69.1903 85.509 69.3209 85.509C69.7779 85.509 70.3438 85.5311 70.518 85.5311C70.8227 85.5311 71.4974 85.509 71.7586 85.509C72.3244 85.509 72.9121 85.5532 73.3909 85.8845C73.6303 86.0611 74.0003 86.5028 74.0003 87.0991C74.0003 87.7616 73.7174 88.3799 72.8468 89.1087C73.6303 90.1025 74.2397 90.8975 74.7621 91.4717C75.2627 91.9796 75.6109 92.0459 75.7415 92.09C75.8286 92.1121 75.9156 92.1121 75.9809 92.1121C76.0462 92.1121 76.0898 92.1342 76.0898 92.1784C76.0898 92.2446 76.0245 92.2667 75.9156 92.2667H75.0886C74.588 92.2667 74.3703 92.2225 74.1527 92.09C73.7827 91.8913 73.4345 91.4717 72.9556 90.765C72.6074 90.2792 72.1939 89.6608 72.085 89.5283C72.0415 89.4841 71.998 89.4621 71.9327 89.4621L71.1709 89.44C71.1274 89.44 71.1056 89.462 71.1056 89.5062V89.6387C71.1056 90.4779 71.1056 91.1846 71.1491 91.56C71.1709 91.825 71.2362 92.0238 71.4974 92.0459C71.628 92.068 71.8238 92.09 71.9327 92.09C71.998 92.09 72.0415 92.1121 72.0415 92.1563C72.0415 92.2225 71.9762 92.2446 71.8674 92.2446C71.3668 92.2446 70.7138 92.2225 70.5615 92.2225C70.3874 92.2225 69.8432 92.2446 69.495 92.2446C69.3862 92.2446 69.3209 92.2225 69.3209 92.1563C69.3209 92.1121 69.3644 92.09 69.4515 92.09C69.5821 92.09 69.6909 92.068 69.7779 92.0459C69.9521 92.0017 69.9956 91.8029 70.0391 91.56C70.0827 91.1846 70.0827 90.4779 70.0827 89.6608V88.1149H70.0174ZM71.0403 88.8216C71.0403 88.91 71.0621 88.9541 71.1274 88.9762C71.3233 89.0425 71.5844 89.0645 71.8021 89.0645C72.1503 89.0645 72.2591 89.0204 72.4333 88.91C72.6944 88.7112 72.9556 88.2916 72.9556 87.5628C72.9556 86.282 72.1286 85.9286 71.6062 85.9286C71.3885 85.9286 71.2362 85.9286 71.1491 85.9728C71.0838 85.9949 71.0621 86.017 71.0621 86.1053V88.8216H71.0403Z" fill="black"/>
<path d="M79.2903 63.9549C79.2903 62.9833 78.5067 62.1882 77.5491 62.1882H32.4521C31.4945 62.1882 30.7109 62.9833 30.7109 63.9549V74.5111H79.2903V63.9549Z" fill="#D48A74"/>
<path d="M34.2148 64.7953H37.7408C38.6114 64.7953 39.2208 65.0382 39.6125 65.502C39.8955 65.8111 40.0478 66.2087 40.0478 66.7387V66.7607C40.0478 67.6441 39.5908 68.1741 38.9814 68.4833C39.8084 68.7925 40.3526 69.3225 40.3526 70.3825V70.4046C40.3526 71.7296 39.3949 72.5467 37.7625 72.5467H34.2366V64.7953H34.2148ZM37.2619 67.887C37.8496 67.887 38.1543 67.6662 38.1543 67.2245V67.2024C38.1543 66.7828 37.8714 66.5399 37.2837 66.5399H36.0431V67.887H37.2619ZM37.5231 70.8021C38.1108 70.8021 38.4372 70.5371 38.4372 70.0954V70.0733C38.4372 69.6537 38.1325 69.3666 37.5014 69.3666H36.0431V70.8021H37.5231Z" fill="white"/>
<path d="M41.1133 64.7953H44.3563C45.401 64.7953 46.1192 65.1045 46.598 65.6345C46.9898 66.0762 47.2075 66.6724 47.2075 67.4233V67.4454C47.2075 68.6379 46.6416 69.4108 45.7927 69.8304L47.4251 72.5247H45.2269L43.8557 70.1838H43.8339H43.0286V72.5247H41.135V64.7953H41.1133ZM44.2692 68.5054C44.9221 68.5054 45.2922 68.152 45.2922 67.6V67.5779C45.2922 66.9595 44.9004 66.6724 44.2692 66.6724H43.0286V68.5275H44.2692V68.5054Z" fill="white"/>
<path d="M47.8398 68.6817C47.8398 66.4292 49.4287 64.6404 51.5399 64.6404C53.6511 64.6404 55.2182 66.4071 55.2182 68.6375V68.6596C55.2182 70.868 53.6293 72.6789 51.5181 72.6789C49.4069 72.6789 47.8398 70.9122 47.8398 68.6817ZM53.2811 68.6817C53.2811 67.5334 52.5628 66.5838 51.5181 66.5838C50.4734 66.5838 49.7769 67.5334 49.7769 68.6596V68.6817C49.7769 69.7859 50.4952 70.7797 51.5399 70.7797C52.5846 70.7576 53.2811 69.808 53.2811 68.6817Z" fill="white"/>
<path d="M56.1328 64.7953H57.8958L60.7252 68.8808V64.7953H62.597V72.5247H60.9429L58.0046 68.2846V72.5247H56.1328V64.7953Z" fill="white"/>
<path d="M63.51 70.9788L66.9489 66.6062H63.6189V64.7953H69.5607V66.3412L66.1218 70.7138H69.5607V72.5247H63.4883V70.9788H63.51Z" fill="white"/>
<path d="M70.4749 64.7953H75.9814V66.6062H72.3467V67.7766H75.6332V69.455H72.3467V70.6917H76.0249V72.5026H70.4531V64.7953H70.4749Z" fill="white"/>
<path d="M44.1189 96.0208H45.0113L46.1866 101.52H45.3378L45.0984 100.305H43.9666L43.7272 101.52H42.9219L44.1189 96.0208ZM44.9895 99.5984L44.5542 97.39L44.1189 99.5984H44.9895Z" fill="white"/>
<path d="M46.5999 96.0436H47.4487L48.2976 98.3624L49.1464 96.0436H49.9952V101.52H49.1899V97.7882L48.2976 100.195H48.2758L47.3834 97.7882V101.52H46.5781V96.0436H46.5999Z" fill="white"/>
<path d="M50.6699 96.0436H52.8682V96.7723H51.5188V98.4065H52.7376V99.1353H51.5188V100.814H52.9117V101.542H50.6917V96.0436H50.6699Z" fill="white"/>
<path d="M53.4121 96.0436H54.3915C55.4362 96.0436 56.198 96.5736 56.198 97.744V97.7882C56.198 98.517 55.8715 99.0028 55.3927 99.2457L56.2851 101.498H55.3927L54.5874 99.4887C54.5439 99.4887 54.5003 99.4887 54.4786 99.4887H54.2609V101.498H53.4121V96.0436ZM54.3915 98.8261C54.9574 98.8261 55.3274 98.517 55.3274 97.8103V97.7661C55.3274 97.0153 54.9139 96.7723 54.348 96.7723H54.2392V98.8482H54.3915V98.8261Z" fill="white"/>
<path d="M56.7422 96.0436H57.5692V101.52H56.7422V96.0436Z" fill="white"/>
<path d="M58.1562 98.87V98.6934C58.1562 96.7942 58.918 95.9991 59.8539 95.9991C60.1368 95.9991 60.2892 96.0433 60.5068 96.1316V96.9267C60.2892 96.8162 60.1151 96.75 59.9192 96.75C59.3968 96.75 59.0051 97.2579 59.0051 98.6934V98.8921C59.0051 100.372 59.3968 100.836 59.941 100.836C60.1151 100.836 60.311 100.791 60.5286 100.659V101.41C60.311 101.52 60.0933 101.564 59.8104 101.564C58.8745 101.564 58.1562 100.747 58.1562 98.87Z" fill="white"/>
<path d="M61.9861 96.0208H62.8785L64.0538 101.52H63.205L62.9656 100.305H61.8338L61.5944 101.52H60.7891L61.9861 96.0208ZM62.8567 99.5984L62.4214 97.39L61.9861 99.5984H62.8567Z" fill="white"/>
<path d="M64.4453 96.0436H65.2506L66.5347 99.3782V96.0436H67.34V101.52H66.6L65.2724 98.0753V101.52H64.4671V96.0436H64.4453Z" fill="white"/>
<path d="M33.3008 102.669H34.1496C35.129 102.669 35.9779 103.111 35.9779 104.06V104.082C35.9779 104.811 35.5208 105.164 35.042 105.363C35.6079 105.54 36.0432 105.915 36.0432 106.622V106.666C36.0432 107.616 35.2596 108.146 34.1061 108.146H33.3008V102.669ZM34.2367 105.054C34.8243 105.054 35.1726 104.745 35.1726 104.193V104.171C35.1726 103.641 34.8026 103.376 34.2584 103.376H34.1496V105.054H34.2367ZM34.2367 107.439C34.8461 107.439 35.2379 107.152 35.2379 106.6V106.578C35.2379 106.026 34.8461 105.716 34.2584 105.716H34.1496V107.439H34.2367Z" fill="white"/>
<path d="M36.543 106.599V102.646H37.37V106.665C37.37 107.24 37.6094 107.505 37.9577 107.505C38.3059 107.505 38.5453 107.24 38.5453 106.665V102.646H39.3724V106.599C39.3724 107.681 38.7848 108.211 37.9577 108.211C37.1306 108.211 36.543 107.681 36.543 106.599Z" fill="white"/>
<path d="M39.8951 107.946V107.129C40.2651 107.35 40.5698 107.46 40.8745 107.46C41.2228 107.46 41.5057 107.261 41.5057 106.886C41.5057 106.577 41.3969 106.356 40.8528 105.738C40.1127 104.92 39.8516 104.589 39.8516 103.971V103.949C39.8516 103.132 40.4392 102.602 41.201 102.602C41.5928 102.602 41.8539 102.668 42.1151 102.8V103.618C41.7886 103.441 41.571 103.353 41.2881 103.353C40.9398 103.353 40.6786 103.573 40.6786 103.905V103.927C40.6786 104.236 40.7875 104.39 41.3316 104.987C42.1151 105.848 42.3328 106.223 42.3328 106.842V106.864C42.3328 107.681 41.7016 108.211 40.9398 108.211C40.548 108.211 40.1998 108.101 39.8951 107.946Z" fill="white"/>
<path d="M42.8125 102.669H43.6396V108.146H42.8125V102.669Z" fill="white"/>
<path d="M44.3359 102.669H45.1412L46.4254 106.003V102.669H47.2307V108.146H46.4689L45.1412 104.701V108.146H44.3359V102.669Z" fill="white"/>
<path d="M47.9258 102.669H50.124V103.398H48.7746V105.032H49.9934V105.761H48.7746V107.439H50.1675V108.168H47.9475V102.669H47.9258Z" fill="white"/>
<path d="M50.5162 107.946V107.129C50.8862 107.35 51.1909 107.46 51.4956 107.46C51.8438 107.46 52.1268 107.261 52.1268 106.886C52.1268 106.577 52.018 106.356 51.4738 105.738C50.7338 104.92 50.4727 104.589 50.4727 103.971V103.949C50.4727 103.132 51.0603 102.602 51.8221 102.602C52.2139 102.602 52.475 102.668 52.7362 102.8V103.618C52.4097 103.441 52.1921 103.353 51.9091 103.353C51.5609 103.353 51.2997 103.573 51.2997 103.905V103.927C51.2997 104.236 51.4085 104.39 51.9527 104.987C52.7362 105.848 52.9539 106.223 52.9539 106.842V106.864C52.9539 107.681 52.3227 108.211 51.5609 108.211C51.1691 108.211 50.8427 108.101 50.5162 107.946Z" fill="white"/>
<path d="M53.2154 107.946V107.129C53.5854 107.35 53.8901 107.46 54.1948 107.46C54.5431 107.46 54.826 107.261 54.826 106.886C54.826 106.577 54.7172 106.356 54.1731 105.738C53.4331 104.92 53.1719 104.589 53.1719 103.971V103.949C53.1719 103.132 53.7595 102.602 54.5213 102.602C54.9131 102.602 55.1742 102.668 55.4354 102.8V103.618C55.1089 103.441 54.8913 103.353 54.6084 103.353C54.2601 103.353 53.9989 103.573 53.9989 103.905V103.927C53.9989 104.236 54.1078 104.39 54.6519 104.987C55.4354 105.848 55.6531 106.223 55.6531 106.842V106.864C55.6531 107.681 55.0219 108.211 54.2601 108.211C53.8684 108.211 53.5419 108.101 53.2154 107.946Z" fill="white"/>
<path d="M57.8944 102.646H58.7867L59.962 108.145H59.1132L58.8738 106.93H57.742L57.5026 108.145H56.6973L57.8944 102.646ZM58.765 106.224L58.3297 104.015L57.8944 106.224H58.765Z" fill="white"/>
<path d="M59.9844 102.669H60.855L61.3991 106.467L62.052 102.669H62.8356L63.4885 106.467L64.0326 102.669H64.8815L63.9456 108.19H63.075L62.4438 104.48L61.8126 108.19H60.9638L59.9844 102.669Z" fill="white"/>
<path d="M66.0132 102.646H66.9055L68.0808 108.145H67.2538L67.0144 106.93H65.8826L65.6432 108.145H64.8379L66.0132 102.646ZM66.8838 106.224L66.4485 104.015L66.0132 106.224H66.8838Z" fill="white"/>
<path d="M68.4941 102.669H69.4736C70.5183 102.669 71.2801 103.199 71.2801 104.369V104.413C71.2801 105.142 70.9536 105.628 70.4747 105.871L71.3671 108.124H70.4747L69.6694 106.114C69.6259 106.114 69.5824 106.114 69.5606 106.114H69.343V108.124H68.4941V102.669ZM69.4736 105.451C70.0395 105.451 70.4095 105.142 70.4095 104.436V104.391C70.4095 103.641 69.9959 103.398 69.43 103.398H69.3212V105.473H69.4736V105.451Z" fill="white"/>
<path d="M71.7812 102.669H72.6736C73.936 102.669 74.6977 103.552 74.6977 105.319V105.496C74.6977 107.262 73.936 108.146 72.6736 108.146H71.7812V102.669ZM72.7607 107.439C73.3701 107.439 73.8489 106.909 73.8489 105.496V105.319C73.8489 103.883 73.3483 103.376 72.7389 103.376H72.6301V107.461H72.7607V107.439Z" fill="white"/>
<path d="M75.067 107.946V107.129C75.437 107.35 75.7417 107.46 76.0464 107.46C76.3946 107.46 76.6776 107.261 76.6776 106.886C76.6776 106.577 76.5687 106.356 76.0246 105.738C75.2846 104.92 75.0234 104.589 75.0234 103.971V103.949C75.0234 103.132 75.6111 102.602 76.3729 102.602C76.7646 102.602 77.0258 102.668 77.287 102.8V103.618C76.9605 103.441 76.7429 103.353 76.4599 103.353C76.1117 103.353 75.8505 103.573 75.8505 103.905V103.927C75.8505 104.236 75.9593 104.39 76.5035 104.987C77.287 105.848 77.5046 106.223 77.5046 106.842V106.864C77.5046 107.681 76.8952 108.211 76.1117 108.211C75.7199 108.211 75.3934 108.101 75.067 107.946Z" fill="white"/>
<path d="M77.5921 103.706C78.0057 103.706 78.3757 104.015 78.3757 104.479C78.3757 104.965 78.0057 105.274 77.5921 105.274C77.1786 105.274 76.8086 104.965 76.8086 104.479C76.8086 104.015 77.1786 103.706 77.5921 103.706ZM77.5921 105.119C77.9186 105.119 78.1798 104.854 78.1798 104.501C78.1798 104.148 77.9186 103.883 77.5921 103.883C77.2657 103.883 77.0045 104.148 77.0045 104.501C77.0045 104.854 77.2657 105.119 77.5921 105.119ZM77.2874 104.059H77.6139C77.8315 104.059 77.9621 104.126 77.9621 104.324C77.9621 104.479 77.8533 104.545 77.7445 104.567L77.9839 104.943H77.8098L77.5921 104.567H77.4833V104.943H77.3092V104.059H77.2874ZM77.4615 104.413H77.6139C77.701 104.413 77.788 104.391 77.788 104.28C77.788 104.192 77.6792 104.17 77.6139 104.17H77.4615V104.413Z" fill="white"/>
</svg>
