<svg width="13" height="17" viewBox="0 0 13 17" fill="none" xmlns="http://www.w3.org/2000/svg">
<path d="M6.28027 0.982422C2.97288 0.982422 0.280273 3.67502 0.280273 6.98392C0.280273 11.4117 5.81623 16.6713 6.05269 16.8927C6.11771 16.9525 6.20047 16.9824 6.28027 16.9824C6.36007 16.9824 6.44579 16.9525 6.50786 16.8927C6.74431 16.6713 12.2803 11.4087 12.2803 6.98392C12.2832 3.67502 9.59062 0.982422 6.28027 0.982422ZM6.28027 10.3168C4.44185 10.3168 2.94628 8.82087 2.94628 6.98392C2.94628 5.14697 4.44185 3.64809 6.28027 3.64809C8.1187 3.64809 9.61426 5.14398 9.61426 6.98093C9.61426 8.81787 8.1187 10.3168 6.28027 10.3168Z" fill="white"/>
</svg>
