<svg width="20" height="20" viewBox="0 0 20 20" fill="none" xmlns="http://www.w3.org/2000/svg">
<path d="M8.532 16.4177C10.2818 16.4174 11.9812 15.8316 13.3596 14.7538L17.6932 19.0872L19.0872 17.6933L14.7535 13.3599C15.832 11.9815 16.4181 10.2818 16.4185 8.5316C16.4185 4.18338 12.8804 0.645462 8.532 0.645462C4.18356 0.645462 0.645457 4.18338 0.645457 8.5316C0.645457 12.8798 4.18356 16.4177 8.532 16.4177ZM8.532 2.617C11.7941 2.617 14.4469 5.2697 14.4469 8.5316C14.4469 11.7935 11.7941 14.4462 8.532 14.4462C5.26993 14.4462 2.61709 11.7935 2.61709 8.5316C2.61709 5.2697 5.26993 2.617 8.532 2.617Z" fill="#005EAB"/>
<path fill-rule="evenodd" clip-rule="evenodd" d="M8.532 17.0632C3.82712 17.0632 0 13.2363 0 8.5316C0 3.82687 3.82712 0 8.532 0C13.2369 0 17.064 3.82687 17.064 8.5316C17.0636 10.234 16.5512 11.8923 15.6002 13.2937L20 17.6933L17.6932 20L13.2933 15.6003C11.892 16.5508 10.234 17.0629 8.532 17.0632ZM13.3596 14.7538C11.9812 15.8316 10.2818 16.4174 8.532 16.4177C4.18356 16.4177 0.645457 12.8798 0.645457 8.5316C0.645457 4.18338 4.18356 0.645462 8.532 0.645462C12.8804 0.645462 16.4185 4.18338 16.4185 8.5316C16.4181 10.2818 15.832 11.9815 14.7535 13.3599L19.0872 17.6933L17.6932 19.0872L13.3596 14.7538ZM13.8015 8.5316C13.8015 5.62621 11.4376 3.26246 8.532 3.26246C5.62638 3.26246 3.26255 5.62621 3.26255 8.5316C3.26255 11.437 5.62638 13.8007 8.532 13.8007C11.4376 13.8007 13.8015 11.437 13.8015 8.5316ZM14.4469 8.5316C14.4469 5.2697 11.7941 2.617 8.532 2.617C5.26993 2.617 2.61709 5.2697 2.61709 8.5316C2.61709 11.7935 5.26993 14.4462 8.532 14.4462C11.7941 14.4462 14.4469 11.7935 14.4469 8.5316Z" fill="#005EAB"/>
</svg>
