<svg width="20" height="20" viewBox="0 0 20 20" fill="none" xmlns="http://www.w3.org/2000/svg">
<path d="M10 20C15.5228 20 20 15.5228 20 10C20 4.47715 15.5228 0 10 0C4.47715 0 0 4.47715 0 10C0 15.5228 4.47715 20 10 20Z" fill="white"/>
<path d="M13.4753 12.9332L13.8895 10.0589H11.2965V8.19397C11.2965 7.4083 11.6581 6.6408 12.8205 6.6408H14V4.19432C14 4.19432 12.9297 4 11.9066 4C9.7712 4 8.37475 5.37562 8.37475 7.86824V10.0589H6V12.9332H8.37475V19.8798C8.85076 19.9595 9.33859 20 9.83563 20C10.3327 20 10.8205 19.9581 11.2965 19.8798V12.9332H13.4753Z" fill="#FE8836"/>
</svg>
