<svg width="18" height="14" viewBox="0 0 18 14" fill="none" xmlns="http://www.w3.org/2000/svg">
<path fill-rule="evenodd" clip-rule="evenodd" d="M17.6239 2.73898C17.4169 1.94374 16.8069 1.31753 16.0324 1.105C14.6288 0.71875 9.00001 0.71875 9.00001 0.71875C9.00001 0.71875 3.37122 0.71875 1.96753 1.105C1.19301 1.31753 0.583057 1.94374 0.376057 2.73898C0 4.18027 0 7.18751 0 7.18751C0 7.18751 0 10.1946 0.376057 11.636C0.583057 12.4313 1.19301 13.0575 1.96753 13.2701C3.37122 13.6563 9.00001 13.6563 9.00001 13.6563C9.00001 13.6563 14.6288 13.6563 16.0324 13.2701C16.8069 13.0575 17.4169 12.4313 17.6239 11.636C18 10.1946 18 7.18751 18 7.18751C18 7.18751 18 4.18027 17.6239 2.73898Z" fill="white"/>
<path fill-rule="evenodd" clip-rule="evenodd" d="M7.3125 10.2813V4.65625L11.8125 7.46886L7.3125 10.2813Z" fill="#FE8836"/>
</svg>
